<svg width="163" height="40" viewBox="0 0 163 40" fill="none" xmlns="http://www.w3.org/2000/svg">
<path d="M82.5449 31.9974V9.03975H86.2874V30.3676C86.4065 30.3951 86.5304 30.3951 86.6495 30.3676H108.299C109.361 30.3687 110.409 30.1284 111.364 29.6648C112.319 29.2011 113.156 28.5264 113.812 27.6916C115.181 26.0536 116.047 24.0554 116.307 21.9371C116.627 20.0407 116.489 18.0953 115.905 16.2631C115.542 14.9647 114.9 13.761 114.025 12.7359C113.149 11.7108 112.06 10.8889 110.835 10.3275C109.388 9.64736 107.775 9.40316 106.192 9.62469C104.609 9.84622 103.125 10.5239 101.921 11.575C100.009 13.1468 98.7768 15.3953 98.4805 17.8526C98.1016 19.9911 98.2959 22.1918 99.0438 24.2308C99.844 26.2662 101.248 28.0076 103.068 29.2207L103.35 29.4219L103.45 29.5226C103.07 29.5838 102.683 29.5838 102.303 29.5226C100.744 29.2605 99.2732 28.6214 98.0178 27.6608C96.7623 26.7002 95.7607 25.4473 95.1002 24.0111C94.4396 22.5749 94.1402 20.9991 94.2278 19.4207C94.3155 17.8424 94.7877 16.3094 95.6032 14.9552C96.5179 13.2698 97.7893 11.8043 99.3288 10.6609C100.868 9.5176 102.639 8.724 104.517 8.33553C106.743 7.82644 109.064 7.89767 111.255 8.54239C113.446 9.18711 115.435 10.3837 117.032 12.0176C118.856 13.6851 120.05 15.9306 120.412 18.3757C120.819 20.868 120.319 23.4234 119.004 25.5789C118.096 27.1328 116.877 28.482 115.422 29.5416C113.968 30.6012 112.31 31.3483 110.553 31.7358C109.822 31.9143 109.072 32.0021 108.319 31.9974H82.5449Z" fill="#EA0105"/>
<path d="M15.8649 21.7159V31.9774H12.1426V9.06C12.2534 9.02167 12.3738 9.02167 12.4846 9.06C16.5088 9.06 20.5329 9.06 24.4162 9.06C26.5614 9.00427 28.6475 9.76677 30.2511 11.1928C31.2809 12.1337 31.9204 13.4266 32.0434 14.8161C32.1663 16.2056 31.7637 17.5907 30.9151 18.6978C29.7314 20.1387 28.0524 21.0858 26.2069 21.3537L30.5932 26.6454L34.9594 31.9372C34.9594 32.0378 34.738 31.9372 34.6576 31.9372H30.4725C30.37 31.9434 30.2676 31.9226 30.1758 31.8766C30.0839 31.8307 30.0058 31.7614 29.9493 31.6756C27.3471 28.4697 24.7783 25.2504 22.2431 22.0177C22.1788 21.9131 22.0858 21.8292 21.9753 21.7757C21.8648 21.7222 21.7413 21.7015 21.6194 21.7159H15.8649ZM15.8649 20.066H23.2894C23.7293 20.0701 24.1683 20.0228 24.5972 19.9251C25.424 19.7589 26.1872 19.3631 26.7993 18.783C27.4114 18.2029 27.8476 17.4621 28.058 16.6455C28.3395 15.8236 28.385 14.9393 28.1894 14.0929C27.9938 13.2464 27.5649 12.4718 26.9514 11.8568C26.5018 11.4177 25.965 11.078 25.3757 10.8597C24.7865 10.6413 24.158 10.5491 23.5309 10.5892H16.1667C16.0762 10.5533 15.9755 10.5533 15.885 10.5892L15.8649 20.066Z" fill="#EA0105"/>
<path d="M126.529 13.3658V31.9774H124.799V9.01975H127.757C127.838 9.01654 127.919 9.03317 127.993 9.06822C128.066 9.10327 128.13 9.15569 128.179 9.22096L135.503 17.5308L142.002 24.9754C142.027 24.9865 142.055 24.9922 142.082 24.9922C142.11 24.9922 142.138 24.9865 142.163 24.9754V8.87891H143.934V31.9774C143.626 32.0075 143.316 32.0075 143.008 31.9774C142.867 31.9774 142.807 31.9774 142.726 31.7762L135.262 23.2853L127.213 14.2109L126.529 13.3658Z" fill="#EA0105"/>
<path d="M37.7969 31.9574V9.04004H54.2153L54.497 10.5692H41.5594V19.4223H50.493V21.0521H41.5594V30.4081H55.6439C55.5231 30.9514 55.3421 31.4142 55.2012 31.8971C55.2012 31.8971 55.1006 31.8971 55.0201 31.8971H38.1188C38.0177 31.9422 37.9074 31.9629 37.7969 31.9574Z" fill="#EA0105"/>
<path d="M55.9844 9.02004H60.0085C60.2097 9.02004 60.2298 9.20112 60.2902 9.32185C61.256 11.3339 62.3023 13.346 63.1674 15.358L68.6402 26.8268C68.6402 26.8268 68.6403 26.9878 68.8012 27.028L76.8495 8.91943H78.7207L77.7549 11.0522C75.0721 16.847 72.3894 22.6551 69.7066 28.4767C69.2238 29.523 68.7409 30.4887 68.2781 31.6356C68.2408 31.7172 68.1815 31.7867 68.1068 31.8365C68.0322 31.8862 67.9452 31.9142 67.8555 31.9173C67.1916 32.0179 66.8495 31.7563 66.5477 31.1326C63.4894 24.7342 60.3707 18.3761 57.2922 11.9979L56.2258 9.48281C56.1542 9.32411 56.0735 9.16961 55.9844 9.02004Z" fill="#EA0105"/>
<path d="M150.31 11.6353C150.342 12.0076 150.297 12.3826 150.176 12.7363C150.056 13.0901 149.864 13.415 149.611 13.6904C149.358 13.9658 149.051 14.1857 148.709 14.3361C148.367 14.4865 147.998 14.5642 147.624 14.5642C147.25 14.5642 146.881 14.4865 146.539 14.3361C146.196 14.1857 145.889 13.9658 145.637 13.6904C145.384 13.415 145.192 13.0901 145.071 12.7363C144.951 12.3826 144.906 12.0076 144.938 11.6353C144.996 10.9631 145.304 10.3371 145.802 9.881C146.299 9.42491 146.949 9.17188 147.624 9.17188C148.299 9.17188 148.949 9.42491 149.446 9.881C149.944 10.3371 150.252 10.9631 150.31 11.6353ZM145.461 11.6353C145.444 11.9315 145.489 12.2279 145.592 12.5059C145.695 12.784 145.855 13.0377 146.061 13.2512C146.267 13.4646 146.515 13.6333 146.789 13.7465C147.063 13.8597 147.358 13.915 147.654 13.909C147.945 13.9012 148.231 13.8361 148.497 13.7176C148.762 13.5991 149.002 13.4294 149.202 13.2183C149.402 13.0071 149.558 12.7586 149.662 12.487C149.766 12.2154 149.815 11.926 149.807 11.6353C149.792 11.0658 149.557 10.5241 149.152 10.1231C148.747 9.72205 148.204 9.49259 147.634 9.48244C147.058 9.48244 146.505 9.71138 146.097 10.1189C145.69 10.5264 145.461 11.0791 145.461 11.6555V11.6353Z" fill="#EA0105"/>
<path d="M147.091 11.917V13.1645C146.925 13.1947 146.754 13.1947 146.588 13.1645V10.086C147.104 10.0455 147.622 10.0455 148.137 10.086C148.236 10.0859 148.333 10.1058 148.424 10.1447C148.515 10.1836 148.596 10.2406 148.664 10.3122C148.732 10.3838 148.784 10.4685 148.818 10.561C148.852 10.6536 148.867 10.7521 148.862 10.8506C148.885 10.9526 148.887 11.0583 148.868 11.1611C148.849 11.264 148.809 11.3618 148.75 11.4486C148.692 11.5353 148.616 11.6092 148.528 11.6655C148.44 11.7219 148.341 11.7595 148.238 11.7762H148.097L148.922 13.084C148.855 13.1165 148.782 13.1344 148.708 13.1366C148.634 13.1388 148.56 13.1251 148.492 13.0966C148.423 13.068 148.361 13.0252 148.311 12.971C148.26 12.9168 148.221 12.8524 148.198 12.7822C148.077 12.5407 147.896 12.3395 147.795 12.1182C147.764 12.0573 147.72 12.0034 147.667 11.96C147.614 11.9165 147.552 11.8844 147.486 11.8655C147.421 11.8467 147.351 11.8415 147.283 11.8504C147.215 11.8592 147.15 11.8819 147.091 11.917ZM147.091 11.4542C147.399 11.4846 147.709 11.4846 148.016 11.4542C148.127 11.4345 148.225 11.3737 148.293 11.2841C148.36 11.1945 148.391 11.0827 148.379 10.9713C148.381 10.9158 148.373 10.8603 148.354 10.808C148.336 10.7557 148.307 10.7076 148.269 10.6665C148.232 10.6254 148.187 10.5921 148.136 10.5684C148.086 10.5448 148.032 10.5313 147.976 10.5287C147.682 10.4884 147.385 10.4884 147.091 10.5287V11.4542Z" fill="#EA0105"/>
</svg>
