<svg width="81" height="40" viewBox="0 0 81 40" fill="none" xmlns="http://www.w3.org/2000/svg">
<path d="M6.9731 22.3977C6.97658 21.1805 7.20301 19.9765 7.63881 18.8581C8.07461 17.7397 8.7108 16.7299 9.50923 15.8891C10.3077 15.0484 11.2519 14.394 12.2853 13.9654C13.3187 13.5367 14.42 13.3425 15.5231 13.3945C15.5661 13.392 15.609 13.3992 15.6494 13.4156C15.6898 13.432 15.7267 13.4573 15.7579 13.49C15.7891 13.5227 15.8139 13.562 15.8308 13.6056C15.8478 13.6492 15.8565 13.6961 15.8564 13.7436V17.8593C15.8565 17.9488 15.8255 18.0349 15.7696 18.0999C15.7138 18.1649 15.6375 18.2037 15.5564 18.2084C15.0089 18.2183 14.4696 18.3562 13.974 18.6131C13.4785 18.8699 13.0381 19.2399 12.682 19.6985C12.3259 20.1571 12.0623 20.6938 11.9084 21.2731C11.7546 21.8525 11.7142 22.4613 11.7898 23.0591V33.569C11.792 33.6164 11.7855 33.6638 11.7706 33.7083C11.7557 33.7528 11.7328 33.7935 11.7031 33.8278C11.6735 33.8622 11.6378 33.8896 11.5983 33.9083C11.5587 33.927 11.5161 33.9366 11.4731 33.9365H7.28976C7.24674 33.9366 7.20415 33.927 7.1646 33.9083C7.12505 33.8896 7.08937 33.8622 7.05974 33.8278C7.03011 33.7935 7.00714 33.7528 6.99224 33.7083C6.97735 33.6638 6.97083 33.6164 6.9731 33.569V22.3977Z" fill="#008AFF"/>
<path d="M64.2387 22.3975C64.2421 21.1787 64.469 19.9732 64.9059 18.8535C65.3427 17.7338 65.9804 16.7231 66.7806 15.8821C67.5809 15.0411 68.5271 14.3871 69.5625 13.9596C70.5978 13.5321 71.7009 13.3398 72.8054 13.3943C72.847 13.3943 72.8882 13.4033 72.9266 13.4209C72.965 13.4384 72.9999 13.4641 73.0293 13.4965C73.0587 13.529 73.082 13.5675 73.0979 13.6098C73.1139 13.6522 73.1221 13.6976 73.1221 13.7434V17.8592C73.1222 17.9486 73.0911 18.0348 73.0353 18.0997C72.9794 18.1647 72.9031 18.2036 72.8221 18.2083C72.276 18.2207 71.7385 18.3605 71.2449 18.6185C70.7514 18.8764 70.3131 19.2468 69.9588 19.7051C69.6045 20.1634 69.3423 20.6992 69.1895 21.2773C69.0366 21.8554 68.9966 22.4626 69.0721 23.059V33.5689C69.0721 33.6663 69.0369 33.7598 68.9744 33.8287C68.9119 33.8976 68.8271 33.9363 68.7387 33.9363H64.5554C64.5124 33.9364 64.4698 33.9268 64.4302 33.9081C64.3907 33.8894 64.355 33.8621 64.3254 33.8277C64.2957 33.7933 64.2728 33.7526 64.2579 33.7081C64.243 33.6636 64.2365 33.6162 64.2387 33.5689V22.3975Z" fill="#008AFF"/>
<path d="M17.9558 13.3944H22.1892C22.2731 13.3944 22.3537 13.4312 22.4131 13.4967C22.4725 13.5621 22.5058 13.6509 22.5058 13.7435V33.569C22.5059 33.6633 22.4731 33.7541 22.4142 33.8225C22.3552 33.8909 22.2746 33.9317 22.1892 33.9364H17.9558C17.9128 33.9365 17.8702 33.9269 17.8307 33.9082C17.7911 33.8895 17.7554 33.8622 17.7258 33.8278C17.6962 33.7934 17.6732 33.7527 17.6583 33.7082C17.6434 33.6637 17.6369 33.6163 17.6392 33.569V13.7435C17.6367 13.697 17.6433 13.6504 17.6583 13.6068C17.6734 13.5633 17.6966 13.5237 17.7265 13.4907C17.7564 13.4578 17.7923 13.4322 17.8318 13.4156C17.8714 13.399 17.9136 13.3917 17.9558 13.3944ZM17.7225 8.81931C17.7225 8.10784 17.9789 7.42551 18.4352 6.92243C18.8915 6.41935 19.5105 6.13672 20.1558 6.13672C20.8012 6.13672 21.4201 6.41935 21.8765 6.92243C22.3328 7.42551 22.5892 8.10784 22.5892 8.81931C22.5892 9.53078 22.3328 10.2131 21.8765 10.7162C21.4201 11.2193 20.8012 11.5019 20.1558 11.5019C19.5105 11.5019 18.8915 11.2193 18.4352 10.7162C17.9789 10.2131 17.7225 9.53078 17.7225 8.81931Z" fill="#008AFF"/>
<path d="M38.7231 13.3945V4.96092C38.7272 4.86977 38.7618 4.78354 38.8204 4.71901C38.8789 4.65448 38.9571 4.61627 39.0398 4.61182H43.3565C43.4391 4.61627 43.5174 4.65448 43.5759 4.71901C43.6344 4.78354 43.6691 4.86977 43.6731 4.96092V24.18C43.6898 25.5756 43.4441 26.9598 42.9515 28.2454C42.4589 29.5311 41.7301 30.6903 40.8109 31.6501C39.8918 32.6099 38.8023 33.3493 37.6112 33.8219C36.42 34.2945 35.1529 34.4899 33.8898 34.3959C32.6232 34.4723 31.356 34.2591 30.1677 33.7697C28.9794 33.2803 27.8958 32.5253 26.9849 31.5522C26.074 30.579 25.3554 29.4087 24.8744 28.1147C24.3934 26.8207 24.1603 25.4311 24.1898 24.033C24.1363 22.628 24.3465 21.226 24.8073 19.9147C25.268 18.6034 25.9694 17.4111 26.8674 16.4125C27.7655 15.4138 28.8409 14.6303 30.0263 14.111C31.2117 13.5917 32.4816 13.3478 33.7565 13.3945H38.7231ZM38.7231 18.429H34.1065C33.4417 18.395 32.7777 18.5143 32.1571 18.7792C31.5365 19.0442 30.9729 19.449 30.5023 19.9678C30.0317 20.4866 29.6645 21.108 29.4242 21.7922C29.1838 22.4763 29.0756 23.2083 29.1065 23.9412C29.0412 24.6577 29.1166 25.3813 29.3277 26.0629C29.5387 26.7444 29.8804 27.3679 30.3294 27.8908C30.7785 28.4138 31.3245 28.8241 31.9302 29.0937C32.5359 29.3633 33.1872 29.486 33.8398 29.4533C34.4907 29.5069 35.1445 29.4065 35.7575 29.1589C36.3704 28.9113 36.9282 28.5223 37.3937 28.0178C37.8592 27.5133 38.2216 26.905 38.4566 26.2337C38.6916 25.5623 38.7939 24.8433 38.7565 24.1249L38.7231 18.429Z" fill="#008AFF"/>
<path fill-rule="evenodd" clip-rule="evenodd" d="M57.3911 19.8807C57.1261 19.1758 56.6775 18.5733 56.102 18.1495C55.5265 17.7256 54.8499 17.4994 54.1578 17.4994C53.4656 17.4994 52.7891 17.7256 52.2135 18.1495C51.638 18.5733 51.1894 19.1758 50.9244 19.8807H57.3911ZM54.1578 14.4971C55.0933 14.4996 56.0164 14.7337 56.859 15.182C57.7015 15.6303 58.4421 16.2814 59.0259 17.0873C59.6098 17.8932 60.0221 18.8333 60.2324 19.8383C60.4427 20.8433 60.4457 21.8875 60.2411 22.894H50.9244C51.1953 23.5919 51.6461 24.1869 52.2209 24.6049C52.7957 25.023 53.4691 25.2459 54.1578 25.2458C54.9616 25.2599 55.7429 24.9532 56.3578 24.3823H59.7744C59.2868 25.484 58.5408 26.4219 57.6136 27.0986C56.6864 27.7754 55.612 28.1664 54.5015 28.2312C53.3911 28.2959 52.2852 28.032 51.2985 27.4668C50.3117 26.9016 49.4801 26.0557 48.8898 25.0168C48.2995 23.9779 47.9721 22.7839 47.9414 21.5585C47.9107 20.3331 48.178 19.1209 48.7154 18.0477C49.2528 16.9745 50.0408 16.0794 50.9978 15.455C51.9548 14.8307 53.0458 14.5 54.1578 14.4971ZM47.6078 14.148C49.3471 12.2329 51.7054 11.1579 54.1637 11.1597C55.3809 11.1605 56.586 11.4257 57.7103 11.94C58.8346 12.4543 59.8559 13.2077 60.7161 14.1572C61.5763 15.1067 62.2584 16.2336 62.7235 17.4737C63.1885 18.7138 63.4275 20.0427 63.4268 21.3846C63.426 22.7265 63.1855 24.0551 62.7189 25.2946C62.2524 26.534 61.569 27.66 60.7078 28.6083L54.1578 35.8292L47.6078 28.6083C46.7435 27.6606 46.0577 26.534 45.5898 25.2932C45.1218 24.0524 44.8809 22.7219 44.8809 21.3781C44.8809 20.0343 45.1218 18.7038 45.5898 17.463C46.0577 16.2222 46.7435 15.0956 47.6078 14.148Z" fill="#05CED8"/>
</svg>
