<svg width="115" height="40" viewBox="0 0 115 40" fill="none" xmlns="http://www.w3.org/2000/svg">
<path d="M89.0487 26.4449C89.0046 26.4449 88.9624 26.4274 88.9312 26.3963C88.9001 26.3651 88.8826 26.3229 88.8826 26.2789V5.15404C88.8876 5.12854 88.8848 5.10213 88.8746 5.07825C88.8643 5.05437 88.8471 5.03414 88.8252 5.02019C88.8033 5.00624 88.7777 4.99923 88.7517 5.00007C88.7258 5.00091 88.7006 5.00956 88.6797 5.02489C88.6797 5.02489 87.2222 6.03962 85.6539 7.34954C84.7958 8.02856 83.9765 8.7554 83.2001 9.5266C83.2001 9.5266 82.9972 9.72954 82.9972 9.85869V25.873C82.8895 27.3567 83.3738 28.8227 84.344 29.9503C85.6425 30.9826 87.2843 31.4837 88.938 31.3525H91.2442C91.2699 31.3551 91.2959 31.3522 91.3205 31.3441C91.345 31.336 91.3676 31.3228 91.3867 31.3054C91.4059 31.288 91.4211 31.2668 91.4315 31.2431C91.4419 31.2195 91.4472 31.1939 91.4471 31.168V26.6478C91.4471 26.594 91.4257 26.5424 91.3877 26.5043C91.3496 26.4663 91.298 26.4449 91.2442 26.4449H89.0487Z" fill="#FC153B"/>
<path d="M81.6304 10.7077C81.6057 10.6722 81.5725 10.6435 81.5338 10.6241C81.4952 10.6048 81.4522 10.5955 81.409 10.597H76.0033C75.9465 10.5976 75.8913 10.6156 75.8451 10.6486C75.7988 10.6816 75.7639 10.728 75.745 10.7815C74.9886 13.5121 74.1952 16.3164 73.3834 18.9916C72.793 21.3163 72.1842 23.6409 71.5385 25.984C70.9665 23.6594 70.3577 21.3163 69.6935 18.9916C68.8448 16.2426 67.9777 13.4567 67.1106 10.7446C67.0979 10.691 67.0671 10.6434 67.0234 10.6098C66.9797 10.5762 66.9258 10.5587 66.8707 10.5601C66.0835 13.8688 65.2041 17.2143 64.2324 20.5967C65.4132 24.2867 66.5755 27.7736 67.7194 31.3713C67.7372 31.422 67.7693 31.4665 67.8119 31.4993C67.8545 31.532 67.9057 31.5517 67.9592 31.5558H74.7672C74.8222 31.5573 74.8762 31.5398 74.9199 31.5062C74.9635 31.4726 74.9943 31.4249 75.007 31.3713C77.3317 24.5819 79.601 17.8108 81.6673 11.0767C81.6851 11.0425 81.6944 11.0046 81.6944 10.966C81.6944 10.9275 81.6851 10.8895 81.6673 10.8553" fill="#FFDE14"/>
<path d="M66.9644 10.5603H61.2819C61.2228 10.5621 61.1659 10.5828 61.1194 10.6193C61.0729 10.6559 61.0393 10.7063 61.0236 10.7633C60.3779 13.5123 59.7137 16.2982 59.0495 19.0103C58.6436 20.8552 58.2377 22.7002 57.8134 24.5452C57.3152 22.7002 56.8355 20.8552 56.3374 19.0103C55.5625 16.2797 54.7692 13.4754 53.9943 10.7817C53.9762 10.7261 53.942 10.6771 53.896 10.641C53.85 10.6049 53.7943 10.5832 53.736 10.5788H48.5148C48.4597 10.5773 48.4058 10.5948 48.3621 10.6284C48.3184 10.662 48.2876 10.7097 48.2749 10.7633C47.4631 13.5123 46.6698 16.2982 45.8949 18.9918C45.4029 20.8245 44.9232 22.6694 44.4558 24.5267C44.0315 22.6817 43.6256 20.8368 43.2197 18.9918C42.5555 16.2428 41.9283 13.4569 41.3748 10.7817C41.359 10.7248 41.3255 10.6743 41.279 10.6378C41.2325 10.6013 41.1756 10.5806 41.1165 10.5788H35.5816C35.5415 10.5802 35.5023 10.5909 35.467 10.6102C35.4318 10.6294 35.4015 10.6565 35.3786 10.6895C35.3608 10.7237 35.3516 10.7616 35.3516 10.8002C35.3516 10.8387 35.3608 10.8767 35.3786 10.9109C37.2236 17.6634 39.0686 24.4529 41.0611 31.2055C41.0769 31.2624 41.1104 31.3129 41.1569 31.3494C41.2034 31.3859 41.2603 31.4066 41.3194 31.4084H47.2048C47.2625 31.4091 47.3186 31.389 47.3626 31.3517C47.4067 31.3144 47.4358 31.2625 47.4447 31.2055C48.238 28.3458 49.0498 25.4676 49.88 22.5895C50.2859 21.0766 50.6918 19.6191 51.0977 18.0878C51.5036 19.6191 51.9095 21.0766 52.3154 22.5895C53.1456 25.4676 53.9943 28.3458 54.8245 31.2239C54.8403 31.2809 54.8738 31.3313 54.9203 31.3679C54.9668 31.4044 55.0237 31.4251 55.0828 31.4269H61.079C61.1373 31.4224 61.193 31.4008 61.2389 31.3646C61.2849 31.3285 61.3191 31.2795 61.3373 31.2239L64.2154 20.4862C65.1563 17.1653 66.0604 13.8444 66.9644 10.5234" fill="#FC153B"/>
<path d="M67.7211 12.4789L64.7508 22.1834L64.1973 20.523L66.9647 10.5786C67.0214 10.5814 67.0757 10.6027 67.119 10.6394C67.1624 10.6761 67.1924 10.7261 67.2046 10.7816C67.2046 10.9845 67.7211 12.4789 67.7211 12.4789Z" fill="#FFDE14"/>
<path d="M34.9724 24.5822C34.9724 22.4605 34.0868 20.1174 29.05 18.4938L28.2567 18.2355C26.4117 17.6636 24.7144 17.2023 24.6775 16.1323C24.6406 15.0622 25.7476 14.564 27.2235 14.5087C28.7423 14.5499 30.2113 15.0589 31.43 15.9662C31.4576 15.9947 31.4905 16.0173 31.527 16.0327C31.5634 16.0482 31.6026 16.0562 31.6422 16.0562C31.6818 16.0562 31.721 16.0482 31.7574 16.0327C31.7939 16.0173 31.8269 15.9947 31.8544 15.9662L34.3266 12.387C34.3446 12.3496 34.354 12.3086 34.354 12.2671C34.354 12.2255 34.3446 12.1846 34.3266 12.1471C34.3403 12.1151 34.3474 12.0805 34.3474 12.0457C34.3474 12.0108 34.3403 11.9763 34.3266 11.9442C32.1604 10.4549 29.5742 9.6984 26.9468 9.78558C22.0576 9.93318 18.5891 12.5346 18.7552 16.5197C18.8659 19.2871 21.1536 21.1321 24.9173 22.4051L25.6184 22.645C27.4634 23.2907 29.1423 23.8811 29.1792 25.025C29.2161 26.1688 28.3121 26.7408 26.6516 26.8699H26.3933C24.5812 26.7888 22.8397 26.1438 21.4119 25.025C21.3342 24.9983 21.2498 24.9983 21.1721 25.025C21.0913 25.0427 21.0194 25.0885 20.9691 25.1541L18.5153 28.844C18.4567 28.9028 18.4238 28.9824 18.4238 29.0654C18.4238 29.1484 18.4567 29.228 18.5153 29.2868C20.7781 30.8154 23.4413 31.6432 26.1719 31.6668H26.5778C31.9097 31.5192 35.1569 28.8994 34.9724 24.7113" fill="#FC153B"/>
<path d="M94.897 27.9756L94.731 27.6066H94.4911V27.9756H94.3066V26.9608H94.7494C94.7894 26.9499 94.8311 26.947 94.8722 26.9522C94.9134 26.9575 94.953 26.9707 94.989 26.9913C95.025 27.0118 95.0566 27.0393 95.0819 27.072C95.1073 27.1048 95.126 27.1422 95.1369 27.1822C95.1478 27.2222 95.1507 27.2639 95.1455 27.305C95.1402 27.3461 95.127 27.3858 95.1064 27.4218C95.0859 27.4578 95.0584 27.4893 95.0257 27.5147C94.9929 27.5401 94.9555 27.5588 94.9155 27.5697L95.1 27.9756H94.897ZM94.7494 27.1269H94.4911V27.4221H94.7494C94.8601 27.4221 94.9155 27.4221 94.9155 27.2745C94.9109 27.2337 94.8914 27.1961 94.8608 27.1688C94.8301 27.1416 94.7905 27.1266 94.7494 27.1269Z" fill="#FC153B"/>
<path d="M94.6766 28.4559C94.4009 28.4559 94.1362 28.3477 93.9395 28.1544C93.7428 27.9612 93.6298 27.6984 93.625 27.4227C93.6297 27.1453 93.7421 26.8806 93.9383 26.6844C94.1345 26.4882 94.3992 26.3758 94.6766 26.3711C94.9523 26.3759 95.2151 26.4889 95.4083 26.6856C95.6016 26.8823 95.7099 27.147 95.7098 27.4227C95.7098 27.6967 95.601 27.9595 95.4072 28.1533C95.2134 28.347 94.9506 28.4559 94.6766 28.4559ZM94.6766 26.6109C94.5645 26.6084 94.453 26.6286 94.3489 26.6704C94.2448 26.7122 94.1502 26.7746 94.0709 26.8539C93.9916 26.9332 93.9292 27.0278 93.8874 27.1319C93.8457 27.236 93.8254 27.3475 93.8279 27.4596C93.8279 27.5711 93.8499 27.6814 93.8925 27.7844C93.9352 27.8874 93.9977 27.9809 94.0765 28.0597C94.1553 28.1385 94.2489 28.2011 94.3519 28.2437C94.4548 28.2864 94.5652 28.3083 94.6766 28.3083C94.9002 28.3036 95.1134 28.2127 95.2715 28.0545C95.4297 27.8964 95.5206 27.6832 95.5253 27.4596C95.5253 27.2345 95.4359 27.0187 95.2767 26.8595C95.1176 26.7004 94.9017 26.6109 94.6766 26.6109Z" fill="#FC153B"/>
</svg>
