<svg width="124" height="40" viewBox="0 0 124 40" fill="none" xmlns="http://www.w3.org/2000/svg">
<path d="M38.7967 28.7325C38.7915 28.862 38.7609 28.9892 38.7065 29.1069C38.6521 29.2245 38.575 29.3303 38.4797 29.4181C38.3844 29.506 38.2727 29.5742 38.151 29.6188C38.0294 29.6634 37.9001 29.6836 37.7706 29.6782C37.5244 29.6638 37.2922 29.5596 37.1178 29.3852C36.9435 29.2109 36.8393 28.9786 36.8249 28.7325V17.646C36.835 16.9819 36.7079 16.3229 36.4517 15.7101C36.1956 15.0973 35.8157 14.544 35.3359 14.0846C34.4042 13.1545 33.1414 12.6321 31.8249 12.6321C30.5083 12.6321 29.2456 13.1545 28.3138 14.0846C27.8365 14.5416 27.4581 15.0917 27.202 15.7008C26.9459 16.31 26.8175 16.9652 26.8249 17.6259V28.7124C26.8249 28.9792 26.7189 29.2351 26.5302 29.4238C26.3415 29.6124 26.0856 29.7184 25.8188 29.7184C25.552 29.7184 25.2961 29.6124 25.1074 29.4238C24.9188 29.2351 24.8128 28.9792 24.8128 28.7124V17.646C24.8141 16.9795 24.6791 16.3198 24.4161 15.7073C24.1532 15.0949 23.7678 14.5427 23.2836 14.0846C22.8208 13.6119 22.2683 13.2364 21.6585 12.98C21.0487 12.7236 20.3938 12.5915 19.7323 12.5915C19.0707 12.5915 18.4159 12.7236 17.8061 12.98C17.1962 13.2364 16.6437 13.6119 16.181 14.0846C15.7037 14.5416 15.3253 15.0917 15.0692 15.7008C14.8131 16.31 14.6847 16.9652 14.692 17.6259V28.7124C14.6921 28.8412 14.6652 28.9685 14.6133 29.0863C14.5613 29.2041 14.4853 29.3097 14.3902 29.3965C14.3022 29.4859 14.1973 29.557 14.0816 29.6054C13.9658 29.6539 13.8416 29.6789 13.7162 29.6789C13.5907 29.6789 13.4665 29.6539 13.3508 29.6054C13.235 29.557 13.1301 29.4859 13.0421 29.3965C12.947 29.3097 12.871 29.2041 12.8191 29.0863C12.7671 28.9685 12.7403 28.8412 12.7403 28.7124V11.6299C12.7387 11.498 12.7647 11.3671 12.8167 11.2459C12.8687 11.1246 12.9455 11.0155 13.0421 10.9257C13.1306 10.8342 13.2371 10.762 13.3548 10.7135C13.4725 10.665 13.599 10.6414 13.7262 10.644C14.2695 10.644 14.5914 10.9458 14.6719 11.5695C14.6925 11.7164 14.6925 11.8654 14.6719 12.0122C14.6719 12.2537 14.6719 12.6158 14.6719 13.0786C15.2899 12.3379 16.0575 11.7363 16.9245 11.3133C17.7914 10.8902 18.738 10.6553 19.7021 10.6239C21.0332 10.6275 22.3301 11.0461 23.412 11.8215C24.494 12.5969 25.3072 13.6905 25.7383 14.9498C26.1695 13.6905 26.9827 12.5969 28.0646 11.8215C29.1466 11.0461 30.4434 10.6275 31.7746 10.6239C32.69 10.6058 33.5994 10.7749 34.4471 11.1209C35.2948 11.4669 36.0629 11.9824 36.7042 12.6359C37.3592 13.2803 37.8756 14.0517 38.2216 14.9029C38.5676 15.7541 38.7359 16.667 38.7162 17.5856L38.7967 28.7325Z" fill="#0D0D0D" stroke="#0D0D0D" stroke-width="0.6" stroke-miterlimit="10"/>
<path d="M78.0935 11.6301C78.1234 11.7558 78.1234 11.8868 78.0935 12.0124L70.6086 28.8736C70.6205 28.9198 70.6205 28.9683 70.6086 29.0144C70.5973 29.081 70.5973 29.1491 70.6086 29.2157C70.5357 29.3843 70.4099 29.5247 70.2502 29.6155C70.0904 29.7062 69.9054 29.7425 69.7233 29.7187C69.5386 29.7405 69.3518 29.7037 69.1893 29.6134C69.0268 29.5231 68.8968 29.3839 68.8178 29.2157C68.8268 29.1624 68.8268 29.108 68.8178 29.0547V28.8736L61.011 12.0728C61.0016 11.9455 61.0016 11.8178 61.011 11.6905C61.0161 11.4306 61.1216 11.1828 61.3054 10.999C61.4892 10.8153 61.737 10.7097 61.9969 10.7046C62.1898 10.6952 62.3808 10.7464 62.5432 10.8511C62.7056 10.9557 62.8311 11.1085 62.9023 11.2881L69.6025 26.3183L76.2223 11.2277C76.298 11.0301 76.4391 10.8644 76.6222 10.7582C76.8053 10.652 77.0192 10.6118 77.2283 10.6442C77.4882 10.6494 77.736 10.7549 77.9198 10.9387C78.1035 11.1225 78.2091 11.3703 78.2142 11.6301H78.0935Z" fill="#0D0D0D" stroke="#0D0D0D" stroke-width="0.6" stroke-miterlimit="10"/>
<path d="M94.412 14.0845C94.4135 14.347 94.3125 14.5997 94.1303 14.7887L82.7821 26.1569C84.1192 27.1431 85.7288 27.6913 87.3898 27.7263C89.0222 27.7874 90.6221 27.2589 91.8969 26.2374C92.1391 26.0384 92.3677 25.8233 92.581 25.5935C92.8167 25.3702 93.1223 25.2351 93.4462 25.2113C93.5751 25.2099 93.7029 25.2362 93.8208 25.2882C93.9388 25.3403 94.0443 25.4169 94.1303 25.5131C94.2199 25.603 94.2909 25.7097 94.3392 25.8271C94.3876 25.9445 94.4123 26.0702 94.412 26.1972C94.412 26.6599 93.9693 27.1831 93.084 27.7867C91.419 28.9748 89.4348 29.6339 87.3898 29.6781C86.1411 29.6946 84.9023 29.455 83.7499 28.9739C82.5975 28.4929 81.5559 27.7807 80.6896 26.8813C79.7781 26.0105 79.0571 24.96 78.5722 23.7964C78.0874 22.6327 77.8492 21.3811 77.8727 20.1207C77.8535 18.8669 78.0939 17.6226 78.5787 16.4661C79.0634 15.3096 79.7821 14.2658 80.6896 13.4004C81.5549 12.4983 82.5958 11.783 83.7482 11.2985C84.9005 10.8141 86.1398 10.5707 87.3898 10.5835C89.4322 10.6422 91.4124 11.2999 93.084 12.4748C93.9693 13.1589 94.412 13.6821 94.412 14.0845ZM92.1383 14.2656C90.79 13.1827 89.1189 12.5809 87.3898 12.5553C85.3847 12.5658 83.4645 13.3656 82.0447 14.7816C80.625 16.1975 79.8201 18.1157 79.8043 20.1207C79.8167 21.8531 80.4361 23.5263 81.5548 24.8491L92.1383 14.2656Z" fill="#0D0D0D" stroke="#0D0D0D" stroke-width="0.6" stroke-miterlimit="10"/>
<path d="M101.495 28.7322C101.495 28.999 101.389 29.2549 101.2 29.4436C101.011 29.6322 100.755 29.7382 100.488 29.7382C100.222 29.7382 99.9658 29.6322 99.7771 29.4436C99.5884 29.2549 99.4824 28.999 99.4824 28.7322V11.6296C99.4824 11.3628 99.5884 11.1069 99.7771 10.9182C99.9658 10.7295 100.222 10.6235 100.488 10.6235C100.755 10.6235 101.011 10.7295 101.2 10.9182C101.389 11.1069 101.495 11.3628 101.495 11.6296V28.7322Z" fill="#FBB03B"/>
<path d="M115.459 28.7316C115.453 28.9895 115.347 29.2352 115.163 29.4157C114.978 29.5963 114.731 29.6974 114.473 29.6974H108.195C108.07 29.7023 107.946 29.6796 107.831 29.6309C107.717 29.5822 107.614 29.5087 107.531 29.4157C107.436 29.3289 107.36 29.2233 107.308 29.1055C107.256 28.9877 107.229 28.8603 107.229 28.7316V12.635H104.151C104.022 12.6377 103.894 12.6147 103.775 12.5673C103.655 12.52 103.547 12.4493 103.455 12.3593C103.363 12.2694 103.29 12.162 103.24 12.0435C103.19 11.925 103.165 11.7977 103.165 11.6692C103.149 11.5366 103.161 11.4022 103.199 11.2743C103.237 11.1463 103.301 11.0274 103.386 10.9247C103.475 10.8333 103.581 10.761 103.699 10.7126C103.817 10.6641 103.943 10.6404 104.07 10.643H107.149V8.81206C107.148 8.68608 107.174 8.56139 107.226 8.44671C107.278 8.33202 107.355 8.2301 107.451 8.14807C107.533 8.05246 107.634 7.97591 107.749 7.92378C107.864 7.87165 107.989 7.84519 108.115 7.84626C108.246 7.84465 108.377 7.87067 108.499 7.92265C108.62 7.97463 108.729 8.05142 108.819 8.14807C108.91 8.23278 108.982 8.33568 109.03 8.45008C109.079 8.56448 109.103 8.68781 109.1 8.81206V10.643H112.199C112.328 10.6404 112.455 10.6634 112.575 10.7107C112.694 10.758 112.803 10.8288 112.895 10.9187C112.987 11.0087 113.06 11.116 113.11 11.2345C113.159 11.353 113.185 11.4803 113.185 11.6088C113.187 11.7408 113.161 11.8716 113.109 11.9929C113.057 12.1142 112.98 12.2232 112.883 12.3131C112.704 12.4996 112.458 12.608 112.199 12.6149H109.181V27.7457H114.372C114.634 27.7457 114.884 27.8495 115.069 28.0344C115.254 28.2193 115.358 28.4701 115.358 28.7316H115.459Z" fill="#FBB03B"/>
<path d="M100.448 9.63726C101.604 9.63726 102.541 8.70039 102.541 7.5447C102.541 6.38902 101.604 5.45215 100.448 5.45215C99.2923 5.45215 98.3555 6.38902 98.3555 7.5447C98.3555 8.70039 99.2923 9.63726 100.448 9.63726Z" fill="#FBB03B"/>
<path d="M58.4961 23.5816C58.536 23.254 58.5059 22.9216 58.4078 22.6065C58.3098 22.2914 58.146 22.0006 57.9273 21.7535C57.7087 21.5063 57.4401 21.3083 57.1393 21.1725C56.8384 21.0368 56.5123 20.9663 56.1822 20.9659H52.1581L51.8563 16.4186H51.9971H54.4921C54.6358 16.4196 54.7733 16.4775 54.8744 16.5796L57.1078 19.7385H57.9327C58.3488 19.7908 58.7515 19.9204 59.1199 20.1208C59.4188 20.3022 59.6899 20.5258 59.9247 20.7848V20.9257C59.9247 20.6641 59.9247 20.4025 59.9247 20.141C59.9104 18.0796 59.2187 16.08 57.956 14.4506C56.6933 12.8211 54.9299 11.652 52.9373 11.1236C50.9447 10.5951 48.8337 10.7366 46.9294 11.5262C45.0252 12.3158 43.4334 13.7097 42.3995 15.4931H51.4136L51.6752 20.9257V21.0866H43.1842L42.7818 20.1611H51.0716L50.5484 19.477H42.5001L42.0977 18.5514H49.7838L49.2607 17.8673H41.816L41.6148 17.3844C40.8715 19.6706 41.0326 22.1547 42.0651 24.3256C43.0976 26.4965 44.9229 28.1892 47.1654 29.0552C49.408 29.9213 51.8972 29.895 54.1209 28.9816C56.3445 28.0682 58.1336 26.3373 59.1199 24.145L58.4961 23.5816ZM44.4116 24.648C44.1544 24.6319 43.9078 24.5402 43.7026 24.3844C43.4973 24.2286 43.3427 24.0157 43.2581 23.7724C43.1734 23.529 43.1626 23.2661 43.2268 23.0166C43.291 22.7671 43.4276 22.5421 43.6192 22.3699C43.8109 22.1977 44.0491 22.0859 44.304 22.0486C44.559 22.0113 44.8192 22.0502 45.0522 22.1603C45.2851 22.2704 45.4803 22.4468 45.6134 22.6674C45.7464 22.8881 45.8113 23.1431 45.7999 23.4005C45.7922 23.5741 45.75 23.7444 45.6758 23.9015C45.6015 24.0586 45.4967 24.1994 45.3675 24.3155C45.2382 24.4317 45.0871 24.5209 44.923 24.578C44.7589 24.635 44.585 24.6589 44.4116 24.648ZM53.7275 23.8432H46.7255V23.1389H53.808L53.7275 23.8432ZM54.5122 22.5152H46.1218V21.8311H54.6128L54.5122 22.5152ZM56.1219 24.648C55.8647 24.6319 55.6181 24.5402 55.4129 24.3844C55.2076 24.2286 55.053 24.0157 54.9684 23.7724C54.8837 23.529 54.8728 23.2661 54.9371 23.0166C55.0013 22.7671 55.1379 22.5421 55.3295 22.3699C55.5211 22.1977 55.7594 22.0859 56.0143 22.0486C56.2693 22.0113 56.5295 22.0502 56.7625 22.1603C56.9954 22.2704 57.1906 22.4468 57.3237 22.6674C57.4567 22.8881 57.5216 23.1431 57.5102 23.4005C57.5025 23.5741 57.4603 23.7444 57.3861 23.9015C57.3118 24.0586 57.207 24.1994 57.0778 24.3155C56.9485 24.4317 56.7974 24.5209 56.6333 24.578C56.4692 24.635 56.2953 24.6589 56.1219 24.648Z" fill="#0D0D0D"/>
<path d="M54.0489 16.8413H52.721C52.6284 16.8465 52.5414 16.8869 52.4778 16.9542C52.4141 17.0216 52.3788 17.1108 52.3789 17.2035L52.5198 19.3966C52.5297 19.4856 52.5722 19.5677 52.6391 19.6271C52.7059 19.6865 52.7925 19.7191 52.8819 19.7186H55.5781C55.6248 19.7187 55.671 19.7092 55.7138 19.6908C55.7567 19.6723 55.7953 19.6453 55.8274 19.6114C55.8594 19.5775 55.8842 19.5373 55.9001 19.4935C55.9161 19.4496 55.9229 19.403 55.9202 19.3564C55.9375 19.2973 55.9375 19.2344 55.9202 19.1753L54.5318 17.1632C54.4921 17.0679 54.4251 16.9865 54.3391 16.9292C54.2532 16.8719 54.1522 16.8413 54.0489 16.8413Z" fill="#0D0D0D" stroke="#0D0D0D" stroke-width="0.6" stroke-miterlimit="10"/>
<path d="M48.1127 16.3784H41.9557C41.9557 16.5595 41.8149 16.7406 41.7344 16.9418H48.5352L48.1127 16.3784Z" fill="#0D0D0D" stroke="#0D0D0D" stroke-width="0.6" stroke-miterlimit="10"/>
</svg>
