<svg width="46" height="40" viewBox="0 0 46 40" fill="none" xmlns="http://www.w3.org/2000/svg">
<path d="M24.9079 37.6957C34.1273 37.6957 41.601 30.2219 41.601 21.0026C41.601 11.7833 34.1273 4.30957 24.9079 4.30957C15.6886 4.30957 8.21484 11.7833 8.21484 21.0026C8.21484 30.2219 15.6886 37.6957 24.9079 37.6957Z" fill="white"/>
<path d="M41.9531 21.1089C41.9496 24.4843 40.9451 27.7828 39.0666 30.5871C37.188 33.3915 34.5199 35.5756 31.3998 36.8633C28.2797 38.151 24.8478 38.4843 21.5382 37.8211C18.2286 37.1579 15.19 35.528 12.807 33.1375C10.4239 30.7471 8.80339 27.7035 8.15043 24.3919C7.49747 21.0803 7.84141 17.6494 9.13874 14.5333C10.4361 11.4172 12.6285 8.75589 15.4387 6.88605C18.2488 5.01622 21.5504 4.02189 24.9258 4.02884C27.1657 4.03115 29.3831 4.4749 31.4513 5.33472C33.5196 6.19453 35.3981 7.45356 36.9795 9.03982C38.5608 10.6261 39.814 12.5085 40.6674 14.5794C41.5209 16.6502 41.9577 18.869 41.9531 21.1089ZM19.0859 25.4536C19.1263 25.4634 19.1685 25.4634 19.209 25.4536C19.5884 25.1512 19.9881 24.8749 20.4051 24.6269C20.6855 24.4984 20.9976 24.4556 21.3022 24.5038C21.3891 24.5206 21.4718 24.5545 21.5455 24.6035C21.6192 24.6525 21.6824 24.7156 21.7315 24.7893C21.7806 24.8629 21.8146 24.9456 21.8315 25.0324C21.8484 25.1193 21.8478 25.2087 21.8299 25.2953C21.7908 25.496 21.7131 25.6871 21.6013 25.8582C21.2494 26.4387 20.9328 27.0544 20.5986 27.6172L18.8396 30.7307C18.8396 30.7307 18.8396 30.7307 18.8396 30.8538H25.5239V28.7782H23.5186C23.5186 28.7782 23.5186 28.7782 23.5186 28.6902C23.9056 27.9163 24.2574 27.1247 24.6795 26.3507C24.7991 26.147 24.9049 25.9354 24.9962 25.7175C25.1953 25.2634 25.2914 24.7708 25.2776 24.2751C25.2186 23.6931 24.9881 23.1418 24.6155 22.6909C24.2429 22.2399 23.7448 21.9098 23.1844 21.7421C22.6645 21.6286 22.1333 21.5755 21.6013 21.5838H21.0911C20.4244 21.7063 19.7826 21.9381 19.1914 22.2698C19.1576 22.2844 19.1293 22.3092 19.1103 22.3408C19.0914 22.3724 19.0828 22.4091 19.0859 22.4457V25.2074C19.0859 25.2074 19.0859 25.3305 19.121 25.3657L19.0859 25.4536ZM25.4007 20.2821C25.6294 20.2821 27.1598 20.2821 27.2829 20.2821C27.406 20.2821 27.2829 20.1942 27.2829 20.1414V17.8371C27.2829 17.7316 27.2829 17.626 27.2829 17.5205C27.2885 17.3551 27.3306 17.1929 27.406 17.0456C27.4521 16.9204 27.5298 16.8093 27.6315 16.723C27.7332 16.6367 27.8555 16.5782 27.9865 16.553C28.02 16.5422 28.0553 16.5382 28.0904 16.5412C28.1254 16.5442 28.1595 16.5542 28.1907 16.5706C28.2218 16.587 28.2494 16.6094 28.2717 16.6366C28.294 16.6638 28.3107 16.6952 28.3207 16.7289C28.3378 16.8279 28.3378 16.929 28.3207 17.028V20.0711C28.3207 20.0711 28.3207 20.159 28.3207 20.1942H30.1677V17.8371C30.1585 17.6907 30.1585 17.5438 30.1677 17.3974C30.196 17.2567 30.2434 17.1206 30.3084 16.9928C30.3612 16.8805 30.4396 16.7822 30.5374 16.7058C30.6352 16.6294 30.7496 16.5771 30.8713 16.553C30.9036 16.5424 30.9378 16.5385 30.9717 16.5417C31.0055 16.5449 31.0384 16.5551 31.0682 16.5716C31.0979 16.5881 31.1239 16.6106 31.1445 16.6377C31.1651 16.6648 31.1799 16.6959 31.1879 16.7289C31.2064 16.8218 31.2064 16.9175 31.1879 17.0104V20.0711C31.1794 20.1117 31.1794 20.1536 31.1879 20.1942H33.0349C33.0349 20.1942 33.0349 20.1942 33.0349 20.1062V16.5882C33.0976 16.3413 33.1155 16.0851 33.0877 15.8318C33.0153 15.639 32.8976 15.4665 32.7445 15.3287C32.5914 15.191 32.4075 15.092 32.2081 15.0403C31.9351 14.9871 31.6544 14.9871 31.3814 15.0403C31.1403 15.0701 30.9079 15.1496 30.699 15.2738C30.4901 15.3979 30.3092 15.564 30.1677 15.7615C30.0932 15.6004 29.9834 15.4582 29.8463 15.3455C29.7093 15.2328 29.5485 15.1525 29.3761 15.1106C29.0575 15.04 28.7273 15.04 28.4087 15.1106C28.0586 15.1688 27.7406 15.3496 27.5116 15.6208L27.3533 15.7967V15.0755C26.7675 15.0398 26.18 15.0398 25.5942 15.0755L25.4007 20.2821ZM27.0894 24.6269V30.4668C27.0806 30.625 27.0806 30.7836 27.0894 30.9418C27.3884 30.9418 30.0973 30.9418 30.1853 30.9418C30.2732 30.9418 30.1853 21.4607 30.1853 21.3727L25.5942 23.0262L25.7525 25.1546L27.0894 24.6269ZM16.5353 15.5856C16.5353 15.0051 16.5353 14.407 16.5353 13.8266C16.5353 13.8266 16.5353 13.7386 16.4473 13.721H16.2714C15.7454 13.5069 15.1856 13.3878 14.6179 13.3692C14.2327 13.3166 13.8422 13.3166 13.457 13.3692C12.8122 13.4877 12.2075 13.7659 11.698 14.1784C11.2649 14.5252 10.9311 14.9803 10.7305 15.4976C10.4446 16.2268 10.4014 17.0287 10.6074 17.7843C10.7362 18.4743 11.1035 19.097 11.6452 19.5434C12.3374 20.0819 13.196 20.3619 14.0726 20.3349C14.5145 20.3347 14.9556 20.2995 15.3919 20.2294C15.7911 20.1618 16.1771 20.0312 16.5353 19.8424C16.5723 19.8308 16.6045 19.8072 16.6268 19.7754C16.6491 19.7436 16.6602 19.7053 16.6584 19.6665C16.6584 19.1212 16.6584 18.5935 16.6584 18.0482C16.6666 18.0287 16.6709 18.0078 16.6709 17.9866C16.6709 17.9655 16.6666 17.9445 16.6584 17.9251L16.3418 18.101C15.8004 18.3802 15.1876 18.4905 14.5828 18.4176C14.302 18.3646 14.0383 18.244 13.8145 18.0663C13.5908 17.8885 13.4137 17.6589 13.2987 17.3974C13.2468 17.2432 13.2115 17.084 13.1931 16.9224C13.1649 16.704 13.1816 16.4822 13.2421 16.2705C13.3026 16.0588 13.4056 15.8616 13.5449 15.6911C13.6557 15.5552 13.7861 15.4366 13.9319 15.3393C14.0918 15.2154 14.2786 15.1311 14.4772 15.093H14.9697C15.5498 15.1241 16.1151 15.2865 16.6232 15.568L16.5353 15.5856ZM24.9962 18.1889C25.1243 17.4944 25.0191 16.777 24.6971 16.1485C24.5628 15.8787 24.3699 15.6424 24.1325 15.4567C23.8951 15.2711 23.6193 15.1408 23.3251 15.0755C23.0173 15.0143 22.7006 15.0143 22.3928 15.0755C21.9488 15.1008 21.5221 15.256 21.1656 15.5218C20.809 15.7876 20.5385 16.1523 20.3875 16.5706C20.0952 17.3594 20.0952 18.2269 20.3875 19.0157C20.5168 19.4467 20.8064 19.8118 21.1967 20.0359C21.3725 20.1585 21.5692 20.2479 21.7772 20.2997C22.4421 20.4582 23.1351 20.4582 23.8 20.2997C24.1721 20.2068 24.5322 20.071 24.873 19.8952L24.7323 18.6463C24.7131 18.6369 24.6921 18.6321 24.6707 18.6321C24.6494 18.6321 24.6284 18.6369 24.6092 18.6463L24.2574 18.7694C23.7795 18.9177 23.2739 18.9538 22.7798 18.8749C22.5759 18.8471 22.3888 18.7473 22.2521 18.5935C22.2084 18.553 22.1734 18.504 22.1492 18.4496C22.125 18.3952 22.1122 18.3364 22.1114 18.2769L24.9962 18.1889ZM38.2064 18.1889C38.2236 17.9841 38.2236 17.7781 38.2064 17.5733C38.2199 17.0437 38.1052 16.5187 37.8722 16.0429C37.7371 15.7686 37.542 15.5282 37.3015 15.3395C37.061 15.1507 36.7811 15.0184 36.4826 14.9523C36.1689 14.8911 35.8464 14.8911 35.5327 14.9523C35.1016 14.982 34.6877 15.1333 34.339 15.3886C33.9903 15.6439 33.7211 15.9927 33.5626 16.3947C33.2615 17.194 33.2615 18.0756 33.5626 18.8749C33.637 19.1489 33.7767 19.4009 33.9697 19.6092C34.1627 19.8175 34.4032 19.9759 34.6708 20.0711C34.8224 20.1422 34.9818 20.1953 35.1457 20.2294C35.6351 20.3085 36.1339 20.3085 36.6233 20.2294C37.1273 20.1632 37.6156 20.0084 38.0657 19.772L37.9074 18.5055C37.8492 18.4954 37.7897 18.4954 37.7315 18.5055C37.3006 18.676 36.8403 18.7597 36.377 18.7518C36.1682 18.7593 35.9597 18.7295 35.7614 18.6638C35.593 18.6101 35.4494 18.4978 35.3568 18.3472C35.3299 18.2734 35.3299 18.1924 35.3568 18.1186L38.2064 18.1889ZM17.0982 15.0227C17.0982 15.1986 17.0982 20.0535 17.0982 20.1414H18.9979C18.9979 20.1414 18.9979 20.0359 18.9979 19.9831V18.0482C18.9804 17.8727 18.9804 17.696 18.9979 17.5205C19.0095 17.3538 19.0576 17.1917 19.1386 17.0456C19.1952 16.9404 19.2788 16.8524 19.3809 16.7905C19.483 16.7286 19.5997 16.6952 19.7191 16.6938H19.983L20.7921 15.0755C20.7101 14.9977 20.6052 14.9484 20.4931 14.9347C20.1441 14.8724 19.7846 14.9089 19.4552 15.0403C19.3424 15.0898 19.2407 15.1616 19.1562 15.2514C19.0525 15.379 18.9584 15.5143 18.8748 15.6559V14.9523L17.0982 15.0227ZM38.2064 14.7237C38.3164 14.726 38.4258 14.7063 38.5282 14.6658C38.6305 14.6253 38.7238 14.5648 38.8024 14.4878C38.881 14.4108 38.9435 14.3189 38.9862 14.2174C39.0288 14.1159 39.0508 14.007 39.0507 13.8969C39.0508 13.6713 38.9624 13.4547 38.8045 13.2936C38.6467 13.1324 38.4319 13.0396 38.2064 13.035C37.9731 13.035 37.7494 13.1277 37.5845 13.2926C37.4196 13.4575 37.3269 13.6812 37.3269 13.9145C37.3269 14.1478 37.4196 14.3715 37.5845 14.5364C37.7494 14.7014 37.9731 14.794 38.2064 14.794V14.7237Z" fill="#F6621C"/>
<path d="M35.3929 16.9925C35.3854 16.9035 35.3968 16.8139 35.4264 16.7297C35.4559 16.6454 35.503 16.5683 35.5645 16.5036C35.6259 16.4388 35.7004 16.3877 35.783 16.3538C35.8656 16.3198 35.9544 16.3037 36.0437 16.3065C36.1145 16.3064 36.1844 16.3222 36.2483 16.3526C36.3122 16.383 36.3685 16.4274 36.4131 16.4824C36.5227 16.6303 36.5841 16.8084 36.589 16.9925C36.1907 17.019 35.7911 17.019 35.3929 16.9925Z" fill="#F6621C"/>
<path d="M38.1724 14.6878C38.0221 14.6913 37.8742 14.65 37.7475 14.569C37.6208 14.4881 37.5211 14.3712 37.4612 14.2333C37.4012 14.0954 37.3837 13.9428 37.4109 13.795C37.4381 13.6471 37.5087 13.5107 37.6137 13.4032C37.7188 13.2956 37.8535 13.2218 38.0007 13.1912C38.1478 13.1605 38.3008 13.1744 38.4401 13.2311C38.5793 13.2878 38.6985 13.3847 38.7824 13.5095C38.8663 13.6342 38.9112 13.7811 38.9112 13.9315C38.9135 14.03 38.8962 14.1279 38.8601 14.2196C38.824 14.3113 38.77 14.3948 38.7011 14.4653C38.6323 14.5358 38.5501 14.5917 38.4593 14.63C38.3685 14.6682 38.2709 14.6879 38.1724 14.6878ZM38.0141 14.0722C38.102 14.0722 38.1548 14.0722 38.2076 14.0722C38.276 14.1468 38.3351 14.2295 38.3835 14.3184C38.3835 14.424 38.4714 14.424 38.5946 14.3184L38.4539 14.1074L38.2955 13.8963C38.3351 13.8663 38.3646 13.825 38.3803 13.778C38.396 13.7309 38.3971 13.6802 38.3835 13.6324C38.3753 13.5869 38.3545 13.5446 38.3233 13.5104C38.2922 13.4762 38.2521 13.4514 38.2076 13.4389C38.0851 13.4214 37.9607 13.4214 37.8382 13.4389C37.8088 13.7549 37.8088 14.0729 37.8382 14.3888H37.9437C38.0141 14.2833 37.9965 14.0722 38.0141 14.0722Z" fill="#F6621C"/>
<path d="M38.014 13.5967C38.1899 13.5967 38.2779 13.5967 38.2779 13.7198C38.2779 13.8429 38.2779 13.8781 38.0316 13.8605C38.0077 13.7747 38.0017 13.6849 38.014 13.5967Z" fill="#F6621C"/>
</svg>
