<svg width="123" height="40" viewBox="0 0 123 40" fill="none" xmlns="http://www.w3.org/2000/svg">
<path d="M13.7184 10.3937C13.0039 10.3105 12.2821 10.3105 11.5676 10.3937C11.1374 10.5228 10.5136 11.0605 10.4921 11.4476C10.4706 11.8348 10.9438 12.437 11.3525 12.7382C11.7611 13.0393 12.2128 12.8457 12.643 12.8457H26.9247C27.3515 12.7692 27.7885 12.7692 28.2152 12.8457C28.6301 13.0904 29.0009 13.403 29.3122 13.7706C29.0101 14.1938 28.6478 14.5706 28.2367 14.889C27.9571 15.0611 27.4839 14.889 27.0968 14.889H6.21192C5.63531 14.7911 5.04633 14.7911 4.46973 14.889C4.01805 15.0611 3.43731 15.5773 3.4158 15.9645C3.4292 16.2677 3.52159 16.5622 3.68381 16.8187C3.84603 17.0752 4.07247 17.2849 4.34067 17.427C4.85823 17.5374 5.39325 17.5374 5.9108 17.427H28.8175C29.2008 17.3506 29.5955 17.3506 29.9789 17.427C30.3876 17.6421 30.9898 18.0508 30.9898 18.3734C30.9898 18.696 30.4736 19.2338 30.065 19.4273C29.5897 19.5259 29.0992 19.5259 28.6239 19.4273H9.63179C9.10586 19.3283 8.56608 19.3283 8.04015 19.4273C7.82611 19.5229 7.63817 19.6686 7.49219 19.852C7.3462 20.0354 7.24644 20.2512 7.20132 20.4813C7.23908 20.7163 7.33052 20.9395 7.46854 21.1335C7.60656 21.3274 7.78744 21.487 7.99714 21.5997C8.42127 21.9109 8.91679 22.1106 9.43821 22.1804H15.267H26.0213C26.7741 22.1804 27.6775 22.1804 27.4839 23.2559C27.4839 23.6645 26.5806 24.1592 26.0429 24.2022C24.5588 24.3313 23.0316 24.2022 21.526 24.2022C20.0204 24.2022 17.9126 24.2022 16.1274 24.2022C15.2886 24.2022 14.3422 24.2022 14.3422 25.4067C14.3422 26.6112 15.224 26.6327 16.1059 26.6327H29.5488C30.4521 26.6327 31.6996 26.3101 31.6996 27.7727C31.6996 29.2353 30.3446 28.7406 29.5488 28.7406H4.08257C3.20072 28.7406 2.18981 28.7406 2.16831 29.9881C2.1468 31.2356 3.1577 31.2141 4.06106 31.2141C17.2028 31.2141 30.065 31.2141 43.2282 31.2141L47.0137 10.2432L13.7184 10.3937Z" fill="#96DAF7"/>
<path d="M46.0684 31.3655L49.7893 10.3516H54.8869L61.3395 22.9341L63.4903 10.3516H68.5879L64.8669 31.3655H59.8769L53.4243 18.8044L51.2734 31.3655H46.0684Z" fill="#96DAF7"/>
<path d="M67.3184 28.4399L71.4695 24.891C72.0344 25.5208 72.7283 26.0216 73.504 26.3593C74.2796 26.697 75.1189 26.8638 75.9648 26.8483C76.7088 26.8865 77.4499 26.7309 78.1157 26.3966C78.3567 26.3007 78.5717 26.1495 78.7436 25.9552C78.9154 25.761 79.0393 25.529 79.1051 25.2782C79.1288 25.1013 79.1032 24.9213 79.0311 24.7581C78.959 24.5949 78.8432 24.4548 78.6964 24.3533C78.2774 24.0516 77.8126 23.8192 77.3199 23.665L75.3196 23.0843C74.5734 22.8579 73.8527 22.5552 73.1687 22.1809C72.5198 21.8629 71.913 21.4655 71.362 20.9979C70.8012 20.4916 70.398 19.8345 70.2005 19.1052C69.9916 18.2139 69.9916 17.2864 70.2005 16.3951C70.3355 15.4657 70.6542 14.5724 71.1379 13.7674C71.6217 12.9624 72.2608 12.2617 73.0181 11.7062C74.7179 10.5239 76.7565 9.92743 78.8255 10.0071C80.2572 9.97115 81.6801 10.2425 82.9981 10.8029C84.0617 11.2144 84.9558 11.972 85.5361 12.9537L81.471 16.6962C81.0278 16.0637 80.4225 15.5621 79.7185 15.2442C79.0146 14.9263 78.238 14.8038 77.4704 14.8895C76.1154 14.8895 75.3196 15.2767 75.3196 16.0295C75.2849 16.2205 75.3026 16.4173 75.3708 16.5991C75.4389 16.7808 75.555 16.9408 75.7067 17.0619C76.1098 17.397 76.5684 17.6591 77.0618 17.8362L78.9545 18.5029C79.6935 18.7223 80.413 19.0029 81.1054 19.3418C81.7497 19.6847 82.3554 20.0957 82.9121 20.5678C83.4716 21.0577 83.8754 21.7007 84.0736 22.4175C84.2922 23.3004 84.2922 24.2232 84.0736 25.1061C83.9263 26.0635 83.5852 26.9808 83.0711 27.8018C82.557 28.6229 81.8808 29.3304 81.0839 29.881C79.258 31.1103 77.0889 31.7279 74.8894 31.6447C73.4643 31.744 72.0358 31.5055 70.7202 30.9487C69.4046 30.3918 68.2391 29.5322 67.3184 28.4399Z" fill="#96DAF7"/>
<path d="M85.8164 14.8684L86.6337 10.3516H103.841L103.045 14.8684H96.9363L94.0112 31.3655H88.9136L91.8173 14.8684H85.8164Z" fill="#96DAF7"/>
<path d="M109.734 10.3516H115.563L119.628 31.3655H114.466L113.756 27.4079H105.432L103.281 31.3655H98.1191L109.734 10.3516ZM107.906 22.9126H112.96L111.691 15.7287L107.906 22.9126Z" fill="#96DAF7"/>
<path d="M38.2383 31.3864L41.9593 10.394H47.0568L43.3358 31.3864H38.2383Z" fill="#EECF73"/>
</svg>
