<svg width="140" height="40" viewBox="0 0 140 40" fill="none" xmlns="http://www.w3.org/2000/svg">
<g opacity="0.99">
<g opacity="0.99">
<path opacity="0.99" d="M29.3184 19.3309H24.4082C24.3267 19.3309 24.2529 19.2818 24.2212 19.2066L21.198 12.1506C21.1272 11.9849 20.895 11.9849 20.8242 12.1506L18.036 18.6587L17.7466 19.3309L16.0405 23.3039L13.079 30.1987L11.7889 33.0883C11.7557 33.1622 11.6834 33.2096 11.6035 33.2096H6.59074C6.44304 33.2096 6.34357 33.0546 6.40537 32.9166L18.2093 6.12276C18.2424 6.04757 18.3148 6 18.3947 6H23.6275C23.7074 6 23.7812 6.04757 23.8129 6.12276L29.5022 19.0377C29.5641 19.1743 29.4661 19.3309 29.3184 19.3309Z" fill="#1D1546"/>
<path opacity="0.99" d="M35.4329 33.2076H30.3826C30.3027 33.2076 30.2289 33.1599 30.1972 33.0848L28.9373 30.2151C28.9116 30.1553 28.9147 30.0863 28.9448 30.0294L29.5808 28.8632L31.736 24.9101C31.8175 24.7613 32.0316 24.7705 32.0993 24.9255L35.6183 32.9128C35.6801 33.0526 35.5807 33.2076 35.4329 33.2076Z" fill="#1D1546"/>
<path opacity="0.99" d="M30.2968 21.8076C30.452 21.8076 30.55 21.9779 30.4746 22.1161L27.4497 27.662L24.5032 33.0654C24.4249 33.208 24.2244 33.208 24.1475 33.0654L18.1763 22.1161C18.1009 21.9779 18.1989 21.8076 18.3541 21.8076H30.2968Z" fill="#4DBDC6"/>
</g>
<path opacity="0.99" d="M48.4836 34.0001C48.071 34.0001 47.7363 33.6596 47.7363 33.2389V12.0956C47.7363 11.6752 48.071 11.3345 48.4836 11.3345C48.8968 11.3345 49.2314 11.6752 49.2314 12.0956V33.2389C49.2314 33.6596 48.8968 34.0001 48.4836 34.0001Z" fill="#4DBDC6"/>
</g>
<path d="M78.1308 14.1614H81.9156C81.9156 20.4876 81.9156 26.8508 81.9156 33.1771H78.206L78.0161 30.0922C76.7675 32.5218 73.8909 33.6789 71.582 33.6789C66.1311 33.7173 62.0059 30.1306 62.0059 23.6508C62.0059 17.2861 66.2833 13.7378 71.6572 13.7378C74.3065 13.7378 76.843 15.0101 78.0161 17.171L78.1308 14.1614ZM65.9038 23.6508C65.9038 27.5843 68.6284 29.9755 71.96 29.9755C80.0223 29.9755 80.0223 17.3629 71.96 17.3629C68.6299 17.3629 65.9038 19.7556 65.9038 23.6508Z" fill="#1D1546"/>
<path d="M89.8051 6.20312V17.1196C91.0176 14.8817 94.088 13.7244 96.3621 13.7244C101.744 13.7244 105.837 17.158 105.837 23.6386C105.837 29.9257 101.707 33.5528 96.2866 33.5528C93.7848 33.5528 91.2845 32.5887 89.8065 30.1574L89.579 33.1659H85.9023V6.20312H89.8051ZM90.0313 23.6401C90.0313 27.3823 92.7217 29.8505 96.0197 29.8505C99.2785 29.8505 101.931 27.459 101.931 23.6401C101.931 19.7444 99.2785 17.4681 96.0197 17.4681C92.7609 17.4681 90.0313 19.9746 90.0313 23.6401Z" fill="#1D1546"/>
<path d="M112.575 6.17773V16.9751C114.203 14.6614 116.399 13.8911 118.633 13.8911C123.895 13.8911 126.32 17.4769 126.32 22.9148V33.1722H122.421V22.9531C122.421 19.3673 120.603 17.5936 117.727 17.5936C114.698 17.5936 112.577 20.1391 112.577 23.2616V33.1722H108.678V6.17773H112.575Z" fill="#1D1546"/>
<path d="M134.416 8.55749C134.416 11.8366 129.557 11.8366 129.557 8.55749C129.557 5.31677 134.416 5.31677 134.416 8.55749ZM130.012 14.0748V33.1722H133.92V14.0748H130.012Z" fill="#1D1546"/>
</svg>
