<svg width="126" height="126" viewBox="0 0 126 126" fill="none" xmlns="http://www.w3.org/2000/svg">
<path d="M84.0553 28.5799C81.7949 24.614 76.6147 23.2305 72.6589 25.4441C71.8113 25.9052 54.7638 35.6818 54.1045 58.832C58.437 60.031 62.9579 61.8757 67.7613 64.6426C71.152 66.5795 72.6589 70.5455 71.5287 74.1425C71.3403 74.6959 71.0578 75.3415 70.7752 75.8949C68.5148 79.6765 63.6172 81.0599 59.6614 79.0308C60.8858 79.7687 62.2986 80.1376 63.8056 80.1376C64.4648 80.1376 65.1241 80.0454 65.6892 79.9531C70.2101 78.9386 73.0356 74.5115 71.9054 70.0843C66.8194 48.7787 79.346 40.6623 80.853 39.74C84.9029 37.4342 86.3157 32.5459 84.0553 28.5799Z" fill="#91CA74"/>
<path d="M70.6784 75.8948C71.0552 75.3414 71.2435 74.788 71.4319 74.1424C72.5621 70.5454 71.0552 66.5794 67.6645 64.6425C62.8611 61.8756 58.246 60.0309 54.0077 58.8319C53.9135 63.3513 54.3845 68.3318 55.7031 73.7735C56.2682 76.0793 57.7751 77.9239 59.6588 79.0307C63.5204 81.0598 68.418 79.7686 70.6784 75.8948Z" fill="#91CA74"/>
<path d="M84.7173 35.2216C83.4929 38.7264 80.0081 41.1244 76.0523 40.8477C40.4504 37.8041 34.7051 11.0568 34.4226 9.95004C33.4807 5.52291 36.4946 1.18801 41.0155 0.265689C45.5364 -0.564399 49.9631 2.20256 50.8107 6.62969C51.1875 8.28987 55.2374 22.4936 77.4651 24.4305C82.0801 24.7994 85.4708 28.8576 85.094 33.377C84.9998 33.9303 84.9057 34.576 84.7173 35.2216Z" fill="#B0E3F9"/>
<path d="M0.419396 34.9444C1.54961 38.4492 5.12865 40.9395 9.08442 40.5706C44.6863 37.7114 50.6199 10.9641 50.9025 9.85732C51.8443 5.43018 48.9246 1.09528 44.3096 0.172963C39.7887 -0.749356 35.362 2.10984 34.4201 6.53697C34.0434 8.19714 29.9935 22.4009 7.67164 24.2455C3.05658 24.6144 -0.428262 28.5804 0.0426625 33.0998C0.0426625 33.7454 0.136842 34.391 0.419396 34.9444Z" fill="#EE3197"/>
<path d="M21.3285 80.2311C25.0959 80.2311 28.5808 77.6486 29.5226 73.8671C37.7167 39.6491 13.6054 25.9065 12.5693 25.3531C8.51938 23.1395 3.43341 24.523 1.07879 28.489C-1.18164 32.455 0.231117 37.4355 4.18688 39.6491C5.69384 40.5714 18.2204 48.78 13.1344 70.0856C12.0984 74.5127 14.8298 78.9399 19.3507 79.9544C20.0099 80.1389 20.6692 80.2311 21.3285 80.2311Z" fill="#F58634"/>
<path d="M55.6099 73.8706C54.2913 68.3367 53.8204 63.3562 53.9146 58.9291C30.8393 52.4728 16.1465 65.7542 15.393 66.3999C12.0023 69.5357 11.9082 74.7007 15.1104 78.0211C18.3127 81.2492 23.5871 81.4337 26.8836 78.39C28.2021 77.191 39.8811 67.8756 59.0948 78.9434C59.189 79.0356 59.3773 79.0356 59.4715 79.1279C57.682 78.0211 56.175 76.1764 55.6099 73.8706Z" fill="#F2C94C"/>
<path d="M85.414 32.9903L84.6177 30.7666L82.3345 31.3715C75.2557 33.2469 68.7485 36.1526 62.8259 40.0661L62.8237 40.0676C56.9357 43.967 52.0512 48.6648 48.1441 54.184L48.1316 54.2017L48.1194 54.2196C44.4193 59.6376 41.8299 65.567 40.3558 71.9436L40.341 72.0078L40.3295 72.0728C40.0207 73.8097 39.7895 75.5699 39.6353 77.3532C39.5067 78.7889 39.4286 80.2853 39.4286 81.7919C39.4286 93.0158 43.5291 102.653 51.6633 110.614C59.7282 118.58 69.5318 122.571 80.9508 122.571C92.4162 122.571 102.291 118.583 110.431 110.619L110.436 110.613C118.5 102.671 122.571 93.0094 122.571 81.7919C122.571 70.5298 118.503 60.8426 110.436 52.8987L110.428 52.8907L110.42 52.8827C103.933 46.6068 96.3555 42.8207 87.7478 41.5375C87.2099 38.6615 86.4212 35.8033 85.414 32.9903ZM84.636 70.5908C85.4923 68.6804 86.1948 66.7472 86.7618 64.7929C89.4107 65.6404 91.7968 67.0944 93.9332 69.2014L93.9404 69.2085C97.5053 72.6966 99.245 76.8489 99.245 81.816C99.245 86.783 97.5053 90.9354 93.9404 94.4234L93.9322 94.4315L93.924 94.4396C90.3269 98.0229 86.036 99.7811 80.9262 99.7811C75.8183 99.7811 71.5546 98.0245 67.983 94.4451L67.9722 94.4342L67.9611 94.4234C67.3578 93.8331 66.8108 93.2367 66.3189 92.6294C68.6977 90.9385 70.9215 89.0509 72.9906 86.9912C78.1122 82.2239 82.0065 76.7714 84.636 70.5908ZM58.5231 77.0303L58.5183 77.0345C58.1971 77.3218 57.8712 77.604 57.5404 77.8811C58.1226 73.8081 59.5294 69.8257 61.7843 65.9194C61.8983 65.7508 62.0062 65.5602 62.0971 65.3475C64.3999 61.4404 67.2572 58.092 70.6776 55.2995C70.3077 57.8101 69.6244 60.2947 68.6276 62.7676C67.9873 64.3331 67.2044 65.9121 66.2983 67.4807C64.1973 71.1178 61.5917 74.2986 58.5231 77.0303Z" fill="#4353FF" stroke="#E6D6F3" stroke-width="5.14286"/>
</svg>
