<?xml version="1.0" standalone="no"?>
<!DOCTYPE svg PUBLIC "-//W3C//DTD SVG 20010904//EN"
 "http://www.w3.org/TR/2001/REC-SVG-20010904/DTD/svg10.dtd">
<svg version="1.0" xmlns="http://www.w3.org/2000/svg"
 width="1024.000000pt" height="1024.000000pt" viewBox="0 0 1024.000000 1024.000000"
 preserveAspectRatio="xMidYMid meet">
<metadata>
Created by potrace 1.11, written by Peter Selinger 2001-2013
</metadata>
<g transform="translate(0.000000,1024.000000) scale(0.100000,-0.100000)"
fill="#000000" stroke="none">
<path d="M5220 8939 c-743 -223 -1358 -540 -1900 -978 -188 -152 -403 -358
-536 -511 -21 -25 -45 -51 -52 -59 -8 -8 -39 -46 -70 -85 -31 -39 -60 -73 -63
-76 -13 -11 -169 -231 -216 -306 -261 -411 -458 -875 -568 -1339 -29 -122 -33
-144 -41 -220 -4 -33 -8 -63 -10 -67 -2 -3 -7 -42 -10 -85 -3 -43 -8 -81 -10
-84 -9 -16 -19 -242 -19 -454 1 -212 6 -331 19 -415 2 -14 7 -50 11 -80 12
-93 14 -103 30 -185 9 -44 18 -91 21 -105 3 -14 10 -43 16 -65 6 -22 13 -49
15 -60 2 -11 28 -94 59 -184 77 -231 150 -387 293 -636 68 -117 251 -366 360
-490 47 -53 315 -321 366 -365 370 -325 804 -564 1255 -690 41 -12 82 -23 90
-25 106 -25 151 -34 180 -39 19 -3 44 -7 55 -10 11 -2 43 -7 70 -10 28 -4 57
-9 65 -11 18 -4 95 -12 210 -22 164 -13 574 -6 680 11 14 3 50 7 80 11 30 4
64 8 75 10 11 2 38 6 60 9 213 34 499 119 720 214 401 172 741 406 1070 736
219 221 346 380 521 656 57 90 159 290 207 405 21 50 42 99 47 110 31 67 125
387 145 492 31 169 49 295 62 438 15 161 7 648 -12 739 -2 12 -6 41 -9 66 -12
110 -55 323 -91 448 -92 324 -210 590 -384 866 -56 89 -195 284 -211 296 -3 3
-13 16 -22 29 -61 88 -352 384 -483 491 -44 35 -82 67 -85 70 -24 26 -230 167
-375 257 -328 202 -813 368 -1221 419 -33 3 -65 8 -72 8 -22 4 -30 20 -37 81
-3 32 -8 62 -10 65 -2 3 -6 21 -9 40 -28 178 -161 665 -190 697 -8 8 -27 6
-76 -8z m-753 -1616 c-4 -98 -8 -191 -11 -208 -2 -16 -7 -50 -10 -75 -9 -71
-16 -110 -32 -190 -8 -41 -17 -84 -19 -95 -46 -230 -229 -693 -351 -886 -13
-21 -24 -41 -24 -43 0 -12 -213 -341 -230 -356 -4 -3 -26 -32 -51 -65 -24 -33
-46 -62 -49 -65 -3 -3 -30 -34 -60 -70 -94 -111 -228 -248 -350 -360 -112
-102 -343 -279 -446 -342 -9 -6 -11 26 -9 140 2 81 7 172 10 202 13 122 21
180 30 230 3 14 7 41 10 60 27 161 119 466 197 650 93 218 263 527 378 687 25
33 52 71 60 83 8 12 20 28 25 34 6 6 17 20 25 32 43 61 162 196 280 315 76 77
227 214 296 268 112 88 314 230 328 231 5 0 6 -76 3 -177z m1188 -892 c103
-30 198 -71 357 -153 128 -68 319 -223 460 -377 208 -225 372 -537 424 -806 2
-11 6 -31 9 -45 22 -112 30 -210 30 -375 -1 -319 -51 -540 -185 -810 -87 -174
-195 -322 -344 -470 -146 -146 -171 -166 -298 -251 -90 -60 -191 -115 -323
-174 -63 -29 -252 -81 -345 -95 -25 -4 -54 -10 -65 -12 -39 -10 -431 -12 -493
-3 -226 34 -381 80 -552 164 -225 112 -426 272 -616 493 -62 71 -184 243 -184
257 0 3 19 18 43 33 107 70 327 239 457 352 103 90 439 424 515 513 39 44 75
86 80 92 61 64 260 346 348 492 185 308 380 775 457 1094 11 47 25 95 30 106
l9 22 78 -20 c43 -10 92 -23 108 -27z"/>
</g>
</svg>
