<svg width="32" height="32" viewBox="0 0 32 32" fill="none" xmlns="http://www.w3.org/2000/svg">
<path d="M28.2799 21.1902C27.4316 23.1962 26.1049 24.9638 24.4157 26.3386C22.7265 27.7134 20.7262 28.6534 18.5898 29.0766C16.4534 29.4997 14.2458 29.393 12.1601 28.7659C10.0744 28.1388 8.17405 27.0103 6.62525 25.4791C5.07644 23.9478 3.92631 22.0605 3.2754 19.9821C2.62449 17.9037 2.49264 15.6975 2.89135 13.5564C3.29007 11.4152 4.20721 9.40436 5.56261 7.69956C6.91801 5.99476 8.6704 4.64795 10.6666 3.77686" stroke="#F58634" stroke-width="2.66667" stroke-linecap="round" stroke-linejoin="round"/>
<path d="M29.3333 16.0033C29.3333 14.2523 28.9885 12.5185 28.3184 10.9008C27.6483 9.28313 26.6662 7.81328 25.4281 6.57516C24.19 5.33705 22.7201 4.35492 21.1024 3.68486C19.4848 3.0148 17.751 2.66992 16 2.66992V16.0033H29.3333Z" stroke="#F58634" stroke-width="2.66667" stroke-linecap="round" stroke-linejoin="round"/>
</svg>
