<svg width="32" height="32" viewBox="0 0 32 32" fill="none" xmlns="http://www.w3.org/2000/svg">
<path d="M5.33268 13.3333H4.66602V14V22C4.66602 22.5304 4.87673 23.0391 5.2518 23.4142C5.62688 23.7893 6.13558 24 6.66602 24H25.3327C25.8631 24 26.3718 23.7893 26.7469 23.4142C27.122 23.0391 27.3327 22.5304 27.3327 22V14V13.3333H26.666H5.33268ZM26.666 12H27.3327V11.3333V10C27.3327 9.46957 27.122 8.96086 26.7469 8.58579L26.2755 9.05719L26.7469 8.58579C26.3718 8.21071 25.8631 8 25.3327 8H6.66602C6.13558 8 5.62687 8.21071 5.2518 8.58579C4.87673 8.96086 4.66602 9.46957 4.66602 10V11.3333V12H5.33268H26.666ZM13.3327 18.6667H9.33268C9.15587 18.6667 8.9863 18.5964 8.86128 18.4714C8.73625 18.3464 8.66602 18.1768 8.66602 18C8.66602 17.8232 8.73625 17.6536 8.86128 17.5286C8.9863 17.4036 9.15587 17.3333 9.33268 17.3333H13.3327C13.5095 17.3333 13.6791 17.4036 13.8041 17.5286C13.9291 17.6536 13.9993 17.8232 13.9993 18C13.9993 18.1768 13.9291 18.3464 13.8041 18.4714C13.6791 18.5964 13.5095 18.6667 13.3327 18.6667ZM6.66602 6.66667H25.3327C26.2167 6.66667 27.0646 7.01786 27.6897 7.64298C28.3148 8.2681 28.666 9.11594 28.666 10V22C28.666 22.8841 28.3148 23.7319 27.6897 24.357C27.0646 24.9821 26.2167 25.3333 25.3327 25.3333H6.66602C5.78196 25.3333 4.93411 24.9821 4.30899 24.357C3.68387 23.7319 3.33268 22.8841 3.33268 22V10C3.33268 9.11595 3.68387 8.2681 4.30899 7.64298C4.93411 7.01786 5.78196 6.66667 6.66602 6.66667Z" fill="#282828" stroke="url(#paint0_linear_12495_77283)" stroke-width="1.33333"/>
<defs>
<linearGradient id="paint0_linear_12495_77283" x1="25.5773" y1="16" x2="13.7082" y2="10.3065" gradientUnits="userSpaceOnUse">
<stop stop-color="#9772EE"/>
<stop offset="1" stop-color="#9461FA"/>
</linearGradient>
</defs>
</svg>
