<svg width="32" height="32" viewBox="0 0 32 32" fill="none" xmlns="http://www.w3.org/2000/svg">
<path d="M11.0259 16.0674C10.7267 16.4385 10.3769 16.7603 9.98828 17.0222" stroke="url(#paint0_linear_12657_55265)" stroke-width="1.6" stroke-linecap="round" stroke-linejoin="round"/>
<path d="M2.82422 23.2939L4.30837 22.1484" stroke="url(#paint1_linear_12657_55265)" stroke-width="1.6" stroke-linecap="round" stroke-linejoin="round"/>
<path d="M3.45312 24.4177L5.08189 23.1582" stroke="url(#paint2_linear_12657_55265)" stroke-width="1.6" stroke-linecap="round" stroke-linejoin="round"/>
<path d="M4.22656 25.4151L5.67597 24.3447" stroke="url(#paint3_linear_12657_55265)" stroke-width="1.6" stroke-linecap="round" stroke-linejoin="round"/>
<path d="M6.61719 17.9229L10.2325 23.5508" stroke="url(#paint4_linear_12657_55265)" stroke-width="1.6" stroke-linecap="round" stroke-linejoin="round"/>
<path d="M15.4572 8.84062C15.3751 8.71315 15.264 8.6097 15.1341 8.53983C15.0043 8.46997 14.86 8.43594 14.7144 8.4409C14.5689 8.44587 14.4269 8.48966 14.3016 8.56823C14.1763 8.64679 14.0717 8.7576 13.9974 8.8904C12.1194 12.2258 10.1943 15.4055 4.51643 19.5499L3.80088 20.0661C3.23147 20.4778 2.83958 21.1125 2.71139 21.8305C2.58319 22.5484 2.72918 23.291 3.11726 23.8949L3.7112 24.8239C4.09964 25.4276 4.69833 25.843 5.37561 25.9787C6.05288 26.1145 6.75328 25.9594 7.32275 25.5477L8.0383 25.0305C13.751 20.9398 17.247 20.2015 20.86 19.5658C21.0036 19.5408 21.1389 19.4778 21.2535 19.3826C21.3681 19.2874 21.4581 19.1631 21.5154 19.0213C21.5727 18.8794 21.5953 18.7245 21.5812 18.5709C21.5671 18.4173 21.5167 18.27 21.4346 18.1425L15.4572 8.84062Z" stroke="url(#paint5_linear_12657_55265)" stroke-width="1.6" stroke-linecap="round" stroke-linejoin="round"/>
<path d="M17.6602 12.2698L18.0179 12.0114C18.1591 11.9095 18.3178 11.8381 18.485 11.8013C18.6521 11.7644 18.8245 11.7629 18.9923 11.7967C19.16 11.8306 19.3198 11.8991 19.4626 11.9985C19.6053 12.0979 19.7282 12.2261 19.8242 12.3758L19.9293 12.5451C20.1235 12.847 20.1965 13.2184 20.1324 13.5774C20.0683 13.9365 19.8723 14.2539 19.5875 14.4597L19.2298 14.7181" stroke="url(#paint6_linear_12657_55265)" stroke-width="1.6" stroke-linecap="round" stroke-linejoin="round"/>
<path d="M8.95703 24.9482C10.1106 26.5702 11.8103 28.563 13.1273 29.3047C13.1681 29.3275 13.2143 29.3372 13.2602 29.3326C14.2931 29.2261 15.1383 28.4475 15.8702 27.2596C15.8916 27.2248 15.9045 27.1849 15.9076 27.1435C15.9107 27.1021 15.904 27.0605 15.8881 27.0226C15.8722 26.9846 15.8476 26.9515 15.8165 26.9262C15.7854 26.9009 15.7488 26.8843 15.7101 26.8778C15.3421 26.8258 10.4296 23.9579 10.0797 23.8262" stroke="url(#paint7_linear_12657_55265)" stroke-width="1.6" stroke-linecap="round" stroke-linejoin="round"/>
<path d="M11.8906 15.1962C11.8906 15.1962 13.8556 13.2666 14.1354 12.2725" stroke="url(#paint8_linear_12657_55265)" stroke-width="1.6" stroke-linecap="round" stroke-linejoin="round"/>
<path d="M21.3944 12.6715C21.3479 12.7082 21.3153 12.7614 21.3027 12.8214C21.2901 12.8815 21.2981 12.9443 21.3255 12.9985C21.3528 13.0528 21.3976 13.0948 21.4517 13.117C21.5058 13.1392 21.5656 13.1401 21.6202 13.1195L27.4221 10.8977C27.4629 10.882 27.4991 10.855 27.5267 10.8194C27.5543 10.7838 27.5724 10.7411 27.5791 10.6955C27.5859 10.65 27.5809 10.6034 27.5649 10.5606C27.5488 10.5178 27.5222 10.4803 27.4878 10.4522L26.4018 9.56453C26.3736 9.54146 26.3505 9.51207 26.3341 9.47845C26.3178 9.44483 26.3087 9.40782 26.3074 9.37003C26.3061 9.33225 26.3127 9.29463 26.3266 9.25984C26.3406 9.22505 26.3616 9.19396 26.3882 9.16876L29.2523 6.45908C29.2946 6.41879 29.3222 6.36402 29.3303 6.30435C29.3384 6.24467 29.3265 6.18386 29.2967 6.13254C29.2668 6.08122 29.2209 6.04264 29.167 6.02353C29.1131 6.00441 29.0545 6.00599 29.0015 6.02797L22.3574 8.82078C22.3166 8.83813 22.281 8.86688 22.2545 8.90397C22.2279 8.94106 22.2113 8.9851 22.2065 9.03139C22.2017 9.07768 22.2088 9.12449 22.2271 9.16683C22.2454 9.20917 22.2742 9.24545 22.3104 9.27181L23.8101 10.3635C23.842 10.3867 23.8683 10.4177 23.8866 10.4538C23.905 10.49 23.9149 10.5303 23.9156 10.5713C23.9162 10.6124 23.9076 10.653 23.8903 10.6898C23.8731 10.7266 23.8479 10.7584 23.8166 10.7827L21.3944 12.6715Z" fill="url(#paint9_linear_12657_55265)"/>
<path d="M23.0367 16.8625C23.0052 16.8564 22.9727 16.8625 22.9451 16.8796C22.9175 16.8968 22.8966 16.9239 22.8862 16.956C22.8758 16.9881 22.8766 17.0231 22.8884 17.0546C22.9003 17.0861 22.9224 17.1121 22.9508 17.1278L25.9792 18.7786C26.0005 18.7902 26.0244 18.7956 26.0483 18.794C26.0723 18.7925 26.0954 18.7842 26.1153 18.7699C26.1351 18.7557 26.151 18.736 26.1613 18.713C26.1715 18.69 26.1758 18.6645 26.1735 18.6392L26.1036 17.8397C26.1017 17.8189 26.1042 17.798 26.1108 17.7784C26.1175 17.7587 26.1281 17.7409 26.142 17.7261C26.1559 17.7114 26.1728 17.7001 26.1913 17.693C26.2098 17.686 26.2296 17.6834 26.2491 17.6854L28.3592 17.894C28.3904 17.897 28.4217 17.8883 28.4476 17.8694C28.4734 17.8505 28.4922 17.8225 28.5005 17.7904C28.5088 17.7583 28.5063 17.7241 28.4932 17.6938C28.4802 17.6635 28.4575 17.639 28.4291 17.6246L24.8664 15.828C24.8446 15.8173 24.8204 15.813 24.7964 15.8157C24.7725 15.8184 24.7497 15.8279 24.7305 15.8432C24.7112 15.8585 24.6962 15.8791 24.6871 15.9027C24.6779 15.9263 24.675 15.9521 24.6786 15.9773L24.8265 17.0302C24.8296 17.0527 24.8276 17.0755 24.8208 17.097C24.8139 17.1184 24.8022 17.1378 24.7869 17.1535C24.7715 17.1693 24.7528 17.1809 24.7323 17.1874C24.7118 17.1939 24.6902 17.1952 24.6692 17.191L23.0367 16.8625Z" fill="url(#paint10_linear_12657_55265)"/>
<path d="M18.2278 8.47633C18.222 8.50999 18.2279 8.54473 18.2444 8.57414C18.2609 8.60355 18.2868 8.62566 18.3175 8.63639C18.3481 8.64711 18.3814 8.64574 18.4111 8.63252C18.4409 8.6193 18.4651 8.59512 18.4794 8.56444L20.003 5.33603C20.0137 5.31323 20.0185 5.2878 20.0168 5.26239C20.015 5.23698 20.0069 5.21252 19.9932 5.19157C19.9796 5.17062 19.9609 5.15395 19.939 5.14328C19.9172 5.13261 19.8931 5.12835 19.8692 5.13093L19.118 5.21406C19.0984 5.21617 19.0786 5.21369 19.0601 5.20681C19.0415 5.19992 19.0246 5.1888 19.0105 5.17422C18.9965 5.15964 18.9856 5.14196 18.9787 5.12244C18.9718 5.10292 18.969 5.08202 18.9705 5.06123L19.1443 2.82101C19.1471 2.78768 19.1387 2.75437 19.1206 2.72696C19.1025 2.69956 19.0758 2.67982 19.0453 2.67124C19.0148 2.66267 18.9824 2.6658 18.9539 2.68008C18.9253 2.69437 18.9025 2.71889 18.8893 2.74932L17.2324 6.54725C17.2226 6.57043 17.2189 6.59596 17.2215 6.62119C17.2242 6.64642 17.2332 6.67043 17.2476 6.69075C17.2619 6.71106 17.2812 6.72693 17.3033 6.73671C17.3253 6.74649 17.3495 6.74983 17.3732 6.74638L18.3649 6.57811C18.3859 6.57448 18.4075 6.57627 18.4278 6.58331C18.4481 6.59036 18.4664 6.60246 18.4814 6.61861C18.4964 6.63475 18.5074 6.65447 18.5137 6.67609C18.52 6.69772 18.5213 6.72063 18.5175 6.74289L18.2278 8.47633Z" fill="url(#paint11_linear_12657_55265)"/>
<defs>
<linearGradient id="paint0_linear_12657_55265" x1="10.8798" y1="16.5448" x2="10.387" y2="16.3521" gradientUnits="userSpaceOnUse">
<stop stop-color="#FF7439"/>
<stop offset="1" stop-color="#FFA10D"/>
</linearGradient>
<linearGradient id="paint1_linear_12657_55265" x1="4.09936" y1="22.7212" x2="3.43182" y2="22.41" gradientUnits="userSpaceOnUse">
<stop stop-color="#FF7439"/>
<stop offset="1" stop-color="#FFA10D"/>
</linearGradient>
<linearGradient id="paint2_linear_12657_55265" x1="4.85252" y1="23.788" x2="4.11943" y2="23.4469" gradientUnits="userSpaceOnUse">
<stop stop-color="#FF7439"/>
<stop offset="1" stop-color="#FFA10D"/>
</linearGradient>
<linearGradient id="paint3_linear_12657_55265" x1="5.47186" y1="24.8799" x2="4.83052" y2="24.5674" gradientUnits="userSpaceOnUse">
<stop stop-color="#FF7439"/>
<stop offset="1" stop-color="#FFA10D"/>
</linearGradient>
<linearGradient id="paint4_linear_12657_55265" x1="9.72336" y1="20.7368" x2="7.84432" y2="20.3026" gradientUnits="userSpaceOnUse">
<stop stop-color="#FF7439"/>
<stop offset="1" stop-color="#FFA10D"/>
</linearGradient>
<linearGradient id="paint5_linear_12657_55265" x1="18.921" y1="17.2336" x2="9.91204" y2="13.7468" gradientUnits="userSpaceOnUse">
<stop stop-color="#FF7439"/>
<stop offset="1" stop-color="#FFA10D"/>
</linearGradient>
<linearGradient id="paint6_linear_12657_55265" x1="19.8037" y1="13.2453" x2="18.5538" y2="12.8644" gradientUnits="userSpaceOnUse">
<stop stop-color="#FF7439"/>
<stop offset="1" stop-color="#FFA10D"/>
</linearGradient>
<linearGradient id="paint7_linear_12657_55265" x1="14.9294" y1="26.5799" x2="11.7741" y2="25.1472" gradientUnits="userSpaceOnUse">
<stop stop-color="#FF7439"/>
<stop offset="1" stop-color="#FFA10D"/>
</linearGradient>
<linearGradient id="paint8_linear_12657_55265" x1="13.8193" y1="13.7343" x2="12.6774" y2="13.4189" gradientUnits="userSpaceOnUse">
<stop stop-color="#FF7439"/>
<stop offset="1" stop-color="#FFA10D"/>
</linearGradient>
<linearGradient id="paint9_linear_12657_55265" x1="28.2011" y1="9.57229" x2="24.4235" y2="8.03929" gradientUnits="userSpaceOnUse">
<stop stop-color="#FF7439"/>
<stop offset="1" stop-color="#FFA10D"/>
</linearGradient>
<linearGradient id="paint10_linear_12657_55265" x1="27.713" y1="17.3046" x2="25.6053" y2="15.8727" gradientUnits="userSpaceOnUse">
<stop stop-color="#FF7439"/>
<stop offset="1" stop-color="#FFA10D"/>
</linearGradient>
<linearGradient id="paint11_linear_12657_55265" x1="19.6233" y1="5.65502" x2="18.1344" y2="5.40442" gradientUnits="userSpaceOnUse">
<stop stop-color="#FF7439"/>
<stop offset="1" stop-color="#FFA10D"/>
</linearGradient>
</defs>
</svg>
