<svg width="20" height="14" class="bar_svg" viewBox="0 0 20 14" fill="none" xmlns="http://www.w3.org/2000/svg">
								<path fill-rule="evenodd" clip-rule="evenodd" d="M19 11.0083C19.5523 11.0083 20 11.52 20 12.1511C20 12.7823 19.5523 13.2939 19 13.2939L1 13.2944C0.447715 13.2944 0 12.7828 0 12.1516C0 11.5204 0.447715 11.0088 1 11.0088L19 11.0083ZM19 5.91577C19.5523 5.91577 20 6.42743 20 7.05859C20 7.68976 19.5523 8.20142 19 8.20142L1 8.20142C0.447715 8.20142 0 7.68976 0 7.05859C0 6.42743 0.447715 5.91577 1 5.91577L19 5.91577ZM19 0.705566C19.5523 0.705566 20 1.21723 20 1.84839C20 2.47955 19.5523 2.99121 19 2.99121H1C0.447715 2.99121 0 2.47955 0 1.84839C0 1.21723 0.447715 0.705566 1 0.705566H19Z" fill="#282828"/>
							</svg>