<svg width="292" height="292" viewBox="0 0 292 292" fill="none" xmlns="http://www.w3.org/2000/svg">
<path d="M196.129 66.6866C190.855 57.4327 178.768 54.2045 169.538 59.3695C167.56 60.4456 127.782 83.2576 126.244 137.275C136.353 140.073 146.902 144.377 158.11 150.833C166.022 155.352 169.538 164.606 166.901 172.999C166.461 174.291 165.802 175.797 165.143 177.088C159.868 185.912 148.44 189.14 139.21 184.405C142.067 186.127 145.364 186.988 148.88 186.988C150.418 186.988 151.957 186.773 153.275 186.557C163.824 184.19 170.417 173.86 167.78 163.53C155.912 113.817 185.141 94.8788 188.657 92.7267C198.107 87.3465 201.404 75.9405 196.129 66.6866Z" fill="#91CA74"/>
<path d="M164.916 177.088C165.795 175.797 166.234 174.505 166.674 172.999C169.311 164.606 165.795 155.352 157.883 150.832C146.675 144.376 135.907 140.072 126.017 137.274C125.798 147.819 126.896 159.441 129.973 172.138C131.292 177.518 134.808 181.822 139.203 184.405C148.214 189.139 159.641 186.126 164.916 177.088Z" fill="#91CA74"/>
<path d="M197.673 82.1835C194.816 90.3614 186.685 95.9568 177.455 95.3112C94.3836 88.2093 80.978 25.7991 80.3187 23.2166C78.121 12.8866 85.1535 2.77182 95.7022 0.619737C106.251 -1.31713 116.58 5.1391 118.558 15.4691C119.437 19.3428 128.887 52.4848 180.751 57.0042C191.52 57.865 199.431 67.3342 198.552 77.8794C198.332 79.1706 198.113 80.6771 197.673 82.1835Z" fill="#B0E3F9"/>
<path d="M0.978591 81.537C3.61577 89.7149 11.9669 95.5255 21.197 94.6646C104.268 87.9932 118.113 25.5829 118.772 23.0004C120.97 12.6704 114.157 2.55566 103.389 0.403581C92.8402 -1.7485 82.5113 4.92295 80.3137 15.2529C79.4346 19.1267 69.9847 52.2687 17.9005 56.5728C7.13203 57.4337 -0.999278 66.6876 0.0995459 77.2328C0.0995459 78.7393 0.319297 80.2457 0.978591 81.537Z" fill="#EE3197"/>
<path d="M49.7666 187.206C58.5572 187.206 66.6884 181.18 68.8861 172.357C88.0056 92.5144 31.7458 60.4484 29.3284 59.1572C19.8786 53.9922 8.0113 57.2203 2.51718 66.4743C-2.75717 75.7282 0.539273 87.3494 9.76939 92.5144C13.2856 94.6665 42.5143 113.82 30.647 163.533C28.2296 173.863 34.6028 184.193 45.1515 186.56C46.6899 186.991 48.2282 187.206 49.7666 187.206Z" fill="#F58634"/>
<path d="M129.757 172.365C126.68 159.452 125.582 147.831 125.801 137.501C71.9591 122.437 37.6757 153.427 35.9176 154.933C28.0061 162.25 27.7864 174.302 35.2584 182.049C42.7304 189.582 55.0372 190.012 62.7289 182.91C65.8056 180.112 93.0565 158.376 137.888 184.201C138.108 184.417 138.548 184.417 138.768 184.632C134.592 182.049 131.076 177.745 129.757 172.365Z" fill="#F2C94C"/>
<path d="M199.299 76.9773L197.441 71.7887L192.114 73.2001C175.597 77.5759 160.413 84.3559 146.594 93.4874L146.589 93.4909C132.85 102.59 121.453 113.551 112.336 126.429L112.307 126.471L112.279 126.512C103.645 139.154 97.6031 152.99 94.1636 167.868L94.129 168.018L94.1021 168.17C93.3817 172.222 92.8421 176.33 92.4824 180.491C92.1823 183.841 92 187.332 92 190.848C92 217.037 101.568 239.524 120.548 258.1C139.366 276.687 162.241 286 188.885 286C215.638 286 238.68 276.693 257.671 258.11L257.678 258.103L257.685 258.097C276.501 239.567 286 217.022 286 190.848C286 164.569 276.507 141.966 257.685 123.43L257.666 123.411L257.647 123.393C242.511 108.749 224.83 99.9149 204.745 96.9207C203.49 90.21 201.65 83.5409 199.299 76.9773ZM197.484 164.712C199.482 160.254 201.121 155.743 202.444 151.183C208.625 153.161 214.192 156.554 219.177 161.47L219.186 161.478L219.194 161.486C227.512 169.625 231.572 179.314 231.572 190.904C231.572 202.494 227.512 212.182 219.194 220.321L219.175 220.34L219.156 220.359C210.763 228.72 200.751 232.823 188.828 232.823C176.909 232.823 166.961 228.724 158.627 220.372L158.602 220.346L158.576 220.321C157.168 218.944 155.892 217.552 154.744 216.135C160.295 212.19 165.483 207.785 170.311 202.979C182.262 191.856 191.349 179.133 197.484 164.712ZM136.554 179.737L136.548 179.742L136.543 179.747C135.793 180.418 135.033 181.076 134.261 181.722C135.619 172.219 138.902 162.927 144.163 153.812C144.429 153.419 144.681 152.974 144.893 152.477C150.266 143.361 156.933 135.548 164.914 129.032C164.051 134.89 162.457 140.687 160.131 146.457C158.637 150.11 156.81 153.795 154.696 157.455C149.794 165.942 143.714 173.363 136.554 179.737Z" fill="#4353FF" stroke="#FCE2D7" stroke-width="12"/>
</svg>
