<svg width="160" height="200" viewBox="0 0 160 200" fill="none" xmlns="http://www.w3.org/2000/svg">
<g filter="url(#filter0_f_12665_10455)">
<path d="M116.605 32.3857L117.841 31.0448C118.193 30.5974 118.597 30.1941 119.044 29.8436C119.821 29.4269 120.724 29.3107 121.581 29.5172C123.308 29.8556 124.968 30.4753 126.495 31.3517C129.463 32.9717 132.238 34.921 134.77 37.1627C137.696 39.6485 140.329 42.4609 142.616 45.5452C143.654 46.9084 144.519 48.3957 145.19 49.9727C145.622 50.9956 146.167 52.5608 145.514 53.7344C145.048 54.4028 144.506 55.0146 143.898 55.5574C143.084 56.4723 142.264 57.3763 141.418 58.2742C135.465 64.8756 41.4825 169.356 40.6856 169.768C39.042 170.608 36.8373 169.676 35.412 169.074C32.3054 167.687 29.4062 165.875 26.7976 163.691C23.8496 161.335 21.1564 158.677 18.7618 155.761C17.014 153.628 15.2145 151.243 14.4016 148.464C14.0762 147.615 14.0641 146.678 14.3675 145.82C14.685 145.213 115.41 33.7087 116.605 32.3857Z" fill="url(#paint0_linear_12665_10455)"/>
<path d="M121.642 29.5311C116.577 28.6562 117.075 33.5643 122.755 40.4989C128.435 47.4334 137.148 53.771 142.222 54.648C147.296 55.5249 146.8 50.6081 141.112 43.6715C135.423 36.735 126.716 30.4081 121.642 29.5311Z" fill="url(#paint1_linear_12665_10455)"/>
<g style="mix-blend-mode:color">
<path d="M118.724 28.4532L119.973 27.0022C120.332 26.522 120.738 26.0836 121.182 25.6965C121.941 25.221 122.8 25.0455 123.595 25.2033C125.203 25.4417 126.73 25.9726 128.115 26.7746C130.813 28.2482 133.309 30.071 135.556 32.2086C138.162 34.5715 140.469 37.2875 142.434 40.3035C143.328 41.6348 144.05 43.1041 144.585 44.6774C144.929 45.698 145.345 47.2672 144.656 48.5102C144.175 49.2241 143.625 49.8847 143.018 50.4788C142.194 51.4668 141.364 52.4442 140.51 53.417C134.484 60.5516 39.3353 173.458 38.558 173.93C36.9555 174.893 34.9344 174.077 33.6278 173.55C30.7844 172.323 28.1632 170.649 25.8392 168.574C23.2059 166.346 20.8316 163.793 18.7552 160.956C17.2398 158.88 15.6915 156.55 15.0981 153.754C14.8441 152.905 14.8911 151.945 15.2307 151.048C15.5681 150.406 117.514 29.8831 118.724 28.4532Z" fill="url(#paint2_linear_12665_10455)"/>
<path d="M122.687 29.3874C117.79 28.7847 117.958 33.9778 123.061 40.992C128.165 48.0062 136.273 54.188 141.179 54.7923C146.084 55.3966 145.919 50.1941 140.807 43.1783C135.695 36.1625 127.592 29.9917 122.687 29.3874Z" fill="url(#paint3_linear_12665_10455)"/>
</g>
<g style="mix-blend-mode:screen">
<path d="M119.756 29.5446C120.024 29.4497 120.298 29.3992 120.569 29.3951C120.297 29.4133 120.025 29.4634 119.756 29.5446Z" fill="white"/>
<path d="M123.213 29.9224C123.937 30.1482 124.64 30.4363 125.316 30.7846C124.635 30.4468 123.933 30.1589 123.213 29.9224Z" fill="white"/>
<path d="M143.867 47.3667C144.203 47.9878 144.498 48.6368 144.751 49.3099C144.511 48.7047 144.224 48.0519 143.867 47.3667Z" fill="white"/>
<path d="M145.416 53.6071C145.771 52.5518 145.775 51.4355 145.428 50.4751C145.795 51.4287 145.79 52.5533 145.416 53.6071Z" fill="white"/>
<path d="M142.4 45.5402C141.649 44.3773 140.846 43.2436 139.99 42.1392C140.394 42.6182 140.774 43.122 141.145 43.6242C141.516 44.1264 142.021 44.9385 142.4 45.5402Z" fill="white"/>
</g>
</g>
<defs>
<filter id="filter0_f_12665_10455" x="2.14844" y="13.147" width="155.668" height="173.229" filterUnits="userSpaceOnUse" color-interpolation-filters="sRGB">
<feFlood flood-opacity="0" result="BackgroundImageFix"/>
<feBlend mode="normal" in="SourceGraphic" in2="BackgroundImageFix" result="shape"/>
<feGaussianBlur stdDeviation="6" result="effect1_foregroundBlur_12665_10455"/>
</filter>
<linearGradient id="paint0_linear_12665_10455" x1="92.6245" y1="109.676" x2="65.6957" y2="85.5886" gradientUnits="userSpaceOnUse">
<stop stop-color="#D28BA2"/>
<stop offset="0.1" stop-color="#D991A3"/>
<stop offset="0.25" stop-color="#ECA0A6"/>
<stop offset="0.31" stop-color="#F5A8A8"/>
<stop offset="0.66" stop-color="#F1F2F2"/>
<stop offset="1" stop-color="#F2DFE6"/>
</linearGradient>
<linearGradient id="paint1_linear_12665_10455" x1="119.529" y1="28.5879" x2="144.249" y2="52.3526" gradientUnits="userSpaceOnUse">
<stop stop-color="#D28BA2"/>
<stop offset="0.15" stop-color="#D592A7"/>
<stop offset="0.37" stop-color="#DCA5B7"/>
<stop offset="0.62" stop-color="#E8C4CF"/>
<stop offset="0.9" stop-color="#F8EEF2"/>
<stop offset="1" stop-color="white"/>
</linearGradient>
<linearGradient id="paint2_linear_12665_10455" x1="114.634" y1="106.413" x2="68.7555" y2="82.791" gradientUnits="userSpaceOnUse">
<stop stop-color="#FF7439"/>
<stop offset="1" stop-color="#FFA10D"/>
</linearGradient>
<linearGradient id="paint3_linear_12665_10455" x1="142.636" y1="44.1447" x2="131.842" y2="34.7053" gradientUnits="userSpaceOnUse">
<stop stop-color="#FF7439"/>
<stop offset="1" stop-color="#FFA10D"/>
</linearGradient>
</defs>
</svg>
