<svg width="133" height="188" viewBox="0 0 133 188" fill="none" xmlns="http://www.w3.org/2000/svg">
<g filter="url(#filter0_f_12665_10456)">
<path d="M-6.00875 48.3929C2.83509 42.3143 15.233 45.8093 25.5412 54.2213C35.1938 62.395 42.5123 73.3996 46.6805 86.0076C50.8252 98.6287 51.1543 112.394 45.579 121.408C42.5965 126.224 37.8705 128.769 33.5173 131.706L21.4202 139.986L21.1862 140.148C31.9736 132.758 33.0331 114.486 27.5323 98.2948C22.0314 82.1034 10.0889 66.7853 -3.55692 60.7377C-11.1851 57.3614 -19.0318 57.2613 -24.9501 61.3099L-8.452 50.012L-6.00875 48.3929Z" fill="url(#paint0_linear_12665_10456)"/>
<path d="M-57.7648 93.912C-62.7001 73.467 -61.6666 52.157 -52.2135 38.426C-47.0292 30.8802 -39.2508 26.6587 -32.2015 21.8326L-24.5314 16.5941C-33.617 22.8044 -39.2803 33.9464 -41.0949 47.1605C-43.0426 61.1103 -40.8393 76.9058 -35.6548 91.8702C-30.3478 107.063 -22.4998 120.985 -12.5039 132.941C-2.62801 144.737 9.21058 154.201 21.5583 159.189C33.2137 163.907 45.0974 164.317 54.7058 159.333C55.8264 158.754 56.9123 158.095 57.9563 157.36L46.5208 165.179C41.859 168.378 37.3357 171.992 31.978 173.896C21.2341 177.738 8.49261 175.552 -3.55543 169.098C-15.3571 162.825 -26.2899 152.757 -35.3719 140.756C-44.6422 128.421 -51.7451 114.294 -56.3355 99.0598C-56.8788 97.3999 -57.3386 95.6531 -57.7648 93.912Z" fill="url(#paint1_linear_12665_10456)"/>
<path d="M19.5579 19.5635C-12.7435 1.82616 -39.9466 18.259 -41.1923 56.2646C-42.4381 94.2702 -17.2845 139.461 15.0037 157.209C47.2919 174.956 74.5082 158.513 75.7652 120.51C77.0221 82.5059 51.8797 37.3171 19.5579 19.5635ZM16.0032 126.898C-2.0555 116.964 -16.173 91.6724 -15.4355 70.4072C-14.698 49.1421 0.486499 39.9505 18.5472 49.872C36.608 59.7936 50.7235 85.0979 50.0083 106.367C49.2933 127.636 34.0864 136.824 16.0032 126.898Z" fill="url(#paint2_linear_12665_10456)"/>
</g>
<defs>
<filter id="filter0_f_12665_10456" x="-72.6719" y="0.42041" width="160.482" height="187.374" filterUnits="userSpaceOnUse" color-interpolation-filters="sRGB">
<feFlood flood-opacity="0" result="BackgroundImageFix"/>
<feBlend mode="normal" in="SourceGraphic" in2="BackgroundImageFix" result="shape"/>
<feGaussianBlur stdDeviation="6" result="effect1_foregroundBlur_12665_10456"/>
</filter>
<linearGradient id="paint0_linear_12665_10456" x1="39.9359" y1="97.2222" x2="2.19131" y2="77.7921" gradientUnits="userSpaceOnUse">
<stop stop-color="#FFA847"/>
<stop offset="1" stop-color="#9461FA"/>
</linearGradient>
<linearGradient id="paint1_linear_12665_10456" x1="47.7351" y1="104.966" x2="-13.8432" y2="73.5684" gradientUnits="userSpaceOnUse">
<stop stop-color="#FFA847"/>
<stop offset="1" stop-color="#9461FA"/>
</linearGradient>
<linearGradient id="paint2_linear_12665_10456" x1="62.3045" y1="96.0716" x2="3.1798" y2="65.8018" gradientUnits="userSpaceOnUse">
<stop stop-color="#FF7439"/>
<stop offset="1" stop-color="#FFA10D"/>
</linearGradient>
</defs>
</svg>
