<svg width="120" height="120" viewBox="0 0 120 120" fill="none" xmlns="http://www.w3.org/2000/svg">
<g filter="url(#filter0_f_12665_10454)">
<g style="mix-blend-mode:color">
<path d="M52.1386 103.112C50.4049 103.538 48.65 103.873 46.8811 104.114C45.5267 104.298 44.1808 104.414 42.81 104.507C32.4834 105.115 22.2128 102.601 13.3335 97.2944C12.1216 96.5654 10.9238 95.784 9.75565 94.949C8.76928 94.2378 7.79992 93.4885 6.8476 92.7012C6.80463 92.6897 6.77667 92.6412 6.74232 92.6166C6.58277 92.5096 6.43386 92.3874 6.29764 92.2519C7.40618 93.1374 11.9263 89.7892 16.4283 84.7321C20.9304 79.6751 23.7844 74.7341 22.7154 73.7774C22.6837 73.7501 22.6486 73.7269 22.611 73.7085C22.7783 73.8007 22.9338 73.9129 23.0742 74.0424C28.4888 78.3267 35.3396 80.3728 42.2169 79.7597C49.0942 79.1465 55.4749 75.9207 60.0462 70.746C64.6174 65.5713 67.0314 58.8414 66.7915 51.941C66.5516 45.0406 63.676 38.4945 58.7565 33.6498C58.6649 33.5689 58.5885 33.4722 58.5311 33.3643C58.5576 33.4011 58.588 33.4349 58.6217 33.4653C59.692 34.4173 64.2385 31.0659 68.7811 25.9532C73.3236 20.8405 76.1065 15.9931 75.0678 15.0189C75.0994 15.042 75.1283 15.0686 75.154 15.0982C75.8806 15.8047 76.5834 16.5047 77.2725 17.2369C78.0713 18.0752 78.8182 18.9355 79.5348 19.8132C80.383 20.849 81.1793 21.9067 81.9364 23.0152C87.4891 30.9698 90.7278 40.308 91.2926 49.9924C91.3815 51.4558 91.4104 52.9203 91.3793 54.3857C91.3086 56.8088 91.07 59.2241 90.6655 61.6143C90.0087 65.6207 88.8775 69.5348 87.2956 73.2739C85.129 78.3958 82.1328 83.1254 78.4276 87.2726C71.4759 95.1058 62.2975 100.629 52.1208 103.102L52.1386 103.112Z" fill="url(#paint0_linear_12665_10454)"/>
</g>
</g>
<defs>
<filter id="filter0_f_12665_10454" x="0.296875" y="9.01904" width="97.0938" height="101.577" filterUnits="userSpaceOnUse" color-interpolation-filters="sRGB">
<feFlood flood-opacity="0" result="BackgroundImageFix"/>
<feBlend mode="normal" in="SourceGraphic" in2="BackgroundImageFix" result="shape"/>
<feGaussianBlur stdDeviation="3" result="effect1_foregroundBlur_12665_10454"/>
</filter>
<linearGradient id="paint0_linear_12665_10454" x1="62.3122" y1="25.8035" x2="31.0872" y2="62.4959" gradientUnits="userSpaceOnUse">
<stop stop-color="#FF7439"/>
<stop offset="1" stop-color="#FFA10D"/>
</linearGradient>
</defs>
</svg>
