<svg width="145" height="232" viewBox="0 0 145 232" fill="none" xmlns="http://www.w3.org/2000/svg">
<g filter="url(#filter0_f_12665_10457)">
<path d="M127.539 54.125C129.806 53.3752 128.754 44.0296 125.189 33.2509C121.624 22.4722 116.897 14.3421 114.63 15.0919C112.363 15.8416 113.415 25.1872 116.98 35.9659C120.545 46.7446 125.272 54.8747 127.539 54.125Z" fill="url(#paint0_linear_12665_10457)"/>
<g style="mix-blend-mode:color">
<path d="M60.8154 72.1153C61.6434 69.2645 62.6212 66.4593 63.7445 63.7113C64.6047 61.6075 65.5578 59.5733 66.5632 57.5217C74.2741 42.1454 86.4324 29.4445 101.458 21.0699C103.515 19.9308 105.636 18.8556 107.81 17.8675C109.654 17.0384 111.539 16.2654 113.465 15.5486C113.517 15.4963 113.61 15.4963 113.674 15.4673C113.961 15.3266 114.261 15.2137 114.569 15.1302C112.372 15.9903 113.436 25.2835 116.975 35.9714C120.515 46.6594 125.257 54.8774 127.524 54.1334C127.589 54.1104 127.652 54.0792 127.71 54.0405C127.438 54.2046 127.147 54.3353 126.844 54.4298C116.172 58.6651 107.529 66.8296 102.694 77.2433C97.8594 87.657 97.1997 99.5279 100.851 110.413C104.502 121.299 112.187 130.37 122.323 135.762C132.46 141.154 144.278 142.455 155.345 139.399C155.538 139.334 155.74 139.305 155.943 139.312C155.868 139.319 155.794 139.335 155.723 139.358C153.462 140.108 154.508 149.442 158.094 160.234C161.68 171.027 166.347 179.065 168.613 178.379C168.554 178.405 168.491 178.425 168.427 178.437C166.806 178.896 165.213 179.326 163.586 179.71C161.715 180.163 159.855 180.523 157.995 180.826C155.798 181.186 153.613 181.453 151.387 181.622C135.315 183.005 119.175 179.904 104.759 172.666C102.577 171.577 100.444 170.401 98.3598 169.138C94.9291 167.021 91.6492 164.67 88.5436 162.1C83.32 157.823 78.624 152.94 74.5545 147.553C68.98 140.174 64.6601 131.927 61.7685 123.143C56.2677 106.619 55.9453 88.8098 60.8444 72.0978L60.8154 72.1153Z" fill="url(#paint1_linear_12665_10457)"/>
</g>
</g>
<defs>
<filter id="filter0_f_12665_10457" x="45.3926" y="3.04395" width="135.221" height="190.899" filterUnits="userSpaceOnUse" color-interpolation-filters="sRGB">
<feFlood flood-opacity="0" result="BackgroundImageFix"/>
<feBlend mode="normal" in="SourceGraphic" in2="BackgroundImageFix" result="shape"/>
<feGaussianBlur stdDeviation="6" result="effect1_foregroundBlur_12665_10457"/>
</filter>
<linearGradient id="paint0_linear_12665_10457" x1="138.242" y1="44.3956" x2="95.9458" y2="20.1889" gradientUnits="userSpaceOnUse">
<stop offset="0.01" stop-color="#F1F2F2"/>
<stop offset="0.22" stop-color="#EEEFEF"/>
<stop offset="0.41" stop-color="#E4E4E4"/>
<stop offset="0.59" stop-color="#D2D2D2"/>
<stop offset="0.76" stop-color="#BAB9B9"/>
<stop offset="0.92" stop-color="#9C9999"/>
<stop offset="1" stop-color="#8A8787"/>
</linearGradient>
<linearGradient id="paint1_linear_12665_10457" x1="163.688" y1="151.043" x2="136.809" y2="75.5693" gradientUnits="userSpaceOnUse">
<stop offset="0.0364583" stop-color="#FFA847"/>
<stop offset="1" stop-color="#9461FA"/>
</linearGradient>
</defs>
</svg>
