<svg width="120" height="220" viewBox="0 0 120 220" fill="none" xmlns="http://www.w3.org/2000/svg">
<g filter="url(#filter0_f_12665_10434)">
<path d="M60.0411 33.3986L126.441 115.615L40.4996 137.972L60.0411 33.3986Z" fill="url(#paint0_linear_12665_10434)"/>
<path d="M147.986 52.6697L60.041 33.3987L126.441 115.615L147.986 52.6697Z" fill="url(#paint1_linear_12665_10434)"/>
<g style="mix-blend-mode:color-dodge">
<path d="M60.3096 33.1796L59.7852 33.6033L126.193 115.815L126.717 115.392L60.3096 33.1796Z" fill="url(#paint2_linear_12665_10434)"/>
</g>
<g style="mix-blend-mode:color-dodge">
<path d="M40.3966 137.612L40.5664 138.264L126.504 115.895L126.334 115.243L40.3966 137.612Z" fill="url(#paint3_linear_12665_10434)"/>
</g>
<path d="M40.498 137.972L159.391 179.108L126.439 115.616L40.498 137.972Z" fill="url(#paint4_linear_12665_10434)"/>
<path d="M147.985 52.6698L159.392 179.107L126.44 115.615L147.985 52.6698Z" fill="url(#paint5_linear_12665_10434)"/>
</g>
<defs>
<filter id="filter0_f_12665_10434" x="32.3965" y="25.1797" width="134.996" height="161.928" filterUnits="userSpaceOnUse" color-interpolation-filters="sRGB">
<feFlood flood-opacity="0" result="BackgroundImageFix"/>
<feBlend mode="normal" in="SourceGraphic" in2="BackgroundImageFix" result="shape"/>
<feGaussianBlur stdDeviation="4" result="effect1_foregroundBlur_12665_10434"/>
</filter>
<linearGradient id="paint0_linear_12665_10434" x1="89.9002" y1="76.4358" x2="46.1996" y2="86.9791" gradientUnits="userSpaceOnUse">
<stop stop-color="#FFA847"/>
<stop offset="1" stop-color="#9461FA"/>
</linearGradient>
<linearGradient id="paint1_linear_12665_10434" x1="135.642" y1="50.0268" x2="101.706" y2="60.459" gradientUnits="userSpaceOnUse">
<stop stop-color="#FF7439"/>
<stop offset="1" stop-color="#FFA10D"/>
</linearGradient>
<linearGradient id="paint2_linear_12665_10434" x1="92.989" y1="74.7092" x2="93.5042" y2="74.2931" gradientUnits="userSpaceOnUse">
<stop stop-color="#5B3F91"/>
<stop offset="0.505208" stop-color="#8B39B2"/>
<stop offset="1" stop-color="#F58634"/>
</linearGradient>
<linearGradient id="paint3_linear_12665_10434" x1="83.5353" y1="127.08" x2="83.3685" y2="126.439" gradientUnits="userSpaceOnUse">
<stop stop-color="#5B3F91"/>
<stop offset="0.505208" stop-color="#8B39B2"/>
<stop offset="1" stop-color="#F58634"/>
</linearGradient>
<linearGradient id="paint4_linear_12665_10434" x1="127.962" y1="142.364" x2="84.3562" y2="151.673" gradientUnits="userSpaceOnUse">
<stop stop-color="#FFA847"/>
<stop offset="1" stop-color="#9461FA"/>
</linearGradient>
<linearGradient id="paint5_linear_12665_10434" x1="170.28" y1="106.309" x2="143.305" y2="116.418" gradientUnits="userSpaceOnUse">
<stop stop-color="#FF7439"/>
<stop offset="1" stop-color="#FFA10D"/>
</linearGradient>
</defs>
</svg>
