<svg width="124" height="24" viewBox="0 0 124 24" fill="none" xmlns="http://www.w3.org/2000/svg">
<path d="M84.891 11.2815H76.4467L77.816 8.94211C78.3861 7.9727 78.8998 7.63022 79.756 7.63022C80.6116 7.63022 80.8972 8.31461 80.441 9.17024H89.0565L89.9127 7.63022C90.5402 6.48899 90.5402 5.2334 88.9996 5.2334H73.8223C72.4529 5.2334 71.3686 5.40464 70.5699 6.71712L67.888 11.2815C67.1467 12.5939 67.2036 13.6783 69.0292 13.6783H77.7591L76.3329 16.1883C75.9335 16.8733 75.4198 17.3295 74.2217 17.3295C73.1942 17.3295 73.2517 16.6451 73.7079 15.9607H65.1493L64.1218 17.6726C63.4943 18.7569 64.0081 19.7269 65.4912 19.7269H80.5542C81.9235 19.7269 83.1217 19.0994 83.8066 17.9582L86.3741 13.6789C86.9453 12.5939 86.6597 11.2815 84.891 11.2815Z" fill="black"/>
<path d="M121.549 8.05225C120.852 8.05225 120.287 8.59964 120.287 9.26836C120.287 9.95101 120.852 10.4984 121.549 10.4984C122.242 10.4984 122.803 9.95101 122.803 9.26836C122.803 8.59964 122.242 8.05225 121.549 8.05225ZM121.549 10.2592C120.98 10.2592 120.526 9.82621 120.526 9.26778C120.526 8.72735 120.98 8.29083 121.549 8.29083C122.11 8.29083 122.564 8.72735 122.564 9.26778C122.564 9.82621 122.11 10.2592 121.549 10.2592Z" fill="black"/>
<path d="M65.4356 5.2334H52.5402C50.7715 5.2334 48.489 5.2334 47.1196 7.63022L41.4135 17.3295C40.6147 18.642 41.2997 19.7263 42.7828 19.7263H57.7895C59.3301 19.7263 60.3001 19.2695 61.4982 17.3295L67.2044 7.63022C67.9457 6.37521 66.8044 5.2334 65.4356 5.2334ZM58.1889 8.94211L53.9101 16.1883C53.3395 17.2157 52.8258 17.3295 51.5133 17.3295C50.2008 17.3295 49.8584 16.8733 50.2583 16.1883L54.5945 8.94211C55.2226 7.85777 55.9639 7.63022 57.0482 7.63022C58.1326 7.63022 58.7595 7.9727 58.1889 8.94211Z" fill="black"/>
<path d="M42.8405 5.2334H26.2938L19.162 17.3295H3.41406L3.42192 19.7263H35.195C37.3062 19.7263 37.9906 18.6989 38.4474 17.9001L40.1587 14.9333C40.6155 14.1345 40.6155 13.2214 39.7024 12.7083C40.6173 12.7083 41.8705 12.0808 42.6124 10.7683L44.3243 7.85835C45.1805 6.4321 44.153 5.2334 42.8405 5.2334ZM34.3393 14.9908L33.4831 16.3595C33.255 16.8164 32.8556 17.3295 31.8856 17.3295H27.6632L29.8331 13.6783H33.9394C34.6813 13.6783 34.6813 14.3627 34.3393 14.9908ZM37.9337 8.94211L37.0775 10.3115C36.8494 10.7683 36.45 11.2815 35.48 11.2815H31.2576L33.4257 7.63022H37.5338C38.2762 7.63022 38.2762 8.31461 37.9337 8.94211Z" fill="black"/>
<path d="M122.192 8.94974C122.192 8.83539 122.141 8.71407 122.037 8.65544C121.929 8.59623 121.811 8.58984 121.694 8.58984H121.08V9.95804H121.288V9.32706H121.533L121.935 9.95746H122.174L121.748 9.32706C121.998 9.32067 122.192 9.21967 122.192 8.94974ZM121.517 9.15756H121.288V8.74541H121.651C121.828 8.74541 121.984 8.76921 121.984 8.94626C121.984 9.19239 121.714 9.15756 121.517 9.15756Z" fill="black"/>
<path d="M101.128 7.62826H122.524L122.518 5.23145H93.9959L85.4941 19.7244H105.35L106.776 17.3276H95.4222L97.5903 13.6763H108.945L110.314 11.2795H99.0171L101.128 7.62826Z" fill="black"/>
</svg>
