<svg width="124" height="24" viewBox="0 0 124 24" fill="none" xmlns="http://www.w3.org/2000/svg">
<g clip-path="url(#clip0_12776_12129)">
<path d="M20.2461 22.3896C14.4809 22.3896 9.80855 17.7148 9.80855 11.9485C9.80855 6.1819 14.4809 1.5116 20.2461 1.5116C22.2781 1.5116 24.1753 2.09114 25.778 3.0957L20.2461 11.9485L30.6605 5.93514C29.529 4.13234 27.9062 2.57893 25.9439 1.40015C23.4469 -0.0948245 19.9733 -1.02002 16.1324 -1.02002C10.6535 -1.02002 5.84676 0.970956 3.16619 3.95254C1.18157 6.15664 0 8.93067 0 11.9484C0 14.9682 1.18157 17.7443 3.16619 19.9499C5.85373 22.9352 10.5888 24.9146 15.9774 24.9146C21.3652 24.9146 26.0989 22.9337 28.7881 19.9499C28.9354 19.7856 29.078 19.6198 29.2129 19.4477L28.8068 17.9256C26.9173 20.6226 23.7878 22.3896 20.2461 22.3896Z" fill="#BF1920"/>
<path d="M54.7741 24.2869L50.4031 7.9809C49.7009 5.3459 47.3015 3.40918 44.4449 3.40918C43.704 3.40918 42.9941 3.54155 42.3353 3.78118L32.9253 7.20296H42.6035L44.2573 13.3794C42.6531 11.9987 40.5637 11.1586 38.2759 11.1586C33.7328 11.1586 30.0547 14.2029 30.0547 17.9583C30.0547 21.7139 33.7328 24.7628 38.2759 24.7628C41.5464 24.7628 44.4387 23.1616 46.2227 20.7018L47.1822 24.2869H54.7741ZM41.441 21.7542C39.3454 21.7542 37.6466 20.057 37.6466 17.9583C37.6466 15.8627 39.3454 14.1639 41.441 14.1639C43.5366 14.1639 45.2369 15.8627 45.2369 17.9583C45.2369 20.057 43.5366 21.7542 41.441 21.7542Z" fill="#BF1920"/>
<path d="M72.5951 3.41211C72.0216 3.41211 71.4791 3.5389 70.9955 3.76597L64.9536 6.5817C64.6545 4.78308 63.0921 3.41211 61.2073 3.41211C60.6369 3.41211 60.0928 3.5389 59.603 3.76597L52.2266 7.2031H57.4129V24.2872H65.0048V9.10371C65.0048 8.05606 65.8526 7.20325 66.9035 7.20325C67.9482 7.20325 68.8023 8.05606 68.8023 9.10371V24.2872H76.3911V7.2031C76.3911 5.10796 74.6907 3.41211 72.5951 3.41211Z" fill="#BF1920"/>
<path d="M101.061 14.1638C101.061 20.102 96.2482 24.9148 90.3117 24.9148C84.3705 24.9148 79.5547 20.102 79.5547 14.1638C79.5547 8.22718 84.3705 3.41211 90.3117 3.41211C96.2482 3.41211 101.061 8.22734 101.061 14.1638ZM90.7565 6.67517C90.4186 5.41006 89.1182 4.65908 87.8534 4.99915C86.5901 5.33783 85.8353 6.63905 86.1747 7.90401L89.8622 21.652C90.2032 22.9184 91.5005 23.6686 92.7653 23.3338C94.0301 22.9912 94.7819 21.6908 94.4424 20.426L90.7565 6.67517Z" fill="#BF1920"/>
<path d="M120.206 3.41211C119.631 3.41211 119.085 3.5389 118.594 3.76597L112.558 6.5817C112.26 4.78308 110.698 3.41211 108.813 3.41211C108.243 3.41211 107.699 3.5389 107.207 3.76597L99.834 7.2031H105.019V24.2872H112.609V9.10371C112.609 8.05606 113.458 7.20325 114.509 7.20325C115.557 7.20325 116.405 8.05606 116.405 9.10371V24.2872H124V7.2031C124 5.10796 122.298 3.41211 120.206 3.41211Z" fill="#BF1920"/>
</g>
<defs>
<clipPath id="clip0_12776_12129">
<rect width="124" height="24" fill="white"/>
</clipPath>
</defs>
</svg>
