<svg width="124" height="24" viewBox="0 0 124 24" fill="none" xmlns="http://www.w3.org/2000/svg">
<path d="M18.1606 0C20.6504 0.408669 22.9916 1.78328 24.4781 3.82663C24.7754 4.23529 25.0727 4.68111 25.2956 5.16409C24.3294 5.83282 23.3632 6.4644 22.4342 7.13313C22.2855 7.24458 22.174 7.31889 21.9882 7.39319C21.5423 6.27864 20.7619 5.27554 19.7585 4.60681C19.0153 4.12384 18.1606 3.78947 17.3058 3.60372C17.566 2.41486 17.8633 1.22601 18.1606 0ZM9.1674 1.0774C10.3194 0.705882 11.6572 1.30031 12.1403 2.37771C12.5491 3.19505 12.4376 4.27245 11.8802 4.97833C11.1741 5.86997 9.83631 6.20433 8.83294 5.68421C8.16403 5.34985 7.64376 4.71827 7.49512 3.97523C7.38363 3.41796 7.42079 2.82353 7.71809 2.30341C8.01538 1.70898 8.57281 1.30031 9.1674 1.0774ZM4.03906 13.7461C5.41405 13.709 6.75188 13.7461 8.12687 13.7461C8.387 15.2322 9.01875 16.644 10.0221 17.7585C10.8025 18.6502 11.8059 19.2817 12.8836 19.6904C14.3701 20.2477 16.0052 20.322 17.566 19.9505C18.9781 19.6161 20.2416 18.8359 21.1707 17.6842C21.8024 16.904 22.2855 16.0124 22.5457 15.0464C23.772 15.3808 24.924 15.8266 26.1504 16.1981C26.1132 16.5697 25.9646 16.9412 25.8159 17.3127C24.9984 19.4303 23.4747 21.2508 21.5051 22.4025C20.2416 23.1455 18.7923 23.6285 17.343 23.8142C14.4815 24.1858 11.4714 23.5913 9.05591 21.9938C7.75525 21.1393 6.60323 19.9876 5.78567 18.6502C4.81946 17.2384 4.26203 15.5294 4.03906 13.7461Z" fill="#28BB4E"/>
<path d="M29.4221 10.4026C31.1687 7.57903 35.0336 6.27872 38.118 7.57903C39.0842 7.95055 39.7531 8.73073 40.3106 9.58522C40.2734 8.91649 40.2734 8.24776 40.2734 7.54188H43.9896C44.0639 12.8546 43.8409 18.1673 44.1382 23.48H40.4964C40.4592 22.7369 40.422 22.031 40.3849 21.288C38.4896 24.6688 33.5471 24.5574 30.8714 22.254C27.564 19.3561 27.1181 14.0063 29.4221 10.4026ZM35.0707 10.4769C31.6518 11.3314 31.0573 15.9382 32.6181 18.6131C33.8072 20.805 37.1518 21.2509 38.8612 19.4304C40.5707 17.6471 40.7193 14.7493 39.716 12.5574C38.9356 10.8484 36.8545 10.031 35.0707 10.4769ZM62.9793 8.69358C65.6921 6.46448 69.8914 6.50163 72.6785 8.61928C75.0197 10.4769 75.6515 13.6719 75.4285 16.4954C71.5265 16.5326 67.5874 16.4954 63.6854 16.4954C63.8712 18.0558 64.7259 19.6533 66.2495 20.2478C68.4421 21.3252 71.3407 20.2849 72.1211 17.9072C73.1988 18.2416 74.2393 18.5759 75.317 18.8731C74.7224 20.5078 73.6447 22.031 72.084 22.8855C69.0367 24.6317 64.8002 24.1115 62.3104 21.5852C58.8915 18.1673 59.1516 11.74 62.9793 8.69358ZM64.7259 11.5543C64.1685 12.1487 63.9827 12.966 63.7597 13.7091C66.3982 13.7091 69.0738 13.7834 71.7123 13.6348C71.4522 12.6688 71.1549 11.6286 70.3002 10.997C68.7022 9.80813 66.0637 9.95674 64.7259 11.5543ZM81.1143 8.54497C83.6784 6.57593 87.4318 6.57593 90.1446 8.24776C92.8203 9.99389 93.7122 13.4861 93.3405 16.4954C89.4385 16.4583 85.5365 16.4954 81.6346 16.4954C81.8204 17.4242 82.0433 18.3902 82.6751 19.0961C84.0872 20.8422 86.9115 21.1766 88.6953 19.8391C89.3642 19.3561 89.6615 18.5388 90.1446 17.9444C91.1851 18.2044 92.2257 18.5759 93.2662 18.9103C92.6716 20.5821 91.5568 22.1053 89.9588 22.9598C86.9487 24.5945 82.8609 24.1487 80.4082 21.7338C76.7663 18.2787 77.0636 11.5543 81.1143 8.54497ZM82.6008 11.5914C82.0805 12.1858 81.8947 12.966 81.6717 13.7091H89.5872C89.4014 12.7803 89.1412 11.7772 88.3608 11.1084C86.7629 9.77098 83.9757 9.88243 82.6008 11.5914ZM100.624 9.47377C102.742 6.20442 108.354 6.24157 110.138 9.80813C111.847 6.87315 116.121 6.20442 118.796 8.17346C120.246 9.28801 120.915 11.1456 120.915 12.9289C120.952 16.4211 120.915 19.9134 120.915 23.4057H117.236V14.0063C117.236 13.0403 117.087 12.0001 116.418 11.2942C115.006 9.88243 112.293 10.254 111.364 12.0372C110.881 12.8546 110.881 13.8577 110.881 14.7493V23.4057H107.165C107.128 20.0248 107.202 16.644 107.128 13.3004C107.128 11.8143 105.901 10.4397 104.378 10.4769C102.594 10.2168 100.922 11.6657 100.81 13.4118C100.699 16.7555 100.81 20.0992 100.773 23.4057H97.0196V7.46757H100.661C100.661 8.17346 100.661 8.84219 100.624 9.47377ZM48.8206 7.50473H52.5368C52.5368 8.32206 52.4996 9.17655 52.4996 9.99389C53.5402 7.91339 55.9557 7.0589 58.1483 7.35612V11.257C56.8476 11.2199 55.3983 11.0713 54.2834 11.8886C53.0942 12.6688 52.6855 14.192 52.6483 15.5295C52.6111 18.1673 52.6483 20.805 52.6111 23.4428H48.8206V7.50473Z" fill="#28BB4E"/>
</svg>
