<svg width="68" height="24" viewBox="0 0 68 24" fill="none" xmlns="http://www.w3.org/2000/svg">
<g clip-path="url(#clip0_12776_12168)">
<path fill-rule="evenodd" clip-rule="evenodd" d="M67.1996 9.10835C66.6075 9.24953 65.8663 9.57571 65.1151 10.0189C64.8667 9.49447 64.6236 9.05285 64.5056 8.81877C64.229 8.26282 63.9925 7.68782 63.7979 7.09816C63.6997 6.79329 63.591 6.55519 63.2468 6.60828C62.9565 6.65373 62.8064 6.94452 62.5769 7.39337C62.0673 8.38962 60.1325 12.3348 59.6788 12.8677C59.4916 13.0845 59.1253 13.1408 59.1253 12.7265V8.15232C59.1253 6.77881 57.5573 6.51979 56.8995 7.66646C56.3544 8.61726 55.1137 11.3394 54.9856 11.5911C54.8141 11.9217 54.5352 11.8244 54.5436 11.4648L54.546 8.05218C54.5468 6.71164 53.3476 6.70199 52.7007 7.38613C52.4712 7.63027 52.0183 8.29631 51.3065 8.68966C51.0205 8.84408 50.7143 8.95779 50.3967 9.02751C49.7325 6.85201 47.7148 6.1554 46.9222 7.179C46.3771 7.88406 46.797 8.79142 47.4173 9.34404C47.7845 9.67264 48.4882 10.0061 49.4334 10.0467C49.4475 10.2325 49.4555 10.4211 49.4483 10.615C49.3996 12.1196 48.6174 13.2908 47.3795 13.2924C46.0844 13.2936 45.4029 12.2523 45.4318 10.5816C45.454 9.21815 45.9334 8.14911 46.3815 7.67974C46.6891 7.35878 46.4962 6.8134 46.0152 7.00525C44.8497 7.46738 42.5478 8.96155 41.4532 9.76032C41.2701 9.36817 41.0962 9.02912 40.9814 8.78418C40.7125 8.203 40.3735 7.60654 40.1368 6.99761C40.0173 6.6851 39.7508 6.47877 39.4694 6.54312C39.2053 6.60385 39.0833 6.89625 38.8655 7.35637C38.4597 8.21869 36.2118 12.3702 35.8998 12.8971C35.6474 13.3222 35.3833 13.2044 35.3817 12.7724C35.3801 12.2676 35.3817 9.48642 35.3817 8.50425C35.3817 7.33706 34.8676 6.97187 34.3092 6.96302C33.5934 6.95095 33.1385 7.33706 32.6603 8.1487C32.2803 8.79222 31.0568 11.1785 30.734 11.7504C30.4731 12.2105 30.2533 12.077 30.2465 11.5972C30.2441 11.429 30.2465 8.94868 30.2465 8.30274C30.2465 7.37447 29.9168 7.00082 29.2988 6.95095C28.7034 6.90349 28.2199 7.24456 27.8649 7.7095C27.4011 8.31722 25.2618 12.1084 24.5908 13.0322C24.2598 13.4891 23.9293 13.4903 23.9378 12.8959C23.9503 11.9141 23.9378 8.91007 23.9378 8.54688C23.9378 7.92186 23.7446 7.02375 22.7373 6.96141C22.0232 6.91676 21.4217 7.29845 21.0417 7.87641C20.5586 8.61123 19.8549 10.3789 19.5047 11.1383C19.3618 11.4496 19.0574 11.5022 19.0498 10.9323L19.0506 8.23799C20.5175 6.87373 21.5679 4.97655 21.7981 3.30059C22.0912 1.17898 21.3956 0.13286 20.1822 0.151763C18.8276 0.172276 17.9858 1.35354 17.5933 2.72665C17.2362 3.97266 17.1094 5.65185 17.1094 7.04949L17.1082 8.49379C16.8015 8.68109 16.4752 8.8343 16.1352 8.95069C15.8139 9.05888 15.5092 9.13047 15.2181 9.1723C14.5905 6.89987 12.595 6.30743 11.8353 7.16975C11.3257 7.74731 11.4525 8.78016 12.2222 9.39029C12.5495 9.65011 13.2117 10.0294 14.2149 10.1155C14.2221 10.288 14.225 10.4706 14.2213 10.6645C14.1956 12.1787 13.4661 13.28 12.2677 13.2784C11.0422 13.2776 10.2665 12.5496 10.289 10.6729C10.3043 9.373 10.667 8.38439 11.2447 7.77828C11.5994 7.40504 11.3538 6.80133 10.7266 7.13677C9.96376 7.5446 8.39413 8.27942 6.46743 10.2156C6.39296 9.10875 6.34022 8.02764 6.34867 6.99519C6.36397 5.11772 6.38571 3.07777 6.94287 1.19869C7.14617 0.508516 7.27056 -0.124547 6.38813 0.0210497C4.0033 0.413999 0.549644 3.10029 0.0750128 7.30891C-0.279652 10.4453 0.668 12.4341 1.97635 13.7023C2.32941 14.0441 2.8294 14.2879 3.20379 14.3925C3.17521 14.4399 3.14461 14.4854 3.11281 14.5348C1.39746 17.2802 1.01622 19.1461 0.915178 20.5924C0.772265 22.6524 1.49488 23.9672 3.06692 23.9994C5.32775 24.0432 6.77701 21.6904 6.86034 17.7456C6.90382 15.7374 6.72266 13.6114 6.56365 11.534C7.36637 10.6612 8.08496 10.0583 8.52094 9.76233C8.70331 9.59984 8.80717 9.78767 8.71861 10.0213C8.55597 10.4541 8.46338 11.0735 8.48834 11.8079C8.53705 13.3282 9.59943 15.2146 11.9243 15.1365C14.4516 15.0525 15.5156 12.7869 15.4049 10.3733C15.4001 10.2715 15.3868 10.1782 15.3775 10.0809C15.5918 10.0521 15.8045 10.0126 16.0148 9.96263C16.3868 9.87294 16.7515 9.74101 17.1074 9.57571C17.107 11.5364 17.1054 13.9291 17.1054 13.948C17.1054 15.2174 18.7792 15.4712 19.3581 14.1322C19.8597 12.9707 20.8014 10.4927 21.4169 9.26038C21.6914 8.71017 22.0308 8.87387 22.0308 9.35329C22.0308 9.8311 22.0288 12.2688 22.0308 13.3226C22.034 15.0742 24.0803 15.6634 25.0408 14.1885C25.6282 13.288 27.4144 10.1742 27.889 9.4828C28.129 9.13208 28.3942 9.2459 28.3942 9.65494V13.8016C28.3942 15.2773 29.9127 15.4623 30.5689 14.2107C31.3213 12.7748 32.5943 10.2007 32.9908 9.47194C33.1881 9.10916 33.5186 9.11238 33.5166 9.63885C33.5147 10.9263 33.5147 12.2137 33.5166 13.5012C33.5182 15.3738 35.3958 15.4506 36.244 14.1688C36.7448 13.4123 38.4488 10.1094 38.6493 9.75026C38.8615 9.36536 39.0873 9.18236 39.2934 9.71889C39.3486 9.86409 39.6111 10.2928 39.9122 10.9243C39.074 11.6149 38.227 12.5021 38.1896 13.4445C38.1526 14.3534 38.7455 15.0078 39.5575 15.0706C41.1433 15.1932 42.3119 14.0997 42.237 12.4289C42.2105 11.8212 42.0341 11.1889 41.8131 10.6082C42.5325 10.0559 43.2914 9.50291 43.5704 9.37059C43.9673 9.18276 44.0587 9.28975 43.9351 9.68913C43.7543 10.2735 43.6489 10.9283 43.6597 11.5344C43.6811 12.7406 44.4194 15.0975 47.1532 15.0931C49.5562 15.0899 50.8174 12.5544 50.5916 10.0411C50.5892 10.0097 50.5831 9.98233 50.5807 9.95257C50.631 9.94252 50.683 9.93367 50.7357 9.9216C51.3834 9.77279 51.9797 9.4088 52.2148 9.21614C52.4466 9.02711 52.6612 9.08784 52.6612 9.72533V13.9058C52.6612 14.7198 53.3061 15.0533 53.6898 15.0404C54.2671 15.0219 54.6418 14.6125 54.8951 13.9999C55.4667 12.6236 56.5351 10.391 56.7594 9.94131C56.9558 9.54715 57.2328 9.60909 57.2328 9.91516C57.2328 10.3455 57.2272 13.0346 57.2272 13.5603C57.2272 15.2238 58.9429 15.4518 59.6796 14.4713C60.4783 13.4038 62.1864 10.1364 62.3213 9.90873C62.5516 9.52061 62.7814 9.69074 62.9268 9.98796C63.0612 10.2635 63.2287 10.3809 63.4803 11.018C63.4944 11.0586 63.5133 11.1021 63.5306 11.1447C62.6184 11.9209 61.9525 12.7788 61.9433 13.4907C61.926 14.67 62.8406 15.1582 63.8406 15.036C64.8901 14.9081 65.9517 14.0848 65.878 12.4313C65.8583 11.9398 65.6852 11.3659 65.4654 10.8149C66.0471 10.4485 66.6896 10.1026 67.2149 9.91879C67.7822 9.72131 67.7765 8.97161 67.1996 9.10835ZM1.88497 8.11894C1.99246 4.25541 3.63816 2.11571 4.81367 1.45891C5.23234 1.22644 5.44973 1.33664 5.14579 1.95C4.69411 2.86098 4.17238 5.14226 4.24484 7.47622C4.29798 9.10674 4.43123 10.794 4.55764 12.4293C4.21055 12.8887 3.87813 13.359 3.56087 13.8394C2.38617 12.9482 1.81049 10.8563 1.88497 8.11894ZM4.75248 19.0962C4.56166 21.2504 4.16432 22.9022 3.03109 22.7071C2.23038 22.5672 1.90349 20.6398 2.81974 17.8305C3.29477 16.3793 3.95861 15.0907 4.67358 13.9834C4.80361 15.8738 4.88452 17.6398 4.75248 19.0962ZM12.7475 8.52436C12.2045 7.97455 12.6296 7.48346 13.2427 7.85389C13.6787 8.11572 13.9536 8.54929 14.0982 9.17954C13.539 9.09106 13.0813 8.8614 12.7475 8.52436ZM20.1114 1.20754C20.9491 1.28918 20.6915 2.53078 20.4636 3.70078C20.2925 4.58079 19.7978 5.69689 19.0522 6.69234L19.0526 4.29322C19.0647 2.5348 19.3875 1.13635 20.1114 1.20754ZM40.3059 13.5611C40.1163 14.0759 39.4645 14.1499 39.3192 13.6693C39.1542 13.1308 39.5 12.5347 40.2918 11.8308C40.4915 12.4571 40.4939 13.0507 40.3059 13.5611ZM48.0602 8.62853C47.2527 7.93795 47.77 7.42032 48.3219 7.75213C48.7631 8.01799 49.0735 8.50143 49.2575 9.09628C48.7961 9.04521 48.3722 8.89599 48.0602 8.62853ZM63.8877 13.8837C63.6204 14.2875 62.8261 14.131 62.9356 13.4509C63.0306 12.8685 63.4159 12.4498 63.8776 12.0219C64.1019 12.6594 64.2375 13.3576 63.8877 13.8837Z" fill="black"/>
<path fill-rule="evenodd" clip-rule="evenodd" d="M60.0277 5.95535C60.2517 5.9803 60.452 6.18105 60.3502 6.38635C60.2782 6.53152 60.2525 6.69825 60.0509 6.99617C59.675 7.55496 60.2629 7.83095 60.6209 7.48199C60.9525 7.16441 61.9063 6.00223 61.9858 4.89071C62.0657 3.80641 61.3114 3.27295 60.5063 3.27295C59.7082 3.27333 58.9378 3.80754 58.9096 4.58334C58.8695 5.52624 59.6858 5.91754 60.0277 5.95535ZM65.3844 6.38786C65.3844 5.8544 65.8248 5.45176 66.3895 5.45176C66.9475 5.45176 67.3879 5.85403 67.3879 6.38786C67.3879 6.93039 66.9475 7.32963 66.3895 7.32963C65.8248 7.32963 65.3844 6.93039 65.3844 6.38786ZM66.3895 7.51753C67.0613 7.51753 67.6355 7.04078 67.6355 6.38786C67.6355 5.74136 67.0613 5.26424 66.3895 5.26424C65.7102 5.26424 65.1364 5.74136 65.1364 6.38786C65.136 7.04078 65.7102 7.51753 66.3895 7.51753ZM66.1283 6.47708H66.3766L66.7517 7.04041H66.9934L66.5882 6.46801C66.7968 6.44419 66.957 6.34287 66.957 6.11036C66.957 5.85403 66.7906 5.74098 66.4549 5.74098H65.913V7.04041H66.1283V6.47708ZM66.1283 6.31035V5.90809H66.4218C66.572 5.90809 66.7322 5.93796 66.7322 6.09864C66.7322 6.29826 66.5687 6.31035 66.3861 6.31035H66.1283Z" fill="black"/>
</g>
<defs>
<clipPath id="clip0_12776_12168">
<rect width="68" height="24" fill="white"/>
</clipPath>
</defs>
</svg>
