<svg width="124" height="24" viewBox="0 0 124 24" fill="none" xmlns="http://www.w3.org/2000/svg">
<g clip-path="url(#clip0_12776_12135)">
<path d="M102.786 3.47852L103.026 17.3858H102.929L98.8572 3.47852H92.2811V21.0128H96.6384L96.3935 6.62588H96.4912L100.865 21.0128H107.174V3.47852H102.786ZM19.384 3.47852L16.0996 21.195H20.8884L23.3113 5.11999L23.4104 5.11853L25.772 21.195H30.5317L27.2663 3.47852H19.384ZM46.1543 3.47852L43.969 17.0258H43.8685L41.6861 3.47852H34.4599L34.0692 21.195H38.5038L38.6146 5.26868H38.7123L41.6716 21.195H46.1674L49.1282 5.27014L49.2258 5.26868L49.3366 21.195H53.7683L53.3776 3.47852H46.1543Z" fill="#034EA2"/>
<mask id="mask0_12776_12135" style="mask-type:luminance" maskUnits="userSpaceOnUse" x="0" y="2" width="125" height="20">
<path d="M0.414062 21.8877H124.383V2.91313H0.414062V21.8877Z" fill="white"/>
</mask>
<g mask="url(#mask0_12776_12135)">
<path d="M8.64375 16.1975C8.81723 16.6261 8.7619 17.1756 8.67881 17.508C8.53448 18.0984 8.13356 18.7006 6.95275 18.7006C5.84483 18.7006 5.17278 18.0591 5.17278 17.094L5.16842 15.3768H0.417484L0.416016 16.7427C0.416016 20.6948 3.52547 21.8887 6.85506 21.8887C10.0607 21.8887 12.6964 20.7953 13.1177 17.8375C13.3335 16.3083 13.1746 15.3068 13.0988 14.9336C12.3509 11.2235 5.62906 10.117 5.12758 8.04261C5.04303 7.68254 5.06344 7.30938 5.10863 7.11112C5.234 6.54258 5.61883 5.92151 6.72675 5.92151C7.7647 5.92151 8.37264 6.56149 8.37264 7.52655V8.62425H12.7941V7.37645C12.7941 3.51768 9.32749 2.9141 6.82009 2.9141C3.67127 2.9141 1.09536 3.95788 0.625955 6.84722C0.49767 7.63734 0.480154 8.34442 0.666751 9.23659C1.43501 12.8577 7.73117 13.9044 8.64375 16.1975ZM66.2462 16.1638C66.4153 16.5895 66.3627 17.1304 66.2796 17.4613C66.1367 18.0444 65.7402 18.6392 64.5711 18.6392C63.4734 18.6392 62.8072 18.0065 62.8072 17.0487L62.8043 15.3503H58.1L58.0985 16.7032C58.0985 20.6159 61.1788 21.7968 64.4749 21.7968C67.6485 21.7968 70.2579 20.715 70.6749 17.7863C70.8877 16.2731 70.7317 15.2819 70.6559 14.9102C69.9139 11.2365 63.2591 10.1417 62.765 8.08764C62.6789 7.73339 62.7008 7.3646 62.7431 7.1678C62.8684 6.60509 63.2504 5.98993 64.3452 5.98993C65.3758 5.98993 65.9765 6.6211 65.9765 7.57887V8.66349H70.3542V7.43019C70.3542 3.60932 66.921 3.01313 64.4384 3.01313C61.3231 3.01313 58.7721 4.04377 58.3085 6.90541C58.1802 7.68824 58.1626 8.38799 58.3492 9.26995C59.1073 12.8576 65.3423 13.8926 66.2462 16.1638ZM81.1195 18.5433C82.3514 18.5433 82.7304 17.6949 82.8178 17.2591C82.8557 17.0681 82.8615 16.8101 82.8601 16.5827V3.47563H87.3442V16.1789C87.3501 16.5054 87.3165 17.1716 87.299 17.3451C86.99 20.6514 84.3762 21.7228 81.1195 21.7228C77.8614 21.7228 75.2475 20.6514 74.937 17.3451C74.921 17.1716 74.8874 16.5054 74.8962 16.1789V3.47563H79.3775V16.5827C79.3731 16.8101 79.3818 17.0681 79.4197 17.2591C79.5057 17.6949 79.8862 18.5433 81.1195 18.5433ZM118.073 18.3591C119.356 18.3591 119.803 17.5471 119.883 17.0734C119.92 16.8736 119.929 16.6258 119.926 16.4013V13.8283H118.109V11.2451H124.385V15.9946C124.382 16.3284 124.375 16.5719 124.321 17.1608C124.028 20.3884 121.23 21.54 118.09 21.54C114.949 21.54 112.154 20.3884 111.858 17.1608C111.807 16.5719 111.799 16.3284 111.797 15.9946L111.798 8.54088C111.798 8.226 111.836 7.6706 111.873 7.37467C112.268 4.06257 114.949 2.99694 118.092 2.99694C121.233 2.99694 123.984 4.05237 124.311 7.37467C124.368 7.93883 124.349 8.54088 124.352 8.54088V9.13133H119.883V8.13853C119.885 8.13999 119.88 7.71867 119.828 7.46355C119.748 7.07287 119.411 6.17785 118.057 6.17785C116.768 6.17785 116.389 7.02622 116.291 7.46355C116.24 7.6968 116.22 8.01316 116.22 8.3018V16.4013C116.219 16.6258 116.227 16.8736 116.261 17.0734C116.344 17.5471 116.791 18.3591 118.073 18.3591Z" fill="#034EA2"/>
</g>
</g>
<defs>
<clipPath id="clip0_12776_12135">
<rect width="124" height="24" fill="white"/>
</clipPath>
</defs>
</svg>
