<svg width="124" height="24" viewBox="0 0 124 24" fill="none" xmlns="http://www.w3.org/2000/svg">
<g clip-path="url(#clip0_12776_12119)">
<path d="M61.5763 10.8151H53.7389V4.79971H51.3677V20.0752H53.7389V12.8368H61.5763V20.0752H63.9226V4.79971H61.5763M38.4509 4.74979C37.5898 4.72483 35.8426 4.72483 34.295 4.72483V20.0627H36.6912V14.2471C37.2902 14.2471 38.5258 14.1971 39.5242 14.1722C40.9219 14.1472 44.5661 13.4483 44.5411 9.24259C44.5786 4.50019 39.3245 4.74979 38.4509 4.74979ZM38.3261 12.2128H36.7411V6.68419H38.089C38.713 6.68419 42.3946 6.40963 42.5069 9.26755C42.6566 12.0755 39.7488 12.2128 38.3261 12.2128ZM16.3363 4.72483L16.3613 20.0627H25.9834V18.0659H18.7574V12.8618H23.8742C23.8742 12.425 23.8493 11.7885 23.8742 10.9523H18.7574V6.77155H25.9834C25.9584 5.56099 25.9834 4.72483 25.9834 4.72483H16.3363ZM2.34624 8.46883C2.34624 5.96035 5.66592 5.86051 7.62528 7.47043C8.2992 5.53603 8.34912 5.39875 8.34912 5.39875C2.63328 2.65315 0.02496 6.28483 0.02496 8.60611C0.02496 14.1597 7.89984 12.9741 6.76416 16.8803C6.3648 18.3031 3.83136 19.1143 0.91104 17.3421C0.69888 17.9411 0.34944 18.665 0 19.3888C3.85632 21.4106 8.8608 20.4371 9.02304 16.2688C9.24768 11.0272 2.34624 11.4016 2.34624 8.46883ZM103.484 9.03043C103.135 4.47523 98.7168 4.82467 97.7434 4.77475C96.9322 4.74979 95.2099 4.72483 93.7248 4.72483V20.0378H96.121V13.5981C96.9322 13.5981 97.1942 13.5981 98.4173 13.5482L102.785 20.0378H105.693L100.863 13.1488C102.161 12.6746 103.671 11.5639 103.484 9.03043ZM97.6061 11.801C97.0694 11.801 96.6576 11.801 96.121 11.776V6.59683H97.3814C97.9805 6.59683 101.125 6.40963 101.4 8.91811C101.737 11.8883 98.255 11.801 97.6061 11.801ZM119.296 4.74979H116.526L111.509 20.0877H113.88C114.629 17.3171 114.878 16.5309 114.878 16.5309L121.081 16.5059C121.805 18.5527 122.341 20.1127 122.341 20.1127H124.8L119.296 4.74979ZM115.428 14.7712L117.849 7.19587H117.874L120.407 14.7463L115.428 14.7712ZM78.7987 4.31299C73.919 4.31299 70.7366 7.91971 70.7366 12.4C70.7366 16.8803 73.919 20.4871 78.7987 20.4871C83.6784 20.4871 86.8608 16.8803 86.8608 12.4C86.8608 7.91971 83.6784 4.31299 78.7987 4.31299ZM78.7987 18.2781C75.217 18.2781 73.1952 15.6698 73.1952 12.4C73.1952 9.16771 75.217 6.52195 78.7987 6.52195C82.3555 6.52195 84.4022 9.13027 84.4022 12.4C84.4022 15.6323 82.3805 18.2781 78.7987 18.2781Z" fill="black"/>
</g>
<defs>
<clipPath id="clip0_12776_12119">
<rect width="124" height="24" fill="white"/>
</clipPath>
</defs>
</svg>
