<svg width="174" height="40" viewBox="0 0 174 40" fill="none" xmlns="http://www.w3.org/2000/svg">
<path d="M152.055 20.0403C151.187 18.5175 149.198 17.9863 147.679 18.8362C147.354 19.0133 140.808 22.7672 140.555 31.6561C142.218 32.1165 143.954 32.8248 145.798 33.8872C147.1 34.6309 147.679 36.1537 147.245 37.5349C147.173 37.7474 147.064 37.9953 146.956 38.2077C146.088 39.6597 144.207 40.1909 142.688 39.4118C143.158 39.6951 143.701 39.8368 144.28 39.8368C144.533 39.8368 144.786 39.8014 145.003 39.766C146.739 39.3764 147.824 37.6765 147.39 35.9767C145.437 27.796 150.247 24.6795 150.825 24.3254C152.38 23.44 152.923 21.5631 152.055 20.0403Z" fill="#91CA74"/>
<path d="M146.921 38.2076C147.066 37.9951 147.138 37.7827 147.21 37.5348C147.644 36.1536 147.066 34.6308 145.764 33.8871C143.92 32.8247 142.147 32.1164 140.52 31.656C140.484 33.3913 140.665 35.3037 141.171 37.3931C141.388 38.2785 141.967 38.9867 142.69 39.4117C144.173 40.1908 146.053 39.695 146.921 38.2076Z" fill="#91CA74"/>
<path d="M152.308 22.59C151.837 23.9358 150.499 24.8565 148.98 24.7503C135.31 23.5816 133.104 13.3115 132.996 12.8865C132.634 11.1867 133.792 9.5222 135.527 9.16806C137.263 8.84933 138.963 9.91176 139.288 11.6116C139.433 12.2491 140.988 17.7029 149.523 18.4466C151.295 18.5882 152.597 20.1464 152.452 21.8817C152.416 22.0942 152.38 22.3421 152.308 22.59Z" fill="#B0E3F9"/>
<path d="M119.942 22.4841C120.376 23.8299 121.75 24.7861 123.269 24.6444C136.939 23.5466 139.218 13.2765 139.326 12.8515C139.688 11.1516 138.567 9.48714 136.795 9.133C135.059 8.77886 133.359 9.8767 132.997 11.5766C132.853 12.214 131.298 17.6678 122.727 18.3761C120.955 18.5178 119.617 20.0406 119.798 21.7759C119.798 22.0238 119.834 22.2717 119.942 22.4841Z" fill="#EE3197"/>
<path d="M127.971 39.8722C129.417 39.8722 130.755 38.8806 131.117 37.4286C134.263 24.29 125.005 19.0133 124.607 18.8008C123.052 17.9509 121.1 18.4821 120.195 20.0049C119.328 21.5277 119.87 23.4401 121.389 24.29C121.968 24.6441 126.777 27.796 124.824 35.9767C124.427 37.6765 125.475 39.3764 127.211 39.766C127.464 39.8368 127.718 39.8722 127.971 39.8722Z" fill="#F58634"/>
<path d="M141.134 37.4309C140.628 35.3061 140.447 33.3937 140.483 31.6938C131.623 29.2148 125.981 34.3145 125.692 34.5624C124.39 35.7665 124.354 37.7497 125.583 39.0246C126.813 40.2641 128.838 40.3349 130.104 39.1662C130.61 38.7058 135.094 35.129 142.472 39.3787C142.508 39.4141 142.58 39.4141 142.617 39.4495C141.929 39.0246 141.351 38.3163 141.134 37.4309Z" fill="#F2C94C"/>
<path d="M1.68712 37.8577C1.21698 37.3974 1 36.8661 1 36.2641V2.30192C1 1.69988 1.21698 1.13325 1.68712 0.708283C2.15725 0.212485 2.69971 0 3.35066 0C3.96545 0 4.50791 0.212485 4.97804 0.672869C5.41201 1.13325 5.66516 1.66447 5.66516 2.26651V36.2287C5.66516 36.8307 5.44818 37.3974 4.97804 37.8223C4.54407 38.2827 4.00161 38.4952 3.35066 38.4952C2.69971 38.566 2.15725 38.3181 1.68712 37.8577Z" fill="#8B39B2"/>
<path d="M11.199 7.6858C10.6565 7.15459 10.3672 6.48172 10.3672 5.63178C10.3672 4.78184 10.6565 4.10897 11.199 3.57776C11.7414 3.04654 12.4285 2.79865 13.2241 2.79865C14.0559 2.79865 14.743 3.04654 15.2855 3.57776C15.828 4.10897 16.1173 4.78184 16.1173 5.63178C16.1173 6.48172 15.828 7.15459 15.2855 7.6858C14.743 8.21701 14.0559 8.46491 13.2241 8.46491C12.4285 8.46491 11.7776 8.21701 11.199 7.6858ZM11.5968 37.8587C11.1628 37.3983 10.9096 36.8671 10.9096 36.265V14.1312C10.9096 13.5291 11.1266 12.9979 11.5968 12.5375C12.0307 12.1126 12.5732 11.8647 13.2241 11.8647C13.8389 11.8647 14.4176 12.0772 14.8515 12.5375C15.3217 12.9625 15.5386 13.4937 15.5386 14.1312V36.2296C15.5386 36.8317 15.3217 37.3983 14.8515 37.8233C14.3814 38.2836 13.8389 38.4961 13.2241 38.4961C12.5732 38.567 12.0307 38.3191 11.5968 37.8587Z" fill="#8B39B2"/>
<path d="M39.7693 12.8904C41.3966 13.7757 42.6624 15.0506 43.6026 16.7151C44.5429 18.3795 45.013 20.3627 45.013 22.6647V36.2991C45.013 36.9012 44.7961 37.4324 44.3259 37.8928C43.892 38.3177 43.3495 38.5656 42.6985 38.5656C42.0838 38.5656 41.5413 38.3531 41.0712 37.8928C40.6372 37.4678 40.384 36.9366 40.384 36.2991V23.0896C40.384 20.8231 39.6608 19.0524 38.2504 17.7067C36.84 16.3609 35.1041 15.7235 33.0066 15.7235C30.8729 15.7235 29.1009 16.4672 27.6543 17.9192C26.2077 19.3711 25.4845 21.2127 25.4845 23.3729V36.2991C25.4845 36.9012 25.2675 37.4324 24.7973 37.8928C24.3272 38.3177 23.7848 38.5656 23.17 38.5656C22.5552 38.5656 22.0127 38.3531 21.5426 37.8928C21.1086 37.4678 20.8555 36.9366 20.8555 36.2991V14.1299C20.8555 13.5278 21.0725 12.9966 21.5426 12.5362C21.9766 12.1112 22.519 11.8633 23.17 11.8633C23.7848 11.8633 24.3634 12.0758 24.7973 12.5362C25.2675 12.9612 25.4845 13.4924 25.4845 14.1299V15.8297C26.4609 14.484 27.6905 13.4216 29.2094 12.6779C30.7282 11.9342 32.428 11.5446 34.2723 11.5446C36.3337 11.58 38.178 12.005 39.7693 12.8904Z" fill="#8B39B2"/>
<path d="M72.4227 36.3699C72.4227 37.1844 72.0972 37.7865 71.4824 38.2114C71.0846 38.4593 70.6145 38.601 70.1444 38.601C69.3488 38.601 68.734 38.2823 68.3 37.6802L59.5483 25.3561L54.5938 29.6058V36.2637C54.5938 36.8657 54.3769 37.4323 53.9067 37.8573C53.4366 38.3177 52.8941 38.5302 52.2793 38.5302C51.6646 38.5302 51.1221 38.3177 50.652 37.8573C50.218 37.3969 49.9648 36.8657 49.9648 36.2637V2.30148C49.9648 1.69944 50.1818 1.13281 50.652 0.707842C51.0859 0.247458 51.6284 0.0349731 52.2793 0.0349731C52.8941 0.0349731 53.4728 0.247458 53.9067 0.707842C54.3769 1.16823 54.5938 1.69944 54.5938 2.30148V23.9395L67.9022 12.3237C68.2638 11.9695 68.7701 11.7925 69.3488 11.7925C70.072 11.7925 70.6145 12.0404 71.0846 12.5716C71.4463 12.9611 71.6271 13.4569 71.6271 14.059C71.6271 14.7673 71.374 15.2985 70.8315 15.7589L62.9839 22.4876L71.9526 35.1658C72.278 35.52 72.4227 35.9449 72.4227 36.3699Z" fill="#8B39B2"/>
<path d="M75.8242 36.8673C75.0648 36.4423 74.7031 35.8403 74.7031 35.0612C74.7031 34.53 74.9201 34.0342 75.3179 33.68C75.7157 33.2905 76.222 33.1134 76.7645 33.1134C77.0899 33.1134 77.3793 33.1842 77.5962 33.2905C79.8384 34.3529 82.0806 34.8841 84.3589 34.8841C85.9501 34.8841 87.2882 34.53 88.337 33.8571C89.3857 33.1842 89.9282 32.3343 89.9282 31.2719C89.9282 30.2803 89.458 29.5366 88.4816 29.0762C87.5052 28.5804 86.0225 28.0492 83.9611 27.518C82.0444 27.0222 80.4532 26.491 79.2236 26.0306C77.9941 25.5348 76.9453 24.7911 76.0774 23.7641C75.2094 22.7371 74.7755 21.4267 74.7755 19.7623C74.7755 17.3187 75.6434 15.3709 77.3793 13.8481C79.1151 12.3607 81.4296 11.617 84.2504 11.617C85.6608 11.617 87.1435 11.8295 88.6624 12.219C90.1813 12.6086 91.5556 13.1398 92.7851 13.8127C93.1106 13.9898 93.3999 14.2377 93.5807 14.5918C93.7977 14.9105 93.8701 15.2647 93.8701 15.6188C93.8701 16.15 93.6531 16.6458 93.2553 17C92.8575 17.3895 92.3512 17.5666 91.8087 17.5666C91.4832 17.5666 91.1939 17.4958 90.9046 17.3541C89.8197 16.8229 88.7348 16.3979 87.5775 16.0792C86.4564 15.7605 85.4077 15.6188 84.4674 15.6188C82.9485 15.6188 81.6828 16.0084 80.7425 16.7521C79.7661 17.4958 79.296 18.4519 79.296 19.6206C79.296 20.3997 79.5491 21.0018 80.0916 21.4976C80.634 21.9934 81.285 22.3829 82.0806 22.6308C82.8762 22.9141 83.9973 23.2329 85.48 23.6578C87.3244 24.1182 88.8794 24.614 90.0728 25.0744C91.2662 25.5348 92.315 26.2785 93.1829 27.2347C94.0509 28.1908 94.4487 29.4657 94.4487 31.0948C94.4487 33.5384 93.4723 35.4507 91.5194 36.8673C89.5665 38.2839 87.2159 38.9567 84.3951 38.9567C81.3935 38.8859 78.5003 38.213 75.8242 36.8673Z" fill="#8B39B2"/>
<path d="M117.05 37.3267C116.761 37.6809 116.399 37.9288 115.965 38.0704C114.338 38.5662 112.819 38.8495 111.408 38.8495C108.732 38.8495 106.635 37.9996 105.152 36.3351C104.139 35.3435 103.452 34.2103 103.055 32.8999C102.657 31.5896 102.476 29.996 102.476 28.1544V16.6094H98.5341C97.9555 16.6094 97.4492 16.3969 97.0152 16.0074C96.6174 15.6178 96.4004 15.122 96.4004 14.52C96.4004 13.918 96.6174 13.4576 97.0152 13.0326C97.413 12.643 97.9193 12.4306 98.5341 12.4306H102.476V6.0206C102.476 5.41856 102.693 4.85193 103.163 4.42696C103.633 3.96657 104.176 3.75409 104.79 3.75409C105.405 3.75409 105.984 3.96657 106.418 4.42696C106.888 4.88734 107.105 5.41856 107.105 6.0206V12.466H114.229C114.808 12.466 115.314 12.6785 115.748 13.068C116.146 13.4576 116.363 13.9534 116.363 14.5554C116.363 15.1575 116.146 15.6178 115.748 16.0428C115.35 16.4324 114.844 16.6448 114.229 16.6448H107.105V28.8273C107.105 30.0314 107.213 31.023 107.43 31.8021C107.647 32.5812 108.009 33.2187 108.552 33.7499C109.311 34.4936 110.287 34.8477 111.553 34.8477C112.457 34.8477 113.542 34.6707 114.844 34.3165C114.953 34.2811 115.133 34.2457 115.387 34.2457C115.929 34.2457 116.435 34.4228 116.797 34.8123C117.195 35.2019 117.376 35.6623 117.376 36.2643C117.484 36.6184 117.339 36.9726 117.05 37.3267Z" fill="#8B39B2"/>
<path d="M171.188 12.2175C171.658 12.6424 171.875 13.1737 171.875 13.8111C171.875 14.4131 171.658 14.9444 171.188 15.4047C170.717 15.8297 170.175 16.0776 169.56 16.0776C166.956 16.0776 164.895 16.8567 163.376 18.3795C161.857 19.9023 161.098 22.098 161.098 25.002V36.3699C161.098 36.972 160.881 37.5032 160.411 37.9636C159.94 38.3885 159.398 38.6364 158.783 38.6364C158.168 38.6364 157.626 38.424 157.156 37.9636C156.722 37.5386 156.469 37.0074 156.469 36.3699V14.1298C156.469 13.5278 156.686 12.9966 157.156 12.5362C157.59 12.1112 158.132 11.8633 158.783 11.8633C159.398 11.8633 159.977 12.0758 160.411 12.5362C160.881 12.9612 161.098 13.4924 161.098 14.1298V15.8297C162.038 14.5194 163.231 13.4924 164.678 12.7487C166.161 12.005 167.788 11.6154 169.56 11.58C170.175 11.58 170.754 11.7925 171.188 12.2175Z" fill="#8B39B2"/>
</svg>
