<svg width="104" height="24" viewBox="0 0 104 24" fill="none" xmlns="http://www.w3.org/2000/svg">
<path d="M91.6345 12.0242C91.1137 11.1105 89.9203 10.7918 89.009 11.3017C88.8137 11.408 84.8863 13.6603 84.7344 18.9937C85.7325 19.2699 86.774 19.6949 87.8806 20.3324C88.6618 20.7786 89.009 21.6923 88.7486 22.521C88.7052 22.6484 88.6401 22.7972 88.575 22.9247C88.0542 23.7959 86.9259 24.1146 86.0146 23.6471C86.2967 23.8171 86.6221 23.9021 86.9693 23.9021C87.1212 23.9021 87.2731 23.8809 87.4033 23.8596C88.4448 23.6259 89.0958 22.6059 88.8354 21.586C87.6637 16.6776 90.5495 14.8077 90.8967 14.5953C91.8298 14.064 92.1552 12.9379 91.6345 12.0242Z" fill="#91CA74"/>
<path d="M88.5523 22.9246C88.6391 22.7971 88.6825 22.6696 88.7259 22.5209C88.9862 21.6922 88.6391 20.7785 87.8579 20.3323C86.7513 19.6949 85.6881 19.2699 84.7117 18.9937C84.69 20.0348 84.7985 21.1822 85.1022 22.4359C85.2324 22.9671 85.5796 23.3921 86.0136 23.6471C86.9032 24.1145 88.0315 23.8171 88.5523 22.9246Z" fill="#91CA74"/>
<path d="M91.7869 13.5543C91.5048 14.3617 90.7019 14.9142 89.7906 14.8504C81.5886 14.1492 80.265 7.98718 80.1999 7.7322C79.9829 6.71227 80.6773 5.71359 81.7188 5.5011C82.7603 5.30987 83.7801 5.94732 83.9754 6.96725C84.0622 7.34972 84.9953 10.622 90.1161 11.0682C91.1793 11.1532 91.9604 12.0881 91.8737 13.1293C91.852 13.2568 91.8303 13.4055 91.7869 13.5543Z" fill="#B0E3F9"/>
<path d="M72.3662 13.4905C72.6265 14.2979 73.4511 14.8716 74.3624 14.7866C82.5644 14.1279 83.9314 7.96586 83.9965 7.71088C84.2135 6.69095 83.5408 5.69227 82.4776 5.47979C81.4361 5.2673 80.4163 5.92601 80.1993 6.94594C80.1125 7.32841 79.1795 10.6007 74.0369 11.0256C72.9737 11.1106 72.1709 12.0243 72.2794 13.0655C72.2794 13.2142 72.3011 13.363 72.3662 13.4905Z" fill="#EE3197"/>
<path d="M77.1832 23.9236C78.0512 23.9236 78.854 23.3286 79.071 22.4575C80.9587 14.5743 75.4039 11.4082 75.1653 11.2807C74.2322 10.7708 73.0605 11.0895 72.5181 12.0032C71.9973 12.9169 72.3228 14.0643 73.2341 14.5743C73.5813 14.7868 76.4672 16.6779 75.2955 21.5863C75.0568 22.6062 75.686 23.6261 76.7276 23.8599C76.8794 23.9024 77.0313 23.9236 77.1832 23.9236Z" fill="#F58634"/>
<path d="M85.0807 22.4583C84.7769 21.1834 84.6684 20.036 84.6901 19.0161C79.374 17.5287 75.9891 20.5885 75.8155 20.7372C75.0343 21.4597 75.0126 22.6496 75.7504 23.4145C76.4881 24.1582 77.7032 24.2007 78.4627 23.4995C78.7665 23.2233 81.4571 21.0772 85.8836 23.627C85.9053 23.6483 85.9486 23.6483 85.9703 23.6695C85.5581 23.4145 85.2109 22.9896 85.0807 22.4583Z" fill="#F2C94C"/>
<path d="M1.41227 22.7146C1.13019 22.4384 1 22.1197 1 21.7585V1.38115C1 1.01993 1.13019 0.679952 1.41227 0.42497C1.69435 0.127491 2.01983 0 2.4104 0C2.77927 0 3.10475 0.127491 3.38683 0.403721C3.64721 0.679952 3.7991 0.998679 3.7991 1.3599V21.7372C3.7991 22.0984 3.66891 22.4384 3.38683 22.6934C3.12644 22.9696 2.80097 23.0971 2.4104 23.0971C2.01983 23.1396 1.69435 22.9909 1.41227 22.7146Z" fill="#8B39B2"/>
<path d="M7.1182 4.61149C6.79273 4.29276 6.61914 3.88904 6.61914 3.37908C6.61914 2.86912 6.79273 2.46539 7.1182 2.14667C7.44368 1.82794 7.85595 1.6792 8.33332 1.6792C8.83238 1.6792 9.24465 1.82794 9.57013 2.14667C9.8956 2.46539 10.0692 2.86912 10.0692 3.37908C10.0692 3.88904 9.8956 4.29276 9.57013 4.61149C9.24465 4.93022 8.83238 5.07896 8.33332 5.07896C7.85595 5.07896 7.46538 4.93022 7.1182 4.61149ZM7.35689 22.7152C7.09651 22.439 6.94462 22.1203 6.94462 21.759V8.47872C6.94462 8.11749 7.07481 7.79877 7.35689 7.52254C7.61727 7.26756 7.94274 7.11882 8.33332 7.11882C8.70219 7.11882 9.04936 7.24631 9.30974 7.52254C9.59182 7.77752 9.72201 8.09625 9.72201 8.47872V21.7378C9.72201 22.099 9.59182 22.439 9.30974 22.694C9.02766 22.9702 8.70219 23.0977 8.33332 23.0977C7.94274 23.1402 7.61727 22.9914 7.35689 22.7152Z" fill="#8B39B2"/>
<path d="M24.2604 7.7342C25.2368 8.26541 25.9963 9.03036 26.5604 10.029C27.1246 11.0277 27.4066 12.2176 27.4066 13.5988V21.7795C27.4066 22.1407 27.2765 22.4594 26.9944 22.7356C26.734 22.9906 26.4085 23.1394 26.018 23.1394C25.6491 23.1394 25.3236 23.0119 25.0415 22.7356C24.7811 22.4807 24.6293 22.1619 24.6293 21.7795V13.8538C24.6293 12.4939 24.1953 11.4314 23.349 10.624C22.5028 9.81655 21.4613 9.43408 20.2028 9.43408C18.9226 9.43408 17.8593 9.8803 16.9914 10.7515C16.1235 11.6227 15.6895 12.7276 15.6895 14.0238V21.7795C15.6895 22.1407 15.5593 22.4594 15.2772 22.7356C14.9952 22.9906 14.6697 23.1394 14.3008 23.1394C13.9319 23.1394 13.6065 23.0119 13.3244 22.7356C13.064 22.4807 12.9121 22.1619 12.9121 21.7795V8.4779C12.9121 8.11667 13.0423 7.79795 13.3244 7.52172C13.5848 7.26673 13.9102 7.11799 14.3008 7.11799C14.6697 7.11799 15.0169 7.24549 15.2772 7.52172C15.5593 7.7767 15.6895 8.09543 15.6895 8.4779V9.49783C16.2754 8.69038 17.0131 8.05293 17.9244 7.60671C18.8358 7.16049 19.8556 6.92676 20.9622 6.92676C22.199 6.94801 23.3056 7.20299 24.2604 7.7342Z" fill="#8B39B2"/>
<path d="M43.8536 21.822C43.8536 22.3107 43.6583 22.6719 43.2895 22.9269C43.0508 23.0756 42.7687 23.1606 42.4866 23.1606C42.0093 23.1606 41.6404 22.9694 41.38 22.6082L36.129 15.2137L33.1563 17.7635V21.7582C33.1563 22.1194 33.0261 22.4594 32.744 22.7144C32.462 22.9906 32.1365 23.1181 31.7676 23.1181C31.3987 23.1181 31.0733 22.9906 30.7912 22.7144C30.5308 22.4382 30.3789 22.1194 30.3789 21.7582V1.3809C30.3789 1.01968 30.5091 0.6797 30.7912 0.424718C31.0516 0.148487 31.377 0.0209961 31.7676 0.0209961C32.1365 0.0209961 32.4837 0.148487 32.744 0.424718C33.0261 0.700948 33.1563 1.01968 33.1563 1.3809V14.3637L41.1413 7.39423C41.3583 7.18174 41.6621 7.0755 42.0093 7.0755C42.4432 7.0755 42.7687 7.22424 43.0508 7.54296C43.2678 7.7767 43.3763 8.07418 43.3763 8.4354C43.3763 8.86037 43.2244 9.1791 42.8989 9.45533L38.1903 13.4925L43.5715 21.0995C43.7668 21.312 43.8536 21.567 43.8536 21.822Z" fill="#8B39B2"/>
<path d="M45.8934 22.1204C45.4377 21.8654 45.2207 21.5042 45.2207 21.0367C45.2207 20.718 45.3509 20.4205 45.5896 20.208C45.8283 19.9743 46.132 19.8681 46.4575 19.8681C46.6528 19.8681 46.8264 19.9106 46.9566 19.9743C48.3019 20.6117 49.6472 20.9305 51.0142 20.9305C51.9689 20.9305 52.7718 20.718 53.401 20.3143C54.0303 19.9105 54.3557 19.4006 54.3557 18.7631C54.3557 18.1682 54.0737 17.722 53.4878 17.4457C52.9019 17.1482 52.0123 16.8295 50.7755 16.5108C49.6255 16.2133 48.6708 15.8946 47.933 15.6184C47.1953 15.3209 46.566 14.8747 46.0452 14.2584C45.5245 13.6422 45.2641 12.856 45.2641 11.8574C45.2641 10.3912 45.7849 9.22256 46.8264 8.30887C47.8679 7.41643 49.2566 6.97021 50.9491 6.97021C51.7953 6.97021 52.685 7.09771 53.5963 7.33144C54.5076 7.56517 55.3322 7.8839 56.0699 8.28762C56.2652 8.39386 56.4388 8.5426 56.5473 8.75509C56.6775 8.94633 56.7209 9.15881 56.7209 9.37129C56.7209 9.69002 56.5907 9.9875 56.352 10.2C56.1133 10.4337 55.8095 10.54 55.4841 10.54C55.2888 10.54 55.1152 10.4975 54.9416 10.4125C54.2906 10.0937 53.6397 9.83876 52.9453 9.64753C52.2727 9.45629 51.6434 9.37129 51.0793 9.37129C50.1679 9.37129 49.4085 9.60503 48.8443 10.0512C48.2585 10.4975 47.9764 11.0712 47.9764 11.7724C47.9764 12.2398 48.1283 12.6011 48.4538 12.8985C48.7792 13.196 49.1698 13.4298 49.6472 13.5785C50.1245 13.7485 50.7972 13.9397 51.6868 14.1947C52.7935 14.4709 53.7265 14.7684 54.4425 15.0446C55.1586 15.3209 55.7878 15.7671 56.3086 16.3408C56.8294 16.9145 57.068 17.6795 57.068 18.6569C57.068 20.123 56.4822 21.2705 55.3105 22.1204C54.1388 22.9703 52.7284 23.3741 51.0359 23.3741C49.2349 23.3316 47.499 22.9278 45.8934 22.1204Z" fill="#8B39B2"/>
<path d="M70.63 22.396C70.4564 22.6085 70.2395 22.7572 69.9791 22.8422C69.0027 23.1397 68.0913 23.3097 67.2451 23.3097C65.6394 23.3097 64.3809 22.7997 63.4913 21.8011C62.8837 21.2061 62.4714 20.5261 62.2327 19.74C61.9941 18.9538 61.8856 17.9976 61.8856 16.8927V9.96565H59.5204C59.1733 9.96565 58.8695 9.83815 58.6091 9.60442C58.3704 9.37069 58.2402 9.07321 58.2402 8.71198C58.2402 8.35076 58.3704 8.07453 58.6091 7.81955C58.8478 7.58581 59.1516 7.45832 59.5204 7.45832H61.8856V3.61235C61.8856 3.25112 62.0158 2.91114 62.2978 2.65616C62.5799 2.37993 62.9054 2.25244 63.2743 2.25244C63.6431 2.25244 63.9903 2.37993 64.2507 2.65616C64.5328 2.93239 64.663 3.25112 64.663 3.61235V7.47957H68.9376C69.2847 7.47957 69.5885 7.60706 69.8489 7.8408C70.0876 8.07453 70.2178 8.37201 70.2178 8.73323C70.2178 9.09446 70.0876 9.37069 69.8489 9.62567C69.6102 9.8594 69.3064 9.98689 68.9376 9.98689H64.663V17.2964C64.663 18.0188 64.7281 18.6138 64.8583 19.0813C64.9884 19.5487 65.2054 19.9312 65.5309 20.2499C65.9866 20.6961 66.5724 20.9086 67.3319 20.9086C67.8743 20.9086 68.5253 20.8024 69.3064 20.5899C69.3715 20.5686 69.48 20.5474 69.6319 20.5474C69.9574 20.5474 70.2612 20.6536 70.4781 20.8874C70.7168 21.1211 70.8253 21.3973 70.8253 21.7586C70.8904 21.971 70.8036 22.1835 70.63 22.396Z" fill="#8B39B2"/>
<path d="M103.113 7.33071C103.395 7.5857 103.525 7.90442 103.525 8.2869C103.525 8.64812 103.395 8.96685 103.113 9.24308C102.83 9.49806 102.505 9.6468 102.136 9.6468C100.574 9.6468 99.337 10.1143 98.4256 11.028C97.5143 11.9416 97.0587 13.259 97.0587 15.0014V21.8222C97.0587 22.1834 96.9285 22.5021 96.6464 22.7784C96.3643 23.0334 96.0388 23.1821 95.6699 23.1821C95.3011 23.1821 94.9756 23.0546 94.6935 22.7784C94.4331 22.5234 94.2812 22.2047 94.2812 21.8222V8.47813C94.2812 8.11691 94.4114 7.79818 94.6935 7.52195C94.9539 7.26697 95.2794 7.11823 95.6699 7.11823C96.0388 7.11823 96.386 7.24572 96.6464 7.52195C96.9285 7.77693 97.0587 8.09566 97.0587 8.47813V9.49806C97.6228 8.71187 98.3389 8.09566 99.2068 7.64944C100.096 7.20322 101.073 6.96949 102.136 6.94824C102.505 6.94824 102.852 7.07573 103.113 7.33071Z" fill="#8B39B2"/>
</svg>
