<svg width="64" height="64" viewBox="0 0 64 64" fill="none" xmlns="http://www.w3.org/2000/svg">
<path d="M21.1218 47.0027C19.4322 48.5593 19.7803 55.9632 19.9271 57.7758C20.1148 60.056 8.64992 59.2777 8.86152 57.6734C9.01168 56.5332 8.64648 47.8322 8.64648 47.4192" fill="url(#paint0_linear_12495_74660)"/>
<path d="M21.2163 46.914C21.1822 46.9414 21.1446 46.9686 21.1071 46.9994L20.3186 46.8218C19.8441 47.2281 19.4447 47.6923 19.2228 48.2555C18.5128 48.6378 17.7482 48.7095 17.185 48.9929C14.8262 50.1774 19.4686 49.1498 19.3492 50.843C18.9464 53.0993 19.554 57.7758 19.9294 57.7758C19.7792 55.9598 19.4311 48.5559 21.1241 47.0028C21.1548 46.9721 21.1856 46.9447 21.2163 46.914Z" fill="url(#paint1_linear_12495_74660)"/>
<path d="M8.86106 57.6732C8.79274 58.1852 9.91922 58.6119 11.469 58.885C10.4449 57.605 10.5712 50.3102 10.9296 49.4364C11.2266 48.7094 10.619 47.3166 9.8373 46.2926L8.64258 47.419C8.64602 47.8321 9.01122 56.5331 8.86106 57.6732Z" fill="url(#paint2_linear_12495_74660)"/>
<path d="M9.66665 48.3951C9.31505 48.2176 8.98057 48.0128 8.65625 47.7875C8.71433 49.5284 8.99761 56.649 8.86105 57.673C8.82697 57.9256 9.10001 58.1578 9.58129 58.3591C9.74177 56.806 9.02833 52.0987 9.28097 51.4366C9.95681 49.6513 11.2266 49.6752 10.9535 48.972C10.5883 48.914 10.107 48.7228 9.66665 48.3951Z" fill="url(#paint3_linear_12495_74660)"/>
<path d="M8.86152 57.6733C9.01168 56.5332 8.64648 47.8322 8.64648 47.4191C10.8855 50.3616 16.705 49.5083 19.4766 48.1189C19.8657 47.9243 20.1831 47.8049 20.4562 47.74C19.5414 48.9928 19.8042 56.2567 19.9305 57.7791C20.1182 60.0559 8.65328 59.2777 8.86152 57.6733Z" fill="url(#paint4_linear_12495_74660)"/>
<path d="M31.3352 34.4616C31.8301 32.9972 28.6524 31.0652 25.8057 33.7789C25.4781 34.1202 25.1505 34.506 24.8398 34.9531C24.0787 36.0421 23.0479 36.9296 22.0171 36.0421C20.9863 35.1546 20.9829 31.9595 21.1604 30.2493L17.4981 29.8226C17.5458 30.5019 17.5663 31.9083 17.324 31.9288C17.0782 31.9458 16.8768 31.3554 16.8359 30.775C16.7949 30.1947 13.2008 32.8573 12.9857 32.9631C12.8219 33.0416 11.7707 32.6218 10.5044 33.1747C10.0811 33.359 8.62366 34.9873 8.5179 34.9975C8.5179 34.9975 8.61687 32.7582 8.54863 31.6626C8.48031 30.5668 4.70875 34.5845 4.91013 35.7622C5.25828 37.7762 4.68486 44.4256 8.03319 47.3169C11.9106 50.6621 18.9896 49.7165 21.5529 46.7468C24.1128 43.777 24.676 41.2613 26.6181 38.609C28.2598 36.3663 30.6149 35.653 31.3352 34.4616Z" fill="url(#paint5_linear_12495_74660)"/>
<path d="M8.54586 31.6623C8.47754 30.5666 8.47754 27.607 8.29666 25.9993C8.1157 24.3915 7.32379 23.6166 5.99935 23.8726C4.67492 24.1287 4.85583 27.078 4.85583 27.7948C4.85583 28.8906 4.70564 34.591 4.91045 35.7687" fill="url(#paint6_linear_12495_74660)"/>
<path d="M12.9839 32.9664C12.4035 33.0278 12.5196 32.014 12.4616 30.1229C12.4172 28.6756 12.3899 24.7296 12.2978 22.6508C12.1851 20.0702 11.6867 19.3806 10.4476 19.268C9.20858 19.1554 8.65218 20.6812 8.6829 22.3777C8.70674 23.8114 8.84331 26.0779 9.06179 28.9077C9.19147 30.6042 8.94227 34.9666 8.51562 34.9974" fill="url(#paint7_linear_12495_74660)"/>
<path d="M21.1648 30.2523C21.3423 28.5422 21.2775 22.5378 21.3799 20.9266C21.4823 19.3154 20.5094 18.5542 19.4683 18.4996C18.4272 18.445 17.666 19.1823 17.5977 22.374C17.5533 24.3879 17.3246 26.2278 17.5021 29.8222L19.936 32.1468L21.1648 30.2523Z" fill="url(#paint8_linear_12495_74660)"/>
<path d="M16.8348 30.7782C16.7938 30.198 16.8553 24.5623 16.8348 23.3232C16.7938 20.7358 17.2205 16.875 14.8993 16.6498C13.4042 16.5064 13.0868 17.8923 13.0185 18.5033C12.9502 19.1143 13.0936 26.0164 13.138 26.6411C13.1824 27.2658 13.1994 32.8605 12.9844 32.963" fill="url(#paint9_linear_12495_74660)"/>
<path d="M18.2152 19.1349C17.8431 19.7254 17.6281 20.7836 17.5939 22.3777C17.5495 24.3916 17.3481 26.2315 17.4983 29.8259C17.5257 30.5086 17.5666 31.9116 17.3242 31.9321C18.6692 31.0275 17.9693 25.7468 17.9386 23.2993C17.9011 20.6948 18.495 18.6911 18.2152 19.1349Z" fill="url(#paint10_linear_12495_74660)"/>
<path d="M13.138 26.6408C13.1824 27.2654 13.1994 32.8602 12.9844 32.9626C12.9844 32.9626 13.865 31.983 13.7319 30.1738C13.4589 26.4667 13.353 22.507 13.5749 20.4043C13.7831 18.4245 13.4247 17.2502 13.2779 17.5472C13.1312 17.8408 13.0458 18.2675 13.0185 18.503C12.9502 19.114 13.0936 26.0195 13.138 26.6408Z" fill="url(#paint11_linear_12495_74660)"/>
<path d="M8.679 22.3778C8.70284 23.8114 8.8394 26.078 9.05788 28.9078C9.18756 30.6042 8.93836 34.9667 8.51172 34.9974C10.7203 35.0247 8.4434 21.5994 9.6382 19.466C8.96572 19.9302 8.65852 21.1045 8.679 22.3778Z" fill="url(#paint12_linear_12495_74660)"/>
<path d="M8.06461 34.9873C8.22845 35.0454 8.44005 35.0419 8.51517 34.9975C8.51517 34.9975 8.60733 32.6695 8.54589 31.6626C8.47765 30.5668 8.47765 27.6073 8.29669 25.9995C8.21821 25.293 8.02021 24.7468 7.70957 24.3782C7.89049 25.1632 7.55938 25.0506 7.81198 26.9553C7.94511 27.9759 7.0064 34.6152 8.06461 34.9873Z" fill="url(#paint13_linear_12495_74660)"/>
<path d="M11.9881 27.2657C12.1213 29.01 11.6536 32.7922 12.7971 32.9629C12.5343 32.857 12.5104 31.594 12.4626 30.1228C12.4182 28.6755 12.408 24.7295 12.2988 22.6506C12.1861 20.4455 11.9233 19.8447 11.1211 19.4215C12.5172 21.7393 11.6605 22.9852 11.9881 27.2657Z" fill="url(#paint14_linear_12495_74660)"/>
<path d="M16.2258 24.3199C16.3078 26.9381 15.7991 31.5462 17.2465 31.9115C17.0382 31.8194 16.871 31.2937 16.8334 30.7748C16.789 30.1946 16.8539 24.5588 16.8334 23.3198C16.8095 21.7154 17.0075 19.1689 16.3385 17.725C16.6934 19.5581 16.1575 22.2001 16.2258 24.3199Z" fill="url(#paint15_linear_12495_74660)"/>
<path d="M21.2568 34.4236C21.2568 34.4236 21.2603 34.4236 21.2568 34.4236C21.0725 33.3688 21.052 31.29 21.1612 30.2523C21.3387 28.5422 21.2739 22.5378 21.3763 20.9266C21.407 20.435 21.3387 20.0254 21.1988 19.6875C21.1544 20.4317 20.8028 21.2714 20.895 22.7187C21.0383 25.0433 20.6936 28.7538 20.5741 30.0304C20.4547 31.3037 19.929 34.5226 21.2568 34.4236Z" fill="url(#paint16_linear_12495_74660)"/>
<path d="M15.0184 49.4192C15.4962 47.9821 15.4177 46.7908 13.974 46.603C10.0385 46.091 6.92569 43.0803 5.83347 37.0316C4.85729 31.6348 4.95627 26.7842 5.84029 23.9203C4.68663 24.3709 4.85388 27.1086 4.85388 27.7946C4.85388 28.8904 4.70369 34.5909 4.90849 35.7686C5.25664 37.7826 4.68321 44.4321 8.03158 47.3233C9.90542 48.9345 12.5233 49.5489 15.0184 49.4192Z" fill="url(#paint17_radial_12495_74660)"/>
<path d="M5.16293 30.9147C5.16975 30.8942 5.17317 30.884 5.17317 30.884C6.35424 39.0354 7.14617 43.5344 11.3584 48.4942C11.9524 49.194 10.6894 49.1565 9.66538 48.3953C9.07818 48.1017 8.52866 47.7467 8.0337 47.3166C4.68163 44.4254 5.25509 37.7758 4.91033 35.7619C4.8011 35.1441 5.23461 32.3518 5.16293 30.9147Z" fill="url(#paint18_radial_12495_74660)"/>
<path opacity="0.75" d="M23.9128 39.6979C24.5136 40.4182 22.4962 43.463 20.9669 44.7362C19.4376 46.0094 17.7104 46.4566 17.1096 45.7364C16.5088 45.0162 17.8708 43.207 19.0588 41.6094C21.1068 38.8514 23.312 38.9777 23.9128 39.6979Z" fill="url(#paint19_radial_12495_74660)"/>
<path opacity="0.75" d="M6.86362 39.0152C6.19798 39.8174 8.22216 44.429 10.2191 45.593C12.216 46.757 14.7181 46.3986 15.2062 45.4735C15.6943 44.5485 13.619 43.1148 11.919 41.5241C8.99024 38.783 7.52925 38.213 6.86362 39.0152Z" fill="url(#paint20_radial_12495_74660)"/>
<path d="M8.51654 34.9975C8.51654 34.9975 8.6087 32.6695 8.54726 31.6626C8.47894 30.5668 8.47894 27.6073 8.29806 25.9995C8.21958 25.293 8.02158 24.7468 7.71094 24.3782C7.89185 25.1632 8.18198 26.6822 8.14102 29.8568C7.99426 35.4413 8.44486 35.0419 8.51654 34.9975Z" fill="url(#paint21_linear_12495_74660)"/>
<path d="M31.3369 34.4614C31.4222 34.2122 31.3915 33.9494 31.2823 33.7002C30.9137 34.7106 29.8146 35.6732 27.9817 36.2091C25.8007 36.8474 23.7528 39.5031 22.6947 42.2237C21.64 44.9477 18.2268 47.0128 15.9365 46.6202C13.6429 46.2277 8.19198 48.4977 6.35227 39.0321C6.35227 39.0286 6.35227 39.0286 6.35227 39.0252C6.28401 38.3971 6.18503 37.81 6.02119 37.2912C4.89484 33.7002 5.64574 28.8222 5.73107 26.7878C5.74813 26.3885 6.03143 25.0742 5.15424 24.7226C4.76855 25.7228 4.85388 27.293 4.85388 27.788C4.85388 28.8837 4.70369 34.5842 4.90849 35.7619C4.9358 35.9155 4.94262 36.3832 4.95969 36.5743C4.9631 36.6255 4.96993 36.6767 4.97334 36.7279C4.97334 36.7416 4.97675 36.7553 4.97675 36.7689C4.98017 36.803 4.98017 36.8372 4.98358 36.8713C4.98358 36.8782 4.98358 36.8884 4.98358 36.8952C5.06891 38.2367 4.89142 44.5039 8.03158 47.3166C11.8475 50.7335 18.988 49.7163 21.5513 46.7466C24.1112 43.7768 24.6744 41.2611 26.6165 38.6088C28.2617 36.3661 30.6168 35.6527 31.3369 34.4614Z" fill="url(#paint22_radial_12495_74660)"/>
<path d="M25.8076 33.7821C25.48 34.1234 25.1523 34.5092 24.8417 34.9563C24.0805 36.0453 23.0497 36.9328 22.0189 36.0453C21.6128 35.6937 21.3773 35.1099 21.2578 34.4238C21.3397 37.9842 23.1726 37.281 24.3809 36.0418C25.5925 34.8062 26.5278 32.6898 29.1935 32.6727C29.6748 32.6693 30.1424 32.7717 30.4905 32.8502C29.4188 32.1982 27.5552 32.1163 25.8076 33.7821Z" fill="url(#paint23_linear_12495_74660)"/>
<path d="M21.5503 46.7499C24.1102 43.7802 24.6733 41.2644 26.6155 38.6122C28.2606 36.3661 30.6123 35.6526 31.3359 34.4647C31.4212 34.2155 31.3905 33.9527 31.2813 33.7035C30.9127 34.7139 29.4894 35.0416 27.9807 36.2125C25.8031 37.909 23.7518 40.2916 22.6937 43.0156C21.639 45.7395 18.2258 47.0196 15.9355 46.627L21.5503 46.7499Z" fill="url(#paint24_linear_12495_74660)"/>
<path d="M28.1351 5.15963C28.1453 5.05723 28.1043 4.95483 28.0293 4.88655C27.9542 4.81828 27.8483 4.78757 27.7494 4.80463L26.285 5.05723C26.1894 5.0743 26.1075 5.13233 26.0563 5.21426C26.0051 5.29618 25.9983 5.39858 26.0255 5.49075C27.1963 9.4504 27.961 11.2732 27.961 11.2494C28.1624 9.41624 28.1351 5.19377 28.1351 5.15963Z" fill="#975500"/>
<path d="M19.1815 10.4606C19.1473 10.3753 19.0791 10.307 18.9903 10.2763C18.905 10.2456 18.8094 10.249 18.7275 10.2899L17.3996 10.9556C17.2938 11.0102 17.2221 11.116 17.2153 11.2355C17.2084 11.355 17.2801 11.4506 17.3689 11.5325C19.9187 13.9287 20.3318 15.0382 20.3625 15.0279C20.5093 14.987 20.4615 13.5771 19.1815 10.4606Z" fill="#975500"/>
<path d="M42.8789 47.0023C44.5684 48.5589 44.2203 55.9628 44.0735 57.7754C43.8858 60.0556 55.3507 59.2773 55.1391 57.673C54.9889 56.5329 55.3541 47.8318 55.3541 47.4188" fill="url(#paint25_linear_12495_74660)"/>
<path d="M42.7832 46.9136C42.8173 46.941 42.8549 46.9682 42.8924 46.999L43.681 46.8215C44.1554 47.2277 44.5548 47.6919 44.7766 48.2551C45.4866 48.6374 46.2513 48.7091 46.8146 48.9925C49.1733 50.177 44.5309 49.1495 44.6504 50.8426C45.0532 53.0989 44.4455 57.7754 44.0701 57.7754C44.2202 55.9594 44.5685 48.5555 42.8754 47.0024C42.8446 46.9717 42.8173 46.9444 42.7832 46.9136Z" fill="url(#paint26_linear_12495_74660)"/>
<path d="M55.1411 57.6728C55.2094 58.1848 54.0829 58.6115 52.5332 58.8846C53.5572 57.6046 53.431 50.3098 53.0725 49.436C52.7755 48.709 53.3831 47.3162 54.1648 46.2922L55.3596 47.4186C55.3562 47.8317 54.9909 56.5327 55.1411 57.6728Z" fill="url(#paint27_linear_12495_74660)"/>
<path d="M54.3345 48.3951C54.6861 48.2176 55.0207 48.0128 55.3449 47.7875C55.2869 49.5284 55.0036 56.649 55.1401 57.673C55.1743 57.9256 54.9012 58.1578 54.4199 58.3591C54.2595 56.806 54.9728 52.0987 54.7203 51.4366C54.0444 49.6513 52.7746 49.6752 53.0476 48.972C53.4129 48.914 53.8942 48.7228 54.3345 48.3951Z" fill="url(#paint28_linear_12495_74660)"/>
<path d="M55.1396 57.6733C54.9894 56.5332 55.3546 47.8322 55.3546 47.4191C53.1156 50.3616 47.296 49.5083 44.5245 48.1189C44.1354 47.9243 43.818 47.8049 43.5449 47.74C44.4596 48.9928 44.1968 56.2567 44.0705 57.7791C43.8828 60.0559 55.3478 59.2777 55.1396 57.6733Z" fill="url(#paint29_linear_12495_74660)"/>
<path d="M32.6646 34.4611C32.1696 32.9967 35.3473 31.0646 38.194 33.7784C38.5216 34.1198 38.8493 34.5055 39.1599 34.9526C39.9211 36.0416 40.9518 36.929 41.9826 36.0415C43.0134 35.1541 43.0168 31.959 42.8393 30.2489L46.5052 29.8187C46.4573 30.498 46.4368 31.9044 46.6792 31.9249C46.9249 31.9419 47.1263 31.3514 47.1672 30.7711C47.2082 30.1908 50.8024 32.8534 51.0174 32.9592C51.1812 33.0377 52.2324 32.6178 53.4988 33.1708C53.922 33.3551 55.3795 34.9834 55.4852 34.9936C55.4852 34.9936 55.3863 32.7543 55.4545 31.6586C55.5228 30.5629 59.2944 34.5806 59.093 35.7582C58.7449 37.7722 59.3183 44.4217 55.97 47.313C52.0925 50.6582 45.0136 49.7126 42.4502 46.7429C39.8904 43.7731 39.3272 41.2574 37.385 38.6051C35.7399 36.3658 33.3882 35.6524 32.6646 34.4611Z" fill="url(#paint30_linear_12495_74660)"/>
<path d="M55.4531 31.6619C55.5214 30.5662 55.5214 27.6066 55.7023 25.9989C55.8832 24.3911 56.6751 23.6162 57.9996 23.8723C59.324 24.1283 59.1431 27.0776 59.1431 27.7944C59.1431 28.8902 59.2933 34.5907 59.0885 35.7683" fill="url(#paint31_linear_12495_74660)"/>
<path d="M51.0176 32.966C51.5978 33.0274 51.4817 32.0137 51.5398 30.1226C51.5842 28.6753 51.6115 24.7293 51.7037 22.6504C51.8163 20.0698 52.3147 19.3803 53.5537 19.2677C54.7963 19.1584 55.3493 20.6809 55.3185 22.3774C55.2947 23.811 55.1581 26.0776 54.9397 28.9074C54.81 30.6039 55.0591 34.9663 55.4858 34.997" fill="url(#paint32_linear_12495_74660)"/>
<path d="M42.8392 30.2523C42.6617 28.5422 42.7266 22.5378 42.6242 20.9266C42.5251 19.3154 43.4946 18.5542 44.5357 18.4996C45.5768 18.445 46.338 19.1823 46.4063 22.374C46.4507 24.3879 46.6794 26.2278 46.5019 29.8222L44.0681 32.1468L42.8392 30.2523Z" fill="url(#paint33_linear_12495_74660)"/>
<path d="M47.167 30.7779C47.208 30.1976 47.1466 24.5619 47.167 23.3228C47.208 20.7354 46.7813 16.8747 49.1025 16.6494C50.5976 16.506 50.915 17.8919 50.9834 18.503C51.0516 19.1139 50.9082 26.0161 50.8638 26.6407C50.8195 27.2654 50.8024 32.8602 51.0174 32.9626" fill="url(#paint34_linear_12495_74660)"/>
<path d="M45.7839 19.1349C46.156 19.7254 46.3711 20.7836 46.4052 22.3777C46.4496 24.3916 46.6509 26.2315 46.5008 29.8259C46.4735 30.5086 46.4325 31.9116 46.6748 31.9321C45.33 31.0275 46.0297 25.7468 46.0605 23.2993C46.1014 20.6948 45.504 18.6911 45.7839 19.1349Z" fill="url(#paint35_linear_12495_74660)"/>
<path d="M50.8635 26.6408C50.8192 27.2654 50.802 32.8602 51.0172 32.9626C51.0172 32.9626 50.1364 31.983 50.2696 30.1738C50.5427 26.4667 50.6484 22.507 50.4266 20.4043C50.2184 18.4245 50.5768 17.2502 50.7236 17.5472C50.8704 17.8408 50.9557 18.2675 50.983 18.503C51.0512 19.114 50.9079 26.0195 50.8635 26.6408Z" fill="url(#paint36_linear_12495_74660)"/>
<path d="M55.3205 22.3774C55.2967 23.811 55.1601 26.0776 54.9416 28.9074C54.812 30.6038 55.0612 34.9663 55.4878 34.997C53.2792 35.0244 55.5561 21.599 54.3613 19.4656C55.0338 19.9298 55.341 21.1041 55.3205 22.3774Z" fill="url(#paint37_linear_12495_74660)"/>
<path d="M55.936 34.9869C55.7722 35.045 55.5605 35.0415 55.4854 34.9971C55.4854 34.9971 55.3933 32.6691 55.4547 31.6622C55.523 30.5664 55.523 27.6069 55.7039 25.9991C55.7824 25.2926 55.9804 24.7464 56.291 24.3778C56.1101 25.1629 56.4412 25.0502 56.1886 26.955C56.0554 27.9756 56.9942 34.6148 55.936 34.9869Z" fill="url(#paint38_linear_12495_74660)"/>
<path d="M52.014 27.2657C51.8809 29.01 52.3486 32.7922 51.2051 32.9629C51.4679 32.857 51.4918 31.594 51.5396 30.1228C51.584 28.6755 51.5942 24.7295 51.7034 22.6506C51.816 20.4455 52.0789 19.8447 52.8811 19.4215C51.4884 21.7393 52.3452 22.9852 52.014 27.2657Z" fill="url(#paint39_linear_12495_74660)"/>
<path d="M47.7745 24.3199C47.6926 26.9381 48.2013 31.5462 46.7539 31.9115C46.9621 31.8194 47.1294 31.2937 47.1669 30.7748C47.2113 30.1946 47.1465 24.5588 47.1669 23.3198C47.1909 21.7154 46.9929 19.1689 47.6619 17.725C47.3069 19.5581 47.8428 22.2001 47.7745 24.3199Z" fill="url(#paint40_linear_12495_74660)"/>
<path d="M42.7439 34.4236C42.9282 33.3688 42.9487 31.29 42.8395 30.2523C42.662 28.5422 42.7268 22.5378 42.6244 20.9266C42.5937 20.435 42.662 20.0254 42.802 19.6875C42.8463 20.4317 43.1979 21.2714 43.1057 22.7187C42.9624 25.0433 43.3072 28.7538 43.4266 30.0304C43.546 31.3037 44.0717 34.5226 42.7439 34.4236Z" fill="url(#paint41_linear_12495_74660)"/>
<path d="M48.9814 49.419C48.5036 47.982 48.5822 46.7907 50.0259 46.5995C53.9614 46.0875 57.0741 43.0768 58.1664 37.0281C59.1425 31.6313 59.0436 26.7807 58.1596 23.9168C59.3132 24.3674 59.146 27.105 59.146 27.7911C59.146 28.8869 59.2962 34.5874 59.0914 35.765C58.7432 37.779 59.3166 44.4286 55.9683 47.3198C54.0945 48.9343 51.4765 49.5488 48.9814 49.419Z" fill="url(#paint42_radial_12495_74660)"/>
<path d="M58.8363 30.9143C58.8295 30.8938 58.826 30.8836 58.826 30.8836C57.645 39.035 56.8531 43.5341 52.6408 48.4938C52.0468 49.1936 53.3098 49.1561 54.3339 48.3949C54.921 48.1013 55.4706 47.7463 55.9656 47.3162C59.3176 44.425 58.7441 37.7754 59.0889 35.7615C59.1981 35.1437 58.7646 32.3514 58.8363 30.9143Z" fill="url(#paint43_radial_12495_74660)"/>
<path opacity="0.75" d="M40.0911 39.6979C39.4903 40.4182 41.5076 43.463 43.0369 44.7362C44.5662 46.0094 46.2934 46.4566 46.8942 45.7364C47.4949 45.0162 46.133 43.207 44.9451 41.6094C42.8935 38.8514 40.6919 38.9777 40.0911 39.6979Z" fill="url(#paint44_radial_12495_74660)"/>
<path opacity="0.75" d="M57.1377 39.0148C57.8034 39.817 55.7791 44.4286 53.7823 45.5926C51.7854 46.7532 49.2833 46.3982 48.7951 45.4731C48.307 44.5481 50.3824 43.1144 52.0823 41.5238C55.0111 38.7826 56.4721 38.2126 57.1377 39.0148Z" fill="url(#paint45_radial_12495_74660)"/>
<path d="M55.4854 34.9971C55.4854 34.9971 55.3933 32.6691 55.4547 31.6622C55.523 30.5664 55.523 27.6069 55.7039 25.9991C55.7824 25.2926 55.9804 24.7464 56.291 24.3778C56.1101 25.1629 55.8199 26.6818 55.8609 29.8564C56.0077 35.4409 55.5605 35.0415 55.4854 34.9971Z" fill="url(#paint46_linear_12495_74660)"/>
<path d="M32.6643 34.4614C32.579 34.2122 32.6097 33.9494 32.7189 33.7002C33.0876 34.7106 34.1866 35.6732 36.0195 36.2091C38.2005 36.8474 40.2485 39.5031 41.3066 42.2237C42.3613 44.9477 45.7745 47.0128 48.0647 46.6202C50.3584 46.2277 55.8093 48.4977 57.649 39.0321C57.649 39.0286 57.649 39.0286 57.649 39.0252C57.7173 38.3971 57.8162 37.81 57.9801 37.2912C59.1065 33.7002 58.3555 28.8222 58.2702 26.7878C58.2531 26.3885 57.9698 25.0742 58.847 24.7226C59.2327 25.7228 59.1474 27.293 59.1474 27.788C59.1474 28.8837 59.2976 34.5842 59.0928 35.7619C59.0655 35.9155 59.0586 36.3832 59.0416 36.5743C59.0381 36.6255 59.0313 36.6767 59.0279 36.7279C59.0279 36.7416 59.0245 36.7553 59.0245 36.7689C59.0211 36.803 59.0211 36.8372 59.0177 36.8713C59.0177 36.8782 59.0177 36.8884 59.0177 36.8952C58.9324 38.2367 59.1098 44.5039 55.9697 47.3166C52.1538 50.7335 45.0133 49.7163 42.45 46.7466C39.8901 43.7768 39.3269 41.2611 37.3848 38.6088C35.7397 36.3661 33.3879 35.6527 32.6643 34.4614Z" fill="url(#paint47_radial_12495_74660)"/>
<path d="M38.1926 33.7817C38.5203 34.123 38.848 34.5088 39.1586 34.9559C39.9198 36.0449 40.9506 36.9324 41.9814 36.0449C42.3875 35.6933 42.623 35.1096 42.7425 34.4234C42.6606 37.9838 40.8277 37.2806 39.6194 36.0414C38.4077 34.8058 37.4725 32.6894 34.8068 32.6723C34.3255 32.6689 33.8579 32.7713 33.5098 32.8498C34.5815 32.1978 36.4486 32.1159 38.1926 33.7817Z" fill="url(#paint48_linear_12495_74660)"/>
<path d="M42.45 46.7499C39.8901 43.7802 39.3269 41.2644 37.3848 38.6122C35.7397 36.3661 33.3879 35.6526 32.6643 34.4647C32.579 34.2155 32.6097 33.9527 32.7189 33.7035C33.0876 34.7139 34.5109 35.0416 36.0195 36.2125C38.1971 37.909 40.2485 40.2916 41.3066 43.0156C42.3613 45.7395 45.7745 47.0196 48.0647 46.627L42.45 46.7499Z" fill="url(#paint49_linear_12495_74660)"/>
<path d="M35.8648 5.16002C35.8546 5.05761 35.8956 4.95521 35.9707 4.88694C36.0457 4.81867 36.1516 4.78795 36.2505 4.80502L37.7149 5.05761C37.8105 5.07468 37.8924 5.13271 37.9436 5.21463C37.9948 5.29656 38.0016 5.39896 37.9744 5.49112C36.8036 9.45423 36.0389 11.2736 36.0389 11.2497C35.8375 9.41663 35.8682 5.19415 35.8648 5.16002Z" fill="#975500"/>
<path d="M44.819 10.4614C44.853 10.3761 44.9214 10.3078 45.0101 10.277C45.0954 10.2463 45.191 10.2498 45.273 10.2907L46.6008 10.9564C46.7066 11.011 46.7783 11.1168 46.7851 11.2362C46.7919 11.3558 46.7202 11.4513 46.6315 11.5333C44.0816 13.9295 43.6686 15.0389 43.6378 15.0286C43.4911 14.9877 43.5389 13.5779 44.819 10.4614Z" fill="#975500"/>
<defs>
<linearGradient id="paint0_linear_12495_74660" x1="14.8586" y1="47.8674" x2="14.6578" y2="52.8689" gradientUnits="userSpaceOnUse">
<stop offset="0.00132565" stop-color="#F0C492"/>
<stop offset="1" stop-color="#F8DBBA"/>
</linearGradient>
<linearGradient id="paint1_linear_12495_74660" x1="12.311" y1="60.2948" x2="24.3328" y2="46.6943" gradientUnits="userSpaceOnUse">
<stop offset="0.3118" stop-color="#F0C492" stop-opacity="0"/>
<stop offset="1" stop-color="#E6AF74"/>
</linearGradient>
<linearGradient id="paint2_linear_12495_74660" x1="10.8399" y1="55.2325" x2="6.34689" y2="44.7893" gradientUnits="userSpaceOnUse">
<stop offset="0.3118" stop-color="#F0C492" stop-opacity="0"/>
<stop offset="1" stop-color="#E6AF74"/>
</linearGradient>
<linearGradient id="paint3_linear_12495_74660" x1="7.66075" y1="43.3216" x2="12.0175" y2="62.7714" gradientUnits="userSpaceOnUse">
<stop offset="0.3118" stop-color="#F0C492" stop-opacity="0"/>
<stop offset="1" stop-color="#D2A374"/>
</linearGradient>
<linearGradient id="paint4_linear_12495_74660" x1="13.919" y1="53.0567" x2="2.07258" y2="60.8922" gradientUnits="userSpaceOnUse">
<stop offset="0.3118" stop-color="#F0C492" stop-opacity="0"/>
<stop offset="1" stop-color="#E6AF74"/>
</linearGradient>
<linearGradient id="paint5_linear_12495_74660" x1="11.9061" y1="52.7716" x2="16.3201" y2="40.1307" gradientUnits="userSpaceOnUse">
<stop offset="0.00132565" stop-color="#F0C492"/>
<stop offset="1" stop-color="#F8DBBA"/>
</linearGradient>
<linearGradient id="paint6_linear_12495_74660" x1="5.37524" y1="25.4386" x2="6.9654" y2="32.4136" gradientUnits="userSpaceOnUse">
<stop offset="0.00132565" stop-color="#F0C492"/>
<stop offset="1" stop-color="#F8DBBA"/>
</linearGradient>
<linearGradient id="paint7_linear_12495_74660" x1="9.93035" y1="17.8394" x2="10.6297" y2="31.6272" gradientUnits="userSpaceOnUse">
<stop offset="0.00132565" stop-color="#F0C492"/>
<stop offset="1" stop-color="#F8DBBA"/>
</linearGradient>
<linearGradient id="paint8_linear_12495_74660" x1="20.0974" y1="20.9903" x2="18.595" y2="31.2644" gradientUnits="userSpaceOnUse">
<stop offset="0.00132565" stop-color="#F0C492"/>
<stop offset="1" stop-color="#F8DBBA"/>
</linearGradient>
<linearGradient id="paint9_linear_12495_74660" x1="15.3462" y1="19.0305" x2="14.4421" y2="31.1123" gradientUnits="userSpaceOnUse">
<stop offset="0.00132565" stop-color="#F0C492"/>
<stop offset="1" stop-color="#F8DBBA"/>
</linearGradient>
<linearGradient id="paint10_linear_12495_74660" x1="19.6177" y1="25.4362" x2="17.0096" y2="25.5289" gradientUnits="userSpaceOnUse">
<stop offset="0.3118" stop-color="#F0C492" stop-opacity="0"/>
<stop offset="1" stop-color="#D2A374"/>
</linearGradient>
<linearGradient id="paint11_linear_12495_74660" x1="16.6485" y1="25.1599" x2="12.1585" y2="25.2567" gradientUnits="userSpaceOnUse">
<stop offset="0.3118" stop-color="#F0C492" stop-opacity="0"/>
<stop offset="1" stop-color="#D2A374"/>
</linearGradient>
<linearGradient id="paint12_linear_12495_74660" x1="12.3366" y1="27.0511" x2="8.26996" y2="27.2794" gradientUnits="userSpaceOnUse">
<stop offset="0.3118" stop-color="#F0C492" stop-opacity="0"/>
<stop offset="1" stop-color="#D2A374"/>
</linearGradient>
<linearGradient id="paint13_linear_12495_74660" x1="6.78359" y1="29.8513" x2="9.16269" y2="29.5746" gradientUnits="userSpaceOnUse">
<stop offset="0.3118" stop-color="#F0C492" stop-opacity="0"/>
<stop offset="1" stop-color="#D2A374"/>
</linearGradient>
<linearGradient id="paint14_linear_12495_74660" x1="12.6349" y1="11.6978" x2="11.7199" y2="31.3278" gradientUnits="userSpaceOnUse">
<stop offset="0.3118" stop-color="#F0C492" stop-opacity="0"/>
<stop offset="1" stop-color="#D2A374"/>
</linearGradient>
<linearGradient id="paint15_linear_12495_74660" x1="14.905" y1="24.7097" x2="16.8951" y2="24.8274" gradientUnits="userSpaceOnUse">
<stop offset="0.3118" stop-color="#F0C492" stop-opacity="0"/>
<stop offset="1" stop-color="#D2A374"/>
</linearGradient>
<linearGradient id="paint16_linear_12495_74660" x1="20.8778" y1="35.2885" x2="20.8778" y2="-14.2803" gradientUnits="userSpaceOnUse">
<stop stop-color="#C86F34" stop-opacity="0"/>
<stop offset="1" stop-color="#C86F34"/>
</linearGradient>
<radialGradient id="paint17_radial_12495_74660" cx="0" cy="0" r="1" gradientUnits="userSpaceOnUse" gradientTransform="translate(9.11278 44.519) rotate(40.7933) scale(15.3 15.3002)">
<stop offset="0.6134" stop-color="#F0C492" stop-opacity="0"/>
<stop offset="1" stop-color="#E6AF74"/>
</radialGradient>
<radialGradient id="paint18_radial_12495_74660" cx="0" cy="0" r="1" gradientUnits="userSpaceOnUse" gradientTransform="translate(6.99586 44.8738) rotate(-13.0362) scale(11.2886 28.6482)">
<stop offset="0.0877149" stop-color="#F0C492" stop-opacity="0"/>
<stop offset="1" stop-color="#E6AF74"/>
</radialGradient>
<radialGradient id="paint19_radial_12495_74660" cx="0" cy="0" r="1" gradientUnits="userSpaceOnUse" gradientTransform="translate(20.4804 42.6171) rotate(-39.7642) scale(4.51853 2.09723)">
<stop stop-color="#F8E6D2"/>
<stop offset="1" stop-color="#F8E6D2" stop-opacity="0"/>
</radialGradient>
<radialGradient id="paint20_radial_12495_74660" cx="0" cy="0" r="1" gradientUnits="userSpaceOnUse" gradientTransform="translate(10.8083 42.9918) rotate(-138.969) scale(5.81499 2.65319)">
<stop stop-color="#F8E6D2"/>
<stop offset="1" stop-color="#F8E6D2" stop-opacity="0"/>
</radialGradient>
<linearGradient id="paint21_linear_12495_74660" x1="5.48683" y1="22.7915" x2="20.1397" y2="61.407" gradientUnits="userSpaceOnUse">
<stop stop-color="#C86F34" stop-opacity="0"/>
<stop offset="1" stop-color="#C86F34"/>
</linearGradient>
<radialGradient id="paint22_radial_12495_74660" cx="0" cy="0" r="1" gradientUnits="userSpaceOnUse" gradientTransform="translate(14.215 38.0228) scale(28.0291 28.0316)">
<stop offset="0.6134" stop-color="#F0C492" stop-opacity="0"/>
<stop offset="1" stop-color="#E6AF74"/>
</radialGradient>
<linearGradient id="paint23_linear_12495_74660" x1="28.0023" y1="27.627" x2="22.9017" y2="42.0366" gradientUnits="userSpaceOnUse">
<stop offset="0.3118" stop-color="#F0C492" stop-opacity="0"/>
<stop offset="1" stop-color="#E6AF74"/>
</linearGradient>
<linearGradient id="paint24_linear_12495_74660" x1="21.2438" y1="39.7494" x2="40.8722" y2="43.1721" gradientUnits="userSpaceOnUse">
<stop stop-color="#C86F34" stop-opacity="0"/>
<stop offset="1" stop-color="#C86F34"/>
</linearGradient>
<linearGradient id="paint25_linear_12495_74660" x1="49.143" y1="47.8669" x2="49.3439" y2="52.8685" gradientUnits="userSpaceOnUse">
<stop offset="0.00132565" stop-color="#F0C492"/>
<stop offset="1" stop-color="#F8DBBA"/>
</linearGradient>
<linearGradient id="paint26_linear_12495_74660" x1="51.6891" y1="60.2943" x2="39.6673" y2="46.6939" gradientUnits="userSpaceOnUse">
<stop offset="0.3118" stop-color="#F0C492" stop-opacity="0"/>
<stop offset="1" stop-color="#E6AF74"/>
</linearGradient>
<linearGradient id="paint27_linear_12495_74660" x1="53.1629" y1="55.232" x2="57.6559" y2="44.7889" gradientUnits="userSpaceOnUse">
<stop offset="0.3118" stop-color="#F0C492" stop-opacity="0"/>
<stop offset="1" stop-color="#E6AF74"/>
</linearGradient>
<linearGradient id="paint28_linear_12495_74660" x1="56.3411" y1="43.3215" x2="51.9844" y2="62.7714" gradientUnits="userSpaceOnUse">
<stop offset="0.3118" stop-color="#F0C492" stop-opacity="0"/>
<stop offset="1" stop-color="#D2A374"/>
</linearGradient>
<linearGradient id="paint29_linear_12495_74660" x1="50.0831" y1="53.0566" x2="61.9296" y2="60.8922" gradientUnits="userSpaceOnUse">
<stop offset="0.3118" stop-color="#F0C492" stop-opacity="0"/>
<stop offset="1" stop-color="#E6AF74"/>
</linearGradient>
<linearGradient id="paint30_linear_12495_74660" x1="52.0943" y1="52.771" x2="47.6803" y2="40.1302" gradientUnits="userSpaceOnUse">
<stop offset="0.00132565" stop-color="#F0C492"/>
<stop offset="1" stop-color="#F8DBBA"/>
</linearGradient>
<linearGradient id="paint31_linear_12495_74660" x1="58.6226" y1="25.4395" x2="57.0324" y2="32.4146" gradientUnits="userSpaceOnUse">
<stop offset="0.00132565" stop-color="#F0C492"/>
<stop offset="1" stop-color="#F8DBBA"/>
</linearGradient>
<linearGradient id="paint32_linear_12495_74660" x1="54.0699" y1="17.8404" x2="53.3705" y2="31.6282" gradientUnits="userSpaceOnUse">
<stop offset="0.00132565" stop-color="#F0C492"/>
<stop offset="1" stop-color="#F8DBBA"/>
</linearGradient>
<linearGradient id="paint33_linear_12495_74660" x1="43.902" y1="20.9916" x2="45.4045" y2="31.2658" gradientUnits="userSpaceOnUse">
<stop offset="0.00132565" stop-color="#F0C492"/>
<stop offset="1" stop-color="#F8DBBA"/>
</linearGradient>
<linearGradient id="paint34_linear_12495_74660" x1="48.6544" y1="19.0314" x2="49.5586" y2="31.1133" gradientUnits="userSpaceOnUse">
<stop offset="0.00132565" stop-color="#F0C492"/>
<stop offset="1" stop-color="#F8DBBA"/>
</linearGradient>
<linearGradient id="paint35_linear_12495_74660" x1="44.3801" y1="25.4375" x2="46.9884" y2="25.5302" gradientUnits="userSpaceOnUse">
<stop offset="0.3118" stop-color="#F0C492" stop-opacity="0"/>
<stop offset="1" stop-color="#D2A374"/>
</linearGradient>
<linearGradient id="paint36_linear_12495_74660" x1="47.3519" y1="25.1612" x2="51.8417" y2="25.2581" gradientUnits="userSpaceOnUse">
<stop offset="0.3118" stop-color="#F0C492" stop-opacity="0"/>
<stop offset="1" stop-color="#D2A374"/>
</linearGradient>
<linearGradient id="paint37_linear_12495_74660" x1="51.6636" y1="27.0506" x2="55.7302" y2="27.2789" gradientUnits="userSpaceOnUse">
<stop offset="0.3118" stop-color="#F0C492" stop-opacity="0"/>
<stop offset="1" stop-color="#D2A374"/>
</linearGradient>
<linearGradient id="paint38_linear_12495_74660" x1="57.2176" y1="29.8509" x2="54.8385" y2="29.5742" gradientUnits="userSpaceOnUse">
<stop offset="0.3118" stop-color="#F0C492" stop-opacity="0"/>
<stop offset="1" stop-color="#D2A374"/>
</linearGradient>
<linearGradient id="paint39_linear_12495_74660" x1="51.368" y1="11.6978" x2="52.2829" y2="31.3278" gradientUnits="userSpaceOnUse">
<stop offset="0.3118" stop-color="#F0C492" stop-opacity="0"/>
<stop offset="1" stop-color="#D2A374"/>
</linearGradient>
<linearGradient id="paint40_linear_12495_74660" x1="49.0942" y1="24.711" x2="47.1041" y2="24.8287" gradientUnits="userSpaceOnUse">
<stop offset="0.3118" stop-color="#F0C492" stop-opacity="0"/>
<stop offset="1" stop-color="#D2A374"/>
</linearGradient>
<linearGradient id="paint41_linear_12495_74660" x1="43.1236" y1="35.2885" x2="43.1236" y2="-14.2803" gradientUnits="userSpaceOnUse">
<stop stop-color="#C86F34" stop-opacity="0"/>
<stop offset="1" stop-color="#C86F34"/>
</linearGradient>
<radialGradient id="paint42_radial_12495_74660" cx="0" cy="0" r="1" gradientUnits="userSpaceOnUse" gradientTransform="translate(54.8858 44.5202) rotate(139.207) scale(15.3 15.3002)">
<stop offset="0.6134" stop-color="#F0C492" stop-opacity="0"/>
<stop offset="1" stop-color="#E6AF74"/>
</radialGradient>
<radialGradient id="paint43_radial_12495_74660" cx="0" cy="0" r="1" gradientUnits="userSpaceOnUse" gradientTransform="translate(56.98 44.8604) rotate(-166.964) scale(11.2886 28.6482)">
<stop offset="0.0877149" stop-color="#F0C492" stop-opacity="0"/>
<stop offset="1" stop-color="#E6AF74"/>
</radialGradient>
<radialGradient id="paint44_radial_12495_74660" cx="0" cy="0" r="1" gradientUnits="userSpaceOnUse" gradientTransform="translate(43.5439 42.6323) rotate(-140.236) scale(4.51853 2.09723)">
<stop stop-color="#F8E6D2"/>
<stop offset="1" stop-color="#F8E6D2" stop-opacity="0"/>
</radialGradient>
<radialGradient id="paint45_radial_12495_74660" cx="0" cy="0" r="1" gradientUnits="userSpaceOnUse" gradientTransform="translate(53.1862 42.991) rotate(-41.0309) scale(5.81499 2.65319)">
<stop stop-color="#F8E6D2"/>
<stop offset="1" stop-color="#F8E6D2" stop-opacity="0"/>
</radialGradient>
<linearGradient id="paint46_linear_12495_74660" x1="58.5158" y1="22.791" x2="43.8629" y2="61.4066" gradientUnits="userSpaceOnUse">
<stop stop-color="#C86F34" stop-opacity="0"/>
<stop offset="1" stop-color="#C86F34"/>
</linearGradient>
<radialGradient id="paint47_radial_12495_74660" cx="0" cy="0" r="1" gradientUnits="userSpaceOnUse" gradientTransform="translate(49.7782 38.0227) rotate(180) scale(28.0291 28.0316)">
<stop offset="0.6134" stop-color="#F0C492" stop-opacity="0"/>
<stop offset="1" stop-color="#E6AF74"/>
</radialGradient>
<linearGradient id="paint48_linear_12495_74660" x1="35.9986" y1="27.6266" x2="41.0991" y2="42.0362" gradientUnits="userSpaceOnUse">
<stop offset="0.3118" stop-color="#F0C492" stop-opacity="0"/>
<stop offset="1" stop-color="#E6AF74"/>
</linearGradient>
<linearGradient id="paint49_linear_12495_74660" x1="42.757" y1="39.7494" x2="23.1286" y2="43.1721" gradientUnits="userSpaceOnUse">
<stop stop-color="#C86F34" stop-opacity="0"/>
<stop offset="1" stop-color="#C86F34"/>
</linearGradient>
</defs>
</svg>
