<?xml version="1.0" encoding="UTF-8"?>
<svg width="64px" height="60px" viewBox="0 0 64 60" version="1.1" xmlns="http://www.w3.org/2000/svg" xmlns:xlink="http://www.w3.org/1999/xlink">
    <!-- Generator: sketchtool 51.3 (57544) - http://www.bohemiancoding.com/sketch -->
    <title>D1C2EB4F-E458-44F2-A06A-9584A04663E0@1.5x</title>
    <desc>Created with sketchtool.</desc>
    <defs></defs>
    <g id="Job-Search" stroke="none" stroke-width="1" fill="none" fill-rule="evenodd">
        <g id="jobs_alerts_empty_state" transform="translate(-156.000000, -251.000000)" fill-rule="nonzero">
            <g id="No-Search-found" transform="translate(107.000000, 251.000000)">
                <g id="alarm" transform="translate(49.000000, 0.000000)">
                    <path d="M50.1589333,31.4666667 L50.1589333,21.8730667 C50.2048,14.5589333 45.2864,9.70773333 41.0602667,7.776 C39.8496,7.2224 38.6016,6.79573333 37.3333333,6.47893333 L37.3333333,5.86666667 C37.3333333,2.92586667 34.9408,0.533333333 32,0.533333333 C29.0592,0.533333333 26.6666667,2.92586667 26.6666667,5.86666667 L26.6666667,6.57173333 C25.5242667,6.88 24.4010667,7.28213333 23.3109333,7.7856 C18.6410667,9.93813333 13.9093333,15.1264 13.8666667,21.8666667 L13.8666667,31.4666667 C13.8666667,38.2805333 11.4602667,44.1269333 6.71466667,48.8437333 C6.432,49.1253333 6.3296,49.5402667 6.44906667,49.9210667 C6.56853333,50.3018667 6.89173333,50.5834667 7.28533333,50.6517333 L17.4090667,52.4 C19.2949333,52.7253333 21.0314667,52.992 22.6837333,53.2117333 C24.5450667,56.8597333 28.2005333,59.2010667 32.1941333,59.2010667 C36.1888,59.2010667 39.8453333,56.8586667 41.7056,53.2085333 C43.3514667,52.9898667 45.0794667,52.7242667 46.9546667,52.4 L57.0773333,50.6517333 C57.4709333,50.5845333 57.7930667,50.3018667 57.9136,49.9210667 C58.0341333,49.5413333 57.9317333,49.1253333 57.648,48.8437333 C52.6794667,43.904 50.1589333,38.0576 50.1589333,31.4666667 Z M28.8,5.86666667 C28.8,4.1024 30.2357333,2.66666667 32,2.66666667 C33.7642667,2.66666667 35.2,4.1024 35.2,5.86666667 L35.2,6.0608 C33.0741333,5.75573333 30.9173333,5.76853333 28.8,6.11093333 L28.8,5.86666667 Z M32.1952,57.0666667 C29.4944,57.0666667 26.9706667,55.7248 25.3504,53.5306667 C27.7344,53.776 29.9594667,53.8997333 32.1834667,53.8997333 C34.416,53.8997333 36.6485333,53.776 39.0421333,53.5274667 C37.4208,55.7237333 34.896,57.0666667 32.1952,57.0666667 Z M46.5930667,50.2965333 C44.5461333,50.6496 42.6698667,50.9365333 40.8970667,51.1626667 C40.8949333,51.1626667 40.8928,51.1626667 40.8896,51.1626667 C40.1077333,51.2618667 39.3482667,51.3482667 38.6048,51.4229333 C38.5984,51.4229333 38.5930667,51.424 38.5866667,51.424 C37.9050667,51.4922667 37.2394667,51.5477333 36.5802667,51.5946667 C36.4565333,51.6032 36.3328,51.6117333 36.2101333,51.6192 C35.6394667,51.6565333 35.0752,51.6864 34.5141333,51.7077333 C34.4,51.712 34.2848,51.7184 34.1706667,51.7216 C32.8437333,51.7664 31.5349333,51.7664 30.2090667,51.7226667 C30.0906667,51.7184 29.9712,51.712 29.8528,51.7077333 C29.3013333,51.6853333 28.7456,51.6576 28.1834667,51.6202667 C28.0501333,51.6117333 27.9168,51.6032 27.7824,51.5936 C27.1434667,51.5477333 26.4970667,51.4944 25.8368,51.4282667 C25.8122667,51.4261333 25.7888,51.424 25.7642667,51.4218667 C25.0261333,51.3482667 24.2730667,51.2618667 23.4986667,51.1637333 C23.4954667,51.1637333 23.4922667,51.1637333 23.4890667,51.1637333 C21.7098667,50.9386667 19.8261333,50.6496 17.7706667,50.2954667 L9.6,48.8853333 C13.8485333,44.0277333 16,38.1781333 16,31.4666667 L16,21.8730667 C16.0362667,16.0757333 20.1472,11.5936 24.2037333,9.72266667 C25.4101333,9.16693333 26.6613333,8.752 27.9338667,8.4608 C27.9445333,8.45866667 27.9562667,8.45973333 27.9669333,8.4576 C30.5962667,7.86666667 33.3930667,7.84 36.0522667,8.38506667 C36.0661333,8.38826667 36.08,8.38186667 36.0938667,8.384 C37.4848,8.67413333 38.8544,9.1136 40.1738667,9.71626667 C44.1088,11.5157333 48.0629333,15.968 48.0256,21.8677333 L48.0256,31.4677333 C48.0256,37.9029333 50.3456,43.8869333 54.7594667,48.8874667 L46.5930667,50.2965333 Z" id="Shape" fill="#4454FF"></path>
                    <path d="M38.8448,12.6272 C34.7114667,10.7381333 29.6501333,10.736 25.5445333,12.6293333 C23.2032,13.7088 19.232,16.8672 19.2,21.8602667 C19.1968,22.4490667 19.6704,22.9290667 20.2602667,22.9333333 C20.2624,22.9333333 20.2645333,22.9333333 20.2666667,22.9333333 C20.8522667,22.9333333 21.3301333,22.4608 21.3333333,21.8730667 C21.3578667,17.9509333 24.5536,15.4357333 26.4373333,14.5664 C29.9893333,12.9269333 34.3797333,12.9312 37.9562667,14.5664 C38.4928,14.8117333 39.1253333,14.576 39.3706667,14.0405333 C39.616,13.504 39.3792,12.8714667 38.8448,12.6272 Z" id="Shape" fill="#E6B849"></path>
                    <path d="M5.12213333,22.1792 C4.70506667,21.7621333 4.03093333,21.7621333 3.61386667,22.1792 C1.2832,24.5098667 0,27.6117333 0,30.9152 C0,34.2186667 1.2832,37.3216 3.61386667,39.6512 C3.82186667,39.8592 4.09493333,39.9637333 4.368,39.9637333 C4.64106667,39.9637333 4.91413333,39.8592 5.12213333,39.6512 C5.5392,39.2341333 5.5392,38.56 5.12213333,38.1429333 C3.19466667,36.2154667 2.13333333,33.6490667 2.13333333,30.9152 C2.13333333,28.1813333 3.19466667,25.6138667 5.12213333,23.6874667 C5.53813333,23.2704 5.53813333,22.5962667 5.12213333,22.1792 Z" id="Shape" fill="#E6B849"></path>
                    <path d="M8.85866667,37.536 C9.13173333,37.536 9.4048,37.4314667 9.6128,37.2234667 C10.0298667,36.8064 10.0298667,36.1322667 9.6128,35.7152 C6.88426667,32.9866667 6.88426667,28.5482667 9.6128,25.8208 C10.0298667,25.4037333 10.0298667,24.7296 9.6128,24.3125333 C9.19573333,23.8954667 8.5216,23.8954667 8.10453333,24.3125333 C4.54506667,27.872 4.54506667,33.6650667 8.10453333,37.2234667 C8.31253333,37.4325333 8.5856,37.536 8.85866667,37.536 Z" id="Shape" fill="#E6B849"></path>
                    <path d="M60.3861333,22.1792 C59.9690667,21.7621333 59.2949333,21.7621333 58.8778667,22.1792 C58.4608,22.5962667 58.4608,23.2704 58.8778667,23.6874667 C60.8053333,25.6149333 61.8666667,28.1813333 61.8666667,30.9152 C61.8666667,33.6490667 60.8053333,36.2154667 58.8778667,38.1429333 C58.4608,38.56 58.4608,39.2341333 58.8778667,39.6512 C59.0858667,39.8592 59.3589333,39.9637333 59.632,39.9637333 C59.9050667,39.9637333 60.1781333,39.8592 60.3861333,39.6512 C62.7168,37.3216 64,34.2186667 64,30.9152 C64,27.6117333 62.7168,24.5098667 60.3861333,22.1792 Z" id="Shape" fill="#E6B849"></path>
                    <path d="M54.3872,24.3125333 C53.9701333,24.7296 53.9701333,25.4037333 54.3872,25.8208 C57.1157333,28.5493333 57.1157333,32.9877333 54.3872,35.7152 C53.9701333,36.1322667 53.9701333,36.8064 54.3872,37.2234667 C54.5952,37.4314667 54.8682667,37.536 55.1413333,37.536 C55.4144,37.536 55.6874667,37.4314667 55.8954667,37.2234667 C59.4549333,33.664 59.4549333,27.8709333 55.8954667,24.3125333 C55.4784,23.8954667 54.8032,23.8954667 54.3872,24.3125333 Z" id="Shape" fill="#E6B849"></path>
                </g>
            </g>
        </g>
    </g>
</svg>