<svg width="211" height="140" viewBox="0 0 211 140" fill="none" xmlns="http://www.w3.org/2000/svg">
<g clip-path="url(#clip0_1404_1199)">
<path d="M130.15 97.138L60.6842 115.032C58.3278 115.636 55.8281 115.281 53.7334 114.043C51.6387 112.806 50.1202 110.789 49.5109 108.433L28.5025 26.8243C27.8985 24.4672 28.2539 21.9667 29.4907 19.8713C30.7275 17.776 32.7447 16.257 35.0997 15.6475L99.7267 -1L116.268 6.40743L136.748 85.9611C137.352 88.3183 136.996 90.8188 135.759 92.9141C134.523 95.0095 132.505 96.5285 130.15 97.138Z" fill="#D9DDFF"/>
<path d="M35.7578 18.2061C34.0808 18.6401 32.6443 19.7218 31.7635 21.214C30.8828 22.7061 30.6297 24.4868 31.0598 26.1653L52.0683 107.774C52.5021 109.451 53.5835 110.888 55.0752 111.769C56.5668 112.65 58.3469 112.904 60.025 112.473L129.491 94.5792C131.168 94.1452 132.605 93.0635 133.486 91.5713C134.366 90.0792 134.619 88.2985 134.189 86.62L114.027 8.2989L99.4901 1.78906L35.7578 18.2061Z" fill="white"/>
<path d="M116.092 6.82846L105.341 9.59781C104.557 9.79998 103.724 9.68199 103.026 9.2698C102.328 8.85762 101.822 8.18499 101.62 7.3999L99.5754 -0.54305C99.5664 -0.577825 99.5674 -0.614419 99.5783 -0.648636C99.5892 -0.682853 99.6095 -0.713308 99.6369 -0.736508C99.6643 -0.759709 99.6977 -0.774716 99.7332 -0.779808C99.7688 -0.784899 99.805 -0.779871 99.8378 -0.765298L116.122 6.46885C116.158 6.48495 116.189 6.51193 116.209 6.54605C116.229 6.58018 116.238 6.61975 116.235 6.65927C116.232 6.6988 116.216 6.73633 116.191 6.76665C116.165 6.79696 116.131 6.81857 116.092 6.82846Z" fill="#D9DDFF"/>
<path d="M132.52 76.5204L100.893 84.6674C100.699 84.7174 100.497 84.7287 100.298 84.7006C100.099 84.6724 99.9082 84.6054 99.7354 84.5034C99.5627 84.4013 99.4117 84.2662 99.2911 84.1058C99.1705 83.9454 99.0827 83.7628 99.0326 83.5684C98.9826 83.374 98.9713 83.1717 98.9995 82.973C99.0276 82.7743 99.0946 82.583 99.1966 82.4102C99.2986 82.2374 99.4337 82.0863 99.594 81.9657C99.7544 81.8451 99.9369 81.7572 100.131 81.7072L131.758 73.5602C131.953 73.5102 132.155 73.4989 132.354 73.5271C132.552 73.5552 132.743 73.6222 132.916 73.7243C133.089 73.8263 133.24 73.9614 133.36 74.1218C133.481 74.2822 133.569 74.4648 133.619 74.6592C133.669 74.8536 133.68 75.0559 133.652 75.2546C133.624 75.4534 133.557 75.6446 133.455 75.8174C133.353 75.9903 133.218 76.1413 133.058 76.2619C132.897 76.3825 132.715 76.4704 132.52 76.5204Z" fill="#DCE1E4"/>
<path d="M139.91 79.9435L102.179 89.6626C101.787 89.7637 101.371 89.7047 101.022 89.4986C100.673 89.2925 100.42 88.9562 100.319 88.5636C100.218 88.1711 100.277 87.7545 100.483 87.4054C100.689 87.0564 101.025 86.8035 101.417 86.7024L139.148 76.9833C139.54 76.8826 139.956 76.9418 140.305 77.1479C140.654 77.3541 140.906 77.6902 141.007 78.0825C141.108 78.4749 141.049 78.8913 140.844 79.2402C140.638 79.5891 140.302 79.8421 139.91 79.9435Z" fill="#DCE1E4"/>
<path d="M65.9003 94.4794C68.8828 94.4794 71.3006 92.0608 71.3006 89.0774C71.3006 86.094 68.8828 83.6754 65.9003 83.6754C62.9178 83.6754 60.5 86.094 60.5 89.0774C60.5 92.0608 62.9178 94.4794 65.9003 94.4794Z" fill="#22DDAB"/>
<path d="M107.073 62.3828L65.0689 73.1987C63.855 73.5098 62.5673 73.3265 61.4883 72.6891C60.4093 72.0517 59.6271 71.0121 59.3133 69.7985L50.5109 35.5922C50.1998 34.3779 50.383 33.0898 51.0203 32.0104C51.6575 30.931 52.6967 30.1486 53.9099 29.8347L95.9138 19.0189C97.1277 18.7077 98.4154 18.891 99.4944 19.5284C100.573 20.1658 101.356 21.2054 101.669 22.419L110.472 56.6253C110.783 57.8396 110.6 59.1277 109.962 60.2071C109.325 61.2865 108.286 62.0689 107.073 62.3828Z" fill="white"/>
<path d="M107.073 62.3828L65.0689 73.1987C63.855 73.5098 62.5673 73.3265 61.4883 72.6891C60.4093 72.0517 59.6271 71.0121 59.3133 69.7985L50.5109 35.5922C50.1998 34.3779 50.383 33.0898 51.0203 32.0104C51.6575 30.931 52.6967 30.1486 53.9099 29.8347L95.9138 19.0189C97.1277 18.7077 98.4154 18.891 99.4944 19.5284C100.573 20.1658 101.356 21.2054 101.669 22.419L110.472 56.6253C110.783 57.8396 110.6 59.1277 109.962 60.2071C109.325 61.2865 108.286 62.0689 107.073 62.3828ZM54.0486 30.3734C52.9781 30.6504 52.0611 31.3408 51.4989 32.2931C50.9366 33.2455 50.775 34.3821 51.0494 35.4535L59.8518 69.6598C60.1287 70.7307 60.8189 71.6479 61.7709 72.2103C62.723 72.7728 63.8592 72.9345 64.9303 72.66L106.934 61.8441C108.005 61.5671 108.922 60.8768 109.484 59.9244C110.046 58.972 110.208 57.8354 109.933 56.764L101.131 22.5577C100.854 21.4868 100.164 20.5696 99.2118 20.0072C98.2597 19.4447 97.1235 19.283 96.0524 19.5575L54.0486 30.3734Z" fill="#C5CFD6"/>
<path d="M93.7825 30.5205L72.5837 35.9791C72.3983 36.0309 72.2003 36.0103 72.0295 35.9216C71.8588 35.8329 71.728 35.6826 71.6638 35.5011C71.6339 35.4064 71.6236 35.3065 71.6336 35.2076C71.6435 35.1087 71.6735 35.0129 71.7217 34.926C71.7699 34.8391 71.8353 34.7629 71.914 34.7021C71.9926 34.6413 72.0827 34.5972 72.1789 34.5724L93.758 29.0159C94.6297 29.4577 94.4006 30.3613 93.7825 30.5205Z" fill="#D9DDFF"/>
<path d="M94.7399 34.2401L73.5412 39.6987C73.3558 39.7505 73.1578 39.7299 72.987 39.6412C72.8163 39.5525 72.6855 39.4022 72.6213 39.2208C72.5914 39.126 72.5811 39.0261 72.5911 38.9272C72.6011 38.8283 72.6311 38.7325 72.6793 38.6456C72.7275 38.5587 72.7929 38.4825 72.8715 38.4217C72.9501 38.3609 73.0402 38.3168 73.1365 38.292L94.7155 32.7355C95.5872 33.1773 95.3581 34.0809 94.7399 34.2401Z" fill="#D9DDFF"/>
<path d="M69.5026 42.9966L63.033 44.6625C62.8217 44.7167 62.5975 44.6848 62.4097 44.5739C62.2219 44.4629 62.0857 44.282 62.0311 44.0707L60.0658 36.4336C60.0117 36.2222 60.0435 35.998 60.1545 35.8101C60.2654 35.6222 60.4463 35.486 60.6575 35.4314L67.1271 33.7655C67.3384 33.7114 67.5625 33.7433 67.7503 33.8543C67.9382 33.9652 68.0743 34.1461 68.129 34.3573L70.0943 41.9945C70.1484 42.2058 70.1165 42.4301 70.0056 42.618C69.8947 42.8058 69.7138 42.942 69.5026 42.9966Z" fill="#4353FF"/>
<path d="M96.6376 41.8717L64.2843 50.2026C64.099 50.2544 63.9009 50.2338 63.7302 50.1451C63.5594 50.0564 63.4287 49.9061 63.3645 49.7247C63.3346 49.6299 63.3243 49.53 63.3343 49.4311C63.3442 49.3322 63.3742 49.2364 63.4224 49.1495C63.4706 49.0626 63.536 48.9864 63.6146 48.9256C63.6932 48.8649 63.7834 48.8207 63.8796 48.7959L96.6134 40.3671C97.4851 40.8089 97.2557 41.7126 96.6376 41.8717Z" fill="#D9DDFF"/>
<path d="M97.5951 45.5927L65.2419 53.9236C65.0565 53.9753 64.8585 53.9548 64.6877 53.866C64.517 53.7773 64.3862 53.627 64.322 53.4456C64.2921 53.3508 64.2818 53.2509 64.2918 53.1521C64.3017 53.0532 64.3317 52.9573 64.3799 52.8704C64.4281 52.7835 64.4935 52.7074 64.5722 52.6466C64.6508 52.5858 64.7409 52.5417 64.8371 52.5169L97.5709 44.088C98.4426 44.5298 98.2132 45.4335 97.5951 45.5927Z" fill="#D9DDFF"/>
<path d="M98.5516 49.3107L66.1984 57.6416C66.0131 57.6933 65.815 57.6728 65.6442 57.5841C65.4735 57.4953 65.3428 57.3451 65.2785 57.1636C65.2486 57.0688 65.2384 56.969 65.2483 56.8701C65.2583 56.7712 65.2883 56.6754 65.3365 56.5885C65.3847 56.5016 65.4501 56.4254 65.5287 56.3646C65.6073 56.3038 65.6975 56.2597 65.7937 56.2349L98.5275 47.806C99.3991 48.2478 99.1698 49.1515 98.5516 49.3107Z" fill="#D9DDFF"/>
<path d="M99.5096 53.0312L67.1564 61.362C66.9711 61.4138 66.773 61.3932 66.6023 61.3045C66.4315 61.2158 66.3008 61.0655 66.2365 60.8841C66.2066 60.7893 66.1964 60.6894 66.2063 60.5905C66.2163 60.4916 66.2463 60.3958 66.2945 60.3089C66.3427 60.222 66.4081 60.1458 66.4867 60.0851C66.5653 60.0243 66.6555 59.9801 66.7517 59.9554L99.4855 51.5265C100.357 51.9683 100.128 52.872 99.5096 53.0312Z" fill="#D9DDFF"/>
<path d="M100.467 56.7498L68.1139 65.0807C67.9286 65.1324 67.7305 65.1119 67.5598 65.0231C67.389 64.9344 67.2583 64.7841 67.1941 64.6027C67.1642 64.5079 67.1539 64.408 67.1638 64.3092C67.1738 64.2103 67.2038 64.1145 67.252 64.0275C67.3002 63.9406 67.3656 63.8645 67.4442 63.8037C67.5228 63.7429 67.613 63.6988 67.7092 63.674L100.443 55.2451C101.315 55.6869 101.085 56.5906 100.467 56.7498Z" fill="#D9DDFF"/>
<path d="M66.2981 90.971C66.1805 91.0015 66.0561 90.9929 65.9438 90.9465L65.9369 90.9437L64.4657 90.3198C64.3975 90.2909 64.3355 90.2488 64.2835 90.1959C64.2315 90.143 64.1905 90.0804 64.1627 90.0117C64.1349 89.9429 64.1209 89.8694 64.1216 89.7952C64.1223 89.721 64.1375 89.6477 64.1665 89.5795C64.1956 89.5112 64.2377 89.4494 64.2907 89.3974C64.3436 89.3455 64.4063 89.3045 64.475 89.2769C64.5438 89.2492 64.6174 89.2353 64.6915 89.2361C64.7657 89.2369 64.8389 89.2523 64.9071 89.2814L65.8604 89.687L67.1096 86.7475C67.1385 86.6793 67.1806 86.6175 67.2335 86.5656C67.2863 86.5138 67.3488 86.4728 67.4175 86.4451C67.4862 86.4174 67.5596 86.4035 67.6336 86.4042C67.7077 86.4049 67.7808 86.4202 67.849 86.4491L67.8416 86.4684L67.8495 86.4491C67.987 86.5078 68.0956 86.6187 68.1515 86.7574C68.2074 86.8961 68.206 87.0513 68.1476 87.189L66.678 90.6452C66.6439 90.7249 66.5919 90.7957 66.5261 90.852C66.4603 90.9084 66.3823 90.9488 66.2984 90.9702L66.2981 90.971Z" fill="white"/>
<path d="M178.879 128.237H107.147C104.714 128.234 102.382 127.266 100.662 125.546C98.942 123.825 97.9744 121.492 97.9717 119.059V34.788C97.9744 32.3547 98.942 30.0218 100.662 28.3012C102.382 26.5806 104.714 25.6127 107.147 25.61H173.882L188.054 36.9098V119.059C188.052 121.492 187.084 123.825 185.364 125.546C183.644 127.266 181.312 128.234 178.879 128.237Z" fill="#D9DDFF"/>
<path d="M107.147 28.2522C105.414 28.2542 103.754 28.9434 102.529 30.1687C101.304 31.394 100.615 33.0552 100.613 34.7881V119.059C100.615 120.792 101.304 122.453 102.529 123.678C103.754 124.904 105.414 125.593 107.147 125.595H178.879C180.611 125.593 182.272 124.904 183.497 123.678C184.722 122.453 185.411 120.792 185.413 119.059V38.1827L172.958 28.2522H107.147Z" fill="white"/>
<path d="M164.927 52.7559H132.269C131.863 52.7559 131.475 52.5948 131.188 52.3082C130.902 52.0216 130.741 51.6328 130.741 51.2275C130.741 50.8221 130.902 50.4334 131.188 50.1467C131.475 49.8601 131.863 49.6991 132.269 49.6991H164.927C165.333 49.6991 165.721 49.8601 166.008 50.1467C166.294 50.4334 166.455 50.8221 166.455 51.2275C166.455 51.6328 166.294 52.0216 166.008 52.3082C165.721 52.5948 165.333 52.7559 164.927 52.7559Z" fill="#EDB726"/>
<path d="M171.229 57.9142H132.268C131.863 57.9136 131.475 57.7524 131.188 57.4658C130.902 57.1792 130.742 56.7908 130.742 56.3858C130.742 55.9808 130.902 55.5924 131.188 55.3058C131.475 55.0192 131.863 54.858 132.268 54.8574H171.229C171.43 54.8572 171.629 54.8965 171.814 54.9732C172 55.0499 172.169 55.1624 172.311 55.3043C172.453 55.4463 172.565 55.6149 172.642 55.8004C172.719 55.986 172.759 56.1849 172.759 56.3858C172.759 56.5867 172.719 56.7856 172.642 56.9712C172.565 57.1567 172.453 57.3253 172.311 57.4673C172.169 57.6092 172 57.7218 171.814 57.7984C171.629 57.8751 171.43 57.9145 171.229 57.9142Z" fill="#EDB726"/>
<path d="M164.927 72.8149H132.269C131.864 72.8149 131.476 72.976 131.189 73.2626C130.903 73.5492 130.742 73.9379 130.742 74.3432C130.742 74.7485 130.903 75.1373 131.189 75.4239C131.476 75.7105 131.864 75.8715 132.269 75.8715H164.927C165.332 75.8715 165.721 75.7105 166.008 75.4239C166.294 75.1373 166.455 74.7485 166.455 74.3432C166.455 73.9379 166.294 73.5492 166.008 73.2626C165.721 72.976 165.332 72.8149 164.927 72.8149Z" fill="#DCE1E4"/>
<path d="M171.23 77.9741H132.269C131.864 77.9741 131.476 78.1351 131.189 78.4217C130.903 78.7084 130.742 79.0971 130.742 79.5024C130.742 79.9077 130.903 80.2964 131.189 80.5831C131.476 80.8697 131.864 81.0307 132.269 81.0307H171.23C171.635 81.0307 172.024 80.8697 172.311 80.5831C172.597 80.2964 172.758 79.9077 172.758 79.5024C172.758 79.0971 172.597 78.7084 172.311 78.4217C172.024 78.1351 171.635 77.9741 171.23 77.9741Z" fill="#DCE1E4"/>
<path d="M164.927 98.9894H132.269C131.863 98.9894 131.475 98.8284 131.188 98.5417C130.902 98.2551 130.741 97.8664 130.741 97.461C130.741 97.0557 130.902 96.6669 131.188 96.3803C131.475 96.0936 131.863 95.9326 132.269 95.9326H164.927C165.333 95.9326 165.721 96.0936 166.008 96.3803C166.294 96.6669 166.455 97.0557 166.455 97.461C166.455 97.8664 166.294 98.2551 166.008 98.5417C165.721 98.8284 165.333 98.9894 164.927 98.9894Z" fill="#DCE1E4"/>
<path d="M171.229 104.147H132.268C131.863 104.147 131.475 103.986 131.188 103.699C130.902 103.413 130.742 103.024 130.742 102.619C130.742 102.214 130.902 101.826 131.188 101.539C131.475 101.253 131.863 101.091 132.268 101.091H171.229C171.43 101.09 171.629 101.13 171.814 101.206C172 101.283 172.169 101.396 172.311 101.538C172.453 101.68 172.565 101.848 172.642 102.034C172.719 102.219 172.759 102.418 172.759 102.619C172.759 102.82 172.719 103.019 172.642 103.204C172.565 103.39 172.453 103.559 172.311 103.701C172.169 103.843 172 103.955 171.814 104.032C171.629 104.108 171.43 104.148 171.229 104.147Z" fill="#DCE1E4"/>
<path d="M118.669 59.2088C121.651 59.2088 124.069 56.7902 124.069 53.8068C124.069 50.8233 121.651 48.4048 118.669 48.4048C115.686 48.4048 113.269 50.8233 113.269 53.8068C113.269 56.7902 115.686 59.2088 118.669 59.2088Z" fill="#22DDAB"/>
<path d="M118.134 55.8673C118.013 55.8675 117.894 55.8282 117.797 55.7552L117.791 55.7507L116.522 54.7796C116.463 54.7346 116.414 54.6784 116.376 54.6142C116.339 54.55 116.315 54.4791 116.305 54.4056C116.295 54.332 116.3 54.2573 116.319 54.1856C116.338 54.1139 116.372 54.0467 116.417 53.9878C116.462 53.929 116.518 53.8796 116.582 53.8425C116.647 53.8054 116.718 53.7813 116.791 53.7717C116.865 53.7621 116.939 53.767 117.011 53.7863C117.083 53.8056 117.15 53.8388 117.208 53.8841L118.03 54.5147L119.973 51.9796C120.018 51.9208 120.074 51.8715 120.138 51.8345C120.202 51.7974 120.273 51.7733 120.347 51.7636C120.42 51.7539 120.495 51.7588 120.566 51.7779C120.638 51.7971 120.705 51.8301 120.763 51.8752L120.752 51.892L120.764 51.8753C120.882 51.9664 120.96 52.1009 120.98 52.2491C120.999 52.3974 120.959 52.5474 120.868 52.6661L118.583 55.6466C118.53 55.7153 118.463 55.7708 118.385 55.809C118.307 55.8471 118.221 55.8669 118.135 55.8666L118.134 55.8673Z" fill="white"/>
<path d="M124.624 76.923C124.624 77.6325 124.485 78.3351 124.214 78.9907C123.943 79.6462 123.545 80.2419 123.043 80.7438C122.542 81.2456 121.947 81.6437 121.292 81.9153C120.636 82.187 119.934 82.3268 119.225 82.3269C119.178 82.3278 119.132 82.326 119.086 82.3214C118.024 82.2941 116.994 81.9542 116.124 81.3442C115.254 80.7342 114.584 79.8812 114.196 78.8919C113.809 77.9026 113.722 76.8209 113.946 75.7823C114.17 74.7437 114.695 73.7942 115.456 73.0527C116.216 72.3112 117.179 71.8106 118.223 71.6135C119.266 71.4164 120.345 71.5317 121.324 71.9448C122.302 72.3579 123.137 73.0505 123.724 73.936C124.311 74.8215 124.624 75.8605 124.624 76.923Z" fill="#DCE1E4"/>
<path d="M118.669 105.442C121.651 105.442 124.069 103.024 124.069 100.04C124.069 97.0569 121.651 94.6383 118.669 94.6383C115.686 94.6383 113.269 97.0569 113.269 100.04C113.269 103.024 115.686 105.442 118.669 105.442Z" fill="#DCE1E4"/>
<path d="M187.778 37.2734H176.677C175.866 37.2734 175.089 36.9513 174.516 36.3781C173.943 35.8048 173.621 35.0273 173.621 34.2166V26.0145C173.621 25.9786 173.631 25.9434 173.65 25.913C173.669 25.8826 173.697 25.8582 173.729 25.8425C173.761 25.8269 173.797 25.8207 173.833 25.8246C173.869 25.8286 173.903 25.8425 173.931 25.8648L187.897 36.9326C187.928 36.9572 187.951 36.9909 187.962 37.029C187.973 37.0671 187.972 37.1077 187.959 37.1451C187.946 37.1826 187.921 37.2151 187.889 37.2381C187.857 37.261 187.818 37.2734 187.778 37.2734Z" fill="#D9DDFF"/>
<path d="M124.624 76.9228C124.624 77.6323 124.485 78.3349 124.214 78.9905C123.943 79.6461 123.545 80.2418 123.043 80.7436C122.542 81.2454 121.947 81.6435 121.292 81.9151C120.636 82.1868 119.934 82.3266 119.225 82.3267C119.178 82.3277 119.132 82.3258 119.086 82.3212C118.388 80.5805 118.119 78.6975 118.302 76.831C118.484 74.9646 119.112 73.1694 120.134 71.5968C121.39 71.8122 122.53 72.4649 123.351 73.4395C124.173 74.4141 124.624 75.6479 124.624 76.9228Z" fill="#22DDAB"/>
<path d="M130.741 74.3446C130.741 73.9391 130.903 73.5505 131.189 73.2638C131.476 72.9771 131.865 72.8157 132.27 72.8149H140.408C140.883 73.782 141.221 74.8108 141.412 75.8715H132.27C131.865 75.8714 131.476 75.7106 131.19 75.4243C130.903 75.1381 130.742 74.7498 130.741 74.3446Z" fill="#EDB726"/>
<path d="M141.6 77.9741C141.601 79.0065 141.464 80.0343 141.194 81.0307H132.269C131.864 81.0307 131.476 80.8697 131.189 80.5831C130.903 80.2964 130.742 79.9077 130.742 79.5024C130.742 79.0971 130.903 78.7084 131.189 78.4217C131.476 78.1351 131.864 77.9741 132.269 77.9741H141.6Z" fill="#EDB726"/>
<path d="M161.737 96.8246C161.506 97.2024 161.135 97.4732 160.705 97.5774C160.275 97.6816 159.822 97.6107 159.444 97.3802L139.98 85.5044C139.793 85.3902 139.63 85.2404 139.501 85.0634C139.372 84.8864 139.279 84.6856 139.228 84.4727C139.176 84.2597 139.167 84.0386 139.201 83.8221C139.234 83.6056 139.311 83.3979 139.425 83.2108C139.539 83.0237 139.689 82.8609 139.866 82.7317C140.042 82.6026 140.243 82.5095 140.456 82.4579C140.669 82.4063 140.89 82.3972 141.106 82.431C141.323 82.4649 141.531 82.541 141.718 82.6551L161.181 94.531C161.559 94.7615 161.83 95.1326 161.934 95.5627C162.038 95.9928 161.967 96.4467 161.737 96.8246Z" fill="#3F3D56"/>
<path d="M142.272 84.9487C140.898 87.2028 138.886 88.9986 136.491 90.1089C134.096 91.2193 131.426 91.5944 128.818 91.1867C126.21 90.779 123.782 89.607 121.84 87.8187C119.898 86.0305 118.53 83.7063 117.908 81.1402C117.287 78.5741 117.44 75.8813 118.349 73.4022C119.257 70.9232 120.88 68.7693 123.012 67.2129C125.144 65.6566 127.69 64.7676 130.327 64.6585C132.965 64.5494 135.575 65.225 137.828 66.5999C140.847 68.4464 143.01 71.4153 143.843 74.8551C144.676 78.295 144.111 81.925 142.272 84.9487ZM122.334 72.7831C121.303 74.4737 120.796 76.4321 120.878 78.4107C120.96 80.3893 121.626 82.2991 122.793 83.8988C123.96 85.4984 125.575 86.716 127.434 87.3976C129.293 88.0792 131.312 88.1941 133.235 87.7278C135.159 87.2616 136.902 86.2351 138.243 84.7781C139.584 83.3212 140.462 81.4993 140.768 79.5428C141.074 77.5863 140.792 75.583 139.96 73.7864C139.127 71.9897 137.781 70.4804 136.091 69.4492C133.824 68.0694 131.102 67.6456 128.523 68.2706C125.944 68.8956 123.718 70.5185 122.334 72.7831Z" fill="#3F3D56"/>
<path d="M185.032 80.1375C188.803 80.1375 191.861 77.0792 191.861 73.3065C191.861 69.5339 188.803 66.4756 185.032 66.4756C181.26 66.4756 178.203 69.5339 178.203 73.3065C178.203 77.0792 181.26 80.1375 185.032 80.1375Z" fill="#A0616A"/>
<path d="M184.59 111.601C184.458 111.191 184.415 110.757 184.463 110.329C184.51 109.9 184.648 109.487 184.866 109.115C185.084 108.744 185.379 108.422 185.73 108.172C186.081 107.923 186.481 107.75 186.904 107.666C187.038 107.639 187.174 107.623 187.31 107.616L194.503 96.067L187.932 89.8185C187.681 89.5798 187.48 89.2937 187.34 88.9767C187.2 88.6597 187.125 88.3181 187.117 87.9717C187.11 87.6252 187.172 87.2808 187.298 86.9583C187.425 86.6358 187.614 86.3415 187.855 86.0926C188.096 85.8436 188.384 85.6449 188.702 85.5078C189.02 85.3708 189.362 85.2982 189.709 85.2941C190.055 85.2901 190.399 85.3547 190.72 85.4843C191.041 85.6139 191.334 85.8059 191.58 86.0492L200.652 94.9974L200.671 95.0197C200.951 95.4469 201.087 95.9531 201.057 96.4634C201.027 96.9736 200.834 97.4607 200.505 97.8523L190.427 109.776C190.457 109.872 190.482 109.969 190.502 110.067C190.586 110.49 190.58 110.926 190.484 111.346C190.388 111.766 190.205 112.162 189.946 112.506C189.686 112.85 189.357 113.136 188.98 113.345C188.603 113.553 188.186 113.679 187.756 113.715C187.669 113.723 187.583 113.726 187.497 113.726C186.85 113.724 186.221 113.517 185.699 113.135C185.177 112.754 184.789 112.217 184.59 111.601Z" fill="#A0616A"/>
<path d="M168.324 162.584C166.041 135.688 164.682 110.702 173.03 100.509L173.094 100.43L187.142 106.052L187.165 106.102C187.213 106.205 191.885 116.485 190.795 123.399L194.26 139.344L205.558 158.267C205.649 158.42 205.706 158.589 205.727 158.766C205.747 158.942 205.73 159.121 205.676 159.29C205.622 159.459 205.533 159.614 205.414 159.746C205.295 159.878 205.15 159.983 204.988 160.055L200.078 162.216C199.801 162.336 199.49 162.353 199.201 162.263C198.913 162.173 198.666 161.982 198.507 161.725L186.217 141.678L179.275 126.301C179.238 126.218 179.173 126.149 179.093 126.106C179.012 126.062 178.92 126.047 178.829 126.061C178.739 126.076 178.656 126.12 178.593 126.186C178.53 126.253 178.49 126.338 178.48 126.429L174.632 162.612C174.6 162.919 174.455 163.204 174.225 163.411C173.996 163.617 173.697 163.732 173.388 163.731H169.571C169.258 163.729 168.957 163.611 168.726 163.399C168.496 163.187 168.352 162.896 168.324 162.584Z" fill="#2F2E41"/>
<path d="M173.077 100.723L173.01 100.69L173 100.617C172.475 96.9429 173.096 92.8607 174.846 88.4838C175.708 86.3416 177.311 84.5807 179.363 83.5217C181.415 82.4628 183.778 82.1764 186.023 82.7147C187.317 83.0334 188.529 83.6174 189.585 84.4295C190.641 85.2417 191.517 86.2643 192.157 87.4327C192.789 88.5891 193.174 89.8642 193.287 91.1771C193.401 92.4901 193.241 93.8123 192.817 95.0601C190.611 101.513 187.749 107.55 187.721 107.61L187.661 107.736L173.077 100.723Z" fill="#4353FF"/>
<path fill-rule="evenodd" clip-rule="evenodd" d="M185.153 93C185.244 93.268 185.31 93.54 185.348 93.8119C186.028 93.8862 186.62 94.1797 187.126 94.6962C187.709 95.3027 188 96.0363 188 96.8952C188 97.7501 187.709 98.4818 187.126 99.0883C186.537 99.6968 185.827 100 184.996 100C184.169 100 183.465 99.6968 182.882 99.0883C182.293 98.4799 182 97.7501 182 96.8952C182 96.7798 182.006 96.6643 182.015 96.5528C182.026 96.4139 182.044 96.277 182.066 96.142C182.174 95.649 182.363 95.1912 182.634 94.7725C182.92 94.346 183.278 93.9821 183.711 93.6789C184.148 93.3737 184.629 93.1467 185.153 93ZM185.098 95.9013C185.187 95.692 185.254 95.4788 185.301 95.2616C185.617 95.3222 185.895 95.4748 186.134 95.7233C186.446 96.0461 186.601 96.4374 186.601 96.8971C186.601 97.3569 186.446 97.7482 186.134 98.071C185.82 98.4016 185.439 98.566 184.994 98.566C184.55 98.566 184.171 98.4016 183.859 98.071C183.753 97.9614 183.664 97.846 183.594 97.7208C183.83 97.5623 184.048 97.3765 184.247 97.1671C184.623 96.7974 184.907 96.3767 185.098 95.9013ZM184.04 95.8368C184.114 95.7018 184.179 95.5648 184.232 95.4279C184.37 95.066 184.436 94.6982 184.428 94.3206C183.984 94.6082 183.63 94.9916 183.367 95.469C183.365 95.4768 183.361 95.4846 183.355 95.4925C183.088 95.9776 182.962 96.4824 182.975 97.0067C183.128 96.903 183.27 96.7895 183.403 96.6643C183.654 96.4276 183.868 96.1518 184.04 95.8368Z" fill="#D9DDFF"/>
<path d="M157.751 91.5715C158.089 91.3044 158.48 91.1117 158.898 91.0062C159.315 90.9007 159.751 90.8847 160.175 90.9593C160.6 91.0339 161.004 91.1973 161.361 91.4389C161.717 91.6806 162.019 91.9949 162.246 92.3613C162.318 92.4776 162.381 92.5988 162.435 92.724L175.768 95.4196L179.318 87.0749C179.454 86.7561 179.651 86.4673 179.899 86.2252C180.147 85.9831 180.44 85.7925 180.762 85.6645C181.084 85.5364 181.428 85.4734 181.774 85.4791C182.121 85.4848 182.462 85.5591 182.78 85.6977C183.097 85.8362 183.384 86.0364 183.624 86.2865C183.864 86.5366 184.052 86.8317 184.177 87.1548C184.302 87.478 184.362 87.8227 184.353 88.1691C184.344 88.5155 184.266 88.8567 184.125 89.173L178.923 100.807L178.909 100.832C178.607 101.244 178.18 101.549 177.692 101.699C177.204 101.85 176.68 101.839 176.198 101.669L161.504 96.401C161.425 96.4627 161.342 96.5202 161.257 96.5732C160.891 96.8003 160.481 96.9473 160.054 97.0047C159.627 97.0621 159.192 97.0285 158.779 96.9063C158.366 96.784 157.983 96.5757 157.656 96.2952C157.328 96.0146 157.064 95.668 156.88 95.2782C156.843 95.1995 156.809 95.1199 156.779 95.0393C156.555 94.4326 156.528 93.7706 156.703 93.1479C156.877 92.5251 157.244 91.9734 157.751 91.5715Z" fill="#A0616A"/>
<path d="M209.7 80.6217C209.042 79.4559 208.084 78.3881 206.817 77.9571C205.181 77.4006 203.409 77.9932 201.727 78.3888C200.431 78.6936 199.077 78.8802 197.771 78.623C196.464 78.3658 195.204 77.6053 194.61 76.4136C193.735 74.6604 194.472 72.5698 194.419 70.6112C194.391 69.5451 194.123 68.4991 193.632 67.552C193.142 66.6049 192.443 65.7816 191.589 65.1439C190.734 64.5063 189.746 64.071 188.699 63.871C187.651 63.6709 186.572 63.7113 185.543 63.989C183.932 63.524 182.474 63.481 181.478 64.7197C180.224 64.7197 179.022 65.2178 178.135 66.1045C177.249 66.9912 176.751 68.1938 176.751 69.4477H181.271C181.056 70.6005 181.301 71.7914 181.953 72.766C182.751 73.9385 184.138 74.7867 184.405 76.1797C184.664 77.5296 183.747 78.8104 182.784 79.7916C181.822 80.7728 180.706 81.745 180.406 83.0863C180.222 84.1044 180.431 85.1546 180.99 86.0246C181.549 86.884 182.243 87.648 183.044 88.2873C186.654 91.3813 190.945 93.5771 195.566 94.6953C198.82 95.479 202.379 95.6821 205.4 94.2404C206.609 93.6637 207.686 92.8446 208.564 91.8339C209.443 90.8232 210.104 89.6426 210.508 88.3654C210.911 87.0882 211.047 85.7418 210.908 84.4096C210.769 83.0775 210.358 81.7882 209.7 80.6217Z" fill="#2F2E41"/>
<path d="M58.4996 136.282C58.4211 136.303 58.3541 136.354 58.3133 136.425C58.2726 136.495 58.2614 136.579 58.2822 136.657L66.6518 168.07C66.6728 168.149 66.7241 168.216 66.7944 168.256C66.8648 168.297 66.9485 168.308 67.0271 168.288L90.7349 161.971C90.8134 161.95 90.8804 161.899 90.9212 161.828C90.962 161.758 90.9731 161.674 90.9523 161.596L82.5828 130.183C82.5618 130.104 82.5104 130.037 82.4401 129.996C82.3697 129.956 82.2861 129.944 82.2075 129.965L58.4996 136.282Z" fill="#D9DDFF"/>
<path d="M64.3245 141.47C63.9977 141.557 63.8298 141.995 63.9501 142.447C64.0704 142.898 64.4341 143.195 64.761 143.108L80.1711 139.002C80.4979 138.915 80.6658 138.477 80.5455 138.025C80.4252 137.574 80.0615 137.277 79.7346 137.364L64.3245 141.47Z" fill="white"/>
<path d="M1.09866 106.584C1.02697 106.623 0.973425 106.688 0.949785 106.766C0.926144 106.844 0.934336 106.928 0.972561 106.999L16.2834 135.677C16.3217 135.748 16.387 135.802 16.4648 135.826C16.5426 135.849 16.6266 135.841 16.6984 135.803L38.3417 124.247C38.4134 124.209 38.4669 124.144 38.4906 124.066C38.5142 123.988 38.506 123.904 38.4678 123.832L23.157 95.1551C23.1186 95.0834 23.0534 95.0298 22.9756 95.0062C22.8978 94.9825 22.8138 94.9907 22.742 95.029L1.09866 106.584Z" fill="#D9DDFF"/>
<path d="M3.11053 107.422L17.1215 133.665L36.33 123.409L22.319 97.1669L3.11053 107.422ZM1.89337 108.072L1.89606 108.071L1.89307 108.072L1.89337 108.072Z" fill="white"/>
<path d="M7.9541 110.307C7.65569 110.467 7.59215 110.932 7.81223 111.344C8.03232 111.756 8.45413 111.962 8.75253 111.803L22.8207 104.292C23.1191 104.133 23.1827 103.668 22.9626 103.255C22.7425 102.843 22.3207 102.637 22.0223 102.796L7.9541 110.307Z" fill="#DCE1E4"/>
<path d="M9.68701 113.554C9.3886 113.713 9.32506 114.178 9.54514 114.591C9.76523 115.003 10.187 115.209 10.4854 115.049L24.5536 107.538C24.852 107.379 24.9156 106.914 24.6955 106.502C24.4754 106.09 24.0536 105.884 23.7552 106.043L9.68701 113.554Z" fill="#DCE1E4"/>
<path d="M11.4209 116.8C11.1225 116.96 11.059 117.425 11.279 117.837C11.4991 118.249 11.9209 118.455 12.2193 118.296L26.2875 110.785C26.5859 110.625 26.6495 110.16 26.4294 109.748C26.2093 109.336 25.7875 109.13 25.4891 109.289L11.4209 116.8Z" fill="#DCE1E4"/>
<path d="M13.1533 120.047C12.8549 120.206 12.7914 120.671 13.0115 121.083C13.2315 121.496 13.6533 121.701 13.9517 121.542L28.0199 114.031C28.3183 113.872 28.3819 113.407 28.1618 112.995C27.9417 112.582 27.5199 112.376 27.2215 112.536L13.1533 120.047Z" fill="#DCE1E4"/>
<path d="M14.8872 123.293C14.5888 123.453 14.5253 123.918 14.7453 124.33C14.9654 124.742 15.3872 124.948 15.6856 124.789L29.7538 117.278C30.0522 117.118 30.1158 116.653 29.8957 116.241C29.6756 115.829 29.2538 115.623 28.9554 115.782L14.8872 123.293Z" fill="#DCE1E4"/>
<path d="M16.6201 126.54C16.3217 126.699 16.2582 127.164 16.4783 127.577C16.6983 127.989 17.1202 128.195 17.4186 128.035L31.4867 120.524C31.7851 120.365 31.8487 119.9 31.6286 119.488C31.4085 119.076 30.9867 118.87 30.6883 119.029L16.6201 126.54Z" fill="#DCE1E4"/>
</g>
<defs>
<clipPath id="clip0_1404_1199">
<rect width="211" height="172.971" fill="white" transform="translate(0 -1)"/>
</clipPath>
</defs>
</svg>
