<svg width="64" height="64" viewBox="0 0 64 64" fill="none" xmlns="http://www.w3.org/2000/svg">
<g clip-path="url(#clip0_786_1795)">
<path d="M10.5 7.56266V6.39599V2.99999H38.3547L39.7494 5.14533H39.8454V6.41333V7.77066V15.9787H43.6667H49.4121H53V22.7787V25.4453V35.2293H55.7894V25.4453V22.7787V15.9787V12.5627L43.2614 0.0333252H39.8454H7.95605V23.688H10.5V7.56266Z" fill="#4353FF"/>
<path d="M14.1711 28.9197L14.4596 28.7851V28.4667V25.6667C14.4596 25.0299 14.988 24.5 15.6397 24.5H22.3603C23.012 24.5 23.5404 25.0299 23.5404 25.6667V28.4667V28.7851L23.829 28.9197C24.3757 29.175 24.9054 29.4777 25.385 29.8107L25.6441 29.9906L25.918 29.8343L28.3708 28.4344C28.3708 28.4344 28.3708 28.4344 28.3708 28.4344C28.9276 28.1172 29.6602 28.3112 29.9733 28.8633L29.9732 28.8633L29.9762 28.8684L33.3365 34.6351L33.3375 34.6368C33.6665 35.1962 33.4808 35.9053 32.9135 36.2337C32.9134 36.2338 32.9133 36.2338 32.9132 36.2339L30.4783 37.6332L30.2119 37.7863L30.2281 38.0932L30.2305 38.1384L30.2305 38.1385C30.2466 38.4404 30.261 38.7138 30.261 39C30.261 39.2862 30.2466 39.5596 30.2305 39.8616L30.2305 39.8616L30.2281 39.9068L30.2118 40.2137L30.4783 40.3669L32.9132 41.7661C32.9135 41.7662 32.9137 41.7664 32.9139 41.7665C33.4809 42.0951 33.6664 42.8039 33.3375 43.3632L33.3365 43.3649L29.9762 49.1316L29.9762 49.1316L29.9733 49.1367C29.6602 49.6888 28.9276 49.8828 28.3708 49.5656C28.3708 49.5656 28.3708 49.5656 28.3708 49.5656L25.918 48.1657L25.6441 48.0094L25.385 48.1893C24.9054 48.5223 24.3757 48.825 23.829 49.0803L23.5404 49.2149V49.5333V52.3333C23.5404 52.9701 23.012 53.5 22.3603 53.5H15.6397C14.988 53.5 14.4596 52.9701 14.4596 52.3333V49.5333V49.2149L14.1711 49.0803C13.6243 48.825 13.0946 48.5223 12.615 48.1893L12.3559 48.0094L12.082 48.1657L9.63316 49.5634C9.63249 49.5637 9.63181 49.5641 9.63114 49.5645C9.05491 49.8846 8.33883 49.6871 8.02672 49.1367L8.02676 49.1367L8.02379 49.1316L4.6635 43.3649L4.66249 43.3632C4.33361 42.8039 4.51907 42.0952 5.08589 41.7666C5.08618 41.7664 5.08647 41.7663 5.08676 41.7661L7.52168 40.3669L7.78817 40.2137L7.77185 39.9068L7.76945 39.8615L7.76945 39.8615C7.75339 39.5595 7.73896 39.2862 7.73896 39C7.73896 38.7138 7.75339 38.4405 7.76945 38.1385L7.76945 38.1385L7.77185 38.0932L7.78817 37.7863L7.52168 37.6332L5.08676 36.2339C5.08659 36.2338 5.08641 36.2337 5.08624 36.2336C4.51915 35.9051 4.33354 35.1962 4.66249 34.6368L4.66349 34.6351L8.02379 28.8684L8.02382 28.8684L8.02672 28.8633C8.34345 28.3047 9.06063 28.1054 9.62637 28.4328L9.62895 28.4343L12.082 29.8343L12.3559 29.9906L12.615 29.8107C13.0946 29.4777 13.6243 29.175 14.1711 28.9197ZM19 44.5C22.0446 44.5 24.5404 42.0299 24.5404 39C24.5404 35.9701 22.0446 33.5 19 33.5C15.9554 33.5 13.4596 35.9701 13.4596 39C13.4596 42.0299 15.9554 44.5 19 44.5Z" fill="#EDB726" stroke="#4353FF"/>
<path d="M43.1751 41.4731L43.4636 41.3384V41.02V38.5C43.4636 37.9549 43.9164 37.5 44.4757 37.5H50.5243C51.0836 37.5 51.5364 37.9549 51.5364 38.5V41.02V41.3384L51.8249 41.4731C52.3146 41.7016 52.7888 41.9727 53.218 42.2707L53.4771 42.4506L53.751 42.2943L55.9584 41.0344C56.4362 40.7621 57.0647 40.9295 57.3325 41.4016L57.3324 41.4016L57.3354 41.4067L60.3597 46.5967L60.3607 46.5985C60.6426 47.0779 60.4838 47.6853 59.9972 47.9671C59.9971 47.9671 59.997 47.9672 59.9969 47.9672L57.8056 49.2265L57.5391 49.3796L57.5554 49.6865L57.5576 49.7272L57.5576 49.7273C57.572 49.9992 57.5849 50.244 57.5849 50.5C57.5849 50.756 57.572 51.0008 57.5576 51.2727L57.5576 51.2728L57.5554 51.3135L57.5391 51.6204L57.8056 51.7735L59.9969 53.0328C59.9971 53.0329 59.9973 53.033 59.9976 53.0332C60.4839 53.3151 60.6425 53.9222 60.3607 54.4015L60.3597 54.4033L57.3354 59.5933L57.3354 59.5932L57.3325 59.5984C57.0648 60.0704 56.4363 60.2378 55.9585 59.9656C55.9585 59.9656 55.9585 59.9656 55.9584 59.9656L53.751 58.7057L53.4771 58.5494L53.218 58.7293C52.7888 59.0273 52.3146 59.2984 51.8249 59.5269L51.5364 59.6616V59.98V62.5C51.5364 63.0451 51.0836 63.5 50.5243 63.5H44.4757C43.9164 63.5 43.4636 63.0451 43.4636 62.5V59.98V59.6616L43.1751 59.5269C42.6854 59.2984 42.2112 59.0273 41.782 58.7293L41.5229 58.5494L41.249 58.7057L39.0455 59.9634C39.0448 59.9637 39.0442 59.9641 39.0435 59.9645C38.5479 60.2396 37.9343 60.0688 37.6675 59.5984L37.6676 59.5983L37.6646 59.5933L34.6403 54.4033L34.6393 54.4015C34.3575 53.9223 34.5161 53.3152 35.0023 53.0333C35.0025 53.0331 35.0028 53.0329 35.0031 53.0328L37.1944 51.7735L37.4609 51.6204L37.4446 51.3135L37.4424 51.2727L37.4424 51.2727C37.428 51.0007 37.4151 50.756 37.4151 50.5C37.4151 50.244 37.428 49.9993 37.4424 49.7273L37.4424 49.7273L37.4446 49.6865L37.4609 49.3796L37.1944 49.2265L35.0031 47.9672C35.003 47.9671 35.0028 47.967 35.0026 47.9669C34.5162 47.6851 34.3574 47.0779 34.6393 46.5985L34.6403 46.5967L37.6646 41.4067L37.6646 41.4068L37.6675 41.4016C37.9389 40.9231 38.5536 40.7521 39.0387 41.0328L39.0413 41.0343L41.249 42.2943L41.5229 42.4506L41.782 42.2707C42.2112 41.9727 42.6854 41.7016 43.1751 41.4731ZM47.5 55.5C50.2674 55.5 52.5364 53.2549 52.5364 50.5C52.5364 47.7451 50.2674 45.5 47.5 45.5C44.7326 45.5 42.4636 47.7451 42.4636 50.5C42.4636 53.2549 44.7326 55.5 47.5 55.5Z" fill="#22DDAB" stroke="#4353FF"/>
</g>
<defs>
<clipPath id="clip0_786_1795">
<rect width="64" height="64" fill="white"/>
</clipPath>
</defs>
</svg>
