<svg width="64" height="64" viewBox="0 0 64 64" fill="none" xmlns="http://www.w3.org/2000/svg">
<path d="M59.3856 14.019L49.5045 4.13795C49.1322 3.7657 48.5294 3.7657 48.1571 4.13795L30.577 21.7175L19.9641 11.2755C19.9558 11.2672 19.945 11.2615 19.9361 11.2539C19.9012 11.2221 19.8637 11.1935 19.8237 11.1668C19.8047 11.1541 19.7869 11.1402 19.7672 11.1287C19.7202 11.102 19.67 11.0811 19.6179 11.062C19.6046 11.0576 19.5931 11.0493 19.5798 11.0449L5.20566 6.55375C4.86899 6.44894 4.49864 6.53914 4.24772 6.78942C3.99681 7.04034 3.90597 7.40941 4.01205 7.74736L8.5038 22.1208C8.53112 22.2079 8.57304 22.2879 8.62323 22.3629C8.63911 22.387 8.65817 22.4067 8.67595 22.4289C8.69946 22.4581 8.71851 22.4899 8.74519 22.516L19.3473 32.9472L4.13783 48.1572C3.76558 48.5295 3.76558 49.1323 4.13783 49.5046L14.0196 59.3869C14.1981 59.5654 14.4407 59.6658 14.6935 59.6658C14.9464 59.6658 15.1884 59.5654 15.3675 59.3869L30.7339 44.0206L43.1667 56.1034C43.3255 56.2565 43.525 56.3308 43.7289 56.3531C45.1709 57.6902 47.0309 58.4303 49.009 58.4303C51.0875 58.4303 53.0421 57.621 54.5114 56.1511C57.5053 53.1572 57.5389 48.3135 54.6238 45.2707C54.5775 45.1126 54.4949 44.9665 54.3742 44.8502L41.9051 32.8487L59.3862 15.367C59.7578 14.9941 59.7578 14.3913 59.3856 14.019ZM18.1175 12.5853L17.4054 15.0056L14.0856 15.9819C13.775 16.0734 13.5317 16.3161 13.4402 16.6273L12.4645 19.9464L10.0436 20.6585L6.37386 8.91556L18.1175 12.5853ZM14.6929 57.3656L6.15851 48.8306L9.74887 45.2402L14.0157 49.5071C14.2019 49.6932 14.4458 49.786 14.6897 49.786C14.9337 49.786 15.1776 49.6932 15.3637 49.5071C15.736 49.1349 15.736 48.532 15.3637 48.1598L11.0968 43.8929L14.5932 40.3966L18.8601 44.6634C19.0462 44.8496 19.2901 44.9423 19.534 44.9423C19.778 44.9423 20.0219 44.8496 20.208 44.6634C20.5803 44.2912 20.5803 43.6884 20.208 43.3161L15.9411 39.0492L20.7111 34.2793L29.3675 42.6923L14.6929 57.3656ZM53.1622 54.8031C51.0297 56.9343 47.6559 57.0798 45.3513 55.2446L53.6043 46.9916C55.4395 49.2969 55.294 52.6719 53.1622 54.8031ZM43.8204 54.0815L21.3063 32.2008L11.2366 22.2936L13.5012 21.6279C13.8118 21.5364 14.0551 21.2938 14.1466 20.9825L15.123 17.6634L18.4427 16.687C18.7533 16.5956 18.9966 16.3529 19.0881 16.0416L19.7627 13.7491L39.8654 33.5278L52.3535 45.549L43.8204 54.0815ZM40.5387 31.5198L31.9351 23.054L36.8258 18.1633L41.0927 22.4302C41.2788 22.6163 41.5227 22.7091 41.7667 22.7091C42.0106 22.7091 42.2545 22.6163 42.4406 22.4302C42.8129 22.0586 42.8129 21.4545 42.4406 21.0829L38.1738 16.816L42.1465 12.8432L46.4134 17.1101C46.5995 17.2962 46.8435 17.389 47.0874 17.389C47.3313 17.389 47.5752 17.2962 47.7614 17.1101C48.1336 16.7385 48.1336 16.1344 47.7614 15.7628L43.4945 11.4959L48.8317 6.15864L57.3649 14.693L40.5387 31.5198Z" fill="#4353FF"/>
<path d="M53.1624 54.8031C51.0299 56.9343 47.6562 57.0798 45.3516 55.2446L53.6046 46.9916C55.4397 49.2968 55.2943 52.6719 53.1624 54.8031Z" fill="#22DDAB"/>
<path d="M14.6931 57.3655L6.15869 48.8305L9.74904 45.2402L14.0159 49.507C14.202 49.6932 14.446 49.7859 14.6899 49.7859C14.9338 49.7859 15.1778 49.6932 15.3639 49.507C15.7361 49.1348 15.7361 48.532 15.3639 48.1597L11.097 43.8928L14.5934 40.3965L18.8602 44.6634C19.0464 44.8495 19.2903 44.9422 19.5342 44.9422C19.7781 44.9422 20.0221 44.8495 20.2082 44.6634C20.5805 44.2911 20.5805 43.6883 20.2082 43.316L15.9413 39.0492L20.7113 34.2792L29.3677 42.6922L14.6931 57.3655Z" fill="#EDB726"/>
<path d="M40.5392 31.5197L31.9355 23.0539L36.8262 18.1633L41.0931 22.4301C41.2792 22.6163 41.5232 22.709 41.7671 22.709C42.011 22.709 42.255 22.6163 42.4411 22.4301C42.8133 22.0585 42.8133 21.4544 42.4411 21.0828L38.1742 16.8159L42.147 12.8432L46.4138 17.11C46.6 17.2962 46.8439 17.3889 47.0878 17.3889C47.3318 17.3889 47.5757 17.2962 47.7618 17.11C48.1341 16.7384 48.1341 16.1343 47.7618 15.7627L43.4949 11.4958L48.8322 6.15857L57.3653 14.693L40.5392 31.5197Z" fill="#EDB726"/>
</svg>
