<svg width="64" height="64" viewBox="0 0 64 64" fill="none" xmlns="http://www.w3.org/2000/svg">
<g clip-path="url(#clip0_786_1814)">
<path d="M19.5731 26.7938C19.3556 26.61 19.0743 26.5 18.7681 26.5C18.0781 26.5 17.5181 27.06 17.5181 27.75C17.5181 28.1825 17.7381 28.5638 18.0718 28.7875C18.2706 28.9225 18.5106 29 18.7681 29C19.4581 29 20.0181 28.44 20.0181 27.75C20.0181 27.3663 19.8456 27.0238 19.5731 26.7938Z" fill="#4353FF"/>
<path fill-rule="evenodd" clip-rule="evenodd" d="M53.6992 20.9256L51.2631 21.715C53.7211 25.7911 55.0181 30.4572 55.0181 35.25C55.0181 49.7242 43.2423 61.5 28.7681 61.5C14.2938 61.5 2.51807 49.7242 2.51807 35.25C2.51807 20.7757 14.2937 8.99999 28.7681 8.99999C33.5606 8.99999 38.2267 10.2969 42.3027 12.7547L43.0924 10.319C38.7473 7.81749 33.8214 6.49999 28.7681 6.49999C12.8789 6.49999 0.0180664 19.3589 0.0180664 35.25C0.0180664 51.139 12.8769 64 28.7681 64C44.6572 64 57.5181 51.1411 57.5181 35.25C57.5181 30.1966 56.2006 25.2709 53.6992 20.9256ZM42.8663 19.3631C38.9712 15.8964 34.0123 14 28.7681 14C17.0508 14 7.51807 23.5327 7.51807 35.25C7.51807 46.9672 17.0508 56.5 28.7681 56.5C39.4304 56.5 48.4917 48.5312 49.8459 37.9599C50.6177 31.7796 48.7254 25.715 44.6354 21.1286L42.8647 22.9022C46.4062 26.9365 48.0408 32.2419 47.3658 37.6462C46.1713 46.9694 38.1762 54 28.7681 54C18.4293 54 10.0181 45.5887 10.0181 35.25C10.0181 24.9112 18.4293 16.5 28.7681 16.5C33.3452 16.5 37.6764 18.138 41.0966 21.1354L42.8663 19.3631ZM37.5557 24.6811C35.0888 22.6219 32.0128 21.5 28.7681 21.5C26.3496 21.5 24.1014 22.1032 21.8952 23.3442C21.2936 23.6827 21.0801 24.4449 21.4186 25.0466C21.7571 25.6482 22.5192 25.8617 23.1209 25.5232C24.9684 24.484 26.7628 24 28.7681 24C31.3451 24 33.7916 24.8671 35.7793 26.4601L37.5557 24.6811ZM32.2106 30.0339C31.1978 29.3615 30.0106 29.0001 28.7682 29.0001C25.3219 29.0001 22.5182 31.8039 22.5182 35.2501C22.5182 38.6964 25.3219 41.5001 28.7682 41.5001C32.2144 41.5001 35.0182 38.6964 35.0182 35.2501C35.0182 34.0041 34.6549 32.8141 33.9797 31.8001L32.1509 33.6311C32.3911 34.1301 32.5181 34.6802 32.5181 35.25C32.5181 37.3177 30.8358 39 28.7681 39C26.7003 39 25.0181 37.3177 25.0181 35.25C25.0181 33.1822 26.7003 31.5 28.7681 31.5C29.3357 31.5 29.8842 31.6261 30.3821 31.8647L32.2106 30.0339ZM37.5482 28.2265C39.1476 30.2165 40.0182 32.6674 40.0182 35.2501C40.0182 41.4534 34.9714 46.5001 28.7682 46.5001C22.5649 46.5001 17.5182 41.4534 17.5182 35.2501C17.5182 34.1751 17.6486 33.394 17.8444 32.552C18.0008 31.8796 17.5824 31.2077 16.9101 31.0514C16.2379 30.895 15.5659 31.3134 15.4094 31.9857C15.1316 33.1806 15.0182 34.1264 15.0182 35.2501C15.0182 42.8319 21.1864 49.0001 28.7682 49.0001C36.3499 49.0001 42.5182 42.8319 42.5182 35.2501C42.5182 31.9982 41.3919 28.917 39.3246 26.4475L37.5482 28.2265Z" fill="#4353FF"/>
<path fill-rule="evenodd" clip-rule="evenodd" d="M63.9109 9.67362C63.7515 9.22087 63.3469 8.89937 62.8699 8.84637L55.9089 8.07299L55.1355 1.11199C55.0824 0.633867 54.7597 0.228742 54.3055 0.0699916C53.8515 -0.0886334 53.3467 0.0272416 53.0072 0.368117C52.8553 0.520492 54.4277 -1.05763 43.0925 10.319L42.3028 12.7547L43.0197 19.2097L42.8664 19.3631L41.0967 21.1354L37.5558 24.6811L35.7794 26.4601L32.2107 30.0339L30.3822 31.8647L27.8835 34.3667C27.3958 34.8552 27.3963 35.6466 27.8848 36.1345C28.3708 36.6199 29.1623 36.6241 29.6525 36.1332L32.151 33.6311L33.9798 31.8001L37.5483 28.2265L39.3247 26.4475L42.8648 22.9022L44.6355 21.1286L44.77 20.994L51.2632 21.715L53.6993 20.9256L63.6103 10.9782C63.6051 10.9833 63.6021 10.9864 63.6179 10.9705C63.9564 10.6302 64.0704 10.1262 63.9109 9.67362ZM52.9239 3.99562L52.9388 3.98062L53.4683 8.74662L45.2834 16.943L44.7559 12.1914L52.9239 3.99562ZM47.0314 18.7296L51.827 19.2622C61.4355 9.62137 59.8349 11.2274 60.0169 11.0446L55.2367 10.5136C50.9974 14.7586 50.0041 15.7532 49.8186 15.9389L49.7836 15.974L47.0314 18.7296Z" fill="#EDB726"/>
<path d="M27.8847 36.1345C28.3707 36.6199 29.1622 36.6241 29.6524 36.1333L32.1509 33.6311C32.3911 34.1301 32.5181 34.6802 32.5181 35.25C32.5181 37.3177 30.8358 39 28.7681 39C26.7003 39 25.0181 37.3177 25.0181 35.25C25.0181 33.1823 26.7003 31.5 28.7681 31.5C29.3357 31.5 29.8842 31.6261 30.3821 31.8647L27.8834 34.3667C27.3957 34.8552 27.3962 35.6466 27.8847 36.1345Z" fill="#22DDAB"/>
</g>
<defs>
<clipPath id="clip0_786_1814">
<rect width="64" height="64" fill="white"/>
</clipPath>
</defs>
</svg>
