<svg width="64" height="64" viewBox="0 0 64 64" fill="none" xmlns="http://www.w3.org/2000/svg">
<path d="M56.1368 21.6991L56.1368 21.6992L56.1446 21.7013C56.2976 21.7444 56.4237 21.8672 56.4741 22.0235C56.5237 22.1772 56.4932 22.3557 56.3936 22.4852L56.3929 22.4861L55.4129 23.7661L55.3057 23.9061L55.3101 24.0824L55.3501 25.6924L55.3502 25.6952C55.3551 25.8584 55.2834 26.0115 55.147 26.1148C55.0582 26.176 54.9502 26.21 54.8499 26.21C54.8019 26.21 54.7496 26.2015 54.6908 26.1801L54.6908 26.1801L54.6873 26.1789L53.1673 25.6389L52.9999 25.5794L52.8326 25.6389L51.3127 26.1788C51.3127 26.1788 51.3126 26.1789 51.3126 26.1789C51.1613 26.2325 50.9927 26.2108 50.8527 26.1146C50.7164 26.0113 50.6448 25.8583 50.6497 25.6952L50.6498 25.6924L50.6898 24.0824L50.6942 23.9061L50.5869 23.7661L49.6069 22.4861L49.6063 22.4852C49.5067 22.3557 49.4762 22.1772 49.5258 22.0235C49.5762 21.8672 49.7023 21.7444 49.8553 21.7013L49.8553 21.7014L49.8631 21.6991L51.403 21.2391L51.5726 21.1884L51.6726 21.0424L52.5803 19.7157C52.6606 19.6034 52.8128 19.525 52.9999 19.525C53.1871 19.525 53.3393 19.6034 53.4195 19.7157L54.3273 21.0424L54.4272 21.1884L54.5968 21.2391L56.1368 21.6991Z" fill="#EDB726" stroke="#4353FF"/>
<path d="M47 55H42C41.45 55 41 55.45 41 56C41 56.55 41.45 57 42 57H47C47.55 57 48 56.55 48 56C48 55.45 47.55 55 47 55Z" fill="#4353FF"/>
<path d="M60.9945 45.999C60.9945 45.999 60.9947 45.9991 60.9951 45.9994L60.9945 45.999ZM47.0001 46H60.9955L57.4989 50.3757L57 51L57.4989 51.6243L60.9955 56H52.0001H51.0001V52V51H50.0001H47.0001V50V46ZM17.0001 50V51H14.0001H13.0001V52V56H12.0001H3.0047L6.5013 51.6243L7.00014 51L6.5013 50.3757L3.0047 46H17.0001V50ZM3.00572 56.001C3.00571 56.001 3.00548 56.0009 3.00508 56.0006L3.00572 56.001ZM3.00572 45.999C3.00574 45.9991 3.00554 45.9992 3.00508 45.9994L3.00572 45.999Z" stroke="#4353FF" stroke-width="2"/>
<path d="M50.1385 10.4296L50.1385 10.4296L50.1446 10.4313C50.3034 10.476 50.4237 10.5922 50.4727 10.7492L50.4727 10.7492L50.4741 10.7535C50.5219 10.9018 50.4971 11.0733 50.3906 11.2191L49.014 13.0048L48.9054 13.1455L48.9101 13.3232L48.9701 15.5932L48.9702 15.5952C48.9751 15.7584 48.9034 15.9115 48.767 16.0148C48.6782 16.076 48.5702 16.11 48.4699 16.11C48.4219 16.11 48.3696 16.1015 48.3108 16.0801L48.3073 16.0789L46.1673 15.3189L45.9999 15.2594L45.8326 15.3189L43.6927 16.0788C43.6927 16.0788 43.6927 16.0788 43.6926 16.0789C43.5413 16.1325 43.3727 16.1108 43.2327 16.0146C43.0964 15.9114 43.0248 15.7583 43.0297 15.5952L43.0298 15.5932L43.0898 13.3232L43.0945 13.1455L42.9859 13.0048L41.6093 11.2191C41.5028 11.0733 41.478 10.9018 41.5258 10.7535L41.5272 10.7492C41.5762 10.5922 41.6965 10.476 41.8553 10.4313L41.8553 10.4314L41.8614 10.4296L44.0314 9.7896L44.2027 9.73907L44.3032 9.59142L45.5806 7.7153C45.6609 7.60319 45.813 7.52502 45.9999 7.52502C46.1869 7.52502 46.339 7.60319 46.4193 7.7153L47.6966 9.59142L47.7972 9.73907L47.9685 9.7896L50.1385 10.4296Z" fill="#EDB726" stroke="#4353FF"/>
<path d="M37 55H32C31.45 55 31 55.45 31 56C31 56.55 31.45 57 32 57H37C37.55 57 38 56.55 38 56C38 55.45 37.55 55 37 55Z" fill="#4353FF"/>
<path d="M34.0676 5.13285L34.1684 5.27979L34.3394 5.32987L37.1344 6.14841C37.3054 6.20302 37.4258 6.32639 37.4734 6.4714C37.5246 6.63775 37.4923 6.80696 37.3936 6.93517L37.3933 6.93567L35.6133 9.25566L35.5053 9.3964L35.5101 9.57372L35.5901 12.4937L35.5902 12.4952C35.5951 12.6583 35.5135 12.8218 35.3861 12.9155C35.2951 12.9809 35.1988 13.01 35.0899 13.01C35.0367 13.01 34.9747 12.9997 34.9208 12.9801L34.9178 12.979L32.1678 11.999L32.0003 11.9393L31.8326 11.9989L29.0726 12.9789L29.0726 12.9788L29.0678 12.9806C28.9299 13.0312 28.7529 13.0115 28.6114 12.9137C28.4854 12.8197 28.4048 12.6573 28.4097 12.4952L28.4098 12.4937L28.4898 9.57372L28.4946 9.3964L28.3866 9.25566L26.6066 6.93567L26.6063 6.93517C26.5076 6.80696 26.4753 6.63776 26.5265 6.4714C26.574 6.32639 26.6945 6.20302 26.8654 6.14841L29.6605 5.32987L29.8315 5.27979L29.9323 5.13285L31.5923 2.71285L31.5924 2.71264C31.6671 2.60365 31.8146 2.52502 31.9999 2.52502C32.1853 2.52502 32.3328 2.60365 32.4075 2.71264L32.4076 2.71285L34.0676 5.13285Z" fill="#EDB726" stroke="#4353FF"/>
<path d="M27 55H17C16.45 55 16 55.45 16 56C16 56.55 16.45 57 17 57H27C27.55 57 28 56.55 28 56C28 55.45 27.55 55 27 55Z" fill="#4353FF"/>
<path d="M29.2129 26.1324L29.5 25.9973V25.68V24C29.5 23.7261 29.7262 23.5 30 23.5H34C34.2739 23.5 34.5 23.7261 34.5 24V25.68V25.9973L34.7871 26.1324C35.1026 26.2809 35.4077 26.4567 35.6833 26.6496L35.9438 26.832L36.2194 26.6734L37.6791 25.8336C37.6792 25.8335 37.6793 25.8335 37.6793 25.8334C37.6793 25.8334 37.6794 25.8334 37.6794 25.8334C37.9141 25.6988 38.2238 25.7832 38.3543 26.0151L38.3542 26.0151L38.3572 26.0202L40.3572 29.4802L40.3582 29.4819C40.4992 29.7237 40.4193 30.0271 40.1786 30.1678C40.1784 30.1679 40.1783 30.168 40.1781 30.1681L38.7294 31.0074L38.4646 31.1607L38.4807 31.4663L38.4822 31.4934L38.4822 31.4935C38.4918 31.6754 38.5 31.8343 38.5 32C38.5 32.1657 38.4918 32.3246 38.4822 32.5065L38.4822 32.5066L38.4807 32.5337L38.4646 32.8393L38.7294 32.9926L40.1781 33.8319C40.1782 33.832 40.1784 33.832 40.1785 33.8321C40.4193 33.9728 40.4992 34.2763 40.3582 34.5181L40.3572 34.5198L38.3572 37.9798L38.3571 37.9798L38.3543 37.9849C38.2237 38.2169 37.9138 38.3013 37.6791 38.1664L36.2194 37.3266L35.9438 37.168L35.6833 37.3504C35.4077 37.5433 35.1026 37.7191 34.7871 37.8676L34.5 38.0027V38.32V40C34.5 40.2739 34.2739 40.5 34 40.5H30C29.7262 40.5 29.5 40.2739 29.5 40V38.32V38.0027L29.2129 37.8676C28.8975 37.7191 28.5923 37.5433 28.3168 37.3504L28.0563 37.168L27.7807 37.3266L26.3231 38.1652C26.0757 38.3031 25.7755 38.2153 25.6458 37.9849L25.6459 37.9849L25.6429 37.9798L23.6429 34.5198L23.6419 34.5181C23.5009 34.2764 23.5808 33.9729 23.8215 33.8322C23.8216 33.8321 23.8218 33.832 23.822 33.8319L25.2707 32.9926L25.5355 32.8393L25.5194 32.5337L25.5179 32.5065L25.5179 32.5065C25.5083 32.3246 25.5 32.1657 25.5 32C25.5 31.8343 25.5083 31.6754 25.5179 31.4935L25.5179 31.4935L25.5194 31.4663L25.5355 31.1607L25.2707 31.0074L23.822 30.1681C23.8218 30.168 23.8217 30.1679 23.8215 30.1678C23.5808 30.0271 23.5009 29.7237 23.6419 29.4819L23.6429 29.4802L25.6429 26.0202L25.643 26.0202L25.6458 26.0151C25.7801 25.7765 26.0812 25.6937 26.3181 25.8319L26.3207 25.8334L27.7807 26.6734L28.0563 26.832L28.3168 26.6496C28.5923 26.4567 28.8975 26.2809 29.2129 26.1324ZM32 35.5C33.9262 35.5 35.5 33.9261 35.5 32C35.5 30.0739 33.9262 28.5 32 28.5C30.0739 28.5 28.5 30.0739 28.5 32C28.5 33.9261 30.0739 35.5 32 35.5Z" fill="#22DDAB" stroke="#4353FF"/>
<path d="M17 32C17 40.27 23.73 47 32 47C40.27 47 47 40.27 47 32C47 23.73 40.27 17 32 17C23.73 17 17 23.73 17 32ZM45 32C45 39.17 39.17 45 32 45C24.83 45 19 39.17 19 32C19 24.83 24.83 19 32 19C39.17 19 45 24.83 45 32Z" fill="#4353FF"/>
<path d="M13.5258 10.7535L13.5272 10.7492C13.5762 10.5922 13.6965 10.476 13.8553 10.4313L13.8553 10.4314L13.8614 10.4296L16.0314 9.7896L16.2017 9.73936L16.3022 9.59292L17.5922 7.71292L17.5924 7.71264C17.6671 7.60365 17.8146 7.52502 17.9999 7.52502C18.1853 7.52502 18.3328 7.60365 18.4075 7.71264L18.4077 7.71292L19.6977 9.59292L19.7982 9.73936L19.9685 9.7896L22.1385 10.4296L22.1385 10.4296L22.1446 10.4313C22.3034 10.476 22.4236 10.5922 22.4727 10.7492L22.4727 10.7492L22.4741 10.7535C22.5219 10.9018 22.4971 11.0733 22.3906 11.2191L21.014 13.0048L20.9054 13.1455L20.9101 13.3232L20.9701 15.5932L20.9702 15.5952C20.9751 15.7584 20.9034 15.9115 20.767 16.0148C20.6782 16.076 20.5702 16.11 20.4699 16.11C20.4219 16.11 20.3696 16.1015 20.3108 16.0801L20.3073 16.0789L18.1673 15.3189L17.9999 15.2594L17.8326 15.3189L15.6927 16.0788C15.6927 16.0788 15.6927 16.0788 15.6926 16.0789C15.5413 16.1325 15.3727 16.1108 15.2327 16.0146C15.0964 15.9114 15.0248 15.7583 15.0297 15.5952L15.0298 15.5932L15.0898 13.3232L15.0945 13.1455L14.9859 13.0048L13.6093 11.2191C13.5028 11.0733 13.478 10.9018 13.5258 10.7535Z" fill="#EDB726" stroke="#4353FF"/>
<path d="M11.4075 19.7126L11.4075 19.7126L11.4088 19.7145L12.3288 21.0445L12.4286 21.1889L12.5969 21.2391L14.1369 21.6991L14.1368 21.6992L14.1446 21.7013C14.2976 21.7444 14.4237 21.8672 14.4741 22.0235C14.5237 22.1772 14.4932 22.3557 14.3937 22.4852L14.393 22.4861L13.413 23.7661L13.3057 23.9061L13.3101 24.0824L13.3501 25.6924L13.3502 25.6952C13.3551 25.8584 13.2834 26.0115 13.147 26.1148C13.0582 26.176 12.9502 26.21 12.85 26.21C12.8019 26.21 12.7496 26.2015 12.6908 26.1801L12.6908 26.1801L12.6873 26.1789L11.1673 25.6389L11 25.5794L10.8326 25.6389L9.31274 26.1788C9.1614 26.2325 8.9927 26.2109 8.85269 26.1146C8.71643 26.0113 8.64477 25.8583 8.64972 25.6952L8.64979 25.6924L8.68979 24.0824L8.69417 23.9061L8.58695 23.7661L7.60695 22.4861L7.60626 22.4852C7.5067 22.3557 7.47624 22.1772 7.5258 22.0235C7.57624 21.8672 7.7023 21.7444 7.85532 21.7013L7.85534 21.7014L7.86305 21.6991L9.40305 21.2391L9.57127 21.1889L9.67115 21.0445L10.5912 19.7145L10.5912 19.7145L10.5924 19.7126C10.6671 19.6037 10.8146 19.525 11 19.525C11.1853 19.525 11.3328 19.6037 11.4075 19.7126Z" fill="#EDB726" stroke="#4353FF"/>
</svg>
