<svg width="64" height="64" viewBox="0 0 64 64" fill="none" xmlns="http://www.w3.org/2000/svg">
<path d="M22 47.9999C22 47.2043 22.3161 46.4412 22.8787 45.8786C23.4413 45.316 24.2044 44.9999 25 44.9999H30.656L28.042 53.7129C28.0022 53.8459 27.9906 53.9857 28.0078 54.1235C28.025 54.2612 28.0707 54.3938 28.142 54.5129L31.142 59.5129C31.2309 59.6608 31.3565 59.7831 31.5067 59.8681C31.6569 59.953 31.8265 59.9976 31.999 59.9976C32.1715 59.9976 32.3411 59.953 32.4913 59.8681C32.6415 59.7831 32.7671 59.6608 32.856 59.5129L35.856 54.5129C35.9273 54.3938 35.973 54.2612 35.9902 54.1235C36.0074 53.9857 35.9958 53.8459 35.956 53.7129L33.344 44.9999H39C39.7956 44.9999 40.5587 45.316 41.1213 45.8786C41.6839 46.4412 42 47.2043 42 47.9999V61.9999H44V47.9999C43.9984 46.6743 43.4711 45.4035 42.5338 44.4662C41.5964 43.5288 40.3256 43.0015 39 42.9999H35.448C36.6438 42.2511 37.5634 41.1335 38.068 39.8159C38.5727 38.4983 38.6349 37.0524 38.2453 35.6963C37.8557 34.3403 37.0355 33.1478 35.9085 32.299C34.7815 31.4502 33.4089 30.9911 31.998 30.9911C30.5871 30.9911 29.2145 31.4502 28.0875 32.299C26.9605 33.1478 26.1403 34.3403 25.7507 35.6963C25.3611 37.0524 25.4233 38.4983 25.928 39.8159C26.4326 41.1335 27.3522 42.2511 28.548 42.9999H25C23.6744 43.0015 22.4036 43.5288 21.4662 44.4662C20.5289 45.4035 20.0016 46.6743 20 47.9999V61.9999H22V47.9999ZM33.915 53.8639L32 57.0559L30.085 53.8639L32 47.4799L33.915 53.8639ZM27.5 37.4999C27.5 36.6099 27.7639 35.7399 28.2584 34.9999C28.7529 34.2599 29.4557 33.6831 30.2779 33.3425C31.1002 33.0019 32.005 32.9128 32.8779 33.0864C33.7508 33.26 34.5526 33.6886 35.182 34.318C35.8113 34.9473 36.2399 35.7491 36.4135 36.622C36.5872 37.495 36.4981 38.3998 36.1575 39.222C35.8169 40.0443 35.2401 40.7471 34.5001 41.2416C33.76 41.736 32.89 41.9999 32 41.9999C30.8069 41.9986 29.6631 41.5241 28.8195 40.6805C27.9759 39.8368 27.5013 38.693 27.5 37.4999Z" fill="#4353FF"/>
<path d="M33.915 53.864L32 57.056L30.085 53.864L32 47.48L33.915 53.864Z" fill="#22DDAB"/>
<path d="M25.4259 16.75L24.2159 23.832C24.1847 24.0159 24.2055 24.2048 24.2761 24.3775C24.3466 24.5501 24.464 24.6996 24.6151 24.809C24.7661 24.9185 24.9447 24.9835 25.1308 24.9967C25.3168 25.01 25.5029 24.9709 25.6679 24.884L31.9999 21.543L38.3319 24.884C38.4969 24.9709 38.6829 25.01 38.869 24.9967C39.055 24.9835 39.2336 24.9185 39.3847 24.809C39.5357 24.6996 39.6531 24.5501 39.7237 24.3775C39.7942 24.2048 39.8151 24.0159 39.7839 23.832L38.5739 16.75L43.6999 11.736C43.8318 11.6055 43.9249 11.441 43.9687 11.2606C44.0124 11.0803 44.0051 10.8914 43.9476 10.715C43.8902 10.5386 43.7847 10.3816 43.6431 10.2617C43.5015 10.1418 43.3294 10.0636 43.1459 10.036L36.0639 8.99999L32.8999 2.55899C32.8079 2.40285 32.6768 2.27342 32.5195 2.18349C32.3622 2.09357 32.1841 2.04626 32.0029 2.04626C31.8217 2.04626 31.6436 2.09357 31.4863 2.18349C31.329 2.27342 31.1978 2.40285 31.1059 2.55899L27.9359 8.99999L20.8549 10.033C20.6714 10.0606 20.4992 10.1388 20.3576 10.2587C20.2161 10.3786 20.1106 10.5356 20.0531 10.712C19.9956 10.8884 19.9884 11.0773 20.0321 11.2576C20.0759 11.438 20.1689 11.6025 20.3009 11.733L25.4259 16.75ZM28.7449 10.9C28.9054 10.8766 29.0579 10.8145 29.1891 10.719C29.3203 10.6235 29.4262 10.4976 29.4979 10.352L31.9999 5.26599L34.4999 10.354C34.5715 10.4996 34.6775 10.6255 34.8087 10.721C34.9399 10.8165 35.0923 10.8786 35.2529 10.902L40.8529 11.719L36.7999 15.688C36.6842 15.801 36.5977 15.9404 36.5477 16.0942C36.4977 16.248 36.4858 16.4116 36.5129 16.571L37.4699 22.171L32.4699 19.53C32.3258 19.4545 32.1656 19.415 32.0029 19.415C31.8402 19.415 31.68 19.4545 31.5359 19.53L26.5359 22.171L27.4929 16.571C27.52 16.4116 27.5081 16.248 27.4581 16.0942C27.4081 15.9404 27.3216 15.801 27.2059 15.688L23.1499 11.719L28.7449 10.9Z" fill="#4353FF"/>
<path d="M28.7449 10.9C28.9055 10.8766 29.0579 10.8145 29.1891 10.719C29.3203 10.6235 29.4263 10.4976 29.4979 10.352L31.9999 5.26599L34.4999 10.354C34.5715 10.4996 34.6775 10.6255 34.8087 10.721C34.9399 10.8165 35.0923 10.8786 35.2529 10.902L40.8529 11.719L36.7999 15.688C36.6842 15.801 36.5977 15.9404 36.5477 16.0942C36.4977 16.248 36.4858 16.4116 36.5129 16.571L37.4699 22.171L32.4699 19.53C32.3258 19.4545 32.1656 19.415 32.0029 19.415C31.8402 19.415 31.68 19.4545 31.5359 19.53L26.5359 22.171L27.4929 16.571C27.52 16.4116 27.5081 16.248 27.4581 16.0942C27.4081 15.9404 27.3216 15.801 27.2059 15.688L23.1499 11.719L28.7449 10.9Z" fill="#EDB726"/>
<path d="M61.51 24.3371L57.11 22.0531L56.5 17.1141C56.4777 16.9278 56.4034 16.7515 56.2856 16.6055C56.1679 16.4594 56.0114 16.3494 55.834 16.2881C55.6567 16.2268 55.4657 16.2165 55.2829 16.2586C55.1 16.3007 54.9327 16.3934 54.8 16.5261L51.262 20.0261L46.391 19.0941C46.208 19.059 46.0188 19.0759 45.8449 19.1427C45.6709 19.2094 45.519 19.3235 45.4064 19.472C45.2938 19.6205 45.2249 19.7975 45.2075 19.983C45.1902 20.1685 45.225 20.3552 45.308 20.5221L47.526 24.9721L45.126 29.3361C45.036 29.4996 44.9935 29.6851 45.0034 29.8715C45.0132 30.058 45.0751 30.2379 45.182 30.391C45.2889 30.5441 45.4365 30.6642 45.6081 30.7377C45.7797 30.8112 45.9685 30.8353 46.153 30.8071L51.059 30.0571L54.447 33.6841C54.5745 33.8204 54.7376 33.9184 54.9178 33.9668C55.098 34.0153 55.2882 34.0124 55.4669 33.9584C55.6456 33.9044 55.8055 33.8015 55.9288 33.6613C56.052 33.5211 56.1335 33.3492 56.164 33.1651L56.981 28.2511L61.481 26.1301C61.6496 26.0505 61.7926 25.9255 61.8939 25.769C61.9951 25.6126 62.0507 25.431 62.0542 25.2446C62.0578 25.0583 62.0091 24.8747 61.9139 24.7145C61.8186 24.5543 61.6805 24.4239 61.515 24.3381L61.51 24.3371ZM55.652 26.6651C55.5059 26.734 55.3785 26.8373 55.281 26.9662C55.1835 27.095 55.1186 27.2456 55.092 27.4051L54.522 30.8351L52.159 28.3051C52.0654 28.2049 51.9522 28.1251 51.8265 28.0706C51.7007 28.0161 51.5651 27.988 51.428 27.9881C51.3775 27.988 51.327 27.992 51.277 28.0001L47.854 28.5221L49.531 25.4761C49.6092 25.3343 49.6517 25.1757 49.655 25.0139C49.6583 24.8521 49.6223 24.6919 49.55 24.5471L48 21.4371L51.4 22.0891C51.5595 22.1194 51.7239 22.1105 51.8792 22.0632C52.0344 22.0158 52.1758 21.9313 52.291 21.8171L54.758 19.3781L55.184 22.8211C55.2041 22.982 55.263 23.1356 55.3557 23.2687C55.4484 23.4018 55.5721 23.5104 55.716 23.5851L58.792 25.1851L55.652 26.6651Z" fill="#4353FF"/>
<path d="M55.652 26.6651C55.5058 26.734 55.3785 26.8373 55.281 26.9662C55.1834 27.095 55.1186 27.2456 55.092 27.4051L54.522 30.8351L52.159 28.3051C52.0654 28.2049 51.9522 28.1251 51.8264 28.0706C51.7007 28.0161 51.5651 27.988 51.428 27.9881C51.3774 27.988 51.3269 27.992 51.277 28.0001L47.854 28.5221L49.531 25.4761C49.6091 25.3343 49.6516 25.1757 49.655 25.0139C49.6583 24.8521 49.6223 24.6919 49.55 24.5471L48 21.4371L51.4 22.0891C51.5594 22.1194 51.7239 22.1105 51.8791 22.0631C52.0343 22.0158 52.1757 21.9313 52.291 21.8171L54.758 19.3781L55.184 22.8211C55.2041 22.982 55.263 23.1356 55.3557 23.2687C55.4484 23.4018 55.572 23.5104 55.716 23.5851L58.792 25.1851L55.652 26.6651Z" fill="#EDB726"/>
<path d="M2.57401 26.129L7.07401 28.25L7.89001 33.164C7.9206 33.3481 8.00211 33.52 8.12531 33.6602C8.24851 33.8004 8.40849 33.9033 8.58715 33.9573C8.76581 34.0113 8.95602 34.0142 9.13625 33.9657C9.31649 33.9173 9.47956 33.8193 9.60701 33.683L12.995 30.056L17.901 30.806C18.0856 30.8342 18.2743 30.8101 18.446 30.7366C18.6176 30.6631 18.7652 30.543 18.872 30.3899C18.9789 30.2368 19.0408 30.0569 19.0507 29.8704C19.0606 29.684 19.0181 29.4985 18.928 29.335L16.528 24.971L18.747 20.521C18.8301 20.3541 18.8649 20.1674 18.8475 19.9819C18.8301 19.7964 18.7613 19.6194 18.6487 19.4709C18.536 19.3224 18.3842 19.2083 18.2102 19.1416C18.0362 19.0748 17.847 19.0579 17.664 19.093L12.792 20.025L9.25401 16.525C9.12134 16.3923 8.95402 16.2996 8.77118 16.2575C8.58833 16.2155 8.39733 16.2257 8.22001 16.287C8.0427 16.3483 7.88621 16.4583 7.76844 16.6044C7.65066 16.7504 7.57636 16.9267 7.55401 17.113L6.94301 22.052L2.54301 24.336C2.37759 24.4218 2.23945 24.5522 2.14418 24.7124C2.04892 24.8726 2.00031 25.0562 2.00384 25.2425C2.00738 25.4289 2.06292 25.6105 2.16419 25.7669C2.26547 25.9234 2.40845 26.0484 2.57701 26.128L2.57401 26.129ZM8.33001 23.585C8.474 23.5103 8.59766 23.4017 8.69034 23.2686C8.78302 23.1355 8.84194 22.9819 8.86201 22.821L9.28801 19.378L11.754 21.817C11.8698 21.9308 12.0114 22.015 12.1667 22.0623C12.322 22.1097 12.4864 22.1188 12.646 22.089L16.046 21.437L14.496 24.547C14.4238 24.6918 14.3878 24.852 14.3911 25.0138C14.3944 25.1756 14.4369 25.3342 14.515 25.476L16.2 28.522L12.772 28C12.6118 27.9748 12.448 27.989 12.2945 28.0412C12.141 28.0935 12.0025 28.1823 11.891 28.3L9.52701 30.83L8.95801 27.4C8.93132 27.2404 8.86633 27.0898 8.76862 26.9609C8.67091 26.832 8.5434 26.7287 8.39701 26.66L5.25401 25.182L8.33001 23.585Z" fill="#4353FF"/>
<path d="M8.32991 23.5851C8.47389 23.5104 8.59755 23.4018 8.69024 23.2687C8.78292 23.1356 8.84183 22.982 8.86191 22.8211L9.28791 19.3781L11.7539 21.8171C11.8697 21.9309 12.0113 22.015 12.1666 22.0624C12.3219 22.1098 12.4863 22.1189 12.6459 22.0891L16.0459 21.4371L14.4959 24.5471C14.4237 24.6919 14.3876 24.8521 14.391 25.0139C14.3943 25.1757 14.4368 25.3343 14.5149 25.4761L16.1999 28.5221L12.7719 28.0001C12.6117 27.9749 12.4479 27.9891 12.2944 28.0413C12.1409 28.0936 12.0024 28.1824 11.8909 28.3001L9.52691 30.8301L8.95791 27.4001C8.93121 27.2405 8.86622 27.0899 8.76851 26.961C8.6708 26.8321 8.54329 26.7288 8.39691 26.6601L5.25391 25.1821L8.32991 23.5851Z" fill="#EDB726"/>
</svg>
