<svg width="1680" height="400" viewBox="0 0 1680 400" fill="none" xmlns="http://www.w3.org/2000/svg">
<g clip-path="url(#clip0_321_864)">
<path fill-rule="evenodd" clip-rule="evenodd" d="M339.165 98.8321C343.048 106.084 342.587 124.479 337.569 125.775C335.568 126.291 331.305 125.025 326.966 122.405L329.689 141.711H313.609L319.145 115.855C316.058 112.224 313.968 107.774 314.317 102.788C315.323 88.4196 335.283 91.5804 339.165 98.8321Z" fill="#915B3C"/>
<path fill-rule="evenodd" clip-rule="evenodd" d="M317.91 119.09C315.892 110.093 310.142 103.96 311.02 99.9384C311.606 97.2575 313.166 95.5903 315.701 94.9369C317.012 89.6217 321.241 87.361 328.387 88.1547C339.106 89.3452 345.649 93.806 342.823 103.622C340.226 103.622 337.091 102.681 332.755 104.293C331.38 104.805 330.396 106.392 329.804 109.053H327.844C325.943 105.895 324.068 104.734 322.22 105.571C320.371 106.408 319.951 108.442 320.959 111.672L319.994 119.09H317.91Z" fill="#191847"/>
<path fill-rule="evenodd" clip-rule="evenodd" d="M340.49 225.635C349.327 225.635 356.49 232.798 356.49 241.635V292.887C356.49 301.723 349.327 308.887 340.49 308.887H274C265.163 308.887 258 301.723 258 292.887V241.635C258 232.798 265.163 225.635 274 225.635H340.49ZM333.73 244.433H280.76C278.551 244.433 276.76 246.224 276.76 248.433V286.088C276.76 288.297 278.551 290.088 280.76 290.088H333.73C335.939 290.088 337.73 288.297 337.73 286.088V248.433C337.73 246.224 335.939 244.433 333.73 244.433Z" fill="#C5CFD6"/>
<path fill-rule="evenodd" clip-rule="evenodd" d="M422.926 305.53C409.716 289.365 400.779 277.382 396.112 269.579C388.122 256.219 381.583 244.331 379.52 239.79C374.599 228.961 390.848 223.891 394.526 228.942C400.093 236.586 411.98 260.643 430.19 301.11L422.926 305.53Z" fill="#B28B67"/>
<path fill-rule="evenodd" clip-rule="evenodd" d="M395.858 300.83L371.274 238.818C366.016 227.514 391.408 220.084 395.272 225.344C404.045 237.288 424.897 284.404 427.511 287.962L395.858 300.83Z" fill="#2026A2"/>
<path fill-rule="evenodd" clip-rule="evenodd" d="M330.326 288.317C335.107 281.327 352.506 257.815 361.996 248.096C364.723 245.303 367.384 242.622 369.901 240.124C377.382 232.7 392.393 245.287 384.923 252.047C366.319 268.881 339.168 291.599 336.9 293.625C333.721 296.465 327.321 292.71 330.326 288.317Z" fill="#915B3C"/>
<path fill-rule="evenodd" clip-rule="evenodd" d="M330.84 285.672C329.523 286.794 328.649 287.729 328.22 288.476C327.628 289.509 326.938 291.118 326.151 293.302C327.37 294.009 338.325 300.366 359.016 312.371C361.463 310.092 361.83 308.308 360.117 307.019C358.404 305.73 356.99 304.643 355.875 303.759L344.644 288.478C344.315 288.032 343.69 287.926 343.247 288.243C343.239 288.248 343.232 288.254 343.224 288.26L341.165 289.829C339.013 289.621 337.404 289.209 336.339 288.591C335.576 288.148 334.711 287.29 333.742 286.016C333.07 285.133 331.817 284.943 330.943 285.591C330.908 285.617 330.873 285.644 330.84 285.672Z" fill="#E4E4E4"/>
<path fill-rule="evenodd" clip-rule="evenodd" d="M416.991 303.812C416.41 305.471 416.119 306.739 416.119 307.615C416.119 308.826 416.32 310.592 416.723 312.915C418.125 312.915 430.721 312.915 454.512 312.915C455.494 309.662 454.927 307.906 452.812 307.646C450.696 307.387 448.938 307.153 447.539 306.944L430.286 299.236C429.782 299.011 429.19 299.237 428.965 299.741C428.961 299.75 428.957 299.76 428.953 299.769L427.953 302.199C425.995 303.115 424.403 303.572 423.179 303.572C422.302 303.572 421.13 303.259 419.663 302.634C418.647 302.2 417.472 302.672 417.039 303.688C417.021 303.729 417.005 303.77 416.991 303.812Z" fill="#E4E4E4"/>
<path fill-rule="evenodd" clip-rule="evenodd" d="M362.427 241.916C341.994 238.58 328.308 236.299 321.368 235.073C301.588 231.578 295.82 220.912 299.23 197.639H335.675C340.498 199.035 360.65 207.667 396.132 223.534C402.515 226.71 401.326 236.073 400.16 239.158C400.112 239.284 389.35 257.762 367.874 294.595L338.06 275.563L362.483 244.158C363.128 242.857 363.109 242.109 362.427 241.916Z" fill="#2B44FF"/>
<path fill-rule="evenodd" clip-rule="evenodd" d="M282.985 189.397L296.987 189.458C288.353 217.418 283.692 232.253 283.003 233.964C281.454 237.813 284.738 243.678 286.142 246.829C281.573 248.876 282.057 241.289 276.294 243.973C271.033 246.424 267.032 250.866 260.951 247.105C260.204 246.643 259.384 244.903 261.362 243.544C266.291 240.159 273.393 234.235 274.352 232.284C275.66 229.624 278.538 215.328 282.985 189.397ZM365.052 188.849L386.426 204.577C392.223 206.145 397.066 208.096 400.955 210.429C401.874 211.268 402.984 212.967 399.174 212.673C395.364 212.379 391.344 212.241 390.818 213.543C390.292 214.845 392.598 216.403 391.536 218.16C390.827 219.331 387.48 216.394 381.494 209.347L360.329 200.551L365.052 188.849Z" fill="#915B3C"/>
<path fill-rule="evenodd" clip-rule="evenodd" d="M322.793 130.527L328.587 129.53C350.08 148.134 358.903 183.879 385.248 202.811L378.905 210.69C333.195 205.027 321.873 161.426 322.793 130.527Z" fill="#2026A2"/>
<path fill-rule="evenodd" clip-rule="evenodd" d="M297.531 203.479C320.761 203.479 337.849 203.479 348.794 203.479C351.136 203.479 350.695 200.089 350.356 198.379C346.448 178.64 331.193 157.362 331.193 129.264L316.406 126.94C304.176 146.651 299.946 170.919 297.531 203.479Z" fill="#DDE3E9"/>
<path fill-rule="evenodd" clip-rule="evenodd" d="M315.293 126.941C315.793 126.941 316.252 126.972 316.668 127.035L321.297 127.3C334.446 171.953 338.167 201.893 332.462 217.121L332.286 217.578L291.938 217.579C289.547 223.165 287.26 227.864 285.076 231.677H274.082C273.047 198.153 281.001 169.699 297.944 146.315C295.796 145.697 294.095 144.254 292.842 141.987C287.437 132.215 289.389 126.835 295.165 125.066C300.94 123.298 306.091 126.941 315.293 126.941Z" fill="#1F28CF"/>
<path fill-rule="evenodd" clip-rule="evenodd" d="M306.911 217.578L291.938 217.578C294.726 211.063 297.654 203.342 300.723 194.415C301.993 205.053 304.055 212.774 306.911 217.578Z" fill="black" fill-opacity="0.1"/>
<path fill-rule="evenodd" clip-rule="evenodd" d="M1329.99 103.875C1326.11 111.126 1326.57 129.521 1331.59 130.817C1333.59 131.334 1337.85 130.068 1342.19 127.447L1339.47 146.754H1355.55L1350.01 120.898C1353.1 117.267 1355.19 112.816 1354.84 107.83C1353.83 93.4621 1333.88 96.6229 1329.99 103.875Z" fill="#B28B67"/>
<path fill-rule="evenodd" clip-rule="evenodd" d="M1361.85 103.047C1362.37 102.532 1362.65 101.795 1362.9 101.096C1363.15 100.37 1363.4 99.6367 1363.57 98.8809C1363.91 97.3708 1363.91 95.6342 1362.84 94.4616C1361.97 93.5213 1360.68 93.0995 1359.49 93.0078C1358.69 92.9467 1357.87 93.0583 1357.11 93.3095C1356.35 93.5587 1355.7 94.0554 1354.97 94.3636C1354.94 92.7363 1354.66 91.0335 1353.84 89.644C1353.05 88.307 1351.78 87.5568 1350.34 87.3583C1348.86 87.1546 1347.41 87.5011 1346.08 88.2179C1345.75 88.3974 1345.42 88.5854 1345.11 88.7983C1344.85 88.9765 1344.57 89.1912 1344.27 89.2636C1343.92 89.3446 1343.75 89.1455 1343.53 88.8941C1343.27 88.5994 1342.97 88.3398 1342.66 88.1096C1341.28 87.0922 1339.46 86.6738 1337.86 87.2837C1337.13 87.5647 1336.41 88.0419 1335.91 88.6995C1335.46 89.2856 1335.14 90.2154 1334.53 90.6238C1334.27 90.7972 1334.08 90.5675 1333.85 90.3978C1333.49 90.1427 1333.15 89.8612 1332.79 89.6131C1332.28 89.2645 1331.73 89.0038 1331.14 88.8673C1330.28 88.6675 1329.09 88.7143 1328.84 89.8455C1328.75 90.2704 1328.82 90.7248 1328.85 91.1529C1328.89 91.7407 1328.93 92.3283 1328.98 92.9153C1329.02 93.361 1329.07 93.7914 1329.16 94.2291C1329.2 94.4624 1329.34 94.8973 1329.24 95.1309C1329.12 95.4229 1328.54 95.2569 1328.29 95.267C1327.81 95.2872 1327.32 95.3725 1326.87 95.5806C1326.52 95.7418 1326.16 95.979 1326.01 96.3789C1325.92 96.6246 1325.94 96.8769 1325.99 97.1296C1326.04 97.4329 1325.98 97.5938 1325.94 97.8998C1325.29 97.5778 1323.03 96.8624 1322.74 98.0343C1322.65 98.4245 1322.86 98.8655 1323.03 99.1946C1323.32 99.7718 1323.69 100.299 1324.08 100.802C1324.89 101.852 1325.85 102.757 1326.89 103.532C1325.67 104.073 1325.36 105.669 1326.41 106.619C1326.87 107.039 1327.5 107.133 1328.08 107.106C1328.3 107.096 1328.61 107.014 1328.77 107.051C1328.87 107.071 1328.96 107.148 1329.09 107.157C1329.92 107.213 1330.85 107.014 1331.66 106.83C1333.1 106.503 1334.46 105.819 1335.57 104.778C1335.86 104.511 1336.09 104.357 1336.48 104.361C1336.81 104.365 1337.14 104.457 1337.48 104.466C1338.37 104.489 1339.17 104.052 1340 103.762C1340.05 104.881 1340.37 106.114 1340.83 107.121C1341.2 107.942 1341.98 108.061 1342.74 108.133C1345.19 108.363 1347.64 108.106 1350.09 108.11C1347.72 108.646 1345.27 108.867 1342.92 109.499C1341.86 109.784 1342.67 110.501 1343.12 110.998C1343.87 111.817 1344.43 112.831 1344.81 113.899C1345.97 112.385 1348.02 111.387 1349.83 111.852C1351.84 112.366 1353.25 115.084 1351.97 117.038C1351.23 118.172 1349.88 118.61 1348.76 119.097C1349.63 120.006 1349.85 121.349 1350.37 122.48C1350.63 123.038 1350.99 123.669 1351.57 123.863C1351.79 123.935 1352.04 123.941 1352.21 124.116C1352.42 124.333 1352.47 124.576 1352.74 124.762C1353.8 125.506 1355.47 125.448 1356.42 124.478C1357.27 123.6 1357.05 122.211 1356.33 121.321C1357.47 120.846 1359.54 120.235 1359.09 118.459C1361.56 118.295 1367.54 114.289 1364.23 111.362C1366.05 110.334 1367.72 107.821 1366.55 105.606C1365.65 103.9 1363.56 103.138 1361.85 103.047Z" fill="#191847"/>
<path fill-rule="evenodd" clip-rule="evenodd" d="M1384.61 230.677H1332.85L1326.07 313.929H1403.12L1384.61 230.677Z" fill="#C5CFD6"/>
<path fill-rule="evenodd" clip-rule="evenodd" d="M1384.61 230.677H1368.69L1359.16 313.929H1403.12L1384.61 230.677Z" fill="black" fill-opacity="0.1"/>
<path fill-rule="evenodd" clip-rule="evenodd" d="M1311.63 293.073L1319.35 289.547C1313.27 269.543 1308.29 255.42 1304.41 247.179C1297.76 233.067 1291.52 220.982 1288.9 216.725C1284.78 210.033 1277.61 212.357 1273.82 216.402C1268.3 213.105 1259.06 217.366 1259.07 222.109C1259.09 236.319 1272.03 303.288 1272.7 307.522C1273.38 311.755 1280.62 312.874 1281.04 307.536C1281.71 299.042 1282.96 269.64 1281.71 256.03C1281.2 250.421 1280.64 245.078 1280.1 240.31L1280.29 240.657C1287.1 252.929 1297.54 270.401 1311.63 293.073Z" fill="#B28B67"/>
<path fill-rule="evenodd" clip-rule="evenodd" d="M1318.79 278.439L1292.26 215.569C1285.91 205.341 1268.12 217.634 1270.29 223.565C1275.21 237.032 1300.23 280.634 1301.7 284.647L1318.79 278.439Z" fill="#1F28CF"/>
<path fill-rule="evenodd" clip-rule="evenodd" d="M1320.49 286.293C1321.88 287.534 1322.8 288.556 1323.27 289.36C1323.92 290.47 1324.7 292.187 1325.6 294.51C1324.4 295.186 1313.66 301.257 1293.35 312.725C1290.77 310.215 1290.32 308.332 1291.98 307.074C1293.65 305.817 1295.02 304.755 1296.1 303.889L1306.69 288.506C1307 288.057 1307.63 287.979 1308.09 288.333C1308.1 288.339 1308.11 288.346 1308.12 288.352L1310.27 290.098C1312.44 289.994 1314.04 289.646 1315.08 289.056C1315.83 288.633 1316.66 287.782 1317.58 286.501C1318.21 285.614 1319.47 285.48 1320.38 286.203C1320.42 286.232 1320.46 286.262 1320.49 286.293Z" fill="#E4E4E4"/>
<path fill-rule="evenodd" clip-rule="evenodd" d="M1282.99 304.826C1283.57 306.485 1283.86 307.753 1283.86 308.629C1283.86 309.84 1283.66 311.606 1283.26 313.929C1281.85 313.929 1269.26 313.929 1245.47 313.929C1244.48 310.676 1245.05 308.92 1247.17 308.66C1249.28 308.401 1251.04 308.167 1252.44 307.958L1269.69 300.25C1270.2 300.025 1270.79 300.251 1271.01 300.755C1271.02 300.765 1271.02 300.774 1271.03 300.783L1272.03 303.213C1273.98 304.129 1275.58 304.587 1276.8 304.587C1277.68 304.587 1278.85 304.274 1280.32 303.648C1281.33 303.214 1282.51 303.686 1282.94 304.702C1282.96 304.743 1282.97 304.784 1282.99 304.826Z" fill="#E4E4E4"/>
<path fill-rule="evenodd" clip-rule="evenodd" d="M1257.21 226.939C1257.21 244.776 1265.67 286.382 1265.67 290.31L1283.86 290.324C1281.2 253.199 1280.25 234.437 1281.03 234.037C1282.19 233.437 1328.63 238.683 1342.56 238.683C1362.65 238.683 1370.95 225.991 1371.63 202.479H1331.84C1323.74 203.347 1281.48 211.888 1265.79 214.825C1259.07 216.082 1257.21 222.026 1257.21 226.939Z" fill="#2B44FF"/>
<path fill-rule="evenodd" clip-rule="evenodd" d="M1272.1 163.141C1269.19 162.542 1262.11 157.261 1260.89 158.333C1259.08 159.92 1260.69 164.79 1262.59 167.213C1266.14 171.741 1269.07 173.289 1276.33 175.317C1280.13 176.378 1284.23 178.503 1288.64 181.693L1289.22 171.42L1279.01 165.797C1277.57 160.332 1275.86 157.582 1273.87 157.548C1272.33 156.834 1275 163.739 1272.1 163.141ZM1289.67 139.762C1291.55 143.092 1293.37 146.68 1292.41 147.707C1291.46 148.735 1289.07 147.303 1287.93 149.01C1287.17 150.148 1291.24 151.94 1300.15 154.386L1317.05 169.854L1325.66 160.62L1302.39 147.896C1298.52 143.303 1294.71 139.737 1290.96 137.198C1289.81 136.72 1287.8 136.432 1289.67 139.762Z" fill="#997659"/>
<path fill-rule="evenodd" clip-rule="evenodd" d="M1336.97 157.803C1328.82 157.72 1317.96 155.999 1306.37 148.631L1301.82 158.804C1309.81 166.751 1321.05 173.279 1330.88 172.999C1338.63 172.779 1342.59 163.39 1336.97 157.803Z" fill="#2026A2"/>
<path fill-rule="evenodd" clip-rule="evenodd" d="M1336.43 131.983C1335.4 145.188 1330.24 159.742 1326 174.12C1317.35 176.281 1302.85 173.733 1282.5 166.474C1277.45 176.941 1275.11 184.404 1275.49 188.861C1292.96 198.002 1307.92 202.077 1320.26 202.345C1319.86 209.675 1320.75 216.652 1323.74 223.027C1329.89 236.132 1365.9 223.995 1378.01 226.384C1385.6 201.707 1370.93 191.679 1370.92 175.889C1370.91 158.598 1357.05 131.983 1355.02 131.983H1336.43Z" fill="#1F28CF"/>
<path d="M1486.41 400.511C1475.27 391.1 1468.51 376.232 1470.28 361.758C1472.06 347.284 1483.04 333.978 1497.3 330.904C1511.55 327.83 1527.8 336.339 1532.13 350.264C1534.52 323.417 1537.26 295.446 1551.54 272.584C1564.46 251.883 1586.84 237.07 1611.1 234.42C1635.36 231.77 1660.91 241.779 1676.04 260.927C1691.17 280.075 1694.87 307.912 1684.27 329.896C1676.47 346.091 1662.09 358.143 1647.02 367.948C1598.33 399.365 1539.93 412.141 1482.56 403.925L1486.41 400.511Z" fill="#D9DDFF"/>
<path d="M1652.05 242.334C1632.03 258.638 1613.67 276.874 1597.22 296.776C1571.48 327.817 1550.66 362.619 1535.47 399.97C1534.36 402.695 1538.78 403.881 1539.88 401.186C1564.73 340.483 1604.41 286.979 1655.28 245.569C1657.57 243.709 1654.31 240.489 1652.05 242.334Z" fill="white"/>
<path d="M269.067 391.703C284.366 378.776 293.658 358.355 291.221 338.475C288.784 318.595 273.69 300.319 254.112 296.098C234.533 291.876 212.214 303.562 206.267 322.688C202.995 285.814 199.223 247.396 179.619 215.995C161.868 187.562 131.122 167.217 97.8012 163.577C64.4801 159.937 29.3972 173.684 8.61606 199.984C-12.1651 226.284 -17.2533 264.519 -2.69869 294.713C8.02316 316.956 27.7766 333.51 48.4733 346.977C114.503 389.943 196.412 407.862 274.351 396.392" fill="#D9DDFF"/>
<path d="M41.5671 174.446C69.0612 196.84 94.284 221.887 116.871 249.223C139.461 276.531 159.35 305.965 176.257 337.113C185.707 354.586 194.197 372.561 201.687 390.96C203.215 394.702 197.137 396.331 195.627 392.63C182.359 360.195 165.945 329.137 146.618 299.903C127.386 270.776 105.373 243.582 80.8894 218.705C67.0414 204.641 52.4306 191.35 37.1231 178.89C33.9855 176.335 38.4555 171.912 41.5671 174.446Z" fill="white"/>
</g>
<defs>
<clipPath id="clip0_321_864">
<rect width="1680" height="400" fill="white"/>
</clipPath>
</defs>
</svg>
