<?xml version="1.0" encoding="UTF-8"?>
<svg width="64px" height="56px" viewBox="0 0 64 56" version="1.1" xmlns="http://www.w3.org/2000/svg" xmlns:xlink="http://www.w3.org/1999/xlink">
    <!-- Generator: Sketch 49.2 (51160) - http://www.bohemiancoding.com/sketch -->
    <title>Group 22</title>
    <desc>Created with Sketch.</desc>
    <defs></defs>
    <g id="Landing-pages" stroke="none" stroke-width="1" fill="none" fill-rule="evenodd">
        <g id="Candidate-LP" transform="translate(-384.000000, -1219.000000)">
            <g id="Group-5" transform="translate(256.000000, 1100.000000)">
                <g id="Dedicated-Shortlisting-Support" transform="translate(0.000000, 112.000000)">
                    <g id="Group-22" transform="translate(125.000000, 0.000000)">
                        <path d="M7.54925538,16.5549855 C23.1614368,16.8113482 35.9783516,16.626353 46,16 C56.6666667,15.3333333 62.6666667,15.5 64,16.5 L65,34.5 C61.0656719,36.881142 58.0656719,38.2144754 56,38.5 C50.874461,39.2084705 45.5531231,37.4925557 41,37.5 C32.6725905,37.5136153 25.8538092,38.6935144 20,38.5 C9.010675,38.1367165 3.84400833,36.1367165 4.5,32.5 L4.50000199,19.5545791 C4.50000199,17.8977259 5.84314685,16.5545811 7.5,16.5545811 C7.51641929,16.5545811 7.53283831,16.5547159 7.54925538,16.5549855 Z" id="Path-6" fill="#EDB726"></path>
                        <polygon id="Path-4" fill="#22DDAB" points="31.5 33 31.5 41.5 40 41.5 40 33"></polygon>
                        <path d="M63.9796752,50.1390579 C63.7366752,54.1360579 63.6516752,57.1310579 59.0166752,58.1340579 C56.5876752,58.6600579 53.8226752,58.5550579 51.3416752,58.7250579 C45.9026752,59.0980579 40.4566752,59.3700579 35.0066752,59.5450579 C29.8766752,59.7090579 24.7456752,59.7860579 19.6136752,59.7760579 C17.1776752,59.7710579 14.7126752,59.8390579 12.2816752,59.6900579 C11.2036752,59.6230579 9.35867524,59.7810579 8.40167524,59.0910579 C6.41667524,57.6610579 5.65567524,54.5330579 5.39467524,52.3180579 C4.81267524,47.3930579 5.23367524,42.1150579 5.25267524,37.1300579 C6.87067524,38.4110579 9.31767524,38.8840579 11.6516752,39.1890579 C17.7186752,39.9820579 23.7756752,39.7700579 29.8046752,38.8860579 C29.8996752,39.7520579 30.0486752,40.5950579 30.2866752,41.3780579 C30.9706752,43.6230579 34.4346752,43.0230579 36.2446752,43.0940579 C37.8396752,43.1580579 40.9596752,43.9150579 41.4826752,41.7620579 C41.6746752,40.9730579 41.5986752,39.9650579 41.5056752,39.0060579 C46.9876752,39.7280579 52.2746752,40.1200579 57.7536752,39.0190579 C60.1706752,38.5330579 62.6016752,38.0810579 64.3426752,36.7180579 C64.3626752,41.1920579 64.2506752,45.6660579 63.9796752,50.1390579 Z M39.1686752,38.6180579 L39.2236752,40.1560579 C39.2286752,40.2970579 39.1916752,40.6100579 39.1916752,40.8600579 C38.9576752,40.8690579 38.6686752,40.9110579 38.5186752,40.9090579 C37.8866752,40.8980579 37.2546752,40.8820579 36.6236752,40.8600579 C35.6146752,40.8230579 34.6036752,40.7250579 33.5946752,40.7040579 C33.5216752,40.7030579 32.4536752,40.7780579 32.4566752,40.7800579 C32.2156752,40.5850579 32.2456752,39.1990579 32.2076752,38.8260579 C32.0226752,37.0380579 31.9726752,35.2470579 32.0136752,33.4540579 C34.3346752,33.3840579 36.6566752,33.3130579 38.9786752,33.2420579 L39.1686752,38.6180579 Z M23.3996752,15.2560579 C28.9006752,7.57605791 39.7296752,7.08205791 45.7776752,14.6020579 C44.2766752,14.6460579 42.7766752,14.6900579 41.2756752,14.7340579 C35.3166752,14.9080579 29.3586752,15.0820579 23.3996752,15.2560579 Z M65.723581,18.0177798 C65.681581,17.5387768 65.3945815,17.2337749 65.045582,17.0737739 C65.2505817,16.773772 65.2905816,16.3817695 65.0005821,15.981767 C63.3315846,13.6667524 60.9025882,14.1597556 58.2045923,14.238756 L48.4806069,14.5227578 C48.4476069,14.4247572 48.402607,14.3267566 48.3326071,14.226756 C41.2176178,4.18469276 26.8966393,4.65769574 20.6486487,15.336763 L7.4176686,15.7237654 C5.97367077,15.7657657 5.96767078,18.0157798 7.4176686,17.9737796 C16.7126546,17.7017778 26.0066407,17.4297761 35.3006267,17.1587744 C39.9476197,17.0227736 44.5946127,16.8867727 49.2426057,16.7507719 C51.8096019,16.6757714 61.4765874,14.9237604 63.058585,17.1177742 C63.1975848,17.3097754 63.3675845,17.4347762 63.5495842,17.5117767 C63.4895843,17.6557776 63.4555844,17.8197786 63.4735844,18.0177798 C63.9095837,22.9798111 64.1825833,27.9508424 64.2925831,32.9248737 C64.2895831,32.9348737 64.2845831,32.9438738 64.2805831,32.9538739 C63.1955848,36.627897 55.7775959,37.263901 52.8276004,37.4859024 C49.0296061,37.7719042 45.2326118,37.264901 41.4756174,36.7558978 C41.4316175,36.7498978 41.3956175,36.7648978 41.3536176,36.7638978 C41.2976177,35.202888 41.2426178,33.6438782 41.1876178,32.0828684 C41.1666179,31.4898646 40.6886186,30.9388612 40.0626195,30.9578613 C37.3436236,31.0408618 34.6256277,31.1238623 31.9076318,31.2078629 C31.8566319,31.2088629 31.8216319,31.232863 31.773632,31.2398631 C31.1816329,30.6608594 29.8666349,30.918861 29.8126349,32.019868 C29.7406351,33.458877 29.6466352,35.0598871 29.6706352,36.6528971 C24.5246429,37.4119019 5.43767158,39.6019157 5.65567125,32.823873 C5.66867123,32.4238705 5.49967148,32.1458688 5.25567185,31.9668676 C5.25567185,27.5658399 5.26967183,23.1638122 5.30567178,18.7637845 C5.31667176,17.3157754 3.06667514,17.3137754 3.05567516,18.7637845 C2.99667525,26.0008301 2.98167527,33.2378756 3.0246752,40.4749212 C3.04867517,44.421946 3.06367514,48.3709709 3.14467502,52.3179958 C3.18167497,54.1600073 2.97567528,56.2360204 3.77967407,57.9680313 C5.18067196,60.9880503 8.68666669,61.6810547 11.6836622,61.9170562 C18.7306516,62.4720597 26.0246406,62.049057 33.08263,61.8530558 C40.1366194,61.6570545 47.1846088,61.2950523 54.2215983,60.7680489 C57.3685935,60.5330475 63.5545842,61.4800534 65.4405814,58.3210335 C66.4685798,56.5990227 66.0435805,53.0310002 66.1705803,51.1119882 C66.4045799,47.5459657 66.5435797,43.9749432 66.5945797,40.4019207 C66.7015795,32.9258737 66.37758,25.4638267 65.723581,18.0177798 Z" id="Page-1" fill="#4353FF"></path>
                    </g>
                </g>
            </g>
        </g>
    </g>
</svg>