<?xml version="1.0" encoding="UTF-8"?>
<svg width="58px" height="49px" viewBox="0 0 58 49" version="1.1" xmlns="http://www.w3.org/2000/svg" xmlns:xlink="http://www.w3.org/1999/xlink">
    <!-- Generator: Sketch 49.2 (51160) - http://www.bohemiancoding.com/sketch -->
    <title>Group 22</title>
    <desc>Created with Sketch.</desc>
    <defs>
        <polygon id="path-1" points="1.64381301e-05 -0.000202890239 57.5157019 -0.000202890239 57.5157019 49.0497 1.64381301e-05 49.0497"></polygon>
    </defs>
    <g id="Landing-pages" stroke="none" stroke-width="1" fill="none" fill-rule="evenodd">
        <g id="Candidate-LP" transform="translate(-1235.000000, -1222.000000)">
            <g id="Group-5" transform="translate(256.000000, 1100.000000)">
                <g id="Dedicated-Shortlisting-Support-Copy" transform="translate(848.000000, 112.000000)">
                    <g id="Group-22" transform="translate(125.000000, 0.000000)">
                        <path d="M31.5,39.5 C24.7385923,38.6369156 19.905259,37.8035823 17,37 C14.094741,36.1964177 11.094741,34.8630844 8,33 C14,29.3333333 19,26.8333333 23,25.5 C27,24.1666667 38.5,20 57.5,13 L31.5,39.5 Z" id="Path-5" fill="#EDB726"></path>
                        <polygon id="Path-3" fill="#22DDAB" points="31 41.5 40 47.5 32 56"></polygon>
                        <g id="Page-1" transform="translate(6.000000, 10.000000)">
                            <mask id="mask-2" fill="white">
                                <use xlink:href="#path-1"></use>
                            </mask>
                            <g id="Clip-2"></g>
                            <path d="M47.5211,37.3431 C47.0901,39.2031 46.8571,44.5741 44.4251,44.4131 C43.0661,44.3231 39.1241,39.9191 38.0931,39.0901 C34.2241,35.9771 30.2291,33.0351 26.1441,30.2141 C35.6451,21.1561 45.1461,12.0981 54.6461,3.0401 C54.8101,2.9741 54.9741,2.9071 55.1381,2.8411 C52.7101,14.3661 50.1801,25.8691 47.5211,37.3431 M26.3641,44.4671 C26.2621,40.4211 25.9081,36.4001 25.3271,32.3891 C27.8461,34.1401 30.3221,35.9441 32.7541,37.8041 C30.3571,39.8041 28.2341,42.0171 26.3641,44.4671 M57.2241,1.6041 C57.5471,0.7851 56.9731,-0.3279 55.9741,0.0911 C37.9851,7.6261 18.5561,11.4521 1.4361,21.0501 C0.9711,21.3101 0.8331,21.7381 0.9031,22.1381 C0.1451,22.3521 -0.3889,23.3161 0.3621,23.9821 C5.4501,28.4931 13.7231,29.3831 20.2451,29.7341 C21.6911,29.8121 21.6871,27.5611 20.2451,27.4841 C14.7871,27.1901 7.2541,26.4591 2.6491,22.9511 C17.2581,14.7801 33.5651,10.8451 49.1881,5.1361 C40.4671,13.4501 31.7461,21.7661 23.0241,30.0801 C22.5421,30.5411 22.6211,31.1231 22.9461,31.5241 C23.8101,36.9731 24.2101,42.4351 24.1581,47.9541 C24.1471,49.1061 25.6681,49.4381 26.2551,48.5231 C28.5441,44.9471 31.2921,41.8921 34.5631,39.2011 C37.3721,41.4001 40.1321,43.6611 42.8341,46.0041 C44.5461,47.4891 46.1831,49.0641 47.6251,46.6471 C49.0991,44.1761 49.2681,39.7741 49.9121,36.9891 C50.7921,33.1761 51.6611,29.3611 52.5161,25.5431 C54.2261,17.9061 55.8781,10.2581 57.4881,2.6001 C57.5751,2.1881 57.4481,1.8481 57.2241,1.6041" id="Fill-1" fill="#4353FF" mask="url(#mask-2)"></path>
                        </g>
                    </g>
                </g>
            </g>
        </g>
    </g>
</svg>