<svg width="1680" height="720" viewBox="0 0 1680 720" fill="none" xmlns="http://www.w3.org/2000/svg">
<path d="M1526.77 383.91C1482.98 327.141 1462.71 271.485 1409.46 353.386C1385.49 328.066 1364.45 302.746 1349.11 278.863C1266.16 149.661 1182.76 229.216 1115.03 316.972C1047.3 404.728 969 563 969 563H1674C1674 563 1570.83 441.022 1526.77 383.91Z" fill="#F7F7F7"/>
<path d="M1292.38 468.135C1272.14 429.901 1262.84 392.39 1238.03 448.657C1214.44 502.171 1154 588 1154 588H1360C1360 588 1312.59 506.353 1292.38 468.135Z" fill="#F0F0F0"/>
<path opacity="0.1" d="M1644.2 259.939C1714.97 447.025 1475.41 542.354 1338.35 515.745C1283.91 505.191 1262.2 487.472 1208 504.76C1168.61 517.326 1148.09 560.997 1104.67 568.84C1009.47 586.046 942.7 497.205 920.949 418.075C898.419 335.948 916.197 282.852 999.927 243.082C1036.12 225.897 1074.85 237.169 1106.86 225.322C1172.65 201.013 1170.36 157.567 1209.64 113.28C1353.83 -49.3728 1579.95 90.0382 1644.2 259.939Z" fill="#FFF3D1"/>
<path d="M977.99 52.5403C978.936 52.5065 979.865 52.8029 980.628 53.3814C986.424 50.4474 993.151 48.687 998.777 48.8924C1001.09 48.8666 1003.38 49.4417 1005.42 50.5648C1011.59 46.1736 1019.55 43.0636 1025.42 43.0636C1028.75 43.0636 1030.86 44.0416 1031.66 45.7531C1038.05 42.8191 1044.67 41 1050.07 41C1058.66 41 1061.62 45.5966 1058.36 52.0513C1062.41 52.1589 1065.82 54.7115 1062.91 57H968C968.114 56.8533 968.228 56.7164 968.361 56.5697C970.963 54.0232 974.402 52.584 977.99 52.5403Z" fill="#FAFAFA"/>
<path d="M1059.85 126.992C1060.39 126.97 1060.93 127.061 1061.43 127.26C1061.94 127.458 1062.4 127.76 1062.78 128.146C1069.6 124.125 1077.39 121.649 1083.75 121.928C1086.39 121.909 1088.97 122.723 1091.13 124.255C1098.51 118.186 1107.73 113.867 1114.48 113.867C1118.17 113.867 1120.59 115.263 1121.35 117.59C1128.85 113.513 1136.53 111 1142.67 111C1150.27 111 1153.74 114.854 1152.94 120.774C1156.08 119.155 1159.52 118.222 1163.03 118.037C1167.09 118.037 1169.07 119.899 1168.86 123.045C1169.22 123.027 1169.58 123.027 1169.93 123.045C1176.13 123.548 1178.68 127.495 1175.85 132H1049C1051.82 128.955 1055.72 127.156 1059.85 126.992Z" fill="#FAFAFA"/>
<path d="M891.544 184.648C891.918 184.632 892.291 184.693 892.639 184.826C892.987 184.958 893.302 185.16 893.564 185.419C897.948 182.785 902.991 181.354 908.151 181.278C909.999 181.259 911.806 181.798 913.322 182.819C918.438 178.786 924.907 175.918 929.541 175.918C932.191 175.918 933.785 176.832 934.323 178.392C938.84 175.822 943.92 174.317 949.151 174C954.433 174 956.861 176.563 956.305 180.507C958.482 179.434 960.87 178.822 963.311 178.714C966.129 178.714 967.5 180.023 967.352 182.049H968.093C972.412 182.389 974.154 185.006 972.208 188H884C885.962 185.969 888.672 184.765 891.544 184.648Z" fill="#FAFAFA"/>
<path d="M1483 152C1511.17 152 1534 128.943 1534 100.5C1534 72.0573 1511.17 49 1483 49C1454.83 49 1432 72.0573 1432 100.5C1432 128.943 1454.83 152 1483 152Z" fill="#FFF3D1"/>
<path d="M1325.46 100.656C1327.3 100.596 1329.11 101.145 1330.6 102.215C1341.89 96.7139 1355 93.4316 1365.94 93.7983C1370.45 93.7601 1374.89 94.8378 1378.88 96.934C1390.89 88.7188 1406.41 82.8875 1417.84 82.8875C1424.32 82.8875 1428.45 84.7213 1430 87.912C1442.46 82.4108 1455.34 79 1465.85 79C1482.6 79 1488.37 87.6186 1482.01 99.7213C1489.9 99.9413 1496.55 104.709 1490.88 109H1306C1306.22 108.743 1306.44 108.468 1306.7 108.193C1311.77 103.416 1318.47 100.722 1325.46 100.656Z" fill="#FAFAFA"/>
<path d="M1448.83 203.973C1449.37 203.947 1449.91 204.038 1450.42 204.24C1450.93 204.442 1451.38 204.751 1451.76 205.146C1458.61 201.106 1466.39 198.63 1472.75 198.91C1475.4 198.884 1477.98 199.699 1480.13 201.237C1487.51 195.168 1496.74 190.867 1503.47 190.867C1507.27 190.867 1509.59 192.245 1510.35 194.59C1517.86 190.513 1525.53 188 1531.66 188C1539.26 188 1542.73 191.854 1541.95 197.774C1545.08 196.153 1548.52 195.22 1552.04 195.037C1556.1 195.037 1558.07 196.992 1557.87 200.045H1558.92C1565.14 200.566 1567.67 204.495 1564.86 209H1438C1440.81 205.951 1444.7 204.145 1448.83 203.973Z" fill="#FAFAFA"/>
<path d="M1028.52 460.709L1037.47 475.097L1011.78 478.378C1012.31 473.633 1013.13 468.924 1014.22 464.277C1014.61 462.588 1015.64 461.117 1017.1 460.181C1018.56 459.245 1020.32 458.918 1022.02 459.27L1028.52 460.709Z" fill="#F2A880"/>
<path d="M1035.34 498.176L1015.34 492.047L1011.78 478.407L1037.47 475.126L1035.34 498.176Z" fill="#F2A880"/>
<path d="M1103.49 299.588C1106.54 298.638 1110.22 297.372 1113.62 296.192C1117.01 295.012 1120.52 293.717 1123.95 292.393C1130.77 289.688 1137.53 286.897 1144.09 283.76C1156.67 278.258 1168.32 270.831 1178.62 261.746C1180.74 259.739 1182.66 257.543 1184.38 255.185L1184.95 254.351C1185.1 254.351 1185.7 252.883 1184.52 255.559C1183.97 257.097 1183.77 258.74 1183.95 260.365C1183.95 260.653 1183.95 260.94 1183.95 261.228L1184.09 261.833C1184.14 262.019 1184.21 262.202 1184.29 262.379V262.725C1184.67 263.559 1184.78 263.502 1184.72 263.358C1184.51 262.991 1184.28 262.635 1184.03 262.293C1182.09 259.893 1179.93 257.678 1177.59 255.674C1174.97 253.372 1172.21 251.012 1169.33 248.71C1157.82 239.502 1145.13 230.466 1132.84 221.401L1140.32 207.387C1155.23 213.087 1169.67 219.968 1183.49 227.962C1187 230.034 1190.54 232.164 1194.05 234.638C1197.92 237.269 1201.54 240.245 1204.87 243.53C1207.54 246.127 1209.65 249.241 1211.08 252.681L1211.46 253.689L1211.83 254.955C1211.83 255.387 1212.03 255.761 1212.15 256.25C1212.26 256.739 1212.29 257.315 1212.35 257.833C1212.61 260.421 1212.29 263.034 1211.43 265.487C1210.96 266.811 1210.34 268.076 1209.59 269.257L1208.64 270.868C1206.14 274.978 1203.25 278.833 1200 282.379C1187.28 295.962 1172.72 304.796 1158.05 312.393C1150.72 316.108 1143.21 319.451 1135.54 322.408C1131.71 323.904 1127.87 325.314 1124.03 326.638C1120.12 328.019 1116.44 329.141 1112.06 330.379L1103.49 299.588Z" fill="#F2A880"/>
<path d="M1115.17 202.034L1099.86 212.049L1121.79 217.085L1127.4 201.603L1115.17 202.034Z" fill="#F2A880"/>
<path d="M1146.19 209.746L1127.4 201.603L1121.64 217.056C1121.64 217.056 1136.58 232.71 1146.05 222.264L1146.19 209.746Z" fill="#F2A880"/>
<path d="M1034.31 327.069C1027.23 339.904 1020.06 353.17 1013.24 366.263C1006.42 379.357 999.717 392.652 994.134 405.832C992.696 409.141 991.257 412.393 990.192 415.644L989.76 416.738C989.775 416.633 989.775 416.526 989.76 416.421C989.76 416.22 989.76 416.162 989.76 416.191C989.608 416.669 989.608 417.181 989.76 417.659C990.416 420.091 991.455 422.403 992.84 424.508C994.515 427.267 996.361 429.919 998.365 432.45C1007.58 443.541 1017.59 453.948 1028.32 463.587L1019.46 476.738C1005.13 469.484 991.86 460.316 980.005 449.486C976.811 446.513 973.839 443.311 971.113 439.903C967.912 435.947 965.304 431.546 963.372 426.839C962.127 423.775 961.388 420.528 961.185 417.227C961.064 415.304 961.161 413.373 961.473 411.472C961.627 410.432 961.848 409.404 962.135 408.393L962.624 406.781C963.775 402.839 965.012 398.954 966.336 395.27C971.683 380.565 977.811 366.156 984.696 352.105C991.545 338.177 998.652 324.71 1006.59 311.242L1034.31 327.069Z" fill="#F2A880"/>
<path d="M1054.48 234.897C1052.61 254.351 1055.37 273.171 1051.03 290.062C1051.03 290.062 1055.86 305.746 1084.58 305.746C1116.23 305.746 1098.97 290.062 1098.97 290.062C1081.56 285.947 1081.53 273.171 1084.06 261.142L1054.48 234.897Z" fill="#F2A880"/>
<path d="M1047.08 295.444C1044.64 290.494 1041.9 284.796 1047.08 283.012C1052.84 281.055 1083.69 279.07 1094.54 282.753C1097.42 283.533 1099.89 285.404 1101.42 287.971C1102.95 290.538 1103.42 293.6 1102.74 296.508L1047.08 295.444Z" fill="#263238"/>
<path d="M1016.21 294.293C996.752 299.616 973.76 353.4 973.76 353.4L1018.42 378.637C1018.42 378.637 1028.87 359.587 1039.17 335.99C1049.96 311.271 1048.67 285.458 1016.21 294.293Z" fill="#263238"/>
<path d="M1142.56 389.285C1142.56 412.882 1140.98 442.234 1137.47 478.666H1024.38C1023 462.263 1029.76 385.573 1013.67 308.106C1013.3 306.366 1013.29 304.568 1013.64 302.823C1013.99 301.079 1014.69 299.424 1015.7 297.962C1016.72 296.501 1018.02 295.262 1019.53 294.324C1021.04 293.386 1022.73 292.768 1024.49 292.508C1031.34 291.501 1039.92 290.465 1048.35 290.062C1064.35 289.141 1080.4 289.141 1096.41 290.062C1103.03 290.677 1109.62 291.638 1116.15 292.94C1120.66 293.807 1124.84 295.91 1128.22 299.015C1131.61 302.119 1134.06 306.104 1135.31 310.523C1139.02 325.25 1141.18 340.325 1141.76 355.501C1142.33 365.227 1142.65 376.393 1142.56 389.285Z" fill="#263238"/>
<path d="M1091.72 335.156C1109.33 344.911 1149.82 333.774 1149.82 333.774L1147.72 278.955C1133.04 280.802 1118.68 284.676 1105.07 290.465C1077.5 301.631 1071.86 324.163 1091.72 335.156Z" fill="#263238"/>
<path d="M1114.85 285.602C1114.85 285.602 1106.68 288.48 1103.66 289.372C1092.81 301.285 1086.05 327.156 1086.05 327.156L1099.86 345.4C1094.62 318.379 1114.85 285.602 1114.85 285.602Z" fill="#4353FF"/>
<path opacity="0.2" d="M1114.85 285.602C1114.85 285.602 1106.68 288.48 1103.66 289.372C1092.81 301.285 1086.05 327.156 1086.05 327.156L1099.86 345.4C1094.62 318.379 1114.85 285.602 1114.85 285.602Z" fill="black"/>
<path d="M1142.6 421.314C1131.8 429.63 1110.37 410.292 1110.37 410.292L1111 420.105C1130.65 436.536 1142.28 428.393 1142.28 428.393C1142.72 426.06 1142.83 423.676 1142.6 421.314Z" fill="#4353FF"/>
<path opacity="0.2" d="M1142.6 421.314C1131.8 429.63 1110.37 410.292 1110.37 410.292L1111 420.105C1130.65 436.536 1142.28 428.393 1142.28 428.393C1142.72 426.06 1142.83 423.676 1142.6 421.314Z" fill="black"/>
<path d="M1042.05 289.372C1038.81 289.611 1035.61 290.131 1032.47 290.926C1027.61 303.303 1026.52 316.837 1029.33 329.832L1041.76 324.249C1041.76 324.249 1037.73 305.429 1042.05 289.372Z" fill="#4353FF"/>
<path opacity="0.2" d="M1042.05 289.372C1038.81 289.611 1035.61 290.131 1032.47 290.926C1027.61 303.303 1026.52 316.837 1029.33 329.832L1041.76 324.249C1041.76 324.249 1037.73 305.429 1042.05 289.372Z" fill="black"/>
<path d="M1027.46 327.242C1034.22 316.681 1086.13 317.861 1097.36 326.523C1108.58 335.185 1122.13 429.63 1105.53 440.191C1088.92 450.752 1012.32 455.788 1011.77 434.436C1011.23 413.083 1028.67 375.961 1026.59 363.702C1024.52 351.443 1018.28 341.631 1027.46 327.242Z" fill="#EDB726"/>
<path fill-rule="evenodd" clip-rule="evenodd" d="M1058.29 385C1058.76 386.34 1059.1 387.7 1059.3 389.06C1062.81 389.431 1065.87 390.899 1068.48 393.481C1071.49 396.513 1073 400.182 1073 404.476C1073 408.751 1071.49 412.409 1068.48 415.442C1065.44 418.484 1061.77 420 1057.48 420C1053.21 420 1049.57 418.484 1046.56 415.442C1043.52 412.399 1042 408.751 1042 404.476C1042 403.899 1042.03 403.322 1042.08 402.764C1042.14 402.07 1042.22 401.385 1042.34 400.71C1042.9 398.245 1043.88 395.956 1045.28 393.862C1046.75 391.73 1048.6 389.911 1050.84 388.394C1053.1 386.868 1055.58 385.734 1058.29 385ZM1058.01 399.507C1058.47 398.46 1058.81 397.394 1059.05 396.308C1060.69 396.611 1062.13 397.374 1063.36 398.617C1064.97 400.231 1065.77 402.187 1065.77 404.486C1065.77 406.785 1064.97 408.741 1063.36 410.355C1061.73 412.008 1059.77 412.83 1057.47 412.83C1055.17 412.83 1053.22 412.008 1051.6 410.355C1051.06 409.807 1050.6 409.23 1050.23 408.604C1051.46 407.812 1052.58 406.882 1053.61 405.836C1055.55 403.987 1057.02 401.884 1058.01 399.507ZM1052.54 399.184C1052.92 398.509 1053.26 397.824 1053.53 397.139C1054.24 395.33 1054.59 393.491 1054.55 391.603C1052.25 393.041 1050.42 394.958 1049.06 397.345C1049.05 397.384 1049.03 397.423 1049 397.462C1047.62 399.888 1046.97 402.412 1047.04 405.034C1047.83 404.515 1048.56 403.948 1049.25 403.322C1050.55 402.138 1051.65 400.759 1052.54 399.184Z" fill="#FFF3D1"/>
<path opacity="0.4" d="M1028.18 360.22C1028.18 360.22 1047.11 367.587 1087.17 358.638C1079.37 362.724 1038.22 372.019 1028.18 360.22Z" fill="#263238"/>
<path opacity="0.4" d="M1051.06 357.458C1051.29 359.213 1050.31 360.652 1048.84 360.652C1048.04 360.55 1047.3 360.178 1046.74 359.597C1046.18 359.016 1045.83 358.261 1045.76 357.458C1045.53 355.702 1046.51 354.264 1047.95 354.264C1048.75 354.359 1049.5 354.729 1050.07 355.31C1050.63 355.892 1050.98 356.65 1051.06 357.458Z" fill="#263238"/>
<path opacity="0.4" d="M1095.17 441.63H1094.97C1094.88 441.607 1094.79 441.565 1094.71 441.507C1094.64 441.449 1094.57 441.375 1094.53 441.291C1094.48 441.207 1094.45 441.115 1094.45 441.02C1094.44 440.924 1094.45 440.828 1094.48 440.738C1100.58 420.594 1099.83 393.141 1092.23 358.753C1089.07 344.364 1092.67 330.667 1094.57 327.818C1094.62 327.738 1094.69 327.67 1094.77 327.617C1094.85 327.564 1094.93 327.527 1095.03 327.508C1095.12 327.49 1095.22 327.49 1095.31 327.508C1095.4 327.527 1095.49 327.563 1095.57 327.616C1095.65 327.669 1095.72 327.737 1095.77 327.816C1095.83 327.896 1095.86 327.985 1095.88 328.078C1095.9 328.172 1095.9 328.268 1095.88 328.361C1095.86 328.455 1095.83 328.544 1095.77 328.623C1093.82 331.501 1090.71 345.256 1093.62 358.436C1101.3 392.968 1102.05 420.911 1095.86 441.141C1095.81 441.282 1095.71 441.405 1095.59 441.492C1095.47 441.58 1095.32 441.628 1095.17 441.63Z" fill="#263238"/>
<path d="M1097.36 478.666C1097.36 478.666 1079.6 640.19 1068.75 700.621C1056.9 766.808 995.458 974.95 995.458 974.95L957.588 966.893C957.588 966.893 999.89 772.275 1005.59 706.635C1011.75 635.413 1024.38 478.55 1024.38 478.55L1097.36 478.666Z" fill="#4353FF"/>
<path opacity="0.2" d="M1084.41 536.219C1056.9 541.658 1063.8 645.111 1069.21 698.319C1075.75 660.708 1084.67 588.334 1090.68 536.967C1088.73 536.016 1086.52 535.752 1084.41 536.219Z" fill="black"/>
<path d="M1137.47 478.666C1137.47 478.666 1146.48 636.736 1146.68 701.197C1146.85 768.246 1131.92 987.813 1131.92 987.813H1096.12C1096.12 987.813 1086.48 772.16 1082.33 706.319C1077.82 634.377 1063.14 478.666 1063.14 478.666H1137.47Z" fill="#4353FF"/>
<path d="M1103.17 203.732C1103.32 203.671 1103.45 203.578 1103.56 203.458C1103.67 203.339 1103.76 203.196 1103.8 203.042C1103.84 202.913 1103.85 202.779 1103.83 202.647C1103.81 202.515 1103.77 202.388 1103.7 202.273C1103.63 202.158 1103.55 202.057 1103.44 201.977C1103.33 201.896 1103.21 201.838 1103.08 201.804C1101.55 201.507 1099.97 201.576 1098.47 202.006C1096.97 202.436 1095.59 203.215 1094.45 204.279C1094.33 204.361 1094.23 204.468 1094.16 204.591C1094.09 204.715 1094.04 204.853 1094.03 204.996C1094.01 205.139 1094.03 205.283 1094.07 205.42C1094.11 205.557 1094.19 205.682 1094.29 205.788C1094.38 205.894 1094.5 205.977 1094.63 206.033C1094.77 206.089 1094.91 206.116 1095.05 206.112C1095.2 206.108 1095.34 206.074 1095.47 206.01C1095.6 205.947 1095.71 205.857 1095.8 205.747C1096.71 204.888 1097.8 204.26 1099 203.914C1100.2 203.569 1101.46 203.516 1102.68 203.761C1102.84 203.788 1103.01 203.779 1103.17 203.732Z" fill="#263238"/>
<path d="M1045.39 216.969C1049.62 237.602 1051.14 249.833 1063.05 259.415C1066.91 262.572 1071.56 264.613 1076.5 265.317C1081.43 266.02 1086.47 265.359 1091.05 263.405C1095.64 261.451 1099.6 258.279 1102.51 254.233C1105.43 250.187 1107.18 245.421 1107.57 240.451C1109.41 221.344 1102.19 190.84 1080.64 184.653C1076.01 183.192 1071.09 182.975 1066.35 184.024C1061.62 185.072 1057.25 187.349 1053.67 190.625C1050.1 193.901 1047.45 198.061 1046 202.686C1044.54 207.311 1044.33 212.237 1045.39 216.969Z" fill="#F2A880"/>
<path d="M1089.76 220.049C1086.25 230.926 1066.74 251.703 1059.8 253.315C1052.87 254.926 1033.9 238.523 1032.21 229.948C1025.3 229.171 1017.82 215.387 1028.29 209.977C1020.52 206.034 1022.54 185.459 1038.33 186.955C1028.72 177.689 1040.26 162.006 1053.39 166.178C1056.52 158.178 1074.25 153.056 1084.46 165.373C1092.44 160.884 1106.39 169.919 1105.36 183.445C1104.82 187.63 1103.08 191.571 1100.35 194.792C1097.63 198.013 1094.03 200.378 1089.99 201.603C1093.41 205.66 1089.76 220.049 1089.76 220.049Z" fill="#263238"/>
<path d="M1079.31 217.171C1080.49 222.337 1083.28 226.994 1087.28 230.466C1092.61 235.013 1096.87 231.3 1096.75 225.056C1096.75 219.3 1093.73 210.322 1087.75 208.164C1081.76 206.006 1077.99 210.984 1079.31 217.171Z" fill="#F2A880"/>
<path d="M1381 596C1469.92 596 1542 591.747 1542 586.5C1542 581.253 1469.92 577 1381 577C1292.08 577 1220 581.253 1220 586.5C1220 591.747 1292.08 596 1381 596Z" fill="#F5F5F5"/>
<path d="M1468.27 395.222L1466.89 395.644L1470.32 406.836L1471.7 406.413L1468.27 395.222Z" fill="#4353FF"/>
<path d="M1455.01 351.998L1453.63 352.421L1463.85 385.721L1465.23 385.298L1455.01 351.998Z" fill="#4353FF"/>
<path d="M1406.98 212.605H1355.7L1248.8 561.1C1247.97 563.815 1247.79 566.686 1248.27 569.482C1248.76 572.278 1249.89 574.922 1251.58 577.203C1253.26 579.483 1255.46 581.336 1258 582.613C1260.53 583.89 1263.33 584.556 1266.17 584.556H1496.52C1499.36 584.557 1502.16 583.891 1504.7 582.613C1507.23 581.334 1509.44 579.478 1511.13 577.194C1512.81 574.91 1513.94 572.262 1514.43 569.462C1514.91 566.662 1514.72 563.788 1513.89 561.072L1406.98 212.605Z" fill="#4353FF"/>
<path opacity="0.2" d="M1406.98 212.605H1381.34L1348.83 584.556H1496.52C1499.36 584.557 1502.16 583.891 1504.7 582.613C1507.23 581.334 1509.44 579.478 1511.13 577.194C1512.82 574.91 1513.95 572.262 1514.43 569.462C1514.91 566.662 1514.72 563.788 1513.89 561.072L1406.98 212.605Z" fill="#263238"/>
<path opacity="0.2" d="M1406.98 212.605H1394.94L1431.63 584.556H1496.51C1499.35 584.557 1502.15 583.891 1504.68 582.613C1507.22 581.334 1509.42 579.478 1511.11 577.194C1512.8 574.91 1513.93 572.262 1514.41 569.462C1514.89 566.662 1514.71 563.788 1513.88 561.072L1406.98 212.605Z" fill="#263238"/>
<path opacity="0.2" d="M1355.7 212.605H1368.05L1279.63 584.556H1266.17C1263.33 584.557 1260.53 583.891 1257.99 582.613C1255.45 581.334 1253.25 579.478 1251.56 577.194C1249.87 574.91 1248.74 572.262 1248.26 569.462C1247.78 566.662 1247.96 563.788 1248.8 561.072L1355.7 212.605Z" fill="white"/>
<path d="M1380.94 198.751C1388.43 198.748 1395.7 201.214 1401.65 205.767C1407.59 210.321 1411.86 216.707 1413.81 223.937L1430.36 285.496L1425.96 304.959L1409.12 289.014L1393.16 325.661L1378.63 300.187L1360.58 325.661L1352.74 287.457L1336.33 309.197L1332.44 284.054L1348.01 224.139C1349.92 216.862 1354.19 210.423 1360.15 205.83C1366.1 201.236 1373.42 198.747 1380.94 198.751Z" fill="#4353FF"/>
<path opacity="0.7" d="M1380.94 198.751C1388.43 198.748 1395.7 201.214 1401.65 205.767C1407.59 210.321 1411.86 216.707 1413.81 223.937L1430.36 285.496L1425.96 304.959L1409.12 289.014L1393.16 325.661L1378.63 300.187L1360.58 325.661L1352.74 287.457L1336.33 309.197L1332.44 284.054L1348.01 224.139C1349.92 216.862 1354.19 210.423 1360.15 205.83C1366.1 201.236 1373.42 198.747 1380.94 198.751Z" fill="white"/>
<path d="M1348.83 585.998C1348.56 585.999 1348.29 585.92 1348.06 585.772C1347.82 585.624 1347.64 585.412 1347.52 585.162L1323.09 532.224C1322.96 531.948 1322.92 531.639 1322.98 531.341C1323.04 531.043 1323.19 530.772 1323.42 530.566L1418.57 441.442L1359.46 326.281C1359.32 326 1359.27 325.683 1359.32 325.373L1379.99 202.355C1380.05 201.973 1380.26 201.631 1380.58 201.405C1380.89 201.179 1381.29 201.088 1381.67 201.151C1382.05 201.214 1382.39 201.427 1382.62 201.742C1382.84 202.057 1382.94 202.448 1382.87 202.831L1362.27 325.373L1421.64 441.081C1421.78 441.358 1421.83 441.673 1421.78 441.98C1421.72 442.286 1421.58 442.568 1421.35 442.782L1326.2 531.935L1350.19 583.965C1350.35 584.311 1350.37 584.708 1350.24 585.067C1350.11 585.427 1349.84 585.72 1349.5 585.883C1349.29 585.97 1349.06 586.009 1348.83 585.998Z" fill="white"/>
<path d="M1434.55 445.089C1436.41 437.208 1431.53 429.312 1423.65 427.452C1415.77 425.591 1407.87 430.472 1406.01 438.353C1404.15 446.234 1409.03 454.131 1416.91 455.991C1424.79 457.851 1432.69 452.97 1434.55 445.089Z" fill="#4353FF"/>
<path d="M1420.3 457.848C1417.11 457.848 1414 456.903 1411.35 455.134C1408.7 453.365 1406.64 450.85 1405.42 447.907C1404.2 444.964 1403.88 441.727 1404.5 438.603C1405.12 435.479 1406.66 432.61 1408.91 430.358C1411.16 428.106 1414.03 426.572 1417.16 425.95C1420.28 425.329 1423.52 425.648 1426.46 426.867C1429.4 428.086 1431.92 430.15 1433.69 432.798C1435.46 435.446 1436.4 438.56 1436.4 441.744C1436.4 446.014 1434.7 450.108 1431.68 453.127C1428.66 456.146 1424.57 457.844 1420.3 457.848ZM1420.3 428.539C1417.68 428.539 1415.12 429.314 1412.95 430.768C1410.78 432.221 1409.08 434.287 1408.08 436.703C1407.08 439.12 1406.82 441.778 1407.33 444.343C1407.84 446.908 1409.1 449.264 1410.95 451.112C1412.8 452.96 1415.16 454.218 1417.73 454.727C1420.29 455.235 1422.95 454.971 1425.37 453.969C1427.78 452.966 1429.85 451.269 1431.3 449.093C1432.75 446.917 1433.52 444.36 1433.52 441.744C1433.51 438.241 1432.12 434.882 1429.64 432.406C1427.16 429.93 1423.8 428.539 1420.3 428.539Z" fill="white"/>
<path d="M1340.43 532.641C1341.73 524.624 1336.28 517.075 1328.26 515.78C1320.25 514.484 1312.7 519.932 1311.4 527.949C1310.1 535.965 1315.55 543.514 1323.57 544.81C1331.59 546.106 1339.14 540.657 1340.43 532.641Z" fill="#4353FF"/>
<path d="M1324.4 547.707C1321.21 547.707 1318.1 546.762 1315.45 544.992C1312.8 543.222 1310.74 540.706 1309.52 537.763C1308.3 534.82 1307.98 531.581 1308.61 528.457C1309.23 525.333 1310.76 522.463 1313.02 520.212C1315.27 517.96 1318.14 516.428 1321.27 515.808C1324.39 515.188 1327.63 515.509 1330.57 516.73C1333.51 517.951 1336.03 520.018 1337.79 522.668C1339.56 525.318 1340.5 528.433 1340.5 531.618C1340.5 535.887 1338.8 539.979 1335.78 542.996C1332.76 546.013 1328.67 547.707 1324.4 547.707ZM1324.4 518.398C1321.78 518.398 1319.23 519.173 1317.05 520.626C1314.88 522.079 1313.19 524.143 1312.18 526.559C1311.18 528.975 1310.92 531.633 1311.43 534.197C1311.94 536.762 1313.2 539.117 1315.05 540.966C1316.9 542.815 1319.25 544.074 1321.82 544.584C1324.38 545.094 1327.04 544.833 1329.46 543.832C1331.87 542.831 1333.94 541.137 1335.39 538.963C1336.84 536.789 1337.62 534.233 1337.62 531.618C1337.61 528.113 1336.22 524.753 1333.74 522.274C1331.26 519.796 1327.9 518.402 1324.4 518.398Z" fill="white"/>
<path d="M1360.71 340.28C1368.81 340.28 1375.38 333.715 1375.38 325.618C1375.38 317.52 1368.81 310.956 1360.71 310.956C1352.62 310.956 1346.05 317.52 1346.05 325.618C1346.05 333.715 1352.62 340.28 1360.71 340.28Z" fill="#4353FF"/>
<path d="M1360.71 341.721C1357.53 341.721 1354.41 340.777 1351.77 339.007C1349.12 337.238 1347.05 334.723 1345.84 331.78C1344.62 328.838 1344.3 325.6 1344.92 322.476C1345.54 319.352 1347.07 316.483 1349.33 314.231C1351.58 311.979 1354.45 310.445 1357.57 309.824C1360.69 309.202 1363.93 309.521 1366.88 310.74C1369.82 311.959 1372.33 314.023 1374.1 316.671C1375.87 319.319 1376.82 322.433 1376.82 325.618C1376.81 329.888 1375.11 333.981 1372.1 337C1369.08 340.02 1364.98 341.717 1360.71 341.721ZM1360.71 312.398C1358.1 312.398 1355.54 313.173 1353.37 314.626C1351.19 316.078 1349.5 318.143 1348.5 320.559C1347.5 322.974 1347.24 325.632 1347.75 328.197C1348.26 330.761 1349.52 333.117 1351.36 334.966C1353.21 336.815 1355.57 338.074 1358.13 338.584C1360.7 339.094 1363.36 338.832 1365.77 337.832C1368.19 336.831 1370.25 335.137 1371.7 332.963C1373.16 330.788 1373.93 328.233 1373.93 325.618C1373.93 322.113 1372.54 318.752 1370.06 316.274C1367.58 313.796 1364.22 312.402 1360.71 312.398Z" fill="white"/>
<path d="M1396.45 203.507C1397.74 195.491 1392.3 187.942 1384.28 186.646C1376.26 185.351 1368.71 190.799 1367.42 198.815C1366.12 206.832 1371.57 214.381 1379.59 215.677C1387.6 216.972 1395.15 211.524 1396.45 203.507Z" fill="#4353FF"/>
<path d="M1381.39 218.689C1378.2 218.689 1375.09 217.744 1372.44 215.974C1369.79 214.204 1367.73 211.688 1366.51 208.745C1365.29 205.801 1364.97 202.563 1365.59 199.439C1366.22 196.314 1367.75 193.445 1370 191.194C1372.26 188.942 1375.13 187.41 1378.25 186.79C1381.38 186.17 1384.62 186.491 1387.56 187.712C1390.5 188.933 1393.02 190.999 1394.78 193.649C1396.55 196.3 1397.49 199.414 1397.49 202.6C1397.48 206.867 1395.78 210.957 1392.76 213.973C1389.75 216.989 1385.65 218.685 1381.39 218.689ZM1381.39 189.38C1378.77 189.38 1376.22 190.155 1374.04 191.608C1371.87 193.061 1370.17 195.125 1369.17 197.541C1368.17 199.957 1367.91 202.615 1368.42 205.179C1368.93 207.744 1370.19 210.099 1372.04 211.948C1373.89 213.797 1376.24 215.056 1378.81 215.566C1381.37 216.076 1384.03 215.814 1386.45 214.814C1388.86 213.813 1390.93 212.119 1392.38 209.945C1393.83 207.771 1394.61 205.215 1394.61 202.6C1394.6 199.095 1393.21 195.735 1390.73 193.256C1388.25 190.778 1384.89 189.384 1381.39 189.38Z" fill="white"/>
<path d="M1381.34 202.672C1380.96 202.672 1380.59 202.52 1380.32 202.25C1380.05 201.979 1379.9 201.613 1379.9 201.23V136.442C1379.9 136.059 1380.05 135.693 1380.32 135.422C1380.59 135.152 1380.96 135 1381.34 135C1381.73 135 1382.09 135.152 1382.36 135.422C1382.63 135.693 1382.79 136.059 1382.79 136.442V201.23C1382.79 201.613 1382.63 201.979 1382.36 202.25C1382.09 202.52 1381.73 202.672 1381.34 202.672Z" fill="#2F3233"/>
<path d="M1323 166.589C1336.05 171.441 1348.99 161.833 1362 166.589V142.363C1348.95 137.607 1336 147.215 1323 142.363V166.589Z" fill="#22DDAB"/>
<path opacity="0.2" d="M1337 143.26V167C1345.33 165.834 1353.67 163.113 1362 166.129V142.373C1353.67 139.357 1345.33 142.078 1337 143.26Z" fill="black"/>
<path d="M1343 161.539C1355.72 166.564 1368.34 156.612 1381 161.539V136.461C1368.28 131.436 1355.68 141.388 1343 136.461V161.539Z" fill="#22DDAB"/>
<path fill-rule="evenodd" clip-rule="evenodd" d="M964.014 724C964.014 724 964.959 694.807 964.014 651.795C963.069 608.784 1011.22 569.597 1051 589.186C1051 589.186 1025.46 589.501 1007.29 605.273C989.118 621.045 978.804 630.294 977.329 657.301C975.853 684.308 970.422 724 970.422 724H964.014Z" fill="#DADDFF"/>
<path fill-rule="evenodd" clip-rule="evenodd" d="M946.043 723.918C946.043 723.918 942.925 639.136 932.767 606.09C922.609 573.043 936.213 499 936.213 499C936.213 499 936.705 556.187 944.968 584.341C953.231 612.495 967.368 648.863 964.661 681.827C961.953 714.791 954.987 724 954.987 724L946.043 723.918Z" fill="#DADDFF"/>
<path fill-rule="evenodd" clip-rule="evenodd" d="M953.707 611.972L933 605C933.089 605.321 933.178 605.65 933.274 605.963C943.269 639.045 946.336 723.918 946.336 723.918L955.152 724C955.152 724 962.014 714.773 964.67 681.782C966.51 658.857 960.359 634.287 953.707 611.972Z" fill="#C4C8F5"/>
<path fill-rule="evenodd" clip-rule="evenodd" d="M948.175 723.967C948.175 723.967 961.572 681.337 938.222 613.445C914.873 545.553 886 530 886 530C886 530 912.029 587.205 922.919 631.974C933.809 676.744 933.948 724 933.948 724L948.175 723.967Z" fill="#DADDFF"/>
<path fill-rule="evenodd" clip-rule="evenodd" d="M979.402 610C969.696 621.853 963.68 636.74 964.013 652.113C964.946 694.977 964.013 724 964.013 724H970.47C970.47 724 975.928 684.483 977.411 657.595C978.478 638.273 984.127 628.077 994 618.029L979.402 610Z" fill="#C4C8F5"/>
<path fill-rule="evenodd" clip-rule="evenodd" d="M954.308 724C954.308 724 961.383 683.231 953.575 625.524C945.768 567.817 1020 517 1020 517C1020 517 981.012 562.772 973.97 599.889C966.928 637.006 972.53 682.902 968.063 705.957C965.315 720.159 965.077 724 965.077 724H954.308Z" fill="#DADDFF"/>
<path fill-rule="evenodd" clip-rule="evenodd" d="M970.314 724C970.314 724 974.224 698.531 973.741 660.78C973.259 623.029 997.072 591.407 973.741 535.493C950.41 479.58 934 481.038 934 481.038C934 481.038 961.626 478.566 981.006 513.731C1000.39 548.895 1004.4 594.092 991.64 637.461C978.879 680.829 979.68 724 979.68 724H970.314Z" fill="#DADDFF"/>
<path fill-rule="evenodd" clip-rule="evenodd" d="M948.026 723.959C948.026 723.959 959.03 690.285 944.415 635.087L921 629C921.273 630.027 921.538 631.054 921.802 632.073C933.113 676.794 933.25 724 933.25 724L948.026 723.959Z" fill="#C4C8F5"/>
<path fill-rule="evenodd" clip-rule="evenodd" d="M956.397 645.416C960.581 692.343 955 724 955 724H965.832C965.832 724 966.064 720.201 968.834 706.154C971.736 691.397 970.388 667.192 971 642L956.397 645.416Z" fill="#DADDFF"/>
<path fill-rule="evenodd" clip-rule="evenodd" d="M974.235 664C974.465 699.962 971 724 971 724H979.769C979.823 706.186 981.238 688.407 984 670.841L974.235 664Z" fill="#C4C8F5"/>
<path fill-rule="evenodd" clip-rule="evenodd" d="M1638.99 724C1638.99 724 1638.02 694.807 1638.99 651.795C1639.95 608.784 1590.69 569.597 1550 589.186C1550 589.186 1576.12 589.501 1594.71 605.273C1613.3 621.045 1623.86 630.294 1625.36 657.301C1626.87 684.308 1632.43 724 1632.43 724H1638.99Z" fill="#DADDFF"/>
<path fill-rule="evenodd" clip-rule="evenodd" d="M1656.96 723.918C1656.96 723.918 1660.08 639.136 1670.23 606.09C1680.39 573.043 1666.79 499 1666.79 499C1666.79 499 1666.29 556.187 1658.03 584.341C1649.77 612.495 1635.63 648.863 1638.34 681.827C1641.05 714.791 1648.01 724 1648.01 724L1656.96 723.918Z" fill="#DADDFF"/>
<path fill-rule="evenodd" clip-rule="evenodd" d="M1649.29 611.972L1670 605C1669.91 605.321 1669.82 605.65 1669.73 605.963C1659.73 639.045 1656.66 723.918 1656.66 723.918L1647.85 724C1647.85 724 1640.99 714.773 1638.33 681.782C1636.49 658.857 1642.64 634.287 1649.29 611.972Z" fill="#C4C8F5"/>
<path fill-rule="evenodd" clip-rule="evenodd" d="M1654.88 723.967C1654.88 723.967 1641.28 681.337 1664.99 613.445C1688.69 545.553 1718 530 1718 530C1718 530 1691.58 587.205 1680.52 631.974C1669.47 676.744 1669.33 724 1669.33 724L1654.88 723.967Z" fill="#DADDFF"/>
<path fill-rule="evenodd" clip-rule="evenodd" d="M1623.08 610C1633.11 621.853 1639.33 636.74 1638.99 652.113C1638.02 694.977 1638.99 724 1638.99 724H1632.31C1632.31 724 1626.67 684.483 1625.14 657.595C1624.04 638.273 1618.2 628.077 1608 618.029L1623.08 610Z" fill="#C4C8F5"/>
<path fill-rule="evenodd" clip-rule="evenodd" d="M1648.67 724C1648.67 724 1641.49 683.231 1649.42 625.524C1657.34 567.817 1582 517 1582 517C1582 517 1621.57 562.772 1628.72 599.889C1635.86 637.006 1630.18 682.902 1634.71 705.957C1637.5 720.159 1637.74 724 1637.74 724H1648.67Z" fill="#DADDFF"/>
<path fill-rule="evenodd" clip-rule="evenodd" d="M1632.13 724C1632.13 724 1628.16 698.531 1628.65 660.78C1629.14 623.029 1604.96 591.407 1628.65 535.493C1652.34 479.58 1669 481.038 1669 481.038C1669 481.038 1640.95 478.566 1621.27 513.731C1601.59 548.895 1597.51 594.092 1610.47 637.461C1623.43 680.829 1622.62 724 1622.62 724H1632.13Z" fill="#DADDFF"/>
<path fill-rule="evenodd" clip-rule="evenodd" d="M1654.97 723.959C1654.97 723.959 1643.97 690.285 1658.58 635.087L1682 629C1681.73 630.027 1681.46 631.054 1681.2 632.073C1669.89 676.794 1669.75 724 1669.75 724L1654.97 723.959Z" fill="#C4C8F5"/>
<path fill-rule="evenodd" clip-rule="evenodd" d="M1646.52 645.416C1642.07 692.343 1648 724 1648 724H1636.49C1636.49 724 1636.24 720.201 1633.3 706.154C1630.22 691.397 1631.65 667.192 1631 642L1646.52 645.416Z" fill="#DADDFF"/>
<path fill-rule="evenodd" clip-rule="evenodd" d="M1627.77 664C1627.54 699.962 1631 724 1631 724H1622.23C1622.18 706.186 1620.76 688.407 1618 670.841L1627.77 664Z" fill="#C4C8F5"/>
<path fill-rule="evenodd" clip-rule="evenodd" d="M1362.83 142C1363.03 142.536 1363.17 143.08 1363.25 143.624C1364.73 143.772 1366.01 144.359 1367.11 145.392C1368.37 146.605 1369 148.073 1369 149.79C1369 151.5 1368.37 152.964 1367.11 154.177C1365.83 155.394 1364.29 156 1362.49 156C1360.7 156 1359.17 155.394 1357.91 154.177C1356.64 152.96 1356 151.5 1356 149.79C1356 149.56 1356.01 149.329 1356.03 149.106C1356.06 148.828 1356.09 148.554 1356.14 148.284C1356.38 147.298 1356.79 146.382 1357.37 145.545C1357.99 144.692 1358.77 143.964 1359.71 143.358C1360.65 142.747 1361.7 142.293 1362.83 142ZM1362.71 147.803C1362.91 147.384 1363.05 146.958 1363.15 146.523C1363.84 146.644 1364.44 146.95 1364.96 147.447C1365.63 148.092 1365.97 148.875 1365.97 149.794C1365.97 150.714 1365.63 151.496 1364.96 152.142C1364.28 152.803 1363.45 153.132 1362.49 153.132C1361.52 153.132 1360.7 152.803 1360.03 152.142C1359.8 151.923 1359.6 151.692 1359.45 151.442C1359.97 151.125 1360.44 150.753 1360.87 150.334C1361.68 149.595 1362.3 148.753 1362.71 147.803ZM1360.42 147.674C1360.58 147.404 1360.72 147.13 1360.84 146.856C1361.13 146.132 1361.28 145.396 1361.26 144.641C1360.3 145.216 1359.53 145.983 1358.96 146.938C1358.96 146.954 1358.95 146.969 1358.94 146.985C1358.36 147.955 1358.08 148.965 1358.11 150.013C1358.44 149.806 1358.75 149.579 1359.04 149.329C1359.58 148.855 1360.05 148.304 1360.42 147.674Z" fill="#CCF7EB"/>
<path d="M-98.5368 79.2763C-94.9895 79.1496 -91.5045 80.2609 -88.6463 82.4303C-66.9084 71.4279 -41.6839 64.8264 -20.5864 65.5966C-11.906 65.4999 -3.34158 67.6565 4.31789 71.868C27.4789 55.401 57.3285 43.7384 79.3154 43.7384C91.8031 43.7384 99.7369 47.4059 102.725 53.824C126.705 42.8215 151.502 36 171.746 36C203.979 36 215.079 53.2371 202.841 77.4425C218.032 77.8459 230.84 87.4181 219.918 96H-136C-135.573 95.4499 -135.146 94.9364 -134.648 94.3863C-124.889 84.8369 -111.991 79.44 -98.5368 79.2763Z" fill="#FAFAFA"/>
<path d="M501.846 45.992C502.388 45.9699 502.928 46.0611 503.432 46.2597C503.937 46.4584 504.396 46.7602 504.779 47.1463C511.604 43.125 519.389 40.6489 525.752 40.9282C528.392 40.9094 530.972 41.723 533.131 43.2553C540.509 37.1862 549.732 32.867 556.484 32.867C560.173 32.867 562.589 34.2633 563.346 36.5904C570.853 32.5133 578.527 30 584.669 30C592.269 30 595.737 33.8537 594.944 39.7739C598.079 38.155 601.517 37.2224 605.034 37.0372C609.092 37.0372 611.066 38.8989 610.863 42.0452C611.219 42.0266 611.576 42.0266 611.933 42.0452C618.13 42.5479 620.676 46.4947 617.854 51H491C493.822 47.9554 497.719 46.1561 501.846 45.992Z" fill="#FAFAFA"/>
<path d="M244.544 154.648C244.918 154.632 245.291 154.693 245.639 154.826C245.987 154.958 246.302 155.16 246.564 155.419C250.948 152.785 255.991 151.354 261.151 151.278C262.999 151.259 264.806 151.798 266.322 152.819C271.438 148.786 277.907 145.918 282.541 145.918C285.191 145.918 286.785 146.832 287.323 148.392C291.84 145.822 296.92 144.317 302.151 144C307.433 144 309.861 146.563 309.305 150.507C311.482 149.434 313.87 148.822 316.311 148.714C319.129 148.714 320.5 150.023 320.352 152.049H321.093C325.412 152.389 327.154 155.006 325.208 158H237C238.962 155.969 241.672 154.765 244.544 154.648Z" fill="#FAFAFA"/>
<path d="M16 530.534C16 482.643 54.727 369 102.5 369C150.273 369 189 482.643 189 530.534C188.934 553.489 179.792 575.481 163.577 591.69C147.363 607.898 125.399 617 102.5 617C79.6021 617 57.6381 607.898 41.4234 591.69C25.2087 575.481 16.0657 553.489 16 530.534Z" fill="#DADDFF"/>
<path d="M103 742C102.735 742 102.48 741.925 102.293 741.791C102.105 741.657 102 741.475 102 741.286V441.714C102 441.525 102.105 441.343 102.293 441.209C102.48 441.075 102.735 441 103 441C103.265 441 103.52 441.075 103.707 441.209C103.895 441.343 104 441.525 104 441.714V741.286C104 741.475 103.895 741.657 103.707 741.791C103.52 741.925 103.265 742 103 742Z" fill="white"/>
<path d="M102.282 499C102.091 499 101.909 498.926 101.774 498.795L67.2016 465.183C67.0708 465.052 66.9984 464.875 67 464.692C67.0017 464.509 67.0772 464.334 67.2104 464.205C67.3435 464.075 67.5237 464.002 67.712 464C67.9003 463.998 68.0817 464.069 68.2172 464.196L102.79 497.808C102.89 497.906 102.959 498.03 102.986 498.166C103.014 498.301 103 498.441 102.945 498.569C102.891 498.696 102.799 498.806 102.681 498.882C102.563 498.959 102.424 499 102.282 499Z" fill="white"/>
<path d="M102.702 558.999C102.563 558.999 102.427 558.957 102.312 558.878C102.196 558.8 102.107 558.688 102.053 558.558C102 558.427 101.986 558.284 102.013 558.145C102.041 558.007 102.107 557.88 102.206 557.78L158.792 500.219C158.857 500.151 158.933 500.097 159.018 500.059C159.102 500.022 159.193 500.002 159.285 500C159.378 499.998 159.469 500.015 159.555 500.05C159.641 500.084 159.719 500.135 159.786 500.2C159.852 500.266 159.905 500.344 159.942 500.43C159.979 500.516 159.998 500.608 160 500.702C160.001 500.796 159.985 500.889 159.951 500.976C159.917 501.064 159.866 501.143 159.802 501.211L159.785 501.228L103.198 558.791C103.067 558.925 102.888 559 102.702 559V558.999Z" fill="white"/>
<path d="M153 647.034C153 629.828 166.957 589 184.174 589C201.391 589 215.349 629.825 215.349 647.034C215.349 655.302 212.065 663.231 206.218 669.078C200.372 674.924 192.442 678.208 184.174 678.208C175.907 678.208 167.977 674.924 162.131 669.078C156.284 663.231 153 655.302 153 647.034Z" fill="#D9DDFF"/>
<path d="M184.174 722.822C184.106 722.822 184.041 722.795 183.993 722.747C183.945 722.699 183.918 722.634 183.918 722.566V615.159C183.918 615.125 183.925 615.092 183.938 615.061C183.95 615.03 183.969 615.001 183.993 614.978C184.017 614.954 184.045 614.935 184.076 614.922C184.107 614.909 184.141 614.902 184.174 614.902C184.208 614.902 184.241 614.909 184.273 614.922C184.304 614.935 184.332 614.954 184.356 614.978C184.38 615.001 184.399 615.03 184.411 615.061C184.424 615.092 184.431 615.125 184.431 615.159V722.566C184.431 722.634 184.404 722.699 184.356 722.747C184.308 722.795 184.242 722.822 184.174 722.822Z" fill="white"/>
<path d="M184.174 635.894C184.14 635.894 184.107 635.887 184.076 635.875C184.045 635.862 184.017 635.843 183.993 635.819L171.654 623.489C171.606 623.441 171.58 623.376 171.58 623.308C171.58 623.24 171.607 623.175 171.655 623.127C171.703 623.08 171.768 623.053 171.836 623.053C171.904 623.053 171.969 623.079 172.017 623.127L184.356 635.457C184.392 635.493 184.416 635.538 184.426 635.588C184.436 635.638 184.431 635.689 184.411 635.736C184.392 635.783 184.359 635.823 184.317 635.851C184.275 635.879 184.225 635.894 184.174 635.894Z" fill="white"/>
<path d="M184.174 657.242C184.123 657.242 184.074 657.227 184.032 657.199C183.99 657.171 183.957 657.131 183.937 657.084C183.918 657.037 183.913 656.986 183.923 656.936C183.933 656.886 183.957 656.841 183.993 656.805L204.657 636.155C204.705 636.107 204.77 636.08 204.838 636.08C204.906 636.079 204.971 636.106 205.019 636.154C205.068 636.202 205.095 636.268 205.095 636.336C205.095 636.403 205.068 636.469 205.02 636.517L184.355 657.167C184.331 657.191 184.303 657.21 184.272 657.222C184.241 657.235 184.208 657.242 184.174 657.242Z" fill="white"/>
</svg>
