<svg width="57" height="11" viewBox="0 0 57 11" fill="none" xmlns="http://www.w3.org/2000/svg">
<path d="M2.898 4.876H2.016L2.086 3.336L0.784 4.162L0.35 3.406L1.708 2.706L0.35 2.006L0.784 1.236L2.086 2.062L2.016 0.521999H2.898L2.828 2.062L4.116 1.236L4.564 2.006L3.206 2.706L4.564 3.406L4.116 4.162L2.828 3.336L2.898 4.876ZM7.8062 4.876H6.9242L6.9942 3.336L5.6922 4.162L5.2582 3.406L6.6162 2.706L5.2582 2.006L5.6922 1.236L6.9942 2.062L6.9242 0.521999H7.8062L7.7362 2.062L9.0242 1.236L9.4722 2.006L8.1142 2.706L9.4722 3.406L9.0242 4.162L7.7362 3.336L7.8062 4.876ZM12.7144 4.876H11.8324L11.9024 3.336L10.6004 4.162L10.1664 3.406L11.5244 2.706L10.1664 2.006L10.6004 1.236L11.9024 2.062L11.8324 0.521999H12.7144L12.6444 2.062L13.9324 1.236L14.3804 2.006L13.0224 2.706L14.3804 3.406L13.9324 4.162L12.6444 3.336L12.7144 4.876ZM17.6226 4.876H16.7406L16.8106 3.336L15.5086 4.162L15.0746 3.406L16.4326 2.706L15.0746 2.006L15.5086 1.236L16.8106 2.062L16.7406 0.521999H17.6226L17.5526 2.062L18.8406 1.236L19.2886 2.006L17.9306 2.706L19.2886 3.406L18.8406 4.162L17.5526 3.336L17.6226 4.876ZM30.0188 10H28.0308V8.068H23.5648V6.5L27.2748 0.661999H30.0188V6.318H31.2228V8.068H30.0188V10ZM28.0308 6.318V2.426L25.5108 6.318H28.0308ZM35.8524 10.168C34.2284 10.168 33.0524 9.636 32.2544 8.768L33.3604 7.382C33.9904 8.04 34.8584 8.404 35.8384 8.404C36.9444 8.404 37.5744 7.774 37.5744 7.018C37.5744 6.192 36.9584 5.632 35.8944 5.632C35.1244 5.632 34.4944 5.856 33.9344 6.388L32.5484 6.024V0.661999H38.9604V2.412H34.5364V4.694C34.9844 4.246 35.7404 3.91 36.5944 3.91C38.1764 3.91 39.5904 5.044 39.5904 6.934C39.5904 8.922 38.1064 10.168 35.8524 10.168ZM44.5939 10.168C41.7519 10.168 40.5619 7.984 40.5619 5.352C40.5619 2.524 42.1579 0.521999 44.9159 0.521999C46.0499 0.521999 47.0019 0.913999 47.6739 1.488L46.7779 3.014C46.2739 2.538 45.7419 2.286 44.9159 2.286C43.5439 2.286 42.5779 3.448 42.5779 4.932C42.5779 5.002 42.5779 5.058 42.5919 5.128C43.0259 4.498 43.9639 3.924 44.9859 3.924C46.6659 3.924 48.1639 4.974 48.1639 6.962C48.1639 8.782 46.7219 10.168 44.5939 10.168ZM44.4819 8.404C45.5599 8.404 46.1479 7.69 46.1479 7.032C46.1479 6.052 45.3079 5.632 44.4119 5.632C43.7119 5.632 43.0399 5.954 42.5919 6.514C42.6759 7.41 43.1799 8.404 44.4819 8.404ZM52.8455 10.168C50.8855 10.168 49.0935 9.328 49.0935 7.578C49.0935 6.444 49.9755 5.576 51.0955 5.184C50.0595 4.82 49.2475 4.148 49.2475 2.986C49.2475 1.236 51.1095 0.521999 52.8455 0.521999C54.5675 0.521999 56.4435 1.236 56.4435 2.986C56.4435 4.148 55.6175 4.82 54.5815 5.184C55.7015 5.576 56.5975 6.444 56.5975 7.578C56.5975 9.314 54.8055 10.168 52.8455 10.168ZM52.8455 4.4C53.4195 4.316 54.4135 3.994 54.4135 3.294C54.4135 2.622 53.7555 2.23 52.8455 2.23C51.9215 2.23 51.2635 2.622 51.2635 3.294C51.2635 3.994 52.2715 4.316 52.8455 4.4ZM52.8455 8.46C53.7975 8.46 54.5815 8.012 54.5815 7.326C54.5815 6.542 53.4195 6.164 52.8455 6.08C52.2575 6.164 51.1095 6.542 51.1095 7.326C51.1095 8.012 51.8655 8.46 52.8455 8.46Z" fill="#2F3233"/>
</svg>
