<?xml version="1.0" encoding="UTF-8"?>
<svg width="75px" height="68px" viewBox="0 0 75 68" version="1.1" xmlns="http://www.w3.org/2000/svg" xmlns:xlink="http://www.w3.org/1999/xlink">
    <!-- Generator: sketchtool 54.1 (76490) - https://sketchapp.com -->
    <title>D96BB831-0B34-41DF-B04C-D5A87465F12E</title>
    <desc>Created with sketchtool.</desc>
    <g id="On-Boarding---Complete-Profile" stroke="none" stroke-width="1" fill="none" fill-rule="evenodd">
        <g id="onboarding_Complete-profile---Step-1" transform="translate(-1101.000000, -194.000000)" fill-rule="nonzero">
            <g id="Group-13" transform="translate(504.000000, 154.000000)">
                <g id="Group-12">
                    <g id="career" transform="translate(597.000000, 40.000000)">
                        <path d="M66.1322754,25.5812988 L66.1202637,25.5320801 C65.9258789,24.7467773 65.1317871,24.2679199 64.3466309,24.4621582 C63.5614746,24.656543 63.0823242,25.4504883 63.276709,26.2359375 L63.285498,26.2715332 C63.4479492,26.9418457 64.0472168,27.3914063 64.7077148,27.3914063 C64.8219727,27.3914063 64.9381348,27.3779297 65.0540039,27.3498047 C65.8400391,27.159082 66.322998,26.367334 66.1322754,25.5812988 Z" id="Path" fill="#EDB726"></path>
                        <path d="M27.346875,43.8358887 C23.7052734,41.638623 21.5311523,37.7910645 21.5311523,33.5438965 C21.5311523,32.2311035 21.7413574,30.9411621 22.1557617,29.7101074 C22.4138672,28.9435547 22.0015137,28.1126953 21.2349609,27.8547363 C20.4684082,27.5969238 19.6376953,28.0091309 19.3795898,28.7756836 C18.8636719,30.3084961 18.6020508,31.912793 18.6020508,33.544043 C18.6020508,38.826709 21.3055664,43.6119141 25.8336914,46.3442871 C26.0705566,46.4871094 26.3312988,46.5550781 26.5889648,46.5550781 C27.0852539,46.5550781 27.5692383,46.3025391 27.8443359,45.8466797 C28.2622559,45.1541016 28.0395996,44.2539551 27.346875,43.8358887 Z" id="Path" fill="#22DDAB"></path>
                        <path d="M43.7816895,22.6650879 C41.0003906,20.0463867 37.3637695,18.6041016 33.5418457,18.6041016 C31.7519531,18.6041016 30.0005859,18.9178711 28.3365234,19.5363281 C27.5783203,19.8183105 27.1921875,20.6613281 27.4740234,21.4196777 C27.7558594,22.1780273 28.598877,22.5641602 29.357373,22.2821777 C30.6938965,21.7853027 32.1016113,21.5333496 33.5419922,21.5333496 C36.614502,21.5333496 39.5378906,22.692627 41.7735352,24.7977539 C42.0563965,25.064209 42.4171875,25.1961914 42.7772461,25.1961914 C43.1668945,25.1961914 43.5556641,25.0416504 43.8439453,24.735498 C44.3983887,24.1466309 44.3704102,23.2195312 43.7816895,22.6650879 Z" id="Path" fill="#22DDAB"></path>
                        <path d="M73.5353027,33.9852539 L62.5158691,33.9852539 L62.5158691,30.9550781 C62.5158691,29.4821777 61.3174805,28.2837891 59.8445801,28.2837891 L57.8783203,28.2837891 C56.8713867,23.6036133 54.5523926,19.340918 51.1488281,15.937207 C45.3733887,10.1617676 37.1214844,7.58613281 29.0746582,9.04614258 C28.2788086,9.19057617 27.7505859,9.95288086 27.8950195,10.748877 C28.0394531,11.544873 28.8019043,12.0725098 29.5977539,11.9285156 C36.6991699,10.6397461 43.9814941,12.9125977 49.0773926,18.0087891 C51.9307617,20.8621582 53.9208984,24.398584 54.8743652,28.2839355 L46.8783691,28.2839355 C45.4054687,28.2839355 44.2070801,29.4823242 44.2070801,30.9552246 L44.2070801,33.9854004 L33.1876465,33.9854004 C32.3787598,33.9854004 31.7229492,34.6413574 31.7229492,35.4500977 L31.7229492,44.4353027 C31.7229492,45.8102051 32.2583496,47.0616211 33.1303711,47.9947266 L33.1303711,55.5114258 C27.4163086,55.4138672 22.0800293,53.1534668 18.0064453,49.0797363 C12.7776855,43.8509766 10.5376465,36.3974121 12.0143555,29.1411621 C12.1756348,28.3485352 11.6638184,27.5750977 10.8711914,27.4138184 C10.0782715,27.2523926 9.30512695,27.7643555 9.14384766,28.5569824 C7.47070312,36.7790039 10.0092773,45.225293 15.9348633,51.1510254 C20.4943359,55.710498 26.704248,58.3278809 33.1302246,58.4384766 L33.1302246,63.7460449 C33.1302246,63.8834473 33.1394531,64.0185059 33.1557129,64.1515137 C16.453418,63.9437988 2.92924805,50.2948242 2.92924805,33.5441895 C2.92924805,28.3063477 4.26152344,23.1864258 6.79204102,18.6492187 L11.7339844,23.6145996 C12.0089355,23.8908691 12.3826172,24.0461426 12.7721191,24.0461426 L21.9845215,24.0461426 L31.0157227,33.0773437 C31.3018066,33.3634277 31.6766602,33.5063965 32.0513672,33.5063965 C32.4262207,33.5063965 32.8012207,33.3634277 33.0870117,33.0773437 C33.6590332,32.5053223 33.6590332,31.5779297 33.0870117,31.0057617 L24.0556641,21.9745605 L24.0556641,12.7621582 C24.0556641,12.3730957 23.9008301,12 23.625293,11.7251953 L18.6695801,6.78164062 C23.2009277,4.25961914 28.3123535,2.93188477 33.5412598,2.93188477 C45.4234863,2.93188477 56.3312988,9.90058594 61.3306641,20.6856445 C61.5785156,21.2203125 62.1076172,21.534668 62.6604492,21.534668 C62.8666992,21.534668 63.0761719,21.4908691 63.2755371,21.3984375 C64.0094238,21.0581543 64.3286133,20.1874512 63.9884766,19.4535645 C61.3343262,13.7277832 57.1299316,8.87578125 51.8293945,5.42226562 C46.3879395,1.87661133 40.063916,0.00263671875 33.5414063,0.00263671875 C27.5323242,0.00263671875 21.6632813,1.60356445 16.5202148,4.63754883 L12.304834,0.431982422 C11.8854492,0.0137695313 11.2558594,-0.111035156 10.7090332,0.116015625 C10.1620605,0.342919922 9.80581055,0.876708984 9.80581055,1.46879883 L9.80581055,9.76962891 L1.4793457,9.76962891 C0.887402344,9.76962891 0.35390625,10.1257324 0.126855469,10.6721191 C-0.100195313,11.2186523 0.0237304687,11.8479492 0.441210937,12.2674805 L4.65014648,16.4963379 C1.60620117,21.6462891 0,27.5245605 0,33.544043 C0,42.5033203 3.48896484,50.9264648 9.82412109,57.2616211 C16.1592773,63.5969238 24.5824219,67.0857422 33.5416992,67.0857422 L70.251123,67.0873535 C72.0936035,67.0873535 73.5925781,65.5885254 73.5925781,63.7458984 L73.5925781,47.9953125 C74.5007813,47.0255859 75,45.7677246 75,44.4325195 L75,35.4498047 C75,34.6410645 74.3441895,33.9852539 73.5353027,33.9852539 Z M12.7350586,4.99892578 L21.1265625,13.3696289 L21.1265625,19.0391602 L12.7350586,10.6287598 L12.7350586,4.99892578 Z M10.6627441,12.6991699 L19.055127,21.1161621 L13.3809082,21.1161621 L5.00361328,12.6991699 L10.6627441,12.6991699 L10.6627441,12.6991699 Z M47.1363281,31.2131836 L59.5861816,31.2131836 L59.5861816,33.9852539 L47.1363281,33.9852539 L47.1363281,31.2131836 Z M70.6630371,57.1262695 L61.0510254,57.1262695 C60.2421387,57.1262695 59.5863281,57.7822266 59.5863281,58.5909668 C59.5863281,59.399707 60.2421387,60.0556641 61.0510254,60.0556641 L70.6630371,60.0556641 L70.6630371,63.745752 C70.6630371,63.9730957 70.4783203,64.157959 70.251123,64.157959 L38.2671387,64.157959 C38.2565918,64.1578125 38.2464844,64.1563477 38.2359375,64.1563477 L36.4558594,64.1563477 C36.2359863,64.147998 36.0594727,63.9678223 36.0594727,63.7458984 L36.0594727,49.5770508 C36.3461426,49.6259766 36.6402832,49.6529297 36.9405762,49.6529297 L49.0202637,49.6529297 C49.2799805,51.8182617 51.1271484,53.5025391 53.3613281,53.5025391 C55.598877,53.5025391 57.4483887,51.8129883 57.7035645,49.6428223 L69.7785645,49.6504395 C69.7797363,49.6504395 69.7807617,49.6504395 69.7819336,49.6504395 C70.0803223,49.6504395 70.3746094,49.6240723 70.6630371,49.575293 L70.6628906,57.1262695 L70.6630371,57.1262695 Z M51.9174316,49.1291016 L51.9174316,46.5543457 L54.8055176,46.5543457 L54.8055176,49.1291016 C54.8055176,49.9253906 54.1576172,50.5731445 53.3614746,50.5731445 C52.565332,50.5731445 51.9174316,49.9253906 51.9174316,49.1291016 Z M72.0706055,44.4325195 C72.0706055,45.0442383 71.8324219,45.619043 71.399707,46.0513184 C70.9674316,46.4833008 70.3930664,46.7211914 69.7819336,46.7211914 C69.7814941,46.7211914 69.7810547,46.7211914 69.7804688,46.7211914 L57.7347656,46.7135742 L57.7347656,45.3711914 C57.7347656,44.4083496 56.9515137,43.6249512 55.9885254,43.6249512 L50.7339844,43.6249512 C49.7711426,43.6249512 48.9877441,44.4082031 48.9877441,45.3711914 L48.9877441,46.7235352 L36.9405762,46.7235352 C35.6786133,46.7235352 34.6520508,45.6968262 34.6520508,44.4350098 L34.6520508,36.9146484 L72.0706055,36.9146484 L72.070459,44.4325195 L72.0706055,44.4325195 Z" id="Shape" fill="#4353FF"></path>
                        <path d="M54.9102539,57.5554688 C54.637793,57.2830078 54.2598633,57.1262695 53.8747559,57.1262695 C53.4880371,57.1262695 53.1117187,57.2828613 52.837793,57.5554688 C52.565332,57.8279297 52.4100586,58.2058594 52.4100586,58.5909668 C52.4100586,58.9762207 52.565332,59.3540039 52.837793,59.6263184 C53.1117187,59.8987793 53.4881836,60.0556641 53.8747559,60.0556641 C54.2600098,60.0556641 54.6364746,59.8989258 54.9102539,59.6263184 C55.1827148,59.3540039 55.3394531,58.9760742 55.3394531,58.5909668 C55.3394531,58.2058594 55.1827148,57.8279297 54.9102539,57.5554688 Z" id="Path" fill="#EDB726"></path>
                    </g>
                </g>
            </g>
        </g>
    </g>
</svg>