<?xml version="1.0" encoding="UTF-8"?>
<svg width="35px" height="28px" viewBox="0 0 35 28" version="1.1" xmlns="http://www.w3.org/2000/svg" xmlns:xlink="http://www.w3.org/1999/xlink">
    <!-- Generator: Sketch 48.2 (47327) - http://www.bohemiancoding.com/sketch -->
    <title>mail_icon@1x</title>
    <desc>Created with Sketch.</desc>
    <defs></defs>
    <g id="Contact-us" stroke="none" stroke-width="1" fill="none" fill-rule="evenodd" transform="translate(-262.000000, -582.000000)">
        <g id="mail_icon" transform="translate(256.000000, 572.000000)">
            <polygon id="Shape" points="0 0 48 0 48 48 0 48"></polygon>
            <path d="M11,10 L36,10 C38.7614237,10 41,12.2385763 41,15 L41,33 C41,35.7614237 38.7614237,38 36,38 L11,38 C8.23857625,38 6,35.7614237 6,33 L6,15 C6,12.2385763 8.23857625,10 11,10 Z M11,12 C9.34314575,12 8,13.3431458 8,15 L8,33 C8,34.6568542 9.34314575,36 11,36 L36,36 C37.6568542,36 39,34.6568542 39,33 L39,15 C39,13.3431458 37.6568542,12 36,12 L11,12 Z M11,33 C10.6094757,32.6094757 10.6094757,31.9763107 11,31.5857864 L17.5857864,25 C17.9763107,24.6094757 18.6094757,24.6094757 19,25 C19.3905243,25.3905243 19.3905243,26.0236893 19,26.4142136 L12.4142136,33 C12.0236893,33.3905243 11.3905243,33.3905243 11,33 Z M28.3971092,25 C28.7876335,24.6094757 29.4207985,24.6094757 29.8113228,25 L36.3971092,31.5857864 C36.7876335,31.9763107 36.7876335,32.6094757 36.3971092,33 C36.0065849,33.3905243 35.37342,33.3905243 34.9828957,33 L28.3971092,26.4142136 C28.0065849,26.0236893 28.0065849,25.3905243 28.3971092,25 Z M11.1316671,14.9602405 C11.4629224,14.561384 12.0518912,14.4996434 12.4586594,14.8211341 L22.0410564,22.3946153 C23.1137446,23.1047183 24.5830195,23.0963165 25.6454313,22.3740043 L34.871555,14.8404203 C35.273412,14.5122843 35.8638457,14.5655177 36.2005299,14.9602405 C36.5280263,15.3441918 36.4822606,15.9209341 36.0983093,16.2484305 C36.0933359,16.2526726 36.0883172,16.2568613 36.0832539,16.2609957 L26.8571302,23.7945796 C25.0864438,24.9984333 22.6376523,25.0124363 20.8498388,23.8289313 L11.2674418,16.2554501 C10.8731844,15.9438474 10.8061795,15.3716347 11.1177822,14.9773773 C11.1223411,14.9716091 11.1269697,14.9658965 11.1316671,14.9602405 Z" id="Mail-icon" fill="#4353FF" fill-rule="nonzero"></path>
        </g>
    </g>
</svg>