<?xml version="1.0" encoding="UTF-8"?>
<svg width="33px" height="33px" viewBox="0 0 33 33" version="1.1" xmlns="http://www.w3.org/2000/svg" xmlns:xlink="http://www.w3.org/1999/xlink">
    <!-- Generator: Sketch 48.2 (47327) - http://www.bohemiancoding.com/sketch -->
    <title>ic_call_black_24px copy 2@1x</title>
    <desc>Created with Sketch.</desc>
    <defs></defs>
    <g id="Contact-us" stroke="none" stroke-width="1" fill="none" fill-rule="evenodd" transform="translate(-264.000000, -516.000000)">
        <g id="ic_call_black_24px-copy-2" transform="translate(256.000000, 508.000000)">
            <polygon id="Shape" points="0 0 48 0 48 48 0 48"></polygon>
            <path d="M16.1017111,21.1304778 C18.5289112,25.9006001 22.4394001,29.7942334 27.2095223,32.238289 L29.9177445,29.5300668 C30.3728446,29.0749668 31.0470668,28.9232668 31.6370112,29.1255334 C33.5248335,29.749189 35.5643557,30.0863001 37.6544446,30.0863001 C38.5815001,30.0863001 39.3400002,30.8448001 39.3400002,31.7718557 L39.3400002,37.6544446 C39.3400002,38.5815001 38.5815001,39.3400002 37.6544446,39.3400002 C21.8270778,39.3400002 9,26.5129223 9,10.6855556 C9,9.7585 9.7585,9 10.6855556,9 L16.585,9 C17.5120556,9 18.2705556,9.7585 18.2705556,10.6855556 C18.2705556,12.7925 18.6076667,14.8151667 19.2313223,16.7029889 C19.4167334,17.2929334 19.2818889,17.9503 18.8099334,18.4222556 L16.1017111,21.1304778 Z" id="Shape" stroke="#4353FF" stroke-width="2" fill-rule="nonzero"></path>
        </g>
    </g>
</svg>
