  <svg className='col-12' width="574" height="310" viewBox="0 0 574 310" fill="none" xmlns="http://www.w3.org/2000/svg">
                  <path d="M572.501 310H1.49869C1.10122 310 0.719993 309.842 0.438933 309.562C0.157874 309.282 0 308.901 0 308.505C0 308.108 0.157874 307.728 0.438933 307.448C0.719993 307.167 1.10122 307.01 1.49869 307.01H572.501C572.899 307.01 573.28 307.167 573.561 307.448C573.842 307.728 574 308.108 574 308.505C574 308.901 573.842 309.282 573.561 309.562C573.28 309.842 572.899 310 572.501 310Z" fill="#F7F7F7" />
                  <path d="M186.25 280.096L186.989 296.227L186.989 296.227C187.114 298.953 186.187 301.619 184.414 303.638C182.641 305.657 180.165 306.864 177.533 306.994L177.21 307.01L176 280.6L186.25 280.096Z" fill="#2F3233" />
                  <path d="M424.333 259.871C416.71 274.745 407.041 289.131 394.808 302.15C394.536 302.444 394.262 302.731 393.985 303.022L365 289.302C365.177 289.008 365.372 288.677 365.581 288.316C378.032 267.015 453.19 137.081 450.816 107.653C451.092 110.08 460.001 190.347 424.333 259.871Z" fill="#D9DDFF" />
                  <path d="M400.209 304.347C399.799 304.576 399.379 304.8 398.956 305.016L377 294.812C377.307 294.598 377.665 294.345 378.076 294.061C384.802 289.32 404.804 275.095 424.376 259.807C445.409 243.378 465.95 225.725 469 217.299C468.38 219.231 449.129 277.964 400.209 304.347Z" fill="#D9DDFF" />
                  <path d="M130 307.01C148.778 307.01 164 291.613 164 272.621C164 253.628 148.778 238.231 130 238.231C111.222 238.231 96 253.628 96 272.621C96 291.613 111.222 307.01 130 307.01Z" fill="#22DDAB" />
                  <path d="M144.375 259.164H116.625C115.399 259.165 114.223 259.617 113.356 260.42C112.489 261.222 112.001 262.311 112 263.446V281.796C112.001 282.931 112.489 284.019 113.356 284.822C114.223 285.624 115.399 286.076 116.625 286.077H144.375C145.601 286.076 146.777 285.624 147.644 284.822C148.511 284.019 148.999 282.931 149 281.796V263.446C148.999 262.311 148.511 261.222 147.644 260.42C146.777 259.617 145.601 259.165 144.375 259.164ZM144.375 261.611C144.541 261.611 144.706 261.631 144.866 261.67L130.503 272.277L116.224 261.648C116.356 261.623 116.49 261.611 116.625 261.611H144.375ZM144.375 283.631H116.625C116.099 283.63 115.596 283.437 115.224 283.093C114.852 282.748 114.643 282.282 114.643 281.796V263.61L129.672 274.797C129.906 274.972 130.197 275.067 130.497 275.067C130.798 275.068 131.089 274.974 131.324 274.8L146.357 263.698V281.796C146.357 282.282 146.148 282.748 145.776 283.093C145.404 283.437 144.9 283.63 144.375 283.631Z" fill="#F7F7F7" />
                  <path d="M260.264 223.484L267.749 223.544C268.507 223.55 269.256 223.396 269.946 223.092C270.636 222.788 271.249 222.343 271.742 221.786C272.236 221.229 272.598 220.575 272.804 219.868C273.01 219.162 273.054 218.42 272.934 217.695C272.805 216.915 272.488 216.176 272.01 215.536C271.532 214.896 270.905 214.374 270.181 214.011C269.456 213.649 268.654 213.456 267.839 213.449C267.024 213.442 266.219 213.621 265.488 213.97L258.429 217.346L234.285 222.565L223.941 212.315L218 221.799L231.958 232.251L260.264 223.484Z" fill="#FFB8B8" />
                  <path d="M259 301.332L250.167 303.023C244.133 284.093 237.596 266.166 237.596 252.301C229.057 261.76 218.469 267.171 206 268.87L207.359 247.905L217.551 242.495L233.15 235.33C234.516 234.702 235.99 234.339 237.492 234.261C240.412 234.108 243.286 235.035 245.561 236.865C247.835 238.695 249.349 241.297 249.811 244.171L259 301.332Z" fill="#2F3233" />
                  <path d="M217 266.142L212.5 268.633C210.976 269.776 204.398 272.377 202.5 272.621C200.602 272.865 200.77 271.346 199 270.627C188.848 263.123 184.628 265.78 178.092 277.106C170.251 268.38 168.317 255.778 175.314 242.74L214.134 243.583L222 241.222L217 266.142Z" fill="#2F3233" />
                  <path d="M203.776 306.562C201.48 307.261 199.008 307.138 196.794 306.216C194.579 305.293 192.764 303.629 191.666 301.516C188.064 298.379 185.025 293.887 182.389 288.424C180.498 284.417 178.874 280.292 177.528 276.076C175.704 270.505 178.754 264.418 184.43 262.752C184.598 262.702 184.769 262.655 184.942 262.611C192.52 260.688 200.301 265.01 202.891 272.31L210.423 293.539C210.868 294.793 211.059 296.121 210.984 297.448C210.91 298.775 210.572 300.075 209.99 301.273C209.408 302.47 208.593 303.543 207.592 304.43C206.591 305.316 205.423 305.999 204.155 306.439C204.029 306.482 203.903 306.523 203.776 306.562Z" fill="#2F3233" />
                  <path opacity="0.2" d="M181 286.077C181 286.077 190.167 295.592 192 301.029L181 286.077Z" fill="#2F3233" />
                  <path d="M148.295 240.767L145.397 247.841C145.104 248.557 144.97 249.328 145.006 250.101C145.041 250.874 145.244 251.63 145.602 252.316C145.959 253.002 146.462 253.602 147.075 254.073C147.688 254.545 148.396 254.877 149.151 255.047C149.963 255.23 150.807 255.219 151.614 255.016C152.421 254.814 153.17 254.424 153.799 253.879C154.428 253.334 154.921 252.649 155.237 251.879C155.553 251.108 155.684 250.275 155.62 249.445L154.995 241.43L159.05 216.493L173 210.697L165.977 201.35L150.458 210.494L148.295 240.767Z" fill="#FFB8B8" />
                  <path d="M216.859 242.166C206.951 258.814 187.201 265.261 170.285 252.225C173.261 242.443 182.868 215.411 176.662 214.376C163.484 219.904 163.465 206.924 161 200.427L190.998 189.389L207.204 193.873L210.526 195.053C212.688 195.82 214.563 197.232 215.899 199.097C217.235 200.962 217.969 203.193 218 205.487C211.193 215.326 206.153 225.822 216.859 242.166Z" fill="#4353FF" />
                  <path d="M220.795 229.26L209 219.691L212.932 197.363L229 214.151L220.795 229.26Z" fill="#4353FF" />
                  <path d="M417 72.9564H415.314V26.7451C415.314 19.6519 412.497 12.8492 407.484 7.83347C402.471 2.81778 395.672 0 388.583 0H290.731C283.641 0 276.842 2.81778 271.829 7.83347C266.816 12.8492 264 19.6519 264 26.7451V280.265C264 287.358 266.816 294.161 271.829 299.176C276.842 304.192 283.641 307.01 290.731 307.01H388.582C395.672 307.01 402.471 304.192 407.484 299.176C412.497 294.161 415.313 287.358 415.313 280.265V105.85H417L417 72.9564Z" fill="#3F3D56" />
                  <path d="M389.932 6.97755H377.09C377.681 8.41834 377.906 9.98162 377.747 11.5296C377.587 13.0777 377.048 14.5629 376.175 15.8545C375.303 17.1461 374.125 18.2044 372.745 18.9361C371.364 19.6678 369.824 20.0505 368.26 20.0505H311.897C310.333 20.0504 308.794 19.6676 307.414 18.9359C306.034 18.2042 304.855 17.1461 303.983 15.8547C303.111 14.5633 302.571 13.0782 302.412 11.5304C302.252 9.98261 302.478 8.41951 303.068 6.97882H291.072C285.748 6.97882 280.643 9.08289 276.879 12.8282C273.115 16.5734 271 21.6531 271 26.9497V280.061C271 285.358 273.115 290.438 276.879 294.183C280.643 297.928 285.748 300.032 291.072 300.032H389.928C395.252 300.032 400.357 297.928 404.121 294.183C407.885 290.438 410 285.358 410 280.061V26.9485C410 21.6518 407.885 16.5722 404.121 12.8269C400.357 9.08161 395.252 6.97754 389.928 6.97754L389.932 6.97755Z" fill="#F7F7F7" />
                  <path d="M340 285.08C346.075 285.08 351 280.395 351 274.614C351 268.834 346.075 264.148 340 264.148C333.925 264.148 329 268.834 329 274.614C329 280.395 333.925 285.08 340 285.08Z" fill="#C2C6C9" />
                  <path d="M295.872 173.441C294.84 173.441 294 174.335 294 175.434C294 176.533 294.84 177.428 295.872 177.428H384.128C385.16 177.428 386 176.533 386 175.434C386 174.335 385.16 173.441 384.128 173.441H295.872Z" fill="#C2C6C9" />
                  <path d="M295.872 223.28C294.84 223.28 294 224.398 294 225.772C294 227.146 294.84 228.264 295.872 228.264H384.128C385.16 228.264 386 227.146 386 225.772C386 224.398 385.16 223.28 384.128 223.28H295.872Z" fill="#C2C6C9" />
                  <path d="M295.84 186.399C294.825 186.399 294 187.07 294 187.894C294 188.718 294.825 189.389 295.84 189.389H333.16C334.175 189.389 335 188.718 335 187.894C335 187.07 334.175 186.399 333.16 186.399H295.84Z" fill="#C2C6C9" />
                  <path d="M295.872 198.36C294.84 198.36 294 199.478 294 200.852C294 202.226 294.84 203.344 295.872 203.344H384.128C385.16 203.344 386 202.226 386 200.852C386 199.478 385.16 198.36 384.128 198.36H295.872Z" fill="#C2C6C9" />
                  <path d="M295.84 211.318C294.825 211.318 294 212.213 294 213.312C294 214.411 294.825 215.305 295.84 215.305H333.16C334.175 215.305 335 214.411 335 213.312C335 212.213 334.175 211.318 333.16 211.318H295.84Z" fill="#C2C6C9" />
                  <path d="M312.308 74.7588H367.692C368.304 74.7595 368.891 75.0048 369.323 75.4409C369.756 75.877 369.999 76.4683 370 77.085V135.23C369.999 135.847 369.756 136.438 369.323 136.874C368.891 137.31 368.304 137.555 367.692 137.556H312.308C311.696 137.555 311.109 137.31 310.677 136.874C310.244 136.438 310.001 135.847 310 135.23V77.085C310.001 76.4683 310.244 75.877 310.677 75.4409C311.109 75.0048 311.696 74.7595 312.308 74.7588Z" fill="#22DDAB" />
                  <path d="M355.427 125.595C355.633 125.595 355.837 125.557 356.028 125.482C356.219 125.407 356.393 125.297 356.539 125.158C356.685 125.019 356.801 124.855 356.88 124.673C356.959 124.492 357 124.297 357 124.1C357 123.904 356.959 123.709 356.881 123.528C356.802 123.346 356.686 123.181 356.54 123.042C356.394 122.903 356.22 122.793 356.03 122.718C355.839 122.643 355.634 122.604 355.428 122.604H323.573C323.367 122.604 323.163 122.642 322.972 122.717C322.781 122.792 322.607 122.902 322.461 123.041C322.315 123.18 322.199 123.345 322.12 123.526C322.041 123.708 322 123.902 322 124.099C322 124.295 322.041 124.49 322.119 124.672C322.198 124.853 322.314 125.018 322.46 125.157C322.606 125.296 322.78 125.406 322.97 125.481C323.161 125.557 323.366 125.595 323.572 125.595H355.427Z" fill="#F7F7F7" />
                  <path d="M355.43 116.624C355.846 116.624 356.245 116.466 356.54 116.186C356.835 115.905 357 115.525 357 115.129C357 114.732 356.835 114.352 356.54 114.071C356.245 113.791 355.846 113.633 355.43 113.633H323.571C323.155 113.633 322.755 113.791 322.461 114.071C322.166 114.351 322 114.731 322 115.128C322 115.524 322.165 115.905 322.459 116.185C322.754 116.466 323.153 116.624 323.57 116.624H355.43Z" fill="#F7F7F7" />
                  <path d="M340.5 86.7202C342.379 86.7202 344.216 87.334 345.778 88.4841C347.34 89.6341 348.558 91.2687 349.277 93.1812C349.996 95.0936 350.184 97.1981 349.817 99.2283C349.451 101.259 348.546 103.123 347.218 104.587C345.889 106.051 344.196 107.048 342.353 107.452C340.511 107.855 338.6 107.648 336.865 106.856C335.129 106.064 333.645 104.722 332.601 103.001C331.557 101.28 331 99.2565 331 97.1865C331.003 94.4116 332.005 91.7513 333.786 89.7892C335.567 87.827 337.981 86.7233 340.5 86.7202Z" fill="#F7F7F7" />
                  <path d="M214.716 187.396H185.284C184.678 187.395 184.098 187.155 183.67 186.727C183.241 186.3 183.001 185.721 183 185.117V172.46C183 167.961 184.791 163.647 187.979 160.466C191.167 157.285 195.491 155.498 200 155.498C204.509 155.498 208.833 157.285 212.021 160.466C215.209 163.647 217 167.961 217 172.46V185.117C216.999 185.721 216.759 186.3 216.33 186.727C215.902 187.155 215.322 187.395 214.716 187.396Z" fill="#2F3233" />
                  <path d="M213.923 179.716C217.199 173.743 214.996 166.253 209.004 162.988C203.011 159.723 195.497 161.918 192.222 167.891C188.946 173.865 191.148 181.354 197.141 184.619C203.133 187.885 210.647 185.689 213.923 179.716Z" fill="#FFB6B6" />
                  <path d="M221 173.441H203.267L203.085 170.809L202.176 173.441H199.446L199.085 168.225L197.283 173.441H192V173.182C192.004 169.551 193.401 166.069 195.885 163.502C198.369 160.934 201.737 159.49 205.25 159.486H207.75C211.263 159.49 214.631 160.934 217.115 163.502C219.599 166.069 220.996 169.551 221 173.182V173.441Z" fill="#2F3233" />
                  <path d="M202.698 189.389C202.561 189.389 202.425 189.377 202.29 189.354L189 187.049V165.466H203.63L203.268 165.881C198.228 171.656 202.025 181.021 204.737 186.089C204.936 186.46 205.026 186.879 204.994 187.298C204.962 187.717 204.81 188.118 204.556 188.456C204.344 188.745 204.064 188.98 203.741 189.142C203.418 189.304 203.061 189.389 202.698 189.389Z" fill="#2F3233" />
                  <path d="M246 296.046L262.49 296.045H262.491C265.278 296.045 267.951 297.164 269.922 299.155C271.893 301.147 273 303.847 273 306.664V307.009L246.001 307.01L246 296.046Z" fill="#2F3233" />
                  <path fill-rule="evenodd" clip-rule="evenodd" d="M198.256 211C198.407 211.421 198.517 211.849 198.58 212.276C199.713 212.393 200.7 212.854 201.543 213.665C202.514 214.619 203 215.771 203 217.121C203 218.465 202.514 219.614 201.543 220.567C200.562 221.523 199.379 222 197.994 222C196.615 222 195.442 221.523 194.47 220.567C193.489 219.611 193 218.465 193 217.121C193 216.94 193.009 216.758 193.025 216.583C193.044 216.365 193.073 216.15 193.11 215.937C193.29 215.163 193.606 214.443 194.057 213.785C194.533 213.115 195.129 212.543 195.852 212.067C196.58 211.587 197.382 211.231 198.256 211ZM198.164 215.559C198.312 215.23 198.423 214.895 198.502 214.554C199.028 214.649 199.492 214.889 199.89 215.279C200.41 215.787 200.669 216.402 200.669 217.124C200.669 217.847 200.41 218.461 199.89 218.969C199.366 219.488 198.732 219.747 197.991 219.747C197.249 219.747 196.618 219.488 196.098 218.969C195.921 218.797 195.773 218.615 195.656 218.418C196.05 218.169 196.413 217.877 196.744 217.548C197.372 216.967 197.845 216.306 198.164 215.559ZM196.401 215.458C196.524 215.246 196.631 215.03 196.719 214.815C196.95 214.247 197.06 213.669 197.047 213.075C196.306 213.527 195.716 214.13 195.278 214.88C195.274 214.892 195.268 214.904 195.259 214.917C194.814 215.679 194.603 216.472 194.625 217.296C194.88 217.133 195.117 216.955 195.338 216.758C195.757 216.386 196.114 215.953 196.401 215.458Z" fill="#F7F7F7" />
                </svg>