<svg width="600" height="474" viewBox="0 0 600 474" fill="none" xmlns="http://www.w3.org/2000/svg">
<path d="M15.7152 221.958C8.70782 222.849 -0.0806285 225.399 0.000558374 231.325C0.042001 234.332 2.59386 236.895 5.07565 239.093C15.6243 248.498 27.6587 256.816 40.8893 263.845C47.2077 267.194 53.999 270.397 58.1976 275.574C62.3962 280.751 63.4532 287.34 63.786 293.609C64.6048 308.452 62.3689 323.301 57.164 337.588C77.7366 340.654 100.68 343.341 117.825 333.659C128.091 327.86 135.034 318.146 146.473 314.125C154.111 311.438 162.76 311.676 171.087 312.019C210.503 313.642 249.823 316.688 289.045 321.157C305.471 323.031 322.213 325.151 338.465 322.729C354.716 320.307 370.704 312.407 376.696 299.599C377.618 297.625 378.448 295.423 380.515 294.235C382.383 293.175 384.83 293.198 387.102 293.262L524.377 296.954C531.898 297.155 539.682 297.319 546.567 294.898C553.241 292.554 558.374 288.044 563.315 283.625C574.614 273.545 586.766 261.144 583.443 247.464C580.786 236.498 568.909 228.835 557.13 223.471C545.352 218.107 532.359 213.715 523.705 205.139C510.537 192.085 511.057 173.401 510.239 156.463C509.494 141.125 507.082 125.865 503.028 110.848C499.46 97.647 494.49 84.4281 485.2 73.2791C475.909 62.1301 461.701 53.2018 445.631 51.566C424.644 49.4276 403.546 59.6719 383.014 55.3219C365.671 51.6665 353.735 38.6761 339.364 29.6747C313.839 13.6822 280.344 10.333 248.676 10.0268C215.099 9.69326 180.634 12.3526 150.707 24.6896C143.851 27.5134 137.148 30.9312 132.4 35.9208C125.124 43.5744 123.361 53.8552 118.601 62.8018C99.4187 98.8259 37.0294 106.594 16.778 142.234C9.58959 154.877 9.65966 169.622 14.8977 182.9C20.5328 197.188 36.3929 205.08 42.682 217.535C35.9141 220.944 23.9197 220.912 15.7152 221.958Z" fill="#456AFF"/>
<path fill-rule="evenodd" clip-rule="evenodd" d="M21.2139 352.691C13.4827 410.178 200.977 447.675 362.358 421.507C523.739 395.339 597.773 293.149 520.764 238.698C443.756 184.247 28.9451 295.204 21.2139 352.691Z" fill="#456AFF"/>
<path d="M564.107 400.477H270.425C267.396 400.474 264.492 399.269 262.35 397.127C260.208 394.986 259.003 392.082 259 389.053V60.4247C259.003 57.3957 260.208 54.4918 262.35 52.35C264.492 50.2082 267.396 49.0034 270.425 49H564.107C567.135 49.0034 570.039 50.2082 572.181 52.35C574.323 54.4918 575.528 57.3957 575.531 60.4247V389.053C575.528 392.082 574.323 394.986 572.181 397.127C570.039 399.269 567.135 400.474 564.107 400.477ZM270.425 50.3441C267.752 50.3471 265.19 51.4101 263.3 53.3C261.41 55.1898 260.347 57.7521 260.344 60.4247V389.053C260.347 391.725 261.41 394.288 263.3 396.177C265.19 398.067 267.752 399.13 270.425 399.133H564.107C566.779 399.13 569.341 398.067 571.231 396.177C573.121 394.288 574.184 391.725 574.187 389.053V60.4247C574.184 57.7521 573.121 55.1898 571.231 53.3C569.341 51.4101 566.779 50.3471 564.107 50.3441H270.425Z" fill="#3F3D56"/>
<path d="M564.107 400.477H270.425C267.396 400.474 264.492 399.269 262.35 397.127C260.208 394.986 259.003 392.082 259 389.053V60.4247C259.003 57.3957 260.208 54.4918 262.35 52.35C264.492 50.2082 267.396 49.0034 270.425 49H564.107C567.135 49.0034 570.039 50.2082 572.181 52.35C574.323 54.4918 575.528 57.3957 575.531 60.4247V389.053C575.528 392.082 574.323 394.986 572.181 397.127C570.039 399.269 567.135 400.474 564.107 400.477ZM270.425 50.3441C267.752 50.3471 265.19 51.4101 263.3 53.3C261.41 55.1898 260.347 57.7521 260.344 60.4247V389.053C260.347 391.725 261.41 394.288 263.3 396.177C265.19 398.067 267.752 399.13 270.425 399.133H564.107C566.779 399.13 569.341 398.067 571.231 396.177C573.121 394.288 574.184 391.725 574.187 389.053V60.4247C574.184 57.7521 573.121 55.1898 571.231 53.3C569.341 51.4101 566.779 50.3471 564.107 50.3441H270.425Z" fill="#F5F6FF"/>
<path d="M270.425 50.3441C267.752 50.3471 265.19 51.4101 263.3 53.3C261.41 55.1898 260.347 57.7521 260.344 60.4247V389.053C260.347 391.725 261.41 394.288 263.3 396.177C265.19 398.067 267.752 399.13 270.425 399.133H564.107C566.779 399.13 569.341 398.067 571.231 396.177C573.121 394.288 574.184 391.725 574.187 389.053V60.4247C574.184 57.7521 573.121 55.1898 571.231 53.3C569.341 51.4101 566.779 50.3471 564.107 50.3441H270.425Z" fill="#F5F6FF"/>
<path fill-rule="evenodd" clip-rule="evenodd" d="M555.939 55C556.2 55.7294 556.385 56.4641 556.493 57.2042C558.421 57.4063 560.097 58.2066 561.522 59.6051C563.174 61.2541 564 63.2443 564 65.576C564 67.8943 563.174 69.878 561.522 71.5265C559.856 73.1754 557.845 74 555.49 74C553.147 74 551.151 73.1754 549.499 71.5265C547.833 69.878 547 67.8943 547 65.576C547 65.2594 547.014 64.9489 547.042 64.6447C547.077 64.2653 547.125 63.893 547.188 63.5272C547.495 62.1887 548.032 60.9504 548.798 59.8121C549.607 58.653 550.624 57.6631 551.851 56.842C553.092 56.0142 554.454 55.4001 555.939 55ZM556.357 61.1367C556.225 61.7291 556.033 62.3084 555.782 62.8753C555.246 64.1653 554.44 65.3105 553.367 66.311C552.806 66.8791 552.189 67.3792 551.517 67.8115C551.717 68.1506 551.968 68.4679 552.269 68.7636C553.155 69.6604 554.228 70.1089 555.49 70.1089C556.751 70.1089 557.828 69.6604 558.72 68.7636C559.605 67.8873 560.048 66.8251 560.048 65.576C560.048 64.3274 559.605 63.265 558.72 62.3889C558.041 61.7164 557.253 61.2992 556.357 61.1367ZM553.879 58.591C552.618 59.3706 551.614 60.4088 550.868 61.7059C550.861 61.7266 550.851 61.7473 550.837 61.768C550.084 63.0856 549.725 64.4551 549.76 65.8764C550.194 65.5953 550.598 65.2848 550.973 64.945C551.688 64.3011 552.291 63.5525 552.781 62.6993C552.992 62.3336 553.173 61.9644 553.325 61.592C553.72 60.612 553.905 59.6117 553.879 58.591Z" fill="#4454FF"/>
<path opacity="0.3" fill-rule="evenodd" clip-rule="evenodd" d="M269.769 49H565C569.933 49 575.5 53.9291 575.5 59.5L575.524 78.2857H259V59.7537C259 54.1829 264.836 49 269.769 49Z" fill="#E0E3FC"/>
<path d="M275.129 69.1613C278.098 69.1613 280.505 66.7542 280.505 63.785C280.505 60.8157 278.098 58.4086 275.129 58.4086C272.16 58.4086 269.753 60.8157 269.753 63.785C269.753 66.7542 272.16 69.1613 275.129 69.1613Z" fill="#C4C8F5"/>
<path d="M291.93 69.1613C294.899 69.1613 297.306 66.7542 297.306 63.785C297.306 60.8157 294.899 58.4086 291.93 58.4086C288.961 58.4086 286.554 60.8157 286.554 63.785C286.554 66.7542 288.961 69.1613 291.93 69.1613Z" fill="#C4C8F5"/>
<path d="M308.731 69.1613C311.7 69.1613 314.107 66.7542 314.107 63.785C314.107 60.8157 311.7 58.4086 308.731 58.4086C305.762 58.4086 303.355 60.8157 303.355 63.785C303.355 66.7542 305.762 69.1613 308.731 69.1613Z" fill="#C4C8F5"/>
<path d="M470.259 195.23H374.829C373.403 195.23 372.036 194.663 371.027 193.655C370.019 192.647 369.453 191.279 369.453 189.853C369.453 188.428 370.019 187.06 371.027 186.052C372.036 185.044 373.403 184.477 374.829 184.477H470.259C471.685 184.477 473.052 185.044 474.06 186.052C475.069 187.06 475.635 188.428 475.635 189.853C475.635 191.279 475.069 192.647 474.06 193.655C473.052 194.663 471.685 195.23 470.259 195.23Z" fill="#C4C8F5"/>
<path d="M525.366 213.375H374.829C373.403 213.375 372.036 212.808 371.027 211.8C370.019 210.792 369.453 209.424 369.453 207.999C369.453 206.573 370.019 205.205 371.027 204.197C372.036 203.189 373.403 202.622 374.829 202.622H525.366C526.792 202.622 528.16 203.189 529.168 204.197C530.176 205.205 530.743 206.573 530.743 207.999C530.743 209.424 530.176 210.792 529.168 211.8C528.16 212.808 526.792 213.375 525.366 213.375Z" fill="#C4C8F5"/>
<path d="M339.071 214.383H310.173C308.48 214.381 306.858 213.708 305.661 212.511C304.464 211.314 303.791 209.691 303.789 207.999V189.853C303.791 188.161 304.464 186.538 305.661 185.341C306.858 184.144 308.48 183.471 310.173 183.469H339.071C340.763 183.471 342.386 184.144 343.583 185.341C344.78 186.538 345.453 188.161 345.455 189.853V207.999C345.453 209.691 344.78 211.314 343.583 212.511C342.386 213.708 340.763 214.381 339.071 214.383ZM310.173 184.813C308.837 184.815 307.556 185.346 306.611 186.291C305.666 187.236 305.134 188.517 305.133 189.853V207.999C305.134 209.335 305.666 210.616 306.611 211.561C307.556 212.506 308.837 213.037 310.173 213.039H339.071C340.407 213.037 341.688 212.506 342.633 211.561C343.578 210.616 344.11 209.335 344.111 207.999V189.853C344.11 188.517 343.578 187.236 342.633 186.291C341.688 185.346 340.407 184.815 339.071 184.813H310.173Z" fill="#FFE1D9"/>
<path d="M310.173 184.813C308.837 184.815 307.556 185.346 306.611 186.291C305.666 187.236 305.134 188.517 305.133 189.853V207.999C305.134 209.335 305.666 210.616 306.611 211.561C307.556 212.506 308.837 213.037 310.173 213.039H339.071C340.407 213.037 341.688 212.506 342.633 211.561C343.578 210.616 344.11 209.335 344.111 207.999V189.853C344.11 188.517 343.578 187.236 342.633 186.291C341.688 185.346 340.407 184.815 339.071 184.813H310.173Z" fill="#FFE1D9"/>
<path d="M470.259 259.074H374.829C373.403 259.074 372.036 258.507 371.027 257.499C370.019 256.491 369.453 255.123 369.453 253.697C369.453 252.271 370.019 250.904 371.027 249.896C372.036 248.887 373.403 248.321 374.829 248.321H470.259C471.685 248.321 473.052 248.887 474.06 249.896C475.069 250.904 475.635 252.271 475.635 253.697C475.635 255.123 475.069 256.491 474.06 257.499C473.052 258.507 471.685 259.074 470.259 259.074Z" fill="#C4C8F5"/>
<path d="M525.366 277.219H374.829C373.403 277.219 372.036 276.652 371.027 275.644C370.019 274.636 369.453 273.268 369.453 271.842C369.453 270.416 370.019 269.049 371.027 268.041C372.036 267.032 373.403 266.466 374.829 266.466H525.366C526.792 266.466 528.16 267.032 529.168 268.041C530.176 269.049 530.743 270.416 530.743 271.842C530.743 273.268 530.176 274.636 529.168 275.644C528.16 276.652 526.792 277.219 525.366 277.219Z" fill="#C4C8F5"/>
<path d="M339.071 278.227H310.173C308.48 278.225 306.858 277.552 305.661 276.355C304.464 275.158 303.791 273.535 303.789 271.842V253.697C303.791 252.005 304.464 250.382 305.661 249.185C306.858 247.988 308.48 247.315 310.173 247.313H339.071C340.763 247.315 342.386 247.988 343.583 249.185C344.78 250.382 345.453 252.005 345.455 253.697V271.842C345.453 273.535 344.78 275.158 343.583 276.355C342.386 277.552 340.763 278.225 339.071 278.227ZM310.173 248.657C308.837 248.658 307.556 249.19 306.611 250.135C305.666 251.08 305.134 252.361 305.133 253.697V271.842C305.134 273.179 305.666 274.46 306.611 275.405C307.556 276.35 308.837 276.881 310.173 276.883H339.071C340.407 276.881 341.688 276.35 342.633 275.405C343.578 274.46 344.11 273.179 344.111 271.842V253.697C344.11 252.361 343.578 251.08 342.633 250.135C341.688 249.19 340.407 248.658 339.071 248.657H310.173Z" fill="#FFE1D9"/>
<path d="M310.173 248.657C308.837 248.658 307.556 249.19 306.611 250.135C305.666 251.08 305.134 252.361 305.133 253.697V271.842C305.134 273.179 305.666 274.46 306.611 275.405C307.556 276.35 308.837 276.881 310.173 276.883H339.071C340.407 276.881 341.688 276.35 342.633 275.405C343.578 274.46 344.11 273.179 344.111 271.842V253.697C344.11 252.361 343.578 251.08 342.633 250.135C341.688 249.19 340.407 248.658 339.071 248.657H310.173Z" fill="#FFE1D9"/>
<path d="M470.259 322.917H374.829C373.403 322.917 372.036 322.351 371.027 321.343C370.019 320.335 369.453 318.967 369.453 317.541C369.453 316.115 370.019 314.748 371.027 313.74C372.036 312.731 373.403 312.165 374.829 312.165H470.259C471.685 312.165 473.052 312.731 474.06 313.74C475.069 314.748 475.635 316.115 475.635 317.541C475.635 318.967 475.069 320.335 474.06 321.343C473.052 322.351 471.685 322.917 470.259 322.917Z" fill="#C4C8F5"/>
<path d="M525.366 341.063H374.829C373.403 341.063 372.036 340.496 371.027 339.488C370.019 338.48 369.453 337.112 369.453 335.686C369.453 334.26 370.019 332.893 371.027 331.885C372.036 330.876 373.403 330.31 374.829 330.31H525.366C526.792 330.31 528.16 330.876 529.168 331.885C530.176 332.893 530.743 334.26 530.743 335.686C530.743 337.112 530.176 338.48 529.168 339.488C528.16 340.496 526.792 341.063 525.366 341.063Z" fill="#C4C8F5"/>
<path d="M324.622 208.831L323.066 207.427C317.54 202.354 313.892 199.061 313.892 194.959C313.878 194.178 314.021 193.403 314.312 192.679C314.604 191.954 315.037 191.296 315.587 190.742C316.138 190.189 316.793 189.751 317.516 189.456C318.238 189.16 319.013 189.012 319.793 189.021C320.714 189.026 321.623 189.231 322.457 189.623C323.291 190.014 324.03 190.583 324.622 191.288C325.214 190.583 325.953 190.014 326.786 189.623C327.62 189.231 328.529 189.026 329.45 189.021C330.231 189.012 331.005 189.16 331.728 189.456C332.45 189.751 333.106 190.189 333.656 190.742C334.206 191.296 334.64 191.954 334.931 192.679C335.223 193.403 335.366 194.178 335.352 194.959C335.352 199.061 331.704 202.354 326.178 207.427L324.622 208.831Z" fill="#FF6841"/>
<path d="M470.259 132.761H374.829C373.403 132.761 372.036 132.194 371.027 131.186C370.019 130.178 369.453 128.81 369.453 127.384C369.453 125.958 370.019 124.591 371.027 123.583C372.036 122.574 373.403 122.008 374.829 122.008H470.259C471.685 122.008 473.052 122.574 474.06 123.583C475.069 124.591 475.635 125.958 475.635 127.384C475.635 128.81 475.069 130.178 474.06 131.186C473.052 132.194 471.685 132.761 470.259 132.761Z" fill="#C4C8F5"/>
<path d="M525.366 150.906H374.829C373.403 150.906 372.036 150.339 371.027 149.331C370.019 148.323 369.453 146.955 369.453 145.529C369.453 144.104 370.019 142.736 371.027 141.728C372.036 140.72 373.403 140.153 374.829 140.153H525.366C526.792 140.153 528.16 140.72 529.168 141.728C530.176 142.736 530.743 144.104 530.743 145.529C530.743 146.955 530.176 148.323 529.168 149.331C528.16 150.339 526.792 150.906 525.366 150.906Z" fill="#C4C8F5"/>
<path d="M339.071 151.914H310.173C308.48 151.912 306.858 151.239 305.661 150.042C304.464 148.845 303.791 147.222 303.789 145.529V127.384C303.791 125.692 304.464 124.069 305.661 122.872C306.858 121.675 308.48 121.002 310.173 121H339.071C340.763 121.002 342.386 121.675 343.583 122.872C344.78 124.069 345.453 125.692 345.455 127.384V145.529C345.453 147.222 344.78 148.845 343.583 150.042C342.386 151.239 340.763 151.912 339.071 151.914ZM310.173 122.344C308.837 122.346 307.556 122.877 306.611 123.822C305.666 124.767 305.134 126.048 305.133 127.384V145.529C305.134 146.866 305.666 148.147 306.611 149.092C307.556 150.037 308.837 150.568 310.173 150.57H339.071C340.407 150.568 341.688 150.037 342.633 149.092C343.578 148.147 344.11 146.866 344.111 145.529V127.384C344.11 126.048 343.578 124.767 342.633 123.822C341.688 122.877 340.407 122.346 339.071 122.344H310.173Z" fill="#FFE1D9"/>
<path d="M310.173 122.344C308.837 122.346 307.556 122.877 306.611 123.822C305.666 124.767 305.134 126.048 305.133 127.384V145.529C305.134 146.866 305.666 148.147 306.611 149.092C307.556 150.037 308.837 150.568 310.173 150.57H339.071C340.407 150.568 341.688 150.037 342.633 149.092C343.578 148.147 344.11 146.866 344.111 145.529V127.384C344.11 126.048 343.578 124.767 342.633 123.822C341.688 122.877 340.407 122.346 339.071 122.344H310.173Z" fill="#FFE1D9"/>
<path d="M324.622 146.362L323.066 144.958C317.54 139.884 313.892 136.592 313.892 132.49C313.878 131.709 314.021 130.934 314.312 130.21C314.604 129.485 315.037 128.827 315.587 128.273C316.138 127.72 316.793 127.282 317.516 126.987C318.238 126.691 319.013 126.543 319.793 126.552C320.714 126.557 321.623 126.762 322.457 127.154C323.291 127.545 324.03 128.114 324.622 128.819C325.214 128.114 325.953 127.545 326.786 127.154C327.62 126.762 328.529 126.557 329.45 126.552C330.231 126.543 331.005 126.691 331.728 126.987C332.45 127.282 333.106 127.72 333.656 128.273C334.206 128.827 334.64 129.485 334.931 130.21C335.223 130.934 335.366 131.709 335.352 132.49C335.352 136.592 331.704 139.884 326.178 144.958L324.622 146.362Z" fill="#FF6841"/>
<path d="M324.622 272.675L323.066 271.271C317.54 266.197 313.892 262.904 313.892 258.802C313.878 258.022 314.021 257.247 314.312 256.523C314.604 255.798 315.037 255.14 315.587 254.586C316.138 254.033 316.793 253.595 317.516 253.299C318.238 253.004 319.013 252.856 319.793 252.865C320.714 252.87 321.623 253.075 322.457 253.467C323.291 253.858 324.03 254.427 324.622 255.132C325.214 254.426 325.953 253.858 326.786 253.467C327.62 253.075 328.529 252.87 329.45 252.865C330.231 252.856 331.005 253.004 331.728 253.299C332.45 253.595 333.106 254.033 333.656 254.586C334.206 255.14 334.64 255.798 334.931 256.523C335.223 257.247 335.366 258.022 335.352 258.802C335.352 262.904 331.704 266.197 326.178 271.271L324.622 272.675Z" fill="#FF6841"/>
<path d="M339.071 340.914H310.173C308.48 340.912 306.858 340.239 305.661 339.042C304.464 337.845 303.791 336.222 303.789 334.529V316.384C303.791 314.692 304.464 313.069 305.661 311.872C306.858 310.675 308.48 310.002 310.173 310H339.071C340.763 310.002 342.386 310.675 343.583 311.872C344.78 313.069 345.453 314.692 345.455 316.384V334.529C345.453 336.222 344.78 337.845 343.583 339.042C342.386 340.239 340.763 340.912 339.071 340.914ZM310.173 311.344C308.837 311.346 307.556 311.877 306.611 312.822C305.666 313.767 305.134 315.048 305.133 316.384V334.529C305.134 335.866 305.666 337.147 306.611 338.092C307.556 339.037 308.837 339.568 310.173 339.57H339.071C340.407 339.568 341.688 339.037 342.633 338.092C343.578 337.147 344.11 335.866 344.111 334.529V316.384C344.11 315.048 343.578 313.767 342.633 312.822C341.688 311.877 340.407 311.346 339.071 311.344H310.173Z" fill="#FFE1D9"/>
<path d="M310.173 311.344C308.837 311.346 307.556 311.877 306.611 312.822C305.666 313.767 305.134 315.048 305.133 316.384V334.529C305.134 335.866 305.666 337.147 306.611 338.092C307.556 339.037 308.837 339.568 310.173 339.57H339.071C340.407 339.568 341.688 339.037 342.633 338.092C343.578 337.147 344.11 335.866 344.111 334.529V316.384C344.11 315.048 343.578 313.767 342.633 312.822C341.688 311.877 340.407 311.346 339.071 311.344H310.173Z" fill="#FFE1D9"/>
<path d="M324.622 335.362L323.066 333.958C317.54 328.884 313.892 325.592 313.892 321.49C313.878 320.709 314.021 319.934 314.312 319.21C314.604 318.485 315.037 317.827 315.587 317.273C316.138 316.72 316.793 316.282 317.516 315.987C318.238 315.691 319.013 315.543 319.793 315.552C320.714 315.557 321.623 315.762 322.457 316.154C323.291 316.545 324.03 317.114 324.622 317.819C325.214 317.114 325.953 316.545 326.786 316.154C327.62 315.762 328.529 315.557 329.45 315.552C330.231 315.543 331.005 315.691 331.728 315.987C332.45 316.282 333.106 316.72 333.656 317.273C334.206 317.827 334.64 318.485 334.931 319.21C335.223 319.934 335.366 320.709 335.352 321.49C335.352 325.592 331.704 328.884 326.178 333.958L324.622 335.362Z" fill="#FF6841"/>
<path d="M134.95 157.054C134.95 157.054 126.848 191.264 136.751 191.264C146.654 191.264 170.061 152.552 170.061 152.552L161.958 142.65L147.415 162.841L146.654 152.553L134.95 157.054Z" fill="#A0616A"/>
<path d="M167.901 154.04C172.255 154.04 175.784 150.511 175.784 146.157C175.784 141.804 172.255 138.275 167.901 138.275C163.548 138.275 160.019 141.804 160.019 146.157C160.019 150.511 163.548 154.04 167.901 154.04Z" fill="#B28B67"/>
<path d="M128.08 390.055L138.572 390.054L143.564 349.584L128.078 349.584L128.08 390.055Z" fill="#B28B67"/>
<path d="M127.71 401L159.975 400.999V400.591C159.975 397.26 158.652 394.066 156.297 391.711C153.942 389.356 150.748 388.033 147.417 388.033H147.416L141.523 383.561L130.526 388.033L127.71 388.033L127.71 401Z" fill="#E4E4E4"/>
<path d="M15.2187 376.965L24.6066 381.649L47.1454 347.667L33.2894 340.752L15.2187 376.965Z" fill="#B28B67"/>
<path d="M10 386.593L38.8696 401L39.0518 400.635C40.539 397.655 40.7814 394.206 39.7259 391.047C38.6704 387.888 36.4033 385.278 33.4233 383.79L33.4226 383.79L30.1459 377.158L18.3101 376.248L15.79 374.991L10 386.593Z" fill="#E4E4E4"/>
<path d="M60.2454 219.116C60.2454 219.116 56.0524 269.532 55.1522 280.335C54.5349 287.107 53.0212 293.768 50.6508 300.141C50.6508 300.141 48.8503 303.742 48.8503 307.344L28.4441 344.429C28.4441 344.429 22.2084 349.013 23.1087 352.614C24.0089 356.215 19.3491 358.375 19.3491 358.375L40.8386 362.517C40.8386 362.517 39.9384 359.816 42.6392 358.916C45.34 358.016 47.4899 350.207 47.4899 350.207L77.6589 301.042L99.2654 256.028C99.2654 256.028 111.869 296.54 114.57 301.042C114.57 301.042 124.473 351.457 126.273 355.958C128.074 360.46 128.974 360.459 128.074 362.26C127.174 364.061 127.174 365.861 128.074 366.761C128.974 367.662 146.079 366.761 146.079 366.761L141.578 302.842L133.476 226.319L92.0632 213.715L60.2454 219.116Z" fill="#2F2E41"/>
<path d="M100.79 104.761C111.232 104.761 119.696 96.2963 119.696 85.855C119.696 75.4136 111.232 66.9493 100.79 66.9493C90.349 66.9493 81.8847 75.4136 81.8847 85.855C81.8847 96.2963 90.349 104.761 100.79 104.761Z" fill="#B28B67"/>
<path d="M135.276 126.389L112.77 112.753C112.77 112.753 112.146 104.286 105.734 103.888C102.514 103.688 97.6832 103.382 90.4331 102.914C88.9009 102.816 87.867 111.198 86.111 111.085L62.3543 117.386L65.9553 178.605C65.9553 178.605 60.5537 202.912 62.3543 207.413C64.1548 211.915 57.8529 213.715 59.6534 214.616C61.454 215.516 59.6534 221.818 59.6534 221.818C59.6534 221.818 94.764 239.823 133.476 226.319L129.874 214.616C130.365 213.086 130.456 211.456 130.141 209.881C129.826 208.306 129.115 206.837 128.074 205.613C128.074 205.613 131.675 200.211 127.174 195.71C127.174 195.71 128.974 187.607 124.473 184.006L123.573 171.403L126.273 165.101L135.276 126.389Z" fill="#2F3676"/>
<path d="M84.3851 96.6552L83.8566 95.4277C83.7885 95.269 77.1025 79.4634 83.0288 69.714C85.7721 65.2006 90.7605 62.6523 97.8548 62.1408C108.955 61.3381 116.552 63.9713 120.441 69.9615C121.094 70.9768 121.46 72.149 121.502 73.3548C121.545 74.5607 121.262 75.7557 120.682 76.8142C120.103 77.8728 119.25 78.7557 118.211 79.3702C117.173 79.9847 115.988 80.308 114.781 80.3063H114.632L112.592 77.658L112.474 77.9156C111.735 79.5131 110.04 80.3877 108.053 80.1961C107.715 80.1719 107.416 80.4635 107.176 81.0876C107.095 81.3606 106.942 81.6068 106.733 81.8003C106.524 81.9939 106.267 82.1276 105.989 82.1875C104.521 82.4732 102.429 80.6246 101.493 79.7032C101.457 79.9153 101.375 80.1171 101.255 80.295C101.134 80.473 100.976 80.6229 100.792 80.7347C99.8056 81.304 98.2699 80.5603 97.829 80.3235C94.3174 81.0695 92.0443 80.87 91.0705 79.731C90.4103 84.402 88.9933 92.8096 87.2942 93.2756C87.1167 93.3165 86.9306 93.2991 86.7637 93.2261C86.5967 93.1531 86.4576 93.0284 86.367 92.8703C85.9578 92.3392 85.5922 92.0745 85.3639 92.1488C84.8112 92.3246 84.4849 94.1449 84.4381 95.3196L84.3851 96.6552Z" fill="#2F2E41"/>
<path d="M125.373 127.29L134.354 125.831C140.823 132.046 145.23 140.097 146.98 148.896C149.68 163.3 150.581 166.001 150.581 166.001L128.974 171.403L117.271 148.896L125.373 127.29Z" fill="#2F3676"/>
<path d="M85.5229 146.025L79.973 216.381L221.604 227.553L227.154 157.197L85.5229 146.025Z" fill="#FFF3D1"/>
<path d="M100.654 151.476C97.1883 149.001 92.7878 148.822 91.1068 148.857C91.6196 150.458 93.2134 154.564 96.6793 157.04C100.154 159.522 104.549 159.695 106.227 159.661C105.715 158.06 104.121 153.953 100.654 151.476Z" fill="white"/>
<path d="M114.328 196.245L91.5857 194.451C90.9137 194.398 90.2379 194.478 89.5968 194.686C88.9557 194.894 88.3619 195.226 87.8493 195.664C87.3366 196.102 86.9152 196.636 86.6091 197.237C86.303 197.837 86.1181 198.492 86.0651 199.164C86.0121 199.836 86.092 200.512 86.3002 201.153C86.5084 201.794 86.8408 202.388 87.2784 202.9C87.7161 203.413 88.2505 203.834 88.851 204.141C89.4515 204.447 90.1065 204.632 90.7784 204.685L113.52 206.479C114.877 206.586 116.221 206.149 117.257 205.265C118.292 204.381 118.934 203.122 119.041 201.765C119.148 200.408 118.711 199.064 117.828 198.029C116.944 196.993 115.685 196.352 114.328 196.245Z" fill="white"/>
<path d="M221.571 150.359L94.0641 140.3C92.581 140.183 91.0895 140.359 89.6746 140.819C88.2598 141.279 86.9493 142.012 85.8181 142.979C84.6868 143.945 83.757 145.124 83.0816 146.45C82.4062 147.775 81.9985 149.221 81.8818 150.704L76.978 212.824C76.7423 215.82 77.7061 218.786 79.6574 221.072C81.6087 223.358 84.3878 224.775 87.3837 225.012L214.89 235.071C216.373 235.188 217.865 235.011 219.28 234.552C220.695 234.092 222.005 233.358 223.136 232.392C224.268 231.426 225.197 230.246 225.873 228.921C226.548 227.595 226.956 226.15 227.073 224.667L231.733 165.624L231.826 164.418L231.975 162.541C232.092 161.058 231.915 159.566 231.456 158.152C230.996 156.737 230.262 155.426 229.296 154.295C228.33 153.164 227.15 152.234 225.825 151.559C224.499 150.883 223.054 150.475 221.571 150.359ZM217.806 204.406L216.998 214.64C216.85 216.448 215.993 218.123 214.613 219.301C213.233 220.478 211.444 221.061 209.636 220.923L192.577 219.578C190.77 219.431 189.094 218.573 187.917 217.194C186.74 215.814 186.157 214.025 186.295 212.217L187.103 201.982C187.251 200.175 188.109 198.5 189.488 197.323C190.868 196.146 192.657 195.562 194.465 195.7L211.518 197.046C213.325 197.194 215 198.051 216.178 199.43C217.356 200.809 217.941 202.598 217.806 204.406ZM84.9368 199.07C85.0691 197.414 85.8529 195.878 87.1163 194.799C88.3797 193.72 90.0194 193.187 91.6757 193.315L114.417 195.11C115.238 195.174 116.039 195.398 116.774 195.772C117.508 196.145 118.162 196.659 118.698 197.285C119.234 197.911 119.641 198.636 119.896 199.42C120.152 200.203 120.25 201.029 120.186 201.85C120.122 202.672 119.897 203.473 119.523 204.207C119.149 204.941 118.634 205.595 118.008 206.13C117.382 206.665 116.656 207.072 115.872 207.327C115.089 207.581 114.263 207.679 113.441 207.614L113.43 207.617L90.6886 205.822C89.8672 205.757 89.0668 205.531 88.333 205.156C87.5992 204.782 86.9465 204.266 86.4123 203.639C85.878 203.012 85.4727 202.285 85.2195 201.501C84.9663 200.717 84.8702 199.891 84.9368 199.07ZM89.8052 148.452L89.6497 147.816L90.3039 147.756C90.5597 147.728 96.609 147.185 101.318 150.549C106.027 153.913 107.471 159.814 107.534 160.061L107.683 160.699L107.031 160.764C106.104 160.833 105.174 160.827 104.248 160.746C101.304 160.574 98.4606 159.613 96.015 157.965C91.3061 154.602 89.862 148.7 89.8052 148.452Z" fill="#22DDAB"/>
<path d="M198.675 211.194L191.284 210.611C190.757 210.57 190.235 210.74 189.833 211.084C189.431 211.428 189.182 211.917 189.141 212.444C189.099 212.971 189.268 213.493 189.611 213.895C189.954 214.298 190.443 214.548 190.97 214.59L198.361 215.173C198.888 215.214 199.41 215.044 199.812 214.7C200.214 214.357 200.463 213.867 200.505 213.34C200.546 212.813 200.377 212.291 200.034 211.888C199.691 211.486 199.202 211.236 198.675 211.194Z" fill="#EDB726"/>
<path d="M212.32 212.27L204.929 211.687C204.402 211.647 203.881 211.817 203.479 212.161C203.078 212.504 202.829 212.993 202.787 213.52C202.746 214.047 202.915 214.569 203.257 214.971C203.6 215.374 204.088 215.624 204.615 215.667L212.006 216.25C212.533 216.29 213.055 216.12 213.456 215.776C213.858 215.432 214.107 214.943 214.148 214.416C214.19 213.89 214.021 213.368 213.678 212.965C213.335 212.563 212.847 212.313 212.32 212.27Z" fill="#EDB726"/>
<path d="M199.079 206.077L191.688 205.494C191.161 205.453 190.639 205.624 190.238 205.967C189.836 206.311 189.587 206.8 189.546 207.327C189.504 207.854 189.673 208.376 190.016 208.778C190.359 209.181 190.847 209.431 191.374 209.473L198.765 210.056C199.292 210.097 199.814 209.927 200.216 209.583C200.618 209.24 200.867 208.75 200.908 208.223C200.95 207.696 200.781 207.174 200.438 206.771C200.095 206.369 199.606 206.119 199.079 206.077Z" fill="#EDB726"/>
<path d="M212.724 207.153L205.333 206.57C204.806 206.529 204.284 206.7 203.882 207.043C203.48 207.387 203.231 207.876 203.189 208.403C203.148 208.93 203.317 209.452 203.66 209.855C204.003 210.257 204.492 210.507 205.019 210.55L212.41 211.133C212.937 211.173 213.459 211.003 213.861 210.66C214.263 210.316 214.512 209.827 214.553 209.3C214.595 208.772 214.426 208.25 214.083 207.848C213.74 207.445 213.251 207.195 212.724 207.153Z" fill="#EDB726"/>
<path d="M199.482 200.96L192.091 200.377C191.564 200.336 191.042 200.506 190.64 200.85C190.239 201.194 189.99 201.683 189.948 202.21C189.906 202.737 190.076 203.259 190.419 203.662C190.762 204.064 191.25 204.314 191.777 204.357L199.169 204.94C199.696 204.98 200.217 204.81 200.619 204.466C201.02 204.122 201.269 203.633 201.31 203.106C201.352 202.579 201.183 202.058 200.84 201.655C200.498 201.253 200.009 201.003 199.482 200.96Z" fill="#EDB726"/>
<path d="M213.128 202.036L205.737 201.453C205.21 201.413 204.688 201.583 204.286 201.927C203.885 202.271 203.636 202.76 203.595 203.286C203.553 203.813 203.722 204.335 204.065 204.738C204.407 205.14 204.896 205.39 205.423 205.433L212.814 206.016C213.341 206.056 213.862 205.886 214.264 205.542C214.665 205.199 214.914 204.71 214.956 204.183C214.997 203.656 214.828 203.134 214.485 202.731C214.143 202.329 213.654 202.079 213.128 202.036Z" fill="#EDB726"/>
<path d="M79.9864 170.304L79.8914 171.514L229.567 183.271L229.662 182.062L79.9864 170.304Z" fill="white"/>
<path d="M231.826 164.418L231.732 165.625L226.523 165.216L171.024 160.856L171.124 159.648L226.617 164.009L231.826 164.418Z" fill="white"/>
<path d="M48.8502 151.597C48.8502 151.597 40.7478 185.807 50.6508 185.807C60.5538 185.807 83.9608 147.095 83.9608 147.095L75.8583 137.192L61.3153 157.383L60.5537 147.095L48.8502 151.597Z" fill="#B28B67"/>
<path d="M81.8016 148.583C86.1549 148.583 89.684 145.054 89.684 140.7C89.684 136.347 86.1549 132.818 81.8016 132.818C77.4483 132.818 73.9192 136.347 73.9192 140.7C73.9192 145.054 77.4483 148.583 81.8016 148.583Z" fill="#B28B67"/>
<path d="M67.9124 121.788L63 117C63 117 51.7076 122.688 50.8073 128.99C49.907 135.292 45.4057 155.098 45.4057 155.098L62.0607 156.448L67.4623 148.346L67.9124 121.788Z" fill="#2F3676"/>
<line x1="576" y1="400.5" x2="6" y2="400.5" stroke="#5C6AFF"/>
</svg>
