<?xml version="1.0" encoding="UTF-8"?>
<svg width="55px" height="72px" viewBox="0 0 55 72" version="1.1" xmlns="http://www.w3.org/2000/svg" xmlns:xlink="http://www.w3.org/1999/xlink">
    <!-- Generator: sketchtool 54.1 (76490) - https://sketchapp.com -->
    <title>34A13691-9DB1-4729-8C1E-E7E90C55466A</title>
    <desc>Created with sketchtool.</desc>
    <g id="On-Boarding---Complete-Profile" stroke="none" stroke-width="1" fill="none" fill-rule="evenodd">
        <g id="onboarding_Complete-profile---Step-4" transform="translate(-1122.000000, -194.000000)" fill-rule="nonzero">
            <g id="Group" transform="translate(0.000000, 154.000000)">
                <g id="Group-13" transform="translate(504.000000, 0.000000)">
                    <g id="Group-12">
                        <g id="cv-(2)" transform="translate(618.000000, 40.000000)">
                            <path d="M54.984237,13.0768619 C54.9783989,12.972359 54.9579654,12.86844 54.9235203,12.7697754 C54.9100926,12.7312437 54.9007516,12.6944633 54.8838209,12.6570992 C54.8260233,12.5269085 54.7448731,12.4083943 54.6450408,12.3068105 L42.688519,0.350288723 C42.5863514,0.249872622 42.4672533,0.169306141 42.3370627,0.110924837 C42.3008662,0.0957455842 42.2664211,0.0858207745 42.2290569,0.0729767799 C42.1274733,0.0379479076 42.021219,0.0169305842 41.9137971,0.0105086617 C41.8945312,0.0134277418 41.8729301,0 41.8478261,0 L5.97826087,0 C2.67795732,0.00408670924 0.00408670924,2.67795732 0,5.97826087 L0,65.7608696 C0.00408670924,69.0611731 2.67795732,71.7350437 5.97826087,71.7391304 L49.0217391,71.7391304 C52.3220427,71.7350437 54.9959133,69.0611731 55,65.7608696 L55,13.1521739 C55,13.1259023 54.9865722,13.1031335 54.984237,13.0768619 Z M50.9179688,11.9565217 L44.2391304,11.9565217 C43.5788362,11.9565217 43.0434783,11.4211638 43.0434783,10.7608696 L43.0434783,4.08203125 L50.9179688,11.9565217 Z M49.0217391,69.3478261 L5.97826087,69.3478261 C3.99737818,69.3478261 2.39130435,67.7417523 2.39130435,65.7608696 L2.39130435,5.97826087 C2.39130435,3.99737818 3.99737818,2.39130435 5.97826087,2.39130435 L40.6521739,2.39130435 L40.6521739,10.7608696 C40.6521739,12.7417523 42.2582477,14.3478261 44.2391304,14.3478261 L52.6086957,14.3478261 L52.6086957,65.7608696 C52.6086957,67.7417523 51.0026218,69.3478261 49.0217391,69.3478261 Z" id="Shape" fill="#4353FF"></path>
                            <path d="M14.3478261,35.8695652 L40.6521739,35.8695652 C41.3124682,35.8695652 41.8478261,35.3342073 41.8478261,34.673913 L41.8478261,32.2826087 C41.8437393,28.9823051 39.1698688,26.3084346 35.8695652,26.3043478 L31.0869565,26.3043478 L31.0869565,24.5931874 C33.2622496,23.6474078 34.670994,21.5024733 34.673913,19.1304348 L34.673913,17.9096785 C36.1719812,16.7858356 37.0576278,15.025051 37.0652174,13.1521739 L37.0652174,10.7608696 C37.0652174,10.1005753 36.5298595,9.56521739 35.8695652,9.56521739 L26.3043478,9.56521739 C23.0040443,9.56930413 20.3301737,12.2431747 20.326087,15.5434783 L20.326087,19.1304348 C20.3278384,21.5013056 21.7371667,23.6444888 23.9130435,24.585014 L23.9130435,26.3043478 L19.1304348,26.3043478 C15.8301312,26.3084346 13.1562607,28.9823051 13.1521739,32.2826087 L13.1521739,34.673913 C13.1521739,35.3342073 13.6875318,35.8695652 14.3478261,35.8695652 Z M22.7173913,19.1304348 L22.7173913,15.5434783 C22.7173913,13.5625956 24.3234651,11.9565217 26.3043478,11.9565217 L34.6739134,11.9565217 L34.673913,13.1521739 C34.6744968,14.4283924 33.9896824,15.607114 32.8804348,16.2382176 C32.511464,16.4513099 32.2831925,16.8448008 32.2826087,17.2709855 L32.2826087,19.1304348 C32.2791057,20.5514393 31.4343262,21.8358313 30.1306682,22.4015477 C29.2596171,22.778108 28.6956522,23.6363155 28.6956522,24.585014 L28.6956522,26.3043478 L26.3043478,26.3043478 L26.3043478,24.585014 C26.303764,23.6363155 25.7403829,22.7786918 24.8693318,22.4015477 C23.5656738,21.8364152 22.7203103,20.5520232 22.7173913,19.1304348 Z M27.956543,28.6956522 L27.5,29.6093219 L27.043457,28.6956522 L27.956543,28.6956522 Z M15.5434783,32.2826087 C15.5434783,30.301726 17.1495521,28.6956522 19.1304348,28.6956522 L24.3695865,28.6956522 L26.429868,32.816799 C26.6318677,33.223134 27.0463761,33.4794284 27.5,33.4794284 C27.9536239,33.4794284 28.3681323,33.223134 28.570132,32.816799 L30.6304135,28.6956522 L35.8695652,28.6956522 C37.8504479,28.6956522 39.4565217,30.301726 39.4565217,32.2826087 L39.4565217,33.4782609 L37.0652174,33.4782609 L37.0652174,31.0869565 L34.673913,31.0869565 L34.673913,33.4782609 L20.326087,33.4782609 L20.326087,31.0869565 L17.9347826,31.0869565 L17.9347826,33.4782609 L15.5434783,33.4782609 L15.5434783,32.2826087 Z" id="Shape" fill="#22DDAB"></path>
                            <polygon id="Path" fill="#EDB726" points="10.7608696 43.0434783 25.1086957 43.0434783 25.1086957 45.4347826 10.7608696 45.4347826"></polygon>
                            <polygon id="Path" fill="#EDB726" points="27.5 43.0434783 32.2826087 43.0434783 32.2826087 45.4347826 27.5 45.4347826"></polygon>
                            <polygon id="Path" fill="#EDB726" points="34.673913 43.0434783 44.2391304 43.0434783 44.2391304 45.4347826 34.673913 45.4347826"></polygon>
                            <polygon id="Path" fill="#EDB726" points="10.7608696 50.2173913 20.326087 50.2173913 20.326087 52.6086957 10.7608696 52.6086957"></polygon>
                            <polygon id="Path" fill="#EDB726" points="22.7173913 50.2173913 32.2826087 50.2173913 32.2826087 52.6086957 22.7173913 52.6086957"></polygon>
                            <polygon id="Path" fill="#EDB726" points="34.673913 50.2173913 37.0652174 50.2173913 37.0652174 52.6086957 34.673913 52.6086957"></polygon>
                            <polygon id="Path" fill="#EDB726" points="39.4565217 50.2173913 44.2391304 50.2173913 44.2391304 52.6086957 39.4565217 52.6086957"></polygon>
                            <polygon id="Path" fill="#EDB726" points="10.7608696 58.5869565 25.1086957 58.5869565 25.1086957 60.9782609 10.7608696 60.9782609"></polygon>
                            <polygon id="Path" fill="#EDB726" points="27.5 58.5869565 34.673913 58.5869565 34.673913 60.9782609 27.5 60.9782609"></polygon>
                            <polygon id="Path" fill="#EDB726" points="37.0652174 58.5869565 44.2391304 58.5869565 44.2391304 60.9782609 37.0652174 60.9782609"></polygon>
                        </g>
                    </g>
                </g>
            </g>
        </g>
    </g>
</svg>