<svg width="376" height="240" viewBox="0 0 376 240" fill="none" xmlns="http://www.w3.org/2000/svg">
<rect width="376" height="240" fill="#F5F8FA"/>
<g clip-path="url(#clip0_2714_2115)">
<path d="M231.496 143.066C231.295 143.066 231.132 142.903 231.132 142.702V98.8204C231.132 98.6479 231.253 98.499 231.422 98.4638L239.028 96.8803C239.254 96.8332 239.467 97.0059 239.467 97.237V142.702C239.467 142.903 239.303 143.066 239.102 143.066H231.496Z" fill="#15357A"/>
<path d="M135.888 143.994C132.849 143.994 130.136 143.251 127.749 141.765C125.361 140.279 123.473 138.246 122.084 135.667C120.695 133.089 120 130.16 120 126.882C120 123.603 120.695 120.697 122.084 118.161C123.473 115.582 125.361 113.572 127.749 112.129C130.136 110.643 132.849 109.9 135.888 109.9C138.319 109.9 140.446 110.359 142.269 111.277C143.731 112.013 144.969 112.987 145.984 114.2C146.214 114.475 146.697 114.32 146.697 113.961V98.0314C146.697 97.8588 146.818 97.7099 146.987 97.6748L154.593 96.0913C154.82 96.0442 155.032 96.2169 155.032 96.4479V142.843C155.032 143.045 154.869 143.208 154.668 143.208H147.909C147.735 143.208 147.585 143.084 147.551 142.913L146.859 139.376C146.797 139.063 146.387 138.971 146.183 139.216C145.213 140.387 143.995 141.433 142.53 142.355C140.837 143.448 138.623 143.994 135.888 143.994ZM137.646 136.651C140.338 136.651 142.53 135.755 144.223 133.963C145.959 132.127 146.827 129.788 146.827 126.947C146.827 124.106 145.959 121.789 144.223 119.997C142.53 118.161 140.338 117.243 137.646 117.243C134.998 117.243 132.806 118.139 131.07 119.932C129.333 121.724 128.465 124.04 128.465 126.882C128.465 129.723 129.333 132.061 131.07 133.897C132.806 135.733 134.998 136.651 137.646 136.651Z" fill="#15357A"/>
<path d="M175.356 144C172.1 144 169.213 143.3 166.695 141.902C164.178 140.503 162.202 138.536 160.77 136.001C159.337 133.465 158.621 130.537 158.621 127.215C158.621 123.849 159.316 120.855 160.705 118.232C162.137 115.61 164.091 113.577 166.565 112.135C169.083 110.648 172.035 109.905 175.421 109.905C178.59 109.905 181.39 110.605 183.821 112.003C186.252 113.402 188.14 115.325 189.486 117.773C190.875 120.177 191.569 122.866 191.569 125.838C191.569 126.319 191.548 126.821 191.504 127.346C191.504 127.766 191.49 128.2 191.462 128.648C191.451 128.838 191.292 128.985 191.102 128.985H167.281C167.07 128.985 166.902 129.164 166.923 129.374C167.156 131.725 168.013 133.584 169.495 134.952C171.102 136.394 173.033 137.115 175.291 137.115C176.984 137.115 178.394 136.744 179.523 136.001C180.627 135.259 181.462 134.324 182.027 133.195C182.09 133.068 182.219 132.985 182.361 132.985H190.105C190.348 132.985 190.523 133.219 190.447 133.45C189.827 135.324 188.856 137.048 187.532 138.623C186.143 140.284 184.407 141.596 182.323 142.557C180.283 143.519 177.96 144 175.356 144ZM175.421 116.724C173.381 116.724 171.579 117.314 170.016 118.494C168.55 119.561 167.58 121.167 167.107 123.311C167.059 123.533 167.231 123.74 167.458 123.74H182.717C182.927 123.74 183.094 123.563 183.073 123.354C182.877 121.392 182.106 119.816 180.76 118.626C179.328 117.358 177.548 116.724 175.421 116.724Z" fill="#15357A"/>
<path d="M211.614 144C208.358 144 205.471 143.3 202.954 141.902C200.436 140.503 198.461 138.536 197.028 136.001C195.596 133.465 194.879 130.537 194.879 127.215C194.879 123.849 195.574 120.855 196.963 118.232C198.396 115.61 200.349 113.577 202.823 112.135C205.341 110.648 208.293 109.905 211.679 109.905C214.848 109.905 217.648 110.605 220.079 112.003C222.51 113.402 224.398 115.325 225.744 117.773C227.133 120.177 227.828 122.866 227.828 125.838C227.828 126.319 227.806 126.821 227.763 127.346C227.763 127.766 227.749 128.2 227.721 128.648C227.709 128.838 227.55 128.985 227.36 128.985H203.539C203.328 128.985 203.161 129.164 203.182 129.374C203.414 131.725 204.272 133.584 205.754 134.952C207.36 136.394 209.292 137.115 211.549 137.115C213.242 137.115 214.653 136.744 215.781 136.001C216.886 135.259 217.72 134.324 218.285 133.195C218.349 133.068 218.477 132.985 218.619 132.985H226.363C226.607 132.985 226.782 133.219 226.705 133.45C226.086 135.324 225.114 137.048 223.791 138.623C222.401 140.284 220.665 141.596 218.581 142.557C216.541 143.519 214.219 144 211.614 144ZM211.679 116.724C209.639 116.724 207.837 117.314 206.275 118.494C204.808 119.561 203.838 121.167 203.366 123.311C203.317 123.533 203.489 123.74 203.717 123.74H218.976C219.185 123.74 219.353 123.563 219.332 123.354C219.135 121.392 218.364 119.816 217.019 118.626C215.586 117.358 213.806 116.724 211.679 116.724Z" fill="#15357A"/>
<path d="M250.389 143.076C253.488 143.076 256 140.546 256 137.426C256 134.305 253.488 131.775 250.389 131.775C247.29 131.775 244.777 134.305 244.777 137.426C244.777 140.546 247.29 143.076 250.389 143.076Z" fill="#15357A"/>
</g>
<rect x="257" y="24" width="95" height="24" rx="4" fill="white"/>
<path d="M273.203 39H271.773V34.33L269.893 39H269.273L267.393 34.33V39H265.972V32.33H267.963L269.583 36.36L271.203 32.33H273.203V39ZM281.747 39H280.127L279.717 37.87H276.857L276.437 39H274.817L277.397 32.33H279.177L281.747 39ZM279.327 36.62L278.287 33.75L277.247 36.62H279.327ZM289.333 39H287.963L284.783 34.65V39H283.363V32.33H284.823L287.913 36.52V32.33H289.333V39ZM297.868 39H296.248L295.838 37.87H292.978L292.558 39H290.938L293.518 32.33H295.298L297.868 39ZM295.448 36.62L294.408 33.75L293.368 36.62H295.448ZM302.372 39.13C300.422 39.13 298.822 37.77 298.822 35.67C298.822 33.56 300.422 32.22 302.372 32.22C303.762 32.22 304.632 32.92 305.132 33.71L303.952 34.35C303.652 33.88 303.082 33.48 302.372 33.48C301.162 33.48 300.282 34.41 300.282 35.67C300.282 36.93 301.162 37.86 302.372 37.86C302.962 37.86 303.522 37.6 303.792 37.35V36.55H302.032V35.31H305.212V37.87C304.532 38.63 303.582 39.13 302.372 39.13ZM312.06 39H307.34V32.33H312.06V33.58H308.76V34.99H311.99V36.24H308.76V37.75H312.06V39ZM321.4 39H319.97V34.33L318.09 39H317.47L315.59 34.33V39H314.17V32.33H316.16L317.78 36.36L319.4 32.33H321.4V39ZM328.444 39H323.724V32.33H328.444V33.58H325.144V34.99H328.374V36.24H325.144V37.75H328.444V39ZM336.525 39H335.155L331.975 34.65V39H330.555V32.33H332.015L335.105 36.52V32.33H336.525V39ZM341.81 39H340.38V33.58H338.43V32.33H343.75V33.58H341.81V39Z" fill="#2F3233"/>
<defs>
<clipPath id="clip0_2714_2115">
<rect width="136" height="48" fill="white" transform="translate(120 96)"/>
</clipPath>
</defs>
</svg>
