<?xml version="1.0" encoding="UTF-8"?>
<svg width="64px" height="76px" viewBox="0 0 64 76" version="1.1" xmlns="http://www.w3.org/2000/svg" xmlns:xlink="http://www.w3.org/1999/xlink">
    <!-- Generator: sketchtool 51.3 (57544) - http://www.bohemiancoding.com/sketch -->
    <title>0A2F4BFE-BE78-444E-B3C6-1ADB2E2F9E28@1.5x</title>
    <desc>Created with sketchtool.</desc>
    <defs></defs>
    <g id="Job-Search" stroke="none" stroke-width="1" fill="none" fill-rule="evenodd">
        <g id="saved_jobs_empty_state" transform="translate(-156.000000, -246.000000)" fill-rule="nonzero">
            <g id="No-Search-found" transform="translate(114.000000, 246.000000)">
                <g id="Docs" transform="translate(42.000000, 0.000000)">
                    <path d="M47.8173642,0 L4.42753373,0 C1.98619163,0 0,1.99377778 0,4.44444444 L0,19.5555556 C0,20.3737778 0.660883201,21.037037 1.47584458,21.037037 C2.29080595,21.037037 2.95168915,20.3737778 2.95168915,19.5555556 L2.95168915,4.44444444 C2.95168915,3.62755556 3.61375303,2.96296296 4.42753373,2.96296296 L47.8173642,2.96296296 C48.6311449,2.96296296 49.2932088,3.62755556 49.2932088,4.44444444 L49.2932088,59.5555556 C49.2932088,60.3724444 48.6311449,61.037037 47.8173642,61.037037 L4.42753373,61.037037 C3.61375303,61.037037 2.95168915,60.3724444 2.95168915,59.5555556 L2.95168915,32.0493333 C2.95168915,31.2311111 2.29080595,30.5678519 1.47584458,30.5678519 C0.660883201,30.5678519 0,31.2311111 0,32.0493333 L0,59.5555556 C0,62.0062222 1.98619163,64 4.42753373,64 L47.8173642,64 C50.2587063,64 52.244898,62.0062222 52.244898,59.5555556 L52.244898,4.44444444 C52.244898,1.99377778 50.2587063,0 47.8173642,0 Z" id="Shape" fill="#4454FF"></path>
                    <path d="M2.22942041,25.1977143 C1.98661224,24.9547755 1.64963265,24.8163265 1.30612245,24.8163265 C0.962612245,24.8163265 0.625632653,24.9547755 0.382693878,25.1977143 C0.13962449,25.4419592 0,25.7789388 0,26.1211429 C0,26.4659592 0.139755102,26.8016327 0.382693878,27.0458776 C0.625632653,27.2888163 0.962612245,27.4285714 1.30612245,27.4285714 C1.64950204,27.4285714 1.98648163,27.2888163 2.22942041,27.0458776 C2.4724898,26.8029388 2.6122449,26.4659592 2.6122449,26.1211429 C2.6122449,25.7776327 2.47235918,25.4419592 2.22942041,25.1977143 Z" id="Shape" fill="#E6B849"></path>
                    <path d="M8.76016327,66.9949388 C8.51722449,66.752 8.18168163,66.6122449 7.83673469,66.6122449 C7.49322449,66.6122449 7.1562449,66.752 6.91343673,66.9949388 C6.67036735,67.2378776 6.53061224,67.5748571 6.53061224,67.9183673 C6.53061224,68.2631837 6.67049796,68.5988571 6.91343673,68.8417959 C7.1562449,69.0860408 7.49322449,69.2244898 7.83673469,69.2244898 C8.18168163,69.2244898 8.51722449,69.0860408 8.76016327,68.8417959 C9.00323265,68.5988571 9.14285714,68.2631837 9.14285714,67.9183673 C9.14285714,67.5748571 9.00310204,67.2378776 8.76016327,66.9949388 Z" id="Shape" fill="#E6B849"></path>
                    <path d="M56.0135188,6.53061224 C55.2095879,6.53061224 54.5576498,7.1938715 54.5576498,8.01209373 L54.5576498,66.0861678 C54.5576498,66.9030567 53.904547,67.5676493 53.1017808,67.5676493 L13.210971,67.5676493 C12.4070402,67.5676493 11.755102,68.2309085 11.755102,69.0491308 C11.755102,69.867353 12.4070402,70.5306122 13.210971,70.5306122 L53.1017808,70.5306122 C55.5100793,70.5306122 57.4693878,68.5368345 57.4693878,66.0861678 L57.4693878,8.01209373 C57.4693878,7.1938715 56.8174496,6.53061224 56.0135188,6.53061224 Z" id="Shape" fill="#4454FF"></path>
                    <path d="M62.5241554,11.755102 C61.7091941,11.755102 61.0483108,12.4183613 61.0483108,13.2365835 L61.0483108,71.3106576 C61.0483108,72.1275465 60.386247,72.7921391 59.5724663,72.7921391 L13.2309466,72.7921391 C12.4159852,72.7921391 11.755102,73.4553983 11.755102,74.2736206 C11.755102,75.0918428 12.4159852,75.755102 13.2309466,75.755102 L59.5724663,75.755102 C62.0138084,75.755102 64,73.7613243 64,71.3106576 L64,13.2365835 C64,12.4183613 63.3391168,11.755102 62.5241554,11.755102 Z" id="Shape" fill="#4454FF"></path>
                    <path d="M24.6586911,10.4489796 L10.6066151,10.4489796 C9.79832794,10.4489796 9.14285714,11.104304 9.14285714,11.9127375 L9.14285714,25.9648135 C9.14285714,26.773247 9.79832794,27.4285714 10.6066151,27.4285714 L24.6586911,27.4285714 C25.4669782,27.4285714 26.122449,26.773247 26.122449,25.9648135 L26.122449,11.9127375 C26.122449,11.104304 25.4669782,10.4489796 24.6586911,10.4489796 Z M23.1949331,24.5010556 L12.070373,24.5010556 L12.070373,13.3764954 L23.1949331,13.3764954 L23.1949331,24.5010556 Z" id="Shape" fill="#4454FF"></path>
                    <path d="M20.636262,17.2469201 C20.2872431,16.8905281 19.7216287,16.8904368 19.3725204,17.2469201 L16.9972081,19.6736537 L15.8927857,18.5452312 C15.5438561,18.1887479 14.9782417,18.1888392 14.6290441,18.5452312 C14.2801145,18.9017145 14.2801145,19.479756 14.6290441,19.8362393 L16.365382,21.6101657 C16.5330111,21.7813325 16.7602398,21.877551 16.9972081,21.877551 C17.2342657,21.877551 17.461405,21.7813325 17.6291236,21.6101657 L20.636262,18.5379281 C20.9851916,18.1814448 20.9851916,17.6034033 20.636262,17.2469201 Z" id="Shape" fill="#4454FF"></path>
                    <path d="M42.9746177,36.5714286 L11.8825251,36.5714286 C11.0909213,36.5714286 10.4489796,37.1561796 10.4489796,37.877551 C10.4489796,38.5989224 11.0909213,39.1836735 11.8825251,39.1836735 L42.9746177,39.1836735 C43.7662216,39.1836735 44.4081633,38.5989224 44.4081633,37.877551 C44.4081633,37.1561796 43.7662216,36.5714286 42.9746177,36.5714286 Z" id="Shape" fill="#E6B849"></path>
                    <path d="M42.9569161,10.4489796 L32.7981859,10.4489796 C31.9968073,10.4489796 31.3469388,11.0337306 31.3469388,11.755102 C31.3469388,12.4764735 31.9968073,13.0612245 32.7981859,13.0612245 L42.9569161,13.0612245 C43.7582948,13.0612245 44.4081633,12.4764735 44.4081633,11.755102 C44.4081633,11.0337306 43.7582948,10.4489796 42.9569161,10.4489796 Z" id="Shape" fill="#E6B849"></path>
                    <path d="M42.9569161,18.2857143 L32.7981859,18.2857143 C31.9968073,18.2857143 31.3469388,18.8704653 31.3469388,19.5918367 C31.3469388,20.3132082 31.9968073,20.8979592 32.7981859,20.8979592 L42.9569161,20.8979592 C43.7582948,20.8979592 44.4081633,20.3132082 44.4081633,19.5918367 C44.4081633,18.8704653 43.7582948,18.2857143 42.9569161,18.2857143 Z" id="Shape" fill="#E6B849"></path>
                    <path d="M42.9569161,24.8163265 L32.7981859,24.8163265 C31.9968073,24.8163265 31.3469388,25.4010776 31.3469388,26.122449 C31.3469388,26.8438204 31.9968073,27.4285714 32.7981859,27.4285714 L42.9569161,27.4285714 C43.7582948,27.4285714 44.4081633,26.8438204 44.4081633,26.122449 C44.4081633,25.4010776 43.7582948,24.8163265 42.9569161,24.8163265 Z" id="Shape" fill="#E6B849"></path>
                    <path d="M42.9746177,48.3265306 L11.8825251,48.3265306 C11.0909213,48.3265306 10.4489796,48.9112816 10.4489796,49.6326531 C10.4489796,50.3540245 11.0909213,50.9387755 11.8825251,50.9387755 L42.9746177,50.9387755 C43.7662216,50.9387755 44.4081633,50.3540245 44.4081633,49.6326531 C44.4081633,48.9112816 43.7662216,48.3265306 42.9746177,48.3265306 Z" id="Shape" fill="#E6B849"></path>
                </g>
            </g>
        </g>
    </g>
</svg>