<svg width="24" height="24" viewBox="0 0 24 24" fill="none" xmlns="http://www.w3.org/2000/svg">
<path d="M12 1C5.93439 1 1 5.93439 1 12C1 18.0656 5.93439 23 12 23C18.0656 23 23 18.0656 23 12C23 5.93439 18.0656 1 12 1ZM20.9441 11H16.9807C16.8884 8.57899 16.4622 6.32083 15.7569 4.55753C15.6265 4.2315 15.4878 3.92681 15.3408 3.64347C18.358 4.85383 20.5724 7.65288 20.9441 11ZM12 21C11.4047 21 10.6591 20.0971 10.1001 18.6997C9.48447 17.1607 9.10933 15.1653 9.02078 13H14.9792C14.8907 15.1651 14.5156 17.1607 13.9 18.6997C13.341 20.0971 12.5953 21 12 21ZM9.02078 11C9.10933 8.83492 9.48447 6.83936 10.1001 5.30036C10.6591 3.90292 11.4047 3.00002 12 3.00002C12.5953 3.00002 13.341 3.90292 13.9 5.30036C14.5156 6.83936 14.8907 8.83473 14.9792 11H9.02078ZM8.65886 3.64347C8.51242 3.92706 8.37386 4.23175 8.24317 4.55753C7.53784 6.32083 7.1117 8.57899 7.01941 11H3.05589C3.42761 7.65302 5.64189 4.85406 8.65886 3.64347ZM3.05589 13H7.01936C7.11166 15.421 7.5378 17.6792 8.24312 19.4425C8.37344 19.7683 8.51197 20.073 8.65872 20.3566C5.6418 19.1459 3.42761 16.347 3.05589 13ZM15.3412 20.3566C15.4876 20.0729 15.6262 19.7682 15.7569 19.4425C16.4622 17.6792 16.8884 15.421 16.9807 13H20.9441C20.5724 16.347 18.3581 19.146 15.3412 20.3566Z" fill="#C2C6C9"/>
</svg>