<?xml version="1.0"?>
<svg xmlns="http://www.w3.org/2000/svg" xmlns:xlink="http://www.w3.org/1999/xlink" id="Big_Icon" data-name="Big Icon" width="214.5" height="24.969" viewBox="0 0 214.5 24.969">
  <metadata><?xpacket begin="﻿" id="W5M0MpCehiHzreSzNTczkc9d"?>
<x:xmpmeta xmlns:x="adobe:ns:meta/" x:xmptk="Adobe XMP Core 5.6-c140 79.160451, 2017/05/06-01:08:21        ">
   <rdf:RDF xmlns:rdf="http://www.w3.org/1999/02/22-rdf-syntax-ns#">
      <rdf:Description rdf:about=""/>
   </rdf:RDF>
</x:xmpmeta>
                                                                                                    
                                                                                                    
                                                                                                    
                                                                                                    
                                                                                                    
                                                                                                    
                                                                                                    
                                                                                                    
                                                                                                    
                                                                                                    
                                                                                                    
                                                                                                    
                                                                                                    
                                                                                                    
                                                                                                    
                                                                                                    
                                                                                                    
                                                                                                    
                                                                                                    
                                                                                                    
                           
<?xpacket end="w"?></metadata>
<defs>
    <style>
      .cls-1 {
        fill: #2f3233;
      }

      .cls-1, .cls-2 {
        fill-rule: evenodd;
      }

      .cls-2 {
        fill: #fff;
        filter: url(#filter);
      }
    </style>
    <filter id="filter" x="42" y="43" width="20" height="22" filterUnits="userSpaceOnUse">
      <feFlood result="flood" flood-color="#4454ff"/>
      <feComposite result="composite" operator="in" in2="SourceGraphic"/>
      <feBlend result="blend" in2="SourceGraphic"/>
    </filter>
  </defs>
  <path id="emiratisation" class="cls-1" d="M76.716,64.777c4.363,0,7.13-2.52,7.586-5.6H80.037c-0.326,1.047-1.367,1.963-3.321,1.963-2.507,0-3.679-1.636-3.712-3.96H84.53v-1.7c0-4.647-2.833-8.312-7.879-8.312-5.437,0-8.107,3.992-8.107,8.836C68.544,60.916,71.474,64.777,76.716,64.777Zm-3.679-10.5a3.309,3.309,0,0,1,3.614-3.436,3.22,3.22,0,0,1,3.419,3.436H73.037Zm33.177-7.1a5.956,5.956,0,0,0-5.177,2.52h-0.1a6.287,6.287,0,0,0-9.832-.295h-0.13l-0.326-1.931H86.744V64.483h4.363V55.058c0-2.422,1.4-3.894,3.419-3.894,2.149,0,2.963,1.276,2.963,3.4v9.916h4.33V55.058c0-2.389,1.172-3.894,3.224-3.894,2.116,0,2.93,1.276,2.93,3.4v9.916h4.363V53.323C112.335,49.56,109.958,47.171,106.214,47.171Zm11.2-1.833a2.651,2.651,0,1,0,0-5.3,2.416,2.416,0,0,0-2.7,2.618A2.435,2.435,0,0,0,117.413,45.338ZM115.2,64.483h4.363V47.466H115.2V64.483Zm7.228,0h4.135V56.138c0-3.076,1.5-4.876,4.1-4.876h1.53V47.2h-1.237a4.727,4.727,0,0,0-4.395,2.847h-0.13l-0.326-2.585h-3.679V64.483ZM138.9,64.777a5.678,5.678,0,0,0,4.721-2.062h0.13l0.325,1.767h3.875V53.225c0-3.469-2.637-6.054-7.2-6.054-4.623,0-7.032,2.585-7.032,5.792h4.1c0-1.211,1.009-2.193,2.833-2.193,2.083,0,2.93,1.113,2.93,2.487v1.473a13.761,13.761,0,0,0-3.777-.524c-4.721,0-6.837,2.193-6.837,5.269C132.976,62.486,135.125,64.777,138.9,64.777Zm1.041-3.469c-1.758,0-2.637-.851-2.637-2.029,0-1.211,1.01-2.029,2.931-2.029a9.142,9.142,0,0,1,3.353.556v0.36C143.59,59.868,142.223,61.308,139.943,61.308Zm17.777,3.469a11.762,11.762,0,0,0,3.191-.425V60.686h-0.326a4.992,4.992,0,0,1-1.628.262c-1.5,0-2.181-.687-2.181-2.291V51.2h4.07V47.466h-4.07V42.982H156.45l-3.874.916v3.567h-2.93V51.2h2.767v8.41C152.413,62.617,153.976,64.777,157.72,64.777Zm8.042-19.439a2.651,2.651,0,1,0,0-5.3,2.417,2.417,0,0,0-2.7,2.618A2.435,2.435,0,0,0,165.762,45.338Zm-2.214,19.144h4.363V47.466h-4.363V64.483Zm13.642,0.294c4.1,0,7.195-1.9,7.195-5.3,0-3.371-2.214-4.614-4.949-5.171l-3.093-.556c-1.074-.229-1.726-0.687-1.726-1.538,0-.916.945-1.538,2.41-1.538,1.79,0,2.67.982,2.67,2.16h4.3c0-3.24-2.67-5.661-6.9-5.661-4.3,0-6.74,2.225-6.74,5.007,0,3.142,2.214,4.647,4.949,5.171l2.735,0.524c1.335,0.262,1.954.785,1.954,1.636,0,0.884-.88,1.571-2.8,1.571-1.987,0-3-1.014-3-2.323h-4.363C169.929,62.323,172.273,64.777,177.19,64.777Zm14.39,0a5.677,5.677,0,0,0,4.721-2.062h0.13l0.326,1.767h3.874V53.225c0-3.469-2.637-6.054-7.195-6.054-4.624,0-7.033,2.585-7.033,5.792h4.1c0-1.211,1.01-2.193,2.833-2.193,2.084,0,2.93,1.113,2.93,2.487v1.473a13.761,13.761,0,0,0-3.777-.524c-4.721,0-6.837,2.193-6.837,5.269C185.654,62.486,187.8,64.777,191.58,64.777Zm1.042-3.469c-1.758,0-2.638-.851-2.638-2.029,0-1.211,1.01-2.029,2.931-2.029a9.142,9.142,0,0,1,3.353.556v0.36C196.268,59.868,194.9,61.308,192.622,61.308ZM210.4,64.777a11.762,11.762,0,0,0,3.191-.425V60.686h-0.325a5,5,0,0,1-1.628.262c-1.5,0-2.182-.687-2.182-2.291V51.2h4.07V47.466h-4.07V42.982h-0.325l-3.875.916v3.567h-2.93V51.2h2.767v8.41C205.091,62.617,206.654,64.777,210.4,64.777Zm8.042-19.439a2.651,2.651,0,1,0,0-5.3,2.416,2.416,0,0,0-2.7,2.618A2.434,2.434,0,0,0,218.44,45.338Zm-2.214,19.144h4.363V47.466h-4.363V64.483Zm14.521,0.294c5.437,0,8.2-3.763,8.2-8.77,0-5.04-2.832-8.836-8.2-8.836-5.405,0-8.237,3.8-8.237,8.836S225.277,64.777,230.747,64.777Zm0-3.862c-2.442,0-3.777-1.669-3.777-4.909s1.3-4.974,3.777-4.974c2.442,0,3.777,1.7,3.777,4.974C234.524,59.247,233.189,60.916,230.747,60.916Zm10.418,3.567h4.363V55.058c0-2.422,1.4-3.894,3.483-3.894,2.182,0,3.126,1.276,3.126,3.4v9.916H256.5V53.323c0-3.8-2.409-6.152-6.154-6.152a5.7,5.7,0,0,0-4.818,2.225H245.4l-0.325-1.931h-3.907V64.483Z" transform="translate(-42 -40.031)"/>
  <path class="cls-2" d="M53.168,45.553A13.1,13.1,0,0,0,52.516,43a16.321,16.321,0,0,0-4.81,2.133,13.345,13.345,0,0,0-3.592,3.439,12.617,12.617,0,0,0-1.894,4.3q-0.111.635-.172,1.294h0Q42,54.7,42,55.246a9.272,9.272,0,0,0,2.94,6.89A9.691,9.691,0,0,0,51.987,65a9.8,9.8,0,0,0,7.1-2.864,9.627,9.627,0,0,0,0-13.8,9.745,9.745,0,0,0-5.917-2.78m-0.836,6.566a10.646,10.646,0,0,0,.677-2.013,5.229,5.229,0,0,1,2.78,1.45,5.14,5.14,0,0,1,0,7.381,5.4,5.4,0,0,1-7.59,0,5.423,5.423,0,0,1-.886-1.1A12.71,12.71,0,0,0,49.49,56.1a11.37,11.37,0,0,0,2.842-3.978m-2.891-1.486a10.776,10.776,0,0,1-2.768,3.882,11.021,11.021,0,0,1-1.427,1.078,8.89,8.89,0,0,1,1.267-4.757,0.3,0.3,0,0,0,.037-0.072,10.15,10.15,0,0,1,3.543-3.607,8.52,8.52,0,0,1-.652,3.475" transform="translate(-42 -40.031)"/>
</svg>
