<?xml version="1.0" encoding="UTF-8"?>
<svg width="65px" height="51px" viewBox="0 0 65 51" version="1.1" xmlns="http://www.w3.org/2000/svg" xmlns:xlink="http://www.w3.org/1999/xlink">
    <!-- Generator: Sketch 49.2 (51160) - http://www.bohemiancoding.com/sketch -->
    <title>Group 4</title>
    <desc>Created with Sketch.</desc>
    <defs>
        <polygon id="path-1" points="0 -9.54610248e-06 66.2009718 -9.54610248e-06 66.2009718 53.7569 0 53.7569"></polygon>
        <polygon id="path-3" points="0 0.0004 64.4999008 0.0004 64.4999008 50.4401605 0 50.4401605"></polygon>
    </defs>
    <g id="Landing-pages" stroke="none" stroke-width="1" fill="none" fill-rule="evenodd">
        <g id="Desktop-HD" transform="translate(-633.000000, -1293.000000)">
            <g id="Group-5" transform="translate(167.000000, 1172.000000)">
                <g id="Group-4" transform="translate(348.333333, 112.000000)">
                    <g transform="translate(115.000000, 0.000000)">
                        <rect id="Rectangle-10" x="0" y="0" width="70" height="70"></rect>
                        <g id="Group-26" transform="translate(1.000000, 8.000000)">
                            <polygon id="Rectangle-15" fill="#22DDAB" points="26.6666667 3.5 40.1666667 2.5 42.1666667 16.5 28.1666667 18.5"></polygon>
                            <polygon id="Rectangle-15" fill="#FFE8E8" points="50.1666667 34.5 64.1666667 34.5 65.1666667 49 51.6666667 49"></polygon>
                            <polygon id="Rectangle-15" fill="#EDB726" points="3.66666667 34.5 17.6666667 34.5 18.6666667 49 5.16666667 49"></polygon>
                            <g id="Page-1" transform="translate(0.666667, 0.000000)">
                                <mask id="mask-2" fill="white">
                                    <use xlink:href="#path-1"></use>
                                </mask>
                                <g id="Clip-2"></g>
                                <g mask="url(#mask-2)">
                                    <g transform="translate(1.000000, 1.000000)">
                                        <mask id="mask-4" fill="white">
                                            <use xlink:href="#path-3"></use>
                                        </mask>
                                        <g id="Clip-2" stroke="none" fill="none"></g>
                                        <path d="M50.5378,46.054 C49.7888,44.765 49.9968,41.72 49.8098,40.219 C49.5468,38.107 49.2828,35.994 49.0198,33.882 C50.7028,33.807 52.3848,33.767 54.0698,33.815 C55.9688,33.87 59.1138,33.59 60.8618,34.381 C62.9338,35.318 62.2148,38.553 62.2138,40.412 C62.2138,42.544 62.2128,44.677 62.2118,46.809 C60.4028,46.943 58.5918,47.048 56.7778,47.092 C55.0368,47.134 51.5778,47.844 50.5378,46.054 M38.3538,35.673 C39.0978,36.995 38.7138,40.359 38.8318,41.9 C38.9818,43.852 39.1318,45.804 39.2818,47.756 C37.1958,47.806 35.1098,47.857 33.0238,47.907 C31.3078,47.949 27.8888,48.744 26.6968,47.295 C25.7048,46.089 25.7978,41.764 25.6548,40.356 C25.4448,38.291 25.3448,36.223 25.2928,34.152 C27.3188,34.228 29.3448,34.304 31.3708,34.381 C33.2128,34.45 37.2898,33.783 38.3538,35.673 M15.1688,34.359 C16.3238,34.854 16.1018,35.758 16.1798,36.995 C16.2578,38.227 16.2108,39.5 16.2188,40.734 C16.2318,42.914 16.2208,45.095 16.2038,47.276 C12.1978,47.027 8.2198,47.139 4.2328,47.617 C3.4788,43.147 2.8718,38.659 2.4078,34.151 C4.4568,34.184 6.5058,34.217 8.5548,34.251 C10.2788,34.279 13.6388,33.702 15.1688,34.359 M26.9778,15.306 C26.1798,13.279 26.1878,10.531 25.9708,8.386 C25.7878,6.578 25.6858,4.768 25.6158,2.954 C27.5088,2.955 29.3998,2.922 31.2898,2.805 C32.5118,2.73 33.7328,2.629 34.9508,2.502 C35.3548,2.459 37.0768,2.003 37.3818,2.212 C38.3868,2.9 38.2148,7.192 38.3588,8.405 C38.5088,9.664 38.6558,10.924 38.8008,12.184 C38.9418,13.41 39.3498,14.221 38.4598,15.036 C37.1938,16.196 33.3278,16.234 31.8208,16.376 C29.9598,16.553 27.7478,17.261 26.9778,15.306 M63.1228,32.878 C61.6508,31.831 59.2698,31.898 57.5728,31.759 C57.5478,31.757 57.5228,31.756 57.4978,31.754 C57.4588,29.283 57.4198,26.813 57.3818,24.342 C57.3718,23.713 56.8728,23.245 56.2568,23.217 C48.4708,22.865 40.7738,22.893 33.0888,23.2 C33.0298,21.65 32.9668,20.099 32.9278,18.546 C32.9278,18.533 32.9208,18.525 32.9198,18.511 C32.9378,18.509 32.9608,18.505 32.9778,18.503 C35.0538,18.255 39.1758,18.234 40.7538,16.614 C42.0608,15.272 41.0918,12.53 40.9048,10.924 C40.5768,8.104 40.8058,3.949 39.6988,1.312 C39.1188,-0.07 38.0948,-0.061 36.7738,0.038 C32.8898,0.332 29.0798,0.724 25.1718,0.708 C25.0798,0.707 25.0118,0.74 24.9318,0.756 C24.2568,0.444 23.2858,0.751 23.3128,1.712 C23.4068,5.058 23.6558,8.389 24.1198,11.704 C24.3758,13.543 24.2698,17.073 25.9128,18.326 C27.0258,19.176 28.9688,19.068 30.6878,18.837 C30.7268,20.325 30.7858,21.813 30.8428,23.301 C23.3118,23.657 15.7868,24.269 8.1948,25.076 C7.5708,25.143 7.0958,25.538 7.0698,26.201 L6.8458,31.973 C5.1598,31.946 3.4728,31.917 1.7858,31.89 C1.0948,31.39 -0.0962,31.656 0.0058,32.718 C0.5358,38.222 1.2708,43.694 2.2148,49.142 C2.2888,49.572 2.8498,50.028 3.2988,49.968 C7.9828,49.339 12.6478,49.213 17.3588,49.587 C18.1478,49.65 18.4878,49.008 18.4128,48.392 C18.4238,48.33 18.4508,48.281 18.4518,48.212 C18.4828,44.889 18.4858,41.565 18.4458,38.242 C18.4278,36.698 18.9718,33.927 17.6698,32.749 C16.1528,31.376 12.8078,32.071 10.9598,32.04 C10.3378,32.03 9.7168,32.02 9.0948,32.009 C9.1568,30.412 9.2188,28.816 9.2808,27.218 C16.5318,26.463 23.7258,25.884 30.9238,25.546 C31.0218,27.741 31.1388,29.935 31.2768,32.127 C28.9658,32.04 26.6548,31.952 24.3448,31.866 C24.1078,31.857 23.9258,31.924 23.7668,32.018 C23.3448,32.138 22.9978,32.475 23.0058,33.047 C23.0558,36.306 23.2648,39.547 23.6898,42.78 C23.9128,44.471 23.8508,48.368 25.0368,49.68 C26.1538,50.915 28.5418,50.265 30.0028,50.23 C33.2248,50.152 36.4458,50.075 39.6678,49.997 C40.2738,50.744 41.7468,50.554 41.6558,49.371 C41.4008,46.05 41.1458,42.73 40.8908,39.408 C40.7658,37.778 41.2158,34.427 40.0608,33.079 C38.9648,31.801 35.9948,32.305 34.5658,32.251 C34.2208,32.239 33.8748,32.225 33.5298,32.212 C33.5298,32.21 33.5308,32.209 33.5308,32.208 C33.3888,29.955 33.2678,27.702 33.1688,25.448 C40.4608,25.158 47.7668,25.129 55.1488,25.43 C55.1808,27.492 55.2128,29.554 55.2458,31.616 C52.7118,31.503 50.1778,31.538 47.6418,31.689 C46.6628,31.747 46.3618,32.797 46.7148,33.442 L47.8508,42.553 C48.0558,44.191 47.7688,47.195 48.8858,48.559 C49.9338,49.839 52.5368,49.367 53.9578,49.372 C56.9678,49.383 59.9718,49.244 62.9718,49.008 C63.3608,48.977 63.6358,48.783 63.8148,48.529 C64.1768,48.378 64.4618,48.057 64.4618,47.546 C64.4628,44.375 64.4638,41.205 64.4648,38.034 C64.4658,36.153 64.8398,34.098 63.1228,32.878" id="Fill-1" stroke="none" fill="#4353FF" fill-rule="evenodd" mask="url(#mask-4)"></path>
                                    </g>
                                </g>
                            </g>
                        </g>
                    </g>
                </g>
            </g>
        </g>
    </g>
</svg>