<?xml version="1.0" encoding="UTF-8"?>
<svg width="158px" height="130px" viewBox="0 0 158 130" version="1.1" xmlns="http://www.w3.org/2000/svg" xmlns:xlink="http://www.w3.org/1999/xlink">
    <!-- Generator: Sketch 49.2 (51160) - http://www.bohemiancoding.com/sketch -->
    <title>Page 1</title>
    <desc>Created with Sketch.</desc>
    <defs></defs>
    <g id="Landing-pages" stroke="none" stroke-width="1" fill="none" fill-rule="evenodd">
        <g id="Desktop-HD" transform="translate(-1052.000000, -2898.000000)">
            <g id="Gain-unparelleled-support" transform="translate(256.000000, 2756.000000)">
                <g id="Dedicated-Shortlisting-Support-Copy" transform="translate(584.000000, 140.000000)">
                    <g id="Page-1" transform="translate(206.000000, 0.000000)">
                        <rect id="Rectangle-18" fill="#22DDAB" x="33" y="79" width="41" height="21"></rect>
                        <path d="M7,14 L17,14 L18,126 L13.9115114,126 C11.1848881,126 8.96099036,123.81546 8.91230842,121.089271 L7,14 Z" id="Rectangle-18" fill="#FFFFFF"></path>
                        <path d="M154,14.5 L162,14.5 L163,124 L159,124 C156.238576,124 154,121.761424 154,119 L154,14.5 Z" id="Rectangle-18" fill="#EDB726"></path>
                        <path d="M20,113.5 L68,113.5 L79,115 L86,121.5 L92.5,117 L104,115 L149.5,117 L162.5,117 L162.5,124 L95,126 L88.25,130 L82.5,130 L79,126 L14,126 L15.4038059,124.596194 C18.3466996,121.6533 20,117.66188 20,113.5 Z" id="Rectangle-19" fill="#EDB726"></path>
                        <path d="M17.9024,113.8367 C18.0434,114.2347 18.3714,114.5757 18.8944,114.6327 C29.7864,115.8267 40.6814,115.2977 51.6014,114.8817 C61.8144,114.4917 77.6644,111.9107 84.6814,121.1877 C84.9824,121.5857 85.4164,121.7037 85.8164,121.6457 C86.2914,122.1107 87.1514,122.2127 87.5864,121.4697 C90.4144,116.6387 100.4734,116.4777 105.2614,116.1707 C110.7754,115.8187 116.3084,116.0067 121.8174,116.3487 C132.9484,117.0377 144.0244,118.3157 155.1904,117.6497 C156.1354,117.5937 156.4524,116.6107 156.1554,115.9617 C156.1734,115.8697 156.2054,115.7857 156.2004,115.6777 C154.4994,78.3687 154.1244,41.0157 155.0754,3.6797 C155.1014,2.6437 153.9644,2.3627 153.2984,2.8087 C153.1214,2.5427 152.8394,2.3447 152.4224,2.3417 C138.5434,2.2477 124.6544,1.9827 110.7754,2.0717 C103.6104,2.1167 91.1044,1.9657 86.7414,8.9517 C82.2744,0.7417 71.7444,1.9277 63.6964,2.2467 C50.6294,2.7657 37.5514,2.9237 24.4744,2.7717 C23.0264,2.7537 23.0254,5.0037 24.4744,5.0217 C34.9354,5.1427 45.3974,5.0717 55.8554,4.7667 C64.6514,4.5107 80.4734,0.8557 85.1594,10.7917 C85.3824,11.2657 85.7804,11.4157 86.1674,11.3557 C86.6684,11.8687 87.8084,11.8577 88.1844,10.9527 C90.4194,5.5697 99.9404,4.9187 104.7964,4.5277 C109.8174,4.1237 114.8994,4.3367 119.9304,4.3717 C130.7604,4.4447 141.5904,4.5187 152.4224,4.5917 C152.5684,4.5927 152.6904,4.5567 152.8074,4.5167 C151.8844,41.5007 152.2604,78.5007 153.9404,115.4587 C140.7264,116.0747 127.6284,114.0627 114.4304,113.7667 C108.2324,113.6267 101.9954,113.9077 95.8974,115.0907 C92.2724,115.7947 88.4484,116.5347 86.1844,119.5327 C79.7144,111.6367 68.6954,112.2227 59.3184,112.3937 C46.1034,112.6347 32.9264,113.8027 19.7374,112.4657 C19.0274,76.5417 18.9724,40.6087 19.5764,4.6827 C19.6014,3.2337 17.3514,3.2337 17.3264,4.6827 C16.7194,40.7877 16.7764,76.8987 17.4974,113.0017 C17.5054,113.3817 17.6694,113.6557 17.9024,113.8367" id="Fill-1" fill="#4353FF"></path>
                        <path d="M85.0772,17.9227 C85.0102,23.0907 85.0262,28.2587 85.1282,33.4267 C85.1562,34.8727 87.4062,34.8777 87.3782,33.4267 C87.2762,28.2587 87.2602,23.0907 87.3272,17.9227 C87.3472,16.4747 85.0972,16.4737 85.0772,17.9227" id="Fill-3" fill="#4353FF"></path>
                        <path d="M87.9688,108.6624 C88.6358,85.8314 88.4878,62.9944 87.5228,40.1744 C87.4618,38.7314 85.2118,38.7244 85.2728,40.1744 C86.2378,62.9944 86.3858,85.8314 85.7188,108.6624 C85.6768,110.1104 87.9268,110.1094 87.9688,108.6624" id="Fill-5" fill="#4353FF"></path>
                        <path d="M33.544,101.927 C46.796,101.268 60.051,101.242 73.306,101.849 C73.898,101.877 74.452,101.312 74.431,100.724 C74.176,93.849 73.922,86.974 73.668,80.098 C73.645,79.474 73.17,78.996 72.543,78.973 C60.754,78.552 48.966,78.131 37.178,77.71 C35.73,77.658 35.732,79.908 37.178,79.96 C48.605,80.368 60.031,80.777 71.458,81.184 C71.685,87.307 71.91,93.43 72.137,99.553 C59.622,99.014 47.106,99.04 34.593,99.631 C34.127,92.571 33.666,85.51 33.215,78.449 C33.123,77.011 30.872,77.001 30.965,78.449 C31.441,85.901 31.926,93.352 32.419,100.802 C32.458,101.385 32.903,101.959 33.544,101.927" id="Fill-7" fill="#4353FF"></path>
                        <path d="M32.6851,18.8343 C45.1841,18.5983 57.6831,18.3623 70.1811,18.1263 C71.6281,18.0993 71.6321,15.8493 70.1811,15.8763 C57.6831,16.1123 45.1841,16.3483 32.6851,16.5843 C31.2391,16.6113 31.2341,18.8613 32.6851,18.8343" id="Fill-9" fill="#4353FF"></path>
                        <path d="M31.6749,29.1365 C44.6819,29.4875 57.6879,29.4495 70.6929,29.0245 C72.1369,28.9775 72.1429,26.7275 70.6929,26.7745 C57.6879,27.1995 44.6819,27.2375 31.6749,26.8865 C30.2269,26.8475 30.2279,29.0975 31.6749,29.1365" id="Fill-11" fill="#4353FF"></path>
                        <path d="M69.191,37.1824 C57.023,36.9774 44.854,36.9444 32.685,37.0834 C31.238,37.1004 31.234,39.3504 32.685,39.3334 C44.854,39.1944 57.023,39.2274 69.191,39.4324 C70.64,39.4564 70.64,37.2064 69.191,37.1824" id="Fill-13" fill="#4353FF"></path>
                        <path d="M31.6993,50.1453 C43.6893,51.2593 55.6933,51.4373 67.7103,50.6813 C69.1483,50.5913 69.1583,48.3403 67.7103,48.4313 C55.6933,49.1873 43.6893,49.0093 31.6993,47.8953 C30.2583,47.7613 30.2673,50.0123 31.6993,50.1453" id="Fill-15" fill="#4353FF"></path>
                        <path d="M68.7022,58.7566 C56.8772,59.7046 45.0422,59.9316 33.1892,59.4366 C31.7422,59.3766 31.7442,61.6266 33.1892,61.6866 C45.0422,62.1816 56.8772,61.9546 68.7022,61.0066 C70.1362,60.8916 70.1482,58.6406 68.7022,58.7566" id="Fill-17" fill="#4353FF"></path>
                        <path d="M32.6846,68.0477 C31.2366,68.0477 31.2346,70.2977 32.6846,70.2977 L53.1846,70.2977 C54.6326,70.2977 54.6346,68.0477 53.1846,68.0477 L32.6846,68.0477 Z" id="Fill-19" fill="#4353FF"></path>
                        <path d="M6.0064,13.6727 C5.9304,50.1837 6.5394,86.6927 7.8314,123.1807 C7.8814,124.6247 10.1324,124.6317 10.0814,123.1807 C8.7894,86.6927 8.1804,50.1837 8.2564,13.6727 C8.2594,12.2247 6.0094,12.2227 6.0064,13.6727" id="Fill-21" fill="#4353FF"></path>
                        <path d="M163.8438,13.6678 C163.8588,12.2198 161.6088,12.2188 161.5938,13.6678 C161.2328,50.1388 161.1298,86.6118 161.2818,123.0838 C139.6948,123.3658 118.1058,123.6468 96.5168,123.9298 C96.0548,123.9358 95.7568,124.1788 95.5888,124.4928 C94.1108,124.8608 93.5078,125.8718 92.4658,127.1338 C89.9898,130.1338 82.6048,130.1808 80.5608,126.5838 C80.4668,126.4188 80.3508,126.2968 80.2238,126.2088 C80.1198,125.7568 79.7828,125.3668 79.1838,125.3638 C57.5168,125.2738 35.8508,125.1838 14.1848,125.0928 C12.7368,125.0868 12.7348,127.3368 14.1848,127.3428 C35.6458,127.4328 57.1078,127.5218 78.5698,127.6118 C78.5858,127.6468 78.5968,127.6838 78.6168,127.7198 C80.5408,131.1048 84.2068,131.4868 87.7898,131.4018 C89.3108,131.3658 90.9598,131.2658 92.3008,130.4578 C93.6998,129.6148 94.6878,126.7998 96.2138,126.6298 C96.5768,126.5888 96.8458,126.4108 97.0248,126.1728 C118.5228,125.8928 140.0208,125.6108 161.5188,125.3308 C161.7218,125.3278 161.8888,125.2738 162.0348,125.1958 C162.6918,125.4008 163.5388,125.0638 163.5348,124.1718 C163.3758,87.3368 163.4798,50.5008 163.8438,13.6678" id="Fill-23" fill="#4353FF"></path>
                        <path d="M97.6202,58.4187 C96.3152,58.4157 96.1402,60.2317 97.3202,60.6287 C97.6182,60.7287 97.9152,60.8277 98.2132,60.9277 C98.6652,61.0797 99.0292,60.9447 99.2702,60.6817 C111.5872,60.7357 123.8972,61.0327 136.2022,61.5867 C137.6492,61.6517 137.6462,59.4017 136.2022,59.3367 C123.3482,58.7577 110.4872,58.4527 97.6202,58.4187" id="Fill-25" fill="#4353FF"></path>
                        <path d="M96.5186,71.4602 C103.0506,71.4602 109.5826,71.4602 116.1156,71.4592 C122.6886,71.4592 129.8606,70.6782 136.3626,71.6692 C137.7796,71.8852 138.3896,69.7182 136.9606,69.5002 C130.8316,68.5652 124.2686,69.2092 118.0756,69.2092 L96.5186,69.2102 C95.0706,69.2102 95.0686,71.4602 96.5186,71.4602" id="Fill-27" fill="#4353FF"></path>
                        <path d="M96.1827,81.0911 C109.1927,81.2941 122.1947,81.0461 135.1877,80.3451 C136.6277,80.2681 136.6367,78.0181 135.1877,78.0951 C122.1947,78.7961 109.1927,79.0441 96.1827,78.8411 C94.7347,78.8191 94.7337,81.0691 96.1827,81.0911" id="Fill-29" fill="#4353FF"></path>
                        <path d="M136.1915,89.2605 C122.8545,89.6395 109.5235,89.4665 96.2025,88.7405 C94.7545,88.6615 94.7595,90.9115 96.2025,90.9905 C109.5235,91.7165 122.8545,91.8895 136.1915,91.5105 C137.6355,91.4695 137.6415,89.2195 136.1915,89.2605" id="Fill-31" fill="#4353FF"></path>
                        <path d="M95.5186,102.2727 C102.8506,102.5487 110.1816,102.8247 117.5126,103.1007 C118.9606,103.1547 118.9586,100.9047 117.5126,100.8507 C110.1816,100.5747 102.8506,100.2987 95.5186,100.0227 C94.0716,99.9677 94.0736,102.2187 95.5186,102.2727" id="Fill-33" fill="#4353FF"></path>
                        <path d="M101.92,17.4578 C102.175,17.5178 102.401,17.4948 102.597,17.4158 C111.609,18.1438 120.63,18.7588 129.656,19.2958 C125.068,22.7368 120.649,26.3678 116.399,30.1858 C110.953,25.6388 105.281,21.3598 99.397,17.3528 C100.23,17.2348 101.066,17.2568 101.92,17.4578 M132.602,19.4788 C132.907,19.4968 133.213,19.5188 133.519,19.5358 C134.406,28.6408 134.65,37.7498 134.254,46.8848 C129.131,41.5178 123.753,36.4318 118.127,31.6368 C122.607,27.6188 127.272,23.8018 132.139,20.2168 C132.412,20.0158 132.555,19.7518 132.602,19.4788 M101.285,48.7828 C106.053,43.2768 111.11,38.0628 116.454,33.1548 C121.961,37.8408 127.224,42.8138 132.249,48.0498 C121.92,47.9728 111.599,48.2168 101.285,48.7828 M98.234,19.2778 C103.939,23.1618 109.434,27.3088 114.716,31.7078 C109.312,36.6808 104.196,41.9638 99.38,47.5518 C98.998,38.1268 98.616,28.7028 98.234,19.2778 M95.94,18.1778 C96.37,28.8048 96.801,39.4318 97.232,50.0588 C97.255,50.6388 97.729,51.2218 98.357,51.1838 C110.651,50.4368 122.957,50.1458 135.274,50.3118 C135.907,50.3208 136.366,49.7888 136.399,49.1868 C136.966,38.9258 136.723,28.6978 135.669,18.4748 C135.605,17.8428 135.205,17.3868 134.544,17.3498 C123.626,16.7408 112.718,15.9938 101.819,15.1078 C101.739,15.1018 101.681,15.1268 101.61,15.1338 C100.252,14.9438 98.892,15.0318 97.564,15.4538 C96.911,15.6608 96.704,16.2578 96.812,16.7818 C96.729,16.8958 96.663,17.0218 96.62,17.1578 C96.226,17.2908 95.917,17.6288 95.94,18.1778" id="Fill-35" fill="#4353FF"></path>
                    </g>
                </g>
            </g>
        </g>
    </g>
</svg>