<?xml version="1.0" encoding="UTF-8"?>
<svg width="55px" height="56px" viewBox="0 0 55 56" version="1.1" xmlns="http://www.w3.org/2000/svg" xmlns:xlink="http://www.w3.org/1999/xlink">
    <!-- Generator: Sketch 49.2 (51160) - http://www.bohemiancoding.com/sketch -->
    <title>Group 19</title>
    <desc>Created with Sketch.</desc>
    <defs>
        <polygon id="path-1" points="0 0.000360722488 54.83 0.000360722488 54.83 55.9899297 0 55.9899297"></polygon>
    </defs>
    <g id="Landing-pages" stroke="none" stroke-width="1" fill="none" fill-rule="evenodd">
        <g id="Desktop-HD" transform="translate(-289.000000, -1291.000000)">
            <g id="Group-5" transform="translate(167.000000, 1172.000000)">
                <g id="Group-4" transform="translate(0.000000, 112.000000)">
                    <g id="Group-19" transform="translate(115.000000, 0.000000)">
                        <rect id="Rectangle-10" x="0" y="0" width="70" height="70"></rect>
                        <g id="layer" transform="translate(7.000000, 7.000000)" fill-rule="nonzero">
                            <polygon id="Shape" fill="#22DDAB" points="47 31.5 44.4413415 34.6803778 27 45 9.55865854 34.6803778 6 31.5 12 27.5 27 33.1576275 42 26.5"></polygon>
                            <polygon id="Shape" fill="#EDB726" points="42.5 45.5 28.5 55 10.4071951 46 18.5 40.5 28 43.9286994 35 40.5"></polygon>
                        </g>
                        <g id="Page-1" transform="translate(7.000000, 7.000000)">
                            <mask id="mask-2" fill="white">
                                <use xlink:href="#path-1"></use>
                            </mask>
                            <g id="Clip-2"></g>
                            <path d="M41.6957,28.3675 C43.1537,29.4635 44.6127,30.5585 46.0707,31.6545 L37.4367,37.2165 C34.6237,39.0285 30.0967,43.1595 26.9957,42.8425 C23.8477,42.5195 19.4027,39.1185 16.6817,37.5765 C13.3557,35.6915 10.1017,33.6945 6.8827,31.6335 C8.4537,30.6765 10.0247,29.7185 11.5947,28.7605 C11.6957,28.6995 11.7767,28.6275 11.8467,28.5515 C13.2727,29.2745 14.7287,29.9485 16.2227,30.5745 C19.4807,31.9375 23.8317,34.3485 27.4037,34.4875 C31.2067,34.6355 35.6197,31.0835 38.7547,29.2725 C39.6017,28.7835 40.4337,28.2725 41.2707,27.7675 C41.3377,27.9895 41.4727,28.1995 41.6957,28.3675 M25.6107,52.2555 C21.0717,50.6775 16.6487,47.9595 12.4617,45.4945 C14.7087,44.2865 16.9567,43.0785 19.2037,41.8705 C19.2807,41.8295 19.3467,41.7835 19.4067,41.7345 C21.9067,43.3145 25.2727,45.6745 27.7267,45.6395 C29.9747,45.6085 32.7317,43.1295 34.7547,41.6545 C36.9287,42.7145 38.9977,43.9445 40.9767,45.3265 C36.7027,49.0935 31.4667,54.2915 25.6107,52.2555 M54.4927,17.3265 C49.8517,13.5775 45.0337,10.0705 39.9697,6.9095 C36.4627,4.7205 30.6547,-0.0845 26.3257,0.0015 C22.3987,0.0785 17.6677,4.6005 14.5797,6.7195 C9.6727,10.0845 4.9567,13.7065 0.3787,17.5045 C-0.7373,18.4305 0.8617,20.0145 1.9687,19.0965 C5.9497,15.7935 10.0357,12.6295 14.2727,9.6615 C17.7987,7.1925 23.5147,1.7835 28.1017,2.8135 C32.1377,3.7195 36.8657,7.5755 40.3217,9.7925 C44.3147,12.3535 48.1397,15.1415 51.8517,18.0905 C45.2977,22.9175 37.8137,28.5485 30.2807,31.3185 C26.0087,32.8895 21.2297,30.2235 17.2307,28.5605 C12.8467,26.7385 8.7227,24.5595 4.9637,21.6385 C3.8337,20.7595 2.2297,22.3415 3.3717,23.2285 C5.3597,24.7735 7.4317,26.1335 9.5877,27.3495 C8.1347,28.2355 6.6817,29.1205 5.2297,30.0065 C4.6667,30.3495 4.5987,30.9405 4.8057,31.4105 C4.4137,31.8955 4.3607,32.6945 5.0387,33.1315 C9.0037,35.6865 13.0347,38.1275 17.1577,40.4165 C15.0127,41.5705 12.8667,42.7235 10.7207,43.8765 C10.3557,44.0735 10.1927,44.3725 10.1697,44.6835 C9.4587,45.0315 9.1387,46.1615 10.0307,46.6795 C13.6877,48.7975 17.3967,50.8125 21.1997,52.6555 C23.2827,53.6645 26.5557,56.0265 28.8607,55.9895 C30.8857,55.9575 33.2167,53.9375 34.7717,52.9015 C37.6487,50.9865 40.3437,48.8505 42.9477,46.5815 C43.2357,46.3315 43.3337,46.0385 43.3077,45.7585 C43.6487,45.2725 43.6837,44.5095 43.0687,44.0555 C41.1127,42.6145 39.0557,41.3485 36.9047,40.2335 C40.5627,37.8765 44.2207,35.5205 47.8797,33.1635 C48.2487,32.9255 48.3997,32.5785 48.3977,32.2345 C48.7777,31.7525 48.8417,30.9405 48.2067,30.4635 C46.5117,29.1905 44.8177,27.9165 43.1227,26.6435 C46.9317,24.2715 50.6417,21.7475 54.2657,19.0945 C54.7867,18.7125 55.1117,17.8265 54.4927,17.3265" id="Fill-1" fill="#4353FF" mask="url(#mask-2)"></path>
                        </g>
                    </g>
                </g>
            </g>
        </g>
    </g>
</svg>