<?xml version="1.0" encoding="UTF-8"?>
<svg width="56px" height="62px" viewBox="0 0 56 62" version="1.1" xmlns="http://www.w3.org/2000/svg" xmlns:xlink="http://www.w3.org/1999/xlink">
    <!-- Generator: Sketch 49.2 (51160) - http://www.bohemiancoding.com/sketch -->
    <title>Group 22</title>
    <desc>Created with Sketch.</desc>
    <defs>
        <polygon id="path-1" points="0 0.00016587942 55.679 0.00016587942 55.679 61.2148894 0 61.2148894"></polygon>
    </defs>
    <g id="Landing-pages" stroke="none" stroke-width="1" fill="none" fill-rule="evenodd">
        <g id="Desktop-HD" transform="translate(-1334.000000, -1288.000000)">
            <g id="Group-5" transform="translate(167.000000, 1172.000000)">
                <g id="Group-4" transform="translate(1045.000000, 112.000000)">
                    <g id="Group-22" transform="translate(115.000000, 0.000000)">
                        <rect id="Rectangle-10" x="0" y="0" width="70" height="70"></rect>
                        <path d="M10.5,32.5 L19,30 L20,46 L11.5,44 C9.16666667,41.3333333 8,39.3333333 8,38 C8,36.6666667 8.83333333,34.8333333 10.5,32.5 Z" id="Rectangle-16" fill="#22DDAB"></path>
                        <ellipse id="Oval-6" fill="#EDB726" cx="36.5" cy="60.5" rx="4.5" ry="3.5"></ellipse>
                        <path d="M50,31 L60.5,32.5 L60.5,44 L52,47 C50.8496946,44.555737 50.1830279,42.555737 50,41 C49.8169721,39.444263 49.8169721,36.1109296 50,31 Z" id="Rectangle-16" fill="#22DDAB"></path>
                        <g id="Page-1" transform="translate(7.000000, 4.000000)">
                            <mask id="mask-2" fill="white">
                                <use xlink:href="#path-1"></use>
                            </mask>
                            <g id="Clip-2"></g>
                            <path d="M33.0527,56.9101 C32.2857,58.5481 29.9977,58.9281 28.3947,58.9631 C26.5367,59.0051 24.7287,58.0461 25.5067,55.9011 C26.1307,54.1811 28.0467,53.5051 29.6727,53.0711 C29.7777,53.1631 29.9027,53.2411 30.0557,53.2971 C31.5677,53.8391 34.0477,54.7851 33.0527,56.9101 M54.8037,29.4031 C53.9717,27.4841 52.4337,26.5321 50.6267,26.0421 C50.7427,25.8321 50.8157,25.5911 50.7757,25.3061 C49.0737,13.2671 40.2557,-1.6249 26.1797,0.1441 C13.5337,1.7331 4.8707,13.9001 4.8727,26.1221 C4.8727,26.1831 4.8977,26.2271 4.9057,26.2851 C3.3657,27.0161 2.0247,28.1131 1.0847,29.6931 C-0.9103,33.0471 -0.0433,36.7551 2.7827,39.2771 C5.0397,41.2931 10.1227,44.6671 13.2717,42.6691 C14.5977,41.8271 14.4597,40.7191 14.4287,39.2281 C14.3647,36.1851 14.1067,33.1391 13.8277,30.1101 C13.6967,28.6811 11.4447,28.6671 11.5777,30.1101 C11.8227,32.7651 12.0167,35.4241 12.1337,38.0871 C12.2177,40.0101 12.5317,40.7421 10.4067,40.7491 C8.7947,40.7541 7.1957,39.7161 5.8977,38.8471 C3.1567,37.0091 1.0357,34.1531 3.0277,30.8291 C4.7637,27.9291 8.2587,27.2561 11.3707,27.2711 C12.8187,27.2791 12.8207,25.0291 11.3707,25.0211 C9.9637,25.0141 8.5207,25.1531 7.1477,25.4961 C7.4177,14.9931 14.4457,4.8471 25.0787,2.5941 C38.5767,-0.2679 46.8887,14.3911 48.5687,25.6661 C46.6457,25.4521 44.6137,25.5141 42.8857,25.3801 C41.4427,25.2681 41.4487,27.5181 42.8857,27.6301 C45.1917,27.8081 48.5347,27.4791 50.6747,28.3401 C54.5957,29.9181 53.7197,36.0761 51.9247,38.6371 C50.0157,41.3591 45.2347,43.7421 43.9727,38.9461 C43.3297,36.5061 43.5307,33.3691 43.3457,30.8561 C43.2407,29.4211 40.9897,29.4091 41.0957,30.8561 C41.3257,33.9901 41.2827,37.3281 41.8667,40.4181 C42.1147,41.7251 42.5297,42.8181 43.7657,43.5071 C44.1797,43.7371 44.6137,43.8991 45.0577,44.0021 C43.5337,48.8531 40.7887,53.9781 35.4037,54.9371 C34.8307,52.9591 32.5817,51.8181 30.6537,51.1271 C30.5117,51.0761 30.3807,51.0591 30.2567,51.0611 C30.0147,50.8491 29.6807,50.7411 29.2767,50.8471 C26.4397,51.5831 23.3937,53.1841 23.1047,56.4511 C22.8237,59.6231 25.5157,61.2771 28.3947,61.2131 C31.1697,61.1511 34.4707,60.0841 35.3437,57.2011 C42.0967,56.1321 45.5717,50.1671 47.3937,44.0411 C49.8717,43.6341 52.3317,41.9281 53.6507,40.1451 C55.8727,37.1401 56.2877,32.8271 54.8037,29.4031" id="Fill-1" fill="#4353FF" mask="url(#mask-2)"></path>
                        </g>
                    </g>
                </g>
            </g>
        </g>
    </g>
</svg>