<?xml version="1.0" encoding="UTF-8"?>
<svg width="118px" height="123px" viewBox="0 0 118 123" version="1.1" xmlns="http://www.w3.org/2000/svg" xmlns:xlink="http://www.w3.org/1999/xlink">
    <!-- Generator: Sketch 49.2 (51160) - http://www.bohemiancoding.com/sketch -->
    <title>Page 1</title>
    <desc>Created with Sketch.</desc>
    <defs>
        <polygon id="path-1" points="0 0.713524709 71.2388505 0.713524709 71.2388505 121.999715 0 121.999715"></polygon>
        <polygon id="path-3" points="0.0493247083 0.814 89.6471218 0.814 89.6471218 66.5492766 0.0493247083 66.5492766"></polygon>
        <polygon id="path-5" points="0.974957127 0.123783077 50.849 0.123783077 50.849 45.3013324 0.974957127 45.3013324"></polygon>
    </defs>
    <g id="Landing-pages" stroke="none" stroke-width="1" fill="none" fill-rule="evenodd">
        <g id="Desktop-HD" transform="translate(-489.000000, -2899.000000)">
            <g id="Gain-unparelleled-support" transform="translate(256.000000, 2756.000000)">
                <g id="Dedicated-Shortlisting-Support" transform="translate(0.000000, 136.000000)">
                    <g id="Page-1" transform="translate(223.000000, 0.000000)">
                        <g id="Group-3" transform="translate(10.000000, 7.186000)">
                            <mask id="mask-2" fill="white">
                                <use xlink:href="#path-1"></use>
                            </mask>
                            <g id="Clip-2"></g>
                            <path d="M70.1521,119.1929 C58.5761,119.3019 46.9991,119.4119 35.4231,119.5199 C29.8001,119.5739 24.1771,119.6269 18.5551,119.6789 C13.3601,119.7279 7.0001,120.7759 2.2401,118.2449 C2.2981,118.1139 2.3371,117.9659 2.3401,117.7949 C3.0641,79.1339 3.2281,40.4649 2.8321,1.7999 C2.8171,0.3529 0.5671,0.3499 0.5821,1.7999 C0.9781,40.4649 0.8141,79.1339 0.0901,117.7949 C0.0861,117.9909 0.1301,118.1549 0.1981,118.2979 C-0.1099,118.7869 -0.1019,119.4869 0.5321,119.8749 C4.2681,122.1589 8.3551,122.0209 12.6011,121.9849 C18.8851,121.9319 25.1701,121.8669 31.4541,121.8079 C44.3531,121.6859 57.2531,121.5649 70.1521,121.4429 C71.5991,121.4289 71.6031,119.1789 70.1521,119.1929" id="Fill-1" fill="#4353FF" mask="url(#mask-2)"></path>
                        </g>
                        <g id="Group-6" transform="translate(14.000000, 6.186000)">
                            <mask id="mask-4" fill="white">
                                <use xlink:href="#path-3"></use>
                            </mask>
                            <g id="Clip-5"></g>
                            <path d="M83.8112,31.2964 C80.1652,31.2554 76.5182,31.2144 72.8712,31.1744 C70.6682,31.1494 68.0622,31.5094 65.9062,31.0964 C63.1602,30.5694 62.4462,30.4994 61.8372,27.4004 C61.1272,23.7874 61.4042,19.7234 61.1982,16.0514 C61.0142,12.7844 60.8302,9.5184 60.6452,6.2504 C69.7262,13.2934 77.5072,21.7044 83.8112,31.2964 M1.1342,3.0654 C19.9762,3.9424 38.8332,4.1764 57.6922,3.7724 C57.7672,3.9674 57.8962,4.1504 58.1002,4.2984 C58.1662,4.3464 58.2282,4.3994 58.2942,4.4474 C58.5652,9.2614 58.8362,14.0744 59.1072,18.8884 C59.2672,21.7254 59.4272,24.5634 59.5872,27.4004 C59.6612,28.7114 59.2712,31.2744 60.1682,32.4284 C61.6562,34.3444 65.7752,33.3454 67.8962,33.3684 L85.2422,33.5624 C85.5782,34.1024 85.9342,34.6274 86.2602,35.1754 C86.2702,35.1924 86.2832,35.2034 86.2932,35.2194 C86.6612,45.3014 87.0282,55.3824 87.3962,65.4644 C87.4492,66.9074 89.6992,66.9144 89.6462,65.4644 C89.2692,55.1324 88.8932,44.8004 88.5162,34.4694 C88.4982,33.9774 88.2172,33.6654 87.8672,33.5084 C80.7302,21.7124 71.4992,11.5704 60.4802,3.3094 C60.4712,3.1434 60.4612,2.9774 60.4522,2.8114 C60.4022,1.9214 59.5252,1.5814 58.8802,1.7904 C58.7022,1.6234 58.4652,1.5074 58.1442,1.5144 C39.1352,1.9314 20.1272,1.6984 1.1342,0.8154 C-0.3138,0.7474 -0.3108,2.9984 1.1342,3.0654" id="Fill-4" fill="#4353FF" mask="url(#mask-4)"></path>
                        </g>
                        <path d="M36.5,43.5 C37.9618996,41.4106681 39.1285663,40.2440014 40,40 C40.8714337,39.7559986 43.8714337,39.7559986 49,40 L52,46 L53,53 L35.5,53.5 L36.5,43.5 Z" id="Rectangle-23" fill="#22DDAB"></path>
                        <path d="M40.1564,40.9228 C40.5914,41.1878 41.0654,41.4068 41.5824,41.5598 C43.5314,42.1298 45.8514,41.8098 47.6624,40.7488 C47.7894,40.8678 47.9554,40.9628 48.1744,41.0098 C50.0984,41.4178 50.9494,45.0008 51.3594,46.5078 C51.8494,48.3138 52.0304,50.1318 52.0214,51.9878 C46.8564,52.2238 41.6984,52.5588 36.5464,52.9908 C36.7714,48.9218 36.5484,43.1458 40.1564,40.9228 M48.4434,35.5288 C48.6084,41.6428 37.2204,40.1518 39.8624,34.6088 C39.8884,34.5518 39.9054,34.4958 39.9224,34.4408 C41.8804,30.5988 48.3044,30.3848 48.4434,35.5288 M54.9854,24.2548 C53.6554,22.7768 50.5184,23.4918 48.8894,23.4428 C43.1324,23.2658 37.4444,22.5138 31.8064,21.3538 C31.0494,21.1968 30.5274,21.7488 30.4224,22.3388 C29.7294,22.0358 28.6214,22.6278 28.7704,23.6618 C30.2414,33.8998 30.9234,44.1758 30.8554,54.5168 C30.8514,55.0818 31.3754,55.6988 31.9804,55.6418 C40.2354,54.8548 48.5034,54.3208 56.7914,54.0388 C58.2354,53.9898 58.2414,51.7398 56.7914,51.7888 C55.9524,51.8178 55.1144,51.8608 54.2764,51.8938 C54.2784,48.9968 53.7954,46.1528 52.6924,43.4538 C52.0104,41.7838 51.2204,39.8728 49.5554,39.1008 C49.9764,38.5488 50.3004,37.9208 50.4894,37.2188 C51.3074,34.1828 49.6044,30.6418 46.6034,29.5818 C43.2484,28.3988 39.5144,30.2418 37.9654,33.3288 C37.9194,33.4198 37.8894,33.5088 37.8684,33.5968 C36.9834,35.5668 37.2834,37.7238 38.4374,39.3358 C34.3814,42.2138 34.6044,48.5268 34.2884,53.1898 C33.8924,53.2248 33.4974,53.2568 33.1014,53.2938 C33.1084,43.2958 32.3974,33.3568 30.9924,23.4548 C31.0594,23.4828 31.1294,23.5068 31.2084,23.5228 C34.8114,24.2648 38.4274,24.8628 42.0864,25.2358 C44.0854,25.4408 52.0904,24.7138 53.3374,26.3048 C53.7334,26.8118 53.3674,31.3868 53.3864,32.0828 C53.4394,34.0088 53.5314,35.9338 53.6604,37.8558 C53.9254,41.8038 54.3764,45.7268 54.9224,49.6448 C55.1214,51.0728 57.2894,50.4648 57.0924,49.0468 C56.3074,43.4178 55.7954,37.7658 55.6364,32.0828 C55.5794,30.0418 56.5464,25.9878 54.9854,24.2548" id="Fill-7" fill="#4353FF"></path>
                        <path d="M79.4768,68.0176 C63.4768,67.7316 47.4758,67.4466 31.4748,67.1606 C30.0258,67.1346 30.0258,69.3846 31.4748,69.4106 C47.4758,69.6966 63.4768,69.9816 79.4768,70.2676 C80.9258,70.2926 80.9258,68.0426 79.4768,68.0176" id="Fill-9" fill="#4353FF"></path>
                        <path d="M65.4758,83.2568 C54.0198,83.2058 42.5778,83.5358 31.1438,84.2488 C29.7058,84.3388 29.6958,86.5888 31.1438,86.4988 C42.5778,85.7858 54.0198,85.4558 65.4758,85.5068 C66.9238,85.5138 66.9258,83.2638 65.4758,83.2568" id="Fill-11" fill="#4353FF"></path>
                        <path d="M31.8078,99.8437 C30.3608,99.7677 30.3658,102.0177 31.8078,102.0937 C41.4688,102.6057 51.1338,102.9437 60.8078,103.1087 C62.2558,103.1337 62.2558,100.8837 60.8078,100.8587 C51.1338,100.6937 41.4688,100.3557 31.8078,99.8437" id="Fill-13" fill="#4353FF"></path>
                        <g id="Group-17" transform="translate(77.000000, 81.186000)">
                            <polygon id="Path-4" fill="#EDB726" points="25.5 1.314 32 13.314 49.5 17.314 36.5 26.814 38 43.314 25 35.814 11 42.314 13.5 26.814 3.5 16.314 17.5 15.314"></polygon>
                            <mask id="mask-6" fill="white">
                                <use xlink:href="#path-5"></use>
                            </mask>
                            <g id="Clip-16"></g>
                            <path d="M49.694,15.3032 C45.463,15.1232 41.28,14.6462 37.118,13.8562 C35.703,13.5872 35.097,15.7552 36.521,16.0252 C40.135,16.7112 43.77,17.1672 47.433,17.4152 C44.075,21.0922 39.51,23.4552 35.536,26.4152 C34.995,26.5662 34.52,27.0712 34.652,27.7792 C35.563,32.6512 36.436,37.5312 37.295,42.4122 C33.267,40.7802 29.663,38.4852 26.432,35.5082 C26.023,35.1312 25.537,35.1362 25.152,35.3372 C24.911,35.2792 24.641,35.3012 24.363,35.4562 C20.365,37.6902 16.272,39.7202 12.088,41.5732 C12.323,36.8302 13.895,32.2482 13.833,27.4622 C13.832,27.3992 13.806,27.3542 13.797,27.2962 C14.046,26.9022 14.078,26.3772 13.66,25.9462 C10.665,22.8492 7.67,19.7532 4.675,16.6572 L16.889,16.3402 C17.035,16.3662 17.185,16.3642 17.33,16.3282 C17.378,16.3272 17.426,16.3262 17.473,16.3242 C18.31,16.3032 18.648,15.5442 18.517,14.9132 C19.469,13.2722 20.421,11.6312 21.373,9.9912 C22.515,8.0212 24.295,5.8132 25.033,3.6792 C25.57,2.1272 25.325,2.6212 26.03,4.0332 C26.544,5.0652 27.058,6.0952 27.572,7.1252 C28.686,9.3592 29.8,11.5922 30.915,13.8242 C31.561,15.1202 33.503,13.9832 32.858,12.6892 C31.486,9.9412 30.115,7.1932 28.744,4.4442 C27.964,2.8812 27.457,0.6172 25.585,0.1592 C25.204,0.0672 24.765,0.1512 24.49,0.4492 C22.836,2.2402 21.777,4.8082 20.556,6.9122 C19.166,9.3102 17.776,11.7062 16.385,14.1032 C11.619,14.2272 6.853,14.3502 2.087,14.4732 C1.111,14.4982 0.605,15.6852 1.291,16.3942 C4.745,19.9642 8.198,23.5342 11.651,27.1042 C11.616,27.2152 11.581,27.3252 11.583,27.4622 C11.652,32.8282 9.654,37.9322 9.807,43.3092 C9.833,44.2362 10.726,44.6112 11.5,44.2802 C16.221,42.2602 20.818,40.0022 25.304,37.5052 C29.169,40.9572 33.539,43.5332 38.449,45.2402 C39.334,45.5482 39.968,44.6312 39.834,43.8572 C38.918,38.6082 37.968,33.3652 36.993,28.1262 C41.77,24.6182 47.075,21.8632 50.665,16.9952 C51.204,16.2652 50.464,15.3352 49.694,15.3032" id="Fill-15" fill="#4353FF" mask="url(#mask-6)"></path>
                        </g>
                    </g>
                </g>
            </g>
        </g>
    </g>
</svg>