<svg width="1680" height="400" viewBox="0 0 1680 400" fill="none" xmlns="http://www.w3.org/2000/svg">
<g clip-path="url(#clip0_321_1089)">
<path fill-rule="evenodd" clip-rule="evenodd" d="M338.352 98.8374C342.244 106.093 341.781 124.497 336.752 125.793C334.747 126.311 330.474 125.044 326.125 122.422L328.855 141.738H312.738L318.286 115.87C315.192 112.236 313.098 107.784 313.448 102.795C314.456 88.4196 334.461 91.582 338.352 98.8374Z" fill="#F0B884"/>
<path fill-rule="evenodd" clip-rule="evenodd" d="M317.047 119.106C315.024 110.104 309.261 103.968 310.142 99.9444C310.728 97.2621 312.292 95.5941 314.833 94.9404C316.147 89.6226 320.385 87.3607 327.548 88.1547C338.291 89.3458 344.849 93.8089 342.017 103.63C339.414 103.63 336.271 102.688 331.926 104.301C330.547 104.813 329.561 106.401 328.968 109.064H327.004C325.098 105.904 323.219 104.742 321.366 105.58C319.514 106.418 319.093 108.452 320.103 111.684L319.136 119.106H317.047Z" fill="#191847"/>
<path fill-rule="evenodd" clip-rule="evenodd" d="M343.76 226.073C350.362 226.073 355.714 231.425 355.714 238.027V297.174C355.714 303.776 350.362 309.128 343.76 309.128H268.954C262.352 309.128 257 303.776 257 297.174V238.027C257 231.425 262.352 226.073 268.954 226.073H343.76ZM333.923 244.827H278.791C277.141 244.827 275.803 246.165 275.803 247.816V287.385C275.803 289.035 277.141 290.373 278.791 290.373H333.923C335.574 290.373 336.911 289.035 336.911 287.385V247.816C336.911 246.165 335.574 244.827 333.923 244.827Z" fill="#C5CFD6"/>
<path fill-rule="evenodd" clip-rule="evenodd" d="M422.302 305.779C409.063 289.653 400.104 277.698 395.428 269.914C387.42 256.585 380.865 244.726 378.797 240.195C373.865 229.392 390.152 224.334 393.838 229.373C399.417 236.999 411.332 260.998 429.582 301.37L422.302 305.779Z" fill="#F0B884"/>
<path fill-rule="evenodd" clip-rule="evenodd" d="M395.172 301.09L370.532 239.226C365.262 227.948 390.711 220.536 394.584 225.784C403.377 237.699 424.276 284.703 426.896 288.253L395.172 301.09Z" fill="#242E57"/>
<path fill-rule="evenodd" clip-rule="evenodd" d="M329.61 288.663C334.396 281.679 351.807 258.183 361.294 248.464C364.02 245.671 366.68 242.991 369.196 240.493C376.675 233.068 391.602 245.582 384.136 252.344C365.544 269.183 338.414 291.913 336.148 293.94C332.971 296.78 326.602 293.053 329.61 288.663Z" fill="#F0B884"/>
<path fill-rule="evenodd" clip-rule="evenodd" d="M331.011 285.382C329.421 286.704 328.382 287.788 327.894 288.633C327.285 289.688 326.572 291.328 325.755 293.554C326.975 294.259 337.943 300.591 358.66 312.552C361.151 310.211 361.541 308.397 359.829 307.107C358.117 305.817 356.704 304.73 355.591 303.844L344.288 288.241C344.046 287.907 343.579 287.832 343.245 288.074C343.239 288.079 343.233 288.083 343.227 288.088L340.923 289.865C338.757 289.678 337.141 289.276 336.075 288.661C335.231 288.174 334.267 287.173 333.181 285.66C332.7 284.989 331.767 284.835 331.096 285.316C331.067 285.337 331.039 285.359 331.011 285.382Z" fill="#E4E4E4"/>
<path fill-rule="evenodd" clip-rule="evenodd" d="M416.597 303.294C415.881 305.235 415.523 306.693 415.523 307.668C415.523 308.886 415.726 310.663 416.131 313C417.54 313 430.205 313 454.126 313C455.114 309.727 454.544 307.961 452.416 307.7C450.289 307.439 448.522 307.203 447.115 306.993L429.525 299.132C429.148 298.963 428.706 299.132 428.538 299.509C428.535 299.516 428.532 299.523 428.529 299.53L427.422 302.221C425.453 303.142 423.853 303.602 422.622 303.602C421.647 303.602 420.312 303.218 418.615 302.45C417.863 302.11 416.978 302.443 416.638 303.195C416.623 303.228 416.609 303.261 416.597 303.294Z" fill="#E4E4E4"/>
<path fill-rule="evenodd" clip-rule="evenodd" d="M361.665 242.316C341.185 238.988 327.468 236.713 320.513 235.489C300.687 232.003 294.906 221.362 298.324 198.145H334.852C339.686 199.537 359.884 208.148 395.446 223.978C401.844 227.146 400.653 236.487 399.483 239.564C399.435 239.69 388.649 258.125 367.124 294.87L337.243 275.883L361.721 244.553C362.367 243.255 362.348 242.509 361.665 242.316Z" fill="#303D72"/>
<path fill-rule="evenodd" clip-rule="evenodd" d="M282.441 189.615L296.513 189.67C287.824 217.75 283.133 232.649 282.441 234.368C280.882 238.233 284.18 244.121 285.59 247.285C280.997 249.342 281.487 241.723 275.693 244.422C270.405 246.884 266.383 251.347 260.273 247.573C259.522 247.109 258.699 245.362 260.688 243.997C265.642 240.596 272.782 234.643 273.747 232.684C275.063 230.012 277.961 215.656 282.441 189.615ZM364.915 189.07L386.395 204.86C392.221 206.434 397.089 208.392 400.997 210.734C401.921 211.577 403.037 213.282 399.207 212.988C395.378 212.693 391.337 212.555 390.809 213.863C390.28 215.17 392.598 216.734 391.529 218.498C390.817 219.674 387.453 216.725 381.438 209.651L360.166 200.82L364.915 189.07Z" fill="#F0B884"/>
<path fill-rule="evenodd" clip-rule="evenodd" d="M322.433 130.501L328.256 129.501C349.861 148.185 358.735 184.079 385.217 203.094L378.843 211.003C332.901 205.309 321.514 161.527 322.433 130.501Z" fill="#CD9824"/>
<path fill-rule="evenodd" clip-rule="evenodd" d="M297.047 203.758C320.395 203.758 337.569 203.758 348.57 203.758C350.924 203.758 350.481 200.355 350.14 198.637C346.213 178.818 330.88 157.453 330.88 129.239L316.018 126.906C303.725 146.698 299.474 171.065 297.047 203.758Z" fill="#DDE3E9"/>
<path fill-rule="evenodd" clip-rule="evenodd" d="M314.902 126.906C315.403 126.906 315.863 126.938 316.28 127.001L320.936 127.267C334.285 172.556 337.966 202.772 331.981 217.915L291.428 217.915C289.025 223.524 286.726 228.243 284.53 232.072H273.48C272.44 198.41 280.435 169.839 297.464 146.36C295.306 145.74 293.596 144.291 292.336 142.015C286.904 132.203 288.865 126.8 294.671 125.024C300.476 123.249 305.653 126.906 314.902 126.906Z" fill="#E2A827"/>
<path fill-rule="evenodd" clip-rule="evenodd" d="M306.477 217.915L291.428 217.915C294.23 211.373 297.174 203.62 300.258 194.656C301.534 205.338 303.607 213.091 306.477 217.915Z" fill="black" fill-opacity="0.1"/>
<path fill-rule="evenodd" clip-rule="evenodd" d="M1330.09 103.806C1326.22 111.028 1326.68 129.347 1331.68 130.638C1333.68 131.152 1337.93 129.891 1342.25 127.281L1339.54 146.509H1355.57L1350.05 120.759C1353.13 117.143 1355.21 112.711 1354.86 107.745C1353.86 93.4357 1333.96 96.5835 1330.09 103.806Z" fill="#B28B67"/>
<path fill-rule="evenodd" clip-rule="evenodd" d="M1361.85 102.982C1362.37 102.468 1362.65 101.735 1362.9 101.039C1363.15 100.316 1363.4 99.5849 1363.57 98.8323C1363.9 97.3283 1363.91 95.5988 1362.83 94.431C1361.98 93.4945 1360.69 93.0745 1359.49 92.9832C1358.7 92.9224 1357.89 93.0335 1357.13 93.2837C1356.37 93.5319 1355.72 94.0265 1354.99 94.3335C1354.96 92.7128 1354.69 91.017 1353.86 89.6332C1353.07 88.3017 1351.81 87.5545 1350.38 87.3568C1348.91 87.154 1347.45 87.499 1346.13 88.2129C1345.8 88.3916 1345.47 88.5789 1345.16 88.7909C1344.9 88.9684 1344.63 89.1822 1344.32 89.2544C1343.98 89.3349 1343.81 89.1367 1343.58 88.8864C1343.32 88.5928 1343.03 88.3343 1342.72 88.1051C1341.34 87.0918 1339.53 86.6751 1337.94 87.2825C1337.2 87.5624 1336.49 88.0376 1335.99 88.6925C1335.54 89.2763 1335.23 90.2023 1334.61 90.609C1334.35 90.7817 1334.17 90.5529 1333.93 90.3838C1333.57 90.1298 1333.23 89.8495 1332.87 89.6024C1332.37 89.2552 1331.82 88.9956 1331.23 88.8596C1330.37 88.6606 1329.19 88.7073 1328.94 89.8338C1328.85 90.257 1328.92 90.7095 1328.95 91.1359C1328.99 91.7213 1329.03 92.3065 1329.08 92.8911C1329.12 93.3349 1329.17 93.7636 1329.25 94.1995C1329.3 94.4318 1329.44 94.8649 1329.34 95.0976C1329.21 95.3884 1328.64 95.2231 1328.39 95.2332C1327.91 95.2532 1327.42 95.3383 1326.98 95.5454C1326.63 95.7061 1326.26 95.9422 1326.12 96.3405C1326.03 96.5852 1326.05 96.8365 1326.09 97.0881C1326.14 97.3902 1326.09 97.5504 1326.05 97.8552C1325.4 97.5345 1323.14 96.822 1322.86 97.9891C1322.76 98.3778 1322.98 98.8169 1323.14 99.1446C1323.43 99.7195 1323.81 100.245 1324.19 100.746C1325 101.791 1325.96 102.693 1326.99 103.464C1325.78 104.003 1325.47 105.592 1326.52 106.539C1326.98 106.957 1327.6 107.05 1328.18 107.024C1328.4 107.014 1328.71 106.932 1328.87 106.969C1328.96 106.989 1329.06 107.066 1329.19 107.074C1330.01 107.131 1330.94 106.932 1331.75 106.749C1333.18 106.423 1334.54 105.742 1335.65 104.705C1335.94 104.439 1336.17 104.286 1336.55 104.29C1336.89 104.294 1337.22 104.386 1337.56 104.394C1338.44 104.417 1339.24 103.983 1340.07 103.694C1340.12 104.808 1340.43 106.036 1340.89 107.038C1341.26 107.856 1342.04 107.975 1342.8 108.046C1345.24 108.276 1347.68 108.02 1350.12 108.023C1347.76 108.558 1345.32 108.778 1342.98 109.407C1341.92 109.691 1342.73 110.405 1343.18 110.9C1343.93 111.715 1344.48 112.725 1344.86 113.789C1346.02 112.281 1348.06 111.288 1349.87 111.751C1351.87 112.262 1353.28 114.969 1352 116.915C1351.26 118.044 1349.92 118.48 1348.8 118.966C1349.67 119.871 1349.88 121.208 1350.41 122.335C1350.67 122.891 1351.03 123.519 1351.61 123.712C1351.82 123.784 1352.07 123.79 1352.24 123.965C1352.45 124.18 1352.5 124.422 1352.76 124.607C1353.83 125.348 1355.49 125.291 1356.43 124.324C1357.29 123.45 1357.07 122.067 1356.35 121.181C1357.49 120.708 1359.55 120.099 1359.1 118.33C1361.56 118.167 1367.53 114.178 1364.23 111.262C1366.04 110.238 1367.7 107.736 1366.54 105.53C1365.64 103.831 1363.56 103.072 1361.85 102.982Z" fill="#191847"/>
<path fill-rule="evenodd" clip-rule="evenodd" d="M1384.55 230.089H1332.94L1326.18 313H1403L1384.55 230.089Z" fill="#C5CFD6"/>
<path fill-rule="evenodd" clip-rule="evenodd" d="M1384.55 230.089H1368.67L1359.17 313H1403L1384.55 230.089Z" fill="black" fill-opacity="0.1"/>
<path fill-rule="evenodd" clip-rule="evenodd" d="M1274.09 215.879L1273.91 215.772C1268.39 212.676 1259.37 216.881 1259.37 221.556C1259.39 235.707 1272.3 302.403 1272.97 306.619C1273.64 310.835 1280.86 311.949 1281.28 306.633C1281.95 298.174 1283.19 268.892 1281.95 255.338C1281.44 249.747 1280.88 244.422 1280.34 239.67C1287.11 251.907 1297.59 269.427 1311.77 292.229L1319.46 288.713C1313.41 268.791 1308.45 254.726 1304.58 246.518C1297.96 232.465 1291.75 220.43 1289.13 216.191C1285.02 209.525 1277.87 211.846 1274.09 215.879Z" fill="#B28B67"/>
<path fill-rule="evenodd" clip-rule="evenodd" d="M1318.91 277.65L1292.48 215.039C1286.15 204.853 1268.42 217.105 1270.58 223.012C1275.48 236.423 1300.4 279.844 1301.86 283.839L1318.91 277.65Z" fill="#1F28CF"/>
<path fill-rule="evenodd" clip-rule="evenodd" d="M1320.6 284.965C1322.11 286.232 1323.1 287.274 1323.58 288.091C1324.18 289.136 1324.88 290.76 1325.69 292.964C1324.48 293.662 1313.61 299.942 1293.06 311.803C1290.6 309.487 1290.21 307.689 1291.91 306.411C1293.61 305.132 1295.01 304.054 1296.11 303.176L1307.29 287.767C1307.55 287.407 1308.05 287.327 1308.41 287.588C1308.42 287.592 1308.42 287.597 1308.43 287.602L1310.66 289.32C1312.81 289.133 1314.41 288.735 1315.47 288.124C1316.28 287.653 1317.22 286.696 1318.26 285.253C1318.78 284.534 1319.79 284.374 1320.51 284.896C1320.54 284.918 1320.57 284.941 1320.6 284.965Z" fill="#E4E4E4"/>
<path fill-rule="evenodd" clip-rule="evenodd" d="M1283.07 303.525C1283.75 305.379 1284.09 306.778 1284.09 307.722C1284.09 308.927 1283.89 310.687 1283.49 313C1282.09 313 1269.53 313 1245.81 313C1244.83 309.76 1245.4 308.011 1247.51 307.753C1249.61 307.494 1251.37 307.261 1252.76 307.053L1270.15 299.296C1270.55 299.115 1271.03 299.297 1271.21 299.703C1271.21 299.71 1271.22 299.717 1271.22 299.724L1272.29 302.328C1274.24 303.24 1275.83 303.696 1277.05 303.696C1277.99 303.696 1279.28 303.333 1280.91 302.607C1281.72 302.245 1282.67 302.61 1283.03 303.422C1283.05 303.456 1283.06 303.49 1283.07 303.525Z" fill="#E4E4E4"/>
<path fill-rule="evenodd" clip-rule="evenodd" d="M1257.52 226.367C1257.52 244.13 1265.95 285.566 1265.96 289.478L1284.09 289.491C1281.44 252.519 1280.49 233.833 1281.27 233.435C1282.42 232.837 1328.73 238.062 1342.62 238.062C1362.64 238.062 1370.93 225.422 1371.6 202.006H1331.93C1323.85 202.871 1281.72 211.377 1266.07 214.301C1259.37 215.553 1257.52 221.473 1257.52 226.367Z" fill="#2B44FF"/>
<path fill-rule="evenodd" clip-rule="evenodd" d="M1271.66 162.886C1268.76 162.288 1261.67 157.01 1260.45 158.082C1258.64 159.667 1260.25 164.535 1262.15 166.957C1265.7 171.482 1268.63 173.03 1275.89 175.057C1279.68 176.116 1283.79 178.241 1288.2 181.429L1288.78 171.162L1278.56 165.541C1277.13 160.079 1275.42 157.331 1273.43 157.296C1271.89 156.583 1274.56 163.485 1271.66 162.886ZM1289.24 139.49C1291.11 142.824 1292.94 146.416 1291.98 147.443C1291.02 148.47 1288.64 147.035 1287.5 148.742C1286.74 149.88 1290.81 151.677 1299.71 154.134L1316.61 169.63L1325.2 160.399L1301.94 147.642C1298.08 143.042 1294.27 139.47 1290.51 136.925C1289.37 136.446 1287.36 136.156 1289.24 139.49Z" fill="#997659"/>
<path fill-rule="evenodd" clip-rule="evenodd" d="M1336.52 157.557C1328.37 157.471 1317.51 155.748 1305.93 148.379L1301.37 158.545C1309.37 166.492 1320.61 173.02 1330.43 172.744C1338.18 172.526 1342.14 163.142 1336.52 157.557Z" fill="#139A75"/>
<path fill-rule="evenodd" clip-rule="evenodd" d="M1335.98 131.745C1334.95 144.944 1329.79 159.49 1325.55 173.86C1316.91 176.02 1302.41 173.473 1282.05 166.219C1277.01 176.68 1274.67 184.138 1275.05 188.593C1292.52 197.73 1307.48 201.803 1319.81 202.071C1319.41 209.397 1320.3 216.37 1323.3 222.742C1329.44 235.839 1365.45 223.71 1377.56 226.097C1385.14 201.433 1370.48 191.41 1370.47 175.629C1370.46 158.347 1356.6 131.745 1354.56 131.745H1335.98Z" fill="#22DDAB"/>
<path d="M1682.89 362.023C1682.89 362.023 1676.34 272.939 1627.15 224.534C1606.39 204.369 1592.58 177.855 1587.79 148.973C1585.65 135.244 1584.73 121.342 1585.06 107.442" stroke="#C2C6C9" stroke-width="2"/>
<path d="M1554.19 76.7508C1557.82 86.5295 1585.72 108.336 1585.72 108.336C1585.72 108.336 1592.55 73.1187 1588.95 63.2981C1585.32 53.4729 1574.59 48.5194 1564.99 52.2343C1555.39 55.9491 1550.55 66.9255 1554.18 76.7508H1554.19Z" fill="#CCF7EB"/>
<path d="M1545.56 142.282C1553.82 148.512 1588.81 151.25 1588.81 151.25C1588.81 151.25 1575.85 117.877 1567.59 111.647C1562.25 107.619 1555.21 106.816 1549.13 109.539C1543.05 112.262 1538.85 118.099 1538.12 124.849C1537.38 131.6 1540.22 138.24 1545.56 142.268V142.282Z" fill="#CCF7EB"/>
<path d="M1581.17 234.788C1591.38 235.892 1622.93 220.19 1622.93 220.19C1622.93 220.19 1595.29 198.076 1585.09 196.959C1574.88 195.851 1565.73 203.422 1564.65 213.869C1563.57 224.315 1570.97 233.681 1581.17 234.788Z" fill="#CCF7EB"/>
<path d="M1623.52 298.573C1633.4 301.367 1667.09 291.407 1667.09 291.407C1667.09 291.407 1643.5 264.865 1633.62 261.973C1627.23 260.126 1620.36 261.908 1615.61 266.647C1610.85 271.385 1608.93 278.361 1610.56 284.947C1612.19 291.532 1617.13 296.727 1623.52 298.573Z" fill="#CCF7EB"/>
<path d="M1626 139.041C1621.65 148.554 1592.19 168.056 1592.19 168.056C1592.19 168.056 1588 132.405 1592.35 122.892C1595.17 116.741 1600.98 112.596 1607.6 112.019C1614.21 111.441 1620.63 114.519 1624.42 120.093C1628.22 125.667 1628.82 132.89 1626 139.041Z" fill="#CCF7EB"/>
<path d="M1674.61 214.281C1667.67 222.02 1633.86 231.617 1633.86 231.617C1633.86 231.617 1640.29 196.316 1647.23 188.577C1654.16 180.835 1665.92 180.313 1673.48 187.41C1681.05 194.508 1681.56 206.539 1674.62 214.281H1674.61Z" fill="#CCF7EB"/>
<path d="M1712.04 294.033C1706.48 302.862 1674.73 318.158 1674.73 318.158C1674.73 318.158 1675.24 282.256 1680.79 273.456C1686.35 264.626 1697.85 262.08 1706.48 267.77C1715.11 273.46 1717.6 285.231 1712.04 294.061V294.033Z" fill="#CCF7EB"/>
<path d="M-16.4355 359.023C-16.4355 359.023 -9.99482 269.939 38.3643 221.534C58.7726 201.369 72.3468 174.855 77.0489 145.973C79.1596 132.244 80.0579 118.342 79.7326 104.442" stroke="#C2C6C9" stroke-width="2"/>
<path d="M110.08 73.7508C106.511 83.5295 79.084 105.336 79.084 105.336C79.084 105.336 72.3749 70.1187 75.9173 60.2981C79.4855 50.4729 90.0287 45.5194 99.4662 49.2343C108.904 52.9491 113.662 63.9255 110.093 73.7508H110.08Z" fill="#CCF7EB"/>
<path d="M118.563 139.282C110.445 145.512 76.0547 148.25 76.0547 148.25C76.0547 148.25 88.7885 114.877 96.9065 108.647C102.161 104.619 109.079 103.816 115.057 106.539C121.034 109.262 125.162 115.099 125.885 121.849C126.609 128.6 123.818 135.24 118.563 139.268V139.282Z" fill="#CCF7EB"/>
<path d="M83.5579 231.788C73.5211 232.892 42.5117 217.19 42.5117 217.19C42.5117 217.19 69.6835 195.076 79.7069 193.959C89.7409 192.851 98.7372 200.422 99.8006 210.869C100.864 221.315 93.592 230.681 83.5579 231.788Z" fill="#CCF7EB"/>
<path d="M41.9324 295.573C32.2176 298.367 -0.898438 288.407 -0.898438 288.407C-0.898438 288.407 22.2882 261.865 32.0029 258.973C38.2829 257.126 45.0321 258.908 49.7081 263.647C54.3842 268.385 56.2768 275.361 54.6729 281.947C53.069 288.532 48.2124 293.727 41.9324 295.573Z" fill="#CCF7EB"/>
<path d="M39.4901 136.041C43.7705 145.554 72.7269 165.056 72.7269 165.056C72.7269 165.056 76.8463 129.405 72.5659 119.892C69.795 113.741 64.0826 109.596 57.5803 109.019C51.078 108.441 44.7738 111.519 41.0424 117.093C37.311 122.667 36.7192 129.89 39.4901 136.041Z" fill="#CCF7EB"/>
<path d="M-8.28957 211.281C-1.47313 219.02 31.7637 228.617 31.7637 228.617C31.7637 228.617 25.4437 193.316 18.6273 185.577C11.8095 177.835 0.254028 177.313 -7.18257 184.41C-14.6192 191.508 -15.1208 203.539 -8.30298 211.281H-8.28957Z" fill="#CCF7EB"/>
</g>
<defs>
<clipPath id="clip0_321_1089">
<rect width="1680" height="400" fill="white"/>
</clipPath>
</defs>
</svg>
