<svg width="1680" height="720" viewBox="0 0 1680 720" fill="none" xmlns="http://www.w3.org/2000/svg">
<g clip-path="url(#clip0_321_869)">
<path opacity="0.05" d="M877.847 240.014C867.53 238.351 853.956 238.382 851.439 247.178C850.163 251.64 852.637 256.514 855.175 260.819C865.933 279.208 879.278 296.621 894.888 312.638C902.347 320.276 910.539 327.899 914.185 337.338C917.83 346.776 916.401 356.966 914.089 366.374C908.657 388.664 898.898 409.664 885.185 428.571C912.95 441.852 944.239 455.581 972.812 448.558C989.92 444.352 1004.06 432.945 1022.04 431.866C1034.05 431.142 1046.19 435.171 1057.83 439.219C1112.91 458.381 1167.22 479.605 1220.77 502.89C1243.19 512.645 1265.95 522.898 1290.04 526.229C1314.12 529.56 1340.27 524.681 1354.43 508.296C1356.62 505.77 1358.77 502.867 1362.22 501.99C1365.34 501.218 1368.79 502.292 1371.98 503.352L1564.69 567.187C1575.25 570.682 1586.2 574.236 1597.02 573.584C1607.51 572.957 1616.78 568.473 1625.74 564.042C1646.21 553.947 1668.92 540.782 1670.29 519.146C1671.4 501.805 1657.98 485.427 1643.69 472.488C1629.4 459.55 1612.95 447.533 1604.51 431.175C1591.66 406.277 1600.69 378.879 1607.06 353.492C1612.81 330.502 1616.17 306.917 1617.1 282.994C1617.91 261.963 1616.75 240.308 1608.54 219.876C1600.34 199.444 1584.19 180.204 1562.16 170.952C1533.4 158.866 1498.98 165.038 1471.85 149.876C1448.92 137.097 1437.78 112.818 1421.44 93.4002C1392.4 58.9048 1346.47 39.7096 1301.77 25.7903C1254.38 11.0184 1204.4 0.293254 1156.56 5.80385C1145.6 7.06282 1134.59 9.26445 1125.65 14.6216C1111.95 22.8413 1104.89 37.2892 1094.18 48.4908C1051.03 93.5863 959.248 78.5379 914.751 122.612C898.96 138.245 892.512 160.071 894.032 181.928C895.666 205.446 914.616 223.855 917.989 244.943C906.894 247.104 889.927 241.956 877.847 240.014Z" fill="#D9DDFF"/>
<path opacity="0.05" fill-rule="evenodd" clip-rule="evenodd" d="M1852.24 824.411C1898.32 713.927 1545.74 539.339 1211.06 505.572C876.378 471.806 674.668 636.099 798.618 785.653C922.568 935.206 1806.17 934.895 1852.24 824.411Z" fill="#D9DDFF"/>
<g opacity="0.5">
<path d="M1688.89 414.023C1688.89 414.023 1682.34 324.939 1633.15 276.535C1612.39 256.369 1598.58 229.855 1593.79 200.973C1591.65 187.244 1590.73 173.342 1591.06 159.442" stroke="#808BFF" stroke-width="2"/>
<path d="M1560.19 128.751C1563.82 138.529 1591.72 160.336 1591.72 160.336C1591.72 160.336 1598.55 125.119 1594.95 115.298C1591.32 105.473 1580.59 100.519 1570.99 104.234C1561.39 107.949 1556.55 118.926 1560.18 128.751H1560.19Z" fill="#C4C8F5"/>
<path d="M1551.56 194.282C1559.82 200.512 1594.81 203.25 1594.81 203.25C1594.81 203.25 1581.85 169.877 1573.59 163.647C1568.25 159.619 1561.21 158.816 1555.13 161.539C1549.05 164.262 1544.85 170.099 1544.12 176.849C1543.38 183.6 1546.22 190.24 1551.56 194.268V194.282Z" fill="#C4C8F5"/>
<path d="M1587.17 286.788C1597.38 287.892 1628.93 272.19 1628.93 272.19C1628.93 272.19 1601.29 250.076 1591.09 248.959C1580.88 247.851 1571.73 255.422 1570.65 265.869C1569.57 276.315 1576.97 285.681 1587.17 286.788Z" fill="#C4C8F5"/>
<path d="M1629.52 350.573C1639.4 353.367 1673.09 343.407 1673.09 343.407C1673.09 343.407 1649.5 316.865 1639.62 313.973C1633.23 312.126 1626.36 313.908 1621.61 318.647C1616.85 323.385 1614.93 330.361 1616.56 336.947C1618.19 343.532 1623.13 348.726 1629.52 350.573Z" fill="#C4C8F5"/>
<path d="M1632 191.041C1627.65 200.554 1598.19 220.056 1598.19 220.056C1598.19 220.056 1594 184.405 1598.35 174.892C1601.17 168.741 1606.98 164.596 1613.6 164.019C1620.21 163.441 1626.63 166.519 1630.42 172.093C1634.22 177.667 1634.82 184.89 1632 191.041Z" fill="#C4C8F5"/>
<path d="M1680.61 266.281C1673.67 274.02 1639.86 283.617 1639.86 283.617C1639.86 283.617 1646.29 248.316 1653.23 240.577C1660.16 232.835 1671.92 232.312 1679.48 239.41C1687.05 246.508 1687.56 258.539 1680.62 266.281H1680.61Z" fill="#C4C8F5"/>
</g>
<path opacity="0.3" d="M1478.83 117H1033.52C1027.35 117 1022.35 122.002 1022.35 128.172V589.005C1022.35 595.175 1027.35 600.177 1033.52 600.177H1478.83C1485 600.177 1490 595.175 1490 589.005V128.172C1490 122.002 1485 117 1478.83 117Z" fill="#F1F4F4"/>
<path d="M1456.49 177.048H1381.11C1374.95 177.048 1369.95 182.05 1369.95 188.22V278.99C1369.95 285.16 1374.95 290.162 1381.11 290.162H1456.49C1462.66 290.162 1467.66 285.16 1467.66 278.99V188.22C1467.66 182.05 1462.66 177.048 1456.49 177.048Z" fill="white"/>
<path d="M1418.81 242.682C1431.14 242.682 1441.14 232.678 1441.14 220.338C1441.14 207.998 1431.14 197.995 1418.81 197.995C1406.47 197.995 1396.47 207.998 1396.47 220.338C1396.47 232.678 1406.47 242.682 1418.81 242.682Z" fill="#C4C8F5"/>
<path d="M1449.52 248.268H1388.09C1385.78 248.268 1383.91 250.143 1383.91 252.457C1383.91 254.771 1385.78 256.646 1388.09 256.646H1449.52C1451.83 256.646 1453.7 254.771 1453.7 252.457C1453.7 250.143 1451.83 248.268 1449.52 248.268Z" fill="#C4C8F5"/>
<path d="M1438.35 262.232H1399.26C1396.95 262.232 1395.07 264.108 1395.07 266.422C1395.07 268.735 1396.95 270.611 1399.26 270.611H1438.35C1440.66 270.611 1442.54 268.735 1442.54 266.422C1442.54 264.108 1440.66 262.232 1438.35 262.232Z" fill="#C4C8F5"/>
<path d="M1141.01 177.048H1065.62C1059.46 177.048 1054.46 182.05 1054.46 188.22V278.99C1054.46 285.16 1059.46 290.162 1065.62 290.162H1141.01C1147.17 290.162 1152.17 285.16 1152.17 278.99V188.22C1152.17 182.05 1147.17 177.048 1141.01 177.048Z" fill="white"/>
<path d="M1103.32 242.682C1115.65 242.682 1125.65 232.678 1125.65 220.338C1125.65 207.998 1115.65 197.995 1103.32 197.995C1090.98 197.995 1080.98 207.998 1080.98 220.338C1080.98 232.678 1090.98 242.682 1103.32 242.682Z" fill="#C4C8F5"/>
<path d="M1134.03 248.268H1072.6C1070.29 248.268 1068.42 250.143 1068.42 252.457C1068.42 254.771 1070.29 256.646 1072.6 256.646H1134.03C1136.34 256.646 1138.21 254.771 1138.21 252.457C1138.21 250.143 1136.34 248.268 1134.03 248.268Z" fill="#C4C8F5"/>
<path d="M1122.86 262.232H1083.77C1081.46 262.232 1079.58 264.108 1079.58 266.422C1079.58 268.735 1081.46 270.611 1083.77 270.611H1122.86C1125.17 270.611 1127.05 268.735 1127.05 266.422C1127.05 264.108 1125.17 262.232 1122.86 262.232Z" fill="#C4C8F5"/>
<path d="M1294.57 312.505H1219.18C1213.02 312.505 1208.02 317.507 1208.02 323.677V414.447C1208.02 420.617 1213.02 425.619 1219.18 425.619H1294.57C1300.73 425.619 1305.73 420.617 1305.73 414.447V323.677C1305.73 317.507 1300.73 312.505 1294.57 312.505Z" fill="white"/>
<path d="M1256.88 378.139C1269.21 378.139 1279.21 368.135 1279.21 355.795C1279.21 343.456 1269.21 333.452 1256.88 333.452C1244.54 333.452 1234.54 343.456 1234.54 355.795C1234.54 368.135 1244.54 378.139 1256.88 378.139Z" fill="#C4C8F5"/>
<path d="M1287.59 383.725H1226.16C1223.85 383.725 1221.98 385.6 1221.98 387.914C1221.98 390.228 1223.85 392.104 1226.16 392.104H1287.59C1289.9 392.104 1291.77 390.228 1291.77 387.914C1291.77 385.6 1289.9 383.725 1287.59 383.725Z" fill="#C4C8F5"/>
<path d="M1276.42 397.689H1237.33C1235.02 397.689 1233.14 399.565 1233.14 401.879C1233.14 404.193 1235.02 406.068 1237.33 406.068H1276.42C1278.73 406.068 1280.61 404.193 1280.61 401.879C1280.61 399.565 1278.73 397.689 1276.42 397.689Z" fill="#C4C8F5"/>
<path d="M1134.03 312.505H1058.65C1052.48 312.505 1047.48 317.507 1047.48 323.677V414.447C1047.48 420.617 1052.48 425.619 1058.65 425.619H1134.03C1140.2 425.619 1145.2 420.617 1145.2 414.447V323.677C1145.2 317.507 1140.2 312.505 1134.03 312.505Z" fill="white"/>
<path d="M1096.34 378.139C1108.67 378.139 1118.67 368.135 1118.67 355.795C1118.67 343.456 1108.67 333.452 1096.34 333.452C1084 333.452 1074 343.456 1074 355.795C1074 368.135 1084 378.139 1096.34 378.139Z" fill="#C4C8F5"/>
<path d="M1127.05 383.725H1065.63C1063.31 383.725 1061.44 385.6 1061.44 387.914C1061.44 390.228 1063.31 392.104 1065.63 392.104H1127.05C1129.36 392.104 1131.24 390.228 1131.24 387.914C1131.24 385.6 1129.36 383.725 1127.05 383.725Z" fill="#C4C8F5"/>
<path d="M1115.88 397.689H1076.8C1074.48 397.689 1072.61 399.565 1072.61 401.879C1072.61 404.193 1074.48 406.068 1076.8 406.068H1115.88C1118.2 406.068 1120.07 404.193 1120.07 401.879C1120.07 399.565 1118.2 397.689 1115.88 397.689Z" fill="#C4C8F5"/>
<path d="M1456.49 312.505H1381.11C1374.95 312.505 1369.95 317.507 1369.95 323.677V414.447C1369.95 420.617 1374.95 425.619 1381.11 425.619H1456.49C1462.66 425.619 1467.66 420.617 1467.66 414.447V323.677C1467.66 317.507 1462.66 312.505 1456.49 312.505Z" fill="white"/>
<path d="M1418.81 378.139C1431.14 378.139 1441.14 368.135 1441.14 355.795C1441.14 343.455 1431.14 333.452 1418.81 333.452C1406.47 333.452 1396.47 343.455 1396.47 355.795C1396.47 368.135 1406.47 378.139 1418.81 378.139Z" fill="#C4C8F5"/>
<path d="M1449.52 383.725H1388.09C1385.78 383.725 1383.91 385.6 1383.91 387.914C1383.91 390.228 1385.78 392.103 1388.09 392.103H1449.52C1451.83 392.103 1453.7 390.228 1453.7 387.914C1453.7 385.6 1451.83 383.725 1449.52 383.725Z" fill="#C4C8F5"/>
<path d="M1438.35 397.689H1399.26C1396.95 397.689 1395.07 399.565 1395.07 401.879C1395.07 404.192 1396.95 406.068 1399.26 406.068H1438.35C1440.66 406.068 1442.54 404.192 1442.54 401.879C1442.54 399.565 1440.66 397.689 1438.35 397.689Z" fill="#C4C8F5"/>
<path d="M1294.57 452.151H1219.18C1213.02 452.151 1208.02 457.153 1208.02 463.323V554.093C1208.02 560.263 1213.02 565.265 1219.18 565.265H1294.57C1300.73 565.265 1305.73 560.263 1305.73 554.093V463.323C1305.73 457.153 1300.73 452.151 1294.57 452.151Z" fill="white"/>
<path d="M1256.88 517.785C1269.21 517.785 1279.21 507.782 1279.21 495.442C1279.21 483.102 1269.21 473.098 1256.88 473.098C1244.54 473.098 1234.54 483.102 1234.54 495.442C1234.54 507.782 1244.54 517.785 1256.88 517.785Z" fill="#C4C8F5"/>
<path d="M1287.59 523.371H1226.16C1223.85 523.371 1221.98 525.247 1221.98 527.561C1221.98 529.874 1223.85 531.75 1226.16 531.75H1287.59C1289.9 531.75 1291.77 529.874 1291.77 527.561C1291.77 525.247 1289.9 523.371 1287.59 523.371Z" fill="#C4C8F5"/>
<path d="M1276.42 537.336H1237.33C1235.02 537.336 1233.14 539.211 1233.14 541.525C1233.14 543.839 1235.02 545.715 1237.33 545.715H1276.42C1278.73 545.715 1280.61 543.839 1280.61 541.525C1280.61 539.211 1278.73 537.336 1276.42 537.336Z" fill="#C4C8F5"/>
<path d="M1134.03 452.151H1058.65C1052.48 452.151 1047.48 457.153 1047.48 463.323V554.093C1047.48 560.263 1052.48 565.265 1058.65 565.265H1134.03C1140.2 565.265 1145.2 560.263 1145.2 554.093V463.323C1145.2 457.153 1140.2 452.151 1134.03 452.151Z" fill="white"/>
<path d="M1096.34 517.785C1108.67 517.785 1118.67 507.782 1118.67 495.442C1118.67 483.102 1108.67 473.098 1096.34 473.098C1084 473.098 1074 483.102 1074 495.442C1074 507.782 1084 517.785 1096.34 517.785Z" fill="#DDE3E9"/>
<path d="M1127.05 523.371H1065.63C1063.31 523.371 1061.44 525.247 1061.44 527.561C1061.44 529.874 1063.31 531.75 1065.63 531.75H1127.05C1129.36 531.75 1131.24 529.874 1131.24 527.561C1131.24 525.247 1129.36 523.371 1127.05 523.371Z" fill="#DDE3E9"/>
<path d="M1115.88 537.336H1076.8C1074.48 537.336 1072.61 539.211 1072.61 541.525C1072.61 543.839 1074.48 545.715 1076.8 545.715H1115.88C1118.2 545.715 1120.07 543.839 1120.07 541.525C1120.07 539.211 1118.2 537.336 1115.88 537.336Z" fill="#DDE3E9"/>
<path d="M1456.49 452.151H1381.11C1374.95 452.151 1369.95 457.153 1369.95 463.323V554.093C1369.95 560.263 1374.95 565.265 1381.11 565.265H1456.49C1462.66 565.265 1467.66 560.263 1467.66 554.093V463.323C1467.66 457.153 1462.66 452.151 1456.49 452.151Z" fill="white"/>
<path d="M1418.81 517.785C1431.14 517.785 1441.14 507.782 1441.14 495.442C1441.14 483.102 1431.14 473.098 1418.81 473.098C1406.47 473.098 1396.47 483.102 1396.47 495.442C1396.47 507.782 1406.47 517.785 1418.81 517.785Z" fill="#C4C8F5"/>
<path d="M1449.52 523.371H1388.09C1385.78 523.371 1383.91 525.247 1383.91 527.561C1383.91 529.874 1385.78 531.75 1388.09 531.75H1449.52C1451.83 531.75 1453.7 529.874 1453.7 527.561C1453.7 525.247 1451.83 523.371 1449.52 523.371Z" fill="#C4C8F5"/>
<path d="M1438.35 537.336H1399.26C1396.95 537.336 1395.07 539.211 1395.07 541.525C1395.07 543.839 1396.95 545.715 1399.26 545.715H1438.35C1440.66 545.715 1442.54 543.839 1442.54 541.525C1442.54 539.211 1440.66 537.336 1438.35 537.336Z" fill="#C4C8F5"/>
<g filter="url(#filter0_d_321_869)">
<path d="M1272.2 225.58L1196.61 196.548C1190.85 194.337 1184.39 197.213 1182.18 202.973L1147.17 294.226C1144.96 299.986 1147.84 306.448 1153.6 308.66L1229.19 337.692C1234.95 339.903 1241.41 337.027 1243.62 331.267L1278.63 240.013C1280.84 234.254 1277.96 227.791 1272.2 225.58Z" fill="white" stroke="#EDB726"/>
<path d="M1208.97 276.24C1221.41 281.017 1235.35 274.833 1240.11 262.428C1244.87 250.023 1238.65 236.094 1226.21 231.316C1213.77 226.539 1199.83 232.723 1195.07 245.128C1190.31 257.533 1196.54 271.463 1208.97 276.24Z" fill="#C4C8F5"/>
<mask id="mask0_321_869" style="mask-type:alpha" maskUnits="userSpaceOnUse" x="1193" y="229" width="49" height="49">
<path d="M1208.97 276.24C1221.41 281.017 1235.35 274.833 1240.11 262.428C1244.87 250.023 1238.65 236.094 1226.21 231.316C1213.77 226.539 1199.83 232.723 1195.07 245.128C1190.31 257.533 1196.54 271.463 1208.97 276.24Z" fill="#C4C8F5"/>
</mask>
<g mask="url(#mask0_321_869)">
<path d="M1215.5 254C1219.09 254 1222 251.09 1222 247.5C1222 243.91 1219.09 241 1215.5 241C1211.91 241 1209 243.91 1209 247.5C1209 251.09 1211.91 254 1215.5 254Z" fill="#FFB8B8"/>
<path d="M1222.43 284.201L1208.29 286L1207.76 274.803C1206.1 269.956 1207.2 265.629 1210.64 261.747L1211.34 258.572C1211.53 257.739 1211.91 256.98 1212.44 256.376C1212.98 255.773 1213.65 255.349 1214.38 255.151C1216.69 253.631 1219.31 252.906 1222.26 253.01C1223.43 253.535 1224.43 254.48 1225.1 255.703C1225.77 256.927 1226.08 258.365 1225.98 259.805C1225.37 268.604 1224.28 276.841 1222.43 284.201Z" fill="#EDB726"/>
<path d="M1210.59 240.14C1210.59 240.14 1207.34 241.448 1207.26 246.202C1207.25 247.002 1207.35 247.799 1207.55 248.569C1207.76 249.443 1207.93 251.339 1206.51 253.866C1205.58 255.506 1204.74 257.205 1204 258.954L1207.66 259.344L1208.27 252.655C1208.56 249.413 1209.29 246.236 1210.42 243.226L1210.44 243.163C1210.44 243.163 1212.12 246.38 1215.32 246.281L1214.14 245.06C1214.14 245.06 1218.14 246.719 1220.32 247.052C1220.57 247.09 1220.8 247.202 1220.99 247.376C1221.19 247.55 1221.34 247.779 1221.42 248.038C1221.51 248.298 1221.53 248.578 1221.48 248.849C1221.43 249.12 1221.32 249.371 1221.15 249.575C1221.13 249.591 1221.12 249.606 1221.11 249.622C1219.78 251.172 1217.13 254.775 1218.8 257.489C1220.47 260.204 1219.12 261 1219.12 261L1221.59 259.414L1222.71 258.625L1222.73 259.63L1228.64 258.692C1228.64 258.692 1230.23 258.392 1226.7 254.226C1226.7 254.226 1225.76 252.595 1226.12 251.152C1226.41 250.055 1226.47 248.895 1226.28 247.77C1225.39 243.083 1222.15 233.811 1210.59 240.14Z" fill="#2F2E41"/>
<path d="M1221 270C1217.86 268.871 1214.84 268.751 1212 270L1212.93 261.963C1212.89 260.959 1213.25 259.983 1213.93 259.242C1214.61 258.502 1215.55 258.058 1216.56 258.005C1217.57 257.952 1218.57 258.304 1219.32 258.984C1220.08 259.664 1220.53 260.616 1220.59 261.632L1220.59 261.645L1221 270Z" fill="#EDB726"/>
</g>
<path d="M1237.79 293.756L1175.84 269.963C1173.51 269.07 1170.9 270.231 1170.01 272.557C1169.12 274.882 1170.28 277.492 1172.61 278.385L1234.56 302.177C1236.89 303.07 1239.5 301.909 1240.39 299.583C1241.28 297.258 1240.12 294.649 1237.79 293.756Z" fill="#C4C8F5"/>
<path d="M1221.15 303.471L1181.71 288.327C1179.39 287.434 1176.78 288.595 1175.88 290.921C1174.99 293.246 1176.15 295.856 1178.48 296.749L1217.91 311.893C1220.24 312.786 1222.85 311.625 1223.74 309.299C1224.63 306.974 1223.47 304.364 1221.15 303.471Z" fill="#C4C8F5"/>
<path d="M1232.35 242.919C1234.14 238.24 1239.39 235.903 1244.07 237.7C1248.75 239.496 1251.09 244.748 1249.29 249.427C1247.5 254.106 1242.25 256.443 1237.57 254.646C1232.89 252.85 1230.55 247.598 1232.35 242.919Z" fill="#EDB726" stroke="white"/>
<path d="M1242.85 240.877L1243.28 244.643L1246.75 246.553L1243.16 247.978L1242.46 251.666L1239.82 248.781L1235.92 249.152L1237.87 245.944L1236.16 242.486L1240.01 243.385L1242.85 240.877Z" fill="white"/>
</g>
<path opacity="0.3" fill-rule="evenodd" clip-rule="evenodd" d="M1033.52 117H1478.83C1485 117 1490 122.002 1490 128.172V154.705H1022.35V128.172C1022.35 122.002 1027.35 117 1033.52 117Z" fill="white"/>
<path d="M1040.5 142.136C1043.58 142.136 1046.08 139.635 1046.08 136.55C1046.08 133.465 1043.58 130.965 1040.5 130.965C1037.42 130.965 1034.92 133.465 1034.92 136.55C1034.92 139.635 1037.42 142.136 1040.5 142.136Z" fill="#FF6841"/>
<path d="M1074.42 142.136C1077.5 142.136 1080 139.635 1080 136.55C1080 133.465 1077.5 130.965 1074.42 130.965C1071.34 130.965 1068.84 133.465 1068.84 136.55C1068.84 139.635 1071.34 142.136 1074.42 142.136Z" fill="#22DDAB"/>
<path d="M1057.25 142.136C1060.34 142.136 1062.84 139.635 1062.84 136.55C1062.84 133.465 1060.34 130.965 1057.25 130.965C1054.17 130.965 1051.67 133.465 1051.67 136.55C1051.67 139.635 1054.17 142.136 1057.25 142.136Z" fill="#EDB726"/>
<path fill-rule="evenodd" clip-rule="evenodd" d="M1068.42 265.025C1068.42 266.721 1067.4 268.249 1065.83 268.897C1064.27 269.544 1062.46 269.184 1061.27 267.984C1060.07 266.784 1059.71 264.981 1060.36 263.415C1061.02 261.85 1062.55 260.832 1064.24 260.836C1066.55 260.841 1068.42 262.715 1068.42 265.025Z" fill="#60D6E6"/>
<path fill-rule="evenodd" clip-rule="evenodd" d="M1052.8 313.543L1116.08 329.957L1145 277.593L1156.36 281.885C1156.36 281.885 1136.21 338.347 1130.23 348.577C1124.25 358.808 1050.27 339.841 1050.27 339.841L1052.8 313.543Z" fill="#29D3A3"/>
<path fill-rule="evenodd" clip-rule="evenodd" d="M1045.55 460.53L1059.56 568.494L1044.69 693.344C1044.69 693.344 1049.64 699.008 1056.35 697.746C1060.41 696.973 1064.31 695.483 1067.85 693.344C1067.85 693.344 1084.04 588.11 1087.55 568.494C1091.06 548.877 1092.15 464.296 1092.15 464.296L1045.55 460.53Z" fill="#263238"/>
<path d="M1087.96 278.99C1083.36 278.99 1079.59 274.292 1079.59 268.516C1079.59 262.741 1083.32 258.043 1087.96 258.043C1092.6 258.043 1096.34 262.741 1096.34 268.516C1096.34 274.292 1092.56 278.99 1087.96 278.99ZM1087.96 259.06C1083.93 259.06 1080.63 263.3 1080.63 268.516C1080.63 273.733 1083.9 277.973 1087.96 277.973C1092.02 277.973 1095.29 273.733 1095.29 268.516C1095.29 263.3 1091.98 259.06 1087.96 259.06Z" fill="#3C3F3F"/>
<path d="M1108.2 280.386C1103.95 280.386 1100.53 276.007 1100.53 270.611C1100.53 265.215 1103.97 260.836 1108.2 260.836C1112.43 260.836 1115.88 265.226 1115.88 270.611C1115.88 275.996 1112.44 280.386 1108.2 280.386ZM1108.2 261.884C1104.55 261.884 1101.59 265.802 1101.59 270.611C1101.59 275.42 1104.55 279.339 1108.2 279.339C1111.84 279.339 1114.82 275.431 1114.82 270.611C1114.82 265.792 1111.85 261.884 1108.2 261.884Z" fill="#3C3F3F"/>
<path fill-rule="evenodd" clip-rule="evenodd" d="M1089.36 289.717L1088.94 305.013C1088.94 305.013 1087.17 308.715 1076.07 309.694C1072.52 309.881 1069.04 308.642 1066.42 306.257L1064.23 281.783L1089.36 289.717Z" fill="#FBAD83"/>
<path fill-rule="evenodd" clip-rule="evenodd" d="M1089.36 291.645L1088.77 302.607C1087.78 302.837 1086.75 302.742 1085.81 302.335C1080.73 300.236 1081.35 294.215 1078.19 283.179L1089.36 291.645Z" fill="#E68D5C"/>
<path fill-rule="evenodd" clip-rule="evenodd" d="M1106.61 245.413C1106.61 245.413 1109.19 271.296 1105.58 283.875C1101.98 296.454 1090.74 301.723 1080.83 299.404C1077.15 298.545 1063.81 283.398 1062.12 264.68C1060.43 245.962 1062.05 240.319 1065.06 236.354C1068.07 232.389 1095.44 227.471 1100.42 231.798C1105.4 236.126 1106.61 245.413 1106.61 245.413Z" fill="#FBAD83"/>
<path fill-rule="evenodd" clip-rule="evenodd" d="M1062.22 231.83C1062.22 231.83 1056.81 237.986 1057.28 253.458C1057.75 268.931 1061.31 280.309 1065.82 285.029C1070.32 289.748 1085.9 289.533 1090.72 286.947C1095.53 284.362 1104.28 274.409 1103.8 268.479C1103.6 265.935 1103.35 262.621 1103.14 259.676C1102.84 255.52 1105.63 251.761 1109.73 250.801L1111.63 250.36C1111.63 250.36 1112.82 235.113 1104.52 228.814C1096.22 222.514 1086.25 222.011 1076.29 224.597C1066.33 227.182 1062.22 231.83 1062.22 231.83Z" fill="#3C3F3F"/>
<path fill-rule="evenodd" clip-rule="evenodd" d="M1090.76 274.652C1090.76 278.43 1095.78 281.783 1098.86 281.783C1101.94 281.783 1101.92 278.43 1101.92 274.652C1101.92 270.874 1099.43 267.818 1096.35 267.818C1093.26 267.818 1090.76 270.874 1090.76 274.652Z" fill="#FBAD83"/>
<path fill-rule="evenodd" clip-rule="evenodd" d="M1092.27 273.515C1092.67 271.579 1095.7 270.356 1097.36 270.656C1099.02 270.957 1094.68 272.08 1094.28 273.993C1093.89 275.906 1096.2 277.863 1094.55 277.563C1092.79 277.009 1091.79 275.229 1092.27 273.515Z" fill="#E68D5C"/>
<path fill-rule="evenodd" clip-rule="evenodd" d="M1082.38 243.37C1082.38 252.126 1077.11 260.022 1069.03 263.375C1060.94 266.728 1051.63 264.877 1045.44 258.685C1039.25 252.493 1037.4 243.181 1040.75 235.092C1044.1 227.003 1052 221.731 1060.75 221.735C1072.7 221.735 1082.38 231.421 1082.38 243.37Z" fill="#3C3F3F"/>
<path d="M1114.48 267.818H1099.13V269.215H1114.48V267.818Z" fill="#3C3F3F"/>
<path fill-rule="evenodd" clip-rule="evenodd" d="M1217.79 342.037L1224.87 335.369L1240.91 339.462C1240.91 339.462 1242.45 332.868 1244.34 331.507C1246.23 330.146 1249.89 330.832 1249.89 330.832C1249.89 330.832 1247.43 342.121 1245.77 346.141C1244.11 350.161 1229.92 351.416 1227.55 351.047C1226.39 350.777 1225.18 350.977 1224.16 351.606L1217.79 342.037Z" fill="#FBAD83"/>
<path fill-rule="evenodd" clip-rule="evenodd" d="M1121.43 438.187H1047.84C1046.45 438.187 1043.38 444.99 1044.69 456.47L1085.62 462.851L1125.91 484.255C1122.86 459.074 1121.43 438.187 1121.43 438.187Z" fill="#434748"/>
<path fill-rule="evenodd" clip-rule="evenodd" d="M1046.45 438.187C1046.45 438.187 1041.94 450.08 1047.35 467.536C1051.24 480.034 1072.2 481.283 1072.2 481.283L1106.23 576.204L1101.82 692.985C1101.82 692.985 1112.73 699.89 1120.27 697.38L1127.83 694.87C1127.83 694.87 1135.98 581.162 1135.4 568.06C1134.81 554.958 1120.27 438.197 1120.27 438.197L1046.45 438.187Z" fill="#263238"/>
<path fill-rule="evenodd" clip-rule="evenodd" d="M1089.4 304.126L1116.67 315.098L1129.84 439.594C1129.84 439.594 1064.6 464.706 1040.5 439.594L1047.3 322.409C1047.62 316.446 1051.44 311.229 1057.05 309.079L1066.83 305.336L1089.4 304.126Z" fill="#22DDAB"/>
<path opacity="0.9" fill-rule="evenodd" clip-rule="evenodd" d="M1075.09 348.59C1075.26 349.493 1075.34 350.395 1075.33 351.283C1077.55 351.883 1079.37 353.136 1080.79 355.053C1082.42 357.299 1083.01 359.794 1082.57 362.533C1082.14 365.259 1080.79 367.437 1078.54 369.059C1076.27 370.684 1073.75 371.272 1070.99 370.828C1068.23 370.385 1066.04 369.042 1064.42 366.79C1062.77 364.535 1062.16 362.051 1062.6 359.325C1062.66 358.957 1062.74 358.592 1062.83 358.241C1062.94 357.804 1063.06 357.377 1063.21 356.958C1063.82 355.444 1064.68 354.085 1065.8 352.895C1066.97 351.688 1068.35 350.718 1069.95 349.983C1071.56 349.244 1073.27 348.777 1075.09 348.59ZM1073.43 357.812C1073.83 357.192 1074.16 356.548 1074.43 355.88C1075.45 356.243 1076.3 356.878 1076.96 357.798C1077.84 358.994 1078.15 360.325 1077.92 361.791C1077.68 363.257 1076.97 364.422 1075.76 365.284C1074.55 366.171 1073.19 366.491 1071.71 366.254C1070.23 366.016 1069.06 365.289 1068.19 364.068C1067.89 363.662 1067.65 363.246 1067.48 362.81C1068.35 362.431 1069.17 361.954 1069.94 361.393C1071.38 360.415 1072.55 359.226 1073.43 357.812ZM1069.94 357.041C1070.25 356.65 1070.54 356.247 1070.78 355.839C1071.43 354.759 1071.84 353.621 1072 352.413C1070.38 353.092 1069 354.126 1067.88 355.507C1067.87 355.531 1067.85 355.554 1067.83 355.576C1066.7 356.981 1066.01 358.522 1065.79 360.202C1066.35 359.953 1066.88 359.667 1067.39 359.338C1068.35 358.718 1069.2 357.953 1069.94 357.041Z" fill="#F5F8FA"/>
<path fill-rule="evenodd" clip-rule="evenodd" d="M1092.15 449.464C1104.53 447.432 1118.08 444.005 1129.84 439.594L1120.07 343.979L1101.04 340.434L1092.15 449.464Z" fill="#29D3A3"/>
<path fill-rule="evenodd" clip-rule="evenodd" d="M1116.67 315.098L1165.03 365.298L1218.65 340.293C1220.71 342.485 1222.4 344.989 1223.67 347.711L1226.16 352.729C1226.16 352.729 1173.21 384.153 1162.22 387.759C1151.24 391.365 1092.15 331.092 1092.15 331.092L1116.67 315.098Z" fill="#22DDAB"/>
<path fill-rule="evenodd" clip-rule="evenodd" d="M1146.59 278.135C1146.59 278.135 1147.08 269.991 1150.89 265.082C1154.7 260.173 1157.78 259.439 1157.78 259.439L1155.24 270.105C1155.24 270.105 1154.64 271.645 1157.12 271.779C1159.59 271.913 1159.85 266.953 1162.86 266.477C1165.87 266.002 1166.14 266.477 1166.14 266.477C1166.14 266.477 1163.05 273.929 1160.52 276.616C1158 279.303 1155.97 281.783 1155.97 281.783L1146.59 278.135Z" fill="#FBAD82"/>
<path fill-rule="evenodd" clip-rule="evenodd" d="M1105.18 689.55L1103.32 723.066H1153.57C1153.57 717.899 1150.2 713.322 1145.23 711.736L1124.26 705.055L1124.96 689.55H1105.18Z" fill="#2F3233"/>
<path fill-rule="evenodd" clip-rule="evenodd" d="M1048.65 690.947L1043.29 714.113L1064.05 723.066H1087.96C1087.96 719.21 1085.4 715.803 1081.65 714.659L1069.78 711.038L1065.65 692.222L1048.65 690.947Z" fill="#2F3233"/>
<path d="M763.903 728.325C752.995 726.267 743.34 677.124 764.801 652.922C772.154 644.629 781.326 641.02 793.526 637.661C863.747 618.329 917.306 636.753 924.504 641.252C931.685 645.74 944.274 713.367 928.176 722.939C919.118 728.325 901.164 731.018 892.269 724.735C879.18 715.489 901.15 691.506 891.371 675.363C880.275 657.044 821.843 650.874 792.547 669.079C761.292 688.503 825.761 739.995 763.903 728.325Z" fill="#3D49E3"/>
<path d="M836.834 640.523H795.161C784.874 630.664 777.519 621.162 783.408 613.275C783.408 611.008 784.308 608.834 785.911 607.231C787.514 605.627 789.689 604.727 791.956 604.727H840.04C842.307 604.727 844.481 605.627 846.085 607.231C847.688 608.834 848.588 611.008 848.588 613.275C850.83 622.262 846.825 631.346 836.834 640.523Z" fill="#808BFF"/>
<path d="M829.35 593.965C828.954 593.984 828.563 593.88 828.229 593.668C827.894 593.456 827.633 593.147 827.48 592.782C827.328 592.417 827.291 592.013 827.375 591.627C827.459 591.24 827.66 590.888 827.951 590.62L828.083 590.094C828.066 590.052 828.048 590.009 828.031 589.967C827.632 589.027 826.965 588.224 826.112 587.662C825.259 587.099 824.259 586.801 823.237 586.804C822.216 586.808 821.218 587.114 820.369 587.683C819.521 588.252 818.859 589.059 818.468 590.003C816.904 593.77 814.913 597.543 814.422 601.526C814.206 603.286 814.298 605.071 814.692 606.8C811.018 598.787 809.111 590.078 809.098 581.263C809.098 579.051 809.22 576.841 809.466 574.642C809.67 572.84 809.952 571.051 810.313 569.274C812.282 559.635 816.509 550.601 822.647 542.913C825.618 541.292 828.021 538.799 829.532 535.77C830.079 534.681 830.466 533.519 830.68 532.32C830.345 532.364 829.416 527.259 829.669 526.946C829.202 526.238 828.366 525.885 827.856 525.194C825.319 521.754 821.824 522.355 819.999 527.029C816.101 528.996 816.063 532.259 818.455 535.397C819.977 537.393 820.186 540.094 821.521 542.231C821.384 542.407 821.241 542.578 821.103 542.753C818.592 545.982 816.404 549.449 814.569 553.105C815.016 549.009 814.483 544.867 813.016 541.017C811.529 537.43 808.741 534.408 806.287 531.307C803.338 527.582 797.292 529.207 796.773 533.93C796.768 533.976 796.763 534.021 796.758 534.067C797.123 534.273 797.48 534.491 797.829 534.722C798.268 535.015 798.607 535.434 798.804 535.923C799.001 536.413 799.045 536.95 798.931 537.466C798.817 537.981 798.55 538.449 798.165 538.81C797.78 539.171 797.295 539.407 796.773 539.487L796.72 539.495C796.85 540.809 797.079 542.112 797.407 543.391C794.258 555.569 801.056 560.004 810.763 560.203C810.977 560.313 811.186 560.423 811.401 560.527C809.557 565.751 808.401 571.192 807.961 576.714C807.712 579.971 807.727 583.244 808.005 586.499L807.989 586.384C807.285 582.764 805.354 579.498 802.522 577.137C798.315 573.681 792.371 572.408 787.832 569.63C787.35 569.321 786.789 569.155 786.216 569.154C785.643 569.153 785.081 569.315 784.597 569.622C784.113 569.93 783.727 570.369 783.485 570.888C783.243 571.408 783.154 571.986 783.229 572.554C783.235 572.595 783.241 572.635 783.248 572.675C783.924 572.951 784.583 573.268 785.22 573.626C785.585 573.832 785.942 574.05 786.291 574.281C786.73 574.574 787.069 574.993 787.266 575.482C787.463 575.972 787.507 576.509 787.393 577.024C787.279 577.54 787.012 578.008 786.627 578.369C786.242 578.73 785.757 578.966 785.235 579.046L785.182 579.054C785.143 579.06 785.11 579.065 785.072 579.071C786.228 581.831 787.85 584.372 789.868 586.581C791.837 597.212 800.294 598.221 809.34 595.125H809.346C810.338 599.438 811.776 603.636 813.637 607.652H828.966C829.021 607.482 829.07 607.306 829.12 607.136C827.701 607.225 826.276 607.14 824.878 606.883C826.015 605.487 827.153 604.081 828.29 602.685C828.315 602.659 828.339 602.632 828.361 602.603C828.938 601.889 829.521 601.18 830.098 600.466L830.098 600.465C830.129 598.275 829.877 596.091 829.35 593.965Z" fill="#808BFF"/>
<path d="M881.633 638.29C881.888 639.03 882.37 639.671 883.011 640.12C883.652 640.569 884.419 640.803 885.202 640.789L900.489 640.396C901.278 640.38 902.04 640.11 902.662 639.626C903.284 639.142 903.733 638.469 903.941 637.708L906.104 614.575C906.872 614.923 907.707 615.094 908.55 615.077C910.028 615.04 911.431 614.418 912.45 613.346C913.469 612.275 914.021 610.842 913.983 609.364C913.946 607.886 913.323 606.483 912.252 605.464C911.181 604.445 909.748 603.893 908.27 603.93C907.933 603.929 907.597 603.964 907.268 604.035C906.91 603.647 906.475 603.339 905.99 603.13C905.506 602.921 904.983 602.816 904.455 602.821L880.939 603.428C880.744 603.435 880.55 603.459 880.359 603.5C879.843 603.596 879.354 603.802 878.925 604.103C878.495 604.404 878.135 604.793 877.868 605.245C877.602 605.697 877.435 606.201 877.38 606.723C877.325 607.244 877.381 607.772 877.547 608.269L881.633 638.29ZM906.548 613.004L908.087 607.492C908.262 606.855 908.266 606.183 908.099 605.544C908.174 605.544 908.24 605.509 908.314 605.508C909.37 605.487 910.391 605.885 911.153 606.614C911.916 607.344 912.358 608.347 912.383 609.402C912.407 610.457 912.013 611.479 911.285 612.244C910.557 613.009 909.556 613.454 908.501 613.482C907.819 613.503 907.143 613.338 906.548 613.004Z" fill="#808BFF"/>
<path d="M880.359 603.5C880.86 606.365 886.493 608.379 893.266 608.029C899.494 607.742 904.587 605.555 905.52 602.963C905.175 602.861 904.816 602.813 904.456 602.821L880.939 603.428C880.744 603.435 880.55 603.459 880.359 603.5Z" fill="#3740C7"/>
<path opacity="0.2" d="M1397.22 546.827C1400.62 543.924 1403.57 540.614 1406 536.986C1411.14 529.601 1419.74 525.624 1425.64 523.642V521.239H1425.28L1425.44 519.013H1425.28L1425.7 513.122L1427.79 483.692C1427.79 483.692 1435.37 463.968 1422 445.914C1408.63 427.859 1421.17 410.538 1433.73 403.764C1433.73 403.764 1439.67 375.163 1434.56 368.389C1441.39 364.767 1448.44 361.491 1455.66 358.575C1455.77 358.222 1455.87 357.86 1455.97 357.489C1456.1 354.774 1456.28 352.154 1456.45 349.493C1456.27 348.119 1456 346.759 1455.61 345.421C1455.45 344.864 1455.27 344.294 1455.08 343.71C1442.77 339.348 1434.63 328.546 1434.56 316.48C1434.56 313.032 1435.24 309.611 1436.56 306.38C1435.9 305.379 1435.4 304.301 1435.07 303.177C1434.41 299.928 1435.12 296.572 1437.06 293.783C1440.39 286.996 1448.78 280.792 1454.89 278.525C1463.6 275.267 1476.74 276.041 1485.81 277.032C1490.91 277.588 1496.73 279.163 1498.57 283.466C1499.06 285.096 1499.45 286.751 1499.73 288.421C1501.63 294.991 1509.88 298.059 1514.97 303.082C1519.43 307.52 1521.45 313.52 1522.9 319.371C1527.08 336.136 1528.09 353.432 1525.87 370.507C1525.35 374.443 1524.67 378.353 1523.94 382.262C1527 386.199 1529.77 393.122 1528.5 405.339L1538.56 448.995L1542.75 474.583C1543.9 481.844 1541.08 489.158 1535.2 494.158C1528.78 499.914 1521 509.647 1516.2 515.959C1518.29 521.541 1519.33 527.407 1519.26 533.307C1519.16 536.022 1519 538.588 1518.79 541.058C1518.36 546.266 1517.28 551.412 1515.58 556.397C1514.41 566.904 1512.07 580.343 1507.53 588.977L1505.85 634.886C1505.85 634.886 1508.36 677.035 1513.4 685.316C1518.43 693.596 1502.49 763.6 1502.49 763.6V773.388L1505.18 780.555L1505.85 780.094C1518.43 794.401 1505.85 799.668 1505.85 799.668C1505.85 799.668 1502.43 799.817 1496.94 800.008C1497.9 804.125 1495.69 808.316 1491.58 810.202C1491.58 810.202 1420.28 813.216 1407.71 810.202C1395.14 807.188 1398.48 796.627 1405.2 797.401C1408.6 797.51 1411.99 797.102 1415.24 796.193C1411.32 791.999 1414.45 786.311 1419.44 786.867C1426.16 787.614 1441.25 782.157 1441.25 782.157V782.252C1441.73 782.085 1442.23 781.949 1442.73 781.845C1448.34 780.679 1453.88 779.252 1459.33 777.569C1462.57 771.229 1470.02 754.18 1464.67 740.917C1462.25 734.944 1461.47 726.99 1461.47 719.279C1461.34 696.032 1457.62 672.917 1450.43 650.619L1440.37 619.031C1440.37 619.031 1426.11 580.642 1425.28 570.162L1425.4 554.796C1413.61 561.732 1404.25 559.628 1398.26 556.411C1396.44 555.463 1395.24 553.769 1395.03 551.865C1394.83 549.961 1395.64 548.083 1397.22 546.827ZM1509.15 466.981C1508.87 465.882 1508.63 464.674 1508.42 463.411C1506.44 463.411 1504.46 463.411 1502.48 463.411C1500.02 468.007 1499 473.129 1499.51 478.221C1504.05 476.864 1510.86 473.633 1509.15 466.981Z" fill="url(#paint0_linear_321_869)"/>
<path d="M1448.13 371.872C1448.13 371.872 1486.08 375.402 1480.53 361.297C1478.99 357.3 1478.59 353.023 1479.37 348.853C1480.35 343.681 1482.65 338.777 1486.08 334.515L1450.5 339.446C1452.63 342.624 1454.25 346.053 1455.32 349.632C1459.55 364.593 1448.13 371.872 1448.13 371.872Z" fill="#CD7544"/>
<path d="M1512.64 540.426C1512.64 540.426 1511.8 572.104 1503.26 587.576L1501.55 632.517C1501.55 632.517 1504.1 673.769 1509.2 681.878C1514.3 689.987 1498.16 758.496 1498.16 758.496V770.281C1498.16 770.281 1471 779.095 1463.31 768.789L1470.96 681.119L1467.56 559.56L1512.64 540.426Z" fill="#263238"/>
<path opacity="0.2" d="M1512.64 540.426C1512.64 540.426 1511.8 572.104 1503.26 587.576L1501.55 632.517C1501.55 632.517 1504.1 673.769 1509.2 681.878C1514.3 689.987 1498.16 758.496 1498.16 758.496V770.281C1498.16 770.281 1471 779.095 1463.31 768.789L1470.96 681.119L1467.56 559.56L1512.64 540.426Z" fill="#263238"/>
<path d="M1530.06 437.47L1534.91 449.131L1538.96 473.916C1540.07 480.92 1537.36 487.976 1531.68 492.863C1521.97 501.612 1509.03 519.835 1509.03 519.835L1493.67 478.236C1493.67 478.236 1509.03 476.049 1506.61 466.576C1504.18 457.102 1504.98 439.604 1504.98 439.604L1530.06 437.47Z" fill="#FDCC4B"/>
<path opacity="0.05" d="M1530.06 437.47L1534.91 449.131L1538.96 473.916C1540.07 480.92 1537.36 487.976 1531.68 492.863C1521.97 501.612 1509.03 519.835 1509.03 519.835L1493.67 478.236C1493.67 478.236 1509.03 476.049 1506.61 466.576C1504.18 457.102 1504.98 439.604 1504.98 439.604L1530.06 437.47Z" fill="black"/>
<path d="M1425.36 567.619C1426.17 577.98 1440 615.696 1440 615.696L1449.74 646.74C1456.73 668.691 1460.34 691.42 1460.46 714.274C1460.46 721.844 1461.22 729.659 1463.57 735.528C1470.08 751.866 1457.06 773.992 1457.06 773.992C1468.45 792.482 1487.95 779.915 1487.95 779.915V768.083C1487.95 768.083 1503.39 703.735 1499.34 691.154C1495.28 678.573 1493.65 644.547 1493.65 644.547V583.154C1506.68 571.346 1514.6 555.668 1515.96 538.985C1516.16 536.561 1516.31 534.015 1516.41 531.374C1517.07 514.681 1504.53 495.115 1499.64 488.144C1498.45 486.456 1497.72 485.516 1497.72 485.516L1425.89 511.386H1425.72V513.918V519.514L1425.36 567.619Z" fill="#263238"/>
<path opacity="0.1" d="M1451.92 339.516C1453.97 342.74 1455.53 346.218 1456.55 349.848C1464.04 352.532 1472.37 352.247 1479.64 349.058C1480.58 343.812 1482.79 338.838 1486.08 334.515L1451.92 339.516Z" fill="black"/>
<path d="M1465.21 348.242C1447.39 348.242 1432.95 335.182 1432.95 319.072C1432.95 302.961 1447.39 289.901 1465.21 289.901C1483.02 289.901 1497.46 302.961 1497.46 319.072C1497.46 335.182 1483.02 348.242 1465.21 348.242Z" fill="#CD7544"/>
<path opacity="0.1" d="M1425.36 519.015H1425.72C1460.89 525.289 1505.05 493.465 1505.05 493.465C1503.86 491.752 1502.83 489.959 1501.96 488.103C1500.74 486.441 1499.99 485.516 1499.99 485.516L1425.87 510.986L1425.69 513.533L1425.36 519.015Z" fill="black"/>
<path d="M1435.34 368.829C1435.34 368.829 1480.53 343.889 1495.06 354.151L1515.23 377.619C1515.23 377.619 1528.14 381.292 1525.72 404.759L1535.41 447.306L1506.35 453.909C1506.35 453.909 1489.4 468.587 1503.13 489.853C1503.13 489.853 1460.36 522.125 1426.46 515.508L1428.95 481.063C1428.95 481.063 1436.22 461.997 1423.31 444.39C1410.4 426.782 1422.51 409.917 1434.61 403.315C1434.52 403.315 1440.18 375.431 1435.34 368.829Z" fill="#FDCC4B"/>
<path d="M1431.93 519.834C1431.93 519.834 1414.33 522.867 1405.95 535.024C1403.53 538.673 1400.57 542.01 1397.17 544.945C1395.62 546.224 1394.83 548.09 1395.03 549.979C1395.23 551.868 1396.41 553.56 1398.2 554.544C1404.85 558.164 1415.7 560.399 1429.4 550.199C1452.88 532.746 1431.93 519.834 1431.93 519.834Z" fill="#CD7544"/>
<path opacity="0.1" d="M1457.41 386.549C1457.41 386.549 1474.05 385.064 1478.2 423.554C1482.35 462.044 1489.01 470.927 1489.01 470.927C1489.01 470.927 1493.17 490.914 1483.19 502.754C1473.21 514.594 1454.11 539.759 1454.11 539.759C1454.11 539.759 1433.32 544.936 1429.15 526.434L1454.93 483.503C1454.93 483.503 1459.1 468.693 1449.12 458.338C1439.13 447.983 1431.63 379.138 1457.41 386.549Z" fill="black"/>
<path d="M1453.62 383.117C1453.62 383.117 1470.26 381.632 1474.41 420.122C1478.56 458.612 1485.22 467.495 1485.22 467.495C1485.22 467.495 1489.38 487.482 1479.4 499.322C1469.42 511.162 1450.31 536.327 1450.31 536.327C1450.31 536.327 1429.52 541.505 1425.36 523.002L1451.14 480.071C1451.14 480.071 1455.29 465.274 1445.32 454.96C1435.36 444.646 1427.84 375.705 1453.62 383.117Z" fill="#FDCC4B"/>
<path opacity="0.1" d="M1444.49 410.016C1444.49 410.016 1442.85 432.578 1450.2 444.958C1457.56 457.338 1457.56 473.349 1450.2 482.084" fill="black"/>
<path opacity="0.1" d="M1436.74 382.561C1436.74 382.561 1443.39 376.098 1462.47 375.296C1481.56 374.494 1489.87 368.833 1489.87 368.833" fill="black"/>
<path opacity="0.1" d="M1484.99 283.879C1489.88 284.435 1495.47 285.968 1497.24 290.175C1497.71 291.774 1498.08 293.395 1498.35 295.032C1500.18 301.477 1508.1 304.53 1512.99 309.388C1517.31 313.73 1519.21 319.605 1520.62 325.345C1524.63 341.775 1525.59 358.705 1523.45 375.426C1521.88 387.638 1518.66 399.687 1517.77 411.967C1516.88 424.246 1518.51 437.164 1525.85 447.476C1529.01 451.913 1533.17 455.807 1535.41 460.692C1530.78 464.124 1524.42 464.613 1518.45 464.762C1511.53 464.979 1504.61 464.979 1497.68 464.762C1494.05 464.654 1490.27 464.437 1487.11 462.754C1484.79 461.402 1482.88 459.535 1481.56 457.327C1477.6 451.166 1476.59 443.758 1476.77 436.634C1476.95 429.511 1478.18 422.401 1478.25 415.25C1478.32 411.356 1478 407.231 1475.55 404.043C1473.79 401.736 1471.1 400.189 1468.8 398.33C1460.17 391.342 1457.22 380.121 1456.93 369.578C1456.65 359.036 1458.55 348.479 1457.57 337.977C1457.19 333.906 1455.51 328.927 1451.09 328.126C1449.67 328.073 1448.26 327.91 1446.88 327.638C1443.33 326.389 1443.67 321.817 1442.66 318.465C1441.52 314.707 1438.02 311.803 1437.03 308.004C1434.71 299.089 1447.11 288.438 1455.24 285.331C1463.59 282.142 1476.2 282.916 1484.99 283.879Z" fill="black"/>
<path d="M1484.99 280.453C1489.88 281.009 1495.47 282.542 1497.24 286.748C1497.71 288.347 1498.08 289.969 1498.35 291.606C1500.18 298.05 1508.1 301.103 1512.99 305.961C1517.31 310.303 1519.21 316.178 1520.62 321.917C1524.63 338.346 1525.59 355.277 1523.45 371.997C1521.88 384.209 1518.66 396.257 1517.77 408.536C1516.88 420.816 1518.51 433.733 1525.85 444.044C1529.01 448.481 1533.17 452.375 1535.41 457.26C1530.78 460.693 1524.42 461.181 1518.45 461.33C1511.53 461.547 1504.61 461.547 1497.68 461.33C1494.05 461.222 1490.27 461.005 1487.11 459.322C1484.79 457.97 1482.88 456.103 1481.56 453.895C1477.6 447.735 1476.59 440.327 1476.77 433.203C1476.95 426.08 1478.18 418.97 1478.25 411.82C1478.32 407.926 1478 403.801 1475.55 400.613C1473.79 398.306 1471.1 396.759 1468.8 394.9C1460.17 387.913 1457.22 376.692 1456.93 366.149C1456.65 355.607 1458.55 345.051 1457.57 334.549C1457.19 330.479 1455.51 325.499 1451.09 324.698C1449.67 324.646 1448.26 324.482 1446.88 324.21C1443.33 322.962 1443.67 318.389 1442.66 315.038C1441.52 311.28 1438.02 308.376 1437.03 304.577C1434.71 295.662 1447.11 285.011 1455.24 281.904C1463.65 278.716 1476.26 279.476 1484.99 280.453Z" fill="#2F3233"/>
<g opacity="0.5">
<path d="M6.77596 603.709C6.77596 603.709 -69.9479 650.525 71.4843 722.598C71.4843 722.598 102.648 664.089 68.1976 616.386C54.3532 597.141 28.4651 591.406 7.9336 603.037L6.77596 603.709Z" fill="#C4C8F5"/>
<path d="M6.35938 603.828C6.35938 603.828 72.6106 654.16 70.7983 722.598" stroke="#808BFF"/>
<path d="M100.047 722.598C100.047 722.598 75.6776 640.682 104.578 580.489C116.88 555.294 120.59 526.831 115.151 499.373C112.464 486.359 108.577 473.616 103.54 461.303" stroke="#808BFF" stroke-width="2"/>
<path d="M120.97 425.302C120.97 435.406 102.313 464.697 102.313 464.697C102.313 464.697 83.6562 435.406 83.6562 425.302C83.6562 415.198 92.0124 407.008 102.32 407.008C112.628 407.008 120.984 415.198 120.984 425.302H120.97Z" fill="#C4C8F5"/>
<path d="M151.902 479.099C146.266 487.505 114.195 502.025 114.195 502.025C114.195 502.025 114.774 467.79 120.411 459.398C124.054 453.961 130.422 450.815 137.116 451.147C143.809 451.478 149.812 455.236 152.862 461.004C155.912 466.773 155.546 473.676 151.902 479.113V479.099Z" fill="#C4C8F5"/>
<path d="M148.097 574.225C138.942 578.803 104.016 575.575 104.016 575.575C104.016 575.575 122.216 545.864 131.37 541.326C140.529 536.754 151.698 540.397 156.317 549.463C160.936 558.529 157.256 569.585 148.097 574.157V574.225Z" fill="#C4C8F5"/>
<path d="M133.792 646.218C125.579 652.08 90.4434 654.729 90.4434 654.729C90.4434 654.729 103.351 623.37 111.632 617.508C116.984 613.715 124.041 612.946 130.145 615.491C136.25 618.036 140.473 623.508 141.225 629.846C141.978 636.184 139.144 642.425 133.792 646.218Z" fill="#C4C8F5"/>
<path d="M75.7736 501.778C83.1587 508.565 117.59 515.598 117.59 515.598C117.59 515.598 109.164 483.217 101.765 476.482C96.9851 472.086 90.0873 470.434 83.6701 472.15C77.2528 473.865 72.291 478.686 70.6538 484.798C69.0165 490.909 70.9525 497.382 75.7325 501.778H75.7736Z" fill="#C4C8F5"/>
<path d="M56.5418 587.799C65.6964 592.377 100.623 589.149 100.623 589.149C100.623 589.149 82.4231 559.437 73.2684 554.9C64.1097 550.327 52.9406 553.97 48.3217 563.037C43.7028 572.103 47.383 583.159 56.5418 587.731V587.799Z" fill="#C4C8F5"/>
<path d="M47.0952 673.365C55.3076 679.228 90.4426 681.877 90.4426 681.877C90.4426 681.877 77.5356 650.519 69.2548 644.656C60.9813 638.793 49.3136 640.466 43.1944 648.394C37.0752 656.322 38.8216 667.502 47.0952 673.365Z" fill="#C4C8F5"/>
<path d="M120.97 425.302C120.97 435.406 102.313 464.697 102.313 464.697C102.313 464.697 83.6562 435.406 83.6562 425.302C83.6562 415.198 92.0124 407.008 102.32 407.008C112.628 407.008 120.984 415.198 120.984 425.302H120.97Z" fill="#3740C7"/>
<path d="M151.902 479.099C146.266 487.505 114.195 502.025 114.195 502.025C114.195 502.025 114.774 467.79 120.411 459.398C124.054 453.961 130.422 450.815 137.116 451.147C143.809 451.478 149.812 455.236 152.862 461.004C155.912 466.773 155.546 473.676 151.902 479.113V479.099Z" fill="#3740C7"/>
<path d="M148.097 574.225C138.942 578.803 104.016 575.575 104.016 575.575C104.016 575.575 122.216 545.864 131.37 541.326C140.529 536.754 151.698 540.397 156.317 549.463C160.936 558.529 157.256 569.585 148.097 574.157V574.225Z" fill="#3740C7"/>
<path d="M133.792 646.218C125.579 652.08 90.4434 654.729 90.4434 654.729C90.4434 654.729 103.351 623.37 111.632 617.508C116.984 613.715 124.041 612.946 130.145 615.491C136.25 618.036 140.473 623.508 141.225 629.846C141.978 636.184 139.144 642.425 133.792 646.218Z" fill="#3740C7"/>
<path d="M75.7736 501.778C83.1587 508.565 117.59 515.598 117.59 515.598C117.59 515.598 109.164 483.217 101.765 476.482C96.9851 472.086 90.0873 470.434 83.6701 472.15C77.2528 473.865 72.291 478.686 70.6538 484.798C69.0165 490.909 70.9525 497.382 75.7325 501.778H75.7736Z" fill="#3740C7"/>
<path d="M56.5418 587.799C65.6964 592.377 100.623 589.149 100.623 589.149C100.623 589.149 82.4231 559.437 73.2684 554.9C64.1097 550.327 52.9406 553.97 48.3217 563.037C43.7028 572.103 47.383 583.159 56.5418 587.731V587.799Z" fill="#3740C7"/>
<path d="M47.0952 673.365C55.3076 679.228 90.4426 681.877 90.4426 681.877C90.4426 681.877 77.5356 650.519 69.2548 644.656C60.9813 638.793 49.3136 640.466 43.1944 648.394C37.0752 656.322 38.8216 667.502 47.0952 673.365Z" fill="#3740C7"/>
<path d="M154.319 725.992C154.319 725.992 129.977 644.129 158.886 583.882C171.174 558.688 174.88 530.224 169.447 502.766C166.762 489.752 162.88 477.009 157.848 464.697" stroke="#808BFF" stroke-width="2"/>
<path d="M176.314 429.293C176.314 439.398 157.657 468.689 157.657 468.689C157.657 468.689 139 439.398 139 429.293C139 419.19 147.356 411 157.664 411C167.972 411 176.328 419.19 176.328 429.293H176.314Z" fill="#C4C8F5"/>
<path d="M206.197 479.1C200.561 487.506 168.492 502.025 168.492 502.025C168.492 502.025 169.071 467.792 174.707 459.4C180.34 450.995 191.955 448.595 200.65 454.038C209.346 459.482 211.829 470.709 206.197 479.114V479.1Z" fill="#C4C8F5"/>
<path d="M205.765 577.618C196.615 582.197 161.705 578.969 161.705 578.969C161.705 578.969 179.896 549.251 189.046 544.712C194.98 541.754 202.057 542.156 207.61 545.767C213.164 549.379 216.35 555.651 215.97 562.22C215.589 568.79 211.699 574.66 205.765 577.618Z" fill="#C4C8F5"/>
<path d="M188.085 649.611C179.872 655.474 144.736 658.123 144.736 658.123C144.736 658.123 157.644 626.764 165.925 620.901C171.277 617.108 178.334 616.339 184.438 618.884C190.543 621.429 194.766 626.901 195.518 633.239C196.27 639.577 193.437 645.818 188.085 649.611Z" fill="#C4C8F5"/>
<path d="M130.069 505.172C137.454 511.959 171.885 518.992 171.885 518.992C171.885 518.992 163.459 486.611 156.06 479.875C151.28 475.479 144.382 473.828 137.965 475.543C131.548 477.258 126.586 482.08 124.949 488.191C123.311 494.303 125.247 500.775 130.027 505.172H130.069Z" fill="#C4C8F5"/>
<path d="M114.229 591.192C123.384 595.77 158.311 592.543 158.311 592.543C158.311 592.543 140.111 562.831 130.956 558.293C121.797 553.721 110.628 557.364 106.009 566.43C101.39 575.496 105.071 586.552 114.229 591.125V591.192Z" fill="#C4C8F5"/>
<path d="M104.785 673.365C112.997 679.228 148.132 681.877 148.132 681.877C148.132 681.877 135.225 650.519 126.944 644.656C118.671 638.793 107.003 640.466 100.884 648.394C94.7646 656.322 96.5111 667.502 104.785 673.365Z" fill="#C4C8F5"/>
</g>
<path d="M141 90.6287L240.379 64L273 185.74L173.62 212.369L141 90.6287Z" fill="white"/>
<path d="M143.816 91.2053L239.469 65.5752L271.091 183.588L175.438 209.218L143.816 91.2053Z" fill="#F7F7F7"/>
<path fill-rule="evenodd" clip-rule="evenodd" d="M225.837 80.412C226.131 80.837 226.382 81.281 226.58 81.7391C227.872 81.5325 229.107 81.7533 230.285 82.4084C231.649 83.1828 232.534 84.3248 232.937 85.831C233.339 87.3303 233.143 88.7581 232.349 90.1108C231.545 91.4698 230.374 92.3537 228.836 92.7658C227.305 93.1761 225.859 92.9935 224.494 92.2157C223.118 91.4406 222.232 90.3064 221.83 88.8071C221.776 88.6047 221.732 88.3994 221.698 88.1992C221.653 87.9499 221.62 87.7013 221.599 87.4533C221.567 86.5352 221.702 85.6385 222.007 84.77C222.335 83.8803 222.827 83.0647 223.486 82.3179C224.152 81.5658 224.936 80.9294 225.837 80.412ZM227.099 85.5273C227.165 85.1161 227.188 84.7093 227.173 84.3049C227.787 84.2545 228.374 84.3841 228.932 84.7016C229.662 85.1128 230.133 85.722 230.349 86.5282C230.565 87.3345 230.461 88.0977 230.035 88.8187C229.609 89.5544 228.982 90.0313 228.158 90.2519C227.335 90.4725 226.557 90.3721 225.824 89.9472C225.576 89.8076 225.357 89.6493 225.168 89.4645C225.532 89.0692 225.848 88.6353 226.117 88.1696C226.641 87.3343 226.968 86.4559 227.099 85.5273ZM225.11 85.9389C225.183 85.6655 225.238 85.3935 225.272 85.127C225.357 84.4237 225.307 83.7459 225.116 83.0875C224.428 83.8124 223.953 84.6605 223.69 85.6281C223.69 85.6428 223.687 85.6584 223.68 85.6749C223.414 86.6581 223.416 87.6062 223.687 88.5192C223.922 88.2613 224.132 87.9919 224.318 87.7066C224.673 87.1666 224.939 86.5767 225.11 85.9389Z" fill="#4353FF"/>
<path d="M159.411 109.66C157.94 104.172 161.197 98.5303 166.686 97.0597C172.175 95.589 177.816 98.8462 179.287 104.335C180.757 109.823 177.5 115.465 172.012 116.936C166.523 118.406 160.882 115.149 159.411 109.66Z" fill="#C4C8F5"/>
<mask id="mask1_321_869" style="mask-type:alpha" maskUnits="userSpaceOnUse" x="159" y="96" width="21" height="22">
<path d="M159.411 109.66C157.94 104.172 161.197 98.5303 166.686 97.0597C172.175 95.589 177.816 98.8462 179.287 104.335C180.757 109.823 177.5 115.465 172.012 116.936C166.523 118.406 160.882 115.149 159.411 109.66Z" fill="#C4C8F5"/>
</mask>
<g mask="url(#mask1_321_869)">
<path d="M170 109C167.791 109 166 107.209 166 105C166 102.791 167.791 101 170 101C172.209 101 174 102.791 174 105C174 107.209 172.209 109 170 109Z" fill="#FFB8B8"/>
<path d="M164.136 129H175L174.987 128.916C174.967 128.79 173.051 116.285 174.464 112.194C174.606 111.792 174.594 111.352 174.429 110.959C174.265 110.566 173.96 110.247 173.574 110.064C171.553 109.116 167.675 107.949 164.401 110.781C163.919 111.204 163.543 111.734 163.302 112.327C163.061 112.92 162.962 113.561 163.013 114.199L164.136 129Z" fill="#6C63FF"/>
<path d="M172.594 118L178 117.003L175.466 111.543C175.314 111.014 174.938 110.562 174.42 110.285C173.902 110.008 173.284 109.929 172.702 110.066C172.12 110.202 171.622 110.543 171.316 111.013C171.01 111.484 170.922 112.045 171.071 112.575L172.594 118Z" fill="#6C63FF"/>
<path d="M166.678 119L166.961 112.566C167.176 111.356 166.477 110.213 165.403 110.026C164.329 109.84 163.28 110.679 163.064 111.897L162 117.909L166.678 119Z" fill="#6C63FF"/>
<path d="M167.044 107.605C167.842 108.371 169.324 107.96 169.428 106.914C169.437 106.833 169.436 106.751 169.427 106.67C169.373 106.207 169.076 105.786 169.147 105.297C169.163 105.175 169.213 105.059 169.293 104.96C169.929 104.193 171.422 105.303 172.023 104.609C172.391 104.183 171.958 103.513 172.241 103.037C172.613 102.409 173.718 102.719 174.41 102.375C175.181 101.992 175.134 100.928 174.627 100.28C174.009 99.4908 172.924 99.0695 171.853 99.0088C170.782 98.9481 169.719 99.2088 168.719 99.5596C167.583 99.9582 166.457 100.509 165.758 101.409C164.907 102.502 164.826 103.973 165.251 105.252C165.509 106.03 166.392 106.98 167.044 107.605Z" fill="#2F2E41"/>
</g>
<path d="M171.283 129.114L240.849 110.474L241.847 114.201L172.282 132.841L171.283 129.114Z" fill="#C4C8F5"/>
<path d="M243.181 119.17L173.615 137.81L174.614 141.537L244.179 122.897L243.181 119.17Z" fill="#C4C8F5"/>
<path d="M245.175 126.623L175.609 145.263L176.608 148.99L246.174 130.35L245.175 126.623Z" fill="#C4C8F5"/>
<path d="M177.939 153.959L247.505 135.319L248.504 139.046L178.938 157.686L177.939 153.959Z" fill="#C4C8F5"/>
<path d="M180.27 162.655L249.835 144.015L250.834 147.742L181.268 166.382L180.27 162.655Z" fill="#C4C8F5"/>
<path d="M182.268 170.108L251.833 151.468L252.832 155.195L183.266 173.835L182.268 170.108Z" fill="#C4C8F5"/>
<path d="M254.163 160.164L184.598 178.804L185.596 182.531L255.162 163.891L254.163 160.164Z" fill="#C4C8F5"/>
<path d="M90.0491 229.272C89.3003 228.487 88.8944 227.435 88.9205 226.35C88.9467 225.265 89.4028 224.235 90.1886 223.486L130.682 184.9C131.071 184.529 131.529 184.239 132.03 184.045C132.532 183.852 133.066 183.759 133.604 183.772C134.141 183.785 134.671 183.903 135.162 184.121C135.653 184.338 136.097 184.651 136.468 185.04C136.839 185.429 137.129 185.887 137.323 186.389C137.517 186.89 137.61 187.425 137.597 187.962C137.584 188.499 137.465 189.029 137.247 189.52C137.03 190.012 136.718 190.455 136.328 190.826L95.8353 229.412C95.0495 230.161 93.9984 230.567 92.9133 230.54C91.8282 230.514 90.7979 230.058 90.0491 229.272Z" fill="#EDB726"/>
<path d="M130.542 190.687C126.075 185.999 123.098 180.091 121.988 173.712C120.879 167.332 121.686 160.766 124.307 154.845C126.929 148.923 131.248 143.913 136.717 140.446C142.187 136.979 148.561 135.212 155.035 135.368C161.509 135.524 167.791 137.597 173.087 141.323C178.383 145.049 182.455 150.263 184.788 156.303C187.121 162.344 187.611 168.941 186.195 175.26C184.779 181.579 181.521 187.336 176.832 191.803C170.541 197.785 162.135 201.026 153.457 200.817C144.778 200.608 136.538 196.964 130.542 190.687ZM172.023 151.16C168.673 147.644 164.355 145.2 159.616 144.138C154.876 143.076 149.929 143.443 145.398 145.193C140.868 146.943 136.958 149.997 134.163 153.969C131.368 157.941 129.814 162.653 129.697 167.508C129.579 172.363 130.905 177.144 133.505 181.247C136.105 185.349 139.863 188.588 144.304 190.554C148.745 192.52 153.669 193.125 158.454 192.293C163.239 191.461 167.67 189.228 171.186 185.878C175.894 181.381 178.626 175.2 178.783 168.692C178.94 162.183 176.509 155.878 172.023 151.16Z" fill="#EDB726"/>
<path d="M558.013 560.348C557.913 560.249 557.779 560.193 557.638 560.193C557.498 560.193 557.363 560.249 557.264 560.349L517.612 600.099C517.513 600.198 517.458 600.333 517.458 600.474C517.458 600.614 517.514 600.749 517.613 600.848L547.614 630.774C547.713 630.873 547.848 630.928 547.988 630.928C548.129 630.928 548.263 630.872 548.363 630.773L588.014 591.022C588.113 590.923 588.169 590.788 588.169 590.648C588.168 590.507 588.113 590.373 588.013 590.273L558.013 560.348Z" fill="#E6E6E6"/>
<path d="M557.644 564.094L521.359 600.469L547.984 627.028L584.269 590.652L557.644 564.094ZM555.957 562.411L555.96 562.414L555.956 562.41L555.957 562.411Z" fill="white"/>
<path d="M555.319 573.548C554.905 573.136 554.105 573.265 553.535 573.837C552.965 574.408 552.837 575.209 553.251 575.621L572.751 595.073C573.165 595.486 573.965 595.356 574.535 594.785C575.105 594.213 575.233 593.413 574.819 593L555.319 573.548Z" fill="#EDB726"/>
<path d="M550.831 578.048C550.417 577.636 549.617 577.765 549.047 578.337C548.477 578.908 548.349 579.709 548.763 580.121L568.263 599.573C568.677 599.986 569.477 599.856 570.047 599.285C570.617 598.713 570.744 597.913 570.331 597.5L550.831 578.048Z" fill="#DCE1E4"/>
<path d="M546.342 582.548C545.929 582.136 545.128 582.265 544.558 582.837C543.988 583.408 543.861 584.209 544.274 584.621L563.775 604.073C564.188 604.486 564.989 604.356 565.559 603.785C566.129 603.213 566.256 602.413 565.842 602L546.342 582.548Z" fill="#DCE1E4"/>
<path d="M541.852 587.048C541.438 586.636 540.638 586.765 540.068 587.337C539.498 587.908 539.371 588.709 539.784 589.121L559.284 608.573C559.698 608.986 560.498 608.856 561.068 608.285C561.638 607.713 561.766 606.913 561.352 606.5L541.852 587.048Z" fill="#DCE1E4"/>
<path d="M537.364 591.548C536.95 591.136 536.15 591.265 535.58 591.837C535.01 592.408 534.882 593.209 535.296 593.621L554.796 613.073C555.21 613.486 556.01 613.356 556.58 612.785C557.15 612.213 557.278 611.413 556.864 611L537.364 591.548Z" fill="#DCE1E4"/>
<path d="M532.876 596.048C532.462 595.636 531.662 595.765 531.092 596.337C530.522 596.908 530.394 597.709 530.808 598.121L550.308 617.573C550.721 617.986 551.522 617.856 552.092 617.285C552.662 616.713 552.789 615.913 552.376 615.5L532.876 596.048Z" fill="#DCE1E4"/>
<g opacity="0.5">
<path d="M1680.1 617.692C1680.1 617.692 1757.28 664.672 1615 737C1615 737 1583.65 678.285 1618.31 630.413C1632.24 611.1 1658.28 605.345 1678.93 617.017L1680.1 617.692Z" fill="#C4C8F5"/>
<path d="M1681 618C1681 618 1614.21 668.429 1616.04 737" stroke="#4353FF"/>
</g>
</g>
<defs>
<filter id="filter0_d_321_869" x="1141.93" y="193.303" width="141.949" height="151.635" filterUnits="userSpaceOnUse" color-interpolation-filters="sRGB">
<feFlood flood-opacity="0" result="BackgroundImageFix"/>
<feColorMatrix in="SourceAlpha" type="matrix" values="0 0 0 0 0 0 0 0 0 0 0 0 0 0 0 0 0 0 127 0" result="hardAlpha"/>
<feOffset dy="2"/>
<feGaussianBlur stdDeviation="2"/>
<feColorMatrix type="matrix" values="0 0 0 0 0 0 0 0 0 0 0 0 0 0 0 0 0 0 0.1 0"/>
<feBlend mode="normal" in2="BackgroundImageFix" result="effect1_dropShadow_321_869"/>
<feBlend mode="normal" in="SourceGraphic" in2="effect1_dropShadow_321_869" result="shape"/>
</filter>
<linearGradient id="paint0_linear_321_869" x1="-5855.83" y1="53813.4" x2="-5855.83" y2="272.427" gradientUnits="userSpaceOnUse">
<stop stop-color="#222222" stop-opacity="0.25"/>
<stop offset="0.54" stop-color="#808080" stop-opacity="0.12"/>
<stop offset="1" stop-color="#808080" stop-opacity="0.1"/>
</linearGradient>
<clipPath id="clip0_321_869">
<rect width="1680" height="720" fill="white"/>
</clipPath>
</defs>
</svg>
