<svg width="688" height="564" viewBox="0 0 688 564" fill="none" xmlns="http://www.w3.org/2000/svg">
<g clip-path="url(#clip0_1326_712)">
<path d="M424.378 319.995L197.872 378.341C190.188 380.311 182.037 379.152 175.207 375.118C168.377 371.084 163.426 364.505 161.439 356.823L92.9379 90.7258C90.9686 83.04 92.1274 74.8866 96.1602 68.0544C100.193 61.2222 106.77 56.2692 114.449 54.2819L325.176 0L379.112 24.1531L445.889 283.551C447.858 291.237 446.699 299.39 442.667 306.222C438.634 313.055 432.057 318.008 424.378 319.995Z" fill="#D9DDFF"/>
<path d="M116.597 62.6249C111.128 64.0401 106.444 67.5672 103.573 72.4326C100.701 77.2979 99.8756 83.1041 101.278 88.5773L169.779 354.675C171.194 360.145 174.72 364.83 179.584 367.703C184.448 370.576 190.252 371.401 195.724 369.999L422.23 311.652C427.698 310.237 432.382 306.71 435.254 301.844C438.126 296.979 438.951 291.173 437.548 285.699L371.806 30.3209L324.406 9.09448L116.597 62.6249Z" fill="white"/>
<path d="M378.537 25.526L343.482 34.5559C340.923 35.2151 338.207 34.8304 335.931 33.4864C333.656 32.1424 332.007 29.9492 331.348 27.3892L324.681 1.48995C324.652 1.37656 324.655 1.25724 324.69 1.14567C324.726 1.0341 324.792 0.9348 324.882 0.85915C324.971 0.783501 325.08 0.734568 325.196 0.717965C325.311 0.701362 325.43 0.717758 325.537 0.765276L378.634 24.3534C378.752 24.4059 378.851 24.4939 378.917 24.6051C378.983 24.7164 379.013 24.8454 379.002 24.9743C378.991 25.1032 378.941 25.2256 378.857 25.3244C378.774 25.4233 378.662 25.4937 378.537 25.526Z" fill="#D9DDFF"/>
<path d="M432.105 252.768L328.98 279.332C328.347 279.495 327.687 279.532 327.039 279.44C326.392 279.348 325.768 279.13 325.205 278.797C324.641 278.465 324.149 278.024 323.756 277.501C323.363 276.978 323.076 276.382 322.913 275.749C322.75 275.115 322.713 274.455 322.805 273.807C322.897 273.159 323.115 272.536 323.448 271.972C323.78 271.409 324.221 270.916 324.744 270.523C325.267 270.129 325.862 269.843 326.495 269.68L429.621 243.115C430.254 242.952 430.914 242.915 431.561 243.007C432.209 243.099 432.833 243.317 433.396 243.65C433.959 243.983 434.452 244.423 434.845 244.947C435.238 245.47 435.524 246.065 435.687 246.699C435.851 247.333 435.887 247.992 435.796 248.64C435.704 249.288 435.486 249.912 435.153 250.475C434.82 251.039 434.38 251.531 433.857 251.925C433.334 252.318 432.739 252.604 432.105 252.768Z" fill="#DCE1E4"/>
<path d="M456.2 263.929L333.173 295.62C331.894 295.95 330.535 295.757 329.398 295.085C328.26 294.413 327.436 293.317 327.106 292.037C326.777 290.757 326.969 289.398 327.641 288.26C328.313 287.122 329.409 286.297 330.688 285.968L453.715 254.277C454.994 253.949 456.351 254.142 457.488 254.814C458.625 255.486 459.448 256.582 459.777 257.862C460.107 259.141 459.915 260.498 459.244 261.636C458.573 262.774 457.478 263.599 456.2 263.929Z" fill="#DCE1E4"/>
<path d="M214.88 311.326C224.605 311.326 232.488 303.44 232.488 293.712C232.488 283.984 224.605 276.098 214.88 276.098C205.155 276.098 197.271 283.984 197.271 293.712C197.271 303.44 205.155 311.326 214.88 311.326Z" fill="#22DDAB"/>
<path d="M349.129 206.67L212.169 241.937C208.211 242.952 204.012 242.354 200.494 240.276C196.975 238.197 194.425 234.808 193.402 230.851L164.7 119.315C163.686 115.356 164.283 111.156 166.361 107.636C168.439 104.117 171.827 101.566 175.783 100.542L312.743 65.2752C316.702 64.2608 320.9 64.8583 324.419 66.9367C327.937 69.0152 330.488 72.4048 331.511 76.3619L360.212 187.897C361.227 191.857 360.629 196.057 358.551 199.576C356.474 203.096 353.085 205.647 349.129 206.67Z" fill="white"/>
<path d="M349.129 206.67L212.169 241.937C208.211 242.952 204.012 242.354 200.494 240.276C196.975 238.197 194.425 234.808 193.402 230.851L164.7 119.315C163.686 115.356 164.283 111.156 166.361 107.636C168.439 104.117 171.827 101.566 175.783 100.542L312.743 65.2752C316.702 64.2608 320.9 64.8583 324.419 66.9367C327.937 69.0152 330.488 72.4048 331.511 76.3619L360.212 187.897C361.227 191.857 360.629 196.057 358.551 199.576C356.474 203.096 353.085 205.647 349.129 206.67ZM176.235 102.299C172.745 103.202 169.755 105.453 167.921 108.558C166.088 111.664 165.561 115.37 166.456 118.863L195.158 230.398C196.06 233.89 198.311 236.881 201.415 238.715C204.519 240.549 208.224 241.076 211.717 240.181L348.677 204.914C352.168 204.011 355.158 201.76 356.991 198.654C358.824 195.549 359.351 191.843 358.457 188.349L329.755 76.8141C328.852 73.3225 326.602 70.3317 323.497 68.4977C320.393 66.6638 316.688 66.1366 313.195 67.0317L176.235 102.299Z" fill="#C5CFD6"/>
<path d="M305.795 102.778L236.673 120.577C236.069 120.745 235.423 120.678 234.866 120.389C234.309 120.1 233.883 119.61 233.674 119.018C233.576 118.709 233.543 118.383 233.575 118.061C233.608 117.739 233.706 117.426 233.863 117.143C234.02 116.859 234.233 116.611 234.489 116.413C234.746 116.215 235.04 116.071 235.354 115.99L305.716 97.8718C308.558 99.3124 307.811 102.259 305.795 102.778Z" fill="#D9DDFF"/>
<path d="M308.916 114.906L239.794 132.705C239.19 132.874 238.544 132.806 237.987 132.517C237.431 132.228 237.004 131.738 236.795 131.146C236.697 130.837 236.664 130.512 236.696 130.189C236.729 129.867 236.827 129.554 236.984 129.271C237.141 128.988 237.354 128.739 237.611 128.541C237.867 128.343 238.161 128.199 238.475 128.118L308.837 110C311.679 111.441 310.932 114.387 308.916 114.906Z" fill="#D9DDFF"/>
<path d="M226.629 143.458L205.533 148.89C204.844 149.067 204.113 148.963 203.501 148.601C202.889 148.239 202.445 147.649 202.267 146.96L195.859 122.058C195.682 121.369 195.786 120.638 196.148 120.025C196.509 119.413 197.099 118.969 197.788 118.791L218.883 113.359C219.572 113.182 220.303 113.286 220.915 113.648C221.528 114.01 221.971 114.6 222.15 115.288L228.558 140.191C228.734 140.88 228.631 141.611 228.269 142.224C227.907 142.836 227.317 143.28 226.629 143.458Z" fill="#4353FF"/>
<path d="M315.106 139.791L209.613 166.955C209.008 167.124 208.362 167.057 207.806 166.767C207.249 166.478 206.823 165.988 206.613 165.397C206.516 165.087 206.482 164.762 206.515 164.439C206.547 164.117 206.645 163.804 206.802 163.521C206.959 163.238 207.173 162.989 207.429 162.791C207.685 162.593 207.979 162.449 208.293 162.368L315.027 134.885C317.869 136.325 317.121 139.272 315.106 139.791Z" fill="#D9DDFF"/>
<path d="M318.227 151.923L212.734 179.087C212.13 179.256 211.484 179.188 210.928 178.899C210.371 178.61 209.945 178.12 209.735 177.528C209.638 177.219 209.604 176.894 209.637 176.571C209.669 176.249 209.767 175.936 209.924 175.653C210.081 175.37 210.294 175.121 210.551 174.923C210.807 174.725 211.101 174.581 211.415 174.5L318.149 147.016C320.991 148.457 320.243 151.404 318.227 151.923Z" fill="#D9DDFF"/>
<path d="M321.348 164.047L215.855 191.211C215.25 191.38 214.604 191.313 214.048 191.023C213.491 190.734 213.065 190.244 212.855 189.652C212.758 189.343 212.724 189.018 212.757 188.695C212.789 188.373 212.887 188.06 213.044 187.777C213.201 187.494 213.415 187.245 213.671 187.047C213.927 186.849 214.221 186.705 214.535 186.624L321.269 159.14C324.111 160.581 323.363 163.528 321.348 164.047Z" fill="#D9DDFF"/>
<path d="M324.469 176.177L218.976 203.342C218.372 203.51 217.726 203.443 217.169 203.154C216.612 202.865 216.186 202.375 215.977 201.783C215.879 201.474 215.846 201.148 215.878 200.826C215.911 200.504 216.009 200.191 216.166 199.908C216.323 199.624 216.536 199.376 216.792 199.178C217.049 198.98 217.343 198.836 217.657 198.755L324.39 171.271C327.233 172.712 326.485 175.658 324.469 176.177Z" fill="#D9DDFF"/>
<path d="M327.589 188.302L222.096 215.467C221.492 215.635 220.846 215.568 220.289 215.279C219.733 214.99 219.306 214.5 219.097 213.908C218.999 213.599 218.966 213.273 218.998 212.951C219.031 212.629 219.129 212.316 219.286 212.033C219.443 211.749 219.656 211.501 219.913 211.303C220.169 211.105 220.463 210.961 220.777 210.88L327.51 183.396C330.353 184.837 329.605 187.783 327.589 188.302Z" fill="#D9DDFF"/>
<path d="M216.179 299.886C215.795 299.986 215.39 299.958 215.024 299.807L215.001 299.797L210.204 297.763C209.982 297.669 209.78 297.532 209.61 297.359C209.441 297.187 209.307 296.983 209.216 296.758C209.125 296.534 209.08 296.294 209.082 296.053C209.084 295.811 209.134 295.572 209.229 295.349C209.323 295.127 209.461 294.925 209.633 294.756C209.806 294.586 210.01 294.453 210.235 294.362C210.459 294.272 210.699 294.227 210.94 294.23C211.182 294.232 211.421 294.282 211.643 294.377L214.752 295.7L218.825 286.115C218.919 285.893 219.057 285.691 219.229 285.522C219.401 285.353 219.605 285.219 219.829 285.129C220.053 285.039 220.292 284.993 220.534 284.996C220.775 284.998 221.014 285.048 221.236 285.142L221.212 285.205L221.237 285.142C221.686 285.334 222.04 285.695 222.222 286.147C222.404 286.6 222.4 287.106 222.21 287.555L217.417 298.824C217.306 299.084 217.137 299.315 216.922 299.499C216.708 299.682 216.454 299.814 216.18 299.884L216.179 299.886Z" fill="white"/>
<path d="M583.267 421.398H349.371C341.44 421.389 333.836 418.233 328.227 412.623C322.618 407.012 319.464 399.406 319.455 391.471V116.693C319.464 108.758 322.618 101.152 328.227 95.5413C333.836 89.9309 341.44 86.7751 349.371 86.7661H566.973L613.184 123.611V391.471C613.175 399.406 610.02 407.012 604.412 412.623C598.803 418.233 591.199 421.389 583.267 421.398Z" fill="#D9DDFF"/>
<path d="M349.372 95.3813C343.723 95.3877 338.308 97.635 334.314 101.63C330.32 105.626 328.074 111.042 328.067 116.693V391.471C328.074 397.122 330.32 402.538 334.314 406.534C338.308 410.529 343.723 412.776 349.372 412.783H583.267C588.916 412.776 594.331 410.529 598.325 406.534C602.319 402.538 604.565 397.122 604.572 391.471V127.761L563.961 95.3813H349.372Z" fill="white"/>
<path d="M537.775 175.28H431.285C429.964 175.28 428.697 174.755 427.762 173.82C426.828 172.885 426.303 171.618 426.303 170.296C426.303 168.974 426.828 167.707 427.762 166.772C428.697 165.838 429.964 165.312 431.285 165.312H537.775C539.096 165.312 540.363 165.838 541.297 166.772C542.232 167.707 542.757 168.974 542.757 170.296C542.757 171.618 542.232 172.885 541.297 173.82C540.363 174.755 539.096 175.28 537.775 175.28Z" fill="#EDB726"/>
<path d="M558.325 192.099H431.285C429.965 192.097 428.699 191.572 427.767 190.637C426.834 189.703 426.31 188.436 426.31 187.116C426.31 185.795 426.834 184.528 427.767 183.594C428.699 182.66 429.965 182.134 431.285 182.132H558.325C558.98 182.131 559.628 182.259 560.234 182.509C560.839 182.76 561.389 183.126 561.852 183.589C562.316 184.052 562.683 184.602 562.934 185.207C563.185 185.812 563.314 186.461 563.314 187.116C563.314 187.771 563.185 188.419 562.934 189.024C562.683 189.629 562.316 190.179 561.852 190.642C561.389 191.105 560.839 191.472 560.234 191.722C559.628 191.972 558.98 192.1 558.325 192.099Z" fill="#EDB726"/>
<path d="M537.775 240.686H431.289C429.968 240.686 428.701 241.211 427.767 242.145C426.832 243.08 426.308 244.347 426.308 245.669C426.308 246.991 426.832 248.258 427.767 249.193C428.701 250.127 429.968 250.652 431.289 250.652H537.775C539.096 250.652 540.364 250.127 541.298 249.193C542.232 248.258 542.757 246.991 542.757 245.669C542.757 244.347 542.232 243.08 541.298 242.145C540.364 241.211 539.096 240.686 537.775 240.686Z" fill="#DCE1E4"/>
<path d="M558.327 257.508H431.289C429.968 257.508 428.701 258.033 427.767 258.968C426.832 259.902 426.308 261.17 426.308 262.491C426.308 263.813 426.832 265.081 427.767 266.015C428.701 266.95 429.968 267.475 431.289 267.475H558.327C559.648 267.475 560.915 266.95 561.85 266.015C562.784 265.081 563.309 263.813 563.309 262.491C563.309 261.17 562.784 259.902 561.85 258.968C560.915 258.033 559.648 257.508 558.327 257.508Z" fill="#DCE1E4"/>
<path d="M537.775 326.032H431.285C429.964 326.032 428.697 325.507 427.762 324.572C426.828 323.638 426.303 322.37 426.303 321.048C426.303 319.727 426.828 318.459 427.762 317.525C428.697 316.59 429.964 316.065 431.285 316.065H537.775C539.096 316.065 540.363 316.59 541.297 317.525C542.232 318.459 542.757 319.727 542.757 321.048C542.757 322.37 542.232 323.638 541.297 324.572C540.363 325.507 539.096 326.032 537.775 326.032Z" fill="#DCE1E4"/>
<path d="M558.325 342.852H431.285C429.965 342.85 428.699 342.324 427.767 341.389C426.834 340.455 426.31 339.189 426.31 337.868C426.31 336.547 426.834 335.281 427.767 334.346C428.699 333.412 429.965 332.886 431.285 332.884H558.325C558.98 332.884 559.628 333.012 560.234 333.262C560.839 333.512 561.389 333.879 561.852 334.342C562.316 334.805 562.683 335.354 562.934 335.959C563.185 336.564 563.314 337.213 563.314 337.868C563.314 338.523 563.185 339.172 562.934 339.777C562.683 340.382 562.316 340.931 561.852 341.394C561.389 341.857 560.839 342.224 560.234 342.474C559.628 342.724 558.98 342.852 558.325 342.852Z" fill="#DCE1E4"/>
<path d="M386.94 196.32C396.665 196.32 404.549 188.434 404.549 178.706C404.549 168.978 396.665 161.092 386.94 161.092C377.215 161.092 369.332 168.978 369.332 178.706C369.332 188.434 377.215 196.32 386.94 196.32Z" fill="#22DDAB"/>
<path d="M385.195 185.425C384.799 185.426 384.414 185.298 384.097 185.06L384.077 185.045L379.939 181.879C379.747 181.732 379.585 181.549 379.464 181.339C379.343 181.13 379.264 180.899 379.232 180.659C379.2 180.419 379.215 180.176 379.278 179.942C379.34 179.708 379.448 179.489 379.595 179.297C379.742 179.105 379.926 178.944 380.135 178.823C380.345 178.702 380.576 178.624 380.816 178.592C381.056 178.561 381.299 178.577 381.533 178.64C381.766 178.703 381.985 178.811 382.177 178.959L384.857 181.015L391.191 172.749C391.338 172.557 391.521 172.396 391.73 172.276C391.939 172.155 392.17 172.076 392.409 172.045C392.648 172.013 392.892 172.029 393.125 172.091C393.358 172.154 393.577 172.261 393.768 172.408L393.729 172.463L393.77 172.409C394.156 172.706 394.409 173.144 394.473 173.628C394.537 174.111 394.406 174.6 394.11 174.987L386.66 184.706C386.487 184.929 386.266 185.111 386.012 185.235C385.758 185.36 385.48 185.424 385.197 185.423L385.195 185.425Z" fill="white"/>
<path d="M406.358 254.08C406.359 256.394 405.905 258.685 405.02 260.822C404.136 262.96 402.839 264.902 401.204 266.538C399.57 268.175 397.628 269.473 395.492 270.359C393.356 271.244 391.066 271.7 388.753 271.701C388.602 271.704 388.45 271.698 388.3 271.682C384.837 271.594 381.478 270.485 378.642 268.496C375.807 266.507 373.62 263.726 372.357 260.5C371.093 257.274 370.809 253.747 371.54 250.361C372.27 246.974 373.983 243.878 376.463 241.46C378.944 239.043 382.082 237.41 385.485 236.768C388.889 236.125 392.406 236.501 395.597 237.848C398.788 239.195 401.511 241.453 403.425 244.341C405.339 247.228 406.359 250.616 406.358 254.08Z" fill="#DCE1E4"/>
<path d="M386.94 347.072C396.665 347.072 404.549 339.186 404.549 329.458C404.549 319.73 396.665 311.844 386.94 311.844C377.215 311.844 369.332 319.73 369.332 329.458C369.332 339.186 377.215 347.072 386.94 347.072Z" fill="#DCE1E4"/>
<path d="M612.285 124.797H576.086C573.443 124.797 570.909 123.747 569.04 121.877C567.172 120.008 566.122 117.473 566.122 114.83V88.0853C566.122 87.9683 566.155 87.8535 566.217 87.7543C566.279 87.6552 566.368 87.5755 566.474 87.5245C566.579 87.4736 566.697 87.4533 566.813 87.4662C566.929 87.479 567.04 87.5243 567.132 87.5971L612.671 123.685C612.773 123.766 612.846 123.876 612.883 124C612.919 124.124 612.915 124.256 612.873 124.379C612.83 124.501 612.751 124.607 612.645 124.682C612.54 124.756 612.414 124.797 612.285 124.797Z" fill="#D9DDFF"/>
<path d="M406.359 254.08C406.359 256.394 405.905 258.685 405.02 260.822C404.136 262.96 402.839 264.902 401.204 266.538C399.57 268.175 397.628 269.473 395.492 270.358C393.356 271.244 391.066 271.7 388.753 271.701C388.602 271.704 388.45 271.698 388.3 271.682C386.025 266.007 385.148 259.867 385.743 253.781C386.338 247.695 388.387 241.841 391.717 236.714C395.813 237.416 399.529 239.544 402.209 242.722C404.888 245.9 406.358 249.923 406.359 254.08Z" fill="#22DDAB"/>
<path d="M426.303 245.674C426.305 244.352 426.831 243.084 427.766 242.149C428.701 241.215 429.967 240.688 431.289 240.686H457.825C459.374 243.839 460.476 247.194 461.097 250.652H431.289C429.968 250.652 428.702 250.128 427.767 249.194C426.832 248.261 426.306 246.995 426.303 245.674Z" fill="#EDB726"/>
<path d="M461.714 257.508C461.716 260.874 461.271 264.226 460.39 267.475H431.289C429.968 267.475 428.701 266.95 427.767 266.015C426.832 265.081 426.308 263.813 426.308 262.491C426.308 261.17 426.832 259.902 427.767 258.968C428.701 258.033 429.968 257.508 431.289 257.508H461.714Z" fill="#EDB726"/>
<path d="M527.369 318.973C526.618 320.205 525.408 321.088 524.006 321.428C522.604 321.767 521.125 321.536 519.893 320.785L456.428 282.061C455.819 281.689 455.288 281.201 454.867 280.624C454.446 280.046 454.143 279.392 453.974 278.697C453.806 278.003 453.776 277.282 453.887 276.576C453.997 275.87 454.245 275.193 454.617 274.583C454.989 273.973 455.478 273.442 456.055 273.021C456.632 272.6 457.286 272.296 457.98 272.128C458.674 271.96 459.395 271.93 460.101 272.04C460.807 272.151 461.484 272.399 462.093 272.771L525.558 311.494C526.79 312.246 527.672 313.456 528.012 314.858C528.352 316.261 528.12 317.741 527.369 318.973Z" fill="#3F3D56"/>
<path d="M463.905 280.25C459.423 287.599 452.863 293.455 445.055 297.075C437.246 300.696 428.54 301.919 420.036 300.59C411.533 299.26 403.615 295.439 397.283 289.608C390.951 283.777 386.489 276.199 384.463 267.831C382.436 259.464 382.936 250.684 385.898 242.6C388.86 234.517 394.152 227.494 401.105 222.419C408.057 217.345 416.358 214.446 424.957 214.09C433.556 213.734 442.067 215.937 449.415 220.421C459.258 226.441 466.311 236.122 469.027 247.338C471.744 258.554 469.902 270.39 463.905 280.25ZM398.893 240.582C395.531 246.094 393.88 252.48 394.146 258.931C394.413 265.383 396.586 271.61 400.391 276.826C404.196 282.042 409.462 286.012 415.522 288.235C421.583 290.457 428.166 290.832 434.439 289.311C440.713 287.791 446.395 284.444 450.766 279.694C455.138 274.943 458.004 269.002 459 262.623C459.997 256.243 459.08 249.711 456.365 243.853C453.651 237.995 449.261 233.073 443.75 229.711C436.358 225.212 427.484 223.83 419.074 225.868C410.665 227.906 403.407 233.198 398.893 240.582Z" fill="#3F3D56"/>
<path d="M603.328 264.562C615.625 264.562 625.594 254.59 625.594 242.288C625.594 229.987 615.625 220.015 603.328 220.015C591.03 220.015 581.061 229.987 581.061 242.288C581.061 254.59 591.03 264.562 603.328 264.562Z" fill="#A0616A"/>
<path d="M601.889 367.155C601.459 365.817 601.317 364.403 601.472 363.006C601.627 361.609 602.076 360.26 602.788 359.049C603.501 357.837 604.461 356.789 605.606 355.975C606.751 355.16 608.056 354.597 609.434 354.322C609.87 354.237 610.312 354.182 610.757 354.159L634.211 316.503L612.787 296.129C611.968 295.35 611.312 294.417 610.855 293.384C610.399 292.35 610.152 291.236 610.129 290.107C610.106 288.977 610.306 287.854 610.719 286.803C611.132 285.751 611.749 284.792 612.534 283.98C613.32 283.168 614.259 282.52 615.296 282.073C616.333 281.626 617.449 281.389 618.578 281.376C619.708 281.363 620.829 281.574 621.876 281.997C622.924 282.419 623.877 283.045 624.681 283.838L654.262 313.016L654.322 313.088C655.237 314.481 655.679 316.132 655.582 317.795C655.484 319.459 654.854 321.047 653.783 322.324L620.92 361.204C621.018 361.516 621.099 361.832 621.164 362.152C621.439 363.531 621.42 364.952 621.107 366.323C620.795 367.693 620.196 368.982 619.351 370.105C618.506 371.228 617.433 372.16 616.203 372.839C614.972 373.519 613.612 373.93 612.212 374.047C611.929 374.072 611.647 374.084 611.367 374.084C609.259 374.075 607.207 373.401 605.505 372.156C603.803 370.912 602.537 369.162 601.889 367.155Z" fill="#A0616A"/>
<path d="M566.655 552.279L555.541 552.278L550.253 509.395L566.657 509.396L566.655 552.279Z" fill="#A0616A"/>
<path d="M569.489 563.056L533.652 563.055V562.601C533.652 560.769 534.013 558.955 534.714 557.262C535.415 555.569 536.442 554.031 537.738 552.735C539.033 551.439 540.571 550.411 542.263 549.71C543.955 549.009 545.769 548.648 547.601 548.648L569.49 548.649L569.489 563.056Z" fill="#2F2E41"/>
<path d="M677.126 536.907L667.577 542.595L641.1 508.455L655.195 500.06L677.126 536.907Z" fill="#A0616A"/>
<path d="M685.073 544.716L654.281 563.056L654.049 562.667C653.112 561.092 652.494 559.349 652.23 557.535C651.967 555.722 652.063 553.874 652.513 552.098C652.963 550.322 653.759 548.652 654.854 547.183C655.95 545.715 657.324 544.476 658.898 543.539L677.705 532.337L685.073 544.716Z" fill="#2F2E41"/>
<path d="M548.851 533.393C541.406 445.694 536.977 364.223 564.194 330.988L564.405 330.73L610.21 349.059L610.285 349.223C610.44 349.559 625.674 383.078 622.12 405.624L633.418 457.613L670.258 519.317C670.554 519.813 670.742 520.367 670.808 520.942C670.874 521.517 670.818 522.099 670.642 522.65C670.466 523.202 670.175 523.709 669.788 524.139C669.402 524.569 668.928 524.912 668.398 525.146L652.389 532.191C651.486 532.585 650.471 532.639 649.53 532.345C648.59 532.051 647.787 531.428 647.268 530.59L607.194 465.224L584.559 415.087C584.436 414.815 584.227 414.591 583.964 414.449C583.701 414.308 583.399 414.257 583.104 414.304C582.809 414.351 582.538 414.494 582.333 414.711C582.127 414.928 581.999 415.206 581.967 415.503L569.42 533.483C569.315 534.485 568.843 535.413 568.093 536.088C567.344 536.762 566.371 537.134 565.364 537.132H552.918C551.897 537.126 550.914 536.74 550.163 536.049C549.411 535.357 548.943 534.411 548.851 533.393Z" fill="#2F2E41"/>
<path d="M564.349 331.683L564.13 331.579L564.096 331.339C562.385 319.359 564.41 306.048 570.116 291.777C572.928 284.792 578.155 279.05 584.845 275.597C591.534 272.145 599.241 271.211 606.562 272.966C610.778 274.005 614.733 275.909 618.176 278.557C621.619 281.206 624.474 284.54 626.561 288.35C628.621 292.12 629.877 296.278 630.247 300.559C630.617 304.84 630.095 309.152 628.712 313.22C621.52 334.259 612.189 353.945 612.096 354.141L611.9 354.552L564.349 331.683Z" fill="#4353FF"/>
<path d="M514.373 301.844C515.476 300.973 516.75 300.345 518.113 300.001C519.475 299.657 520.895 299.605 522.279 299.848C523.663 300.091 524.98 300.624 526.144 301.412C527.308 302.2 528.292 303.225 529.032 304.42C529.265 304.799 529.471 305.194 529.648 305.602L573.122 314.392L584.697 287.183C585.139 286.143 585.783 285.201 586.591 284.412C587.399 283.623 588.356 283.001 589.405 282.584C590.455 282.166 591.577 281.961 592.706 281.979C593.835 281.998 594.95 282.24 595.985 282.692C597.02 283.144 597.956 283.796 598.737 284.612C599.519 285.427 600.131 286.39 600.539 287.443C600.947 288.497 601.142 289.621 601.113 290.75C601.085 291.88 600.832 292.992 600.371 294.024L583.409 331.958L583.362 332.039C582.378 333.384 580.987 334.376 579.395 334.868C577.803 335.36 576.095 335.325 574.525 334.769L526.61 317.592C526.353 317.793 526.085 317.98 525.808 318.153C524.613 318.894 523.276 319.373 521.883 319.56C520.49 319.747 519.073 319.638 517.726 319.239C516.378 318.841 515.13 318.162 514.063 317.247C512.996 316.332 512.135 315.202 511.535 313.931C511.412 313.674 511.302 313.414 511.204 313.152C510.474 311.173 510.387 309.015 510.956 306.984C511.525 304.954 512.721 303.155 514.373 301.844Z" fill="#A0616A"/>
<path d="M683.766 266.141C681.622 262.34 678.497 258.858 674.366 257.453C669.031 255.638 663.254 257.57 657.769 258.86C653.543 259.854 649.128 260.463 644.868 259.624C640.609 258.785 636.5 256.305 634.562 252.42C631.711 246.703 634.113 239.886 633.94 233.5C633.85 230.024 632.973 226.613 631.375 223.525C629.776 220.437 627.498 217.752 624.711 215.673C621.925 213.594 618.703 212.175 615.288 211.523C611.873 210.87 608.355 211.002 604.999 211.907C599.747 210.391 594.991 210.251 591.742 214.29C587.655 214.29 583.735 215.914 580.845 218.805C577.954 221.696 576.331 225.618 576.331 229.707H591.067C590.369 233.465 591.167 237.348 593.292 240.526C595.894 244.349 600.417 247.115 601.288 251.657C602.132 256.059 599.141 260.235 596.003 263.434C592.866 266.634 589.227 269.804 588.247 274.177C587.647 277.497 588.328 280.921 590.154 283.758C591.976 286.56 594.237 289.051 596.85 291.136C608.622 301.224 622.613 308.384 637.68 312.03C648.291 314.586 659.896 315.248 669.746 310.547C673.687 308.667 677.199 305.996 680.063 302.7C682.928 299.405 685.085 295.555 686.4 291.391C687.715 287.226 688.159 282.836 687.706 278.492C687.253 274.149 685.912 269.944 683.766 266.141Z" fill="#2F2E41"/>
<path d="M687.094 564H514.845C514.604 564 514.374 563.904 514.204 563.734C514.034 563.564 513.938 563.334 513.938 563.093C513.938 562.853 514.034 562.622 514.204 562.452C514.374 562.282 514.604 562.186 514.845 562.186H687.094C687.334 562.186 687.565 562.282 687.735 562.452C687.905 562.622 688 562.853 688 563.093C688 563.334 687.905 563.564 687.735 563.734C687.565 563.904 687.334 564 687.094 564Z" fill="#DCE1E4"/>
<path d="M190.742 447.63C190.486 447.698 190.268 447.866 190.135 448.095C190.002 448.325 189.965 448.597 190.033 448.854L217.324 551.28C217.392 551.536 217.559 551.755 217.789 551.888C218.018 552.021 218.291 552.057 218.547 551.989L295.851 531.393C296.107 531.324 296.325 531.157 296.458 530.928C296.591 530.698 296.627 530.425 296.559 530.169L269.269 427.742C269.201 427.486 269.034 427.268 268.804 427.135C268.575 427.002 268.302 426.965 268.046 427.033L190.742 447.63Z" fill="#D9DDFF"/>
<path d="M209.739 464.546C208.673 464.83 208.125 466.259 208.518 467.731C208.91 469.204 210.096 470.171 211.162 469.887L261.409 456.5C262.475 456.216 263.022 454.786 262.63 453.314C262.238 451.842 261.051 450.874 259.986 451.158L209.739 464.546Z" fill="white"/>
<path d="M212.828 476.141C211.763 476.425 211.215 477.855 211.607 479.327C212 480.799 213.186 481.767 214.252 481.483L264.499 468.095C265.564 467.811 266.112 466.382 265.72 464.909C265.327 463.437 264.141 462.47 263.075 462.754L212.828 476.141Z" fill="white"/>
<path d="M215.916 487.737C214.85 488.021 214.303 489.45 214.695 490.922C215.088 492.395 216.274 493.362 217.339 493.078L267.587 479.691C268.652 479.407 269.2 477.977 268.808 476.505C268.415 475.033 267.229 474.065 266.163 474.349L215.916 487.737Z" fill="white"/>
<path d="M219.006 499.332C217.94 499.616 217.393 501.046 217.785 502.518C218.177 503.99 219.363 504.958 220.429 504.674L270.676 491.286C271.742 491.002 272.29 489.573 271.897 488.1C271.505 486.628 270.319 485.661 269.253 485.945L219.006 499.332Z" fill="white"/>
<path d="M222.096 510.928C221.03 511.212 220.483 512.641 220.875 514.113C221.267 515.586 222.453 516.553 223.519 516.269L273.766 502.882C274.832 502.598 275.38 501.168 274.987 499.696C274.595 498.224 273.409 497.256 272.343 497.54L222.096 510.928Z" fill="white"/>
<path d="M225.186 522.523C224.12 522.807 223.573 524.236 223.965 525.709C224.357 527.181 225.543 528.149 226.609 527.865L276.856 514.477C277.922 514.193 278.469 512.764 278.077 511.291C277.685 509.819 276.499 508.852 275.433 509.136L225.186 522.523Z" fill="white"/>
<path d="M3.5775 350.796C3.34374 350.921 3.16915 351.133 3.09207 351.387C3.01499 351.641 3.04169 351.915 3.16633 352.149L53.0898 445.656C53.2149 445.89 53.4276 446.064 53.6813 446.142C53.935 446.219 54.2089 446.192 54.4429 446.067L125.015 408.389C125.248 408.264 125.423 408.051 125.5 407.798C125.577 407.544 125.55 407.27 125.426 407.036L75.5023 313.529C75.3772 313.295 75.1644 313.12 74.9108 313.043C74.6571 312.966 74.3832 312.993 74.1492 313.117L3.5775 350.796Z" fill="#D9DDFF"/>
<path d="M10.1377 353.528L55.8227 439.095L118.455 405.657L72.7701 320.089L10.1377 353.528ZM6.16895 355.647L6.17773 355.642L6.16797 355.647L6.16895 355.647Z" fill="white"/>
<path d="M25.929 362.935C24.956 363.455 24.7489 364.971 25.4665 366.315C26.1841 367.659 27.5595 368.331 28.5325 367.812L74.4041 343.321C75.3771 342.801 75.5843 341.285 74.8666 339.941C74.149 338.597 72.7736 337.925 71.8006 338.445L25.929 362.935Z" fill="#DCE1E4"/>
<path d="M31.5814 373.521C30.6084 374.04 30.4012 375.557 31.1188 376.901C31.8364 378.245 33.2118 378.917 34.1848 378.397L80.0564 353.907C81.0294 353.387 81.2366 351.871 80.519 350.526C79.8013 349.182 78.426 348.511 77.453 349.03L31.5814 373.521Z" fill="#DCE1E4"/>
<path d="M37.2337 384.107C36.2607 384.626 36.0536 386.143 36.7712 387.487C37.4888 388.831 38.8642 389.503 39.8372 388.983L85.7088 364.492C86.6818 363.973 86.889 362.456 86.1714 361.112C85.4538 359.768 84.0784 359.097 83.1054 359.616L37.2337 384.107Z" fill="#DCE1E4"/>
<path d="M42.8841 394.692C41.9111 395.212 41.7039 396.728 42.4216 398.073C43.1392 399.417 44.5145 400.088 45.4875 399.569L91.3592 375.078C92.3322 374.559 92.5393 373.042 91.8217 371.698C91.1041 370.354 89.7287 369.682 88.7557 370.202L42.8841 394.692Z" fill="#DCE1E4"/>
<path d="M48.5365 405.278C47.5635 405.798 47.3563 407.314 48.0739 408.658C48.7915 410.002 50.1669 410.674 51.1399 410.155L97.0115 385.664C97.9845 385.144 98.1917 383.628 97.4741 382.284C96.7565 380.94 95.3811 380.268 94.4081 380.788L48.5365 405.278Z" fill="#DCE1E4"/>
<path d="M54.1888 415.864C53.2158 416.384 53.0086 417.9 53.7263 419.244C54.4439 420.588 55.8193 421.26 56.7923 420.74L102.664 396.25C103.637 395.73 103.844 394.214 103.126 392.869C102.409 391.525 101.033 390.854 100.06 391.373L54.1888 415.864Z" fill="#DCE1E4"/>
</g>
<defs>
<clipPath id="clip0_1326_712">
<rect width="688" height="564" fill="white"/>
</clipPath>
</defs>
</svg>
