<?xml version="1.0" encoding="UTF-8"?>
<svg width="47px" height="47px" viewBox="0 0 47 47" version="1.1" xmlns="http://www.w3.org/2000/svg" xmlns:xlink="http://www.w3.org/1999/xlink">
    <!-- Generator: sketchtool 52.4 (67378) - http://www.bohemiancoding.com/sketch -->
    <title>7BCA88E7-8DF7-4322-AA8C-9EA4EA8113B1@1.5x</title>
    <desc>Created with sketchtool.</desc>
    <defs>
        <radialGradient cx="54.0650892%" cy="16.3931643%" fx="54.0650892%" fy="16.3931643%" r="335.648471%" gradientTransform="translate(0.540651,0.163932),scale(1.000000,0.381858),translate(-0.540651,-0.163932)" id="radialGradient-1">
            <stop stop-color="#F9AB95" offset="0%"></stop>
            <stop stop-color="#ED1C24" offset="42.0086%"></stop>
            <stop stop-color="#ED1C24" offset="42.6971%"></stop>
            <stop stop-color="#ED1C24" offset="87.2563%"></stop>
            <stop stop-color="#981015" offset="100%"></stop>
        </radialGradient>
        <radialGradient cx="155.256376%" cy="-8.83251116%" fx="155.256376%" fy="-8.83251116%" r="200.583068%" gradientTransform="translate(1.552564,-0.088325),scale(1.000000,0.789285),translate(-1.552564,0.088325)" id="radialGradient-2">
            <stop stop-color="#F9AB95" offset="0%"></stop>
            <stop stop-color="#ED1C24" offset="42.0086%"></stop>
            <stop stop-color="#ED1C24" offset="42.6971%"></stop>
            <stop stop-color="#ED1C24" offset="87.2563%"></stop>
            <stop stop-color="#981015" offset="100%"></stop>
        </radialGradient>
        <radialGradient cx="173.31244%" cy="-530.711617%" fx="173.31244%" fy="-530.711617%" r="689.164313%" gradientTransform="translate(1.733124,-5.307116),scale(0.336352,1.000000),translate(-1.733124,5.307116)" id="radialGradient-3">
            <stop stop-color="#F9AB95" offset="0%"></stop>
            <stop stop-color="#ED1C24" offset="42.0086%"></stop>
            <stop stop-color="#ED1C24" offset="42.6971%"></stop>
            <stop stop-color="#ED1C24" offset="87.2563%"></stop>
            <stop stop-color="#981015" offset="100%"></stop>
        </radialGradient>
        <radialGradient cx="154.896967%" cy="-124.129424%" fx="154.896967%" fy="-124.129424%" r="303.107862%" gradientTransform="translate(1.548970,-1.241294),scale(0.585252,1.000000),translate(-1.548970,1.241294)" id="radialGradient-4">
            <stop stop-color="#F9AB95" offset="0%"></stop>
            <stop stop-color="#ED1C24" offset="42.0086%"></stop>
            <stop stop-color="#ED1C24" offset="42.6971%"></stop>
            <stop stop-color="#ED1C24" offset="87.2563%"></stop>
            <stop stop-color="#981015" offset="100%"></stop>
        </radialGradient>
        <radialGradient cx="167.37603%" cy="16.395375%" fx="167.37603%" fy="16.395375%" r="335.597489%" gradientTransform="translate(1.673760,0.163954),scale(1.000000,0.381968),translate(-1.673760,-0.163954)" id="radialGradient-5">
            <stop stop-color="#F9AB95" offset="0%"></stop>
            <stop stop-color="#ED1C24" offset="42.0086%"></stop>
            <stop stop-color="#ED1C24" offset="42.6971%"></stop>
            <stop stop-color="#ED1C24" offset="87.2563%"></stop>
            <stop stop-color="#981015" offset="100%"></stop>
        </radialGradient>
        <radialGradient cx="10.4558171%" cy="-530.502327%" fx="10.4558171%" fy="-530.502327%" r="688.627169%" gradientTransform="translate(0.104558,-5.305023),scale(0.336856,1.000000),translate(-0.104558,5.305023)" id="radialGradient-6">
            <stop stop-color="#F9AB95" offset="0%"></stop>
            <stop stop-color="#ED1C24" offset="42.0086%"></stop>
            <stop stop-color="#ED1C24" offset="42.6971%"></stop>
            <stop stop-color="#ED1C24" offset="87.2563%"></stop>
            <stop stop-color="#981015" offset="100%"></stop>
        </radialGradient>
        <radialGradient cx="9.20755618%" cy="-123.818563%" fx="9.20755618%" fy="-123.818563%" r="303.007493%" gradientTransform="translate(0.092076,-1.238186),scale(0.585667,1.000000),translate(-0.092076,1.238186)" id="radialGradient-7">
            <stop stop-color="#F9AB95" offset="0%"></stop>
            <stop stop-color="#ED1C24" offset="42.0086%"></stop>
            <stop stop-color="#ED1C24" offset="42.6971%"></stop>
            <stop stop-color="#ED1C24" offset="87.2563%"></stop>
            <stop stop-color="#981015" offset="100%"></stop>
        </radialGradient>
        <radialGradient cx="17.1688882%" cy="-8.83695351%" fx="17.1688882%" fy="-8.83695351%" r="200.909626%" gradientTransform="translate(0.171689,-0.088370),scale(1.000000,0.788398),translate(-0.171689,0.088370)" id="radialGradient-8">
            <stop stop-color="#F9AB95" offset="0%"></stop>
            <stop stop-color="#ED1C24" offset="42.0086%"></stop>
            <stop stop-color="#ED1C24" offset="42.6971%"></stop>
            <stop stop-color="#ED1C24" offset="87.2563%"></stop>
            <stop stop-color="#981015" offset="100%"></stop>
        </radialGradient>
    </defs>
    <g id="Pricing" stroke="none" stroke-width="1" fill="none" fill-rule="evenodd">
        <g id="01---Pricing_A" transform="translate(-830.000000, -1508.000000)" fill-rule="nonzero">
            <g id="Customers" transform="translate(256.000000, 1392.000000)">
                <g id="Huawei" transform="translate(574.000000, 116.000000)">
                    <polygon id="Shape" fill="#231F20" points="1.881 42.33 5.691 42.33 5.691 39.29 7.399 39.29 7.399 46.79 5.691 46.79 5.691 43.66 1.881 43.66 1.881 46.79 0.168 46.79 0.168 39.29 1.881 39.29"></polygon>
                    <path d="M10.502,43.79 C10.502,45.11 10.921,45.67 12.337,45.67 C13.749,45.67 14.159,45.11 14.159,43.79 L14.159,39.29 L15.872,39.29 L15.872,43.82 C15.872,44.78 15.756,45.44 15.391,45.85 C14.726,46.57 13.749,46.88 12.337,46.88 C10.921,46.88 9.938,46.57 9.266,45.85 C8.895,45.44 8.803,44.78 8.803,43.82 L8.803,39.29 L10.502,39.29 L10.502,43.79 Z" id="Shape" fill="#231F20"></path>
                    <path d="M19.295,43.67 L21.72,43.67 L20.486,40.78 L19.295,43.67 Z M21.458,39.29 L24.923,46.79 L23.023,46.79 L22.273,45.01 L18.736,45.01 L18.018,46.79 L16.203,46.79 L19.642,39.29 L21.458,39.29 Z" id="Shape" fill="#231F20"></path>
                    <polygon id="Shape" fill="#231F20" points="25.698 39.29 27.578 45.06 29.164 39.29 31.183 39.29 33.001 45.06 34.757 39.29 36.515 39.29 34.002 46.79 31.906 46.79 30.173 41.19 28.657 46.79 26.57 46.79 23.861 39.29"></polygon>
                    <path d="M38.817,42.34 L43.545,42.34 L43.545,43.64 L38.806,43.64 C38.817,45 39.392,45.49 40.744,45.49 L43.545,45.49 L43.545,46.8 L40.663,46.8 C39.682,46.8 38.918,46.72 38.126,46.14 C37.284,45.52 36.881,44.54 36.881,43.18 C36.881,40.52 38.09,39.29 40.712,39.29 L43.545,39.29 L43.545,40.6 L40.744,40.6 C39.504,40.6 38.884,41.16 38.817,42.34 Z" id="Shape" fill="#231F20"></path>
                    <polygon id="Shape" fill="#231F20" points="45.058 39.29 46.843 39.29 46.843 46.79 45.058 46.79"></polygon>
                    <path d="M24.718,26.28 L24.724,26.28 C24.735,26.41 24.834,26.44 24.834,26.44 C24.97,26.49 25.04,26.36 25.04,26.36 C26.42,24.37 32.618,15.18 33.887,9.57 C33.887,9.57 34.564,6.86 33.903,5.03 C33.903,5.03 32.969,1.53 29.164,0.6 C29.164,0.6 28.068,0.32 26.906,0.16 C26.906,0.16 22.655,5.63 24.718,26.28 Z" id="Shape" fill="url(#radialGradient-1)"></path>
                    <path d="M3.513,14.11 C3.666,17.04 5.876,18.78 5.876,18.78 C9.436,22.25 18.055,26.63 20.054,27.62 C20.081,27.63 20.185,27.66 20.246,27.59 C20.246,27.59 20.328,27.52 20.286,27.42 C14.802,15.44 7.303,6.35 7.303,6.35 C7.303,6.35 3.221,10.23 3.513,14.11 Z" id="Shape" fill="url(#radialGradient-2)"></path>
                    <path d="M4.386,30.92 C5.941,33.69 8.563,35.85 11.292,35.19 C13.178,34.72 17.44,31.74 18.846,30.73 L18.841,30.73 C18.951,30.64 18.919,30.55 18.919,30.55 C18.878,30.43 18.73,30.43 18.73,30.43 L18.73,30.42 L4.386,30.92 Z" id="Shape" fill="url(#radialGradient-3)"></path>
                    <path d="M0.954,24.48 C2.509,27.77 5.482,28.77 5.482,28.77 C6.852,29.33 8.224,29.37 8.224,29.37 C8.438,29.41 16.756,29.37 18.983,29.36 C19.08,29.36 19.131,29.27 19.131,29.27 C19.201,29.15 19.08,29.05 19.08,29.05 C12.78,24.8 0.567,18.27 0.567,18.27 C-0.544,21.71 0.954,24.48 0.954,24.48 Z" id="Shape" fill="url(#radialGradient-4)"></path>
                    <path d="M17.773,0.6 C13.975,1.58 13.077,5.02 13.077,5.02 C12.385,7.19 13.097,9.57 13.097,9.57 C14.361,15.2 20.602,24.44 21.944,26.38 C22.041,26.48 22.112,26.44 22.112,26.44 C22.246,26.41 22.25,26.28 22.25,26.26 C24.31,5.63 20.081,0.16 20.081,0.16 C19.458,0.22 17.773,0.6 17.773,0.6 Z" id="Shape" fill="url(#radialGradient-5)"></path>
                    <path d="M28.229,30.43 C28.229,30.43 28.102,30.45 28.068,30.55 C28.068,30.55 28.035,30.67 28.125,30.73 L28.125,30.74 C29.493,31.72 33.654,34.63 35.662,35.2 C35.662,35.2 39.371,36.46 42.589,30.93 L28.229,30.43 Z" id="Shape" fill="url(#radialGradient-6)"></path>
                    <path d="M27.911,29.04 C27.911,29.04 27.804,29.12 27.84,29.25 C27.84,29.25 27.901,29.36 27.985,29.36 C30.241,29.36 38.787,29.37 39.006,29.33 C39.006,29.33 40.109,29.29 41.474,28.77 C41.474,28.77 44.513,27.8 46.088,24.35 C46.088,24.35 47.497,21.53 46.409,18.24 C46.409,18.24 34.213,24.78 27.911,29.04 Z" id="Shape" fill="url(#radialGradient-7)"></path>
                    <path d="M26.717,27.36 L26.724,27.36 C26.724,27.36 26.654,27.5 26.76,27.59 C26.76,27.59 26.859,27.66 26.954,27.6 C29.01,26.58 37.559,22.23 41.1,18.78 C41.1,18.78 43.343,16.98 43.462,14.09 C43.721,10.07 39.682,6.35 39.682,6.35 C39.682,6.35 32.196,15.41 26.717,27.36 Z" id="Shape" fill="url(#radialGradient-8)"></path>
                </g>
            </g>
        </g>
    </g>
</svg>