<?xml version="1.0" encoding="UTF-8"?>
<svg width="96px" height="96px" viewBox="0 0 96 96" version="1.1" xmlns="http://www.w3.org/2000/svg" xmlns:xlink="http://www.w3.org/1999/xlink">
    <!-- Generator: Sketch 47.1 (45422) - http://www.bohemiancoding.com/sketch -->
    <title>Group 12</title>
    <desc>Created with Sketch.</desc>
    <defs></defs>
    <g id="Candidate" stroke="none" stroke-width="1" fill="none" fill-rule="evenodd">
        <g id="06---Complete-profile---Step-3" transform="translate(-1081.000000, -347.000000)" fill-rule="nonzero" fill="#2F3233">
            <g id="Form" transform="translate(312.000000, 224.000000)">
                <g id="Group-12" transform="translate(192.000000, 80.000000)">
                    <g id="Experience" transform="translate(577.000000, 43.000000)">
                        <g id="briefcase" transform="translate(20.000000, 0.000000)">
                            <path d="M6,13.5 C4.61928813,13.5 3.5,14.6192881 3.5,16 L3.5,64 C3.5,65.3807119 4.61928813,66.5 6,66.5 L70,66.5 C71.3807119,66.5 72.5,65.3807119 72.5,64 L72.5,16 C72.5,14.6192881 71.3807119,13.5 70,13.5 L6,13.5 Z M6,10.5 L70,10.5 C73.0375661,10.5 75.5,12.9624339 75.5,16 L75.5,64 C75.5,67.0375661 73.0375661,69.5 70,69.5 L6,69.5 C2.96243388,69.5 0.5,67.0375661 0.5,64 L0.5,16 C0.5,12.9624339 2.96243388,10.5 6,10.5 Z" id="Rectangle-9"></path>
                            <path d="M72.5,23 L72.5,31 C72.5,34.5898509 69.5898509,37.5 66,37.5 L10,37.5 C6.41014913,37.5 3.5,34.5898509 3.5,31 L3.5,23 L0.5,23 L0.5,31 C0.5,36.2467051 4.75329488,40.5 10,40.5 L66,40.5 C71.2467051,40.5 75.5,36.2467051 75.5,31 L75.5,23 L72.5,23 Z" id="Rectangle-10"></path>
                            <path d="M32.5,37.5 L42.5,37.5 L42.5,34.5 L32.5,34.5 L32.5,37.5 Z M32,31.5 L43,31.5 C44.3807119,31.5 45.5,32.6192881 45.5,34 L45.5,40.5 L29.5,40.5 L29.5,34 C29.5,32.6192881 30.6192881,31.5 32,31.5 Z" id="Rectangle-11"></path>
                            <path d="M48.5,10.5 L48.5,6 C48.5,4.61928813 47.3807119,3.5 46,3.5 L30,3.5 C28.6192881,3.5 27.5,4.61928813 27.5,6 L27.5,10.5 L48.5,10.5 Z M30,0.5 L46,0.5 C49.0375661,0.5 51.5,2.96243388 51.5,6 L51.5,13.5 L24.5,13.5 L24.5,6 C24.5,2.96243388 26.9624339,0.5 30,0.5 Z" id="Rectangle-11"></path>
                            <path d="M12.5,40.5 L12.5,43.5 L15.5,43.5 L15.5,40.5 L12.5,40.5 Z M18.5,37.5 L18.5,44 C18.5,45.3807119 17.3807119,46.5 16,46.5 L12,46.5 C10.6192881,46.5 9.5,45.3807119 9.5,44 L9.5,37.5 L18.5,37.5 Z" id="Rectangle-11"></path>
                        </g>
                    </g>
                </g>
            </g>
        </g>
    </g>
</svg>