<?xml version="1.0" encoding="UTF-8"?>
<svg width="96px" height="96px" viewBox="0 0 96 96" version="1.1" xmlns="http://www.w3.org/2000/svg" xmlns:xlink="http://www.w3.org/1999/xlink">
    <!-- Generator: Sketch 47.1 (45422) - http://www.bohemiancoding.com/sketch -->
    <title>Group 12</title>
    <desc>Created with Sketch.</desc>
    <defs></defs>
    <g id="Employer" stroke="none" stroke-width="1" fill="none" fill-rule="evenodd">
        <g id="04---Post-a-job" transform="translate(-1080.000000, -226.000000)" fill="#2F3233">
            <g id="Header" transform="translate(504.000000, 226.000000)">
                <g id="Icon-area" transform="translate(576.000000, 0.000000)">
                    <g id="Post-a-job" transform="translate(21.000000, 1.000000)">
                        <g id="Paper">
                            <path d="M58,20.5 C58,21.3284271 57.3284271,22 56.5,22 C55.6715729,22 55,21.3284271 55,20.5 L55,6 C55,4.34314575 53.6568542,3 52,3 L6,3 C4.34314575,3 3,4.34314575 3,6 L3,70 C3,71.6568542 4.34314575,73 6,73 L52,73 C53.6568542,73 55,71.6568542 55,70 L55,55.5 C55,54.6715729 55.6715729,54 56.5,54 C57.3284271,54 58,54.6715729 58,55.5 L58,70 C58,73.3137085 55.3137085,76 52,76 L6,76 C2.6862915,76 0,73.3137085 0,70 L0,6 C0,2.6862915 2.6862915,0 6,0 L52,0 C55.3137085,0 58,2.6862915 58,6 L58,20.5 Z" id="Rectangle-12" fill-rule="nonzero"></path>
                            <rect id="Rectangle-16-Copy" transform="translate(29.000000, 28.500000) rotate(-180.000000) translate(-29.000000, -28.500000) " x="12" y="27" width="34" height="3" rx="1.5"></rect>
                            <rect id="Rectangle-16-Copy-2" transform="translate(19.500000, 52.500000) rotate(-180.000000) translate(-19.500000, -52.500000) " x="12" y="51" width="15" height="3" rx="1.5"></rect>
                            <rect id="Rectangle-16-Copy-3" transform="translate(25.500000, 40.500000) rotate(-180.000000) translate(-25.500000, -40.500000) " x="12" y="39" width="27" height="3" rx="1.5"></rect>
                            <rect id="Rectangle-16-Copy-4" transform="translate(29.000000, 16.500000) rotate(-180.000000) translate(-29.000000, -16.500000) " x="12" y="15" width="34" height="3" rx="1.5"></rect>
                        </g>
                        <g id="Pencil" transform="translate(50.162951, 44.041631) rotate(-45.000000) translate(-50.162951, -44.041631) translate(21.162951, 38.041631)" fill-rule="nonzero">
                            <path d="M26.2748669,-10.7551825 L26.2748669,30.7251331 C26.2748669,31.2774179 26.7225821,31.7251331 27.2748669,31.7251331 L31.2748669,31.7251331 C31.8271516,31.7251331 32.2748669,31.2774179 32.2748669,30.7251331 L32.2748669,-12.2682546 L30.2863261,-19.0070892 C30.191621,-19.3280292 29.9426678,-19.5803306 29.6230216,-19.6793146 C29.0954532,-19.8426854 28.5353363,-19.5474449 28.3719655,-19.0198764 L26.279453,-12.2625874 L32.2748669,-12.2625874 L32.2748669,-9.26258738 L26.2748669,-9.26258738 L26.2748669,-10.7551825 Z M23.2748669,-12.7016471 L25.5062241,-19.9073033 C26.1597072,-22.017577 28.4001748,-23.1985391 30.5104484,-22.545056 C31.7890332,-22.1491199 32.7848462,-21.1399141 33.1636667,-19.8561542 L35.2748669,-12.7016471 L35.2748669,30.7251331 C35.2748669,32.9342721 33.4840059,34.7251331 31.2748669,34.7251331 L27.2748669,34.7251331 C25.0657279,34.7251331 23.2748669,32.9342721 23.2748669,30.7251331 L23.2748669,-12.7016471 Z M26.2748669,26.0524267 L26.2748669,23.0524267 L32.2748669,23.0524267 L32.2748669,26.0524267 L26.2748669,26.0524267 Z" id="Rectangle-13" transform="translate(29.274867, 6.000000) rotate(270.000000) translate(-29.274867, -6.000000) "></path>
                        </g>
                    </g>
                </g>
            </g>
        </g>
    </g>
</svg>