<svg width="512" height="420" viewBox="0 0 512 420" fill="none" xmlns="http://www.w3.org/2000/svg">
<g clip-path="url(#clip0_1401_74)">
<path opacity="0.5" d="M503.205 173.499C551.838 321.756 428.697 368.587 334.5 347.5C297.086 339.137 240.672 353.808 203.426 367.508C176.358 377.466 162.254 412.073 132.413 418.288C66.9868 431.923 21.0987 361.521 6.14992 298.814C-9.33379 233.732 2.88426 191.657 60.4274 160.141C85.2998 146.522 111.918 155.455 133.919 146.067C179.131 126.803 193.002 136.596 220 101.5C319.096 -27.3948 459.048 38.8605 503.205 173.499Z" fill="#D9DDFF"/>
<path d="M306.237 249.763L129.444 295.304C123.447 296.842 117.085 295.937 111.754 292.788C106.423 289.64 102.558 284.504 101.008 278.509L47.5407 70.8136C46.0036 64.8146 46.9081 58.4507 50.0557 53.1181C53.2033 47.7854 58.3371 43.9194 64.3306 42.3683L228.808 0L270.906 18.8521L323.027 221.318C324.564 227.317 323.66 233.681 320.512 239.014C317.364 244.346 312.231 248.212 306.237 249.763Z" fill="#D9DDFF"/>
<path d="M66.0071 48.8801C61.739 49.9847 58.0831 52.7377 55.8416 56.5353C53.6001 60.3328 52.956 64.8646 54.0506 69.1366L107.518 276.832C108.622 281.102 111.374 284.759 115.17 287.001C118.967 289.243 123.497 289.887 127.768 288.792L304.561 243.252C308.829 242.147 312.485 239.394 314.726 235.596C316.968 231.799 317.612 227.267 316.517 222.995L265.204 23.6661L228.207 7.09839L66.0071 48.8801Z" fill="white"/>
<path d="M270.456 19.9236L243.094 26.9716C241.097 27.4861 238.977 27.1859 237.201 26.1368C235.425 25.0878 234.138 23.376 233.624 21.3779L228.42 1.16289C228.397 1.07439 228.399 0.981252 228.427 0.894168C228.455 0.807085 228.507 0.729578 228.576 0.670532C228.646 0.611486 228.731 0.573293 228.821 0.560334C228.912 0.547375 229.004 0.560172 229.088 0.597261L270.532 19.0083C270.624 19.0493 270.701 19.118 270.752 19.2048C270.804 19.2917 270.827 19.3924 270.819 19.493C270.81 19.5936 270.771 19.6891 270.706 19.7662C270.641 19.8434 270.553 19.8984 270.456 19.9236Z" fill="#D9DDFF"/>
<path d="M312.268 197.291L231.776 218.025C231.282 218.152 230.767 218.181 230.261 218.11C229.756 218.038 229.269 217.867 228.829 217.608C228.39 217.348 228.005 217.004 227.699 216.596C227.392 216.188 227.168 215.723 227.041 215.228C226.913 214.734 226.885 214.219 226.956 213.713C227.028 213.207 227.198 212.72 227.458 212.28C227.718 211.841 228.061 211.456 228.47 211.149C228.878 210.842 229.342 210.619 229.837 210.491L310.328 189.757C310.823 189.63 311.338 189.601 311.843 189.673C312.349 189.744 312.835 189.915 313.275 190.175C313.715 190.434 314.099 190.778 314.406 191.186C314.713 191.595 314.936 192.059 315.064 192.554C315.191 193.049 315.22 193.564 315.148 194.069C315.077 194.575 314.906 195.062 314.646 195.502C314.387 195.942 314.043 196.326 313.635 196.633C313.227 196.94 312.762 197.164 312.268 197.291Z" fill="#DCE1E4"/>
<path d="M331.075 206.003L235.05 230.738C234.051 230.996 232.991 230.846 232.103 230.321C231.215 229.796 230.571 228.941 230.314 227.942C230.057 226.942 230.207 225.882 230.732 224.994C231.256 224.105 232.112 223.462 233.11 223.205L329.135 198.469C330.134 198.213 331.193 198.364 332.08 198.888C332.967 199.413 333.61 200.268 333.867 201.267C334.124 202.265 333.975 203.325 333.451 204.213C332.927 205.101 332.073 205.745 331.075 206.003Z" fill="#DCE1E4"/>
<path d="M142.718 242.997C150.309 242.997 156.462 236.842 156.462 229.249C156.462 221.656 150.309 215.501 142.718 215.501C135.128 215.501 128.975 221.656 128.975 229.249C128.975 236.842 135.128 242.997 142.718 242.997Z" fill="#22DDAB"/>
<path d="M247.504 161.311L140.603 188.838C137.514 189.629 134.237 189.163 131.49 187.541C128.744 185.919 126.754 183.273 125.955 180.184L103.553 93.1283C102.761 90.0379 103.227 86.7595 104.849 84.0126C106.471 81.2656 109.116 79.2742 112.203 78.4755L219.104 50.9488C222.194 50.1569 225.471 50.6233 228.217 52.2456C230.963 53.8679 232.954 56.5136 233.752 59.6022L256.155 146.658C256.946 149.749 256.48 153.027 254.858 155.774C253.237 158.521 250.592 160.512 247.504 161.311Z" fill="white"/>
<path d="M247.504 161.311L140.603 188.838C137.514 189.629 134.237 189.163 131.49 187.541C128.744 185.919 126.754 183.273 125.955 180.184L103.553 93.1283C102.761 90.0379 103.227 86.7595 104.849 84.0126C106.471 81.2656 109.116 79.2742 112.203 78.4755L219.104 50.9488C222.194 50.1569 225.471 50.6233 228.217 52.2456C230.963 53.8679 232.954 56.5136 233.752 59.6022L256.155 146.658C256.946 149.749 256.48 153.027 254.858 155.774C253.237 158.521 250.592 160.512 247.504 161.311ZM112.556 79.8464C109.832 80.5512 107.498 82.3083 106.067 84.7321C104.636 87.1559 104.225 90.0486 104.923 92.7754L127.326 179.831C128.03 182.557 129.787 184.891 132.21 186.322C134.633 187.754 137.525 188.165 140.25 187.467L247.151 159.94C249.876 159.235 252.209 157.478 253.64 155.054C255.071 152.63 255.483 149.738 254.784 147.011L232.382 59.9551C231.677 57.2298 229.921 54.8954 227.498 53.464C225.075 52.0326 222.183 51.6211 219.457 52.3197L112.556 79.8464Z" fill="#C5CFD6"/>
<path d="M213.68 80.2204L159.728 94.1127C159.256 94.2444 158.752 94.1921 158.318 93.9663C157.883 93.7405 157.551 93.3581 157.387 92.8963C157.311 92.6551 157.285 92.4009 157.31 92.1492C157.336 91.8975 157.412 91.6537 157.535 91.4325C157.657 91.2113 157.824 91.0175 158.024 90.8628C158.224 90.7081 158.453 90.5957 158.698 90.5327L213.617 76.3911C215.836 77.5156 215.253 79.8153 213.68 80.2204Z" fill="#D9DDFF"/>
<path d="M216.117 89.6869L162.166 103.579C161.694 103.711 161.19 103.659 160.755 103.433C160.321 103.207 159.988 102.825 159.825 102.363C159.748 102.122 159.722 101.867 159.748 101.616C159.773 101.364 159.849 101.12 159.972 100.899C160.095 100.678 160.261 100.484 160.461 100.329C160.661 100.175 160.891 100.062 161.136 99.9992L216.055 85.8577C218.273 86.9821 217.69 89.2818 216.117 89.6869Z" fill="#D9DDFF"/>
<path d="M151.889 111.973L135.424 116.212C134.886 116.35 134.315 116.269 133.837 115.987C133.359 115.704 133.013 115.244 132.874 114.706L127.872 95.2694C127.734 94.7315 127.816 94.1608 128.098 93.6827C128.38 93.2045 128.841 92.8579 129.378 92.7189L145.843 88.4791C146.381 88.3414 146.952 88.4226 147.43 88.705C147.908 88.9873 148.254 89.4478 148.393 89.9853L153.395 109.422C153.533 109.96 153.452 110.531 153.169 111.009C152.887 111.487 152.427 111.834 151.889 111.973Z" fill="#4353FF"/>
<path d="M220.947 109.11L138.607 130.312C138.135 130.444 137.631 130.392 137.197 130.166C136.762 129.94 136.429 129.558 136.266 129.096C136.19 128.855 136.164 128.6 136.189 128.349C136.214 128.097 136.291 127.853 136.413 127.632C136.536 127.411 136.703 127.217 136.903 127.062C137.103 126.908 137.332 126.795 137.577 126.732L220.885 105.281C223.104 106.405 222.52 108.705 220.947 109.11Z" fill="#D9DDFF"/>
<path d="M223.384 118.579L141.045 139.781C140.573 139.913 140.069 139.861 139.634 139.635C139.2 139.409 138.867 139.027 138.703 138.565C138.627 138.324 138.601 138.07 138.627 137.818C138.652 137.566 138.728 137.322 138.851 137.101C138.974 136.88 139.14 136.686 139.34 136.531C139.54 136.377 139.77 136.264 140.015 136.201L223.323 114.75C225.541 115.874 224.957 118.174 223.384 118.579Z" fill="#D9DDFF"/>
<path d="M225.82 128.042L143.48 149.245C143.008 149.376 142.504 149.324 142.07 149.098C141.635 148.872 141.303 148.49 141.139 148.028C141.063 147.787 141.037 147.533 141.062 147.281C141.087 147.029 141.164 146.786 141.287 146.564C141.409 146.343 141.576 146.149 141.776 145.995C141.976 145.84 142.205 145.728 142.45 145.665L225.758 124.213C227.977 125.337 227.393 127.637 225.82 128.042Z" fill="#D9DDFF"/>
<path d="M228.257 137.511L145.918 158.713C145.446 158.845 144.942 158.792 144.507 158.566C144.073 158.341 143.74 157.958 143.577 157.496C143.5 157.255 143.474 157.001 143.5 156.749C143.525 156.498 143.601 156.254 143.724 156.033C143.847 155.811 144.013 155.618 144.213 155.463C144.413 155.308 144.643 155.196 144.888 155.133L228.196 133.681C230.414 134.806 229.831 137.105 228.257 137.511Z" fill="#D9DDFF"/>
<path d="M230.691 146.974L148.351 168.177C147.88 168.308 147.375 168.256 146.941 168.03C146.506 167.804 146.174 167.422 146.01 166.96C145.934 166.719 145.908 166.465 145.933 166.213C145.959 165.962 146.035 165.718 146.158 165.497C146.28 165.275 146.447 165.081 146.647 164.927C146.847 164.772 147.076 164.66 147.321 164.597L230.629 143.145C232.848 144.269 232.264 146.569 230.691 146.974Z" fill="#D9DDFF"/>
<path d="M143.733 234.068C143.433 234.146 143.117 234.124 142.831 234.006L142.813 233.999L139.069 232.411C138.895 232.338 138.738 232.23 138.606 232.096C138.473 231.961 138.369 231.802 138.298 231.627C138.227 231.452 138.192 231.265 138.193 231.076C138.195 230.887 138.234 230.701 138.308 230.527C138.382 230.353 138.489 230.196 138.624 230.064C138.758 229.932 138.918 229.827 139.093 229.757C139.268 229.686 139.455 229.651 139.644 229.653C139.833 229.655 140.019 229.694 140.193 229.768L142.619 230.801L145.798 223.319C145.872 223.146 145.979 222.989 146.113 222.857C146.248 222.725 146.407 222.62 146.582 222.55C146.756 222.479 146.943 222.444 147.132 222.446C147.32 222.448 147.506 222.486 147.68 222.56L147.661 222.609L147.681 222.56C148.031 222.71 148.307 222.992 148.45 223.345C148.592 223.698 148.588 224.093 148.44 224.443L144.699 233.239C144.613 233.442 144.48 233.622 144.313 233.766C144.145 233.909 143.947 234.012 143.733 234.066L143.733 234.068Z" fill="white"/>
<path d="M430.254 328.911H247.693C241.502 328.904 235.566 326.44 231.189 322.061C226.811 317.682 224.349 311.745 224.342 305.552V91.0812C224.349 84.8883 226.811 78.9511 231.189 74.5721C235.566 70.1931 241.502 67.7299 247.693 67.7229H417.536L453.604 96.4811V305.552C453.597 311.745 451.135 317.682 446.757 322.061C442.38 326.44 436.444 328.904 430.254 328.911Z" fill="#D9DDFF"/>
<path d="M247.693 74.4473C243.284 74.4522 239.058 76.2063 235.94 79.3247C232.823 82.4431 231.069 86.6711 231.064 91.0812V305.552C231.069 309.962 232.823 314.191 235.94 317.309C239.058 320.427 243.284 322.181 247.693 322.186H430.254C434.663 322.181 438.889 320.427 442.007 317.309C445.124 314.191 446.878 309.962 446.883 305.552V99.7206L415.185 74.4473H247.693Z" fill="white"/>
<path d="M394.746 136.81H311.629C310.597 136.81 309.608 136.4 308.879 135.671C308.15 134.941 307.74 133.952 307.74 132.92C307.74 131.888 308.15 130.899 308.879 130.17C309.608 129.44 310.597 129.03 311.629 129.03H394.746C395.778 129.03 396.767 129.44 397.496 130.17C398.225 130.899 398.635 131.888 398.635 132.92C398.635 133.952 398.225 134.941 397.496 135.671C396.767 136.4 395.778 136.81 394.746 136.81Z" fill="#EDB726"/>
<path d="M410.787 149.938H311.629C310.599 149.936 309.611 149.526 308.883 148.797C308.155 148.067 307.746 147.079 307.746 146.048C307.746 145.017 308.155 144.029 308.883 143.299C309.611 142.57 310.599 142.16 311.629 142.158H410.787C411.298 142.158 411.804 142.258 412.277 142.453C412.749 142.648 413.178 142.934 413.54 143.296C413.902 143.657 414.189 144.086 414.384 144.558C414.58 145.03 414.681 145.537 414.681 146.048C414.681 146.559 414.58 147.065 414.384 147.538C414.189 148.01 413.902 148.439 413.54 148.8C413.178 149.162 412.749 149.448 412.277 149.643C411.804 149.838 411.298 149.938 410.787 149.938Z" fill="#EDB726"/>
<path d="M394.747 187.861H311.632C310.601 187.861 309.612 188.271 308.883 189C308.154 189.73 307.744 190.719 307.744 191.751C307.744 192.782 308.154 193.771 308.883 194.501C309.612 195.23 310.601 195.64 311.632 195.64H394.747C395.778 195.64 396.767 195.23 397.497 194.501C398.226 193.771 398.635 192.782 398.635 191.751C398.635 190.719 398.226 189.73 397.497 189C396.767 188.271 395.778 187.861 394.747 187.861Z" fill="#DCE1E4"/>
<path d="M410.788 200.991H311.632C310.601 200.991 309.612 201.401 308.883 202.13C308.154 202.86 307.744 203.849 307.744 204.881C307.744 205.912 308.154 206.902 308.883 207.631C309.612 208.36 310.601 208.77 311.632 208.77H410.788C411.82 208.77 412.809 208.36 413.538 207.631C414.267 206.902 414.677 205.912 414.677 204.881C414.677 203.849 414.267 202.86 413.538 202.13C412.809 201.401 411.82 200.991 410.788 200.991Z" fill="#DCE1E4"/>
<path d="M394.746 254.476H311.629C310.597 254.476 309.608 254.066 308.879 253.336C308.15 252.607 307.74 251.617 307.74 250.586C307.74 249.554 308.15 248.565 308.879 247.835C309.608 247.106 310.597 246.696 311.629 246.696H394.746C395.778 246.696 396.767 247.106 397.496 247.835C398.225 248.565 398.635 249.554 398.635 250.586C398.635 251.617 398.225 252.607 397.496 253.336C396.767 254.066 395.778 254.476 394.746 254.476Z" fill="#DCE1E4"/>
<path d="M410.787 267.604H311.629C310.599 267.602 309.611 267.192 308.883 266.462C308.155 265.733 307.746 264.744 307.746 263.714C307.746 262.683 308.155 261.694 308.883 260.965C309.611 260.236 310.599 259.825 311.629 259.824H410.787C411.298 259.823 411.804 259.923 412.277 260.119C412.749 260.314 413.178 260.6 413.54 260.961C413.902 261.323 414.189 261.752 414.384 262.224C414.58 262.696 414.681 263.203 414.681 263.714C414.681 264.225 414.58 264.731 414.384 265.204C414.189 265.676 413.902 266.105 413.54 266.466C413.178 266.827 412.749 267.114 412.277 267.309C411.804 267.504 411.298 267.604 410.787 267.604Z" fill="#DCE1E4"/>
<path d="M277.017 153.232C284.608 153.232 290.761 147.077 290.761 139.484C290.761 131.891 284.608 125.736 277.017 125.736C269.427 125.736 263.273 131.891 263.273 139.484C263.273 147.077 269.427 153.232 277.017 153.232Z" fill="#22DDAB"/>
<path d="M275.654 144.729C275.345 144.729 275.044 144.629 274.796 144.444L274.781 144.432L271.551 141.96C271.401 141.846 271.275 141.703 271.18 141.539C271.085 141.376 271.024 141.196 270.999 141.009C270.974 140.821 270.986 140.631 271.035 140.449C271.084 140.266 271.168 140.095 271.283 139.945C271.397 139.796 271.541 139.67 271.704 139.575C271.868 139.481 272.048 139.42 272.235 139.395C272.422 139.371 272.613 139.383 272.795 139.433C272.977 139.482 273.148 139.566 273.297 139.681L275.39 141.286L280.333 134.834C280.448 134.685 280.591 134.559 280.754 134.465C280.917 134.371 281.097 134.31 281.284 134.285C281.471 134.26 281.661 134.272 281.843 134.321C282.025 134.37 282.196 134.454 282.345 134.569L282.315 134.612L282.346 134.569C282.648 134.801 282.845 135.143 282.895 135.52C282.945 135.898 282.843 136.279 282.612 136.582L276.797 144.167C276.662 144.342 276.489 144.483 276.291 144.58C276.093 144.677 275.876 144.728 275.655 144.727L275.654 144.729Z" fill="white"/>
<path d="M292.174 198.316C292.174 200.121 291.819 201.909 291.129 203.578C290.439 205.246 289.427 206.762 288.151 208.039C286.875 209.317 285.36 210.33 283.692 211.021C282.024 211.712 280.237 212.068 278.432 212.069C278.314 212.071 278.196 212.066 278.078 212.054C275.376 211.985 272.754 211.12 270.541 209.568C268.327 208.015 266.621 205.844 265.635 203.326C264.648 200.809 264.426 198.056 264.997 195.412C265.567 192.769 266.903 190.353 268.84 188.466C270.776 186.578 273.225 185.304 275.882 184.803C278.538 184.301 281.283 184.594 283.774 185.646C286.264 186.697 288.39 188.46 289.884 190.714C291.378 192.967 292.174 195.611 292.174 198.316Z" fill="#DCE1E4"/>
<path d="M277.017 270.898C284.608 270.898 290.761 264.743 290.761 257.15C290.761 249.557 284.608 243.402 277.017 243.402C269.427 243.402 263.273 249.557 263.273 257.15C263.273 264.743 269.427 270.898 277.017 270.898Z" fill="#DCE1E4"/>
<path d="M452.902 97.4066H424.648C422.586 97.4066 420.607 96.587 419.149 95.1281C417.69 93.6691 416.871 91.6903 416.871 89.6271V68.7526C416.871 68.6612 416.897 68.5716 416.945 68.4942C416.994 68.4168 417.063 68.3546 417.146 68.3149C417.228 68.2751 417.32 68.2593 417.41 68.2693C417.501 68.2793 417.587 68.3147 417.659 68.3715L453.204 96.5393C453.283 96.602 453.341 96.6877 453.369 96.7847C453.397 96.8816 453.394 96.9849 453.361 97.0802C453.328 97.1756 453.266 97.2582 453.184 97.3167C453.101 97.3752 453.003 97.4066 452.902 97.4066Z" fill="#D9DDFF"/>
<path d="M293 197.394C293.001 199.312 292.629 201.211 291.906 202.983C291.183 204.754 290.123 206.364 288.787 207.721C287.451 209.077 285.864 210.153 284.117 210.887C282.371 211.621 280.499 211.999 278.609 211.999C278.485 212.002 278.361 211.997 278.238 211.984C276.379 207.28 275.662 202.191 276.148 197.146C276.634 192.102 278.309 187.25 281.032 183C284.38 183.582 287.418 185.346 289.608 187.98C291.798 190.614 292.999 193.949 293 197.394Z" fill="#22DDAB"/>
<path d="M305 189.503C305.002 188.575 305.38 187.685 306.051 187.028C306.723 186.371 307.633 186.002 308.583 186H327.649C328.762 188.215 329.554 190.571 330 193H308.583C307.634 193 306.723 192.632 306.052 191.976C305.38 191.32 305.002 190.431 305 189.503Z" fill="#EDB726"/>
<path d="M331 198C331.001 200.702 330.674 203.392 330.028 206H308.658C307.688 206 306.757 205.579 306.071 204.828C305.385 204.078 305 203.061 305 202C305 200.939 305.385 199.922 306.071 199.172C306.757 198.421 307.688 198 308.658 198H331Z" fill="#EDB726"/>
<path d="M378.422 243.108C377.876 244.002 376.998 244.642 375.979 244.889C374.961 245.136 373.886 244.968 372.992 244.422L326.894 216.32C326.451 216.05 326.065 215.695 325.759 215.276C325.454 214.858 325.233 214.383 325.111 213.879C324.989 213.375 324.967 212.851 325.047 212.339C325.127 211.827 325.308 211.335 325.578 210.893C325.848 210.45 326.203 210.065 326.622 209.759C327.041 209.453 327.516 209.233 328.021 209.111C328.525 208.989 329.048 208.967 329.561 209.047C330.074 209.127 330.565 209.308 331.008 209.578L377.106 237.68C378.001 238.225 378.642 239.104 378.889 240.121C379.136 241.139 378.968 242.213 378.422 243.108Z" fill="#3F3D56"/>
<path d="M332.404 214.903C329.159 220.222 324.41 224.459 318.756 227.079C313.103 229.699 306.799 230.584 300.642 229.622C294.486 228.66 288.752 225.895 284.168 221.675C279.583 217.456 276.353 211.972 274.886 205.917C273.419 199.862 273.78 193.508 275.925 187.658C278.07 181.809 281.901 176.727 286.935 173.054C291.969 169.382 297.979 167.284 304.205 167.027C310.431 166.769 316.593 168.364 321.913 171.608C329.04 175.965 334.146 182.97 336.113 191.087C338.08 199.203 336.746 207.768 332.404 214.903ZM285.333 186.198C282.9 190.187 281.704 194.808 281.897 199.476C282.09 204.145 283.663 208.651 286.418 212.426C289.173 216.2 292.986 219.073 297.374 220.682C301.762 222.29 306.528 222.561 311.07 221.461C315.613 220.361 319.726 217.939 322.892 214.501C326.057 211.063 328.132 206.764 328.853 202.148C329.575 197.531 328.911 192.804 326.946 188.565C324.98 184.326 321.801 180.764 317.812 178.331C312.459 175.075 306.034 174.075 299.945 175.55C293.857 177.025 288.602 180.854 285.333 186.198Z" fill="#3F3D56"/>
<path d="M433 203C441.837 203 449 195.837 449 187C449 178.163 441.837 171 433 171C424.163 171 417 178.163 417 187C417 195.837 424.163 203 433 203Z" fill="#A0616A"/>
<path d="M432.343 277.993C432.034 277.025 431.932 276.003 432.044 274.994C432.155 273.984 432.478 273.009 432.991 272.134C433.504 271.258 434.195 270.501 435.019 269.912C435.843 269.324 436.782 268.917 437.774 268.718C438.088 268.656 438.407 268.617 438.726 268.6L455.608 241.386L440.188 226.662C439.598 226.099 439.126 225.425 438.798 224.678C438.469 223.931 438.291 223.126 438.275 222.31C438.258 221.494 438.402 220.682 438.699 219.922C438.996 219.162 439.441 218.469 440.006 217.882C440.571 217.295 441.247 216.827 441.994 216.504C442.74 216.181 443.543 216.01 444.356 216C445.169 215.991 445.976 216.143 446.73 216.449C447.484 216.754 448.17 217.206 448.749 217.78L470.041 238.866L470.084 238.918C470.742 239.925 471.06 241.118 470.991 242.32C470.921 243.523 470.467 244.67 469.696 245.593L446.042 273.692C446.112 273.917 446.171 274.146 446.218 274.377C446.416 275.373 446.402 276.4 446.177 277.391C445.952 278.381 445.521 279.313 444.912 280.124C444.304 280.936 443.532 281.609 442.646 282.1C441.761 282.591 440.782 282.889 439.774 282.973C439.57 282.991 439.367 283 439.166 283C437.648 282.994 436.172 282.506 434.947 281.607C433.721 280.708 432.81 279.443 432.343 277.993Z" fill="#A0616A"/>
<path d="M406.999 412L398.868 411.999L395 381L407 381.001L406.999 412Z" fill="#A0616A"/>
<path d="M408.999 419L383 418.999V418.684C383 417.413 383.262 416.153 383.77 414.978C384.279 413.803 385.024 412.736 385.964 411.836C386.904 410.937 388.019 410.224 389.247 409.737C390.475 409.25 391.791 409 393.12 409L409 409.001L408.999 419Z" fill="#2F2E41"/>
<path d="M487 400.855L480.108 405L461 380.118L471.172 374L487 400.855Z" fill="#A0616A"/>
<path d="M492 405.866L470.531 419L470.369 418.721C469.716 417.593 469.285 416.345 469.101 415.046C468.917 413.747 468.984 412.424 469.298 411.152C469.612 409.88 470.167 408.684 470.931 407.632C471.695 406.581 472.652 405.694 473.75 405.022L486.863 397L492 405.866Z" fill="#2F2E41"/>
<path d="M394.083 398.283C388.717 334.549 385.524 275.34 405.141 251.187L405.293 251L438.306 264.32L438.36 264.439C438.472 264.684 449.451 289.043 446.89 305.428L455.033 343.21L481.584 388.053C481.798 388.414 481.933 388.816 481.981 389.234C482.028 389.652 481.988 390.075 481.861 390.475C481.734 390.876 481.524 391.245 481.246 391.557C480.967 391.87 480.626 392.119 480.244 392.289L468.706 397.409C468.055 397.695 467.323 397.735 466.645 397.521C465.968 397.307 465.389 396.855 465.015 396.246L436.132 348.741L419.818 312.305C419.73 312.107 419.579 311.944 419.39 311.842C419.2 311.739 418.982 311.702 418.77 311.736C418.557 311.771 418.362 311.875 418.214 312.032C418.066 312.19 417.973 312.392 417.951 312.608L408.907 398.348C408.832 399.076 408.491 399.751 407.951 400.241C407.411 400.731 406.71 401.001 405.984 401H397.014C396.278 400.996 395.57 400.715 395.028 400.213C394.486 399.71 394.149 399.022 394.083 398.283Z" fill="#2F2E41"/>
<path d="M405.604 252.358L405.447 252.282L405.422 252.108C404.194 243.39 405.648 233.704 409.744 223.318C411.763 218.236 415.516 214.057 420.319 211.545C425.122 209.032 430.656 208.352 435.912 209.63C438.939 210.386 441.779 211.772 444.251 213.699C446.722 215.626 448.772 218.052 450.271 220.824C451.75 223.568 452.651 226.594 452.917 229.709C453.183 232.825 452.808 235.962 451.815 238.923C446.651 254.233 439.952 268.558 439.885 268.701L439.745 269L405.604 252.358Z" fill="#4353FF"/>
<path d="M368.762 230.554C369.566 229.916 370.495 229.456 371.488 229.204C372.481 228.952 373.516 228.914 374.525 229.092C375.534 229.27 376.494 229.66 377.343 230.238C378.191 230.815 378.909 231.566 379.448 232.441C379.618 232.719 379.768 233.008 379.897 233.307L411.591 239.746L420.03 219.813C420.352 219.051 420.822 218.361 421.411 217.783C422 217.205 422.697 216.75 423.462 216.444C424.228 216.138 425.045 215.987 425.869 216.001C426.692 216.014 427.504 216.192 428.259 216.523C429.014 216.854 429.696 217.332 430.266 217.929C430.836 218.527 431.282 219.232 431.579 220.004C431.877 220.776 432.019 221.599 431.998 222.427C431.977 223.254 431.793 224.069 431.457 224.825L419.091 252.615L419.057 252.675C418.339 253.66 417.325 254.387 416.165 254.747C415.004 255.108 413.759 255.082 412.614 254.675L377.683 242.091C377.495 242.238 377.3 242.375 377.098 242.502C376.227 243.045 375.252 243.396 374.236 243.533C373.221 243.67 372.188 243.59 371.206 243.298C370.223 243.006 369.314 242.508 368.536 241.838C367.758 241.168 367.13 240.34 366.692 239.409C366.603 239.221 366.523 239.03 366.451 238.838C365.919 237.389 365.856 235.807 366.271 234.32C366.686 232.832 367.557 231.514 368.762 230.554Z" fill="#A0616A"/>
<path d="M491.051 204.633C489.513 201.904 487.272 199.405 484.309 198.396C480.483 197.094 476.34 198.481 472.406 199.407C469.376 200.12 466.209 200.557 463.154 199.955C460.099 199.353 457.153 197.573 455.763 194.784C453.718 190.68 455.441 185.787 455.316 181.203C455.252 178.708 454.623 176.259 453.477 174.043C452.33 171.826 450.696 169.899 448.698 168.407C446.699 166.914 444.389 165.895 441.94 165.427C439.491 164.959 436.967 165.053 434.56 165.703C430.793 164.615 427.383 164.514 425.053 167.414C422.122 167.414 419.31 168.579 417.237 170.655C415.165 172.73 414 175.545 414 178.48H424.569C424.068 181.178 424.64 183.965 426.164 186.246C428.03 188.991 431.274 190.976 431.899 194.236C432.504 197.396 430.359 200.393 428.109 202.69C425.859 204.987 423.249 207.262 422.546 210.401C422.116 212.784 422.605 215.242 423.914 217.279C425.221 219.29 426.842 221.078 428.716 222.575C437.159 229.816 447.193 234.956 457.999 237.573C465.608 239.407 473.932 239.883 480.996 236.508C483.822 235.158 486.341 233.241 488.395 230.876C490.45 228.51 491.997 225.747 492.94 222.757C493.883 219.768 494.202 216.617 493.877 213.499C493.552 210.381 492.59 207.363 491.051 204.633Z" fill="#2F2E41"/>
<path d="M494.344 420H369.656C369.482 420 369.315 419.947 369.192 419.854C369.069 419.76 369 419.633 369 419.5C369 419.367 369.069 419.24 369.192 419.146C369.315 419.053 369.482 419 369.656 419H494.344C494.518 419 494.685 419.053 494.808 419.146C494.931 419.24 495 419.367 495 419.5C495 419.633 494.931 419.76 494.808 419.854C494.685 419.947 494.518 420 494.344 420Z" fill="#DCE1E4"/>
<path d="M141.949 333.341C141.758 333.392 141.596 333.517 141.497 333.688C141.398 333.859 141.371 334.062 141.421 334.253L161.73 410.528C161.781 410.719 161.906 410.881 162.077 410.98C162.247 411.079 162.45 411.106 162.641 411.056L220.169 395.718C220.36 395.667 220.522 395.542 220.621 395.372C220.72 395.201 220.747 394.998 220.697 394.807L200.388 318.532C200.337 318.341 200.212 318.178 200.041 318.079C199.871 317.98 199.668 317.953 199.477 318.004L141.949 333.341Z" fill="#D9DDFF"/>
<path d="M156.085 345.938C155.292 346.15 154.885 347.214 155.176 348.311C155.468 349.407 156.351 350.128 157.144 349.916L194.537 339.947C195.331 339.735 195.738 338.671 195.446 337.574C195.154 336.478 194.272 335.758 193.478 335.969L156.085 345.938Z" fill="white"/>
<path d="M158.384 354.573C157.591 354.785 157.183 355.849 157.475 356.946C157.767 358.042 158.65 358.762 159.443 358.551L196.836 348.581C197.629 348.37 198.037 347.306 197.745 346.209C197.453 345.113 196.57 344.392 195.777 344.604L158.384 354.573Z" fill="white"/>
<path d="M160.683 363.208C159.89 363.42 159.482 364.484 159.774 365.581C160.066 366.677 160.949 367.398 161.742 367.186L199.135 357.217C199.928 357.005 200.336 355.941 200.044 354.844C199.752 353.748 198.869 353.028 198.076 353.239L160.683 363.208Z" fill="white"/>
<path d="M162.982 371.843C162.188 372.055 161.781 373.119 162.073 374.216C162.365 375.312 163.248 376.032 164.041 375.821L201.434 365.851C202.227 365.64 202.634 364.576 202.343 363.479C202.051 362.383 201.168 361.662 200.375 361.874L162.982 371.843Z" fill="white"/>
<path d="M165.28 380.478C164.487 380.69 164.08 381.754 164.372 382.851C164.664 383.947 165.546 384.667 166.34 384.456L203.733 374.486C204.526 374.275 204.933 373.211 204.641 372.114C204.349 371.018 203.467 370.297 202.674 370.509L165.28 380.478Z" fill="white"/>
<path d="M167.581 389.113C166.788 389.325 166.381 390.389 166.673 391.485C166.965 392.582 167.847 393.302 168.64 393.091L206.034 383.121C206.827 382.91 207.234 381.845 206.942 380.749C206.65 379.653 205.768 378.932 204.974 379.144L167.581 389.113Z" fill="white"/>
<path d="M2.66296 261.231C2.489 261.324 2.35908 261.482 2.30171 261.671C2.24435 261.86 2.26422 262.064 2.35698 262.238L39.5093 331.872C39.6024 332.046 39.7607 332.176 39.9495 332.233C40.1383 332.291 40.3421 332.271 40.5163 332.178L93.0347 304.12C93.2087 304.027 93.3386 303.868 93.396 303.679C93.4533 303.49 93.4335 303.286 93.3407 303.112L56.1884 233.479C56.0953 233.305 55.937 233.175 55.7482 233.117C55.5594 233.06 55.3555 233.08 55.1814 233.173L2.66296 261.231Z" fill="#D9DDFF"/>
<path d="M7.54406 263.265L41.5422 326.986L88.1524 302.085L54.1542 238.364L7.54406 263.265ZM4.59057 264.843L4.59711 264.84L4.58984 264.844L4.59057 264.843Z" fill="white"/>
<path d="M19.2971 270.271C18.573 270.658 18.4188 271.787 18.9528 272.788C19.4869 273.789 20.5104 274.289 21.2345 273.902L55.3715 255.664C56.0956 255.278 56.2498 254.148 55.7158 253.147C55.1817 252.146 54.1582 251.646 53.4341 252.033L19.2971 270.271Z" fill="#DCE1E4"/>
<path d="M23.5022 278.154C22.7781 278.541 22.6239 279.67 23.1579 280.671C23.692 281.672 24.7155 282.172 25.4396 281.785L59.5766 263.548C60.3007 263.161 60.4549 262.031 59.9208 261.03C59.3868 260.03 58.3632 259.529 57.6391 259.916L23.5022 278.154Z" fill="#DCE1E4"/>
<path d="M27.7092 286.037C26.9851 286.424 26.8309 287.553 27.365 288.554C27.899 289.555 28.9225 290.055 29.6466 289.668L63.7837 271.431C64.5077 271.044 64.6619 269.914 64.1279 268.914C63.5939 267.913 62.5703 267.412 61.8462 267.799L27.7092 286.037Z" fill="#DCE1E4"/>
<path d="M31.9143 293.92C31.1902 294.307 31.036 295.436 31.57 296.437C32.1041 297.438 33.1276 297.938 33.8517 297.551L67.9887 279.313C68.7128 278.927 68.867 277.797 68.3329 276.796C67.7989 275.795 66.7753 275.295 66.0513 275.682L31.9143 293.92Z" fill="#DCE1E4"/>
<path d="M36.1213 301.803C35.3972 302.19 35.243 303.319 35.7771 304.32C36.3111 305.321 37.3347 305.821 38.0588 305.434L72.1958 287.196C72.9199 286.81 73.074 285.68 72.54 284.679C72.006 283.678 70.9824 283.178 70.2583 283.565L36.1213 301.803Z" fill="#DCE1E4"/>
<path d="M40.3264 309.686C39.6023 310.073 39.4481 311.202 39.9821 312.203C40.5162 313.204 41.5397 313.704 42.2638 313.317L76.4008 295.08C77.1249 294.693 77.2791 293.563 76.7451 292.562C76.211 291.562 75.1875 291.061 74.4634 291.448L40.3264 309.686Z" fill="#DCE1E4"/>
</g>
<defs>
<clipPath id="clip0_1401_74">
<rect width="512" height="420" fill="white"/>
</clipPath>
</defs>
</svg>
