<?xml version="1.0" encoding="UTF-8"?>
<svg width="225px" height="253px" viewBox="0 0 225 253" version="1.1" xmlns="http://www.w3.org/2000/svg" xmlns:xlink="http://www.w3.org/1999/xlink">
    <!-- Generator: sketchtool 52.5 (67469) - http://www.bohemiancoding.com/sketch -->
    <title>6CED337F-2FF5-45AD-B339-C51579B6FDC1</title>
    <desc>Created with sketchtool.</desc>
    <defs>
        <linearGradient x1="49.9947291%" y1="100.002696%" x2="49.9947291%" y2="-0.00673945276%" id="linearGradient-1">
            <stop stop-color="#808080" stop-opacity="0.25" offset="0%"></stop>
            <stop stop-color="#808080" stop-opacity="0.12" offset="54%"></stop>
            <stop stop-color="#808080" stop-opacity="0.1" offset="100%"></stop>
        </linearGradient>
        <linearGradient x1="50.0011482%" y1="100.009238%" x2="50.0011482%" y2="0%" id="linearGradient-2">
            <stop stop-color="#808080" stop-opacity="0.25" offset="0%"></stop>
            <stop stop-color="#808080" stop-opacity="0.12" offset="54%"></stop>
            <stop stop-color="#808080" stop-opacity="0.1" offset="100%"></stop>
        </linearGradient>
        <linearGradient x1="-0.0534515576%" y1="49.9968928%" x2="99.9767032%" y2="49.9968928%" id="linearGradient-3">
            <stop stop-color="#808080" stop-opacity="0.25" offset="0%"></stop>
            <stop stop-color="#808080" stop-opacity="0.12" offset="54%"></stop>
            <stop stop-color="#808080" stop-opacity="0.1" offset="100%"></stop>
        </linearGradient>
    </defs>
    <g id="Job-Post" stroke="none" stroke-width="1" fill="none" fill-rule="evenodd">
        <g id="Employer-dashboard_inactive_B" transform="translate(-900.000000, -159.000000)">
            <g id="Modal" transform="translate(505.000000, 118.000000)">
                <g id="Group-5" transform="translate(48.000000, 41.000000)">
                    <g id="undraw_post_online_dkuk" transform="translate(347.000000, 0.000000)">
                        <g id="Group" opacity="0.2" transform="translate(161.000000, 131.000000)">
                            <path d="M7.75396985,99.6962418 C7.55722412,100.072553 7.33023973,100.431367 7.07537688,100.768954 C4.82197655,99.1428322 2.52998325,97.5464161 0.199396985,95.9797059 L0.350552764,95.6727451 C0.889827435,94.6036962 1.69686268,93.701385 2.68864322,93.0586275 C3.97507538,92.2466667 5.42552764,92.0684314 6.61869347,92.7285621 C7.8118593,93.3886928 8.47758794,94.7089542 8.54834171,96.2503595 C8.5847449,97.4508318 8.31065936,98.6397794 7.75396985,99.6962418 Z" id="Path" fill="#3F3D56"></path>
                            <ellipse id="Oval" fill="#3F3D56" transform="translate(7.192379, 91.641429) rotate(-62.090000) translate(-7.192379, -91.641429) " cx="7.19237906" cy="91.6414294" rx="5.59990002" ry="4.21675603"></ellipse>
                            <ellipse id="Oval" fill="#3F3D56" transform="translate(10.329729, 85.563822) rotate(-62.090000) translate(-10.329729, -85.563822) " cx="10.3297292" cy="85.5638218" rx="5.59990002" ry="4.21675603"></ellipse>
                            <ellipse id="Oval" fill="#3F3D56" transform="translate(13.467079, 79.486214) rotate(-62.090000) translate(-13.467079, -79.486214) " cx="13.4670793" cy="79.4862141" rx="5.59990002" ry="4.21675603"></ellipse>
                            <ellipse id="Oval" fill="#3F3D56" transform="translate(16.601213, 73.411907) rotate(-62.090000) translate(-16.601213, -73.411907) " cx="16.6012134" cy="73.4119071" rx="5.59990002" ry="4.21675603"></ellipse>
                            <path d="M24.201005,24.2763072 C24.0294684,23.3411906 23.9220024,22.3948851 23.879397,21.4443464 L34.4667337,25.1014706 L23.9083417,19.4639542 C24.2180259,13.8024113 26.7865859,8.52184337 31.0094472,4.8651634 L41.239799,20.0481699 L33.2960804,3.16202614 C39.6592643,-0.925236267 47.7135909,-1.02403087 54.1701399,2.90598434 C60.6266889,6.83599954 64.4047257,14.1369958 63.961519,21.8276693 C63.5183123,29.5183428 58.9280486,36.311384 52.0651256,39.4329085 C52.3269059,40.8899403 52.4347326,42.3717084 52.3867337,43.8524837 L36.3063317,43.7204575 L52.1551759,46.4005882 C51.0667212,53.2624439 46.6771793,59.0969371 40.4840201,61.9136601 C42.3503788,72.478223 35.9919402,82.7408332 25.8783447,85.4874279 C15.7647492,88.2340225 5.29267689,82.5421499 1.82343129,72.4128903 C-1.64581431,62.2836307 3.05292291,51.118925 12.6166834,46.7669608 C10.9672344,37.4180479 15.7640137,28.124502 24.2267337,24.2730065 L24.201005,24.2763072 Z" id="Path" fill="#4454FF"></path>
                            <path d="M50.0550754,52.7312418 C47.9547884,56.8144811 44.5734778,60.050958 40.4582915,61.9169608 C42.3246501,72.4815236 35.9662115,82.7441339 25.8526161,85.4907285 C15.7390206,88.2373232 5.26694825,82.5454505 1.79770265,72.4161909 C-1.67154295,62.2869313 3.02719427,51.1222256 12.5909548,46.7702614 C11.8126633,42.3836928 51.1099497,50.6881373 50.0550754,52.7312418 Z" id="Path" fill="#000000" opacity="0.1"></path>
                        </g>
                        <g id="Group" opacity="0.2">
                            <path d="M71.8681672,203.611975 C72.0644525,204.403924 72.32928,205.177646 72.6597106,205.924554 C77.7622401,203.989204 82.9232797,202.130393 88.1428296,200.348121 C88.096463,200.138185 88.0500965,199.921688 87.9971061,199.69207 C87.4672405,197.448785 86.343503,195.385827 84.7415113,193.715446 C82.658328,191.589841 79.9558199,190.55328 77.3559807,191.183089 C74.7561415,191.812898 72.841865,193.961465 71.9774598,196.789045 C71.3269685,199.012948 71.2892323,201.368752 71.8681672,203.611975 Z" id="Path" fill="#3F3D56"></path>
                            <ellipse id="Oval" fill="#3F3D56" transform="translate(76.793621, 188.860382) rotate(-13.720000) translate(-76.793621, -188.860382) " cx="76.7936212" cy="188.860382" rx="8.29815685" ry="10.7681123"></ellipse>
                            <ellipse id="Oval" fill="#3F3D56" transform="translate(73.640217, 176.079693) rotate(-13.720000) translate(-73.640217, -176.079693) " cx="73.6402171" cy="176.079693" rx="8.29815685" ry="10.7681123"></ellipse>
                            <ellipse id="Oval" fill="#3F3D56" transform="translate(70.490910, 163.298910) rotate(-13.720000) translate(-70.490910, -163.298910) " cx="70.4909104" cy="163.29891" rx="8.29815685" ry="10.7681123"></ellipse>
                            <ellipse id="Oval" fill="#3F3D56" transform="translate(67.341604, 150.521408) rotate(-13.720000) translate(-67.341604, -150.521408) " cx="67.3416037" cy="150.521408" rx="8.29815685" ry="10.7681123"></ellipse>
                            <path d="M75.9682958,55.7807325 C76.7292918,54.125982 77.3722709,52.4204454 77.892508,50.6766561 L55.8518328,52.3528662 L78.8231511,46.9699682 C80.9084626,36.3168053 78.4732308,25.2832209 72.0900643,16.4635987 L45.223955,39.7074841 L68.4933441,12.2091083 C58.1963064,1.57877199 42.7704977,-2.47148933 28.5088504,1.71062152 C14.247203,5.89273237 3.53412994,17.6080059 0.74001101,32.0772163 C-2.05410792,46.5464266 3.53787763,61.3504583 15.2347267,70.4500318 C14.0482569,73.0269553 13.1476676,75.7238075 12.5487781,78.4932166 L43.5448232,85.9984395 L11.8168489,83.3348726 C10.6452903,96.6023819 16.3187,109.558389 26.8992283,117.777548 C18.307502,136.47474 25.6675134,158.572278 43.8053076,168.535992 C61.9431019,178.499706 84.7666247,172.983021 96.2313524,155.864067 C107.69608,138.745113 103.951283,115.77374 87.6294855,103.098408 C95.2340984,86.5505279 90.4153451,66.9974454 75.9682958,55.7807325 Z" id="Path" fill="#4454FF"></path>
                            <path d="M12.8037942,96.1081847 C14.9058281,104.691344 19.8725991,112.319985 26.8992283,117.757866 C18.307502,136.455059 25.6675134,158.552596 43.8053076,168.51631 C61.9431019,178.480024 84.7666247,172.963339 96.2313524,155.844386 C107.69608,138.725432 103.951283,115.754058 87.6294855,103.078726 C91.2030225,95.3242038 11.7439871,91.8143312 12.8037942,96.1081847 Z" id="Path" fill="#000000" opacity="0.1"></path>
                        </g>
                        <path d="M187.0394,55.3382397 L186.293011,55.3382397 L186.293011,15.7864941 C186.293011,7.06445613 178.986427,0 169.972855,0 L78.5552129,0 C69.5416403,0 62.2350569,7.07103383 62.2350569,15.7864941 L62.2350569,32.1814261 L62.1781573,32.1814261 L62.0174995,32.1814261 C61.4919619,32.1777736 61.0624186,32.5924965 61.0568996,33.1088826 L61.0568996,41.0021297 C61.0624186,41.5185158 61.4919619,41.9332386 62.0174995,41.9295862 L62.1948925,41.9295862 L62.2517921,41.9295862 L62.2517921,49.9905648 L61.9572528,49.9905648 C61.7051471,49.9888141 61.4626599,50.0855459 61.2831388,50.2594791 C61.1036177,50.4334122 61.0017691,50.6702981 61,50.9180213 L61,66.0105675 C61.0036847,66.5269514 61.4317236,66.9431375 61.9572528,66.9413128 L62.2517921,66.9413128 L62.2517921,72.8612481 L61.9974172,72.8612481 C61.7447343,72.8586192 61.5013855,72.9549621 61.3211385,73.1289901 C61.1408915,73.3030181 61.0385828,73.5404065 61.0368174,73.7887047 L61.0368174,89.0292492 C61.0385828,89.2775474 61.1408915,89.5149358 61.3211385,89.6889638 C61.5013855,89.8629918 61.7447343,89.9593347 61.9974172,89.9567058 L62.2517921,89.9567058 L62.2517921,228.213506 C62.2517921,236.935544 69.5583755,244 78.5719481,244 L169.969508,244 C178.98308,244 186.289664,236.928966 186.289664,228.213506 L186.289664,84.918183 L187.0394,84.918183 C187.564938,84.9218355 187.994481,84.5071126 188,83.9907265 L188,56.2656962 C187.994481,55.7493101 187.564938,55.3345872 187.0394,55.3382397 Z" id="Path" fill="url(#linearGradient-1)"></path>
                        <g id="Group" transform="translate(62.000000, 3.000000)">
                            <rect id="Rectangle" fill="#E5E7EB" x="118.432324" y="54.6639291" width="3.55118919" height="29.2027558" rx="1.77559459"></rect>
                            <rect id="Rectangle" fill="#E5E7EB" x="0.346216216" y="31.7870123" width="1.99486486" height="9.61369714" rx="0.997432432"></rect>
                            <rect id="Rectangle" fill="#E5E7EB" x="0.273675676" y="49.3869168" width="2.24875676" height="16.73191" rx="1.12437838"></rect>
                            <rect id="Rectangle" fill="#E5E7EB" x="0.309945946" y="71.974502" width="2.13994595" height="16.8765757" rx="1.06997297"></rect>
                            <rect id="Rectangle" fill="#FFFFFF" x="1.47389189" y="0.0164392906" width="118.874162" height="240.904652" rx="15"></rect>
                            <rect id="Rectangle" fill="#E5E7EB" x="49.4462703" y="7.21027285" width="16.6018919" height="3.360191" rx="1.6800955"></rect>
                            <ellipse id="Oval" fill="#E5E7EB" cx="70.4665405" cy="8.89036835" rx="1.91243243" ry="1.90695771"></ellipse>
                        </g>
                        <path d="M166.486566,6 L152.772999,6 L152.772999,7.65577217 C152.771165,11.9670615 149.263685,15.4610825 144.937625,15.4610822 L101.215038,15.4610822 C96.8889779,15.4610825 93.3814985,11.9670615 93.3796639,7.65577217 L93.3796639,6 L80.513434,6 C75.2593095,6 71,10.2447665 71,15.4809514 L71,226.519049 C71,231.755233 75.2593095,236 80.513434,236 L166.486566,236 C171.740691,236 176,231.755233 176,226.519049 L176,15.4809514 C176,10.2447665 171.740691,6 166.486566,6 Z" id="Path" fill="#ECECF3"></path>
                        <ellipse id="Oval" fill="#4454FF" cx="30.5" cy="247.5" rx="18.5" ry="2.5"></ellipse>
                        <path d="M34.2699794,243.484669 C35.0230593,242.838113 35.7300324,242.066782 35.9451981,241.150828 C36.1603638,240.234873 35.73618,239.111906 34.7740819,238.774449 C33.6982533,238.394456 32.5486536,239.080713 31.6787694,239.775477 C30.8088852,240.470242 29.8068277,241.264258 28.6664494,241.116798 C29.8648883,240.116735 30.4033806,238.608034 30.0834693,237.146716 C30.0342967,236.851059 29.8982174,236.573493 29.6900235,236.344192 C29.0937071,235.754351 28.0117309,236.006735 27.2955364,236.471801 C25.0240013,237.946404 24.3877255,240.796356 24.3754303,243.362731 C24.1448956,242.435433 24.3385448,241.47127 24.3323972,240.526957 C24.3262496,239.582645 24.0465342,238.524901 23.1797237,238.014462 C22.6379329,237.747168 22.0294374,237.616115 21.4153649,237.634469 C20.3948646,237.600439 19.2637078,237.69402 18.5598085,238.383113 C17.6899242,239.233845 17.9173851,240.677253 18.6704651,241.621566 C19.4235451,242.565878 20.5731448,243.155719 21.6305306,243.807947 C22.4327913,244.304208 23.2473472,244.882705 23.7422284,245.668215 C23.8073121,245.773265 23.859873,245.884508 23.898992,246 L30.3017088,246 C31.7408757,245.329725 33.0756309,244.483676 34.2699794,243.484669 Z" id="Path" fill="#4454FF"></path>
                        <g id="Group" opacity="0.4" transform="translate(195.000000, 222.000000)" fill="#4454FF">
                            <ellipse id="Oval" cx="11.0066667" cy="7.305" rx="10.88" ry="1.656"></ellipse>
                            <path d="M15.5033333,4.596 C15.9994522,4.23190215 16.3619233,3.74152055 16.5433333,3.189 C16.6766667,2.628 16.41,1.956 15.8166667,1.752 C15.15,1.524 14.44,1.938 13.9,2.352 C13.36,2.766 12.7433333,3.252 12.0366667,3.162 C12.7802048,2.55799526 13.1136084,1.64525548 12.9133333,0.762 C12.8831982,0.583902614 12.7989909,0.416756899 12.67,0.279 C12.3,-0.078 11.63,0.075 11.19,0.354 C9.78333333,1.254 9.39,2.967 9.38,4.515 C9.24,3.957 9.36,3.375 9.35666667,2.802 C9.35333333,2.229 9.17666667,1.602 8.64,1.284 C8.30500834,1.1236733 7.92921761,1.04506753 7.55,1.056 C6.91666667,1.035 6.21666667,1.092 5.78,1.506 C5.24333333,2.025 5.38333333,2.892 5.85,3.462 C6.31666667,4.032 7.02666667,4.389 7.68333333,4.782 C8.20620331,5.06386288 8.65260474,5.44717595 8.99,5.904 C9.0301678,5.96767283 9.06257792,6.03506353 9.08666667,6.105 L13.0533333,6.105 C13.9420136,5.70395127 14.7661846,5.19632924 15.5033333,4.596 Z" id="Path"></path>
                        </g>
                        <g id="Group" opacity="0.4" transform="translate(28.000000, 202.000000)" fill="#4454FF">
                            <ellipse id="Oval" cx="11.0333333" cy="7.296" rx="10.88" ry="1.656"></ellipse>
                            <path d="M15.5333333,4.587 C16.03051,4.22309495 16.3922235,3.73111801 16.57,3.177 C16.7033333,2.619 16.44,1.947 15.8433333,1.743 C15.1766667,1.515 14.4666667,1.929 13.93,2.343 C13.3933333,2.757 12.77,3.243 12.0666667,3.153 C12.8073038,2.54729863 13.1401547,1.6360719 12.9433333,0.753 C12.9118339,0.574367648 12.8278196,0.40656916 12.7,0.267 C12.33,-0.087 11.66,0.066 11.2166667,0.345 C9.81,1.245 9.41666667,2.955 9.41,4.503 C9.26666667,3.945 9.38666667,3.363 9.38333333,2.79 C9.38,2.217 9.20666667,1.59 8.67,1.29 C8.33467456,1.1273167 7.95739855,1.04760564 7.57666667,1.059 C6.94666667,1.038 6.24333333,1.095 5.81,1.512 C5.27333333,2.031 5.41333333,2.898 5.88,3.468 C6.34666667,4.038 7.05666667,4.392 7.71,4.788 C8.23425815,5.0682189 8.68103083,5.45185075 9.01666667,5.91 C9.05659494,5.97418132 9.09006173,6.04144957 9.11666667,6.111 L13.08,6.111 C13.9702161,5.70462059 14.7954381,5.19199625 15.5333333,4.587 Z" id="Path"></path>
                        </g>
                        <rect id="Rectangle" fill="#D6D8E0" x="80" y="26" width="18" height="18"></rect>
                        <rect id="Rectangle" fill="#D6D8E0" x="108" y="27" width="36" height="4"></rect>
                        <rect id="Rectangle" fill="#D6D8E0" x="111" y="32" width="58" height="4"></rect>
                        <rect id="Rectangle" fill="#D6D8E0" x="111" y="37" width="58" height="4"></rect>
                        <rect id="Rectangle" fill="#D6D8E0" x="80" y="55" width="18" height="18"></rect>
                        <rect id="Rectangle" fill="#D6D8E0" x="108" y="58" width="36" height="4"></rect>
                        <rect id="Rectangle" fill="#D6D8E0" x="111" y="62" width="58" height="4"></rect>
                        <rect id="Rectangle" fill="#D6D8E0" x="111" y="69" width="58" height="4"></rect>
                        <rect id="Rectangle" fill="#D6D8E0" x="80" y="86" width="18" height="18"></rect>
                        <rect id="Rectangle" fill="#D6D8E0" x="108" y="87" width="36" height="4"></rect>
                        <rect id="Rectangle" fill="#D6D8E0" x="111" y="94" width="58" height="4"></rect>
                        <rect id="Rectangle" fill="#D6D8E0" x="111" y="100" width="58" height="4"></rect>
                        <rect id="Rectangle" fill="#D6D8E0" x="80" y="117" width="18" height="18"></rect>
                        <rect id="Rectangle" fill="#D6D8E0" x="108" y="118" width="36" height="4"></rect>
                        <rect id="Rectangle" fill="#D6D8E0" x="111" y="122" width="58" height="4"></rect>
                        <rect id="Rectangle" fill="#D6D8E0" x="111" y="131" width="58" height="4"></rect>
                        <rect id="Rectangle" fill="#D6D8E0" x="81" y="148" width="18" height="18"></rect>
                        <rect id="Rectangle" fill="#D6D8E0" x="108" y="149" width="36" height="4"></rect>
                        <rect id="Rectangle" fill="#D6D8E0" x="111" y="154" width="58" height="4"></rect>
                        <rect id="Rectangle" fill="#D6D8E0" x="111" y="162" width="58" height="4"></rect>
                        <rect id="Rectangle" fill="#D6D8E0" x="81" y="180" width="18" height="18"></rect>
                        <rect id="Rectangle" fill="#D6D8E0" x="108" y="180" width="36" height="4"></rect>
                        <rect id="Rectangle" fill="#D6D8E0" x="111" y="187" width="58" height="4"></rect>
                        <rect id="Rectangle" fill="#D6D8E0" x="111" y="191" width="58" height="4"></rect>
                        <rect id="Rectangle" fill="#D6D8E0" x="81" y="209" width="18" height="18"></rect>
                        <rect id="Rectangle" fill="#D6D8E0" x="108" y="212" width="36" height="4"></rect>
                        <rect id="Rectangle" fill="#D6D8E0" x="111" y="217" width="58" height="4"></rect>
                        <rect id="Rectangle" fill="#D6D8E0" x="111" y="222" width="58" height="4"></rect>
                        <rect id="Rectangle" fill="url(#linearGradient-2)" x="51" y="76" width="143" height="36"></rect>
                        <rect id="Rectangle" fill="#FFFFFF" x="53" y="76" width="141" height="35"></rect>
                        <rect id="Rectangle" fill="#4454FF" x="81" y="85" width="18" height="18"></rect>
                        <g id="Group" opacity="0.5" transform="translate(109.000000, 86.000000)" fill="#4454FF">
                            <rect id="Rectangle" x="0.186666667" y="0.113333333" width="35.68" height="3.24333333"></rect>
                            <rect id="Rectangle" x="0.186666667" y="5.79" width="58.79" height="3.24333333"></rect>
                            <rect id="Rectangle" x="0.186666667" y="11.4666667" width="58.79" height="3.24333333"></rect>
                        </g>
                        <path d="M101.896445,107.265837 C101.010071,106.379921 99.5371262,106.086812 98.4715223,106.738899 C97.6438056,107.242784 97.1875837,108.181394 96.7704666,109.06731 C96.1610845,110.384657 95.2681932,111.616377 94.9944601,113.039112 C94.241694,116.961514 91.1524204,120.00788 89.9141039,123.798547 C89.470917,125.152121 89.2623584,126.604497 88.561732,127.83951 C88.2306223,128.380252 87.860284,128.895431 87.4537647,129.380806 C85.8503655,131.424668 84.4325141,133.610427 83.2174189,135.911556 C82.5135338,136.049877 81.8878581,136.652564 81.2882523,137.123515 C80.5199659,137.727134 79.6300846,138.153196 78.6812703,138.371702 C78.2993158,138.417196 77.9332339,138.552552 77.6124076,138.766906 C77.1627032,139.145644 77.1007874,139.827371 76.7358099,140.285149 C76.470677,140.58517 76.1341952,140.811876 75.7581917,140.943823 C75.7581917,140.828555 75.7418981,140.713287 75.7386393,140.594726 C75.7223457,139.985453 75.7125695,139.372886 75.7125695,138.76032 C77.8833571,136.177033 77.8750688,132.38252 75.6930171,129.808944 C75.7186891,128.855211 75.8443087,127.906913 76.0677708,126.979941 C76.1818263,126.528749 76.1655326,125.975463 75.8038139,125.682354 C75.6245839,125.540739 75.3932142,125.488045 75.2009493,125.353017 C74.9300291,125.121524 74.7083215,124.836963 74.5492038,124.516501 C73.5522147,123.088542 71.6764499,122.604147 70.1238519,123.373702 C68.9474512,123.999442 68.2337899,125.250922 67.1909971,126.100611 C66.6565658,126.535336 66.0406663,126.861379 65.506235,127.299397 C64.4366965,128.24263 63.6763478,129.492335 63.3261463,130.882582 C62.983476,132.267464 62.784704,133.684696 62.7330579,135.111267 C62.677393,135.53912 62.6939209,135.973414 62.7819388,136.395681 C62.8873522,136.749169 63.0491577,137.082894 63.2609717,137.383692 C64.2541026,139.017027 65.6498378,140.361779 67.31157,141.286333 C67.3182063,141.37073 67.3182063,141.455526 67.31157,141.539922 C67.31157,141.671657 67.2692066,141.800099 67.239878,141.931833 L67.0508718,141.879139 C66.3535041,141.721058 65.6007381,141.740818 64.9750624,141.388427 C63.9061998,140.782448 63.5835858,139.303725 62.5603453,138.625291 C62.4733775,138.568216 62.3818099,138.51864 62.2866122,138.47709 C62.2143593,136.603884 61.8605412,134.75269 61.237302,132.987045 C60.937499,132.143942 60.5692628,131.284373 60.614885,130.385284 C60.6539898,129.552061 61.0482958,128.784707 61.4002383,128.030525 C62.6287786,125.428764 63.4890827,122.668921 64.3330931,119.918959 C64.8740419,118.191038 65.4171631,116.46202 65.9624568,114.731904 C66.493159,114.333797 66.9735987,113.871477 67.3930382,113.355276 C68.2626406,112.332171 68.836535,111.08672 69.0517305,109.755624 C69.260454,108.413972 68.9308503,107.043608 68.1360281,105.94849 C67.7843852,105.424261 67.226251,105.07862 66.6044262,105 C66.058357,105.011958 65.541126,105.250104 65.1738448,105.658674 C64.633627,106.281459 64.2175736,107.003872 63.9485633,107.78619 C63.4141319,109.060723 62.8731832,110.384657 62.9253228,111.767872 C62.9676863,112.913964 63.3913208,114.195085 62.7297992,115.127108 C60.5627454,118.18006 58.9268642,121.690791 57.2095148,125.030267 C56.7754455,125.827833 56.4028472,126.658025 56.09503,127.513466 C55.6798274,128.900889 55.4829879,130.345646 55.5117178,131.794845 C55.4954241,134.511874 55.8636603,137.21573 56.2286378,139.909705 C56.3948329,141.124958 56.6066502,142.415958 57.1769275,143.466543 C56.8033283,144.768465 56.6070841,146.115781 56.5936153,147.471279 C56.5784884,147.784262 56.6272966,148.097041 56.7369993,148.390129 C56.9287892,148.731101 57.171735,149.039955 57.4571781,149.305685 C58.2300497,150.192981 58.5863944,151.374217 58.4347963,152.54636 C58.3392258,153.637598 58.4374463,154.737316 58.7248231,155.793621 C59.3765686,158.718132 60.0283141,161.63935 60.5497105,164.586915 C60.6735085,165.1352 60.7152498,165.699148 60.6735421,166.259946 C60.5725216,167.056941 60.1358521,167.814416 60.2303552,168.614704 C60.3237108,168.985238 60.3933743,169.361459 60.4389137,169.741036 C60.417668,170.030659 60.351695,170.315137 60.2433901,170.584138 C59.5004002,172.767642 57.5028003,177.773562 57.5256114,180.085506 L58.0470078,179.960358 C57.5223526,182.960617 56.2938124,185.829141 55.6485843,188.819519 C55.2010717,190.998276 54.9977496,193.221033 55.042461,195.445776 C55.0854198,196.444907 55.0680075,197.445755 54.9903214,198.442742 C54.8893008,199.328658 54.6644486,200.194814 54.540617,201.077436 C54.4004516,202.260729 54.3481658,203.452969 54.3841981,204.644154 C54.3502727,206.516087 54.4592198,208.387877 54.7100708,210.242881 C55.2086561,213.404514 54.3353171,216.546388 54.09743,219.737662 C53.9768954,221.970315 53.7266281,224.193879 53.3479227,226.396853 C53.1686927,227.325583 52.9438405,228.247726 52.8200089,229.186336 C52.4550314,231.972525 52.986204,234.844343 52.4126679,237.594305 C52.1421935,238.882012 51.6599019,240.327801 52.3703045,241.427786 C52.5951567,241.77359 52.9177707,242.043646 53.1621752,242.376276 C53.4344923,242.696646 53.5210314,243.137689 53.3902862,243.538835 C53.2501609,243.841825 52.9242881,244.039427 52.8428199,244.362177 C52.7124708,244.869356 53.237126,245.284321 53.7063827,245.501683 L53.8399906,245.554377 C53.7780009,245.90542 53.8708464,246.266314 54.0941713,246.542387 C54.3730208,246.808144 54.7193278,246.990548 55.0946006,247.069326 L61.2470782,248.953133 C62.6190024,249.374684 64.1114996,249.789648 65.4834239,249.447138 C65.5143516,249.644447 65.5989735,249.829174 65.7278285,249.980664 C66.0066779,250.246421 66.352985,250.428825 66.7282578,250.507603 L72.8351131,252.378236 C74.4058198,252.859068 76.1296866,253.333313 77.6384775,252.681226 C78.0707767,252.501317 78.4500618,252.212128 78.7399274,251.841417 C79.2249805,251.120617 79.3682413,250.219339 79.1309747,249.381271 C79.054555,248.960018 78.8467179,248.574548 78.5378862,248.281286 C78.1199469,247.98746 77.6260251,247.823741 77.1170811,247.810334 C76.6828247,247.797159 76.25719,247.684552 75.8722472,247.480997 C75.7560844,247.404599 75.6590385,247.302012 75.5887379,247.181301 C75.9406804,246.830008 76.2817606,246.465542 76.6119783,246.087902 C76.3447626,245.995688 76.2502595,245.607071 76.2241897,245.323841 C75.8364012,241.12809 77.4005904,237.027846 77.9936788,232.858442 C78.2932487,230.766579 78.3457566,228.646148 78.1500977,226.541761 C78.0784057,225.748059 77.9708677,224.957651 77.9382804,224.160656 C77.7851202,220.011011 79.7468741,216.019449 79.6784409,211.866511 C79.6458536,209.923424 80.6560591,208.006684 81.148127,206.12617 C81.578279,204.459726 81.5913139,202.714241 81.6010901,200.988515 L81.6792996,187.400077 C81.6792996,185.562378 81.6792996,183.681865 81.0992461,181.946259 C80.8064596,180.980895 80.7263748,179.96245 80.8646177,178.962468 C82.52331,178.22146 84.0940166,177.124768 85.8667644,177.315783 C86.3392799,176.047837 85.7787787,171.822445 85.3355918,170.541325 C83.5932803,165.500801 83.255094,160.073314 84.3579736,154.851718 C84.758797,152.977791 84.2080721,150.985303 84.6545178,149.117963 C84.7364783,148.679651 84.9013409,148.261436 85.1400682,147.886243 C85.3860455,147.506083 85.8084594,147.280807 86.2578117,147.290144 C86.2578117,146.147345 86.2350006,144.984786 86.1600499,143.82552 C86.8797806,143.231597 87.4936721,142.517616 87.9751611,141.714471 C88.9527793,140.067787 89.5100217,138.21362 90.1845783,136.422028 C91.3805313,133.260394 93.0131538,130.293069 94.3850781,127.200596 C95.7570023,124.108123 95.8906102,120.725834 96.9920601,117.52468 C97.5986907,115.761588 98.8529644,114.301777 100.495192,113.44749 C101.146938,113.118153 101.841047,112.881031 102.313562,112.340918 C102.671187,111.890676 102.890914,111.344678 102.945755,110.769981 C103.151785,109.500737 102.764271,108.206644 101.896445,107.265837 Z M63.7693332,243.324766 C63.9029411,243.176565 64.0332902,243.028363 64.1571218,242.866988 C63.7465221,242.801121 63.2446781,242.498131 63.2349019,242.07658 C63.264276,241.653996 63.3542894,241.237973 63.5021176,240.841567 C63.694927,240.126609 63.7261117,239.376973 63.593362,238.648183 C63.5021176,238.137711 63.3326638,237.660173 63.2283845,237.13982 C63.1289453,236.575713 63.0636495,236.006 63.0328608,235.433856 C62.8571211,233.380588 62.4593565,231.352953 61.846684,229.387231 C61.2568543,227.480371 62.0650188,225.550457 62.2735773,223.564556 C62.3745979,222.622653 62.3289757,221.651109 62.6548484,220.765193 C62.8471134,220.238254 63.1632099,219.777182 63.3554748,219.243657 C63.8019205,218.021817 63.5379636,216.661656 63.2642305,215.387122 C65.1933972,211.853338 65.8321077,207.637826 66.558804,203.659437 C66.9672312,201.426533 67.3756583,199.194727 67.7840855,196.964019 C67.9633155,195.976009 68.1620979,194.935304 68.7617038,194.138309 C69.3963939,197.094144 69.6461718,200.121127 69.5046936,203.142378 C69.4296776,204.019552 69.4405931,204.902069 69.5372809,205.777073 C69.6871824,206.735443 70.0814884,207.64112 70.3095993,208.583023 C70.8179608,210.661138 70.5214166,212.844642 70.6354721,214.982038 C70.6778355,215.8449 70.7886323,216.707763 70.8244783,217.570625 C70.9841559,221.387639 69.7197696,225.099266 68.471677,228.705504 C67.7058761,230.915354 67.5364222,233.428194 67.168186,235.743432 C66.8227609,237.959869 66.4805945,240.179599 66.3046232,242.415797 C66.2524836,243.097524 66.2101201,243.799011 66.1286519,244.490619 C65.919047,244.443767 65.706848,244.409674 65.4932001,244.388524 C65.0589437,244.375349 64.6333091,244.262742 64.2483662,244.059187 C64.0180459,243.869727 63.8508346,243.61337 63.7693332,243.324766 Z" id="Shape" fill="url(#linearGradient-3)" fill-rule="nonzero"></path>
                        <path d="M78.6940566,249.259207 C79.2453857,249.269726 79.7805178,249.387427 80.2352747,249.598193 C80.5693644,249.8093 80.7947848,250.086999 80.8786273,250.390751 C81.1355917,250.995138 80.9800723,251.645428 80.4544388,252.164457 C80.1394822,252.43109 79.7279396,252.638301 79.2596412,252.766037 C77.6229807,253.243482 75.7530165,252.897334 74.0491928,252.551187 L67.3752942,251.192857 C66.968472,251.136672 66.5927629,251.005263 66.2900787,250.813289 C65.9139762,250.471383 65.9025991,250.005583 66.2617995,249.655486 C66.6207342,249.318843 67.1099084,249.055386 67.675761,248.893962 C69.7542846,248.211216 72.094391,248.053659 74.3920785,248.025013 C75.2404555,248.013077 76.0746928,247.888941 76.6508821,248.330577 C76.9548839,248.5693 76.9018603,248.822345 77.3578629,249.025259 C77.7710779,249.170925 78.2280932,249.250942 78.6940566,249.259207 Z" id="Path" fill="#3F3D56"></path>
                        <path d="M65.6937839,245.257247 C66.2451211,245.265564 66.7808291,245.382646 67.2349689,245.594083 C67.5671052,245.806357 67.7921501,246.083795 67.8783076,246.387199 C68.135774,246.991992 67.9802226,247.642889 67.4541283,248.162156 C67.1393905,248.429696 66.7278839,248.637862 66.2593564,248.766549 C64.622731,249.24433 62.752807,248.89555 61.0490199,248.549159 L54.3752647,247.189872 C53.967946,247.134616 53.5918711,247.002983 53.2900725,246.810036 C52.913978,246.467889 52.9026012,246.00176 53.2617939,245.651417 C53.6199168,245.314019 54.1093178,245.050249 54.6757251,244.889356 C56.7542039,244.206129 59.0907252,244.048461 61.3742241,244.019794 C62.219048,244.019794 63.0568022,243.883627 63.6329792,244.325574 C63.9369744,244.564465 63.883952,244.820078 64.3399448,245.020746 C64.7588622,245.167918 65.2218113,245.24879 65.6937839,245.257247 Z" id="Path" fill="#3F3D56"></path>
                        <path d="M72.0554826,177.165764 C68.3964916,176.799713 64.7157431,176.696842 61.0418836,176.85795 C60.7993451,176.854925 60.5580253,176.892563 60.3280392,176.969287 C59.5187963,177.296749 59.3937913,178.351176 59.3148407,179.215675 C59.0056178,182.709692 57.4562136,185.967937 56.6831564,189.396462 C56.2309417,191.549466 56.0256724,193.746606 56.0712897,195.945698 C56.1142575,196.928231 56.09668,197.912462 56.0186561,198.892854 C55.9166783,199.770451 55.6896955,200.625127 55.5646905,201.512548 C55.4232001,202.681427 55.3704169,203.85926 55.4067894,205.036037 C55.3728704,206.883159 55.4828534,208.730119 55.73575,210.560317 C56.2390596,213.684303 55.3574454,216.782091 55.1173042,219.938823 C54.9954354,222.144641 54.7427924,224.341369 54.3606949,226.51753 C54.1797666,227.434423 53.9527838,228.344767 53.8277788,229.271484 C53.459343,232.025438 53.9955487,234.864531 53.4165781,237.57919 C53.1435409,238.849741 52.6566793,240.277475 53.3738133,241.364648 C53.600796,241.708483 53.926467,241.973727 54.1731874,242.301189 C54.4475419,242.617405 54.5349686,243.05379 54.4034598,243.450579 C54.2620067,243.74857 53.9330462,243.945047 53.8508061,244.262685 C53.7192218,244.763701 54.2488483,245.176303 54.7225515,245.389153 C58.2917734,246.990441 62.8939315,245.860698 65.3019226,242.785832 C64.8874324,242.72034 64.3808331,242.422349 64.3709643,242.006473 C64.4005985,241.588418 64.4914755,241.176922 64.640712,240.78504 C64.8356017,240.078657 64.8670938,239.337486 64.7328209,238.617243 C64.640712,238.116227 64.4696525,237.634858 64.3643851,237.127292 C64.2640073,236.570797 64.1980909,236.008686 64.1670088,235.444139 C63.9895612,233.415421 63.5879973,231.412356 62.9695924,229.471236 C62.3741738,227.58833 63.1899959,225.682503 63.4005307,223.717732 C63.5025085,222.791015 63.456454,221.828277 63.7854145,220.953954 C63.9795013,220.43329 64.298593,219.971569 64.4926797,219.450905 C64.9433557,218.242571 64.6768976,216.903252 64.4005708,215.642524 C66.3480172,212.148507 66.9927799,207.986468 67.7263619,204.056926 C68.1386591,201.852017 68.5509563,199.647107 68.9632535,197.442198 C69.1441818,196.459813 69.3448478,195.441406 69.9501352,194.652224 C70.590951,197.572372 70.8431238,200.563741 70.7001652,203.54936 C70.6255613,204.409559 70.6365803,205.274993 70.7330613,206.133034 C70.8843831,207.079398 71.2824254,207.973369 71.5126977,208.906635 C72.0258762,210.956546 71.7265221,213.114519 71.8416583,215.226648 C71.8844232,216.078048 71.9962698,216.929449 72.0324554,217.784124 C72.1936461,221.55321 70.9172792,225.220782 69.6573603,228.780291 C68.884303,230.964461 68.7132435,233.446622 68.3415181,235.732305 C67.9928199,237.923024 67.6474113,240.113744 67.4697726,242.324111 C67.308582,244.354374 67.2395003,246.551643 65.9697126,248.146382 C67.1276537,248.896269 68.3283597,249.659255 69.6836771,249.91795 C71.2675848,250.164055 72.888126,249.852541 74.2660975,249.037078 C75.6336564,248.220785 76.8563139,247.185155 77.8846635,245.972035 C77.6149159,245.880346 77.5195173,245.493941 77.4932005,245.215598 C77.1017374,241.073207 78.680748,237.029054 79.2794562,232.903035 C79.5818419,230.836265 79.6348519,228.740915 79.4373573,226.661613 C79.364986,225.87898 79.256429,225.099621 79.2235329,224.313712 C79.0689215,220.213891 81.049264,216.267976 80.9801823,212.168155 C80.9472862,210.249229 81.9670639,208.353225 82.4637943,206.496516 C82.8980222,204.859208 82.9111807,203.126935 82.9210495,201.424133 L83,187.9982 C83,186.180787 83,184.324079 82.4144502,182.608179 C81.690737,180.548444 82.516428,178.177621 82.641433,176 C79.2234772,177.074704 75.6267731,177.470786 72.0554826,177.165764 Z" id="Path" fill="#3F3D56"></path>
                        <path d="M83.2245968,137.308903 C84.6105346,134.431948 86.3034492,131.718119 88.2729196,129.216181 C88.6833777,128.726929 89.0580801,128.207899 89.3940364,127.663236 C90.1029779,126.418202 90.3140116,124.948928 90.7624583,123.583406 C92.0154712,119.754592 95.1414085,116.678822 95.9031085,112.71948 C96.1800902,111.283675 97.0835785,110.041988 97.7001927,108.703242 C98.1222602,107.806281 98.5838965,106.862465 99.4214367,106.360436 C100.499687,105.691062 101.990113,106.002321 102.887006,106.895934 C103.761692,107.841755 104.152922,109.146861 103.945473,110.426877 C103.891724,111.008312 103.669082,111.560453 103.305777,112.013292 C102.827653,112.558831 102.112117,112.806499 101.465826,113.134492 C99.8060319,113.990529 98.5361069,115.464157 97.9211186,117.24779 C96.8197863,120.480862 96.6812954,123.901359 95.2831968,127.017291 C93.8850983,130.133223 92.242992,133.128667 91.0328453,136.31823 C90.3502831,138.128885 89.7996169,139.999783 88.7972066,141.673215 C87.7947963,143.346648 86.218638,144.748985 84.3259291,145 C84.328544,143.790668 84.1415515,142.588617 83.7719656,141.438935 C83.3729799,140.110229 82.6244696,138.540549 83.2245968,137.308903 Z" id="Path" fill="#A0616A"></path>
                        <path d="M61.4830983,140.381966 C61.5626593,138.071337 61.2201809,135.766075 60.4741397,133.590547 C60.1876453,132.757144 59.8357555,131.910668 59.8793524,131.024973 C59.9167213,130.204643 60.2935237,129.446409 60.6298432,128.704517 C61.8038474,126.138942 62.6259618,123.416492 63.4325058,120.703846 L64.9895406,115.592307 C65.4957963,115.199857 65.954839,114.744426 66.3566171,114.235984 C67.1860611,113.228468 67.7345416,112.000294 67.9416785,110.686667 C68.1407622,109.362458 67.8255537,108.009768 67.066625,106.931451 C66.7298514,106.413666 66.1961755,106.074032 65.6030123,106 C65.0806795,106.00954 64.5855704,106.24627 64.2359357,106.65365 C63.7199264,107.266931 63.3222729,107.979519 63.0650456,108.751865 C62.5543382,110.006872 62.0374026,111.314171 62.0872277,112.673762 C62.1277107,113.804576 62.5325397,115.066119 61.9003836,115.984497 C59.8295273,118.994553 58.2662644,122.455627 56.6251497,125.746753 C56.2104337,126.53263 55.854364,127.351052 55.5601379,128.19467 C55.1628698,129.564674 54.9747356,130.992041 55.0027195,132.423783 C54.9871491,135.103746 55.339039,137.767368 55.6878148,140.424453 C55.9057997,142.084723 56.1985222,143.895332 57.397439,145 C58.6461809,143.336462 59.8980368,141.695802 61.4830983,140.381966 Z" id="Path" fill="#A0616A"></path>
                        <circle id="Oval" fill="#A0616A" cx="72.5" cy="137.5" r="6.5"></circle>
                        <path d="M67.3821429,141.357168 C67.2035714,142.585764 66.4857143,143.68039 65.7857143,144.739073 C65.3607143,145.392581 64.825,146.088568 64,146.160453 C66.1451824,147.192811 68.3996615,148.022688 70.7285714,148.63725 C71.5216228,148.880409 72.3528915,149.002934 73.1892857,148.999947 C73.8970749,148.951635 74.589918,148.789014 75.2357143,148.519618 C78.0986315,147.371562 80.2246396,145.081781 81,142.31129 C80.0785213,142.333902 79.1569562,142.269297 78.25,142.118505 C77.7428571,142.033549 77.1964286,141.896312 76.9,141.51401 C76.6941092,141.181204 76.597394,140.801169 76.6214286,140.419384 C76.5857143,139.288815 76.5857143,138.158245 76.6214286,137.027676 C74.8007057,136.920436 72.9741126,137.125454 71.2357143,137.632171 C70.5214286,137.844561 69.8071429,138.102697 69.075,138.269342 C68.625,138.370636 67.3857143,138.269342 67.0535714,138.507872 C66.55,138.870569 67.5142857,140.523945 67.3821429,141.357168 Z" id="Path" fill="#A0616A"></path>
                        <path d="M69.8290672,147.024887 C69.6732956,145.138377 68.3583319,143.565117 66.5634162,143.11777 C65.858931,142.959191 65.098482,142.976061 64.4664205,142.618414 C63.3866488,142.000968 63.0607421,140.496155 62.0270582,139.80448 C60.9933744,139.112805 59.5185642,139.497444 58.6165598,140.37469 C57.7145554,141.251935 57.2569692,142.493576 56.8882667,143.708224 C56.3362292,145.354726 56.0374753,147.079228 56.0027222,148.819867 C55.9874226,149.139416 56.0367369,149.458757 56.1475696,149.757845 C56.3422478,150.10552 56.5875852,150.420687 56.8750987,150.692449 C57.6550576,151.591174 58.0154673,152.792926 57.8626948,153.985495 C57.7662051,155.09788 57.865443,156.218985 58.1556816,157.29541 C58.814079,160.267924 59.4724764,163.243811 59.9991943,166.243317 C60.1226086,166.796134 60.1647723,167.364744 60.1242898,167.930328 C60.0222382,168.740093 59.581112,169.512744 59.6765796,170.32251 C59.770883,170.700979 59.8412583,171.085292 59.8872667,171.473051 C59.8657559,171.766488 59.7990924,172.054591 59.6897475,172.326679 C58.9391745,174.553533 56.9211865,179.648307 56.9442304,182 C60.4501965,181.078892 65.618616,180.873077 69.2365096,180.859581 C70.2334945,180.845447 71.2304413,180.89051 72.2223417,180.994541 C74.6024483,181.254341 77.0385186,181.96626 79.3462014,181.308325 C81.4859929,180.697627 83.3854693,178.94651 85.6009765,179.169195 C86.0783146,177.876945 85.5120929,173.575067 85.0643827,172.272694 C83.3044374,167.144851 82.9626372,161.618005 84.0767866,156.303448 C84.481701,154.393751 83.9253552,152.369338 84.3763574,150.469764 C84.4586006,150.022654 84.625219,149.5963 84.8668635,149.214628 C85.1161281,148.826443 85.5427152,148.596999 85.996015,148.607304 C86.0370437,145.557206 85.761157,142.511297 85.1730182,139.521062 C84.9524551,138.458245 84.4948689,137.203109 83.4513091,137.020912 C82.5098008,136.858959 81.716432,137.672098 80.962567,138.272674 C80.1842843,138.885334 79.2858599,139.318116 78.3289774,139.541306 C77.9433464,139.58665 77.573494,139.724178 77.2492057,139.942815 C76.7949115,140.327453 76.7323638,141.022502 76.3636613,141.491491 C75.7052639,142.331623 74.2337457,142.257394 73.7662836,143.225738 C73.6610294,143.514589 73.5773905,143.811236 73.5160926,144.113106 C73.2953265,144.686848 72.9196413,145.184249 72.4330289,145.547066 C71.6971753,146.252148 70.8026451,146.759819 69.8290672,147.024887 Z" id="Path" fill="#4454FF"></path>
                        <path d="M75.9393553,126.744938 C76.0497084,126.31701 76.0339437,125.80787 75.6839667,125.520502 C75.5105547,125.386189 75.2866956,125.336212 75.1006718,125.208146 C74.8385033,124.989866 74.6239479,124.720983 74.4700826,124.417885 C73.4960706,123.07002 71.681413,122.616951 70.1789234,123.346504 C69.04071,123.936857 68.3502149,125.117563 67.3412722,125.917195 C66.8241891,126.329505 66.2282824,126.635614 65.7111993,127.0448 C64.6776188,127.932723 63.9418106,129.111684 63.6018785,130.424493 C63.2712163,131.730628 63.0799394,133.067557 63.0311954,134.41328 C62.9773216,134.816987 62.9933155,135.226839 63.0784896,135.625221 C63.1814867,135.955253 63.3380283,136.266473 63.5419726,136.546672 C64.5792917,138.108452 65.9539761,139.529672 67.6723315,140.332427 C69.390687,141.135182 71.48109,141.269495 73.1773749,140.429257 C73.3474344,140.358421 73.4938739,140.241495 73.5998696,140.091913 C73.6970888,139.863985 73.7191581,139.61146 73.6629285,139.37037 C73.5733014,138.41646 73.7649712,137.457277 74.214694,136.609143 C74.5299886,135.984431 74.9997775,135.447178 75.2551661,134.797478 C75.4868525,134.073106 75.5871947,133.313806 75.551543,132.554761 C75.5767666,130.596288 75.4411899,128.637816 75.9393553,126.744938 Z" id="Path" fill="#2D293D"></path>
                        <rect id="Rectangle" fill="#4454FF" x="81" y="85" width="18" height="18"></rect>
                        <path d="M90.7277567,98.848807 C90.4882436,99.2952256 90.0907876,99.6437162 89.6077286,99.8308509 C89.322194,99.9317146 89.0214716,99.9866541 88.7175329,99.9934824 C88.3891039,100.016784 88.0591375,99.9774655 87.7464103,99.8777638 C87.3299372,99.7194539 86.9723918,99.4437513 86.7202574,99.0864991 C86.4712771,98.7292205 86.2710817,98.3423795 86.1246356,97.9355687 C86.0262887,97.7326475 85.9849798,97.5082837 86.0048638,97.2850428 C86.2606525,97.2548931 86.4935515,97.1277583 86.6522788,96.9316321 C86.7463938,96.7341341 86.7522472,96.5079213 86.6684642,96.3061264 C86.6490418,96.2435758 86.6296193,96.1841528 86.6069598,96.1278573 C86.5584036,95.990246 86.3900757,95.7306612 86.5066104,95.6149426 C86.6231452,95.4992241 86.8950595,95.5023516 87.001883,95.4554387 C87.3185172,95.2726345 87.6564481,95.1267091 88.0086134,95.0207122 C88.3278717,94.9796139 88.6523869,94.9998075 88.9635506,95.0801353 C89.0060941,95.0868789 89.0468147,95.1017653 89.0833224,95.1239207 C89.1242173,95.1567068 89.1545452,95.2001166 89.1707235,95.2490218 C89.2613616,95.4616937 89.3131548,95.6962584 89.3843704,95.9151853 C89.446513,96.1447914 89.5691954,96.354914 89.7404487,96.5250534 C89.8882863,96.6462935 90.0555645,96.7434751 90.2357212,96.812786 L90.6694893,97.0035652 C90.7455879,97.0328351 90.8149087,97.0764218 90.8734251,97.1317939 C90.9289029,97.2073753 90.9624337,97.2959244 90.9705373,97.3882512 C91.0508815,97.8876569 90.9659133,98.3988214 90.7277567,98.848807 Z" id="Path" fill="#A0616A"></path>
                        <path d="M89,96.5787931 C88.0288361,97.0283679 86.5001094,97.1298938 85.2771239,96.826037 C85.2505003,96.786478 85.2238766,96.7488969 85.1928156,96.7132938 C85.1262565,96.6262639 84.895518,96.462094 85.05526,96.3889098 C85.215002,96.3157256 85.5877334,96.3177036 85.7341635,96.2880343 C86.1681955,96.172423 86.6314202,96.080135 87.1141569,96.0130991 C87.5517859,95.9871071 87.9966207,95.9998783 88.4231539,96.0506802 C88.4814711,96.0549451 88.5372895,96.0643597 88.5873332,96.0783715 C88.6433905,96.0991065 88.6849631,96.1265602 88.7071397,96.1574895 C88.8313834,96.297924 88.9023799,96.4403365 89,96.5787931 Z" id="Path" fill="#000000" opacity="0.1"></path>
                        <circle id="Oval" fill="#A0616A" cx="86" cy="96" r="2"></circle>
                        <path d="M95,102 L83.9817262,102 C83.6443632,101.365308 83.3407366,100.72777 83,100.093078 C83.0363836,99.9420796 83.1037434,99.7976018 83.1990441,99.6661546 C83.2980772,99.5358235 83.4676437,99.4557558 83.6511105,99.4526932 C83.7489457,99.4526932 83.8602755,99.4840008 83.9311217,99.4242316 C84.001968,99.3644624 83.9783525,99.3160778 84.028957,99.2762317 C84.0795614,99.2363855 84.2010121,99.2363855 84.2954737,99.2420778 C84.5013863,99.2476439 84.6967432,99.1652377 84.8150127,99.0229241 C84.8511654,98.9698982 84.8953992,98.9210981 84.9465842,98.8777703 C85.0352701,98.8414347 85.1315567,98.8201596 85.2299691,98.8151549 C85.5032331,98.7639242 85.6651673,98.5305396 85.8709587,98.3853858 C85.9719568,98.2892147 86.1307091,98.2523837 86.2757942,98.2914628 C86.3088318,98.3058398 86.3376467,98.3262598 86.3601349,98.351232 C86.4155033,98.4229431 86.4533523,98.5032549 86.4714647,98.5874627 C86.5936144,99.0601721 86.9044501,99.4831653 87.351982,99.785693 C87.8335723,100.092861 88.4540166,100.199756 89.0398019,100.076484 C89.6255871,99.9532112 90.1138366,99.6130028 90.3680067,99.151001 C90.5310614,98.8070154 90.6245712,98.442393 90.6446444,98.072309 C90.6446444,98.0523859 90.6446444,98.0410013 90.6446444,98.0239244 C90.9225547,97.9657978 91.2167111,98.014805 91.4475682,98.1576936 C91.6714857,98.3023788 91.9109282,98.4291083 92.1627776,98.5362319 C92.4630306,98.6358473 92.8375035,98.6358473 93.0432949,98.8208472 C93.1310093,98.8948472 93.1917346,98.9973087 93.3030644,99.0428471 C93.372241,99.0657259 93.4449542,99.0801035 93.5189767,99.0855394 C93.9008435,99.1725232 94.2134925,99.403712 94.3657577,99.7116931 C94.6099746,100.168418 94.7692812,100.654172 94.8380658,101.151846 L95,102 Z" id="Path" fill="#F86D70"></path>
                        <path d="M85.4131972,91.3842379 C85.28557,91.5009276 85.177322,91.6422714 85.0934965,91.8016841 C84.9361357,92.0947087 84.7163325,92.3386639 84.4540952,92.5113426 C84.3441252,92.5547654 84.2439894,92.6250127 84.160816,92.7170839 C84.1199557,92.7870368 84.0937521,92.8665745 84.0841936,92.9496611 C84.0305553,93.2389785 84.003112,93.5336992 84.0022868,93.8292798 C83.9924969,93.9780157 84.0142338,94.1272442 84.0656985,94.2646166 C84.1185416,94.3898504 84.2189434,94.4971937 84.2374385,94.6343546 C84.2412875,94.7428868 84.2305985,94.851453 84.2057327,94.9563845 C84.1803852,95.0690374 84.2192757,95.1876569 84.3034924,95.2545604 C84.3513538,95.2737589 84.4009918,95.2867631 84.451453,95.2933232 C84.7156684,95.3589219 84.8055017,95.7107694 84.845134,96 C84.9349672,96 84.9745995,95.8777479 84.9957368,95.7823316 L85.2599522,94.395814 C85.2916581,94.246726 85.3392168,94.0708023 85.4739667,94.0201124 C85.5662755,93.9977943 85.6617263,93.9977943 85.7540351,94.0201124 C86.1186523,94.0558935 86.4251422,93.7368453 86.7818331,93.6473926 C86.8967495,93.6230405 87.0139161,93.6150267 87.1305974,93.6235385 C87.4106658,93.6235385 87.7382929,93.7696447 87.7990625,94.0648388 C87.7990625,94.1125469 87.8149154,94.1721821 87.8545477,94.1960361 C87.8950982,94.2093712 87.9381785,94.2093712 87.9787289,94.1960361 C88.1557533,94.1751638 88.2614395,94.4017775 88.3142825,94.5866465 L88.4992333,95.2635057 C88.528297,95.3648855 88.5758558,95.4871375 88.6736155,95.4990646 C88.7661466,95.4984392 88.8440288,95.4207371 88.8559242,95.3171773 C88.8598863,95.2160672 88.847348,95.1149963 88.818934,95.0190015 C88.7317429,94.5777012 88.8664928,94.1244739 88.9483996,93.6801919 C89.0303063,93.2359099 89.0435171,92.7260292 88.7687331,92.383127 C88.6683312,92.2608749 88.5362235,92.1684404 88.4437481,92.037243 C88.3512727,91.9060456 88.3089982,91.765903 88.219165,91.6436509 C87.8602763,91.2883595 87.4125425,91.0674938 86.9377202,91.0115181 C86.4078251,90.9586483 85.8761956,91.0886226 85.4131972,91.3842379 Z" id="Path" fill="#3F3D56"></path>
                        <g id="Group" opacity="0.1" transform="translate(84.000000, 94.000000)" fill="#000000">
                            <path d="M4.6075,2.84363636 C4.515,2.84363636 4.47,2.68 4.4425,2.55636364 L4.2675,1.73090909 C4.2175,1.50545455 4.1175,1.22909091 3.95,1.25090909 C3.91163124,1.26717173 3.87086876,1.26717173 3.8325,1.25090909 C3.795,1.22181818 3.79,1.15272727 3.78,1.09090909 C3.7225,0.727272727 3.4125,0.570909091 3.1475,0.552727273 C3.03698864,0.541750254 2.9259643,0.552760931 2.8175,0.585454545 C2.48,0.690909091 2.19,1.08 1.845,1.03636364 C1.75740643,1.01284745 1.66759357,1.01284745 1.58,1.03636364 C1.4525,1.10181818 1.4075,1.31272727 1.3775,1.49818182 C1.29,2.06181818 1.205,2.62545455 1.1275,3.18545455 C1.1075,3.30181818 1.07,3.44363636 0.985,3.45090909 C0.9475,3.08727273 0.8625,2.66909091 0.6125,2.58909091 C0.564553965,2.58283502 0.517437375,2.56692553 0.4725,2.54181818 C0.439217283,2.51576699 0.413484974,2.47317558 0.4,2.42181818 C0.4,2.47272727 0.385,2.52727273 0.38,2.57818182 C0.356016305,2.71556605 0.392814403,2.86022688 0.4725,2.94181818 C0.517786356,2.96523141 0.564753779,2.98109054 0.6125,2.98909091 C0.8625,3.06909091 0.9475,3.49818182 0.985,3.85090909 C1.07,3.85090909 1.1075,3.70181818 1.1275,3.58545455 C1.215,3.02181818 1.3,2.45818182 1.3775,1.89454545 C1.4075,1.71272727 1.4525,1.49818182 1.58,1.43636364 C1.66734235,1.40914588 1.75765765,1.40914588 1.845,1.43636364 C2.19,1.48 2.48,1.09090909 2.8175,0.981818182 C2.92623365,0.952119873 3.03709641,0.942346847 3.1475,0.952727273 C3.4125,0.952727273 3.7225,1.13090909 3.78,1.49090909 C3.78,1.54909091 3.795,1.62181818 3.8325,1.65090909 C3.87086876,1.66717173 3.91163124,1.66717173 3.95,1.65090909 C4.1175,1.62545455 4.2175,1.90181818 4.2675,2.12727273 L4.4425,2.95272727 C4.47,3.07636364 4.515,3.22545455 4.6075,3.24 C4.69505267,3.23923738 4.7687446,3.14447675 4.78,3.01818182 C4.78532948,2.91974906 4.77682335,2.82076861 4.755,2.72727273 C4.72576658,2.80476393 4.66809793,2.85025908 4.6075,2.84363636 Z" id="Path"></path>
                            <path d="M0.4,1.79636364 C0.3825,1.62909091 0.2875,1.49818182 0.2375,1.34545455 C0.204665258,1.24243237 0.185172677,1.13148646 0.18,1.01818182 C0.18,1.08 0.18,1.13818182 0.18,1.2 C0.170736878,1.38138877 0.19130421,1.56337849 0.24,1.73090909 C0.28,1.85454545 0.35,1.96363636 0.385,2.09454545 C0.402662781,1.99736293 0.407749217,1.89625076 0.4,1.79636364 Z" id="Path"></path>
                            <path d="M4.8675,0.629090909 C4.76817361,1.10017396 4.72009304,1.59094858 4.725,2.08363636 C4.75753308,1.72579278 4.8051224,1.37118786 4.8675,1.02181818 C4.90911021,0.754816425 4.92343084,0.480350445 4.91,0.207272727 C4.90210923,0.349065966 4.88791284,0.489966952 4.8675,0.629090909 Z" id="Path"></path>
                        </g>
                        <path d="M84.857272,103 L82,103 C82.126061,102.165676 82.3516956,101.352688 82.6712205,100.581514 C82.6963041,100.502196 82.7376947,100.430103 82.7922603,100.370692 C82.8039965,100.356654 82.8175944,100.344588 82.8326069,100.334893 C82.9169679,100.263293 83.0343398,100.235448 83.1260366,100.167826 C83.2177334,100.100204 83.228737,100.028604 83.3130981,100.00076 C83.6305529,99.9926641 83.9465834,100.049336 84.2447375,100.167826 C84.3291119,100.178117 84.4117931,100.200868 84.4904849,100.235448 C84.6764517,100.347347 84.8156468,100.532482 84.8792793,100.752559 C85.1213588,101.46458 84.9379652,102.236268 84.857272,103 Z" id="Path" fill="#F86D70"></path>
                    </g>
                </g>
            </g>
        </g>
    </g>
</svg>