<?xml version="1.0" encoding="UTF-8"?>
<svg width="221px" height="248px" viewBox="0 0 221 248" version="1.1" xmlns="http://www.w3.org/2000/svg" xmlns:xlink="http://www.w3.org/1999/xlink">
    <!-- Generator: sketchtool 52.5 (67469) - http://www.bohemiancoding.com/sketch -->
    <title>21EAC989-49B2-4B38-A69E-FA812F116A18</title>
    <desc>Created with sketchtool.</desc>
    <defs>
        <linearGradient x1="49.9947291%" y1="100.002696%" x2="49.9947291%" y2="-0.00673945276%" id="linearGradient-1">
            <stop stop-color="#808080" stop-opacity="0.25" offset="0%"></stop>
            <stop stop-color="#808080" stop-opacity="0.12" offset="54%"></stop>
            <stop stop-color="#808080" stop-opacity="0.1" offset="100%"></stop>
        </linearGradient>
        <linearGradient x1="50.0011482%" y1="100.009238%" x2="50.0011482%" y2="0%" id="linearGradient-2">
            <stop stop-color="#808080" stop-opacity="0.25" offset="0%"></stop>
            <stop stop-color="#808080" stop-opacity="0.12" offset="54%"></stop>
            <stop stop-color="#808080" stop-opacity="0.1" offset="100%"></stop>
        </linearGradient>
        <linearGradient x1="-0.0534515576%" y1="49.9968928%" x2="99.9767032%" y2="49.9968928%" id="linearGradient-3">
            <stop stop-color="#808080" stop-opacity="0.25" offset="0%"></stop>
            <stop stop-color="#808080" stop-opacity="0.12" offset="54%"></stop>
            <stop stop-color="#808080" stop-opacity="0.1" offset="100%"></stop>
        </linearGradient>
    </defs>
    <g id="Dashboard" stroke="none" stroke-width="1" fill="none" fill-rule="evenodd">
        <g id="Employer-dashboard_B" transform="translate(-1062.000000, -129.000000)">
            <g id="Group-5" transform="translate(312.000000, 114.000000)">
                <g id="undraw_post_online_dkuk" transform="translate(750.000000, 15.000000)">
                    <g id="Group" opacity="0.345228795" transform="translate(157.000000, 129.000000)" fill="#FFFFFF">
                        <path d="M7.75396985,97.7220588 C7.55722412,98.0909179 7.33023973,98.4426272 7.07537688,98.7735294 C4.82197655,97.1796078 2.52998325,95.6148039 0.199396985,94.0791176 L0.350552764,93.7782353 C0.889827435,92.7303557 1.69686268,91.8459121 2.68864322,91.2158824 C3.97507538,90.42 5.42552764,90.2452941 6.61869347,90.8923529 C7.8118593,91.5394118 8.47758794,92.8335294 8.54834171,94.3444118 C8.5847449,95.5211123 8.31065936,96.6865164 7.75396985,97.7220588 Z" id="Path"></path>
                        <ellipse id="Oval" transform="translate(7.192379, 89.826748) rotate(-62.090000) translate(-7.192379, -89.826748) " cx="7.19237906" cy="89.8267476" rx="5.50943035" ry="4.1933949"></ellipse>
                        <ellipse id="Oval" transform="translate(10.329729, 83.869489) rotate(-62.090000) translate(-10.329729, -83.869489) " cx="10.3297292" cy="83.8694886" rx="5.50943035" ry="4.1933949"></ellipse>
                        <ellipse id="Oval" transform="translate(13.467079, 77.912230) rotate(-62.090000) translate(-13.467079, -77.912230) " cx="13.4670793" cy="77.9122297" rx="5.50943035" ry="4.1933949"></ellipse>
                        <ellipse id="Oval" transform="translate(16.601213, 71.958206) rotate(-62.090000) translate(-16.601213, -71.958206) " cx="16.6012134" cy="71.958206" rx="5.50943035" ry="4.1933949"></ellipse>
                        <path d="M24.201005,23.7955882 C24.0294684,22.8789888 23.9220024,21.9514221 23.879397,21.0197059 L34.4667337,24.6044118 L23.9083417,19.0785294 C24.2180259,13.5290963 26.7865859,8.35309399 31.0094472,4.76882353 L41.239799,19.6511765 L33.2960804,3.09941176 C39.6592643,-0.906914757 47.7135909,-1.00375303 54.1701399,2.84844009 C60.6266889,6.70063321 64.4047257,13.8570553 63.961519,21.3954382 C63.5183123,28.9338212 58.9280486,35.5923467 52.0651256,38.6520588 C52.3269059,40.0802385 52.4347326,41.5326646 52.3867337,42.9841176 L36.3063317,42.8547059 L52.1551759,45.4817647 C51.0667212,52.2077421 46.6771793,57.9267007 40.4840201,60.6876471 C42.3503788,71.0430106 35.9919402,81.1024009 25.8783447,83.7946075 C15.7647492,86.4868142 5.29267689,80.9076519 1.82343129,70.9789716 C-1.64581431,61.0502914 3.05292291,50.106669 12.6166834,45.8408824 C10.9672344,36.6770965 15.7640137,27.5675812 24.2267337,23.7923529 L24.201005,23.7955882 Z" id="Path"></path>
                        <path d="M50.0550754,51.6870588 C47.9547884,55.6894419 44.5734778,58.8618301 40.4582915,60.6908824 C42.3246501,71.0462459 35.9662115,81.1056362 25.8526161,83.7978428 C15.7390206,86.4900494 5.26694825,80.9108872 1.79770265,70.9822069 C-1.67154295,61.0535267 3.02719427,50.1099043 12.5909548,45.8441176 C11.8126633,41.5444118 51.1099497,49.6844118 50.0550754,51.6870588 Z" id="Path"></path>
                    </g>
                    <g id="Group" opacity="0.2" fill="#FFFFFF">
                        <path d="M69.7749196,199.658344 C69.9654878,200.434916 70.222602,201.193614 70.5434084,201.926019 C75.4973205,200.028248 80.5080386,198.205531 85.5755627,196.457866 C85.5305466,196.252006 85.4855305,196.039713 85.4340836,195.814554 C84.9196509,193.614828 83.8286436,191.591927 82.2733119,189.953981 C80.2508039,187.86965 77.6270096,186.853217 75.1028939,187.470796 C72.5787781,188.088376 70.7202572,190.195223 69.8810289,192.967898 C69.249484,195.148619 69.2128469,197.458679 69.7749196,199.658344 Z" id="Path"></path>
                        <ellipse id="Oval" transform="translate(74.556914, 185.193190) rotate(-13.720000) translate(-74.556914, -185.193190) " cx="74.5569138" cy="185.19319" rx="8.06124551" ry="10.5533221"></ellipse>
                        <ellipse id="Oval" transform="translate(71.495356, 172.660670) rotate(-13.720000) translate(-71.495356, -172.660670) " cx="71.4953564" cy="172.66067" rx="8.06124551" ry="10.5533221"></ellipse>
                        <ellipse id="Oval" transform="translate(68.437777, 160.128058) rotate(-13.720000) translate(-68.437777, -160.128058) " cx="68.4377771" cy="160.128058" rx="8.06124551" ry="10.5533221"></ellipse>
                        <ellipse id="Oval" transform="translate(65.380198, 147.598662) rotate(-13.720000) translate(-65.380198, -147.598662) " cx="65.3801978" cy="147.598662" rx="8.06124551" ry="10.5533221"></ellipse>
                        <path d="M73.755627,54.6976115 C74.4944581,53.074992 75.1187096,51.4025727 75.6237942,49.6926433 L54.2250804,51.3363057 L76.5273312,46.0579299 C78.5519055,35.6116246 76.1876027,24.7922846 69.9903537,16.1439172 L43.9067524,38.936465 L66.4983923,11.9720382 C56.5012683,1.54811623 41.524755,-2.42349925 27.6784955,1.67740556 C13.832236,5.77831038 3.43119412,17.2661029 0.718457291,31.4543577 C-1.99427954,45.6426125 3.43483265,60.1591873 14.7909968,69.0820701 C13.6390844,71.6089562 12.7647259,74.2534423 12.1832797,76.9690764 L42.2765273,84.3285669 L11.4726688,81.7167197 C10.3352333,94.7266075 15.8433981,107.431041 26.1157556,115.490605 C17.7742738,133.824745 24.9199159,155.493205 42.5294249,165.263448 C60.1389338,175.033692 82.2976939,169.624127 93.4284975,152.83758 C104.559301,136.051033 100.923576,113.525706 85.0771704,101.096497 C92.4602897,84.8699351 87.7818884,65.6965241 73.755627,54.6976115 Z" id="Path"></path>
                        <path d="M12.4308682,94.2420064 C14.4716778,102.658502 19.2937855,110.139014 26.1157556,115.471306 C17.7742738,133.805446 24.9199159,155.473905 42.5294249,165.244149 C60.1389338,175.014393 82.2976939,169.604828 93.4284975,152.818281 C104.559301,136.031734 100.923576,113.506407 85.0771704,101.077197 C88.5466238,93.4732484 11.4019293,90.0315287 12.4308682,94.2420064 Z" id="Path" opacity="0.407152158"></path>
                    </g>
                    <path d="M182.062092,54.2042593 L181.333333,54.2042593 L181.333333,15.4630004 C181.333333,6.91969268 174.199346,0 165.398693,0 L76.1405229,0 C67.3398693,0 60.2058824,6.9261356 60.2058824,15.4630004 L60.2058824,31.5219706 L60.1503268,31.5219706 L59.9934641,31.5219706 C59.4803407,31.518393 59.0609442,31.9246174 59.0555556,32.4304219 L59.0555556,40.1619221 C59.0609442,40.6677265 59.4803407,41.073951 59.9934641,41.0703734 L60.1666667,41.0703734 L60.2222222,41.0703734 L60.2222222,48.9661679 L59.9346405,48.9661679 C59.6884901,48.9644531 59.4517309,49.0592028 59.2764505,49.2295717 C59.10117,49.3999407 59.0017274,49.6319723 59,49.8746192 L59,64.6578919 C59.0035976,65.1636942 59.4215254,65.5713519 59.9346405,65.5695646 L60.2222222,65.5695646 L60.2222222,71.3681898 L59.9738562,71.3681898 C59.7271422,71.3656147 59.4895418,71.4599834 59.3135526,71.6304452 C59.1375634,71.8009071 59.0376714,72.033431 59.0359477,72.2766411 L59.0359477,87.2048794 C59.0376714,87.4480894 59.1375634,87.6806133 59.3135526,87.8510752 C59.4895418,88.0215371 59.7271422,88.1159058 59.9738562,88.1133306 L60.2222222,88.1133306 L60.2222222,223.537 C60.2222222,232.080307 67.3562092,239 76.1568627,239 L165.395425,239 C174.196078,239 181.330065,232.073864 181.330065,223.537 L181.330065,83.1780563 L182.062092,83.1780563 C182.575215,83.1816339 182.994611,82.7754095 183,82.2696051 L183,55.1127106 C182.994611,54.6069062 182.575215,54.2006817 182.062092,54.2042593 Z" id="Path" fill="url(#linearGradient-1)"></path>
                    <g id="Group" transform="translate(61.000000, 2.000000)">
                        <rect id="Rectangle" fill="#E5E7EB" x="117.461568" y="53.5298226" width="3.52208108" height="28.5968895" rx="1.76104054"></rect>
                        <rect id="Rectangle" fill="#E5E7EB" x="0.343378378" y="31.1275307" width="1.97851351" height="9.41424284" rx="0.989256757"></rect>
                        <rect id="Rectangle" fill="#E5E7EB" x="0.271432432" y="48.362292" width="2.23032432" height="16.3847749" rx="1.11516216"></rect>
                        <rect id="Rectangle" fill="#E5E7EB" x="0.307405405" y="70.4812551" width="2.12240541" height="16.5264393" rx="1.0612027"></rect>
                        <rect id="Rectangle" fill="#FFFFFF" x="1.46181081" y="0.0160982265" width="117.899784" height="235.90663" rx="15"></rect>
                        <rect id="Rectangle" fill="#E5E7EB" x="49.040973" y="7.06068213" width="16.4658108" height="3.29047749" rx="1.64523874"></rect>
                        <ellipse id="Oval" fill="#E5E7EB" cx="69.8889459" cy="8.70592087" rx="1.89675676" ry="1.86739427"></ellipse>
                    </g>
                    <path d="M163.667774,7 L150.215418,7 L150.215418,8.61977712 C150.213619,12.8373427 146.772948,16.2554068 142.529289,16.2554065 L99.6395139,16.2554065 C95.3958545,16.2554068 91.9551843,12.8373427 91.9533846,8.61977712 L91.9533846,7 L79.3322257,7 C74.1781798,7 70,11.152489 70,16.2748438 L70,222.725156 C70,227.847511 74.1781798,232 79.3322257,232 L163.667774,232 C168.82182,232 173,227.847511 173,222.725156 L173,16.2748438 C173,11.152489 168.82182,7 163.667774,7 Z" id="Path" fill="#ECECF3"></path>
                    <ellipse id="Oval" fill="#A2AAFF" cx="28.5" cy="243" rx="18.5" ry="3"></ellipse>
                    <path d="M35.2699794,238.233136 C36.0230593,237.521924 36.7300324,236.673461 36.9451981,235.66591 C37.1603638,234.65836 36.73618,233.423097 35.7740819,233.051894 C34.6982533,232.633901 33.5486536,233.388784 32.6787694,234.153025 C31.8088852,234.917266 30.8068277,235.790684 29.6664494,235.628478 C30.8648883,234.528408 31.4033806,232.868838 31.0834693,231.261387 C31.0342967,230.936164 30.8982174,230.630843 30.6900235,230.378611 C30.0937071,229.729786 29.0117309,230.007408 28.2955364,230.518982 C26.0240013,232.141044 25.3877255,235.275991 25.3754303,238.099004 C25.1448956,237.078976 25.3385448,236.018397 25.3323972,234.979653 C25.3262496,233.940909 25.0465342,232.777392 24.1797237,232.215908 C23.6379329,231.921884 23.0294374,231.777726 22.4153649,231.797915 C21.3948646,231.760483 20.2637078,231.863422 19.5598085,232.621424 C18.6899242,233.557229 18.9173851,235.144979 19.6704651,236.183723 C20.4235451,237.222466 21.5731448,237.871291 22.6305306,238.588742 C23.4327913,239.134628 24.2473472,239.770976 24.7422284,240.635036 C24.8073121,240.750591 24.859873,240.872959 24.898992,241 L31.3017088,241 C32.7408757,240.262698 34.0756309,239.332044 35.2699794,238.233136 Z" id="Path" fill="#A2AAFF"></path>
                    <g id="Group" opacity="0.4" transform="translate(191.000000, 217.000000)" fill="#4454FF">
                        <ellipse id="Oval" cx="10.5063636" cy="8.11666667" rx="10.3854545" ry="1.84"></ellipse>
                        <path d="M14.7986364,5.10666667 C15.2722044,4.7021135 15.6181995,4.15724506 15.7913636,3.54333333 C15.9186364,2.92 15.6640909,2.17333333 15.0977273,1.94666667 C14.4613636,1.69333333 13.7836364,2.15333333 13.2681818,2.61333333 C12.7527273,3.07333333 12.1640909,3.61333333 11.4895455,3.51333333 C12.1992864,2.84221695 12.5175353,1.82806165 12.3263636,0.846666667 C12.2975982,0.648780682 12.2172185,0.463063221 12.0940909,0.31 C11.7409091,-0.0866666667 11.1013636,0.0833333333 10.6813636,0.393333333 C9.33863636,1.39333333 8.96318182,3.29666667 8.95363636,5.01666667 C8.82,4.39666667 8.93454545,3.75 8.93136364,3.11333333 C8.92818182,2.47666667 8.75954545,1.78 8.24727273,1.42666667 C7.92750796,1.24852588 7.56879863,1.16118614 7.20681818,1.17333333 C6.60227273,1.15 5.93409091,1.21333333 5.51727273,1.67333333 C5.005,2.25 5.13863636,3.21333333 5.58409091,3.84666667 C6.02954545,4.48 6.70727273,4.87666667 7.33409091,5.31333333 C7.83319406,5.62651431 8.25930453,6.05241772 8.58136364,6.56 C8.61970563,6.63074759 8.65064256,6.70562615 8.67363636,6.78333333 L12.46,6.78333333 C13.3082857,6.33772364 14.0949944,5.77369916 14.7986364,5.10666667 Z" id="Path"></path>
                    </g>
                    <g id="Group" opacity="0.4" transform="translate(29.000000, 198.000000)" fill="#FFFFFF">
                        <ellipse id="Oval" cx="10.5318182" cy="8.10666667" rx="10.3854545" ry="1.84"></ellipse>
                        <path d="M14.8272727,5.09666667 C15.3018504,4.69232773 15.6471224,4.14568668 15.8168182,3.53 C15.9440909,2.91 15.6927273,2.16333333 15.1231818,1.93666667 C14.4868182,1.68333333 13.8090909,2.14333333 13.2968182,2.60333333 C12.7845455,3.06333333 12.1895455,3.60333333 11.5181818,3.50333333 C12.2251536,2.83033181 12.5428749,1.81785767 12.355,0.836666667 C12.3249324,0.638186275 12.2447369,0.451743511 12.1227273,0.296666667 C11.7695455,-0.0966666667 11.13,0.0733333333 10.7068182,0.383333333 C9.36409091,1.38333333 8.98863636,3.28333333 8.98227273,5.00333333 C8.84545455,4.38333333 8.96,3.73666667 8.95681818,3.1 C8.95363636,2.46333333 8.78818182,1.76666667 8.27590909,1.43333333 C7.95582572,1.25257411 7.59569861,1.16400626 7.23227273,1.17666667 C6.63090909,1.15333333 5.95954545,1.21666667 5.54590909,1.68 C5.03363636,2.25666667 5.16727273,3.22 5.61272727,3.85333333 C6.05818182,4.48666667 6.73590909,4.88 7.35954545,5.32 C7.85997369,5.63135433 8.28643852,6.05761194 8.60681818,6.56666667 C8.64493153,6.63797924 8.67687711,6.71272175 8.70227273,6.79 L12.4854545,6.79 C13.3352063,6.33846733 14.1229182,5.76888472 14.8272727,5.09666667 Z" id="Path"></path>
                    </g>
                    <rect id="Rectangle" fill="#D6D8E0" x="78" y="26" width="16" height="16"></rect>
                    <rect id="Rectangle" fill="#D6D8E0" x="106" y="27" width="35" height="3"></rect>
                    <rect id="Rectangle" fill="#D6D8E0" x="108" y="32" width="57" height="3"></rect>
                    <rect id="Rectangle" fill="#D6D8E0" x="108" y="37" width="57" height="3"></rect>
                    <rect id="Rectangle" fill="#D6D8E0" x="78" y="55" width="16" height="16"></rect>
                    <rect id="Rectangle" fill="#D6D8E0" x="106" y="57" width="35" height="3"></rect>
                    <rect id="Rectangle" fill="#D6D8E0" x="108" y="62" width="57" height="3"></rect>
                    <rect id="Rectangle" fill="#D6D8E0" x="108" y="67" width="57" height="3"></rect>
                    <rect id="Rectangle" fill="#D6D8E0" x="78" y="85" width="16" height="16"></rect>
                    <rect id="Rectangle" fill="#D6D8E0" x="107" y="86" width="35" height="3"></rect>
                    <rect id="Rectangle" fill="#D6D8E0" x="108" y="92" width="57" height="3"></rect>
                    <rect id="Rectangle" fill="#D6D8E0" x="108" y="98" width="57" height="3"></rect>
                    <rect id="Rectangle" fill="#D6D8E0" x="78" y="115" width="16" height="16"></rect>
                    <rect id="Rectangle" fill="#D6D8E0" x="107" y="116" width="35" height="3"></rect>
                    <rect id="Rectangle" fill="#D6D8E0" x="108" y="121" width="57" height="3"></rect>
                    <rect id="Rectangle" fill="#D6D8E0" x="108" y="128" width="57" height="3"></rect>
                    <rect id="Rectangle" fill="#D6D8E0" x="79" y="146" width="16" height="16"></rect>
                    <rect id="Rectangle" fill="#D6D8E0" x="107" y="147" width="35" height="3"></rect>
                    <rect id="Rectangle" fill="#D6D8E0" x="108" y="152" width="57" height="3"></rect>
                    <rect id="Rectangle" fill="#D6D8E0" x="108" y="158" width="57" height="3"></rect>
                    <rect id="Rectangle" fill="#D6D8E0" x="79" y="177" width="16" height="16"></rect>
                    <rect id="Rectangle" fill="#D6D8E0" x="107" y="178" width="35" height="3"></rect>
                    <rect id="Rectangle" fill="#D6D8E0" x="108" y="183" width="57" height="3"></rect>
                    <rect id="Rectangle" fill="#D6D8E0" x="108" y="188" width="57" height="3"></rect>
                    <rect id="Rectangle" fill="#D6D8E0" x="79" y="206" width="16" height="16"></rect>
                    <rect id="Rectangle" fill="#D6D8E0" x="107" y="207" width="35" height="3"></rect>
                    <rect id="Rectangle" fill="#D6D8E0" x="108" y="213" width="57" height="3"></rect>
                    <rect id="Rectangle" fill="#D6D8E0" x="108" y="218" width="57" height="3"></rect>
                    <rect id="Rectangle" fill="url(#linearGradient-2)" x="50" y="75" width="141" height="35"></rect>
                    <rect id="Rectangle" fill="#FFFFFF" x="51" y="75" width="140" height="34"></rect>
                    <rect id="Rectangle" fill="#4454FF" x="79" y="84" width="16" height="16"></rect>
                    <g id="Group" opacity="0.5" transform="translate(108.000000, 85.000000)" fill="#4454FF">
                        <rect id="Rectangle" x="0.183502825" y="0.105777778" width="35.0752542" height="3.02711111"></rect>
                        <rect id="Rectangle" x="0.183502825" y="5.404" width="57.7935593" height="3.02711111"></rect>
                        <rect id="Rectangle" x="0.183502825" y="10.7022222" width="57.7935593" height="3.02711111"></rect>
                    </g>
                    <path d="M99.9180833,105.219908 C99.0490893,104.35195 97.6050257,104.064782 96.560316,104.703651 C95.748829,105.197322 95.3015526,106.116906 94.8926143,106.984865 C94.2951809,108.275509 93.4197973,109.482261 93.1514315,110.876157 C92.4134255,114.719051 89.3847259,117.703666 88.1706901,121.417495 C87.7361931,122.743632 87.531724,124.166568 86.8448353,125.376547 C86.520218,125.906328 86.1571412,126.411064 85.7585928,126.886601 C84.1866329,128.889032 82.7965824,131.030486 81.6053127,133.28497 C80.9152292,133.420488 80.3018217,134.010958 79.7139728,134.472363 C78.9607509,135.063746 78.0883182,135.481172 77.1581081,135.695249 C76.783643,135.739821 76.4247391,135.872433 76.1102036,136.082442 C75.6693169,136.453502 75.6086151,137.121411 75.2507941,137.56991 C74.9908598,137.863849 74.6609757,138.085959 74.2923448,138.215232 C74.2923448,138.1023 74.2763706,137.989369 74.2731758,137.873211 C74.2572017,137.276288 74.2476172,136.676138 74.2476172,136.075989 C76.3758403,133.545066 76.3677145,129.827469 74.2284482,127.30606 C74.2536168,126.371659 74.3767732,125.442584 74.5958537,124.534401 C74.7076728,124.092356 74.6916987,123.550285 74.3370724,123.263117 C74.1613567,123.124372 73.9345237,123.072747 73.7460287,122.940456 C73.4804207,122.713656 73.2630603,122.434862 73.1070625,122.120896 C72.1296222,120.721883 70.2906371,120.247306 68.7684822,121.001262 C67.6151483,121.614318 66.9154803,122.840431 65.8931344,123.672896 C65.3691822,124.098809 64.7653591,124.418243 64.2414069,124.847383 C63.1928397,125.771495 62.4473998,126.995869 62.104065,128.357935 C61.7681137,129.714745 61.5732392,131.10325 61.5226058,132.500904 C61.4680323,132.920083 61.4842362,133.345574 61.5705282,133.759282 C61.6738747,134.105604 61.8325075,134.432565 62.0401684,134.727265 C63.0138261,136.327492 64.3821939,137.644987 66.0113432,138.550799 C66.0178493,138.633485 66.0178493,138.716562 66.0113432,138.799248 C66.0113432,138.928313 65.9698104,139.054151 65.9410569,139.183215 L65.7557567,139.131589 C65.0720629,138.976712 64.334057,138.996072 63.7206494,138.650824 C62.6727449,138.057128 62.3564566,136.60838 61.3532797,135.943698 C61.2680172,135.887779 61.178245,135.839208 61.0849139,135.7985 C61.0140778,133.963265 60.6671972,132.149594 60.0561784,130.41974 C59.762254,129.593727 59.4012381,128.751582 59.4459657,127.870717 C59.4843037,127.054385 59.8708782,126.302584 60.21592,125.56369 C61.4203712,123.014668 62.2638065,120.310768 63.0912677,117.616548 C63.6216097,115.923652 64.1540815,114.229682 64.6886832,112.534635 C65.2089794,112.144598 65.6799987,111.69165 66.0912139,111.185912 C66.9437653,110.183546 67.5064069,108.96334 67.7173829,107.659226 C67.9220138,106.34477 67.5988729,105.002183 66.8196354,103.929264 C66.4748875,103.415661 65.9276971,103.077026 65.3180649,103 C64.7827029,103.011716 64.2756137,103.245034 63.9155341,103.645322 C63.3859088,104.255483 62.9780134,104.963253 62.7142777,105.729713 C62.1903254,106.978411 61.6599835,108.275509 61.7111008,109.630685 C61.7526336,110.753546 62.1679616,112.008698 61.5194109,112.921829 C59.3948484,115.912897 57.7910433,119.352464 56.1073674,122.624248 C55.6818094,123.405648 55.3165168,124.219011 55.0147353,125.057112 C54.6076739,126.416412 54.414694,127.831883 54.4428606,129.251707 C54.4268864,131.913661 54.7879023,134.562708 55.1457233,137.202076 C55.3086597,138.392695 55.5163237,139.657527 56.0754191,140.686816 C55.7091454,141.962347 55.5167492,143.282353 55.5035444,144.610375 C55.4887141,144.917014 55.5365653,145.223452 55.644117,145.510599 C55.8321463,145.84466 56.0703284,146.147254 56.3501746,146.407597 C57.1078919,147.276908 57.4572494,148.434199 57.3086239,149.582582 C57.2149272,150.651701 57.3112218,151.729127 57.5929638,152.76402 C58.23193,155.629251 58.8708962,158.491255 59.3820691,161.379072 C59.5034397,161.916243 59.5443626,162.46876 59.5034727,163.01819 C59.4044329,163.79903 58.9763256,164.54115 59.0689757,165.325217 C59.1605008,165.68824 59.2287983,166.056835 59.2734448,166.428718 C59.2526157,166.71247 59.1879362,166.991181 59.081755,167.25473 C58.3533335,169.393973 56.3949022,174.298422 56.417266,176.563503 L56.928439,176.440892 C56.4140712,179.380334 55.20962,182.190712 54.5770435,185.120475 C54.1383056,187.255067 53.9389702,189.432768 53.9828049,191.612416 C54.0249214,192.591294 54.0078505,193.571855 53.9316876,194.548632 C53.8326479,195.41659 53.6122045,196.265189 53.490801,197.129921 C53.3533839,198.289228 53.3021233,199.457301 53.3374491,200.62434 C53.3041889,202.458329 53.4109998,204.292177 53.6569322,206.109579 C54.1457413,209.207126 53.2895266,212.285312 53.056304,215.411898 C52.9381327,217.599295 52.6927727,219.777786 52.3214929,221.936106 C52.1457772,222.84601 51.9253338,223.749461 51.8039302,224.669045 C51.4461092,227.398758 51.9668666,230.212363 51.4045764,232.906583 C51.1394054,234.168188 50.6665705,235.58467 51.3630436,236.662358 C51.5834869,237.001152 51.8997752,237.265734 52.1393875,237.591622 C52.406365,237.905497 52.4912072,238.337601 52.3630257,238.730616 C52.2256479,239.027464 51.9061648,239.22106 51.8262941,239.537268 C51.6985008,240.034166 52.2128686,240.440719 52.6729242,240.653676 L52.8039123,240.705302 C52.7431381,241.049229 52.8341632,241.402808 53.0531091,241.673285 C53.326491,241.933655 53.6660077,242.112362 54.0339222,242.189543 L60.0657629,244.035164 C61.4107867,244.44817 62.8740192,244.854723 64.219043,244.519156 C64.2493643,244.712465 64.3323269,244.893447 64.4586554,245.041867 C64.7320372,245.302236 65.0715539,245.480943 65.4394684,245.558124 L71.4265815,247.390839 C72.96649,247.861925 74.6565555,248.326557 76.1357622,247.687688 C76.559585,247.511425 76.9314331,247.228098 77.2156151,246.864902 C77.6911573,246.158713 77.8316091,245.275704 77.5989948,244.454623 C77.5240735,244.04191 77.3203117,243.664254 77.0175355,243.376935 C76.607791,243.089066 76.123554,242.928665 75.6245893,242.91553 C75.1988477,242.902622 74.7815589,242.792298 74.4041639,242.592869 C74.2902789,242.518019 74.1951357,242.417511 74.1262136,242.299247 C74.4712553,241.955075 74.8056476,241.597997 75.1293905,241.228012 C74.8674144,241.137667 74.7747643,240.756927 74.7492056,240.479439 C74.3690207,236.368736 75.9025396,232.351606 76.4839988,228.266716 C76.7776948,226.217257 76.8291731,224.139807 76.6373507,222.078077 C76.5670644,221.300463 76.461635,220.526077 76.4296867,219.745237 C76.2795296,215.679707 78.2028178,211.769055 78.1357263,207.700298 C78.103778,205.796598 79.0941756,203.91871 79.5765951,202.076315 C79.9983127,200.44365 80.0110921,198.733546 80.0206766,197.042802 L80.0973525,183.729806 C80.0973525,181.929357 80.0973525,180.086962 79.5286726,178.386538 C79.2416271,177.440742 79.1631126,176.442941 79.2986448,175.463228 C80.9248137,174.737241 82.4647222,173.662779 84.2027102,173.849923 C84.6659607,172.607678 84.1164497,168.467936 83.6819527,167.212784 C81.9738043,162.274433 81.642249,156.956963 82.7235035,151.84121 C83.1164677,150.005268 82.5765413,148.053168 83.0142331,146.22368 C83.0945865,145.794253 83.2562166,145.384515 83.4902629,145.016928 C83.7314172,144.644473 84.1455485,144.423763 84.5860899,144.432911 C84.5860899,143.313277 84.5637261,142.174283 84.490245,141.038516 C85.1958633,140.456632 85.7977177,139.757124 86.2697658,138.970259 C87.228215,137.356953 87.7745311,135.540371 88.4358611,133.785095 C89.608364,130.687548 91.2089743,127.780372 92.5539981,124.750584 C93.8990219,121.720797 94.03001,118.407067 95.1098628,115.270801 C95.7045988,113.543448 96.9342788,112.113227 98.544306,111.276257 C99.1832722,110.953596 99.8637711,110.72128 100.327022,110.192116 C100.677635,109.751 100.893053,109.216069 100.946819,108.653022 C101.148809,107.409506 100.768893,106.141645 99.9180833,105.219908 Z M62.538562,238.520886 C62.6695501,238.375688 62.7973433,238.230491 62.9187469,238.072387 C62.5161982,238.007855 62.0241942,237.711007 62.0146097,237.298 C62.0434079,236.883982 62.1316563,236.476393 62.2765859,236.088021 C62.4656147,235.387556 62.496188,234.653116 62.3660411,233.939098 C62.2765859,233.438974 62.1104547,232.971115 62.0082201,232.461311 C61.9107307,231.908637 61.8467152,231.350473 61.8165302,230.789926 C61.6442363,228.778278 61.2542711,226.791745 60.6536118,224.865868 C60.0753474,222.997661 60.8676654,221.106867 61.0721346,219.16122 C61.1711744,218.23841 61.1264468,217.286559 61.4459298,216.418601 C61.6344249,215.902343 61.9443235,215.450618 62.1328185,214.927907 C62.5705103,213.730834 62.311729,212.398244 62.0433632,211.149545 C63.9347031,207.687392 64.5608899,203.55733 65.2733372,199.659584 C65.673756,197.471942 66.0741748,195.285375 66.4745936,193.099884 C66.6503093,192.1319 66.845194,191.112291 67.4330429,190.331452 C68.0552881,193.227371 68.3001684,196.192996 68.1614643,199.153006 C68.0879192,200.012399 68.0986206,200.877027 68.1934127,201.734295 C68.3403749,202.673238 68.7269494,203.560556 68.9505876,204.483367 C69.4489812,206.519359 69.1582516,208.658602 69.2700707,210.752672 C69.3116035,211.598044 69.4202277,212.443416 69.4553708,213.288788 C69.6119176,217.02843 68.3723232,220.664821 67.148703,224.19796 C66.3979177,226.363016 66.2317865,228.82492 65.8707706,231.093228 C65.5321185,233.264737 65.1966613,235.439472 65.0241404,237.630341 C64.9730231,238.29825 64.9314903,238.985518 64.8516196,239.663106 C64.6461245,239.617204 64.4380863,239.583802 64.2286275,239.563081 C63.802886,239.550173 63.3855971,239.439849 63.0082021,239.24042 C62.7823979,239.0548 62.6184653,238.803639 62.538562,238.520886 Z" id="Shape" fill="url(#linearGradient-3)" fill-rule="nonzero"></path>
                    <path d="M76.8477862,243.511048 C77.3623599,243.523671 77.8618166,243.664912 78.2862564,243.917831 C78.5980735,244.17116 78.8084658,244.504399 78.8867188,244.868901 C79.1265522,245.594165 78.9814008,246.374514 78.4908095,246.997348 C78.19685,247.317308 77.8127436,247.565961 77.3756652,247.719245 C75.8481153,248.292178 74.1028154,247.876801 72.51258,247.461424 L66.2836079,245.831429 C65.9039072,245.764007 65.5532454,245.606316 65.2707401,245.375947 C64.9197111,244.965659 64.9090925,244.406699 65.2443462,243.986583 C65.5793519,243.582611 66.0359145,243.266463 66.5640436,243.072754 C68.5039989,242.253459 70.6880982,242.064391 72.8326066,242.030015 C73.6244251,242.015692 74.4030466,241.866729 74.9408233,242.396693 C75.2245583,242.68316 75.1750696,242.986814 75.6006721,243.230311 C75.9863393,243.40511 76.412887,243.50113 76.8477862,243.511048 Z" id="Path" fill="#3F3D56"></path>
                    <path d="M63.8475317,240.508697 C64.3621131,240.518677 64.8621072,240.659176 65.285971,240.9129 C65.5959648,241.167628 65.8060068,241.500554 65.8864205,241.864639 C66.1267224,242.59039 65.9815411,243.371467 65.4905197,243.994587 C65.1967645,244.315635 64.8126916,244.565435 64.3753993,244.719859 C62.8478823,245.293196 61.1026199,244.87466 59.5124186,244.458991 L53.2835804,242.827846 C52.9034163,242.761539 52.552413,242.60358 52.2707343,242.372043 C51.9197128,241.961466 51.9090944,241.402112 52.2443409,240.9817 C52.578589,240.576823 53.0353633,240.260298 53.56401,240.067227 C55.5039237,239.247355 57.6846769,239.058153 59.8159425,239.023753 C60.6044448,239.023753 61.3863488,238.860352 61.9241139,239.390689 C62.2078428,239.677358 62.1583552,239.984093 62.5839485,240.224895 C62.974938,240.401501 63.4070239,240.498548 63.8475317,240.508697 Z" id="Path" fill="#3F3D56"></path>
                    <path d="M70.0554826,174.134257 C66.3964916,173.778099 62.7157431,173.678008 59.0418836,173.834762 C58.7993451,173.831819 58.5580253,173.86844 58.3280392,173.94309 C57.5187963,174.261701 57.3937913,175.28763 57.3148407,176.128765 C57.0056178,179.528349 55.4562136,182.698533 54.6831564,186.034395 C54.2309417,188.12921 54.0256724,190.266968 54.0712897,192.406625 C54.1142575,193.362603 54.09668,194.320233 54.0186561,195.274128 C53.9166783,196.128007 53.6896955,196.959583 53.5646905,197.82302 C53.4232001,198.960307 53.3704169,200.106307 53.4067894,201.251279 C53.3728704,203.048479 53.4828534,204.845521 53.73575,206.626255 C54.2390596,209.665808 53.3574454,212.679873 53.1173042,215.751287 C52.9954354,217.897489 52.7427924,220.034845 52.3606949,222.152192 C52.1797666,223.044304 51.9527838,223.930044 51.8277788,224.831714 C51.459343,227.511237 51.9955487,230.273598 51.4165781,232.914887 C51.1435409,234.1511 50.6566793,235.540246 51.3738133,236.598036 C51.600796,236.932578 51.926467,237.190653 52.1731874,237.509265 C52.4475419,237.816935 52.5349686,238.241526 52.4034598,238.627591 C52.2620067,238.917527 51.9330462,239.108694 51.8508061,239.417747 C51.7192218,239.905223 52.2488483,240.306673 52.7225515,240.513771 C56.2917734,242.071781 60.8939315,240.972571 63.3019226,237.98081 C62.8874324,237.917087 62.3808331,237.627151 62.3709643,237.222514 C62.4005985,236.815758 62.4914755,236.415384 62.640712,236.034093 C62.8356017,235.346801 62.8670938,234.625662 62.7328209,233.924885 C62.640712,233.43741 62.4696525,232.969051 62.3643851,232.475203 C62.2640073,231.933749 62.1980909,231.38683 62.1670088,230.83754 C61.9895612,228.863653 61.5879973,226.914725 60.9695924,225.026067 C60.3741738,223.194051 61.1899959,221.339732 61.4005307,219.428064 C61.5025085,218.526393 61.456454,217.589675 61.7854145,216.738983 C61.9795013,216.232391 62.298593,215.783148 62.4926797,215.276556 C62.9433557,214.10088 62.6768976,212.797759 62.4005708,211.571105 C64.3480172,208.17152 64.9927799,204.121968 65.7263619,200.298631 C66.1386591,198.153314 66.5509563,196.007996 66.9632535,193.862679 C67.1441818,192.906845 67.3448478,191.915963 67.9501352,191.148109 C68.590951,193.989335 68.8431238,196.899856 68.7001652,199.804783 C68.6255613,200.641733 68.6365803,201.483777 68.7330613,202.318628 C68.8843831,203.239415 69.2824254,204.109224 69.5126977,205.017267 C70.0258762,207.011775 69.7265221,209.111424 69.8416583,211.166468 C69.8844232,211.994858 69.9962698,212.823248 70.0324554,213.654824 C70.1936461,217.322042 68.9172792,220.89049 67.6573603,224.353797 C66.884303,226.478935 66.7132435,228.89401 66.3415181,231.117918 C65.9928199,233.249429 65.6474113,235.38094 65.4697726,237.531567 C65.308582,239.506958 65.2395003,241.644841 63.9697126,243.196479 C65.1276537,243.9261 66.3283597,244.668464 67.6836771,244.920167 C69.2675848,245.159621 70.888126,244.856526 72.2660975,244.063103 C73.6336564,243.268872 74.8563139,242.261232 75.8846635,241.080899 C75.6149159,240.991688 75.5195173,240.615726 75.4932005,240.344907 C75.1017374,236.314472 76.680748,232.37962 77.2794562,228.365115 C77.5818419,226.354204 77.6348519,224.315485 77.4373573,222.292381 C77.364986,221.530899 77.256429,220.772604 77.2235329,220.007936 C77.0689215,216.018921 79.049264,212.179653 78.9801823,208.190637 C78.9472862,206.323574 79.9670639,204.478813 80.4637943,202.672286 C80.8980222,201.079229 80.9111807,199.393774 80.9210495,197.736995 L81,184.673924 C81,182.905631 81,181.099104 80.4144502,179.429579 C79.690737,177.425513 80.516428,175.118766 80.641433,173 C77.2234772,174.045658 73.6267731,174.431035 70.0554826,174.134257 Z" id="Path" fill="#3F3D56"></path>
                    <path d="M81.2139017,134.50611 C82.5338425,131.702924 84.1461421,129.05868 86.0218282,126.620895 C86.4127406,126.144187 86.7696001,125.638466 87.0895585,125.107768 C87.7647409,123.894658 87.9657254,122.463058 88.3928175,121.13255 C89.586163,117.40191 92.5632462,114.405006 93.2886747,110.547186 C93.5524669,109.148196 94.4129319,107.938347 95.0001835,106.633928 C95.4021525,105.759967 95.8418062,104.840351 96.6394635,104.351194 C97.6663688,103.698984 99.0858219,104.002261 99.9400061,104.872961 C100.77304,105.79453 101.14564,107.066173 100.948069,108.313368 C100.89688,108.879894 100.68484,109.417878 100.338835,109.859105 C99.8834792,110.390656 99.2020161,110.631973 98.586501,110.951556 C97.0057447,111.785644 95.7962923,113.221486 95.2105892,114.959385 C94.1617012,118.109558 94.0298051,121.442349 92.6982827,124.478386 C91.3667603,127.514422 89.8028495,130.433061 88.6503289,133.54084 C88.0002696,135.305067 87.4758256,137.127993 86.5211491,138.758518 C85.5664727,140.389042 84.0653696,141.755421 82.2627897,142 C82.26528,140.821676 82.0871919,139.650447 81.7352053,138.530244 C81.3552189,137.235608 80.642352,135.706176 81.2139017,134.50611 Z" id="Path" fill="#A0616A"></path>
                    <path d="M60.4830983,137.500377 C60.5626593,135.248995 60.2201809,133.002843 59.4741397,130.883097 C59.1876453,130.071063 58.8357555,129.246292 58.8793524,128.383307 C58.9167213,127.584011 59.2935237,126.845219 59.6298432,126.12235 C60.8038474,123.622559 61.6259618,120.969915 62.4325058,118.326825 L63.9895406,113.34635 C64.4957963,112.963964 64.954839,112.520209 65.3566171,112.024805 C66.1860611,111.043123 66.7345416,109.846441 66.9416785,108.566496 C67.1407622,107.276241 66.8255537,105.958235 66.066625,104.907567 C65.7298514,104.40306 65.1961755,104.072134 64.6030123,104 C64.0806795,104.009295 63.5855704,104.239955 63.2359357,104.636889 C62.7199264,105.234445 62.3222729,105.928762 62.0650456,106.681304 C61.5543382,107.904131 61.0374026,109.17791 61.0872277,110.50264 C61.1277107,111.604458 61.5325397,112.833655 60.9003836,113.728484 C58.8295273,116.661359 57.2662644,120.033688 55.6251497,123.240426 C55.2104337,124.006152 54.854364,124.803589 54.5601379,125.625576 C54.1628698,126.960452 53.9747356,128.351219 54.0027195,129.74625 C53.9871491,132.357496 54.339039,134.95282 54.6878148,137.541775 C54.9057997,139.159474 55.1985222,140.923657 56.397439,142 C57.6461809,140.379117 58.8980368,138.780525 60.4830983,137.500377 Z" id="Path" fill="#A0616A"></path>
                    <circle id="Oval" fill="#A0616A" cx="70.5" cy="133.5" r="6.5"></circle>
                    <path d="M66.9842437,139.357168 C66.8266807,140.585764 66.1932773,141.68039 65.5756303,142.739073 C65.2006303,143.392581 64.7279412,144.088568 64,144.160453 C65.892808,145.192811 67.8820543,146.022688 69.9369748,146.63725 C70.636726,146.880409 71.3701984,147.002934 72.1081933,146.999947 C72.7327132,146.951635 73.3440453,146.789014 73.9138655,146.519618 C76.4399689,145.371562 78.3158585,143.081781 79,140.31129 C78.1869306,140.333902 77.3737849,140.269297 76.5735294,140.118505 C76.1260504,140.033549 75.6439076,139.896312 75.3823529,139.51401 C75.2006846,139.181204 75.1153477,138.801169 75.1365546,138.419384 C75.105042,137.288815 75.105042,136.158245 75.1365546,135.027676 C73.5300344,134.920436 71.9183346,135.125454 70.3844538,135.632171 C69.7542017,135.844561 69.1239496,136.102697 68.4779412,136.269342 C68.0808824,136.370636 66.987395,136.269342 66.6943277,136.507872 C66.25,136.870569 67.1008403,138.523945 66.9842437,139.357168 Z" id="Path" fill="#A0616A"></path>
                    <path d="M68.8290672,143.802112 C68.6732956,141.957524 67.3583319,140.419225 65.5634162,139.981819 C64.858931,139.826764 64.098482,139.843259 63.4664205,139.493561 C62.3866488,138.889836 62.0607421,137.418462 61.0270582,136.742158 C59.9933744,136.065854 58.5185642,136.441945 57.6165598,137.299697 C56.7145554,138.157448 56.2569692,139.371496 55.8882667,140.559152 C55.3362292,142.169065 55.0374753,143.855245 55.0027222,145.557203 C54.9874226,145.869651 55.0367369,146.181896 55.1475696,146.474337 C55.3422478,146.814286 55.5875852,147.12245 55.8750987,147.388173 C56.6550576,148.266925 57.0154673,149.441972 56.8626948,150.608039 C56.7662051,151.695705 56.865443,152.791896 57.1556816,153.844401 C57.814079,156.750859 58.4724764,159.660616 58.9991943,162.593465 C59.1226086,163.133998 59.1647723,163.689972 59.1242898,164.242987 C59.0222382,165.034758 58.581112,165.790239 58.6765796,166.582009 C58.770883,166.952069 58.8412583,167.327841 58.8872667,167.706983 C58.8657559,167.9939 58.7990924,168.2756 58.6897475,168.541641 C57.9391745,170.71901 55.9211865,175.700566 55.9442304,178 C59.4501965,177.099361 64.618616,176.898119 68.2365096,176.884923 C69.2334945,176.871104 70.2304413,176.915165 71.2223417,177.016885 C73.6024483,177.270911 76.0385186,177.96701 78.3462014,177.323696 C80.4859929,176.726569 82.3854693,175.014365 84.6009765,175.232102 C85.0783146,173.968568 84.5120929,169.762288 84.0643827,168.488857 C82.3044374,163.474966 81.9626372,158.070938 83.0767866,152.874482 C83.481701,151.007224 82.9253552,149.027797 83.3763574,147.170436 C83.4586006,146.733261 83.625219,146.316383 83.8668635,145.943191 C84.1161281,145.563633 84.5427152,145.339288 84.996015,145.349364 C85.0370437,142.367046 84.761157,139.388824 84.1730182,136.465039 C83.9524551,135.42584 83.4948689,134.198595 82.4513091,134.020447 C81.5098008,133.862093 80.716432,134.657163 79.962567,135.244392 C79.1842843,135.843437 78.2858599,136.266602 77.3289774,136.484833 C76.9433464,136.529169 76.573494,136.663641 76.2492057,136.877419 C75.7949115,137.25351 75.7323638,137.933113 75.3636613,138.39168 C74.7052639,139.213142 73.2337457,139.140563 72.7662836,140.087389 C72.6610294,140.369821 72.5773905,140.659876 72.5160926,140.955037 C72.2953265,141.516029 71.9196413,142.002377 71.4330289,142.357131 C70.6971753,143.046544 69.8026451,143.542934 68.8290672,143.802112 Z" id="Path" fill="#A2AAFF"></path>
                    <path d="M75.9393553,125.744938 C76.0497084,125.31701 76.0339437,124.80787 75.6839667,124.520502 C75.5105547,124.386189 75.2866956,124.336212 75.1006718,124.208146 C74.8385033,123.989866 74.6239479,123.720983 74.4700826,123.417885 C73.4960706,122.07002 71.681413,121.616951 70.1789234,122.346504 C69.04071,122.936857 68.3502149,124.117563 67.3412722,124.917195 C66.8241891,125.329505 66.2282824,125.635614 65.7111993,126.0448 C64.6776188,126.932723 63.9418106,128.111684 63.6018785,129.424493 C63.2712163,130.730628 63.0799394,132.067557 63.0311954,133.41328 C62.9773216,133.816987 62.9933155,134.226839 63.0784896,134.625221 C63.1814867,134.955253 63.3380283,135.266473 63.5419726,135.546672 C64.5792917,137.108452 65.9539761,138.529672 67.6723315,139.332427 C69.390687,140.135182 71.48109,140.269495 73.1773749,139.429257 C73.3474344,139.358421 73.4938739,139.241495 73.5998696,139.091913 C73.6970888,138.863985 73.7191581,138.61146 73.6629285,138.37037 C73.5733014,137.41646 73.7649712,136.457277 74.214694,135.609143 C74.5299886,134.984431 74.9997775,134.447178 75.2551661,133.797478 C75.4868525,133.073106 75.5871947,132.313806 75.551543,131.554761 C75.5767666,129.596288 75.4411899,127.637816 75.9393553,125.744938 Z" id="Path" fill="#2D293D"></path>
                    <rect id="Rectangle" fill="#4454FF" x="79" y="84" width="16" height="16"></rect>
                    <path d="M89.7277567,97.848807 C89.4882436,98.2952256 89.0907876,98.6437162 88.6077286,98.8308509 C88.322194,98.9317146 88.0214716,98.9866541 87.7175329,98.9934824 C87.3891039,99.0167842 87.0591375,98.9774655 86.7464103,98.8777638 C86.3299372,98.7194539 85.9723918,98.4437513 85.7202574,98.0864991 C85.4712771,97.7292205 85.2710817,97.3423795 85.1246356,96.9355687 C85.0262887,96.7326475 84.9849798,96.5082837 85.0048638,96.2850428 C85.2606525,96.2548931 85.4935515,96.1277583 85.6522788,95.9316321 C85.7463938,95.7341341 85.7522472,95.5079213 85.6684642,95.3061264 C85.6490418,95.2435758 85.6296193,95.1841528 85.6069598,95.1278573 C85.5584036,94.990246 85.3900757,94.7306612 85.5066104,94.6149426 C85.6231452,94.4992241 85.8950595,94.5023516 86.001883,94.4554387 C86.3185172,94.2726345 86.6564481,94.1267091 87.0086134,94.0207122 C87.3278717,93.9796139 87.6523869,93.9998075 87.9635506,94.0801353 C88.0060941,94.0868789 88.0468147,94.1017653 88.0833224,94.1239207 C88.1242173,94.1567068 88.1545452,94.2001166 88.1707235,94.2490218 C88.2613616,94.4616937 88.3131548,94.6962584 88.3843704,94.9151853 C88.446513,95.1447914 88.5691954,95.354914 88.7404487,95.5250534 C88.8882863,95.6462935 89.0555645,95.7434751 89.2357212,95.812786 L89.6694893,96.0035652 C89.7455879,96.0328351 89.8149087,96.0764218 89.8734251,96.1317939 C89.9289029,96.2073753 89.9624337,96.2959244 89.9705373,96.3882512 C90.0508815,96.8876569 89.9659133,97.3988214 89.7277567,97.848807 Z" id="Path" fill="#A0616A"></path>
                    <path d="M87,95.5787931 C86.2716271,96.0283679 85.1250821,96.1298938 84.2078429,95.826037 C84.1878752,95.786478 84.1679074,95.7488969 84.1446117,95.7132938 C84.0946924,95.6262639 83.9216385,95.462094 84.041445,95.3889098 C84.1612515,95.3157256 84.4408,95.3177036 84.5506227,95.2880343 C84.8761466,95.172423 85.2235651,95.080135 85.5856177,95.0130991 C85.9138394,94.9871071 86.2474655,94.9998783 86.5673654,95.0506802 C86.6111033,95.0549451 86.6529672,95.0643597 86.6904999,95.0783715 C86.7325429,95.0991065 86.7637223,95.1265602 86.7803547,95.1574895 C86.8735376,95.297924 86.9267849,95.4403365 87,95.5787931 Z" id="Path" fill="#000000" opacity="0.1"></path>
                    <circle id="Oval" fill="#A0616A" cx="85" cy="94" r="2"></circle>
                    <path d="M93,100 L81.9817262,100 C81.6443632,99.3653079 81.3407366,98.7277697 81,98.0930776 C81.0363836,97.9420796 81.1037434,97.7976018 81.1990441,97.6661546 C81.2980772,97.5358235 81.4676437,97.4557558 81.6511105,97.4526932 C81.7489457,97.4526932 81.8602755,97.4840008 81.9311217,97.4242316 C82.001968,97.3644624 81.9783525,97.3160778 82.028957,97.2762317 C82.0795614,97.2363855 82.2010121,97.2363855 82.2954737,97.2420778 C82.5013863,97.2476439 82.6967432,97.1652377 82.8150127,97.0229241 C82.8511654,96.9698982 82.8953992,96.9210981 82.9465842,96.8777703 C83.0352701,96.8414347 83.1315567,96.8201596 83.2299691,96.8151549 C83.5032331,96.7639242 83.6651673,96.5305396 83.8709587,96.3853858 C83.9719568,96.2892147 84.1307091,96.2523837 84.2757942,96.2914628 C84.3088318,96.3058398 84.3376467,96.3262598 84.3601349,96.351232 C84.4155033,96.4229431 84.4533523,96.5032549 84.4714647,96.5874627 C84.5936144,97.0601721 84.9044501,97.4831653 85.351982,97.785693 C85.8335723,98.0928614 86.4540166,98.1997564 87.0398019,98.0764838 C87.6255871,97.9532112 88.1138366,97.6130028 88.3680067,97.151001 C88.5310614,96.8070154 88.6245712,96.442393 88.6446444,96.072309 C88.6446444,96.0523859 88.6446444,96.0410013 88.6446444,96.0239244 C88.9225547,95.9657978 89.2167111,96.014805 89.4475682,96.1576936 C89.6714857,96.3023788 89.9109282,96.4291083 90.1627776,96.5362319 C90.4630306,96.6358473 90.8375035,96.6358473 91.0432949,96.8208472 C91.1310093,96.8948472 91.1917346,96.9973087 91.3030644,97.0428471 C91.372241,97.0657259 91.4449542,97.0801035 91.5189767,97.0855394 C91.9008435,97.1725232 92.2134925,97.403712 92.3657577,97.7116931 C92.6099746,98.1684176 92.7692812,98.6541725 92.8380658,99.1518464 L93,100 Z" id="Path" fill="#F86D70"></path>
                    <path d="M83.6958366,90.3842379 C83.5426839,90.5009276 83.4127864,90.6422714 83.3121958,90.8016841 C83.1233629,91.0947087 82.859599,91.3386639 82.5449142,91.5113426 C82.4129502,91.5547654 82.2927873,91.6250127 82.1929792,91.7170839 C82.1439469,91.7870368 82.1125025,91.8665745 82.1010323,91.9496611 C82.0366663,92.2389785 82.0037344,92.5336992 82.0027441,92.8292798 C81.9909963,92.9780157 82.0170805,93.1272442 82.0788382,93.2646166 C82.1422499,93.3898504 82.2627321,93.4971937 82.2849262,93.6343546 C82.289545,93.7428868 82.2767182,93.851453 82.2468792,93.9563845 C82.2164622,94.0690374 82.2631308,94.1876569 82.3641908,94.2545604 C82.4216245,94.2737589 82.4811902,94.2867631 82.5417436,94.2933232 C82.8588021,94.3589219 82.966602,94.7107694 83.0141608,95 C83.1219607,95 83.1695195,94.8777479 83.1948841,94.7823316 L83.5119426,93.395814 C83.5499897,93.246726 83.6070602,93.0708023 83.76876,93.0201124 C83.8795306,92.9977943 83.9940715,92.9977943 84.1048421,93.0201124 C84.5423828,93.0558935 84.9101707,92.7368453 85.3381997,92.6473926 C85.4760994,92.6230405 85.6166993,92.6150267 85.7567169,92.6235385 C86.0927989,92.6235385 86.4859515,92.7696447 86.5588749,93.0648388 C86.5588749,93.1125469 86.5778985,93.1721821 86.6254572,93.1960361 C86.6741178,93.2093712 86.7258142,93.2093712 86.7744747,93.1960361 C86.9869039,93.1751638 87.1137273,93.4017775 87.177139,93.5866465 L87.39908,94.2635057 C87.4339564,94.3648855 87.491027,94.4871375 87.6083386,94.4990646 C87.7193759,94.4984392 87.8128345,94.4207371 87.827109,94.3171773 C87.8318636,94.2160672 87.8168176,94.1149963 87.7827208,94.0190015 C87.6780915,93.5777012 87.8397913,93.1244739 87.9380795,92.6801919 C88.0363676,92.2359099 88.0522205,91.7260292 87.7224797,91.383127 C87.6019974,91.2608749 87.4434682,91.1684404 87.3324977,91.037243 C87.2215272,90.9060456 87.1707979,90.765903 87.062998,90.6436509 C86.6323315,90.2883595 86.095051,90.0674938 85.5252642,90.0115181 C84.8893901,89.9586483 84.2514347,90.0886226 83.6958366,90.3842379 Z" id="Path" fill="#3F3D56"></path>
                    <g id="Group" opacity="0.1" transform="translate(82.000000, 92.000000)" fill="#000000">
                        <path d="M5.529,2.13272727 C5.418,2.13272727 5.364,2.01 5.331,1.91727273 L5.121,1.29818182 C5.061,1.12909091 4.941,0.921818182 4.74,0.938181818 C4.69395749,0.950378798 4.64504251,0.950378798 4.599,0.938181818 C4.554,0.916363636 4.548,0.864545455 4.536,0.818181818 C4.467,0.545454545 4.095,0.428181818 3.777,0.414545455 C3.64438636,0.40631269 3.51115716,0.414570699 3.381,0.439090909 C2.976,0.518181818 2.628,0.81 2.214,0.777272727 C2.10888772,0.759635588 2.00111228,0.759635588 1.896,0.777272727 C1.743,0.826363636 1.689,0.984545455 1.653,1.12363636 C1.548,1.54636364 1.446,1.96909091 1.353,2.38909091 C1.329,2.47636364 1.284,2.58272727 1.182,2.58818182 C1.137,2.31545455 1.035,2.00181818 0.735,1.94181818 C0.677464758,1.93712627 0.62092485,1.92519415 0.567,1.90636364 C0.52706074,1.88682524 0.496181968,1.85488169 0.48,1.81636364 C0.48,1.85454545 0.462,1.89545455 0.456,1.93363636 C0.427219566,2.03667454 0.471377283,2.14517016 0.567,2.20636364 C0.621343627,2.22392356 0.677704535,2.23581791 0.735,2.24181818 C1.035,2.30181818 1.137,2.62363636 1.182,2.88818182 C1.284,2.88818182 1.329,2.77636364 1.353,2.68909091 C1.458,2.26636364 1.56,1.84363636 1.653,1.42090909 C1.689,1.28454545 1.743,1.12363636 1.896,1.07727273 C2.00081082,1.05685941 2.10918918,1.05685941 2.214,1.07727273 C2.628,1.11 2.976,0.818181818 3.381,0.736363636 C3.51148037,0.714089905 3.64451569,0.706760135 3.777,0.714545455 C4.095,0.714545455 4.467,0.848181818 4.536,1.11818182 C4.536,1.16181818 4.554,1.21636364 4.599,1.23818182 C4.64504251,1.2503788 4.69395749,1.2503788 4.74,1.23818182 C4.941,1.21909091 5.061,1.42636364 5.121,1.59545455 L5.331,2.21454545 C5.364,2.30727273 5.418,2.41909091 5.529,2.43 C5.6340632,2.42942804 5.72249352,2.35835756 5.736,2.26363636 C5.74239537,2.18981179 5.73218801,2.11557646 5.706,2.04545455 C5.6709199,2.10357295 5.60171752,2.13769431 5.529,2.13272727 Z" id="Path"></path>
                        <path d="M0.48,1.34727273 C0.459,1.22181818 0.345,1.12363636 0.285,1.00909091 C0.24559831,0.931824279 0.222207213,0.848614843 0.216,0.763636364 C0.216,0.81 0.216,0.853636364 0.216,0.9 C0.204884253,1.03604158 0.229565052,1.17253387 0.288,1.29818182 C0.336,1.39090909 0.42,1.47272727 0.462,1.57090909 C0.483195337,1.4980222 0.48929906,1.42218807 0.48,1.34727273 Z" id="Path"></path>
                        <path d="M5.841,0.471818182 C5.72180834,0.825130469 5.66411164,1.19321144 5.67,1.56272727 C5.7090397,1.29434458 5.76614688,1.02839089 5.841,0.766363636 C5.89093225,0.566112318 5.90811701,0.360262833 5.892,0.155454545 C5.88253107,0.261799474 5.86549541,0.367475214 5.841,0.471818182 Z" id="Path"></path>
                    </g>
                    <path d="M82.904848,100 L81,100 C81.0840407,99.443784 81.2344637,98.9017923 81.4474803,98.3876763 C81.4642027,98.3347972 81.4917964,98.2867356 81.5281735,98.2471283 C81.5359977,98.2377693 81.5450629,98.2297256 81.5550712,98.2232617 C81.6113119,98.1755284 81.6895599,98.1569655 81.7506911,98.1118841 C81.8118223,98.0668026 81.819158,98.0190694 81.8753987,98.0005064 C82.0870352,97.9951094 82.2977222,98.0328909 82.4964916,98.1118841 C82.5527413,98.1187447 82.6078621,98.1339123 82.6603232,98.1569655 C82.7843011,98.231565 82.8770979,98.3549879 82.9195195,98.5017057 C83.0809059,98.9763866 82.9586435,99.4908451 82.904848,100 Z" id="Path" fill="#F86D70"></path>
                </g>
            </g>
        </g>
    </g>
</svg>