<svg width="32" height="32" viewBox="0 0 32 32" fill="none" xmlns="http://www.w3.org/2000/svg">
<path d="M21.9404 0H9.95769C4.44396 0 0 4.46369 0 9.9756V21.9552C0 27.4675 4.44396 32 9.95769 32H21.9404C27.4542 32 32 27.4675 32 21.9552V9.9756C32 4.46369 27.4542 0 21.9404 0ZM28.985 21.9552C28.985 25.8082 25.7945 28.972 21.9404 28.972H9.95769C6.10337 28.972 2.94647 25.8082 2.94647 21.9552V9.9756C2.94647 6.12287 6.10337 2.95914 9.95769 2.95914H21.9404C25.7945 2.95914 28.985 6.12287 28.985 9.9756V21.9552Z" fill="#C2C6C9"/>
<path d="M15.9491 7.97949C11.5375 7.97949 7.96069 11.5553 7.96069 15.9661C7.96069 20.3762 11.5375 23.952 15.9491 23.952C20.3608 23.952 23.9375 20.3762 23.9375 15.9661C23.9375 11.5553 20.3608 7.97949 15.9491 7.97949ZM15.9491 20.9573C13.197 20.9573 10.9566 18.7172 10.9566 15.9661C10.9566 13.2123 13.197 10.9745 15.9491 10.9745C18.7011 10.9745 20.9417 13.2124 20.9417 15.9661C20.9417 18.7172 18.7011 20.9573 15.9491 20.9573Z" fill="#C2C6C9"/>
<path d="M24.5364 6.31567C23.9484 6.31567 23.4717 6.79216 23.4717 7.37979C23.4717 7.96749 23.9484 8.44419 24.5364 8.44419C25.1238 8.44419 25.6007 7.96749 25.6007 7.37979C25.6007 6.79216 25.1238 6.31567 24.5364 6.31567Z" fill="#C2C6C9"/>
</svg>
