<?xml version="1.0" encoding="UTF-8"?>
<svg width="220px" height="40px" viewBox="0 0 220 40" version="1.1" xmlns="http://www.w3.org/2000/svg" xmlns:xlink="http://www.w3.org/1999/xlink">
    <!-- Generator: sketchtool 55.2 (78181) - https://sketchapp.com -->
    <title>40E1B38B-C75D-494A-A442-0B6E933E665B</title>
    <desc>Created with sketchtool.</desc>
    <g id="Premium-account" stroke="none" stroke-width="1" fill="none" fill-rule="evenodd">
        <g id="Oliv_plus_LP_C" transform="translate(-727.000000, -1775.000000)" fill="#CF4044" fill-rule="nonzero">
            <g id="Customers" transform="translate(256.000000, 1591.000000)">
                <g id="Group-11">
                    <g id="Logo" transform="translate(0.000000, 184.000000)">
                        <g id="johnson-johnson" transform="translate(471.000000, 0.000000)">
                            <path d="M17.0575208,14.3330561 C16.1877618,15.3772353 15.248937,16.629782 15.248937,18.5074315 C15.248937,22.0204153 17.267059,24.7689945 20.8842267,24.7689945 C25.686046,24.7689945 26.6248708,19.8653326 26.6248708,17.5334886 C26.6248708,17.2619084 26.6096529,17.0020342 26.5815584,16.7538661 C27.855176,16.5583751 29.1264524,16.0245795 30.3192983,15.2461276 L30.3251513,15.2496394 C30.3836816,17.5849952 30.450406,19.8466029 30.450406,20.873223 C30.4164585,24.1087736 30.6587736,24.4927319 31.6678346,24.4927319 C32.7459613,24.4927319 33.3382871,22.3001898 34.3473481,20.2130021 C35.5308292,17.6037249 36.7833759,14.9944476 37.5477806,14.9944476 C38.9747474,14.9944476 36.3994177,24.6320338 39.8433359,24.6296926 C42.2781931,24.6296926 45.8965313,14.8551457 47.4628001,14.8551457 C48.6802287,14.8551457 46.2090827,24.6320338 48.9237144,24.6296926 C50.9067183,24.6296926 54.2815708,14.6807256 55.4299337,14.6807256 C56.6134148,14.6807256 54.177387,24.6296926 57.6915415,24.6296926 C60.8580264,24.6296926 63.4321856,16.4553619 64.3019446,16.4553619 C64.7198504,16.4553619 65.5029848,17.5498771 66.0613631,19.0505919 L66.0578513,19.0903925 C64.9598243,20.4599996 64.2679971,21.7722472 64.2679971,22.7532137 C64.2679971,24.0057604 65.2431106,24.6308632 66.2158829,24.6308632 C67.6779678,24.6308632 69.103764,23.0669357 69.103764,20.805328 C69.103764,20.3324038 69.0639634,18.9815263 68.532509,17.6294782 L68.5348502,17.6154309 C70.7215393,15.5879441 73.5497196,13.821502 75.2611432,13.5335333 C74.2872003,14.6467781 72.512564,15.620721 72.512564,18.7872059 C72.512564,22.196006 75.1218413,24.8052833 78.4615757,24.8052833 C83.1580406,24.8052833 84.1671017,19.7962669 84.1671017,17.8483812 C84.1671017,17.1389949 84.0757945,16.4998449 83.9130805,15.9297605 L83.9083981,15.9367842 C85.5039319,15.1852561 86.7096545,14.1258591 87.1591666,14.1258591 C88.13428,14.1258591 87.7514924,17.0828059 87.7514924,20.1462777 C87.7514924,22.4418329 87.4026523,24.8052833 89.1082229,24.8052833 C90.3958878,24.8052833 91.0209905,22.2674129 92.3086554,20.0058051 C93.5612021,17.7781449 94.9179326,14.7509619 95.4400222,14.7509619 C96.1365319,14.7509619 95.857928,19.4134793 95.857928,20.3183565 C95.857928,21.4655488 95.6483898,25.0827165 98.0141813,25.0827165 C99.6143976,25.0827165 102.606462,20.5946192 102.606462,20.0046345 C102.606462,19.6909125 102.606462,19.6206763 102.362977,19.6206763 C102.119491,19.6206763 100.274618,22.6478593 99.5441613,22.6478593 C98.4999822,22.6478593 99.1613737,18.7860353 99.1613737,15.9332724 C99.1613737,14.6807256 99.3346231,11.8981989 97.2474354,11.8981989 C94.6030401,11.8981989 92.0288809,19.343243 91.2281875,19.343243 C90.4626122,19.3420724 92.3414323,12.1768028 89.036816,12.1768028 C87.6929622,12.1768028 85.6947404,14.0017751 83.5139044,14.9394292 L83.526781,14.9441116 C82.7237464,13.3684781 81.2827324,12.5595904 79.8873719,12.5595904 C78.8783109,12.5595904 78.1127356,13.3251657 78.1127356,14.1246885 C78.1127356,15.2028152 78.9824947,16.6637295 81.0006167,16.6637295 C81.5554832,16.6637295 82.0951318,16.573593 82.6101978,16.428438 L82.6336099,16.4378029 C82.8162242,17.0289581 82.9168961,17.6224545 82.9157255,18.0906963 C82.9157255,19.9343983 81.6643494,22.3341373 79.2634397,22.3341373 C77.3846196,22.3341373 75.7141671,20.352304 75.7141671,17.9162762 C75.7141671,13.9490979 78.1150768,13.288877 78.1150768,12.4881835 C78.1150768,12.140514 77.8364729,12.0714484 77.3143834,12.0714484 C74.631358,12.0714484 70.9427835,14.2897437 68.1731335,16.8463438 L68.162598,16.8440026 C68.0671557,16.6742191 67.9632307,16.5093456 67.8512172,16.3500075 C65.1717037,12.5233017 66.2158829,11.6886607 65.5205438,11.6886607 C64.6507848,11.6886607 60.7538426,22.3001898 59.2226921,22.3001898 C57.20457,22.3001898 60.8931446,12.0714484 56.9622549,12.0714484 C53.8660062,12.0714484 52.0913699,20.1076477 50.9090595,20.1076477 C49.7618671,20.1076477 52.0562518,12.0714484 48.7165174,12.0714484 C46.3167783,12.0714484 42.7323876,21.6739164 41.1672895,21.6739164 C39.8456771,21.6739164 42.3847181,12.2119209 39.3235875,12.2119209 C36.4005883,12.2119209 34.105033,19.6218469 33.3745759,19.6218469 C32.7635203,19.6218469 32.894628,17.3075619 32.9192107,13.0606091 L32.9297462,13.031344 C35.3259734,10.4560143 36.9929141,6.92781255 36.9940847,3.58573693 C36.9940847,2.02063882 36.2285094,0.802039619 34.7675951,0.803210223 C31.9148321,0.803210223 30.2443796,5.3252551 30.2443796,10.3003239 C30.2443796,11.3854742 30.2689623,12.7702992 30.3017393,14.1925836 L30.293545,14.2101426 C28.9695914,15.1840855 27.7228977,15.6932984 27.008829,15.6932984 L26.3649966,15.6968103 L26.3661672,15.6979809 C25.7082875,13.5534336 23.9395042,12.5970498 22.6600336,12.5970498 C21.6509726,12.5970498 20.8514498,13.5358745 20.8514498,14.3365679 C20.8514498,15.5165372 21.8991407,16.7644015 25.2014158,16.836979 L25.2084394,16.8440026 C25.2919486,17.2433465 25.3358638,17.6499539 25.3395471,18.0579194 C25.3395471,19.9016213 23.9828166,22.4078854 21.5830775,22.4078854 C19.4947192,22.4078854 17.9296211,20.0420939 17.9296211,17.431646 C17.9296211,14.0919116 20.1561107,13.0477325 20.1561107,12.8042467 C20.1561107,12.6649448 20.1209926,12.5256429 20.0519269,12.5256429 C17.8429964,12.5256429 14.239876,14.9581589 10.8439526,18.4887018 L10.8380996,18.4875312 C10.4541413,15.5657026 9.99643498,12.1135901 9.99643498,8.07383428 C9.99643498,2.22900641 11.0757323,1.46460172 11.0757323,0.69902643 C11.0757323,0.351356917 10.9715485,0.210884386 10.3792226,0.210884386 C9.05761023,0.210884386 0.499321315,4.07270837 0.499321315,12.6309973 C0.499321315,19.2133059 4.12117139,22.1386464 6.454186,23.9144533 C3.95260436,27.6299517 2.16977382,31.7130199 2.16977382,35.2798516 C2.16977382,37.296803 2.97046725,39.2809775 4.46532909,39.2809775 C6.83112062,39.2809775 11.3531655,34.26962 11.3543361,24.0081016 C11.3543361,22.6595654 11.179916,21.1225618 10.9563306,19.3853848 L10.9575012,19.3795318 C12.9838175,17.2408375 15.1564593,15.4767366 17.0575208,14.3330561 L17.0575208,14.3330561 Z M199.05139,15.3737234 L199.056072,15.3608468 C198.614755,14.5086468 197.988481,13.8472553 197.235783,13.8472553 C196.888113,13.8472553 196.575562,14.1949248 196.575562,14.4735286 C196.575562,15.099802 197.167888,15.4825897 198.070424,15.4825897 C198.400534,15.481419 198.727133,15.4427891 199.05139,15.3737234 L199.05139,15.3737234 Z M123.794402,23.2156025 C124.231038,22.5963527 124.688744,21.9899796 125.156986,21.3976538 L125.181569,21.3426354 C124.610314,18.3084287 124.001599,15.3819177 124.001599,13.2198113 C124.001599,7.06243206 126.681113,2.6785185 126.681113,1.73852315 C126.681113,1.11224979 126.786467,1.008066 126.333443,1.008066 C126.019721,1.008066 119.89746,3.61734325 119.89746,12.8370237 C119.898631,16.5536927 121.628784,21.1026615 123.794402,23.2156025 L123.794402,23.2156025 Z M123.312113,23.9144533 C122.448207,23.2577442 121.645173,22.1292816 120.41955,21.2922994 C119.385906,20.5840837 116.660739,21.3520002 114.297289,21.7792708 L114.292606,21.7839532 C114.08658,23.1465368 113.618338,24.4927319 113.148926,24.4927319 C112.842228,24.4927319 112.707608,23.4134346 112.32365,22.1608879 L112.300238,22.1444994 C111.244352,22.3341373 110.350011,22.4734393 109.808021,22.4734393 C108.172686,22.4734393 104.415046,21.7418115 104.415046,19.2730068 C104.415046,17.8823287 105.981315,17.325121 107.477347,17.325121 C109.181748,17.325121 111.895209,18.5425496 112.5566,19.8653326 C112.72985,17.4995411 111.024279,16.2118762 111.024279,15.8290886 C111.024279,15.4463009 112.869151,14.7509619 113.043571,14.7509619 C113.775199,14.7509619 114.401473,18.0906963 114.401473,20.4576584 C114.401473,20.5700365 114.39679,20.6835851 114.392108,20.8029867 L114.392108,20.805328 C116.265075,20.4307345 118.278514,20.0350702 119.584909,20.2130021 C118.332362,18.4383658 117.392367,16.0035086 117.392367,12.6286561 C117.392367,4.07036716 125.915538,0.208543177 127.23715,0.208543177 C127.829476,0.208543177 127.968778,0.347845103 127.968778,0.696685221 C127.968778,1.46226051 126.855533,2.2278358 126.855533,8.07149307 C126.855533,12.1147607 127.313239,15.570385 127.697198,18.4933842 C131.094292,14.9605001 134.699753,12.5244723 136.911025,12.5244723 C136.980091,12.5244723 137.014038,12.6637742 137.014038,12.8030761 C137.014038,13.0465619 134.787549,14.090741 134.78989,17.4304754 C134.787549,20.0397527 136.387765,22.4055442 138.474953,22.4055442 C140.840744,22.4055442 142.199816,19.8992801 142.199816,18.0555782 C142.199816,17.6903496 142.154162,17.2677614 142.067537,16.8358084 L142.065196,16.8334672 C138.759409,16.7608897 137.711718,15.514196 137.711718,14.3318855 C137.711718,13.5311921 138.512412,12.5923673 139.55425,12.5923673 C140.806797,12.5923673 142.567386,13.5487512 143.226436,15.6921278 L143.869098,15.688616 C144.584337,15.688616 145.833372,15.1782325 147.159667,14.2019484 L147.162008,14.1937542 C147.129521,12.8946144 147.1104,11.5951747 147.104648,10.2956415 C147.104648,5.32057268 148.776271,0.798527805 151.626693,0.797357201 C153.087608,0.797357201 153.853183,2.0159564 153.853183,3.58105451 C153.853183,6.92313013 152.186242,10.4525025 149.790015,13.0278322 L149.778309,13.0524149 C149.754897,17.3028795 149.622618,19.6195057 150.236015,19.6195057 C150.965302,19.6195057 153.260857,12.2095797 156.185027,12.2095797 C159.246157,12.2095797 156.741064,21.6715752 158.027558,21.6715752 C159.593827,21.6715752 163.175876,12.0691072 165.576786,12.0691072 C168.917691,12.0691072 166.622136,20.1053065 167.769328,20.1053065 C168.951639,20.1053065 170.725104,12.0691072 173.821353,12.0691072 C177.753413,12.0691072 174.066009,22.2978486 176.085302,22.2978486 C177.615282,22.2978486 181.511053,11.6863195 182.381983,11.6863195 C183.077322,11.6863195 182.034314,12.5209605 184.711486,16.3476663 C184.826205,16.5092097 184.929218,16.6730943 185.022867,16.8416614 L185.036914,16.8440026 C187.810076,14.2874025 191.506845,12.0679366 194.20977,12.0679366 C194.696742,12.0679366 194.975345,12.1381728 194.975345,12.4858423 C194.975345,13.2853652 192.574436,13.9467567 192.574436,17.9127644 C192.574436,20.3487922 194.246059,22.3306255 196.122538,22.3306255 C198.523447,22.3306255 199.775994,19.9297158 199.775994,18.0871845 C199.775994,17.6189427 199.677663,17.0277875 199.495049,16.4366323 L199.478661,16.428438 C198.964379,16.5785793 198.431741,16.656584 197.896004,16.6602177 C195.845105,16.6602177 194.974175,15.1981328 194.974175,14.1211767 C194.974175,13.3204833 195.73975,12.5560786 196.748811,12.5560786 C198.14066,12.5560786 199.579333,13.3614544 200.383538,14.9288938 L200.390562,14.9300644 C202.564374,13.990069 204.556743,12.173291 205.898255,12.173291 C209.204042,12.173291 207.325222,19.3409018 208.090797,19.3409018 C208.925438,19.3409018 211.46565,11.8958577 214.108875,11.8958577 C216.196062,11.8958577 216.022813,14.6783844 216.022813,15.9309311 C216.022813,18.7848647 215.362592,22.6455181 216.406771,22.6455181 C217.136058,22.6455181 218.98093,19.6183351 219.223245,19.6183351 C219.467902,19.6183351 219.501849,19.6897419 219.501849,20.0022933 C219.501849,20.5922779 216.508614,25.0803753 214.87445,25.0803753 C212.508658,25.0803753 212.718197,21.4632076 212.718197,20.3160153 C212.718197,19.4111381 212.994459,14.7486207 212.300291,14.7486207 C211.779372,14.7486207 210.421471,17.7758037 209.167753,20.0034639 C207.88243,22.2650717 207.256156,24.802942 205.969662,24.802942 C204.264092,24.802942 204.611761,22.4383211 204.611761,20.1439365 C204.611761,17.0816353 204.993378,14.1235179 204.021776,14.1235179 C203.571094,14.1235179 202.364201,15.1840855 200.779202,15.934443 L200.776861,15.9391254 C200.937234,16.5056979 201.028541,17.1413361 201.028541,17.84604 C201.028541,19.7939257 200.020651,24.802942 195.321844,24.802942 C191.983281,24.802942 189.372833,22.1936648 189.372833,18.7848647 C189.372833,15.6183798 191.147469,14.6444369 192.157701,13.5311921 C190.426377,13.8203314 187.592343,15.5844322 185.402143,17.6119191 L185.395119,17.63299 C185.925403,18.9838675 185.964033,20.3312332 185.964033,20.8041573 C185.964033,23.0657651 184.537066,24.6320338 183.076152,24.6296926 C182.102209,24.6296926 181.128266,24.0057604 181.128266,22.7520431 C181.128266,21.7687354 181.823605,20.4518054 182.927485,19.0786864 L182.927485,19.0669804 C182.369106,17.5569007 181.583631,16.4553619 181.162213,16.4553619 C180.293625,16.4553619 177.753413,24.6296926 174.552981,24.6296926 C171.038826,24.6296926 173.473683,14.6807256 172.291373,14.6807256 C171.144181,14.6807256 167.769328,24.6296926 165.821442,24.6296926 C163.072863,24.6296926 165.542839,14.8551457 164.324239,14.8551457 C162.760312,14.8551457 159.140803,24.6296926 156.705946,24.6296926 C153.263198,24.6296926 155.835016,14.9944476 154.41039,14.9944476 C153.644815,14.9944476 152.391098,17.6037249 151.209958,20.2130021 C150.199726,22.3001898 149.609742,24.4927319 148.530444,24.4927319 C147.522554,24.4927319 147.311845,24.1087736 147.311845,20.873223 C147.311845,19.8466029 147.245121,17.5861658 147.186591,15.2519806 L147.181908,15.2461276 C145.987892,16.0234089 144.721298,16.5560339 143.448851,16.7526954 L143.444168,16.7597191 C143.471092,17.005546 143.487481,17.2642496 143.487481,17.5334886 C143.487481,19.864162 142.547485,24.7689945 137.746837,24.7689945 C134.127328,24.7689945 132.145494,22.0204153 132.145494,18.5074315 C132.145494,16.629782 133.050372,15.3760647 133.920131,14.3330561 C132.02024,15.475566 129.849939,17.2361551 127.824794,19.3689963 L127.81777,19.3982614 C128.039014,21.1295854 128.215775,22.660736 128.215775,24.0057604 C128.215775,34.2672788 123.727678,39.2786363 121.326768,39.2786363 C119.829565,39.2786363 119.028872,37.2944618 119.028872,35.2775104 C119.027701,31.7118493 120.810532,27.6276105 123.312113,23.9144533 L123.312113,23.9144533 Z M183.238866,20.0397527 L183.229501,20.0397527 C182.637175,20.8942939 182.276629,21.713717 182.276629,22.4055442 C182.276629,23.1008832 182.415931,23.518789 182.835007,23.518789 C183.216624,23.518789 183.564294,23.0294764 183.564294,22.3692555 C183.564294,21.5826093 183.437868,20.7854277 183.238866,20.0397527 Z M149.78065,11.6371541 C151.25327,9.73492195 152.391098,7.19822217 152.391098,4.10548529 C152.391098,2.64340037 152.285743,1.80875942 151.522509,1.80875942 C149.561747,1.80875942 149.758409,9.07235985 149.78065,11.6371541 Z M141.701138,15.6652039 L141.705821,15.6558391 C141.333569,14.7825682 140.748266,14.0895704 139.938208,14.0895704 C139.588197,14.0895704 139.37983,14.2991086 139.37983,14.5765418 C139.381,15.3503114 140.482539,15.5937971 141.701138,15.6652039 L141.701138,15.6652039 Z M125.355989,22.2802895 L125.346624,22.2779483 C122.660087,25.8084912 120.661865,29.9138009 120.661865,33.8142549 C120.661865,35.1042609 120.661865,37.0170286 122.436501,37.0170286 C124.629043,37.0170286 126.161365,33.7451892 126.161365,29.1880262 C126.161365,27.0704028 125.787942,24.6624695 125.355989,22.2802895 L125.355989,22.2802895 Z M111.983004,21.248987 L111.997051,21.2279161 C111.390678,19.751784 110.327769,18.334182 108.173857,18.334182 C107.582702,18.334182 107.26898,18.8562716 107.26898,19.482545 C107.26898,20.6309079 109.077564,21.3602176 110.749187,21.3602176 C111.095686,21.3613651 111.517103,21.3180527 111.983004,21.248987 Z M82.1899508,15.3737234 C81.8684095,15.4437666 81.5404037,15.4798629 81.2113255,15.481419 C80.2725007,15.481419 79.715293,15.0986314 79.715293,14.472358 C79.715293,14.1937542 80.029015,13.8460847 80.3766845,13.8460847 C81.1282126,13.8460847 81.7533153,14.5086468 82.1958038,15.3596762 L82.1899508,15.3737234 L82.1899508,15.3737234 Z M66.3809381,20.0514587 C66.5775996,20.7924513 66.7040249,21.5872917 66.7040249,22.3692555 C66.7040249,23.0294764 66.3563554,23.518789 65.9723971,23.518789 C65.555662,23.518789 65.41636,23.1008832 65.41636,22.4055442 C65.41636,21.7172288 65.774565,20.9013175 66.3622084,20.0502881 L66.3809381,20.0502881 L66.3809381,20.0514587 L66.3809381,20.0514587 Z M32.9203813,11.6254481 C32.8981399,9.05011836 32.7049901,1.80875942 34.6622407,1.80875942 C35.427816,1.80875942 35.5319998,2.64340037 35.5319998,4.10548529 C35.5319998,7.19353975 34.3965135,9.72789832 32.9262344,11.6289599 L32.9203813,11.6254481 L32.9203813,11.6254481 Z M24.845552,15.6652039 C23.6246116,15.5926265 22.5195611,15.351482 22.5195611,14.5765418 C22.5195611,14.2991086 22.7290993,14.0895704 23.0767688,14.0895704 C23.8891682,14.0895704 24.4756411,14.7849094 24.8478933,15.6616921 L24.845552,15.6652039 L24.845552,15.6652039 Z M8.31778824,21.3742417 C7.84252284,21.97125 7.3801341,22.5858173 6.93764563,23.2120906 L6.93413381,23.2120906 C4.77202745,21.0968085 3.0371917,16.5501809 3.03602109,12.8358531 C3.03602109,3.61734325 9.15945282,1.008066 9.4731748,1.008066 C9.92502811,1.008066 9.78689679,1.11224979 9.78689679,1.73852315 C9.78689679,2.6785185 7.1425014,7.06126145 7.1425014,13.2198113 C7.1425014,15.3819177 7.7512157,18.3095993 8.32130005,21.3449766 L8.31778824,21.3742417 L8.31778824,21.3742417 Z M8.49454951,22.2709247 C8.92884375,24.6554459 9.29992535,27.0657204 9.29992535,29.1891968 C9.29992535,33.7463598 7.76877477,37.0181992 5.57740329,37.0181992 C3.80276699,37.0181992 3.80276699,35.1042609 3.80276699,33.8177667 C3.80276699,29.9126303 5.80332994,25.8038088 8.49103769,22.2720953 L8.49454951,22.2720953 L8.49454951,22.2709247 Z" id="Shape-Copy-5"></path>
                        </g>
                    </g>
                </g>
            </g>
        </g>
    </g>
</svg>