<svg width="376" height="240" viewBox="0 0 376 240" fill="none" xmlns="http://www.w3.org/2000/svg">
<rect width="376" height="240" fill="#F5F8FA"/>
<rect x="268" y="24" width="84" height="24" rx="4" fill="white"/>
<path d="M282.388 39H280.758L279.448 36.63H278.408V39H276.988V32.33H280.108C281.498 32.33 282.348 33.24 282.348 34.48C282.348 35.66 281.608 36.29 280.888 36.46L282.388 39ZM279.898 35.38C280.468 35.38 280.898 35.04 280.898 34.48C280.898 33.92 280.468 33.58 279.898 33.58H278.408V35.38H279.898ZM289.134 39H284.414V32.33H289.134V33.58H285.834V34.99H289.064V36.24H285.834V37.75H289.134V39ZM294.474 39.12C292.474 39.12 290.924 37.72 290.924 35.67C290.924 33.62 292.474 32.22 294.474 32.22C295.944 32.22 296.794 33.02 297.264 33.85L296.044 34.45C295.764 33.91 295.164 33.48 294.474 33.48C293.264 33.48 292.384 34.41 292.384 35.67C292.384 36.93 293.264 37.86 294.474 37.86C295.164 37.86 295.764 37.44 296.044 36.89L297.264 37.48C296.784 38.31 295.944 39.12 294.474 39.12ZM304.509 39H302.879L301.569 36.63H300.529V39H299.109V32.33H302.229C303.619 32.33 304.469 33.24 304.469 34.48C304.469 35.66 303.729 36.29 303.009 36.46L304.509 39ZM302.019 35.38C302.589 35.38 303.019 35.04 303.019 34.48C303.019 33.92 302.589 33.58 302.019 33.58H300.529V35.38H302.019ZM309.545 39.12C307.515 39.12 306.535 37.98 306.535 36.34V32.33H307.975V36.29C307.975 37.22 308.515 37.86 309.545 37.86C310.575 37.86 311.105 37.22 311.105 36.29V32.33H312.555V36.33C312.555 37.99 311.575 39.12 309.545 39.12ZM316.289 39H314.869V32.33H316.289V39ZM321.583 39H320.153V33.58H318.203V32.33H323.523V33.58H321.583V39ZM326.853 39H325.433V32.33H326.853V39ZM335.148 39H333.778L330.598 34.65V39H329.178V32.33H330.638L333.728 36.52V32.33H335.148V39ZM340.693 39.13C338.743 39.13 337.143 37.77 337.143 35.67C337.143 33.56 338.743 32.22 340.693 32.22C342.083 32.22 342.953 32.92 343.453 33.71L342.273 34.35C341.973 33.88 341.403 33.48 340.693 33.48C339.483 33.48 338.603 34.41 338.603 35.67C338.603 36.93 339.483 37.86 340.693 37.86C341.283 37.86 341.843 37.6 342.113 37.35V36.55H340.353V35.31H343.533V37.87C342.853 38.63 341.903 39.13 340.693 39.13Z" fill="#2F3233"/>
<path d="M267.267 120.048C266.226 118.221 263.839 117.583 262.016 118.603C261.626 118.816 253.771 123.32 253.467 133.987C255.463 134.54 257.546 135.39 259.759 136.664C261.322 137.557 262.016 139.384 261.495 141.042C261.409 141.297 261.278 141.594 261.148 141.849C260.107 143.591 257.85 144.229 256.027 143.294C256.591 143.634 257.242 143.804 257.937 143.804C258.241 143.804 258.544 143.761 258.805 143.719C260.888 143.252 262.19 141.212 261.669 139.172C259.325 129.355 265.097 125.615 265.792 125.19C267.658 124.128 268.309 121.876 267.267 120.048Z" fill="#91CA74"/>
<path d="M261.105 141.849C261.279 141.594 261.366 141.339 261.452 141.041C261.973 139.384 261.279 137.557 259.716 136.664C257.503 135.389 255.377 134.539 253.424 133.987C253.381 136.069 253.598 138.364 254.205 140.871C254.465 141.934 255.16 142.784 256.028 143.294C257.807 144.229 260.064 143.634 261.105 141.849Z" fill="#91CA74"/>
<path d="M267.571 123.108C267.007 124.723 265.401 125.828 263.579 125.7C247.175 124.298 244.527 111.974 244.397 111.464C243.963 109.424 245.352 107.427 247.435 107.002C249.518 106.619 251.558 107.894 251.948 109.934C252.122 110.699 253.988 117.243 264.229 118.136C266.356 118.306 267.918 120.176 267.745 122.258C267.701 122.513 267.658 122.81 267.571 123.108Z" fill="#B0E3F9"/>
<path d="M228.732 122.981C229.252 124.596 230.901 125.743 232.724 125.573C249.128 124.256 251.862 111.931 251.992 111.422C252.426 109.382 251.081 107.384 248.954 106.959C246.871 106.534 244.832 107.852 244.398 109.892C244.224 110.657 242.358 117.201 232.073 118.051C229.947 118.221 228.341 120.048 228.558 122.131C228.558 122.428 228.601 122.726 228.732 122.981Z" fill="#EE3197"/>
<path d="M238.366 143.846C240.102 143.846 241.707 142.657 242.141 140.914C245.917 125.148 234.807 118.816 234.33 118.561C232.464 117.541 230.12 118.178 229.035 120.006C227.994 121.833 228.645 124.128 230.468 125.148C231.162 125.573 236.934 129.355 234.59 139.172C234.113 141.212 235.371 143.252 237.454 143.719C237.758 143.804 238.062 143.846 238.366 143.846Z" fill="#F58634"/>
<path d="M254.16 140.917C253.553 138.367 253.336 136.072 253.379 134.032C242.747 131.058 235.977 137.177 235.63 137.475C234.068 138.919 234.024 141.299 235.5 142.829C236.975 144.317 239.406 144.402 240.924 142.999C241.532 142.447 246.913 138.154 255.766 143.254C255.81 143.297 255.896 143.297 255.94 143.339C255.115 142.829 254.421 141.979 254.16 140.917Z" fill="#F2C94C"/>
<path d="M86.8245 141.429C86.2604 140.877 86 140.239 86 139.517V98.7623C86 98.0399 86.2604 97.3599 86.8245 96.8499C87.3887 96.255 88.0397 96 88.8208 96C89.5585 96 90.2095 96.255 90.7737 96.8074C91.2944 97.3599 91.5982 97.9974 91.5982 98.7198V139.474C91.5982 140.197 91.3378 140.877 90.7737 141.387C90.2529 141.939 89.6019 142.194 88.8208 142.194C88.0397 142.279 87.3887 141.982 86.8245 141.429Z" fill="#8B39B2"/>
<path d="M98.2378 105.223C97.5868 104.586 97.2396 103.778 97.2396 102.758C97.2396 101.738 97.5868 100.931 98.2378 100.293C98.8887 99.656 99.7132 99.3585 100.668 99.3585C101.666 99.3585 102.491 99.656 103.142 100.293C103.793 100.931 104.14 101.738 104.14 102.758C104.14 103.778 103.793 104.586 103.142 105.223C102.491 105.861 101.666 106.158 100.668 106.158C99.7132 106.158 98.9321 105.861 98.2378 105.223ZM98.7151 141.431C98.1944 140.878 97.8906 140.241 97.8906 139.518V112.958C97.8906 112.235 98.151 111.598 98.7151 111.045C99.2359 110.535 99.8868 110.238 100.668 110.238C101.406 110.238 102.1 110.493 102.621 111.045C103.185 111.555 103.445 112.193 103.445 112.958V139.476C103.445 140.198 103.185 140.878 102.621 141.388C102.057 141.941 101.406 142.195 100.668 142.195C99.8868 142.28 99.2359 141.983 98.7151 141.431Z" fill="#8B39B2"/>
<path d="M132.522 111.469C134.475 112.531 135.994 114.061 137.122 116.058C138.25 118.056 138.815 120.435 138.815 123.198V139.559C138.815 140.281 138.554 140.919 137.99 141.471C137.469 141.981 136.818 142.279 136.037 142.279C135.299 142.279 134.648 142.024 134.084 141.471C133.564 140.961 133.26 140.324 133.26 139.559V123.708C133.26 120.988 132.392 118.863 130.699 117.248C129.007 115.633 126.924 114.868 124.407 114.868C121.846 114.868 119.72 115.761 117.984 117.503C116.248 119.245 115.38 121.455 115.38 124.048V139.559C115.38 140.281 115.12 140.919 114.556 141.471C113.992 141.981 113.341 142.279 112.603 142.279C111.865 142.279 111.214 142.024 110.65 141.471C110.129 140.961 109.825 140.324 109.825 139.559V112.956C109.825 112.233 110.086 111.596 110.65 111.044C111.171 110.534 111.822 110.236 112.603 110.236C113.341 110.236 114.035 110.491 114.556 111.044C115.12 111.554 115.38 112.191 115.38 112.956V114.996C116.552 113.381 118.027 112.106 119.85 111.214C121.673 110.321 123.712 109.854 125.926 109.854C128.399 109.896 130.613 110.406 132.522 111.469Z" fill="#8B39B2"/>
<path d="M171.708 139.644C171.708 140.621 171.318 141.344 170.58 141.854C170.103 142.151 169.538 142.321 168.974 142.321C168.019 142.321 167.282 141.939 166.761 141.216L156.259 126.427L150.314 131.527V139.517C150.314 140.239 150.053 140.919 149.489 141.429C148.925 141.981 148.274 142.236 147.536 142.236C146.798 142.236 146.147 141.981 145.583 141.429C145.063 140.876 144.759 140.239 144.759 139.517V98.7619C144.759 98.0395 145.019 97.3595 145.583 96.8496C146.104 96.2971 146.755 96.0421 147.536 96.0421C148.274 96.0421 148.968 96.2971 149.489 96.8496C150.053 97.402 150.314 98.0395 150.314 98.7619V124.728L166.284 110.789C166.718 110.364 167.325 110.151 168.019 110.151C168.887 110.151 169.538 110.449 170.103 111.086C170.537 111.554 170.753 112.148 170.753 112.871C170.753 113.721 170.45 114.358 169.799 114.911L160.382 122.985L171.144 138.199C171.535 138.624 171.708 139.134 171.708 139.644Z" fill="#8B39B2"/>
<path d="M175.788 140.241C174.877 139.731 174.443 139.008 174.443 138.073C174.443 137.436 174.703 136.841 175.18 136.416C175.658 135.949 176.265 135.736 176.916 135.736C177.307 135.736 177.654 135.821 177.914 135.949C180.605 137.223 183.296 137.861 186.03 137.861C187.939 137.861 189.545 137.436 190.803 136.629C192.062 135.821 192.713 134.801 192.713 133.526C192.713 132.336 192.149 131.444 190.977 130.891C189.805 130.296 188.026 129.659 185.552 129.022C183.252 128.427 181.343 127.789 179.867 127.237C178.392 126.642 177.133 125.749 176.092 124.517C175.05 123.284 174.53 121.712 174.53 119.715C174.53 116.782 175.571 114.445 177.654 112.618C179.737 110.833 182.515 109.94 185.9 109.94C187.592 109.94 189.371 110.195 191.194 110.663C193.017 111.13 194.666 111.768 196.141 112.575C196.532 112.788 196.879 113.085 197.096 113.51C197.356 113.893 197.443 114.318 197.443 114.743C197.443 115.38 197.183 115.975 196.705 116.4C196.228 116.867 195.62 117.08 194.969 117.08C194.579 117.08 194.232 116.995 193.885 116.825C192.583 116.187 191.281 115.678 189.892 115.295C188.547 114.913 187.288 114.743 186.16 114.743C184.337 114.743 182.818 115.21 181.69 116.102C180.518 116.995 179.954 118.142 179.954 119.545C179.954 120.48 180.258 121.202 180.909 121.797C181.56 122.392 182.341 122.86 183.296 123.157C184.25 123.497 185.596 123.879 187.375 124.389C189.588 124.942 191.454 125.537 192.886 126.089C194.318 126.642 195.577 127.534 196.619 128.682C197.66 129.829 198.137 131.359 198.137 133.314C198.137 136.246 196.966 138.541 194.622 140.241C192.279 141.941 189.458 142.748 186.073 142.748C182.471 142.663 178.999 141.856 175.788 140.241Z" fill="#8B39B2"/>
<path d="M225.26 140.792C224.913 141.217 224.479 141.514 223.959 141.684C222.006 142.279 220.183 142.619 218.491 142.619C215.279 142.619 212.762 141.599 210.983 139.602C209.768 138.412 208.943 137.052 208.466 135.48C207.989 133.907 207.772 131.995 207.772 129.785V115.931H203.041C202.347 115.931 201.739 115.676 201.219 115.209C200.741 114.741 200.481 114.146 200.481 113.424C200.481 112.701 200.741 112.149 201.219 111.639C201.696 111.172 202.304 110.917 203.041 110.917H207.772V103.225C207.772 102.502 208.032 101.822 208.596 101.312C209.16 100.76 209.811 100.505 210.549 100.505C211.287 100.505 211.981 100.76 212.502 101.312C213.066 101.865 213.326 102.502 213.326 103.225V110.959H221.876C222.57 110.959 223.177 111.214 223.698 111.681C224.176 112.149 224.436 112.744 224.436 113.466C224.436 114.189 224.176 114.741 223.698 115.251C223.221 115.719 222.613 115.974 221.876 115.974H213.326V130.593C213.326 132.038 213.457 133.227 213.717 134.162C213.977 135.097 214.411 135.862 215.062 136.5C215.974 137.392 217.145 137.817 218.664 137.817C219.749 137.817 221.051 137.605 222.613 137.18C222.743 137.137 222.96 137.095 223.264 137.095C223.915 137.095 224.523 137.307 224.957 137.775C225.434 138.242 225.651 138.795 225.651 139.517C225.781 139.942 225.608 140.367 225.26 140.792Z" fill="#8B39B2"/>
<path d="M290.226 110.661C290.79 111.171 291.05 111.808 291.05 112.573C291.05 113.296 290.79 113.933 290.226 114.486C289.661 114.996 289.01 115.293 288.273 115.293C285.148 115.293 282.674 116.228 280.852 118.056C279.029 119.883 278.118 122.518 278.118 126.002V139.644C278.118 140.366 277.857 141.004 277.293 141.556C276.729 142.066 276.078 142.364 275.34 142.364C274.603 142.364 273.952 142.109 273.388 141.556C272.867 141.046 272.563 140.409 272.563 139.644V112.956C272.563 112.233 272.823 111.596 273.388 111.044C273.908 110.534 274.559 110.236 275.34 110.236C276.078 110.236 276.772 110.491 277.293 111.044C277.857 111.554 278.118 112.191 278.118 112.956V114.996C279.246 113.423 280.678 112.191 282.414 111.299C284.193 110.406 286.146 109.939 288.273 109.896C289.01 109.896 289.705 110.151 290.226 110.661Z" fill="#8B39B2"/>
</svg>
