<svg width="32" height="32" viewBox="0 0 32 32" fill="none" xmlns="http://www.w3.org/2000/svg">
<path d="M17.3172 13.0788C17.4811 13.1137 17.5279 12.9976 17.5982 12.9048C19.3896 10.2936 21.9539 9.45797 24.9864 9.82934C28.6161 10.2703 30.9345 12.5914 31.7307 16.3864C31.9063 17.222 31.9883 18.0692 31.9883 18.9163C32 22.955 31.9883 26.9937 32 31.044C32 31.4385 31.9063 31.5778 31.4848 31.5662C29.6465 31.543 27.8199 31.543 25.9817 31.5662C25.525 31.5778 25.4314 31.4269 25.4314 31.0091C25.4431 27.2954 25.4431 23.5817 25.4314 19.868C25.4314 19.1485 25.3728 18.4521 25.1269 17.7558C24.7522 16.6997 24.0263 16.0266 22.9842 15.632C20.1741 14.5759 17.3874 16.3632 17.3523 19.3341C17.3055 23.0711 17.3406 26.7964 17.3406 30.5333C17.3406 31.5546 17.3406 31.5546 16.2751 31.5546C14.6359 31.5546 12.9966 31.543 11.3574 31.5662C10.9359 31.5662 10.7837 31.485 10.7837 31.0323C10.8071 24.3593 10.7954 17.6862 10.7954 11.0247C10.7954 10.6765 10.8774 10.5605 11.252 10.5605C13.1254 10.5837 14.9988 10.5721 16.8722 10.5605C17.2352 10.5605 17.3523 10.6649 17.3289 11.0247C17.2938 11.6978 17.3172 12.3941 17.3172 13.0788Z" fill="#C2C6C9"/>
<path d="M0.210927 21.1327C0.210927 17.86 0.222636 14.5989 0.199219 11.3262C0.199219 10.7692 0.37485 10.6531 0.890035 10.6647C2.64635 10.6995 4.40267 10.6879 6.15898 10.6647C6.5805 10.6647 6.73271 10.7575 6.73271 11.2102C6.721 17.8252 6.721 24.4403 6.73271 31.0553C6.73271 31.4731 6.5922 31.566 6.19411 31.566C4.37925 31.5428 2.56439 31.5428 0.74953 31.566C0.292889 31.5776 0.210927 31.4035 0.210927 30.9973C0.222636 27.713 0.210927 24.4171 0.210927 21.1327Z" fill="#C2C6C9"/>
<path d="M7.44817e-05 3.21476C0.023492 1.29988 1.41684 -0.011529 3.43074 7.64119e-05C5.38611 0.0232871 6.74432 1.41593 6.7092 3.36563C6.67407 5.2341 5.2456 6.58032 3.30195 6.56871C1.35829 6.56871 -0.0116343 5.16446 7.44817e-05 3.21476Z" fill="#C2C6C9"/>
</svg>
