<svg width="200" height="100" viewBox="0 0 200 100" fill="none" xmlns="http://www.w3.org/2000/svg">
<rect width="200" height="100" fill="white"/>
<g clip-path="url(#clip0_2646_74)">
<path d="M138.414 80.9954V81.1933H138.563C138.591 81.1939 138.619 81.1852 138.643 81.1681C138.663 81.1508 138.674 81.1223 138.673 81.0924C138.674 81.0631 138.663 81.0351 138.643 81.0187C138.619 81.0008 138.592 80.992 138.563 80.9935L138.414 80.9954ZM138.565 80.8825C138.629 80.8786 138.692 80.8969 138.744 80.9342C138.786 80.9686 138.81 81.0208 138.807 81.0749C138.809 81.1214 138.791 81.1664 138.757 81.1985C138.717 81.2331 138.666 81.2538 138.613 81.2577L138.813 81.4842H138.659L138.475 81.2593H138.416V81.4842H138.287V80.8829H138.567L138.565 80.8825ZM138.525 81.6916C138.593 81.6923 138.659 81.6787 138.721 81.6519C138.781 81.6264 138.835 81.5898 138.881 81.5442C138.927 81.4986 138.964 81.4447 138.99 81.3852C139.042 81.2593 139.042 81.1178 138.99 80.9918C138.964 80.9326 138.927 80.8787 138.881 80.8329C138.835 80.7873 138.781 80.7507 138.721 80.7252C138.659 80.6998 138.592 80.6871 138.525 80.6878C138.457 80.6872 138.389 80.6999 138.325 80.7252C138.264 80.7502 138.208 80.7868 138.161 80.8329C138.017 80.9803 137.975 81.1993 138.055 81.3892C138.079 81.4489 138.115 81.5029 138.161 81.5482C138.209 81.5942 138.264 81.6308 138.325 81.6559C138.388 81.6827 138.456 81.6962 138.525 81.6956V81.6916ZM138.525 80.5432C138.701 80.543 138.87 80.6115 138.995 80.7339C139.055 80.7927 139.104 80.8628 139.137 80.9402C139.206 81.1007 139.206 81.2823 139.137 81.4429C139.103 81.5198 139.055 81.5898 138.995 81.6491C138.934 81.7076 138.862 81.7547 138.784 81.7882C138.702 81.8228 138.614 81.8404 138.525 81.8399C138.435 81.8405 138.346 81.8229 138.263 81.7882C138.184 81.7554 138.112 81.7083 138.05 81.6491C137.991 81.5876 137.943 81.5153 137.911 81.4361C137.842 81.2756 137.842 81.0939 137.911 80.9334C137.944 80.856 137.992 80.7859 138.052 80.7272C138.113 80.667 138.185 80.6197 138.265 80.5881C138.348 80.5534 138.437 80.5358 138.527 80.5364L138.525 80.5432ZM77.2847 78.2213C77.2847 77.0748 78.0406 76.133 79.276 76.133C80.4567 76.133 81.2534 77.0343 81.2534 78.2213C81.2534 79.4082 80.4567 80.3095 79.276 80.3095C78.0406 80.3095 77.2847 79.3677 77.2847 78.2213ZM82.5992 78.2213V74.9587H81.1718V75.7535C80.7191 75.1661 80.0323 74.7978 79.0985 74.7978C77.2587 74.7978 75.8149 76.2315 75.8149 78.2228C75.8149 80.2141 77.2579 81.6479 79.0985 81.6479C80.0319 81.6479 80.7191 81.2791 81.1718 80.6922V81.4842H82.5976L82.5992 78.2213ZM130.83 78.2213C130.83 77.0748 131.586 76.133 132.822 76.133C134.004 76.133 134.799 77.0343 134.799 78.2213C134.799 79.4082 134.004 80.3095 132.822 80.3095C131.586 80.3095 130.83 79.3677 130.83 78.2213ZM136.146 78.2213V72.3399H134.718V75.7535C134.265 75.1661 133.578 74.7978 132.644 74.7978C130.804 74.7978 129.361 76.2315 129.361 78.2228C129.361 80.2141 130.804 81.6479 132.644 81.6479C133.578 81.6479 134.265 81.2791 134.718 80.6922V81.4842H136.146V78.2213ZM100.315 76.0658C101.235 76.0658 101.826 76.6389 101.977 77.6478H98.5708C98.7232 76.706 99.2983 76.0658 100.315 76.0658ZM100.344 74.7942C98.4204 74.7942 97.0746 76.185 97.0746 78.2193C97.0746 80.2932 98.4744 81.6443 100.44 81.6443C101.428 81.6443 102.334 81.3991 103.131 80.7303L102.431 79.6793C101.881 80.1164 101.18 80.3616 100.521 80.3616C99.6015 80.3616 98.764 79.9384 98.558 78.7641H103.432C103.446 78.5876 103.461 78.4096 103.461 78.2189C103.446 76.1854 102.182 74.7942 100.344 74.7942ZM117.577 78.2189C117.577 77.0724 118.333 76.1306 119.569 76.1306C120.749 76.1306 121.546 77.0319 121.546 78.2189C121.546 79.4059 120.749 80.3071 119.569 80.3071C118.333 80.3071 117.577 79.3653 117.577 78.2189ZM122.891 78.2189V74.9587H121.465V75.7535C121.01 75.1661 120.325 74.7978 119.391 74.7978C117.552 74.7978 116.108 76.2315 116.108 78.2228C116.108 80.2141 117.551 81.6479 119.391 81.6479C120.325 81.6479 121.01 81.2791 121.465 80.6922V81.4842H122.892V78.2213L122.891 78.2189ZM109.516 78.2189C109.516 80.1975 110.902 81.6439 113.018 81.6439C114.007 81.6439 114.666 81.4254 115.378 80.8663L114.692 79.7198C114.156 80.1025 113.594 80.3071 112.973 80.3071C111.833 80.2932 110.995 79.4746 110.995 78.2189C110.995 76.9631 111.833 76.1449 112.973 76.1306C113.592 76.1306 114.155 76.3353 114.692 76.7179L115.378 75.5715C114.664 75.0124 114.006 74.7938 113.018 74.7938C110.902 74.7938 109.516 76.2399 109.516 78.2189ZM127.918 74.7938C127.094 74.7938 126.558 75.1765 126.187 75.7495V74.9587H124.773V81.4806H126.202V77.8247C126.202 76.7454 126.669 76.1457 127.602 76.1457C127.907 76.1413 128.211 76.1971 128.494 76.3098L128.934 74.973C128.618 74.8494 128.207 74.7938 127.918 74.7938ZM89.6563 75.4773C88.9696 75.0275 88.0233 74.795 86.9795 74.795C85.3165 74.795 84.2458 75.587 84.2458 76.8829C84.2458 77.9463 85.0429 78.6023 86.5107 78.807L87.1851 78.9024C87.9678 79.0117 88.3373 79.2163 88.3373 79.5847C88.3373 80.089 87.8174 80.3767 86.8411 80.3767C85.8524 80.3767 85.1389 80.0627 84.6578 79.6944L83.9871 80.8003C84.7698 81.3733 85.7584 81.6467 86.8291 81.6467C88.7249 81.6467 89.8235 80.7598 89.8235 79.5179C89.8235 78.3715 88.9588 77.7718 87.5302 77.5672L86.8575 77.4702C86.2396 77.3907 85.7444 77.2671 85.7444 76.83C85.7444 76.3531 86.2112 76.0662 86.9943 76.0662C87.8322 76.0662 88.6433 76.3802 89.0408 76.6254L89.6587 75.4789L89.6563 75.4773ZM108.074 74.7962C107.251 74.7962 106.715 75.1789 106.345 75.7519V74.9587H104.931V81.4806H106.358V77.8247C106.358 76.7454 106.825 76.1457 107.758 76.1457C108.064 76.1413 108.367 76.1971 108.651 76.3098L109.091 74.973C108.775 74.8494 108.364 74.7962 108.074 74.7962ZM95.8936 74.9587H93.5595V72.9801H92.1164V74.9587H90.785V76.255H92.1164V79.2302C92.1164 80.7435 92.7076 81.6447 94.3962 81.6447C95.0157 81.6447 95.7292 81.454 96.1819 81.1405L95.7696 79.926C95.3436 80.1712 94.8769 80.2948 94.5057 80.2948C93.7922 80.2948 93.5595 79.8577 93.5595 79.2032V76.2562H95.8936V74.9587ZM74.5526 81.4822V77.3891C74.5526 75.8477 73.564 74.8105 71.9702 74.7966C71.1323 74.7827 70.268 75.0418 69.6628 75.9569C69.2101 75.2337 68.4966 74.7966 67.4935 74.7966C66.7924 74.7966 66.1073 75.0012 65.571 75.765V74.9587H64.1423V81.4806H65.5822V77.8644C65.5822 76.7322 66.2141 76.1306 67.19 76.1306C68.1378 76.1306 68.6174 76.7446 68.6174 77.8501V81.4798H70.0604V77.8636C70.0604 76.7315 70.7191 76.1298 71.6666 76.1298C72.6413 76.1298 73.1064 76.7438 73.1064 77.8493V81.479L74.5526 81.4822Z" fill="#231F20"/>
<path d="M139.227 60.8337V58.8329H138.977L138.688 60.206L138.401 58.8329H138.15V60.8337H138.328V59.3265L138.598 60.627H138.782L139.052 59.3231V60.8337H139.227ZM137.642 60.8337V59.1756H137.962V58.8379H137.144V59.1756H137.464V60.8337H137.642Z" fill="#F79410"/>
<path d="M110.816 63.878H89.1846V25.252H110.817L110.816 63.878Z" fill="#FF5F00"/>
<path d="M90.5562 44.5653C90.5562 36.73 94.2485 29.7503 99.9982 25.2523C95.646 21.8425 90.263 19.9919 84.7205 20C71.0674 20 60 30.9981 60 44.5653C60 58.1324 71.0674 69.1305 84.7205 69.1305C90.2631 69.1387 95.6463 67.2881 99.9986 63.8782C94.2493 59.381 90.5562 52.4009 90.5562 44.5653Z" fill="#EB001B"/>
<path d="M140 44.5653C140 58.1324 128.933 69.1305 115.28 69.1305C109.736 69.1386 104.353 67.288 99.9995 63.8782C105.751 59.3802 109.443 52.4009 109.443 44.5653C109.443 36.7296 105.751 29.7503 99.9995 25.2523C104.353 21.8426 109.736 19.992 115.279 20C128.932 20 140 30.9981 140 44.5653Z" fill="#F79E1B"/>
</g>
<defs>
<clipPath id="clip0_2646_74">
<rect width="80" height="80" fill="white" transform="translate(60 10)"/>
</clipPath>
</defs>
</svg>
