<?xml version="1.0" encoding="UTF-8"?>
<svg width="30px" height="23px" viewBox="0 0 30 23" version="1.1" xmlns="http://www.w3.org/2000/svg" xmlns:xlink="http://www.w3.org/1999/xlink">
    <!-- Generator: sketchtool 51.3 (57544) - http://www.bohemiancoding.com/sketch -->
    <title>4FFD3C2F-0062-4938-A86B-249660712118</title>
    <desc>Created with sketchtool.</desc>
    <defs></defs>
    <g id="Pricing" stroke="none" stroke-width="1" fill="none" fill-rule="evenodd">
        <g id="Checkout_A" transform="translate(-693.000000, -524.000000)">
            <g id="Content" transform="translate(273.000000, 136.000000)">
                <g id="Payment-Forms" transform="translate(0.000000, 156.000000)">
                    <g id="2" transform="translate(0.000000, 232.000000)">
                        <g id="Card">
                            <g id="Group-15">
                                <g id="Group-12" transform="translate(372.000000, 0.000000)">
                                    <g id="Group-18">
                                        <g id="mastercard-logo" transform="translate(48.245614, 0.000000)">
                                            <g id="mastercard-2-(3)">
                                                <path d="M28.4143478,22.6337941 L28.4143478,22.7327144 L28.4718947,22.7327144 C28.4826974,22.7329921 28.4933502,22.7286378 28.5027509,22.7201021 C28.5103681,22.7114603 28.5147262,22.6972095 28.514322,22.682265 C28.5147174,22.6675953 28.5103373,22.6536468 28.5027509,22.6454172 C28.4934575,22.6364622 28.4827286,22.6320768 28.4718947,22.6328049 L28.4143478,22.6328049 L28.4143478,22.6337941 Z M28.4689855,22.5916593 C28.4921563,22.5902118 28.5151034,22.5969824 28.533913,22.6108164 C28.5492048,22.6235519 28.5576478,22.6429087 28.5566667,22.6629826 C28.5573636,22.6802218 28.5507071,22.6969277 28.5384058,22.7088123 C28.5238978,22.7216378 28.505695,22.7293411 28.4865217,22.7307692 L28.5589855,22.8147657 L28.5031884,22.8147657 L28.4365217,22.7313587 L28.4149275,22.7313587 L28.4149275,22.8147657 L28.3682609,22.8147657 L28.3682609,22.5918067 L28.4697101,22.5918067 L28.4689855,22.5916593 Z M28.4544928,22.8916888 C28.4789681,22.891923 28.5032165,22.8869015 28.5256522,22.8769525 C28.5472837,22.8674845 28.5669545,22.8539337 28.5836232,22.8370174 C28.6003235,22.8201221 28.6136593,22.8001076 28.6228986,22.7780725 C28.641917,22.7313654 28.641917,22.678891 28.6228986,22.6321839 C28.6135233,22.6102245 28.6002039,22.5902347 28.5836232,22.573239 C28.5669478,22.556331 28.5472787,22.5427813 28.5256522,22.5333039 C28.5030815,22.5238964 28.4788847,22.5191862 28.4544928,22.5194518 C28.4296807,22.5192174 28.4050633,22.5239232 28.382029,22.5333039 C28.3599176,22.5425947 28.3397877,22.5561567 28.3227536,22.573239 C28.2703444,22.6279011 28.255113,22.709108 28.284058,22.7795461 C28.2928839,22.8016636 28.3060504,22.82172 28.3227536,22.838491 C28.339797,22.8555617 28.3599245,22.8691221 28.382029,22.8784262 C28.404925,22.888369 28.429597,22.8933863 28.4544928,22.8931624 L28.4544928,22.8916888 Z M28.4544928,22.465812 C28.5181871,22.4657463 28.5793519,22.4911526 28.6247826,22.5365458 C28.6466867,22.5583416 28.6641242,22.5843363 28.676087,22.6130268 C28.7011173,22.6725585 28.7011173,22.7399084 28.676087,22.79944 C28.663843,22.8279734 28.6464402,22.8539163 28.6247826,22.875921 C28.6025469,22.8976001 28.5766819,22.9150666 28.5484058,22.9274978 C28.5187128,22.9403253 28.486754,22.9468445 28.4544928,22.9466549 C28.421852,22.9468933 28.3895048,22.9403754 28.3594203,22.9274978 C28.3308187,22.915356 28.3047141,22.8978605 28.2824638,22.875921 C28.2608074,22.8531105 28.2436393,22.8263006 28.2318841,22.7969349 C28.2068537,22.7374032 28.2068537,22.6700533 28.2318841,22.6105217 C28.2438468,22.5818311 28.2612843,22.5558365 28.2831884,22.5340407 C28.3051374,22.5117224 28.3313198,22.4941748 28.3601449,22.4824639 C28.3902295,22.4695863 28.4225766,22.4630684 28.4552174,22.4633068 L28.4544928,22.465812 Z M6.26318841,21.6047745 C6.26318841,21.1796345 6.53710145,20.8303861 6.98478261,20.8303861 C7.4126087,20.8303861 7.70130435,21.1646036 7.70130435,21.6047745 C7.70130435,22.0449455 7.4126087,22.379163 6.98478261,22.379163 C6.53710145,22.379163 6.26318841,22.0299145 6.26318841,21.6047745 Z M8.18898551,21.6047745 L8.18898551,20.3949307 L7.67173913,20.3949307 L7.67173913,20.6896552 C7.50768116,20.4718538 7.25884058,20.335249 6.92043478,20.335249 C6.25376812,20.335249 5.73057971,20.8669319 5.73057971,21.605364 C5.73057971,22.3437961 6.25347826,22.8754789 6.92043478,22.8754789 C7.25869565,22.8754789 7.50768116,22.7387268 7.67173913,22.5210728 L7.67173913,22.8147657 L8.1884058,22.8147657 L8.1884058,21.6047745 L8.18898551,21.6047745 Z M25.666087,21.6047745 C25.666087,21.1796345 25.94,20.8303861 26.3878261,20.8303861 C26.816087,20.8303861 27.1043478,21.1646036 27.1043478,21.6047745 C27.1043478,22.0449455 26.816087,22.379163 26.3878261,22.379163 C25.9401449,22.379163 25.666087,22.0299145 25.666087,21.6047745 Z M27.5924638,21.6047745 L27.5924638,19.4238137 L27.0747826,19.4238137 L27.0747826,20.6896552 C26.9107246,20.4718538 26.6618841,20.335249 26.3234783,20.335249 C25.6568116,20.335249 25.1336232,20.8669319 25.1336232,21.605364 C25.1336232,22.3437961 25.6565217,22.8754789 26.3234783,22.8754789 C26.6618841,22.8754789 26.9107246,22.7387268 27.0747826,22.5210728 L27.0747826,22.8147657 L27.5924638,22.8147657 L27.5924638,21.6047745 Z M14.6086957,20.8054819 C14.942029,20.8054819 15.156087,21.0179782 15.2107246,21.3921309 L13.9765217,21.3921309 C14.0317391,21.0428824 14.2402899,20.8054819 14.6088406,20.8054819 L14.6086957,20.8054819 Z M14.6191304,20.3339228 C13.922029,20.3339228 13.4343478,20.8496905 13.4343478,21.6040377 C13.4343478,22.3731211 13.9415942,22.8741527 14.6537681,22.8741527 C15.012029,22.8741527 15.3401449,22.7832302 15.6288406,22.5352196 L15.3753623,22.1454465 C15.175942,22.3075449 14.922029,22.3984674 14.6833333,22.3984674 C14.35,22.3984674 14.0465217,22.2415267 13.9718841,21.8060713 L15.7381159,21.8060713 C15.7431884,21.7406425 15.7484058,21.6746242 15.7484058,21.6038904 C15.7431884,20.8498379 15.2846377,20.3337754 14.6188406,20.3337754 L14.6191304,20.3339228 Z M20.8637681,21.6038904 C20.8637681,21.1787504 21.1376812,20.8295019 21.5853623,20.8295019 C22.0131884,20.8295019 22.3018841,21.1637194 22.3018841,21.6038904 C22.3018841,22.0440613 22.0131884,22.3782788 21.5853623,22.3782788 C21.1376812,22.3782788 20.8636232,22.0290304 20.8636232,21.6038904 L20.8637681,21.6038904 Z M22.7894203,21.6038904 L22.7894203,20.3949307 L22.2724638,20.3949307 L22.2724638,20.6896552 C22.1078261,20.4718538 21.8595652,20.335249 21.5211594,20.335249 C20.8544928,20.335249 20.3313043,20.8669319 20.3313043,21.605364 C20.3313043,22.3437961 20.8542029,22.8754789 21.5211594,22.8754789 C21.8595652,22.8754789 22.1078261,22.7387268 22.2724638,22.5210728 L22.2724638,22.8147657 L22.7895652,22.8147657 L22.7895652,21.6047745 L22.7894203,21.6038904 Z M17.9427536,21.6038904 C17.9427536,22.3376068 18.4450725,22.8740053 19.2117391,22.8740053 C19.57,22.8740053 19.8086957,22.7929561 20.0668116,22.5856174 L19.8184058,22.1604775 C19.6242029,22.3023873 19.4202899,22.3782788 19.1952174,22.3782788 C18.7823188,22.3731211 18.4786957,22.069555 18.4786957,21.6038904 C18.4786957,21.1382258 18.7823188,20.834807 19.1952174,20.8295019 C19.4197101,20.8295019 19.6236232,20.9053935 19.8184058,21.0473033 L20.0668116,20.6221633 C19.8082609,20.4148246 19.5695652,20.3337754 19.2117391,20.3337754 C18.4450725,20.3337754 17.9427536,20.8700265 17.9427536,21.6038904 Z M24.6108696,20.3337754 C24.3124638,20.3337754 24.1181159,20.4756852 23.9837681,20.6881816 L23.9837681,20.3949307 L23.4711594,20.3949307 L23.4711594,22.8134394 L23.9889855,22.8134394 L23.9889855,21.457707 C23.9889855,21.0574713 24.1581159,20.8351017 24.4962319,20.8351017 C24.606952,20.8334767 24.7168926,20.8541614 24.8197101,20.8959623 L24.9791304,20.4002358 C24.8646377,20.3544061 24.7153623,20.3342175 24.6105797,20.3342175 L24.6108696,20.3337754 Z M10.7462319,20.5872384 C10.4973913,20.4204244 10.1544928,20.3342175 9.77623188,20.3342175 C9.17362319,20.3342175 8.78565217,20.6279104 8.78565217,21.1084586 C8.78565217,21.5027999 9.07449275,21.7460949 9.60637681,21.8219864 L9.85072464,21.8573534 C10.1343478,21.897878 10.2682609,21.9737695 10.2682609,22.1103743 C10.2682609,22.297377 10.0798551,22.4040672 9.72608696,22.4040672 C9.36782609,22.4040672 9.10927536,22.287651 8.93492754,22.1510463 L8.69188406,22.5611553 C8.97550725,22.7736516 9.33376812,22.8750368 9.72173913,22.8750368 C10.4086957,22.8750368 10.8068116,22.5461244 10.8068116,22.0856174 C10.8068116,21.6604775 10.4934783,21.4381079 9.9757971,21.3622163 L9.73202899,21.3262599 C9.50811594,21.2967875 9.32869565,21.2509579 9.32869565,21.0888594 C9.32869565,20.9120248 9.49782609,20.8056292 9.7815942,20.8056292 C10.0852174,20.8056292 10.3791304,20.9220454 10.5231884,21.0129679 L10.7471014,20.5878279 L10.7462319,20.5872384 Z M17.4202899,20.3346596 C17.1218841,20.3346596 16.9275362,20.4765694 16.7937681,20.6890657 L16.7937681,20.3949307 L16.2811594,20.3949307 L16.2811594,22.8134394 L16.7984058,22.8134394 L16.7984058,21.457707 C16.7984058,21.0574713 16.9675362,20.8351017 17.3056522,20.8351017 C17.4163723,20.8334767 17.5263129,20.8541614 17.6291304,20.8959623 L17.7885507,20.4002358 C17.674058,20.3544061 17.5247826,20.3342175 17.42,20.3342175 L17.4202899,20.3346596 Z M13.0063768,20.3949307 L12.1605797,20.3949307 L12.1605797,19.6612143 L11.6376812,19.6612143 L11.6376812,20.3949307 L11.1552174,20.3949307 L11.1552174,20.8756263 L11.6376812,20.8756263 L11.6376812,21.9789272 C11.6376812,22.5400825 11.8518841,22.8743 12.4637681,22.8743 C12.6882609,22.8743 12.9468116,22.8035662 13.1108696,22.6872974 L12.9614493,22.2369584 C12.8071014,22.3278809 12.637971,22.3737106 12.5034783,22.3737106 C12.2449275,22.3737106 12.1605797,22.2116121 12.1605797,21.9689066 L12.1605797,20.8760684 L13.0063768,20.8760684 L13.0063768,20.3949307 Z M5.27318841,22.8140289 L5.27318841,21.2961981 C5.27318841,20.72458 4.91492754,20.3399646 4.3373913,20.334807 C4.03376812,20.3296493 3.72057971,20.4257294 3.50130435,20.7651046 C3.33724638,20.4969054 3.07869565,20.334807 2.71521739,20.334807 C2.46115942,20.334807 2.21289855,20.4106985 2.01855072,20.6939287 L2.01855072,20.3949307 L1.50086957,20.3949307 L1.50086957,22.8134394 L2.0226087,22.8134394 L2.0226087,21.4724433 C2.0226087,21.0526083 2.2515942,20.8295019 2.60521739,20.8295019 C2.94869565,20.8295019 3.12246377,21.0571765 3.12246377,21.4671382 L3.12246377,22.8131447 L3.64536232,22.8131447 L3.64536232,21.4721485 C3.64536232,21.0523136 3.88405797,20.8292072 4.2273913,20.8292072 C4.58057971,20.8292072 4.74913043,21.0568818 4.74913043,21.4668435 L4.74913043,22.81285 L5.27318841,22.8140289 Z" id="Shape" fill="#231F20" fill-rule="nonzero"></path>
                                                <path d="M28.7092754,14.9152667 L28.7092754,14.4152667 L28.6186957,14.4152667 L28.513913,14.7583917 L28.4097101,14.4152667 L28.3188406,14.4152667 L28.3188406,14.9152667 L28.3831884,14.9152667 L28.3831884,14.5386001 L28.4811594,14.8636001 L28.5478261,14.8636001 L28.6457971,14.5377667 L28.6457971,14.9152667 L28.7095652,14.9152667 L28.7092754,14.9152667 Z M28.1346377,14.9152667 L28.1346377,14.5008917 L28.2505797,14.5008917 L28.2505797,14.4165167 L27.9543478,14.4165167 L27.9543478,14.5008917 L28.0702899,14.5008917 L28.0702899,14.9152667 L28.134058,14.9152667 L28.1346377,14.9152667 Z" id="Shape" fill="#F79410" fill-rule="nonzero"></path>
                                                <polygon id="Shape" fill="#FF5F00" fill-rule="nonzero" points="18.414058 16.2857353 10.5755072 16.2857353 10.5755072 1.96212791 18.4142029 1.96212791"></polygon>
                                                <path d="M11.0724638,9.12422635 C11.0724638,6.21868553 12.4104348,3.63041556 14.493913,1.96242263 C12.9168273,0.697976877 10.9662134,0.0117188415 8.95782609,0.0147362216 C4.01043478,0.0147362216 0,4.09313292 0,9.12422635 C0,14.1553198 4.01043478,18.2337165 8.95782609,18.2337165 C10.9662631,18.236767 12.9169332,17.5505072 14.494058,16.2860301 C12.4107246,14.6183319 11.0724638,12.0299145 11.0724638,9.12422635" id="Shape" fill="#EB001B" fill-rule="nonzero"></path>
                                                <path d="M28.9891304,9.12422635 C28.9891304,14.1553198 24.9786957,18.2337165 20.0313043,18.2337165 C18.0226551,18.2367138 16.0717724,17.550469 14.4943478,16.2860301 C16.5784058,14.6180371 17.9163768,12.0299145 17.9163768,9.12422635 C17.9163768,6.21853817 16.5784058,3.63041556 14.4943478,1.96242263 C16.0717334,0.698015079 18.0225599,0.011772076 20.0311594,0.0147362216 C24.9785507,0.0147362216 28.9889855,4.09313292 28.9889855,9.12422635" id="Shape" fill="#F79E1B" fill-rule="nonzero"></path>
                                            </g>
                                        </g>
                                    </g>
                                </g>
                            </g>
                        </g>
                    </g>
                </g>
            </g>
        </g>
    </g>
</svg>