<?xml version="1.0" encoding="UTF-8"?>
<svg width="37px" height="23px" viewBox="0 0 37 23" version="1.1" xmlns="http://www.w3.org/2000/svg" xmlns:xlink="http://www.w3.org/1999/xlink">
    <!-- Generator: Sketch 48.2 (47327) - http://www.bohemiancoding.com/sketch -->
    <title>mastercard</title>
    <desc>Created with Sketch.</desc>
    <defs></defs>
    <g id="Desktop-HD" stroke="none" stroke-width="1" fill="none" fill-rule="evenodd" transform="translate(-1279.000000, -3993.000000)">
        <g id="FOOTER" transform="translate(254.000000, 3822.000000)" fill-rule="nonzero">
            <g id="Employers-Copy" transform="translate(961.000000, 0.000000)">
                <g id="mastercard" transform="translate(64.000000, 171.000000)">
                    <path d="M10.9089137,0.0960185491 C4.89674492,0.134023797 0.0289563792,5.03599695 0.0289563792,11.0695814 C0.0289563792,17.126894 4.93434799,22.0424404 10.9791932,22.0424404 C13.8147065,22.0424404 16.4007725,20.9592908 18.3464803,19.1832996 L18.3460782,19.1828974 L18.3475863,19.1828974 C18.746742,18.8191329 19.1184494,18.4256077 19.4596922,18.0076505 L17.2167794,18.0076505 C16.9169602,17.6453941 16.6445893,17.2668498 16.4000687,16.876743 L20.2686611,16.876743 C20.5049371,16.4998074 20.7170828,16.1081924 20.907109,15.702602 L15.7621235,15.702602 C15.5864749,15.3256664 15.4340517,14.9414917 15.3042507,14.5498767 L21.3649818,14.5498767 C21.7310588,13.4558685 21.9285252,12.285146 21.9285252,11.0695814 C21.9285252,10.2622212 21.8408517,9.47667889 21.6764639,8.71898697 L14.9826137,8.71898697 C15.066165,8.3288802 15.1703275,7.94400165 15.2944981,7.56666384 L21.3582454,7.56666384 C21.222814,7.16408973 21.0651626,6.77247481 20.8860956,6.39171854 L15.7614197,6.39171854 C15.9461172,5.99557918 16.1556487,5.61150498 16.3893106,5.23899323 L20.2555905,5.23899323 C19.9978988,4.82777243 19.7134627,4.43505154 19.4061028,4.06485227 L17.2504613,4.06485227 C17.5841634,3.67092486 17.9505421,3.30042397 18.3481896,2.95696914 C16.4031856,1.18017354 13.8168179,0.096320178 10.9797965,0.096320178 C10.9551635,0.0960185491 10.9318375,0.0960185491 10.9089137,0.0960185491 Z" id="Shape" fill="#931B1D"></path>
                    <path d="M36.6166486,11.0729998 C36.6177545,17.1326249 31.7180939,22.046261 25.6690258,22.0480708 C19.6225719,22.0499811 14.7190906,17.1381548 14.7172808,11.0775243 L14.7172808,11.0729998 C14.7153705,5.011565 19.6166398,0.0975266938 25.6641997,0.0960185491 C31.7113575,0.0938066034 36.6152409,5.0059346 36.6167491,11.0669673 C36.6166486,11.0669673 36.6166486,11.0696819 36.6166486,11.0729998 Z" id="Shape" fill="#F16622"></path>
                    <path d="M36.6166486,11.1941541 C36.6177545,17.2540808 31.7180939,22.1685213 25.6690258,22.1696273 C19.6225719,22.1718392 14.7190906,17.2594096 14.7172808,11.1997845 L14.7172808,11.1941541 C14.7153705,5.13382527 19.6166398,0.21938479 25.6641997,0.217876645 C31.7113575,0.215664699 36.6152409,5.12779269 36.6167491,11.1884232 C36.6166486,11.1885237 36.6166486,11.1919422 36.6166486,11.1941541 Z" id="Shape" fill="#F7981D"></path>
                    <path d="M10.9089137,0.220591305 C4.89674492,0.259300354 0.0289563792,5.16016753 0.0289563792,11.1941541 C0.0289563792,17.2518689 4.93434799,22.167717 10.9791932,22.167717 C13.8147065,22.167717 16.4007725,21.0838636 18.3464803,19.308174 L18.3460782,19.307068 L18.3475863,19.307068 C18.746742,18.9436051 19.1184494,18.5512864 19.4596922,18.1318211 L17.2167794,18.1318211 C16.9169602,17.7702685 16.6445893,17.3925285 16.4000687,17.0024217 L20.2686611,17.0024217 C20.5049371,16.6250839 20.7170828,16.232363 20.907109,15.8271748 L15.7621235,15.8271748 C15.5864749,15.449837 15.4340517,15.0657628 15.3042507,14.6748517 L21.3649818,14.6748517 C21.7310588,13.5800391 21.9285252,12.4097188 21.9285252,11.1941541 C21.9285252,10.3871961 21.8408517,9.60125165 21.6764639,8.8439619 L14.9826137,8.8439619 C15.066165,8.4542573 15.1703275,8.06857441 15.2944981,7.69163877 L21.3582454,7.69163877 C21.222814,7.28876303 21.0651626,6.89704757 20.8860956,6.51598966 L15.7614197,6.51598966 C15.9461172,6.12135845 16.1556487,5.73577611 16.3893106,5.36366653 L20.2555905,5.36366653 C19.9978988,4.9528479 19.7134627,4.56042864 19.4061028,4.18872123 L17.2504613,4.18872123 C17.5841634,3.79559816 17.9505421,3.42499673 18.3481896,3.08083809 C16.4031856,1.30434412 13.8168179,0.220490762 10.9797965,0.220490762 C10.9551635,0.220591305 10.9318375,0.220591305 10.9089137,0.220591305 Z" id="Shape" fill="#CB2026"></path>
                    <g id="Group" transform="translate(1.005430, 8.345068)" fill="#FFFFFF">
                        <path d="M13.9108255,5.64277385 L14.0572161,4.64991189 C13.9774855,4.64991189 13.8600513,4.68379488 13.7565926,4.68379488 C13.3510022,4.68379488 13.3058584,4.46782855 13.3322007,4.30796521 L13.6598703,2.28132029 L14.2765004,2.28132029 L14.4255051,1.18238548 L13.8442661,1.18238548 L13.9628063,0.499899713 L12.7966082,0.499899713 C12.7713719,0.525437631 12.1081904,4.34214982 12.1081904,4.8059546 C12.1081904,5.49407078 12.4930689,5.80062634 13.0370065,5.7961019 C13.4620017,5.79218073 13.7941957,5.67444489 13.9108255,5.64277385 Z" id="Shape"></path>
                        <path d="M14.2806226,3.74934839 C14.2806226,5.40056581 15.3674923,5.7932867 16.2940964,5.7932867 C17.1496167,5.7932867 17.5254463,5.60104851 17.5254463,5.60104851 L17.7312578,4.47396167 C17.7312578,4.47396167 17.0808453,4.76292221 16.4931715,4.76292221 C15.2415119,4.76292221 15.4608967,3.82696757 15.4608967,3.82696757 L17.8305943,3.82696757 C17.8305943,3.82696757 17.9829169,3.06927565 17.9829169,2.76080978 C17.9829169,1.99145487 17.5999487,1.05318775 16.3204387,1.05318775 C15.1478059,1.05348938 14.2806226,2.31862174 14.2806226,3.74934839 Z M16.3253653,2.09893532 C16.9830169,2.09893532 16.8614605,2.84003765 16.8614605,2.89986072 L15.5672702,2.89986072 C15.566869,2.8235486 15.6892298,2.09893532 16.3253653,2.09893532 Z" id="Shape"></path>
                        <path d="M23.7073317,5.64277385 L23.9161594,4.36778828 C23.9161594,4.36778828 23.3439693,4.65674882 22.9515501,4.65674882 C22.1246846,4.65674882 21.7931943,4.02242313 21.7931943,3.343758 C21.7931943,1.96380555 22.5046365,1.20460548 23.2973174,1.20460548 C23.8910237,1.20460548 24.3679996,1.53941362 24.3679996,1.53941362 L24.5580258,0.302433294 C24.5580258,0.302433294 23.8511081,0.0149809045 23.2454372,0.0149809045 C21.8993677,0.0149809045 20.5893932,1.18389363 20.5893932,3.38317085 C20.5893932,4.83913379 21.2970147,5.80253665 22.688228,5.80253665 C23.0812505,5.80273774 23.7073317,5.64277385 23.7073317,5.64277385 Z" id="Shape"></path>
                        <path d="M7.49879732,1.07118494 C6.69938006,1.07118494 6.08647004,1.32817281 6.08647004,1.32817281 L5.91755783,2.3349097 C5.91755783,2.3349097 6.42389229,2.12950039 7.18801896,2.12950039 C7.62216357,2.12950039 7.93927613,2.17806265 7.93927613,2.53207449 C7.93927613,2.74653268 7.90056709,2.82586109 7.90056709,2.82586109 C7.90056709,2.82586109 7.5586204,2.79690471 7.39986303,2.79690471 C6.39202016,2.79690471 5.33259875,3.22803302 5.33259875,4.52895868 C5.33259875,5.55298897 6.02704914,5.78846064 6.45787582,5.78846064 C7.28061905,5.78846064 7.63422872,5.25387359 7.65383461,5.2515611 L7.61542719,5.69847467 L8.64176996,5.69847467 L9.09994433,2.47999323 C9.09994433,1.11512223 7.91142573,1.07118494 7.49879732,1.07118494 Z M7.74894827,3.69032966 C7.77116827,3.88709228 7.62558203,4.80876981 6.92359092,4.80876981 C6.56163618,4.80876981 6.46722632,4.53117063 6.46722632,4.36708448 C6.46722632,4.04765942 6.64066296,3.66358523 7.49537886,3.66358523 C7.69364963,3.66358523 7.71506528,3.68540305 7.74894827,3.69032966 Z" id="Shape"></path>
                        <path d="M10.1912379,5.76392815 C10.453454,5.76392815 11.9545607,5.83129195 11.9545607,4.27900883 C11.9545607,2.82757032 10.5652578,3.11391674 10.5652578,2.53076743 C10.5652578,2.24150527 10.7917811,2.14890518 11.2055155,2.14890518 C11.3699033,2.14890518 12.0023186,2.20199188 12.0023186,2.20199188 L12.1498152,1.16971707 C12.1498152,1.16971707 11.7405047,1.07862513 11.0746085,1.07862513 C10.2112459,1.07862513 9.33652197,1.42248213 9.33652197,2.60335947 C9.33652197,3.94229038 10.796205,3.80685898 10.796205,4.3704024 C10.796205,4.74663424 10.3880005,4.77750094 10.073502,4.77750094 C9.5302683,4.77750094 9.04082506,4.59049099 9.03851257,4.59913769 L8.88317366,5.61974951 C8.91032027,5.62930109 9.21275356,5.76392815 10.1912379,5.76392815 Z" id="Shape"></path>
                        <path d="M33.3641836,0.145284611 L33.1132283,1.70882854 C33.1132283,1.70882854 32.6741571,1.10205164 31.9876496,1.10205164 C30.9188777,1.10205164 30.0287707,2.39242029 30.0287707,3.87583146 C30.0287707,4.83330229 30.5031325,5.77046344 31.4745788,5.77046344 C32.1731514,5.77046344 32.5595381,5.28252834 32.5595381,5.28252834 L32.5087639,5.69897738 L33.6426876,5.69897738 L34.5339007,0.142771036 L33.3641836,0.145284611 Z M32.8231618,3.19525601 C32.8231618,3.81188613 32.5177122,4.63533316 31.8860006,4.63533316 C31.4661331,4.63533316 31.2701749,4.28242729 31.2701749,3.72863654 C31.2701749,2.82344806 31.6757653,2.22451351 32.187328,2.22451351 C32.6075976,2.22461405 32.8231618,2.51427838 32.8231618,3.19525601 Z" id="Shape"></path>
                        <polygon id="Shape" points="1.18560286 5.70380344 1.89624067 1.50904964 1.9996994 5.70380344 2.80323892 5.70380344 4.301631 1.50904964 3.63764514 5.70380344 4.83098981 5.70380344 5.75085756 0.141564521 3.90488839 0.141564521 2.75558154 3.55379229 2.69575847 0.141564521 0.99487282 0.141564521 0.0622361067 5.70380344"></polygon>
                        <path d="M19.1488133,5.7116458 C19.4881459,3.77830477 19.5509853,2.20762228 20.3613617,2.4939687 C20.5032279,1.74602945 20.6397652,1.45676729 20.7939982,1.13965472 C20.7939982,1.13965472 20.7218083,1.12427164 20.568983,1.12427164 C20.0479692,1.12427164 19.6607782,1.83903171 19.6607782,1.83903171 L19.7638348,1.1828882 L18.6780711,1.1828882 L17.951648,5.7116458 L19.1488133,5.7116458 Z" id="Shape"></path>
                        <path d="M26.3971581,1.07118494 C25.5977408,1.07118494 24.985233,1.32817281 24.985233,1.32817281 L24.8167229,2.3349097 C24.8167229,2.3349097 25.3219514,2.12950039 26.0867819,2.12950039 C26.5205243,2.12950039 26.8384413,2.17806265 26.8384413,2.53207449 C26.8384413,2.74653268 26.79933,2.82586109 26.79933,2.82586109 C26.79933,2.82586109 26.4573833,2.79690471 26.2974195,2.79690471 C25.2891744,2.79690471 24.2309595,3.22803302 24.2309595,4.52895868 C24.2309595,5.55298897 24.9258121,5.78846064 25.3562366,5.78846064 C26.1789798,5.78846064 26.5329917,5.25387359 26.5517932,5.2515611 L26.513788,5.69847467 L27.5408345,5.69847467 L27.9987073,2.47999323 C27.9991095,1.11512223 26.810993,1.07118494 26.3971581,1.07118494 Z M26.6477112,3.69032966 C26.6699312,3.88709228 26.5250488,4.80876981 25.8219517,4.80876981 C25.4603991,4.80876981 25.3666931,4.53117063 25.3666931,4.36708448 C25.3666931,4.04765942 25.5401297,3.66358523 26.3933375,3.66358523 C26.5928147,3.66358523 26.6135266,3.68540305 26.6477112,3.69032966 Z" id="Shape"></path>
                        <path d="M28.9361701,5.7116458 C29.2759048,3.77830477 29.3387442,2.20762228 30.1490201,2.4939687 C30.2908862,1.74602945 30.4274236,1.45676729 30.5824609,1.13965472 C30.5824609,1.13965472 30.5090645,1.12427164 30.357144,1.12427164 C29.8346222,1.12427164 29.4486376,1.83903171 29.4486376,1.83903171 L29.5524985,1.1828882 L28.4660311,1.1828882 L27.7392058,5.71134417 L28.9362706,5.71134417 L28.9362706,5.7116458 L28.9361701,5.7116458 Z" id="Shape"></path>
                    </g>
                </g>
            </g>
        </g>
    </g>
</svg>