<?xml version="1.0" encoding="UTF-8"?>
<svg width="75px" height="70px" viewBox="0 0 75 70" version="1.1" xmlns="http://www.w3.org/2000/svg" xmlns:xlink="http://www.w3.org/1999/xlink">
    <!-- Generator: sketchtool 54.1 (76490) - https://sketchapp.com -->
    <title>B81C70B8-DA64-4FAD-A1A7-24FAF5463AA0</title>
    <desc>Created with sketchtool.</desc>
    <g id="On-Boarding---Complete-Profile" stroke="none" stroke-width="1" fill="none" fill-rule="evenodd">
        <g id="onboarding_Complete-profile---Step-2" transform="translate(-1101.000000, -194.000000)" fill-rule="nonzero">
            <g id="Group-13" transform="translate(504.000000, 154.000000)">
                <g id="Group-12">
                    <g id="mortarboard" transform="translate(597.000000, 40.000000)">
                        <path d="M52.6995614,62.4251462 C52.030848,62.2554094 51.3535088,62.6646199 51.1875731,63.3321637 L49.9400585,68.3223684 C49.7716374,68.9922515 50.1795322,69.6684211 50.8482456,69.8356725 C50.949269,69.8618421 51.0516082,69.8730994 51.151462,69.8730994 C51.7103801,69.8730994 52.2181287,69.4950292 52.3603801,68.928655 L53.6078947,63.9384503 C53.775,63.2697368 53.3682749,62.5923977 52.6995614,62.4251462 Z" id="Path" fill="#EDB726"></path>
                        <path d="M37.4269006,37.4365497 C37.5890351,37.4365497 37.7513158,37.4054094 37.9035088,37.3418129 L51.6267544,31.6628655 C52.2630117,31.3995614 52.5649123,30.6697368 52.3017544,30.0334795 C52.0384503,29.3959064 51.3061404,29.0964912 50.6711988,29.3573099 L37.4269006,34.8390351 L2.49517544,20.3847953 L2.49517544,19.970614 C2.49517544,19.2820175 1.93625731,18.7230994 1.24766082,18.7230994 C0.559064327,18.7230994 0,19.2820175 0,19.970614 L0,21.2181287 C0,21.7233918 0.304385965,22.1788012 0.771052632,22.3709064 L36.9504386,37.3416667 C37.1024854,37.4052632 37.2647661,37.4365497 37.4269006,37.4365497 Z" id="Path" fill="#4353FF"></path>
                        <path d="M52.2679825,50.2178363 C51.9635965,49.6002924 51.2175439,49.3457602 50.5975146,49.651462 C48.2283626,50.8229532 44.2710526,52.1852339 38.6745614,52.3711988 L38.6745614,41.1792398 C38.6745614,40.4906433 38.1156433,39.9317251 37.4270468,39.9317251 C36.7384503,39.9317251 36.1795322,40.4906433 36.1795322,41.1792398 L36.1795322,52.3599415 C20.6885965,51.8659357 15.6896199,42.4817251 14.9709064,40.9197368 L14.9709064,32.446345 C14.9709064,31.7577485 14.4119883,31.1988304 13.7233918,31.1988304 C13.0347953,31.1988304 12.4758772,31.7577485 12.4758772,32.446345 L12.4758772,41.1792398 C12.4758772,41.3377193 12.505848,41.494883 12.5644737,41.6432749 C12.7815789,42.1834795 18.0912281,54.9023392 37.427193,54.9023392 C44.1852339,54.9023392 48.9210526,53.2630117 51.7030702,51.8881579 C52.3214912,51.5826023 52.5748538,50.8353801 52.2679825,50.2178363 Z" id="Path" fill="#22DDAB"></path>
                        <path d="M56.1403509,63.6353801 C55.4504386,63.6353801 54.8928363,64.1942982 54.8928363,64.8828947 L54.8928363,68.6255848 C54.8928363,69.3141813 55.4504386,69.8730994 56.1403509,69.8730994 C56.8302632,69.8730994 57.3878655,69.3141813 57.3878655,68.6255848 L57.3878655,64.8828947 C57.3878655,64.1942982 56.8302632,63.6353801 56.1403509,63.6353801 Z" id="Path" fill="#EDB726"></path>
                        <path d="M73.6062865,18.7230994 C72.9163743,18.7230994 72.3587719,19.2820175 72.3587719,19.970614 L72.3587719,20.3823099 L57.3880117,26.5440058 L57.3880117,24.2896199 L74.0828947,17.3805556 C74.5494152,17.1884503 74.8539474,16.7330409 74.8539474,16.2277778 C74.8539474,15.7225146 74.5495614,15.2684211 74.0842105,15.075 L37.9035088,0.104385965 C37.597807,-0.0216374269 37.2559942,-0.0216374269 36.9504386,0.104385965 L0.771052632,15.0751462 C0.304385965,15.2685673 0,15.7226608 0,16.227924 C0,16.7331871 0.304385965,17.1885965 0.771052632,17.3807018 L36.9504386,32.351462 C37.1026316,32.4150585 37.2647661,32.446345 37.4270468,32.446345 C37.5893275,32.446345 37.751462,32.4152047 37.903655,32.351462 L50.9856725,26.9383041 C51.6232456,26.6763158 51.9251462,25.9464912 51.6618421,25.3089181 C51.398538,24.6726608 50.6687135,24.3719298 50.0324561,24.6339181 L37.4269006,29.8488304 L4.50994152,16.227924 L37.4269006,2.60701754 L70.3438596,16.227924 L56.020614,22.155117 L42.3011696,17.0326023 C42.373538,16.7730994 42.4172515,16.5061404 42.4172515,16.227924 C42.4172515,14.1295322 40.2252924,12.4852339 37.4270468,12.4852339 C34.6288012,12.4852339 32.4368421,14.1295322 32.4368421,16.227924 C32.4368421,18.3263158 34.6288012,19.970614 37.4270468,19.970614 C38.6758772,19.970614 39.7899123,19.6299708 40.6557018,19.0811404 L54.8928363,24.397076 L54.8928363,28.3942982 L54.8928363,28.395614 L54.8928363,55.1321637 C53.4444444,55.6498538 52.3976608,57.0209064 52.3976608,58.6453216 C52.3976608,60.7087719 54.0769006,62.3880117 56.1403509,62.3880117 C58.2038012,62.3880117 59.8830409,60.7087719 59.8830409,58.6453216 C59.8830409,57.0210526 58.8364035,55.65 57.3878655,55.1321637 L57.3878655,48.0510234 C60.9695906,45.3475146 62.2533626,41.747076 62.3095029,41.5874269 C62.354386,41.4564327 62.3780702,41.3179825 62.3780702,41.1795322 L62.3780702,32.4466374 C62.3780702,31.7580409 61.8204678,31.1991228 61.1305556,31.1991228 C60.4406433,31.1991228 59.8830409,31.7580409 59.8830409,32.4466374 L59.8830409,40.9488304 C59.6672515,41.4777778 58.9173977,43.1083333 57.3878655,44.7176901 L57.3878655,29.2425439 L74.0815789,22.3722222 C74.5494152,22.180117 74.8538012,21.723538 74.8538012,21.2182749 L74.8538012,19.9707602 C74.8538012,19.2820175 74.2961988,18.7230994 73.6062865,18.7230994 Z M37.4269006,17.4754386 C35.903655,17.4754386 34.9317251,16.7368421 34.9317251,16.227924 C34.9317251,15.7188596 35.9035088,14.9804094 37.4269006,14.9804094 C38.9502924,14.9804094 39.922076,15.7190058 39.922076,16.227924 C39.922076,16.7369883 38.9501462,17.4754386 37.4269006,17.4754386 Z M56.1403509,59.8926901 C55.4517544,59.8926901 54.8928363,59.3326023 54.8928363,58.6451754 C54.8928363,57.9577485 55.4517544,57.3976608 56.1403509,57.3976608 C56.8289474,57.3976608 57.3878655,57.9577485 57.3878655,58.6451754 C57.3878655,59.3324561 56.8289474,59.8926901 56.1403509,59.8926901 Z" id="Shape" fill="#4353FF"></path>
                        <path d="M61.0931287,63.3321637 C60.9260234,62.6647661 60.2472222,62.2567251 59.5811404,62.4251462 C58.9124269,62.5922515 58.5057018,63.2697368 58.6729532,63.9384503 L59.9204678,68.928655 C60.0627193,69.4950292 60.5704678,69.8730994 61.129386,69.8730994 C61.2292398,69.8730994 61.3314327,69.8618421 61.4326023,69.8356725 C62.1013158,69.6685673 62.5080409,68.9922515 62.3407895,68.3223684 L61.0931287,63.3321637 Z" id="Path" fill="#EDB726"></path>
                    </g>
                </g>
            </g>
        </g>
    </g>
</svg>