<svg width="64" height="64" viewBox="0 0 64 64" fill="none" xmlns="http://www.w3.org/2000/svg">
<rect width="64" height="64" rx="4" fill="#4353FF"/>
<path d="M31.32 44.48C26.4 44.48 22.76 42.6 20.8 40.2L23.76 36.4C25.6 38.32 28.52 39.44 31.12 39.44C34.36 39.44 36.16 38.04 36.16 36.04C36.16 33.92 34.52 32.96 30.8 32.96C29.68 32.96 27.88 33 27.48 33.04V27.92C27.96 27.96 29.8 27.96 30.8 27.96C33.76 27.96 35.72 27.08 35.72 25.12C35.72 23 33.56 21.96 30.76 21.96C28.2 21.96 25.88 22.92 24 24.72L21.16 21.16C23.32 18.72 26.68 16.92 31.36 16.92C37.6 16.92 41.44 19.72 41.44 24.16C41.44 27.52 38.56 29.72 35.6 30.24C38.32 30.52 41.84 32.64 41.84 36.64C41.84 41.24 37.72 44.48 31.32 44.48Z" fill="white"/>
</svg>
