<?xml version="1.0" encoding="UTF-8"?>
<svg width="424px" height="319px" viewBox="0 0 424 319" version="1.1" xmlns="http://www.w3.org/2000/svg" xmlns:xlink="http://www.w3.org/1999/xlink">
    <!-- Generator: sketchtool 55.2 (78181) - https://sketchapp.com -->
    <title>78B15EEF-B9D9-450C-912A-269517D1931C</title>
    <desc>Created with sketchtool.</desc>
    <defs>
        <filter x="-18.7%" y="-16.1%" width="137.4%" height="132.2%" filterUnits="objectBoundingBox" id="filter-1">
            <feOffset dx="0" dy="2" in="SourceAlpha" result="shadowOffsetOuter1"></feOffset>
            <feGaussianBlur stdDeviation="2" in="shadowOffsetOuter1" result="shadowBlurOuter1"></feGaussianBlur>
            <feColorMatrix values="0 0 0 0 0   0 0 0 0 0   0 0 0 0 0  0 0 0 0.1 0" type="matrix" in="shadowBlurOuter1" result="shadowMatrixOuter1"></feColorMatrix>
            <feMerge>
                <feMergeNode in="shadowMatrixOuter1"></feMergeNode>
                <feMergeNode in="SourceGraphic"></feMergeNode>
            </feMerge>
        </filter>
    </defs>
    <g id="Premium-account" stroke="none" stroke-width="1" fill="none" fill-rule="evenodd">
        <g id="Job-Search_oliv_plus" transform="translate(-880.000000, -370.000000)">
            <g id="Group-15" transform="translate(311.000000, 343.000000)">
                <g id="Group-20" transform="translate(36.000000, 27.000000)">
                    <g id="Illustration" transform="translate(533.000000, 0.000000)">
                        <path d="M11.4092791,167.957703 C6.3217125,168.604893 -0.0589438956,170.456851 0,174.761492 C0.0300885192,176.945343 1.88281068,178.807258 3.68465717,180.403659 C11.3432312,187.235208 20.0805617,193.276541 29.6863619,198.382257 C34.2736511,200.815027 39.204351,203.141591 42.2526513,206.901929 C45.3009516,210.662267 46.0683263,215.448152 46.3099857,220.001713 C46.9044226,230.782803 45.2811311,241.568603 41.5022353,251.946333 C56.4384828,254.173329 73.0960236,256.124855 85.5436031,249.09206 C92.9968882,244.880349 98.0378187,237.824322 106.343271,234.903671 C111.888719,232.952145 118.167624,233.124729 124.213349,233.373648 C152.830911,234.552971 181.377812,236.765586 209.854052,240.011491 C221.780156,241.372249 233.935201,242.912228 245.734116,241.1532 C257.53303,239.394172 269.141161,233.655756 273.491031,224.352819 C274.160894,222.919045 274.762922,221.319325 276.263755,220.456405 C277.620439,219.686415 279.396848,219.70301 281.046067,219.749475 L380.711496,222.431163 C386.172151,222.577196 391.823589,222.696677 396.822124,220.937649 C401.668031,219.235042 405.394673,215.959266 408.981408,212.749869 C417.185109,205.428328 426.007797,196.420775 423.595443,186.483923 C421.666407,178.518512 413.042982,172.95268 404.49163,169.056266 C395.940279,165.159852 386.507082,161.970368 380.223938,155.740753 C370.663552,146.258594 371.04088,132.687523 370.447331,120.384281 C369.90642,109.2437 368.154776,98.1594005 365.211377,87.2514865 C362.620957,77.663122 359.013025,68.0614818 352.267759,59.9633131 C345.522494,51.8651444 335.207453,45.3799716 323.539967,44.1917977 C308.302705,42.6385424 292.98489,50.0795646 278.07832,46.9199512 C265.486593,44.264814 256.820771,34.8291199 246.38702,28.2908443 C227.855559,16.6746187 203.536991,14.2418492 180.545429,14.0194814 C156.167506,13.7772001 131.145158,15.7088125 109.417009,24.6699008 C104.439673,26.7209944 99.5725679,29.2035477 96.1257416,32.8278101 C90.8431516,38.3870038 89.5627807,45.8545774 86.1074751,52.3530259 C72.1802616,78.5194038 26.8839607,84.1615705 12.1808933,110.049159 C6.96189796,119.232615 7.01277362,129.942775 10.8157296,139.587561 C14.9069811,149.965829 26.4218401,155.697607 30.987931,164.744987 C26.0741897,167.220902 17.3659716,167.19767 11.4092791,167.957703 Z" id="Shape" fill="#FAFBFF" fill-rule="nonzero"></path>
                        <g id="Background-Shape-2" transform="translate(207.500000, 244.000000) scale(-1, 1) translate(-207.500000, -244.000000) translate(15.000000, 169.000000)" fill="#FAFBFF">
                            <path d="M384.832048,93.6874226 C390.444082,135.561717 254.342718,162.874886 137.197118,143.813684 C20.051519,124.752482 -33.6893275,50.3163368 22.2105994,10.6538328 C78.1105263,-29.0086712 379.220015,51.8131283 384.832048,93.6874226 Z" id="Background-Shape"></path>
                        </g>
                        <g id="Group-18" transform="translate(77.000000, 0.000000)">
                            <g id="Web">
                                <rect id="Container" fill="#ECEEFF" x="0" y="0" width="283" height="293" rx="8"></rect>
                                <g id="Group-9" transform="translate(210.000000, 36.000000)">
                                    <rect id="Background" fill="#FFFFFF" x="0" y="0" width="59" height="69" rx="8"></rect>
                                    <g id="Profile-Info" transform="translate(8.428571, 12.777778)" fill="#C4C8F5">
                                        <ellipse id="Avatar" cx="21.0714286" cy="13.6296296" rx="13.4857143" ry="13.6296296"></ellipse>
                                        <rect id="Name" x="0" y="30.6666667" width="42.1428571" height="5.11111111" rx="2.55555556"></rect>
                                        <rect id="Name" x="6.74285714" y="39.1851852" width="28.6571429" height="5.11111111" rx="2.55555556"></rect>
                                    </g>
                                </g>
                                <g id="Group-9-Copy" transform="translate(19.000000, 36.000000)">
                                    <rect id="Background" fill="#FFFFFF" x="0" y="0" width="59" height="69" rx="8"></rect>
                                    <g id="Profile-Info" transform="translate(8.428571, 12.777778)" fill="#C4C8F5">
                                        <ellipse id="Avatar" cx="21.0714286" cy="13.6296296" rx="13.4857143" ry="13.6296296"></ellipse>
                                        <rect id="Name" x="0" y="30.6666667" width="42.1428571" height="5.11111111" rx="2.55555556"></rect>
                                        <rect id="Name" x="6.74285714" y="39.1851852" width="28.6571429" height="5.11111111" rx="2.55555556"></rect>
                                    </g>
                                </g>
                                <g id="Group-9-Copy-2" transform="translate(112.000000, 118.000000)">
                                    <rect id="Background" fill="#FFFFFF" x="0" y="0" width="59" height="69" rx="8"></rect>
                                    <g id="Profile-Info" transform="translate(8.428571, 12.777778)" fill="#C4C8F5">
                                        <ellipse id="Avatar" cx="21.0714286" cy="13.6296296" rx="13.4857143" ry="13.6296296"></ellipse>
                                        <rect id="Name" x="0" y="30.6666667" width="42.1428571" height="5.11111111" rx="2.55555556"></rect>
                                        <rect id="Name" x="6.74285714" y="39.1851852" width="28.6571429" height="5.11111111" rx="2.55555556"></rect>
                                    </g>
                                </g>
                                <g id="Group-9-Copy-4" transform="translate(15.000000, 118.000000)">
                                    <rect id="Background" fill="#FFFFFF" x="0" y="0" width="59" height="69" rx="8"></rect>
                                    <g id="Profile-Info" transform="translate(8.428571, 12.777778)" fill="#C4C8F5">
                                        <ellipse id="Avatar" cx="21.0714286" cy="13.6296296" rx="13.4857143" ry="13.6296296"></ellipse>
                                        <rect id="Name" x="0" y="30.6666667" width="42.1428571" height="5.11111111" rx="2.55555556"></rect>
                                        <rect id="Name" x="6.74285714" y="39.1851852" width="28.6571429" height="5.11111111" rx="2.55555556"></rect>
                                    </g>
                                </g>
                                <g id="Group-9-Copy-3" transform="translate(210.000000, 118.000000)">
                                    <rect id="Background" fill="#FFFFFF" x="0" y="0" width="59" height="69" rx="8"></rect>
                                    <g id="Profile-Info" transform="translate(8.428571, 12.777778)" fill="#C4C8F5">
                                        <ellipse id="Avatar" cx="21.0714286" cy="13.6296296" rx="13.4857143" ry="13.6296296"></ellipse>
                                        <rect id="Name" x="0" y="30.6666667" width="42.1428571" height="5.11111111" rx="2.55555556"></rect>
                                        <rect id="Name" x="6.74285714" y="39.1851852" width="28.6571429" height="5.11111111" rx="2.55555556"></rect>
                                    </g>
                                </g>
                                <g id="Group-9-Copy-7" transform="translate(112.000000, 203.000000)">
                                    <rect id="Background" fill="#FFFFFF" x="0" y="0" width="59" height="69" rx="8"></rect>
                                    <g id="Profile-Info" transform="translate(8.428571, 12.777778)" fill="#C4C8F5">
                                        <ellipse id="Avatar" cx="21.0714286" cy="13.6296296" rx="13.4857143" ry="13.6296296"></ellipse>
                                        <rect id="Name" x="0" y="30.6666667" width="42.1428571" height="5.11111111" rx="2.55555556"></rect>
                                        <rect id="Name" x="6.74285714" y="39.1851852" width="28.6571429" height="5.11111111" rx="2.55555556"></rect>
                                    </g>
                                </g>
                                <g id="Group-9-Copy-6" transform="translate(15.000000, 203.000000)">
                                    <rect id="Background" fill="#FFFFFF" x="0" y="0" width="59" height="69" rx="8"></rect>
                                    <g id="Profile-Info" transform="translate(8.428571, 12.777778)" fill="#DDE3E9">
                                        <ellipse id="Avatar" cx="21.0714286" cy="13.6296296" rx="13.4857143" ry="13.6296296"></ellipse>
                                        <rect id="Name" x="0" y="30.6666667" width="42.1428571" height="5.11111111" rx="2.55555556"></rect>
                                        <rect id="Name" x="6.74285714" y="39.1851852" width="28.6571429" height="5.11111111" rx="2.55555556"></rect>
                                    </g>
                                </g>
                                <g id="Group-9-Copy-5" transform="translate(210.000000, 203.000000)">
                                    <rect id="Background" fill="#FFFFFF" x="0" y="0" width="59" height="69" rx="8"></rect>
                                    <g id="Profile-Info" transform="translate(8.428571, 12.777778)" fill="#C4C8F5">
                                        <ellipse id="Avatar" cx="21.0714286" cy="13.6296296" rx="13.4857143" ry="13.6296296"></ellipse>
                                        <rect id="Name" x="0" y="30.6666667" width="42.1428571" height="5.11111111" rx="2.55555556"></rect>
                                        <rect id="Name" x="6.74285714" y="39.1851852" width="28.6571429" height="5.11111111" rx="2.55555556"></rect>
                                    </g>
                                </g>
                                <g id="Group-9-Copy" filter="url(#filter-1)" transform="translate(115.351183, 91.323388) rotate(21.000000) translate(-115.351183, -91.323388) translate(83.249691, 54.063272)">
                                    <rect id="Background" stroke="#C8970F" fill="#FFFFFF" x="0.782022119" y="0.666628746" width="62.358209" height="72.6734104" rx="8"></rect>
                                    <g id="Profile-Info" transform="translate(8.909208, 13.839376)" fill="#C4C8F5">
                                        <ellipse id="Avatar" cx="22.8089552" cy="14.5913739" rx="14.5977313" ry="14.5913739"></ellipse>
                                        <rect id="Name" x="0" y="32.8305914" width="45.6179104" height="5.47176523" rx="2.73588261"></rect>
                                        <rect id="Name" x="7.29886567" y="41.9502001" width="31.0201791" height="5.47176523" rx="2.73588261"></rect>
                                    </g>
                                    <g id="icons8-star" transform="translate(37.702301, 13.570900)" fill-rule="nonzero">
                                        <path d="M0,5.50433526 C0,2.46485952 2.458908,0 5.49104478,0 C8.52318155,0 10.9820896,2.46485952 10.9820896,5.50433526 C10.9820896,8.543811 8.52318155,11.0086705 5.49104478,11.0086705 C2.458908,11.0086705 0,8.543811 0,5.50433526 Z" id="Path" stroke="#FFFFFF" fill="#C8970F"></path>
                                        <polygon id="Path" fill="#FFFFFF" points="5.49104478 2.06412572 6.55236839 4.10212327 8.92294776 4.43010061 7.20699627 6.01635579 7.61151715 8.25650289 5.49104478 7.19831186 3.36839756 8.25650289 3.77509328 6.01635579 2.05914179 4.43010061 4.42972117 4.10212327"></polygon>
                                    </g>
                                </g>
                                <path d="M8,0 L275,0 C279.418278,-8.11624501e-16 283,3.581722 283,8 L283,23 L0,23 L0,8 C-5.41083001e-16,3.581722 3.581722,8.11624501e-16 8,0 Z" id="Header" fill="#C4C8F5" opacity="0.3"></path>
                                <g id="Buttons" transform="translate(9.000000, 10.000000)" fill="#C4C8F5">
                                    <circle id="buttons" cx="4" cy="4" r="4"></circle>
                                    <circle id="buttons" cx="16" cy="4" r="4"></circle>
                                    <circle id="buttons" cx="28" cy="4" r="4"></circle>
                                </g>
                            </g>
                            <g id="teamwork_white_8" transform="translate(50.000000, 89.000000)">
                                <path d="M13,17.4999818 C13,18.1069775 12.5122251,18.6541393 11.7643264,18.8861053 C11.0164277,19.1180713 10.1558474,18.9891106 9.58422061,18.5594096 C9.01259382,18.1297085 8.8426137,17.4839804 9.15361044,16.9235882 C9.46460717,16.363196 10.1952694,15.9986181 11.0045951,16 C12.107365,16.0018922 13,16.6729025 13,17.4999818 Z" id="Path" fill="#60D6E6"></path>
                                <path d="M6.07330607,37.5716321 L32.9147196,44.2247055 L45.1810748,23 L50,24.7395272 C50,24.7395272 41.452979,47.62544 38.916472,51.772275 C36.379965,55.9191101 5,48.231389 5,48.231389 L6.07330607,37.5716321 Z" id="Path" fill="#D69E22"></path>
                                <path d="M2.36551279,97 L8.26531929,141.113247 L2,192.126656 C2,192.126656 4.085573,194.440684 6.91507203,193.925058 C8.62678659,193.609384 10.2675768,193.000503 11.7613416,192.126656 C11.7613416,192.126656 18.5813803,149.128502 20.0606321,141.113247 C21.5398839,133.097992 22,98.538493 22,98.538493 L2.36551279,97 Z" id="Path" fill="#27345E"></path>
                                <path d="M20.5,24 C18.575,24 17,21.9815534 17,19.5 C17,17.0184466 18.561875,15 20.5,15 C22.438125,15 24,17.0184466 24,19.5 C24,21.9815534 22.420625,24 20.5,24 Z M20.5,15.4368932 C18.815625,15.4368932 17.4375,17.2587379 17.4375,19.5 C17.4375,21.7412621 18.8025,23.5631068 20.5,23.5631068 C22.1975,23.5631068 23.5625,21.7412621 23.5625,19.5 C23.5625,17.2587379 22.18,15.4368932 20.5,15.4368932 Z" id="Shape" fill="#1A2249" fill-rule="nonzero"></path>
                                <path d="M28.9979239,24 C27.3370242,24 26,22.2079314 26,20 C26,17.7920686 27.3453287,16 28.9979239,16 C30.650519,16 32,17.7963558 32,20 C32,22.2036442 30.6546713,24 28.9979239,24 Z M28.9979239,16.4287245 C27.5737024,16.4287245 26.4152249,18.0321543 26.4152249,20 C26.4152249,21.9678457 27.5737024,23.5712755 28.9979239,23.5712755 C30.4221453,23.5712755 31.5847751,21.9721329 31.5847751,20 C31.5847751,18.0278671 30.4262976,16.4287245 28.9979239,16.4287245 Z" id="Shape" fill="#1A2249" fill-rule="nonzero"></path>
                                <path d="M21,28.1247155 L20.8153153,34.1492312 C20.8153153,34.1492312 20.0405405,35.607164 15.1846847,35.992733 C13.6294792,36.0663313 12.1065452,35.5784749 10.9594595,34.6392251 L10,25 L21,28.1247155 Z" id="Path" fill="#FBAD83"></path>
                                <path d="M21,28.4641138 L20.7352162,32.9498621 C20.2924738,33.0439355 19.8307998,33.0050161 19.4112974,32.838255 C17.1385702,31.9797386 17.4165931,29.5157964 16,25 L21,28.4641138 Z" id="Path" fill="#E68D5C"></path>
                                <path d="M28.6309076,10.1351702 C28.6309076,10.1351702 29.6955937,20.5144988 28.208413,25.5588526 C26.7212324,30.6032063 22.0864676,32.7164376 17.9967207,31.7864498 C16.4799654,31.4418561 10.9790868,25.3678729 10.2819709,17.8615424 C9.58485495,10.3552119 10.2523963,8.09251829 11.4945301,6.50240514 C12.736664,4.91229199 24.0257174,2.94021954 26.0790407,4.67564329 C28.132364,6.41106704 28.6309076,10.1351702 28.6309076,10.1351702 Z" id="Path" fill="#FBAD83"></path>
                                <path d="M10.0984603,3.57840429 C10.0984603,3.57840429 7.81483731,6.11084312 8.01207921,12.475706 C8.20932112,18.8405689 9.71712592,23.52136 11.6194145,25.4628965 C13.5217032,27.4044329 20.1051997,27.3157975 22.1389829,26.2521732 C24.1727662,25.1885489 27.8677646,21.0944395 27.6661395,18.6548568 C27.5828596,17.6081154 27.4776639,16.2448191 27.3856177,15.0334692 C27.2581421,13.3239222 28.4369543,11.7776426 30.1689201,11.3825366 L30.9754204,11.2010452 C30.9754204,11.2010452 31.4750999,4.92903833 27.9685771,2.33750927 C24.4620543,-0.254019798 20.2498438,-0.460835635 16.0420164,0.602788672 C11.8341891,1.66641298 10.0984603,3.57840429 10.0984603,3.57840429 Z" id="Path" fill="#1A2249"></path>
                                <path d="M22,21.9361702 C22,23.5592705 24.2502375,25 25.6298757,25 C27.0095139,25 27,23.5592705 27,21.9361702 C27,20.3130699 25.8820164,19 24.5023782,19 C23.12274,19 22,20.3130699 22,21.9361702 Z" id="Path" fill="#FBAD83"></path>
                                <path d="M23.0441926,21.2474745 C23.1855426,20.4160275 24.2706122,19.8904001 24.8651139,20.0194178 C25.4596157,20.1484354 23.904765,20.6310569 23.7634149,21.452947 C23.6220649,22.274837 24.4493785,23.1158408 23.8590341,22.9868232 C23.2277372,22.7490095 22.869426,21.9841636 23.0441926,21.2474745 L23.0441926,21.2474745 Z" id="Path" fill="#E68D5C"></path>
                                <path d="M18,8.99563423 C18.0017119,12.6365115 15.8095924,15.9197575 12.446188,17.3138523 C9.08278346,18.7079471 5.2107528,17.9382258 2.63626351,15.3637365 C0.0617742323,12.7892472 -0.707947118,8.91721654 0.686147683,5.55381205 C2.08024248,2.19040755 5.36348851,-0.00171194807 9.00436577,0 C13.9725168,0 18,4.02748318 18,8.99563423 Z" id="Path" fill="#1A2249"></path>
                                <rect id="Rectangle" fill="#1A2249" x="26" y="19" width="6" height="1"></rect>
                                <path d="M75,48.8884357 L78.0885597,46.0234868 L85.0819414,47.7823478 C85.0819414,47.7823478 85.7526001,44.9491309 86.5776867,44.364355 C87.4027734,43.779579 89,44.0742336 89,44.0742336 C89,44.0742336 87.9234163,48.9247009 87.1998109,50.6518299 C86.4762055,52.3789589 80.2902616,52.9184034 79.2578002,52.7597432 C78.7532864,52.6439423 78.224785,52.7298474 77.7797038,53 L75,48.8884357 Z" id="Path" fill="#FBAD83"></path>
                                <path d="M20.7990762,33 L32.3965358,37.4896849 L38,88.4329228 C38,88.4329228 10.2503464,98.7088465 0,88.4329228 L2.89168591,40.4814095 C3.03115433,38.0413666 4.65415762,35.9063693 7.03833718,35.0266522 L11.1981524,33.4951241 L20.7990762,33 Z" id="Path" fill="#E2A827"></path>
                                <path d="M22,92 C27.2531255,91.1796694 33.0053131,89.7969556 38,88.0167493 L33.8518519,49.4303925 L25.7748148,48 L22,92 Z" id="Path" fill="#D69E22"></path>
                                <path d="M32.4277858,38 L52.9978511,58.68226 L75.8066002,48.3801592 C76.6796695,49.2834227 77.4001447,50.3148943 77.9413661,51.4364067 L79,53.5036185 C79,53.5036185 56.4755948,66.4502222 51.8036071,67.9358981 C47.1316193,69.4215739 22,44.5895634 22,44.5895634 L32.4277858,38 Z" id="Path" fill="#E2A827"></path>
                                <path d="M46,22.5305273 C46,22.5305273 46.1981033,19.2502313 47.7576396,17.2728955 C49.317176,15.2955597 50.5816649,15 50.5816649,15 L49.540569,19.2960222 C49.540569,19.2960222 49.2961012,19.9162812 50.3076923,19.9703978 C51.3192835,20.0245143 51.4288725,18.0263645 52.6596417,17.8348751 C53.890411,17.6433858 54,17.8348751 54,17.8348751 C54,17.8348751 52.7355111,20.8362627 51.7028451,21.9185939 C50.6701791,23.0009251 49.8398314,24 49.8398314,24 L46,22.5305273 Z" id="Path" fill="#FBAD82"></path>
                                <path d="M27.7782503,190 L27,204 L48,204 C48,201.841677 46.5912973,199.929762 44.5127582,199.267487 L35.7521264,196.476734 L36.045565,190 L27.7782503,190 Z" id="Path" fill="#1A2249"></path>
                                <path d="M3.73792765,88 C3.73792765,88 1.84883286,92.8535979 4.11574661,99.9772249 C5.74294418,105.077474 14.5229416,105.587499 14.5229416,105.587499 L28.7727271,144.324311 L26.9265663,191.982378 C26.9265663,191.982378 31.494741,194.800057 34.6546814,193.775827 L37.8189151,192.751596 C37.8189151,192.751596 41.232166,146.347689 40.9874423,141.000788 C40.7427187,135.653887 34.6546814,88.0041805 34.6546814,88.0041805 L3.73792765,88 Z" id="Path" fill="#303D72"></path>
                                <path d="M4.27789327,191 L2,200.376378 L10.8306768,204 L21,204 C21.0002603,202.439366 19.9115673,201.060289 18.3139293,200.59748 L13.2665742,199.131654 L11.5109725,191.515906 L4.27789327,191 Z" id="Path" fill="#1A2249"></path>
                                <path d="M34.1315547,88 L3.44712305,88 C2.86706366,88 1.58682548,90.8059776 2.13232648,95.5405485 L19.2027263,98.1722959 L36,107 C34.7300055,96.6146271 34.1315547,88 34.1315547,88 Z" id="Path" fill="#27345E"></path>
                            </g>
                        </g>
                    </g>
                </g>
            </g>
        </g>
    </g>
</svg>