<svg width="360" height="252" viewBox="0 0 360 252" fill="none" xmlns="http://www.w3.org/2000/svg">
<g clip-path="url(#clip0_3021_249)">
<path d="M354 133.149C354 180.397 324.097 220.655 282.212 235.973C275.84 238.308 269.263 240.037 262.568 241.137C244.148 244.162 225.263 242.444 207.688 236.145C165.539 220.953 135.417 180.56 135.437 133.126C135.437 72.7084 184.365 23.7091 244.718 23.7091C267.528 23.6759 289.771 30.8221 308.304 44.1379C335.972 63.9897 354 96.4602 354 133.149Z" fill="#D9DDFF"/>
<path d="M282.212 235.973C275.84 238.308 269.263 240.036 262.568 241.136C244.148 244.162 225.262 242.444 207.688 236.145L212.735 215.866L213.04 214.648L223.339 214.688L275.079 214.874L275.741 216.834L282.212 235.973Z" fill="#2F3233"/>
<path d="M140.982 184.035C141.343 184.406 141.675 184.805 141.973 185.229L188.371 184.092L193.784 174.187L209.779 180.413L201.897 198.881C201.26 200.373 200.158 201.618 198.755 202.429C197.351 203.24 195.723 203.573 194.115 203.378L141.693 197.037C140.456 198.604 138.772 199.758 136.865 200.344C134.958 200.93 132.918 200.92 131.016 200.317C129.115 199.713 127.441 198.544 126.219 196.965C124.997 195.386 124.284 193.472 124.175 191.477C124.066 189.482 124.566 187.501 125.608 185.798C126.65 184.095 128.186 182.749 130.01 181.941C131.835 181.133 133.861 180.9 135.821 181.274C137.781 181.648 139.581 182.61 140.981 184.033L140.982 184.035Z" fill="#FFB8B8"/>
<path d="M203.432 127.474L225.146 120.348L231.523 111.589L262.558 113.428L267.114 123.649L283.663 131.48L281.119 178.779L276.769 223.045C254.396 211.444 212.644 220.289 212.278 220.433L203.432 127.474Z" fill="#4353FF"/>
<path fill-rule="evenodd" clip-rule="evenodd" d="M240.934 139C241.192 139.728 241.379 140.466 241.487 141.204C243.412 141.406 245.091 142.202 246.522 143.604C248.174 145.25 249 147.241 249 149.573C249 151.893 248.174 153.879 246.522 155.525C244.855 157.177 242.844 158 240.489 158C238.146 158 236.151 157.177 234.499 155.525C232.831 153.874 232 151.893 232 149.573C232 149.259 232.016 148.946 232.043 148.643C232.075 148.266 232.123 147.895 232.188 147.528C232.493 146.19 233.03 144.947 233.797 143.811C234.606 142.653 235.62 141.666 236.848 140.843C238.087 140.014 239.449 139.398 240.934 139ZM240.779 146.875C241.031 146.307 241.219 145.728 241.353 145.139C242.248 145.303 243.037 145.717 243.712 146.392C244.597 147.268 245.037 148.33 245.037 149.578C245.037 150.826 244.597 151.888 243.712 152.764C242.822 153.662 241.744 154.108 240.484 154.108C239.224 154.108 238.151 153.662 237.266 152.764C236.966 152.467 236.714 152.153 236.515 151.814C237.186 151.383 237.803 150.879 238.366 150.311C239.433 149.307 240.237 148.165 240.779 146.875ZM237.781 146.7C237.99 146.333 238.173 145.962 238.323 145.59C238.714 144.608 238.902 143.609 238.88 142.584C237.62 143.365 236.617 144.406 235.872 145.702C235.867 145.723 235.856 145.744 235.84 145.765C235.084 147.082 234.724 148.452 234.762 149.875C235.196 149.594 235.598 149.286 235.974 148.946C236.687 148.304 237.293 147.555 237.781 146.7Z" fill="#F5F8FA"/>
<path d="M208.074 191.496L185.988 182.646L186.082 182.253C186.176 181.855 195.577 142.517 196.825 136.195C198.125 129.61 202.875 127.789 203.077 127.715L203.224 127.66L211.965 130.325L215.804 160.53L208.074 191.496Z" fill="#4353FF"/>
<path d="M302.699 216.725L239.535 255.016L195.992 175.826L259.155 137.535L302.699 216.725Z" fill="white"/>
<path d="M302.699 216.725L239.535 255.016L195.992 175.826L259.155 137.535L302.699 216.725ZM240.006 253.171L300.941 216.231L258.685 139.381L197.749 176.321L240.006 253.171Z" fill="#DCE1E4"/>
<path d="M245.541 171.908C246.338 173.875 246.475 176.068 245.93 178.127C245.755 178.796 245.509 179.443 245.197 180.055C244.348 181.733 243.036 183.103 241.433 183.985C241.215 184.106 240.991 184.217 240.761 184.319C240.306 184.522 239.836 184.685 239.356 184.806C239.187 184.851 239.019 184.888 238.849 184.92C238.554 184.977 238.256 185.017 237.957 185.041C236.989 185.123 236.014 185.038 235.071 184.792C234.821 184.727 234.573 184.65 234.327 184.561C234.028 184.455 233.734 184.331 233.448 184.189C233.373 184.153 233.296 184.114 233.221 184.074C231.922 183.394 230.798 182.394 229.945 181.159C229.093 179.925 228.538 178.492 228.326 176.983C228.115 175.475 228.254 173.935 228.731 172.494C229.209 171.054 230.01 169.757 231.068 168.712C232.126 167.667 233.409 166.906 234.807 166.494C236.205 166.082 237.678 166.03 239.099 166.344C240.52 166.658 241.848 167.328 242.97 168.296C244.091 169.265 244.973 170.504 245.541 171.908Z" fill="#F5F8FA"/>
<path d="M238.886 179.672C241.025 178.719 242.023 176.127 241.116 173.881C240.209 171.636 237.74 170.587 235.601 171.54C233.463 172.492 232.464 175.085 233.371 177.331C234.279 179.576 236.748 180.624 238.886 179.672Z" fill="#9E616A"/>
<path d="M240.443 172.368C240.34 172.067 240.137 171.815 239.866 171.651L239.675 171.537C238.899 170.909 237.868 170.492 237.113 170.187C236.546 169.958 236.065 169.941 235.686 170.132C235.413 170.277 235.203 170.519 235.101 170.807C234.58 171.004 234.12 171.343 233.776 171.784C233.432 172.225 233.22 172.749 233.165 173.29C231.873 174.846 233.35 177.082 233.365 177.105L234.016 177.568L234.028 177.467C234.027 177.466 234.03 177.456 234.031 177.439C234.054 177.273 234.173 176.352 234.266 175.76C234.305 175.556 234.386 175.359 234.505 175.183C234.698 174.892 234.956 174.647 235.258 174.469L236.078 173.975L235.943 174.596L238.298 173.547L239.162 173.04C239.398 173.359 240.68 174.434 240.835 174.563L240.847 174.574L240.934 174.647L240.914 173.814C240.888 173.292 240.726 172.794 240.443 172.368Z" fill="#2F3233"/>
<path d="M236.273 184.449C236.324 184.207 236.631 183.052 237.956 181.922L238.356 180.577L241.332 178.582L243.368 178.856L245.628 178.586C245.486 179.191 245.282 179.774 245.019 180.325C244.305 181.835 243.181 183.055 241.794 183.827C241.606 183.933 241.412 184.03 241.213 184.119C240.818 184.294 240.41 184.434 239.991 184.535C239.844 184.572 239.698 184.603 239.55 184.628C239.293 184.675 239.034 184.706 238.772 184.722C237.936 184.778 237.092 184.686 236.273 184.449C236.263 184.447 236.254 184.443 236.244 184.441L236.273 184.449Z" fill="#4353FF"/>
<path d="M270.752 181.636L226.567 208.421L227.553 210.214L271.737 183.428L270.752 181.636Z" fill="#DCE1E4"/>
<path d="M259.695 181.547L232.054 198.304L233.039 200.097L260.681 183.34L259.695 181.547Z" fill="#4353FF"/>
<path d="M273.322 186.31L229.138 213.096L230.123 214.889L274.308 188.103L273.322 186.31Z" fill="#DCE1E4"/>
<path d="M275.892 190.985L231.708 217.771L232.694 219.563L276.878 192.778L275.892 190.985Z" fill="#DCE1E4"/>
<path d="M280.416 199.212L236.232 225.997L237.217 227.79L281.402 201.005L280.416 199.212Z" fill="#DCE1E4"/>
<path d="M282.986 203.886L238.801 230.671L239.787 232.464L283.972 205.678L282.986 203.886Z" fill="#DCE1E4"/>
<path d="M285.557 208.561L241.372 235.347L242.358 237.139L286.542 210.354L285.557 208.561Z" fill="#DCE1E4"/>
<path d="M255.762 221.099C256.28 221.086 256.798 221.115 257.311 221.184L288.025 186.339L284.452 175.631L299.887 168.119L308.051 186.463C308.711 187.945 308.873 189.601 308.513 191.183C308.152 192.765 307.289 194.187 306.053 195.236L265.768 229.418C266.075 231.392 265.774 233.413 264.907 235.212C264.039 237.011 262.645 238.502 260.91 239.488C259.175 240.474 257.181 240.908 255.194 240.732C253.207 240.555 251.321 239.777 249.786 238.501C248.251 237.225 247.141 235.511 246.602 233.588C246.064 231.664 246.123 229.622 246.772 227.733C247.42 225.844 248.628 224.197 250.234 223.012C251.84 221.827 253.768 221.16 255.762 221.099Z" fill="#FFB8B8"/>
<path d="M285.573 189.731L272.761 159.55L277.758 138.527L283.142 131.715C283.537 131.546 283.962 131.461 284.391 131.465C284.82 131.469 285.243 131.562 285.634 131.738C287.621 132.538 289.31 134.992 290.66 139.029L302.667 173.28L285.573 189.731Z" fill="#4353FF"/>
<path d="M219.1 100.405V77.6516C219.087 73.6476 219.862 69.6802 221.379 65.9759C222.897 62.2716 225.129 58.903 227.946 56.0624C230.764 53.2218 234.113 50.9648 237.802 49.4203C241.491 47.8758 245.447 47.074 249.445 47.0607C253.443 47.0474 257.405 47.823 261.104 49.343C264.803 50.863 268.167 53.0977 271.003 55.9195C273.84 58.7414 276.093 62.0951 277.636 65.7893C279.178 69.4834 279.979 73.4456 279.992 77.4495C279.992 77.5169 279.992 77.5842 279.992 77.6516V100.405C279.991 101.491 279.559 102.532 278.793 103.3C278.026 104.068 276.986 104.5 275.902 104.501H223.19C222.106 104.5 221.066 104.068 220.3 103.3C219.533 102.532 219.102 101.491 219.1 100.405Z" fill="#2F3233"/>
<path d="M243.29 103.971C255.618 103.971 265.611 93.9624 265.611 81.6166C265.611 69.2709 255.618 59.2627 243.29 59.2627C230.962 59.2627 220.968 69.2709 220.968 81.6166C220.968 93.9624 230.962 103.971 243.29 103.971Z" fill="#FFB8B8"/>
<path d="M211.898 79.4715C211.905 73.0769 214.445 66.9464 218.96 62.4248C223.475 57.9031 229.596 55.3597 235.982 55.3525H240.526C246.911 55.3597 253.033 57.9032 257.548 62.4248C262.063 66.9464 264.603 73.077 264.61 79.4715V79.9265H255.006L251.731 70.7401L251.076 79.9265H246.113L244.461 75.2922L244.13 79.9265H211.898V79.4715Z" fill="#2F3233"/>
<path d="M241.093 107.059C240.642 106.448 240.373 105.721 240.316 104.963C240.26 104.206 240.418 103.447 240.773 102.775C245.588 93.6028 252.33 76.6538 243.381 66.2013L242.74 65.4512H268.721V104.515L245.119 108.685C244.88 108.727 244.638 108.749 244.395 108.749C243.751 108.749 243.116 108.596 242.542 108.302C241.968 108.009 241.472 107.583 241.095 107.06L241.093 107.059Z" fill="#2F3233"/>
<path d="M100.926 70.2627H6V177.831H100.926V70.2627Z" fill="#DCE1E4"/>
<path d="M99.068 72.5381H7.69257V175.555H99.068V72.5381Z" fill="white"/>
<path fill-rule="evenodd" clip-rule="evenodd" d="M54.73 160C54.8662 160.383 54.9656 160.771 55.0224 161.16C56.0416 161.266 56.9303 161.685 57.6883 162.423C58.5628 163.29 59 164.338 59 165.565C59 166.786 58.5628 167.831 57.6883 168.698C56.8054 169.567 55.7407 170 54.4943 170C53.2536 170 52.1975 169.567 51.323 168.698C50.4401 167.828 50 166.786 50 165.565C50 165.4 50.0085 165.235 50.0227 165.075C50.0397 164.877 50.0653 164.681 50.0994 164.489C50.2612 163.784 50.5451 163.13 50.9511 162.532C51.3798 161.923 51.9164 161.403 52.5666 160.97C53.2224 160.534 53.9435 160.21 54.73 160ZM54.6476 164.145C54.7811 163.846 54.8804 163.541 54.9514 163.231C55.4256 163.317 55.8429 163.535 56.2006 163.89C56.6691 164.352 56.9019 164.911 56.9019 165.567C56.9019 166.224 56.6691 166.783 56.2006 167.244C55.7293 167.717 55.1587 167.951 54.4915 167.951C53.8243 167.951 53.2565 167.717 52.788 167.244C52.629 167.088 52.4956 166.923 52.3905 166.744C52.7454 166.518 53.0719 166.252 53.37 165.953C53.935 165.425 54.3609 164.824 54.6476 164.145ZM53.0606 164.053C53.1713 163.86 53.2678 163.664 53.3473 163.468C53.5546 162.951 53.6539 162.426 53.6426 161.887C52.9754 162.297 52.4445 162.845 52.0498 163.527C52.047 163.538 52.0413 163.549 52.0328 163.561C51.6325 164.254 51.4423 164.975 51.4621 165.724C51.6921 165.576 51.905 165.414 52.1038 165.235C52.4814 164.897 52.8022 164.503 53.0606 164.053Z" fill="#4353FF"/>
<path d="M52.5981 109.004H23.1791V112.018H52.5981V109.004Z" fill="#DCE1E4"/>
<path d="M67.5803 118.035H23.1791V121.049H67.5803V118.035Z" fill="#4353FF"/>
<path d="M63.2219 127.124H23.1791V130.138H63.2219V127.124Z" fill="#DCE1E4"/>
<path d="M85.0137 135.972H23.1791V138.986H85.0137V135.972Z" fill="#4353FF"/>
<path d="M74.2156 144.398H23.8219V147.412H74.2156V144.398Z" fill="#DCE1E4"/>
<path d="M53.3808 78.6406C51.2266 78.6405 49.1207 79.2801 47.3294 80.4786C45.5382 81.6771 44.142 83.3806 43.3175 85.3737C42.493 87.3668 42.2772 89.56 42.6974 91.6759C43.1176 93.7918 44.1548 95.7355 45.678 97.261C47.2012 98.7866 49.142 99.8256 51.2548 100.247C53.3676 100.668 55.5576 100.452 57.548 99.6262C59.5383 98.8007 61.2394 97.4027 62.4364 95.609C63.6333 93.8153 64.2722 91.7064 64.2723 89.549V89.5484C64.2723 88.116 63.9906 86.6976 63.4432 85.3742C62.8958 84.0508 62.0935 82.8483 61.0821 81.8355C60.0707 80.8226 58.87 80.0191 57.5485 79.4709C56.227 78.9228 54.8106 78.6406 53.3803 78.6406H53.3808ZM53.3808 81.9127C54.027 81.9127 54.6587 82.1046 55.1961 82.4641C55.7334 82.8236 56.1522 83.3347 56.3994 83.9326C56.6467 84.5304 56.7115 85.1884 56.5854 85.8231C56.4593 86.4578 56.1481 87.0408 55.6912 87.4984C55.2343 87.956 54.6521 88.2677 54.0183 88.3939C53.3845 88.5202 52.7275 88.4554 52.1305 88.2077C51.5335 87.9601 51.0232 87.5407 50.6642 87.0026C50.3051 86.4645 50.1135 85.8319 50.1135 85.1847C50.1135 84.3169 50.4577 83.4847 51.0705 82.8711C51.6832 82.2574 52.5143 81.9127 53.3808 81.9127ZM53.3808 97.6658C52.09 97.6599 50.8201 97.3387 49.6813 96.7301C48.5424 96.1214 47.5691 95.2437 46.8456 94.1731C46.8981 91.9915 51.2024 90.7907 53.3808 90.7907C55.5592 90.7907 59.8636 91.9915 59.9161 94.1731C59.1918 95.2429 58.2183 96.12 57.0796 96.7286C55.941 97.3371 54.6715 97.6588 53.3808 97.6658Z" fill="#4353FF"/>
<path d="M55.276 212.043C55.1818 212.084 55.1068 212.162 55.0673 212.26C55.0278 212.358 55.027 212.469 55.0653 212.568L70.3809 252.105C70.4193 252.204 70.4935 252.282 70.5871 252.324C70.6808 252.365 70.7864 252.366 70.8806 252.326L99.2987 240.189C99.3928 240.149 99.4679 240.071 99.5074 239.973C99.5469 239.874 99.5476 239.763 99.5094 239.664L84.1938 200.128C84.1554 200.029 84.0812 199.95 83.9876 199.909C83.8939 199.867 83.7883 199.866 83.6941 199.906L55.276 212.043Z" fill="#DCE1E4"/>
<path d="M63.3179 217.841C62.9261 218.008 62.7867 218.607 63.0068 219.175C63.2269 219.743 63.7248 220.07 64.1166 219.902L82.5884 212.013C82.9802 211.846 83.1196 211.247 82.8995 210.679C82.6793 210.111 82.1815 209.784 81.7897 209.952L63.3179 217.841Z" fill="white"/>
<path d="M65.0517 222.317C64.6599 222.485 64.5204 223.083 64.7406 223.651C64.9607 224.22 65.4585 224.546 65.8504 224.379L84.3221 216.49C84.714 216.323 84.8534 215.724 84.6332 215.156C84.4131 214.587 83.9153 214.261 83.5234 214.428L65.0517 222.317Z" fill="white"/>
<path d="M66.7852 226.791C66.3934 226.958 66.254 227.557 66.4741 228.125C66.6943 228.693 67.1921 229.02 67.5839 228.853L86.0557 220.964C86.4475 220.796 86.5869 220.198 86.3668 219.629C86.1466 219.061 85.6488 218.734 85.257 218.902L66.7852 226.791Z" fill="white"/>
<path d="M68.519 231.267C68.1272 231.435 67.9877 232.033 68.2079 232.602C68.428 233.17 68.9259 233.497 69.3177 233.329L87.7894 225.44C88.1813 225.273 88.3207 224.674 88.1006 224.106C87.8804 223.538 87.3826 223.211 86.9908 223.378L68.519 231.267Z" fill="white"/>
<path d="M70.253 235.744C69.8612 235.911 69.7218 236.51 69.9419 237.078C70.1621 237.647 70.6599 237.973 71.0517 237.806L89.5235 229.917C89.9153 229.749 90.0547 229.151 89.8346 228.582C89.6144 228.014 89.1166 227.688 88.7248 227.855L70.253 235.744Z" fill="white"/>
<path d="M71.9868 240.22C71.5949 240.387 71.4555 240.986 71.6757 241.554C71.8958 242.122 72.3936 242.449 72.7855 242.281L91.2572 234.392C91.649 234.225 91.7885 233.626 91.5683 233.058C91.3482 232.49 90.8504 232.163 90.4585 232.331L71.9868 240.22Z" fill="white"/>
<path d="M75.0214 26.5159C74.9385 26.5777 74.8824 26.6715 74.8652 26.7768C74.8481 26.882 74.8715 26.9901 74.9302 27.0772L98.4271 61.9063C98.4859 61.9934 98.5753 62.0524 98.6755 62.0703C98.7757 62.0883 98.8786 62.0638 98.9617 62.0022L123.996 43.382C124.079 43.3202 124.135 43.2264 124.152 43.1211C124.169 43.0159 124.146 42.9078 124.087 42.8206L100.59 7.99155C100.532 7.9045 100.442 7.84552 100.342 7.82755C100.242 7.80959 100.139 7.8341 100.056 7.89573L75.0214 26.5159Z" fill="#DCE1E4"/>
<path d="M77.6487 27.2765L99.1506 59.1481L121.369 42.623L99.8667 10.7511L77.6487 27.2765ZM76.2408 28.3236L76.2439 28.3214L76.2404 28.3238L76.2408 28.3236Z" fill="white"/>
<path d="M84.1098 30.2344C83.7646 30.4911 83.7588 31.1074 84.0966 31.608C84.4343 32.1086 84.9899 32.3074 85.3351 32.0507L101.607 19.9475C101.953 19.6908 101.958 19.0745 101.621 18.5739C101.283 18.0732 100.727 17.8745 100.382 18.1313L84.1098 30.2344Z" fill="#4353FF"/>
<path d="M86.7698 34.1797C86.4247 34.4364 86.4189 35.0527 86.7566 35.5533C87.0944 36.054 87.65 36.2527 87.9952 35.996L104.268 23.8929C104.613 23.6361 104.618 23.0198 104.281 22.5192C103.943 22.0186 103.387 21.8198 103.042 22.0766L86.7698 34.1797Z" fill="#4353FF"/>
<path d="M89.4303 38.1211C89.0851 38.3778 89.0794 38.9941 89.4171 39.4948C89.7549 39.9954 90.3105 40.1941 90.6556 39.9374L106.928 27.8343C107.273 27.5775 107.279 26.9612 106.941 26.4606C106.603 25.96 106.048 25.7612 105.703 26.018L89.4303 38.1211Z" fill="#4353FF"/>
<path d="M92.0898 42.0635C91.7446 42.3202 91.7388 42.9365 92.0766 43.4371C92.4143 43.9378 92.9699 44.1365 93.3151 43.8798L109.587 31.7766C109.933 31.5199 109.938 30.9036 109.601 30.403C109.263 29.9024 108.707 29.7036 108.362 29.9604L92.0898 42.0635Z" fill="#4353FF"/>
<path d="M94.7501 46.0068C94.4049 46.2636 94.3991 46.8798 94.7369 47.3805C95.0746 47.8811 95.6302 48.0798 95.9754 47.8231L112.248 35.72C112.593 35.4633 112.599 34.847 112.261 34.3463C111.923 33.8457 111.368 33.647 111.022 33.9037L94.7501 46.0068Z" fill="#4353FF"/>
<path d="M97.4101 49.9502C97.0649 50.2069 97.0592 50.8232 97.3969 51.3238C97.7347 51.8245 98.2903 52.0232 98.6354 51.7665L114.908 39.6634C115.253 39.4066 115.259 38.7904 114.921 38.2897C114.583 37.7891 114.028 37.5903 113.682 37.8471L97.4101 49.9502Z" fill="#4353FF"/>
<path d="M135.386 196.337C134.692 197.146 133.69 197.646 132.6 197.727C131.51 197.808 130.422 197.463 129.574 196.768L85.9039 160.968C85.4842 160.624 85.1364 160.204 84.8802 159.733C84.624 159.262 84.4645 158.748 84.4108 158.222C84.3571 157.695 84.4102 157.166 84.5671 156.664C84.7239 156.163 84.9816 155.698 85.3252 155.297C85.6688 154.897 86.0917 154.568 86.5698 154.329C87.0479 154.091 87.5717 153.948 88.1114 153.908C88.6511 153.868 89.1961 153.932 89.7153 154.096C90.2345 154.261 90.7177 154.522 91.1373 154.866L134.808 190.667C135.655 191.361 136.192 192.349 136.301 193.412C136.409 194.476 136.08 195.528 135.386 196.337Z" fill="#2F3233"/>
<path d="M89.7323 157.942C86.3486 162.182 81.8435 165.274 76.7864 166.826C71.7293 168.378 66.3475 168.32 61.3216 166.661C56.2957 165.001 51.8513 161.814 48.5505 157.502C45.2497 153.19 43.2408 147.947 42.7777 142.437C42.3147 136.926 43.4183 131.395 45.949 126.543C48.4798 121.691 52.324 117.736 56.9955 115.178C61.6671 112.62 66.9561 111.574 72.1939 112.172C77.4316 112.77 82.3827 114.986 86.4212 118.538C91.8297 123.307 95.2157 130.134 95.8364 137.521C96.4571 144.908 94.2619 152.252 89.7323 157.942ZM53.999 126.506C51.4613 129.686 49.8788 133.585 49.4515 137.71C49.0242 141.835 49.7714 146 51.5985 149.679C53.4257 153.357 56.2508 156.385 59.7165 158.378C63.1823 160.371 67.133 161.24 71.0692 160.875C75.0054 160.51 78.7502 158.928 81.8301 156.329C84.9099 153.73 87.1865 150.23 88.372 146.272C89.5574 142.314 89.5985 138.076 88.49 134.093C87.3814 130.111 85.1731 126.563 82.1442 123.898C78.0802 120.331 72.8346 118.603 67.5582 119.091C62.2817 119.58 57.4054 122.247 53.999 126.506Z" fill="#2F3233"/>
</g>
<defs>
<clipPath id="clip0_3021_249">
<rect width="360" height="252" fill="white"/>
</clipPath>
</defs>
</svg>
