<?xml version="1.0" encoding="UTF-8"?>
<svg width="501px" height="361px" viewBox="0 0 501 361" version="1.1" xmlns="http://www.w3.org/2000/svg" xmlns:xlink="http://www.w3.org/1999/xlink">
    <!-- Generator: sketchtool 57.1 (101010) - https://sketch.com -->
    <title>A074EE24-5911-4A48-B1AC-AFB289A68C5B</title>
    <desc>Created with sketchtool.</desc>
    <g id="Email---Olivia" stroke="none" stroke-width="1" fill="none" fill-rule="evenodd">
        <g id="Candidates_Search_Olivia_Banner" transform="translate(-815.000000, -372.000000)">
            <g id="Group-17" transform="translate(311.000000, 343.000000)">
                <g id="Group-15">
                    <g id="Group-20" transform="translate(36.000000, 29.000000)">
                        <g id="Illustration" transform="translate(468.000000, 0.000000)">
                            <path d="M13.4812472,182.183282 C7.46975935,182.949123 -0.0696483295,185.140607 0,190.234433 C0.0355527078,192.818656 2.2247362,195.021922 4.35380481,196.910997 C13.4032048,204.994996 23.7272675,212.143907 35.0775173,218.185671 C40.4978755,221.064448 46.3240091,223.817549 49.9258923,228.267283 C53.5277754,232.717016 54.4345082,238.380313 54.7200538,243.768693 C55.4224428,256.526317 53.5043554,269.289513 49.0391978,281.569827 C66.6879242,284.205106 86.3705373,286.514412 101.078644,278.192272 C109.885474,273.208413 115.841857,264.858781 125.65561,261.402677 C132.208132,259.093371 139.62731,259.297596 146.770961,259.59215 C180.585581,260.987683 214.316707,263.605943 247.96434,267.446931 C262.05627,269.057161 276.418716,270.87947 290.360358,268.797953 C304.302001,266.716436 318.018212,259.925978 323.158034,248.917502 C323.949547,247.22087 324.660906,245.327867 326.434295,244.306746 C328.037358,243.395591 330.13637,243.415228 332.085094,243.470212 L449.85014,246.643543 C456.302471,246.816348 462.980232,246.957734 468.886519,244.876217 C474.612461,242.861466 479.015876,238.985132 483.253975,235.187345 C492.947499,226.523521 503.372421,215.864583 500.521973,204.105976 C498.242618,194.680239 488.053146,188.094005 477.948837,183.483248 C467.844527,178.872492 456.698227,175.098269 449.27404,167.726557 C437.977452,156.506002 438.423304,140.446902 437.721964,125.888066 C437.082822,112.705044 435.013072,99.5886239 431.535141,86.6809257 C428.474292,75.3346944 424.211145,63.9727535 416.240914,54.3899205 C408.270683,44.8070876 396.082391,37.1329664 382.296046,35.7269606 C364.29164,33.8889418 346.192052,42.6941514 328.578392,38.9552756 C313.69996,35.8133632 303.460392,24.6477918 291.131833,16.9108324 C269.234988,3.16496547 240.500076,0.286188188 213.333161,0.023053021 C184.528115,-0.26364649 154.961614,2.02209482 129.287551,12.6260493 C123.406312,15.0531767 117.655322,17.9908648 113.582539,22.2795753 C107.340611,28.8579545 105.82772,37.6945833 101.744918,45.384414 C85.2884695,76.3479611 31.7661894,83.0245251 14.3929895,113.658171 C8.2262049,124.525261 8.28631978,137.19895 12.7799069,148.611947 C17.6141451,160.892898 31.2201459,167.675501 36.6154563,178.381568 C30.8093609,181.311401 20.5196975,181.283909 13.4812472,182.183282 Z" id="Shape" fill="#FAFBFF" fill-rule="nonzero"></path>
                            <g id="Background-Shape-2" transform="translate(245.500000, 272.500000) scale(-1, 1) translate(-245.500000, -272.500000) translate(18.000000, 184.000000)" fill="#FAFBFF">
                                <path d="M454.801512,110.551159 C461.433915,159.962826 300.586848,192.192366 162.142049,169.700147 C23.6972497,147.207928 -39.8146598,59.3732775 26.2488902,12.5715228 C92.3124402,-34.230232 448.169109,61.1394914 454.801512,110.551159 Z" id="Background-Shape"></path>
                            </g>
                            <g id="Group-18" transform="translate(116.000000, 10.000000)">
                                <g id="Web" transform="translate(0.500000, 0.636364)">
                                    <rect id="Container" fill="#ECEEFF" x="0" y="0" width="283" height="293" rx="8"></rect>
                                    <g id="Group-9" transform="translate(10.000000, 43.000000)">
                                        <g id="Bubble" transform="translate(36.000000, 0.000000)">
                                            <rect id="Background" fill="#FFFFFF" x="0" y="0" width="174" height="66" rx="8"></rect>
                                            <g id="Group-11" transform="translate(9.000000, 38.000000)">
                                                <rect id="Background-Copy" fill="#C4C8F5" x="0" y="0" width="44" height="14" rx="2"></rect>
                                                <g id="Group-21" transform="translate(11.000000, 3.000000)" fill="#FFFFFF">
                                                    <path d="M13.632,6.669 L12.813,6.669 L12.813,4.73 L11,2 L11.938,2 L13.219,3.995 L14.5,2 L15.438,2 L13.632,4.73 L13.632,6.669 Z M16.614,6.753 C15.592,6.753 14.843,6.046 14.843,4.975 C14.843,3.995 15.557,3.204 16.558,3.204 C17.573,3.204 18.217,3.974 18.217,5.038 L18.217,5.22 L15.613,5.22 C15.669,5.724 16.047,6.151 16.684,6.151 C17.02,6.151 17.405,6.018 17.65,5.773 L17.986,6.256 C17.643,6.578 17.146,6.753 16.614,6.753 Z M17.51,4.695 C17.489,4.296 17.216,3.806 16.551,3.806 C15.928,3.806 15.634,4.289 15.606,4.695 L17.51,4.695 Z M20.107,6.753 C19.526,6.753 19.008,6.564 18.658,6.221 L18.994,5.696 C19.232,5.941 19.701,6.165 20.135,6.165 C20.576,6.165 20.807,5.983 20.807,5.717 C20.807,5.052 18.763,5.528 18.763,4.226 C18.763,3.673 19.239,3.204 20.093,3.204 C20.667,3.204 21.101,3.407 21.402,3.673 L21.094,4.191 C20.891,3.967 20.52,3.785 20.093,3.785 C19.708,3.785 19.47,3.967 19.47,4.205 C19.47,4.8 21.514,4.352 21.514,5.696 C21.514,6.298 21.017,6.753 20.107,6.753 Z" id="Yes" fill-rule="nonzero"></path>
                                                    <path d="M3.996,0 C6.208,0 8,1.792 8,4 C8,6.208 6.208,8 3.996,8 C1.788,8 0,6.208 0,4 C0,1.792 1.788,0 3.996,0 Z M4,0.8 C2.232,0.8 0.8,2.232 0.8,4 C0.8,5.768 2.232,7.2 4,7.2 C5.768,7.2 7.2,5.768 7.2,4 C7.2,2.232 5.768,0.8 4,0.8 Z M5.65,2.4 L6.2,2.93599854 L3.4,5.6 L1.8,4.06400146 L2.35,3.52835821 L3.4,4.53134328 L5.65,2.4 Z" id="Combined-Shape"></path>
                                                </g>
                                            </g>
                                            <g id="Group-10" transform="translate(59.000000, 38.000000)">
                                                <rect id="Background-Copy-2" fill="#C4C8F5" x="0" y="0" width="44" height="14" rx="2"></rect>
                                                <g id="Group-19" transform="translate(12.000000, 3.000000)" fill="#FFFFFF">
                                                    <path d="M3.996,0 C6.208,0 8,1.792 8,4 C8,6.208 6.208,8 3.996,8 C1.788,8 0,6.208 0,4 C0,1.792 1.788,0 3.996,0 Z M4,0.8 C2.232,0.8 0.8,2.232 0.8,4 C0.8,5.768 2.232,7.2 4,7.2 C5.768,7.2 7.2,5.768 7.2,4 C7.2,2.232 5.768,0.8 4,0.8 Z M5.43189123,2.03777868 L5.96222132,2.56810877 L4.531,4 L5.96222132,5.43189123 L5.43189123,5.96222132 L4,4.531 L2.56810877,5.96222132 L2.03777868,5.43189123 L3.469,4 L2.03777868,2.56810877 L2.56810877,2.03777868 L4,3.469 L5.43189123,2.03777868 Z" id="Combined-Shape"></path>
                                                    <path d="M15.046,6.669 L14.255,6.669 L11.819,3.33 L11.819,6.669 L11,6.669 L11,2 L11.84,2 L14.227,5.234 L14.227,2 L15.046,2 L15.046,6.669 Z M17.552,6.753 C16.474,6.753 15.816,5.941 15.816,4.975 C15.816,4.002 16.474,3.204 17.552,3.204 C18.63,3.204 19.288,4.002 19.288,4.975 C19.288,5.941 18.63,6.753 17.552,6.753 Z M17.552,6.102 C18.182,6.102 18.525,5.577 18.525,4.975 C18.525,4.38 18.182,3.855 17.552,3.855 C16.929,3.855 16.579,4.38 16.579,4.975 C16.579,5.577 16.929,6.102 17.552,6.102 Z" id="No" fill-rule="nonzero"></path>
                                                </g>
                                            </g>
                                            <rect id="Name" fill="#C4C8F5" x="7.42857143" y="13.7777778" width="157" height="5.11111111" rx="2.55555556"></rect>
                                            <rect id="Name" fill="#C4C8F5" x="7.42857143" y="22.7777778" width="107" height="5.11111111" rx="2.55555556"></rect>
                                        </g>
                                        <g id="Profile-Info" transform="translate(0.428571, 1.777778)">
                                            <ellipse id="Avatar" fill="#C4C8F5" cx="14.0571429" cy="13.8518519" rx="13.4857143" ry="13.6296296"></ellipse>
                                            <path d="M14.5934212,2.22222222 C14.8859931,3.04139075 15.092997,3.86660309 15.2144331,4.69785924 C17.3759014,4.92473452 19.2553474,5.82363483 20.852771,7.39432772 C22.7047883,9.24629017 23.630797,11.4815696 23.630797,14.1003984 C23.630797,16.7041176 22.7047883,18.9319585 20.852771,20.783456 C18.9850466,22.6354185 16.7305086,23.5615159 14.0893912,23.5615159 C11.4635119,23.5615159 9.22491521,22.6354185 7.37289786,20.783456 C5.50517352,18.9319585 4.57142857,16.7041176 4.57142857,14.1003984 C4.57142857,13.7447435 4.58690112,13.3960622 4.61831509,13.0543545 C4.65723089,12.628266 4.71208812,12.210081 4.78218346,11.7993344 C5.12609605,10.2960532 5.72788447,8.90527989 6.58754873,7.6267819 C7.49386507,6.32503849 8.63484841,5.21321015 10.0102643,4.29106442 C11.4011528,3.3612477 12.9287155,2.67155615 14.5934212,2.22222222 Z M15.0622864,9.11448865 C14.9136561,9.77977251 14.6986814,10.4304118 14.4175968,11.0671038 C13.8158083,12.5159907 12.9132429,13.8021596 11.7099005,14.9258431 C11.0802146,15.5639299 10.3886385,16.1255392 9.63517222,16.6111359 C9.86022749,16.9918959 10.1415466,17.3482481 10.4791295,17.6804252 C11.4714826,18.6876491 12.674825,19.1913773 14.0893912,19.1913773 C15.5037229,19.1913773 16.7110507,18.6876491 17.7113745,17.6804252 C18.7037276,16.6962142 19.1997869,15.5032593 19.1997869,14.1003984 C19.1997869,12.6980023 18.7037276,11.504815 17.7113745,10.5208364 C16.949703,9.76559281 16.0668299,9.29696518 15.0622864,9.11448865 Z M12.2840259,6.25530224 C10.8696942,7.13095714 9.7444178,8.2969473 8.90843123,9.75373764 C8.90046052,9.77698306 8.88897333,9.80022848 8.87326634,9.8234739 C8.02930907,11.3032772 7.62678834,12.8414265 7.66593858,14.4376894 C8.15238617,14.1220166 8.60577877,13.7733353 9.02564752,13.3916456 C9.82740693,12.6684806 10.503276,11.8276938 11.0532549,10.8695177 C11.2895629,10.4587712 11.4925815,10.0440729 11.663014,9.62588785 C12.1053883,8.5252173 12.3126267,7.40176625 12.2840259,6.25530224 Z" id="Combined-Shape" fill="#4454FF"></path>
                                        </g>
                                    </g>
                                    <g id="Group-9-Copy" transform="translate(10.000000, 129.000000)">
                                        <g id="Bubble" transform="translate(36.000000, 0.000000)">
                                            <rect id="Background" fill="#FFFFFF" x="0" y="0" width="174" height="66" rx="8"></rect>
                                            <g id="Group-11" transform="translate(9.000000, 38.000000)">
                                                <rect id="Background-Copy" fill="#C4C8F5" x="0" y="0" width="44" height="14" rx="2"></rect>
                                                <g id="Group-21" transform="translate(11.000000, 3.000000)" fill="#FFFFFF">
                                                    <path d="M13.632,6.669 L12.813,6.669 L12.813,4.73 L11,2 L11.938,2 L13.219,3.995 L14.5,2 L15.438,2 L13.632,4.73 L13.632,6.669 Z M16.614,6.753 C15.592,6.753 14.843,6.046 14.843,4.975 C14.843,3.995 15.557,3.204 16.558,3.204 C17.573,3.204 18.217,3.974 18.217,5.038 L18.217,5.22 L15.613,5.22 C15.669,5.724 16.047,6.151 16.684,6.151 C17.02,6.151 17.405,6.018 17.65,5.773 L17.986,6.256 C17.643,6.578 17.146,6.753 16.614,6.753 Z M17.51,4.695 C17.489,4.296 17.216,3.806 16.551,3.806 C15.928,3.806 15.634,4.289 15.606,4.695 L17.51,4.695 Z M20.107,6.753 C19.526,6.753 19.008,6.564 18.658,6.221 L18.994,5.696 C19.232,5.941 19.701,6.165 20.135,6.165 C20.576,6.165 20.807,5.983 20.807,5.717 C20.807,5.052 18.763,5.528 18.763,4.226 C18.763,3.673 19.239,3.204 20.093,3.204 C20.667,3.204 21.101,3.407 21.402,3.673 L21.094,4.191 C20.891,3.967 20.52,3.785 20.093,3.785 C19.708,3.785 19.47,3.967 19.47,4.205 C19.47,4.8 21.514,4.352 21.514,5.696 C21.514,6.298 21.017,6.753 20.107,6.753 Z" id="Yes" fill-rule="nonzero"></path>
                                                    <path d="M3.996,0 C6.208,0 8,1.792 8,4 C8,6.208 6.208,8 3.996,8 C1.788,8 0,6.208 0,4 C0,1.792 1.788,0 3.996,0 Z M4,0.8 C2.232,0.8 0.8,2.232 0.8,4 C0.8,5.768 2.232,7.2 4,7.2 C5.768,7.2 7.2,5.768 7.2,4 C7.2,2.232 5.768,0.8 4,0.8 Z M5.65,2.4 L6.2,2.93599854 L3.4,5.6 L1.8,4.06400146 L2.35,3.52835821 L3.4,4.53134328 L5.65,2.4 Z" id="Combined-Shape"></path>
                                                </g>
                                            </g>
                                            <g id="Group-10" transform="translate(59.000000, 38.000000)">
                                                <rect id="Background-Copy-2" fill="#C4C8F5" x="0" y="0" width="44" height="14" rx="2"></rect>
                                                <g id="Group-19" transform="translate(12.000000, 3.000000)" fill="#FFFFFF">
                                                    <path d="M3.996,0 C6.208,0 8,1.792 8,4 C8,6.208 6.208,8 3.996,8 C1.788,8 0,6.208 0,4 C0,1.792 1.788,0 3.996,0 Z M4,0.8 C2.232,0.8 0.8,2.232 0.8,4 C0.8,5.768 2.232,7.2 4,7.2 C5.768,7.2 7.2,5.768 7.2,4 C7.2,2.232 5.768,0.8 4,0.8 Z M5.43189123,2.03777868 L5.96222132,2.56810877 L4.531,4 L5.96222132,5.43189123 L5.43189123,5.96222132 L4,4.531 L2.56810877,5.96222132 L2.03777868,5.43189123 L3.469,4 L2.03777868,2.56810877 L2.56810877,2.03777868 L4,3.469 L5.43189123,2.03777868 Z" id="Combined-Shape"></path>
                                                    <path d="M15.046,6.669 L14.255,6.669 L11.819,3.33 L11.819,6.669 L11,6.669 L11,2 L11.84,2 L14.227,5.234 L14.227,2 L15.046,2 L15.046,6.669 Z M17.552,6.753 C16.474,6.753 15.816,5.941 15.816,4.975 C15.816,4.002 16.474,3.204 17.552,3.204 C18.63,3.204 19.288,4.002 19.288,4.975 C19.288,5.941 18.63,6.753 17.552,6.753 Z M17.552,6.102 C18.182,6.102 18.525,5.577 18.525,4.975 C18.525,4.38 18.182,3.855 17.552,3.855 C16.929,3.855 16.579,4.38 16.579,4.975 C16.579,5.577 16.929,6.102 17.552,6.102 Z" id="No" fill-rule="nonzero"></path>
                                                </g>
                                            </g>
                                            <rect id="Name" fill="#C4C8F5" x="7.42857143" y="13.7777778" width="157" height="5.11111111" rx="2.55555556"></rect>
                                            <rect id="Name" fill="#C4C8F5" x="7.42857143" y="22.7777778" width="107" height="5.11111111" rx="2.55555556"></rect>
                                        </g>
                                        <g id="Profile-Info" transform="translate(0.428571, 1.777778)">
                                            <ellipse id="Avatar" fill="#C4C8F5" cx="14.0571429" cy="13.8518519" rx="13.4857143" ry="13.6296296"></ellipse>
                                            <path d="M14.5934212,2.22222222 C14.8859931,3.04139075 15.092997,3.86660309 15.2144331,4.69785924 C17.3759014,4.92473452 19.2553474,5.82363483 20.852771,7.39432772 C22.7047883,9.24629017 23.630797,11.4815696 23.630797,14.1003984 C23.630797,16.7041176 22.7047883,18.9319585 20.852771,20.783456 C18.9850466,22.6354185 16.7305086,23.5615159 14.0893912,23.5615159 C11.4635119,23.5615159 9.22491521,22.6354185 7.37289786,20.783456 C5.50517352,18.9319585 4.57142857,16.7041176 4.57142857,14.1003984 C4.57142857,13.7447435 4.58690112,13.3960622 4.61831509,13.0543545 C4.65723089,12.628266 4.71208812,12.210081 4.78218346,11.7993344 C5.12609605,10.2960532 5.72788447,8.90527989 6.58754873,7.6267819 C7.49386507,6.32503849 8.63484841,5.21321015 10.0102643,4.29106442 C11.4011528,3.3612477 12.9287155,2.67155615 14.5934212,2.22222222 Z M15.0622864,9.11448865 C14.9136561,9.77977251 14.6986814,10.4304118 14.4175968,11.0671038 C13.8158083,12.5159907 12.9132429,13.8021596 11.7099005,14.9258431 C11.0802146,15.5639299 10.3886385,16.1255392 9.63517222,16.6111359 C9.86022749,16.9918959 10.1415466,17.3482481 10.4791295,17.6804252 C11.4714826,18.6876491 12.674825,19.1913773 14.0893912,19.1913773 C15.5037229,19.1913773 16.7110507,18.6876491 17.7113745,17.6804252 C18.7037276,16.6962142 19.1997869,15.5032593 19.1997869,14.1003984 C19.1997869,12.6980023 18.7037276,11.504815 17.7113745,10.5208364 C16.949703,9.76559281 16.0668299,9.29696518 15.0622864,9.11448865 Z M12.2840259,6.25530224 C10.8696942,7.13095714 9.7444178,8.2969473 8.90843123,9.75373764 C8.90046052,9.77698306 8.88897333,9.80022848 8.87326634,9.8234739 C8.02930907,11.3032772 7.62678834,12.8414265 7.66593858,14.4376894 C8.15238617,14.1220166 8.60577877,13.7733353 9.02564752,13.3916456 C9.82740693,12.6684806 10.503276,11.8276938 11.0532549,10.8695177 C11.2895629,10.4587712 11.4925815,10.0440729 11.663014,9.62588785 C12.1053883,8.5252173 12.3126267,7.40176625 12.2840259,6.25530224 Z" id="Combined-Shape" fill="#4454FF"></path>
                                        </g>
                                    </g>
                                    <g id="Group-9-Copy-2" transform="translate(10.000000, 215.000000)">
                                        <g id="Bubble" transform="translate(36.000000, 0.000000)">
                                            <rect id="Background" fill="#FFFFFF" x="0" y="0" width="174" height="66" rx="8"></rect>
                                            <g id="Group-11" transform="translate(9.000000, 38.000000)">
                                                <rect id="Background-Copy" fill="#C4C8F5" x="0" y="0" width="44" height="14" rx="2"></rect>
                                                <g id="Group-21" transform="translate(11.000000, 3.000000)" fill="#FFFFFF">
                                                    <path d="M13.632,6.669 L12.813,6.669 L12.813,4.73 L11,2 L11.938,2 L13.219,3.995 L14.5,2 L15.438,2 L13.632,4.73 L13.632,6.669 Z M16.614,6.753 C15.592,6.753 14.843,6.046 14.843,4.975 C14.843,3.995 15.557,3.204 16.558,3.204 C17.573,3.204 18.217,3.974 18.217,5.038 L18.217,5.22 L15.613,5.22 C15.669,5.724 16.047,6.151 16.684,6.151 C17.02,6.151 17.405,6.018 17.65,5.773 L17.986,6.256 C17.643,6.578 17.146,6.753 16.614,6.753 Z M17.51,4.695 C17.489,4.296 17.216,3.806 16.551,3.806 C15.928,3.806 15.634,4.289 15.606,4.695 L17.51,4.695 Z M20.107,6.753 C19.526,6.753 19.008,6.564 18.658,6.221 L18.994,5.696 C19.232,5.941 19.701,6.165 20.135,6.165 C20.576,6.165 20.807,5.983 20.807,5.717 C20.807,5.052 18.763,5.528 18.763,4.226 C18.763,3.673 19.239,3.204 20.093,3.204 C20.667,3.204 21.101,3.407 21.402,3.673 L21.094,4.191 C20.891,3.967 20.52,3.785 20.093,3.785 C19.708,3.785 19.47,3.967 19.47,4.205 C19.47,4.8 21.514,4.352 21.514,5.696 C21.514,6.298 21.017,6.753 20.107,6.753 Z" id="Yes" fill-rule="nonzero"></path>
                                                    <path d="M3.996,0 C6.208,0 8,1.792 8,4 C8,6.208 6.208,8 3.996,8 C1.788,8 0,6.208 0,4 C0,1.792 1.788,0 3.996,0 Z M4,0.8 C2.232,0.8 0.8,2.232 0.8,4 C0.8,5.768 2.232,7.2 4,7.2 C5.768,7.2 7.2,5.768 7.2,4 C7.2,2.232 5.768,0.8 4,0.8 Z M5.65,2.4 L6.2,2.93599854 L3.4,5.6 L1.8,4.06400146 L2.35,3.52835821 L3.4,4.53134328 L5.65,2.4 Z" id="Combined-Shape"></path>
                                                </g>
                                            </g>
                                            <g id="Group-10" transform="translate(59.000000, 38.000000)">
                                                <rect id="Background-Copy-2" fill="#C4C8F5" x="0" y="0" width="44" height="14" rx="2"></rect>
                                                <g id="Group-19" transform="translate(12.000000, 3.000000)" fill="#FFFFFF">
                                                    <path d="M3.996,0 C6.208,0 8,1.792 8,4 C8,6.208 6.208,8 3.996,8 C1.788,8 0,6.208 0,4 C0,1.792 1.788,0 3.996,0 Z M4,0.8 C2.232,0.8 0.8,2.232 0.8,4 C0.8,5.768 2.232,7.2 4,7.2 C5.768,7.2 7.2,5.768 7.2,4 C7.2,2.232 5.768,0.8 4,0.8 Z M5.43189123,2.03777868 L5.96222132,2.56810877 L4.531,4 L5.96222132,5.43189123 L5.43189123,5.96222132 L4,4.531 L2.56810877,5.96222132 L2.03777868,5.43189123 L3.469,4 L2.03777868,2.56810877 L2.56810877,2.03777868 L4,3.469 L5.43189123,2.03777868 Z" id="Combined-Shape"></path>
                                                    <path d="M15.046,6.669 L14.255,6.669 L11.819,3.33 L11.819,6.669 L11,6.669 L11,2 L11.84,2 L14.227,5.234 L14.227,2 L15.046,2 L15.046,6.669 Z M17.552,6.753 C16.474,6.753 15.816,5.941 15.816,4.975 C15.816,4.002 16.474,3.204 17.552,3.204 C18.63,3.204 19.288,4.002 19.288,4.975 C19.288,5.941 18.63,6.753 17.552,6.753 Z M17.552,6.102 C18.182,6.102 18.525,5.577 18.525,4.975 C18.525,4.38 18.182,3.855 17.552,3.855 C16.929,3.855 16.579,4.38 16.579,4.975 C16.579,5.577 16.929,6.102 17.552,6.102 Z" id="No" fill-rule="nonzero"></path>
                                                </g>
                                            </g>
                                            <rect id="Name" fill="#C4C8F5" x="7.42857143" y="13.7777778" width="157" height="5.11111111" rx="2.55555556"></rect>
                                            <rect id="Name" fill="#C4C8F5" x="7.42857143" y="22.7777778" width="107" height="5.11111111" rx="2.55555556"></rect>
                                        </g>
                                        <g id="Profile-Info" transform="translate(0.428571, 1.777778)">
                                            <ellipse id="Avatar" fill="#C4C8F5" cx="14.0571429" cy="13.8518519" rx="13.4857143" ry="13.6296296"></ellipse>
                                            <path d="M14.5934212,2.22222222 C14.8859931,3.04139075 15.092997,3.86660309 15.2144331,4.69785924 C17.3759014,4.92473452 19.2553474,5.82363483 20.852771,7.39432772 C22.7047883,9.24629017 23.630797,11.4815696 23.630797,14.1003984 C23.630797,16.7041176 22.7047883,18.9319585 20.852771,20.783456 C18.9850466,22.6354185 16.7305086,23.5615159 14.0893912,23.5615159 C11.4635119,23.5615159 9.22491521,22.6354185 7.37289786,20.783456 C5.50517352,18.9319585 4.57142857,16.7041176 4.57142857,14.1003984 C4.57142857,13.7447435 4.58690112,13.3960622 4.61831509,13.0543545 C4.65723089,12.628266 4.71208812,12.210081 4.78218346,11.7993344 C5.12609605,10.2960532 5.72788447,8.90527989 6.58754873,7.6267819 C7.49386507,6.32503849 8.63484841,5.21321015 10.0102643,4.29106442 C11.4011528,3.3612477 12.9287155,2.67155615 14.5934212,2.22222222 Z M15.0622864,9.11448865 C14.9136561,9.77977251 14.6986814,10.4304118 14.4175968,11.0671038 C13.8158083,12.5159907 12.9132429,13.8021596 11.7099005,14.9258431 C11.0802146,15.5639299 10.3886385,16.1255392 9.63517222,16.6111359 C9.86022749,16.9918959 10.1415466,17.3482481 10.4791295,17.6804252 C11.4714826,18.6876491 12.674825,19.1913773 14.0893912,19.1913773 C15.5037229,19.1913773 16.7110507,18.6876491 17.7113745,17.6804252 C18.7037276,16.6962142 19.1997869,15.5032593 19.1997869,14.1003984 C19.1997869,12.6980023 18.7037276,11.504815 17.7113745,10.5208364 C16.949703,9.76559281 16.0668299,9.29696518 15.0622864,9.11448865 Z M12.2840259,6.25530224 C10.8696942,7.13095714 9.7444178,8.2969473 8.90843123,9.75373764 C8.90046052,9.77698306 8.88897333,9.80022848 8.87326634,9.8234739 C8.02930907,11.3032772 7.62678834,12.8414265 7.66593858,14.4376894 C8.15238617,14.1220166 8.60577877,13.7733353 9.02564752,13.3916456 C9.82740693,12.6684806 10.503276,11.8276938 11.0532549,10.8695177 C11.2895629,10.4587712 11.4925815,10.0440729 11.663014,9.62588785 C12.1053883,8.5252173 12.3126267,7.40176625 12.2840259,6.25530224 Z" id="Combined-Shape" fill="#4454FF"></path>
                                        </g>
                                    </g>
                                    <path d="M8,0 L275,0 C279.418278,-8.11624501e-16 283,3.581722 283,8 L283,23 L283,23 L0,23 L0,8 C-5.41083001e-16,3.581722 3.581722,8.11624501e-16 8,0 Z" id="Header" fill="#C4C8F5" opacity="0.3"></path>
                                    <g id="Buttons" transform="translate(9.000000, 10.000000)" fill="#C4C8F5">
                                        <circle id="buttons" cx="4" cy="4" r="4"></circle>
                                        <circle id="buttons" cx="16" cy="4" r="4"></circle>
                                        <circle id="buttons" cx="28" cy="4" r="4"></circle>
                                    </g>
                                </g>
                            </g>
                            <g id="A-Human/Standing-A-Human/Sitting" transform="translate(394.500000, 235.500000) scale(-1, 1) translate(-394.500000, -235.500000) translate(304.000000, 129.000000)">
                                <g id="Head/Front-Head/Front/Curly" transform="translate(49.473333, 0.000000)">
                                    <g id="Head" transform="translate(32.580001, 18.705382)" fill="#B28B67">
                                        <path d="M23.0131504,5.51140972 C26.509353,12.0288002 26.0939132,28.5607017 21.5753828,29.7255412 C19.7733499,30.1900903 15.9344282,29.0520872 12.0273545,26.6967949 L14.4800007,44.0481579 L0,44.0481579 L4.98463106,20.811 C2.20467611,17.5474218 0.323176686,13.5479053 0.637588417,9.06634999 C1.54352597,-3.84668365 19.5169477,-1.00598077 23.0131504,5.51140972 Z"></path>
                                    </g>
                                    <path d="M62.0080084,15.1817937 C61.7081576,14.1276918 60.9016349,13.2251609 59.8147106,12.9574053 C59.551133,12.8924577 59.2789247,12.866225 59.0077106,12.8771619 C58.9104252,12.8810453 58.8831407,12.9091008 58.8376798,12.8410622 C58.8039521,12.7906178 58.8031964,12.6673797 58.7893155,12.6080986 C58.7461217,12.4237566 58.6921096,12.2417129 58.6254496,12.0643848 C58.398026,11.4595671 58.0158445,10.9242937 57.5551107,10.4733849 C56.693343,9.62981807 55.5289403,9.047627 54.3191961,8.94230003 C53.6570902,8.88468325 52.9997969,8.99226892 52.3738449,9.20767803 C52.0497722,9.31918672 51.7355235,9.45803762 51.4294681,9.6115503 C51.3373134,9.65775468 51.0383376,9.88406105 50.9458647,9.86939928 C50.8437269,9.85323171 50.638457,9.59938499 50.5554104,9.53566574 C49.5289017,8.7480118 48.2612873,8.43833148 46.9826955,8.44759193 C45.5395219,8.45846169 44.1498433,8.53058174 42.9462242,9.41044632 C42.6914365,9.59673002 42.4487797,9.8006871 42.2177367,10.0154226 C42.0960702,10.1284767 41.978222,10.2457708 41.8658227,10.367939 C41.7980092,10.4416441 41.7319856,10.5170135 41.6684279,10.5944039 C41.5605627,10.7257654 41.5778641,10.7689185 41.4268847,10.6772627 C40.8476266,10.325301 40.1763728,10.1606929 39.5002668,10.2437895 C39.0987952,10.293164 38.7081818,10.4137075 38.3372959,10.5723716 C38.2110158,10.6263824 37.9187219,10.8418311 37.7841291,10.8439313 C37.6506102,10.8459919 37.362413,10.6462748 37.2248769,10.5955134 C36.4820313,10.3212591 35.6813553,10.2536565 34.900566,10.3803817 C34.0951569,10.5111488 33.3039868,10.8325189 32.6215965,11.276612 C32.2933874,11.4902379 32.0070197,11.7269264 31.7770108,12.0445716 C31.6776969,12.1817186 31.5879286,12.3267908 31.4753702,12.4539519 C31.4094659,12.5284099 31.2789697,12.6048096 31.2436113,12.6990412 C31.2647707,12.6426132 30.3627921,12.2948519 30.2776773,12.2726215 C29.8242221,12.1541782 29.362494,12.1781918 28.9184651,12.324334 C28.0835045,12.5991431 27.3654376,13.2154128 26.7752816,13.8472558 C26.4721694,14.171796 26.2069214,14.5305338 25.9817648,14.9127304 C25.8738599,15.0958044 25.7751824,15.284109 25.684897,15.4764159 C25.6411464,15.5695776 25.6121517,15.6861188 25.5545202,15.7700476 C25.4802237,15.878188 25.4303082,15.8802486 25.2957552,15.927404 C24.6124104,16.1668267 23.9894812,16.5720859 23.5151052,17.1196831 C23.0352803,17.6736998 22.7239351,18.3559475 22.5933991,19.0744138 C22.5857229,19.1167348 22.581149,19.2921212 22.5563702,19.3150253 C22.5224038,19.3465679 22.3849871,19.3326194 22.3330034,19.3387219 C22.1529896,19.3598427 21.9742484,19.3912665 21.7978937,19.4330327 C21.4727868,19.5099872 21.1563506,19.6232394 20.8570169,19.7713629 C19.6901482,20.3487592 18.8557047,21.4312335 18.4473126,22.6492698 C18.0187953,23.9275382 18.026392,25.392011 18.5385525,26.6464243 C18.621281,26.8490341 18.7197199,27.0456999 18.8353408,27.2317459 C18.9063361,27.3459492 18.9292455,27.3462265 18.8831483,27.4660568 C18.8317612,27.59936 18.7378962,27.7288987 18.676884,27.8591507 C18.4778187,28.2842231 18.338652,28.7350526 18.2507531,29.1955114 C18.1065351,29.9508302 18.0350625,30.7445866 18.1773316,31.5056512 C18.243395,31.8590394 18.3584989,32.2045024 18.5340979,32.5192549 C18.6236276,32.6797418 18.7283904,32.8319468 18.8466762,32.9727394 C18.9080861,33.0458501 18.9733143,33.1156718 19.0415255,33.1825612 C19.0805431,33.220761 19.1316915,33.2542057 19.1648625,33.2968833 C19.2458409,33.4009423 19.2628638,33.3153889 19.2211019,33.4681883 C19.1627147,33.6818142 19.0303492,33.892587 18.9492913,34.1004671 C18.8657674,34.3146874 18.7902777,34.5318401 18.7212312,34.7511326 C18.5813884,35.195186 18.4631424,35.6472836 18.3892039,36.107148 C18.2472132,36.9900638 18.2721511,37.9308341 18.6897308,38.7411544 C18.8682731,39.0877665 19.124413,39.3918199 19.4350822,39.6283498 C19.5871354,39.7440589 19.7518366,39.8437986 19.9246117,39.9257063 C20.0133857,39.9678688 20.1267396,39.9859385 20.1672288,40.0718089 C20.2108203,40.1641384 20.1461092,40.3474897 20.1313533,40.4507165 C20.0029651,41.34873 19.9385722,42.2916005 20.2054907,43.1716236 C20.4513293,43.9821816 20.992604,44.6978344 21.6953581,45.1716473 C23.058667,46.0907816 24.8963519,46.0389503 26.3288265,45.3031276 C26.7022181,45.1112962 27.0515469,44.8731416 27.3631705,44.59223 C28.1566873,45.6605578 29.7895795,45.6267565 30.9493288,45.3223465 C32.3942126,44.9431218 33.5536039,43.9383152 34.2215962,42.6181221 C35.1349897,43.7301577 37.0519029,43.3693593 37.6852925,42.1629732 C37.8403287,41.8677169 37.9322846,41.5423049 37.9775466,41.2130096 C38.0013708,41.0398422 37.9861774,40.865169 38.0040754,40.6933886 C38.0269052,40.4744924 38.1731118,40.2617778 38.2571528,40.0500144 C38.4208198,39.6378998 38.5224406,39.2121934 38.5268156,38.7676644 C38.5290827,38.5355726 38.4996903,38.3093851 38.4776161,38.0791558 C38.4577692,37.8719097 38.5152416,37.6788102 38.5478955,37.4742588 C38.1773278,37.5352834 37.7258612,37.4353456 37.3767313,37.3278788 C37.0341243,37.222433 36.7132334,36.9446916 36.4714118,36.691043 C35.9099324,36.1020362 35.5669276,35.3299158 35.3323447,34.561441 C34.8174,32.8747829 35.0284768,30.8511816 36.7247677,29.9255089 C37.5149833,29.4942944 39.8823695,29.4957088 40.8235513,29.7088297 C41.8131628,29.932917 42.9350479,32.1167695 42.9902532,32.3220343 C43.0244184,32.4490765 43.0072364,32.6063141 43.1239312,32.6909561 C43.3803893,32.8770813 43.8033385,32.5540865 43.9925002,32.3946695 C44.3189195,32.1195434 44.5517524,31.7534747 44.7534029,31.3824131 C45.1927784,30.5740346 45.5469993,29.7071278 45.797213,28.8221514 C45.9901134,28.1398641 46.1134504,27.4362974 46.3655732,26.771406 C46.6164631,26.1098036 47.0119687,25.5184589 47.6269034,25.1436724 C48.2958503,24.7359564 49.0626394,24.5212209 49.7970134,24.2649966 C50.524944,24.0110706 51.2403063,23.7007167 51.8045699,23.1619165 C51.9286228,23.0434336 52.0491358,22.9175405 52.1490066,22.7780556 C52.2278372,22.6679338 52.3057531,22.4571214 52.4258684,22.3872997 C52.612604,22.2786837 52.8851305,22.5611407 53.04661,22.6636938 C53.8432689,23.1697229 54.5079203,23.8754691 55.0439846,24.6464403 C55.577066,25.4132111 56.0144846,26.1510151 56.3699385,27.0072227 C56.6335956,27.6422358 56.7981456,28.4554884 57.2618623,28.9759019 C57.4688823,29.2082711 59.0077106,29.3488481 59.5061494,29.1459784 C60.0045882,28.9431086 60.563204,28.4163375 60.7304905,28.0862099 C60.9017542,27.7483156 60.9426809,27.3771351 60.8694981,27.0072227 C60.8264634,26.7895945 60.7385644,26.5863111 60.6904785,26.3725663 C60.6499893,26.1930191 60.6132388,26.0232992 60.5258569,25.85881 C60.360241,25.5471088 60.0772938,25.3230611 59.7360788,25.2293843 C60.0911747,24.9019513 60.3854174,24.5102444 60.5890169,24.0723727 C60.800571,23.6174616 60.979869,23.0642374 61.030739,22.5649448 C61.0721032,22.1594082 61.0082671,21.7392495 60.7862924,21.3907353 C60.5534198,21.0251422 60.1408913,20.7866309 59.7839658,20.5585809 C60.329178,20.1319631 60.7957982,19.6131347 61.1794115,19.0387104 C61.925439,17.9216422 62.3868887,16.5135577 62.0080084,15.1817937 Z" id="hair" fill="#191847"></path>
                                </g>
                                <g id="Bottom/Skinny-Jeans-1-Bottom/Sitting/Sweat-Pants" transform="translate(0.000000, 112.835694)">
                                    <g id="Seat-Objects/Seat/Cube-2" transform="translate(6.033333, 25.342776)" fill="#C5CFD6">
                                        <path d="M98.6333287,0 C107.469885,-1.623249e-15 114.633329,7.163444 114.633329,16 L114.633329,58.8215256 C114.633329,67.6580816 107.469885,74.8215256 98.6333287,74.8215256 L41.9433323,74.8215256 C33.1067763,74.8215256 25.9433323,67.6580816 25.9433323,58.8215256 L25.9433323,16 C25.9433323,7.163444 33.1067763,5.17596268e-15 41.9433323,0 L98.6333287,0 Z M93.739996,16.8951832 L46.8366649,16.8951832 C44.6275259,16.8951832 42.8366649,18.6860442 42.8366649,20.8951832 L42.8366649,20.8951832 L42.8366649,53.9263424 C42.8366649,56.1354814 44.6275259,57.9263424 46.8366649,57.9263424 L46.8366649,57.9263424 L93.739996,57.9263424 C95.949135,57.9263424 97.739996,56.1354814 97.739996,53.9263424 L97.739996,53.9263424 L97.739996,20.8951832 C97.739996,18.6860442 95.949135,16.8951832 93.739996,16.8951832 L93.739996,16.8951832 Z" id="Seat"></path>
                                    </g>
                                    <path d="M156.318754,22.6288515 C159.3822,30.5627595 164.729948,56.6303994 171.155455,96.0046444 L163.809554,98.1483687 C156.079585,81.037322 150.489418,66.1376831 148.245598,58.276579 C144.403632,44.8164604 141.48094,32.9723294 140.74228,28.5491547 C138.98085,18.0015273 154.294727,17.3868959 156.318754,22.6288515 Z M133.145499,44.7468625 C110.779397,47.9662063 79.0717085,51.2909658 76.3582206,51.664054 C72.5551513,52.1869531 69.6815055,46.2114814 74.1394937,44.4494049 C81.2329057,41.6456436 106.073625,32.8711595 118.05425,30.3888668 C121.497001,29.6755554 124.833816,29.0128045 127.971006,28.4138582 C137.295845,26.6335777 142.126443,43.4541584 133.145499,44.7468625 Z" id="Skin" fill="#B28B67"></path>
                                    <path d="M99.8891854,0 C137.004859,9.4587218 155.970937,15.5204407 156.787422,18.1851568 L156.812029,18.2708204 C156.830858,18.2955272 156.849365,18.3203847 156.867546,18.3453925 C164.222866,28.4622049 168.626751,77.8541524 170.072528,81.5524234 L155.977482,83.6557864 C150.586323,63.6605813 133.336514,49.7315626 133.795397,25.7833516 C133.671598,25.0803714 133.640396,24.4137373 133.691563,23.7831371 L95.3266667,4.25198526 L95.3266667,0 L99.8891854,0 Z" id="Leg-Back" fill="#1F28CF"></path>
                                    <path d="M101.928196,-2.84217094e-14 C107.305603,1.54489448 135.251666,13.2656387 149.751326,19.4996596 C159.296472,23.6035244 156.354865,38.3403453 150.975443,42.3071669 L150.89161,42.3671782 C150.862396,42.6057386 150.764516,42.7677471 150.589833,42.8401452 C121.352379,54.957688 98.2233578,48.6008224 90.4968436,50.6323996 L86.9233597,39.3598736 L98.5133424,35.3834625 C95.0034279,34.6807803 91.7711704,34.0536478 89.0053645,33.5684739 C71.1386047,30.434311 65.9285055,20.869324 69.0089943,-2.84217094e-14 L101.928196,-2.84217094e-14 Z" id="Leg-Front" fill="#2B44FF"></path>
                                    <g id="Right-Shoe-Accessories/Shoe/Flat-Sneaker-1" transform="translate(86.855443, 56.316365) rotate(64.000000) translate(-86.855443, -56.316365) translate(68.453776, 44.248377)" fill="#E4E4E4">
                                        <path d="M1.31319177,16.170929 C0.839952811,17.556228 0.603333332,18.6234327 0.603333332,19.3725431 C0.603333332,20.460645 0.784583236,22.0484562 1.14708304,24.1359768 C2.4092193,24.1359768 13.7522504,24.1359768 35.1761764,24.1359768 C36.0604719,21.2122093 35.5500052,19.6337613 33.6447764,19.4006328 C31.7395476,19.1675043 30.1568417,18.957008 28.8966586,18.7691437 L13.4530323,11.883544 C12.9486123,11.6586464 12.3573836,11.8852441 12.132486,12.3896641 C12.1286278,12.3983174 12.1248929,12.4070252 12.1212822,12.4157847 L11.2601386,14.5049346 L11.2601386,14.5049346 C9.49639499,15.3279456 8.06317023,15.739451 6.96046428,15.739451 C6.20610501,15.739451 5.20974277,15.4829005 3.97137757,14.9697995 L3.97138228,14.9697881 C2.95093154,14.5469772 1.78093678,15.03146 1.35812585,16.0519107 C1.34188953,16.0910969 1.32690392,16.1307898 1.31319177,16.170929 Z" id="shoe"></path>
                                    </g>
                                    <g id="Right-Shoe-Accessories/Shoe/Flat-Sneaker-2" transform="translate(158.676667, 79.648725)" fill="#E4E4E4">
                                        <path d="M1.31319177,16.170929 C0.839952811,17.556228 0.603333332,18.6234327 0.603333332,19.3725431 C0.603333332,20.460645 0.784583236,22.0484562 1.14708304,24.1359768 C2.4092193,24.1359768 13.7522504,24.1359768 35.1761764,24.1359768 C36.0604719,21.2122093 35.5500052,19.6337613 33.6447764,19.4006328 C31.7395476,19.1675043 30.1568417,18.957008 28.8966586,18.7691437 L13.4530323,11.883544 C12.9486123,11.6586464 12.3573836,11.8852441 12.132486,12.3896641 C12.1286278,12.3983174 12.1248929,12.4070252 12.1212822,12.4157847 L11.2601386,14.5049346 L11.2601386,14.5049346 C9.49639499,15.3279456 8.06317023,15.739451 6.96046428,15.739451 C6.20610501,15.739451 5.20974277,15.4829005 3.97137757,14.9697995 L3.97138228,14.9697881 C2.95093154,14.5469772 1.78093678,15.03146 1.35812585,16.0519107 C1.34188953,16.0910969 1.32690392,16.1307898 1.31319177,16.170929 Z" id="shoe"></path>
                                    </g>
                                </g>
                                <g id="Body/Long-Sleeve-1-Body/Jacket" transform="translate(13.273333, 49.478754)">
                                    <path d="M41.2118676,56.1283593 L53.8200216,56.1782272 C46.0356291,81.3117352 41.8332086,94.6474155 41.2127603,96.1852681 C39.8167515,99.6454365 42.7711744,104.915326 44.0346158,107.747318 C39.9198759,109.588653 40.3581582,102.76911 35.1675266,105.184127 C30.4297588,107.388443 26.8258023,111.382627 21.3518641,108.004625 C20.6788756,107.58932 19.9413651,106.02566 21.7231722,104.803795 C26.1623037,101.759684 32.5593401,96.4319101 33.4236574,94.6782045 C34.6023085,92.2867135 37.1983785,79.4367651 41.2118676,56.1283593 L41.2118676,56.1283593 Z M117.073592,53.7766032 L134.164618,70.451384 C139.137502,72.5727732 143.212066,74.9152288 146.388311,77.4787506 C147.102598,78.3404409 147.880209,79.9914897 144.519492,79.2526976 C141.158775,78.5139056 137.590579,77.8879681 136.958927,78.9810242 C136.327275,80.0740804 138.188443,81.7490038 137.021077,83.1795362 C136.242833,84.1332245 133.625596,81.0997772 129.169366,74.0791943 L111.396895,63.5999648 L117.073592,53.7766032 Z" id="Skin" fill="#B28B67"></path>
                                    <path d="M73.6181262,5.5705835 L78.7373805,4.22429636 C89.6409616,25.7965361 107.0401,44.7421311 130.934795,61.0610812 L115.877285,83.0066748 C91.3077576,58.9435303 75.2179131,33.306799 73.6181262,5.5705835 Z" id="Coat-Back" fill="#191847" transform="translate(102.276461, 43.615486) rotate(5.000000) translate(-102.276461, -43.615486) "></path>
                                    <path d="M54.3000019,68.787535 L100.75667,68.787535 C89.9937277,42.6151733 84.6122565,20.3820625 84.6122565,2.08820269 L70.5985746,0 C59.5851374,17.7148459 56.4749138,39.5254081 54.3000019,68.787535 Z" id="Shirt" fill="#DDE3E9"></path>
                                    <path d="M71.2221467,-2.57244649e-14 C72.3167309,0.0376962561 73.9839232,0.105613546 76.2237236,0.203751871 L76.2237236,0.203751871 L79.609932,9.88180054 C79.9681177,21.6816045 82.0598682,45.4613933 85.8851833,81.2211669 L85.8851833,81.2211669 L55.4319116,81.2213842 C55.5117453,83.6910919 55.6433748,86.1838692 55.8268001,88.6997162 L55.8268001,88.6997162 L33.1833345,88.6997162 C36.5703975,50.4827877 48.9395282,20.9162157 70.2907266,9.80267189e-15 L70.2907266,9.80267189e-15 L70.3013345,0.01 L70.3073911,-2.57244649e-14 Z" id="Coat-Front" fill="#2F3676"></path>
                                    <path d="M63.9533332,81.458923 L55.4397338,81.4585871 C55.0670714,70.3831047 55.7348304,59.771023 57.443011,49.622342 C58.3105585,65.0167628 60.4804299,75.6286685 63.9533332,81.458923 Z" id="Shade" fill-opacity="0.1" fill="#000000"></path>
                                    <polygon id="Light" fill-opacity="0.2" fill="#FFFFFF" points="62.2102457 62.753543 77.2266705 55.7717721 77.2266705 62.753543"></polygon>
                                </g>
                            </g>
                        </g>
                    </g>
                </g>
            </g>
        </g>
    </g>
</svg>