<svg width="1680" height="640" viewBox="0 0 1680 640" fill="none" xmlns="http://www.w3.org/2000/svg">
<g clip-path="url(#clip0_2712_1305)">
<rect width="1680" height="640" fill="#CCF7EB"/>
<path opacity="0.1" d="M825.695 389.831C838.549 444.652 865.759 492.041 908.755 515.041C998.13 562.777 1199.68 538.152 1350.09 509.869C1426.1 495.626 1495.09 456.271 1545.96 398.143L825.695 389.831Z" fill="#C2C6C9"/>
<path opacity="0.1" d="M1614.24 130.923H1531.68C1529.79 130.923 1527.97 130.169 1526.64 128.829C1525.3 127.488 1524.55 125.669 1524.55 123.773C1524.55 121.877 1525.3 120.058 1526.64 118.718C1527.97 117.377 1529.79 116.624 1531.68 116.624H1545.95C1544.1 116.564 1542.34 115.784 1541.05 114.449C1539.76 113.114 1539.04 111.329 1539.04 109.47C1539.04 107.612 1539.76 105.827 1541.05 104.492C1542.34 103.157 1544.1 102.377 1545.95 102.317H1535.76C1533.91 102.257 1532.15 101.478 1530.86 100.143C1529.57 98.8076 1528.85 97.0223 1528.85 95.164C1528.85 93.3058 1529.57 91.5204 1530.86 90.1855C1532.15 88.8505 1533.91 88.0707 1535.76 88.0108H1578.85C1569.29 83.5563 1558.11 80.3862 1545.23 78.7232C1427.74 63.6001 1385.79 73.6079 1370.99 83.9201C1352.73 96.6155 1332.37 105.955 1310.6 110.454C1238.11 125.444 1102.53 143.484 979.654 104.678C918.582 85.3752 873.196 117.982 845.985 172.446H1628.57C1627.55 156.618 1624.49 142.007 1618.87 129.208C1617.58 130.319 1615.94 130.928 1614.24 130.923Z" fill="#C2C6C9"/>
<path opacity="0.1" d="M818.773 275.342C815.61 307.13 816.683 339.196 821.964 370.704L1545 397.077C1565.13 373.989 1582.03 348.288 1595.24 320.676L818.773 275.342ZM1104.74 343.366H1090.51C1092.39 343.366 1094.2 344.113 1095.54 345.444C1096.87 346.774 1097.62 348.579 1097.62 350.46C1097.62 352.342 1096.87 354.146 1095.54 355.477C1094.2 356.807 1092.39 357.554 1090.51 357.554H1008.15C1006.27 357.554 1004.46 356.807 1003.12 355.477C1001.79 354.146 1001.04 352.342 1001.04 350.46C1001.04 348.579 1001.79 346.774 1003.12 345.444C1004.46 344.113 1006.27 343.366 1008.15 343.366H1022.39C1020.54 343.307 1018.79 342.533 1017.5 341.208C1016.22 339.884 1015.5 338.112 1015.5 336.268C1015.5 334.424 1016.22 332.653 1017.5 331.328C1018.79 330.004 1020.54 329.23 1022.39 329.17H1012.22C1010.38 329.111 1008.62 328.337 1007.34 327.012C1006.05 325.688 1005.33 323.916 1005.33 322.072C1005.33 320.229 1006.05 318.457 1007.34 317.132C1008.62 315.808 1010.38 315.034 1012.22 314.975H1094.58C1096.42 315.034 1098.18 315.808 1099.46 317.132C1100.75 318.457 1101.47 320.229 1101.47 322.072C1101.47 323.916 1100.75 325.688 1099.46 327.012C1098.18 328.337 1096.42 329.111 1094.58 329.17H1104.74C1106.59 329.23 1108.34 330.004 1109.63 331.328C1110.92 332.653 1111.63 334.424 1111.63 336.268C1111.63 338.112 1110.92 339.884 1109.63 341.208C1108.34 342.533 1106.59 343.307 1104.74 343.366Z" fill="#C2C6C9"/>
<path opacity="0.1" d="M1628.2 172.446L837.375 191.793C827.753 216.654 821.41 244.745 818.449 273.892H1614.35C1619.54 256.779 1623.38 239.28 1625.84 221.558C1628.21 204.436 1629.16 187.872 1628.2 172.446ZM979.001 235.816H964.738C965.674 235.816 966.601 236.001 967.466 236.361C968.331 236.721 969.116 237.249 969.778 237.914C970.44 238.58 970.965 239.37 971.323 240.239C971.682 241.109 971.866 242.04 971.866 242.981C971.866 243.923 971.682 244.854 971.323 245.724C970.965 246.593 970.44 247.383 969.778 248.049C969.116 248.714 968.331 249.242 967.466 249.602C966.601 249.962 965.674 250.147 964.738 250.147H882.235C880.344 250.147 878.531 249.392 877.195 248.049C875.858 246.705 875.107 244.882 875.107 242.981C875.107 241.081 875.858 239.258 877.195 237.914C878.531 236.571 880.344 235.816 882.235 235.816H896.497C894.646 235.756 892.89 234.974 891.601 233.636C890.313 232.298 889.592 230.508 889.592 228.646C889.592 226.783 890.313 224.994 891.601 223.656C892.89 222.318 894.646 221.536 896.497 221.476H886.313C884.461 221.416 882.706 220.635 881.417 219.297C880.128 217.959 879.408 216.169 879.408 214.307C879.408 212.444 880.128 210.655 881.417 209.317C882.706 207.979 884.461 207.197 886.313 207.137H968.817C970.668 207.197 972.424 207.979 973.713 209.317C975.001 210.655 975.722 212.444 975.722 214.307C975.722 216.169 975.001 217.959 973.713 219.297C972.424 220.635 970.668 221.416 968.817 221.476H979.001C980.852 221.536 982.608 222.318 983.897 223.656C985.186 224.994 985.906 226.783 985.906 228.646C985.906 230.508 985.186 232.298 983.897 233.636C982.608 234.974 980.852 235.756 979.001 235.816Z" fill="#C2C6C9"/>
<path d="M1112.58 362.777L1083.81 379.391L1100.42 408.168L1129.2 391.554L1112.58 362.777Z" fill="#FF6841"/>
<path d="M1112.85 414.153L1095.58 384.254L1125.48 366.991L1142.75 396.891L1112.85 414.153ZM1097.58 384.788L1113.38 412.158L1140.75 396.356L1124.95 368.987L1097.58 384.788Z" fill="#2F2E41"/>
<path d="M1085.76 494.723C1093.35 494.723 1099.51 488.564 1099.51 480.967C1099.51 473.37 1093.35 467.211 1085.76 467.211C1078.16 467.211 1072 473.37 1072 480.967C1072 488.564 1078.16 494.723 1085.76 494.723Z" fill="#22DDAB"/>
<path d="M1096.57 495.705C1093.65 495.705 1090.8 494.841 1088.38 493.221C1085.95 491.602 1084.06 489.3 1082.95 486.607C1081.83 483.914 1081.54 480.95 1082.11 478.091C1082.68 475.233 1084.08 472.606 1086.14 470.545C1088.21 468.484 1090.83 467.08 1093.69 466.512C1096.55 465.943 1099.51 466.235 1102.21 467.35C1104.9 468.466 1107.2 470.355 1108.82 472.779C1110.44 475.202 1111.3 478.052 1111.3 480.967C1111.3 484.876 1109.75 488.624 1106.99 491.388C1104.22 494.152 1100.47 495.705 1096.57 495.705ZM1096.57 467.702C1093.94 467.702 1091.38 468.48 1089.2 469.938C1087.01 471.395 1085.31 473.467 1084.31 475.891C1083.31 478.314 1083.04 480.981 1083.56 483.554C1084.07 486.128 1085.33 488.491 1087.19 490.346C1089.04 492.201 1091.4 493.464 1093.98 493.976C1096.55 494.488 1099.22 494.225 1101.64 493.221C1104.07 492.218 1106.14 490.517 1107.59 488.336C1109.05 486.155 1109.83 483.59 1109.83 480.967C1109.83 477.449 1108.43 474.075 1105.94 471.587C1103.46 469.1 1100.08 467.702 1096.57 467.702Z" fill="#2F2E41"/>
<path d="M1173.85 644.07H1038.93C1037.28 644.068 1035.7 643.408 1034.53 642.233C1033.36 641.059 1032.7 639.467 1032.7 637.806V511.794C1032.7 510.134 1033.36 508.542 1034.53 507.367C1035.7 506.193 1037.28 505.533 1038.93 505.531H1173.85C1175.5 505.533 1177.09 506.193 1178.25 507.367C1179.42 508.542 1180.08 510.134 1180.08 511.794V637.806C1180.08 639.467 1179.42 641.059 1178.25 642.233C1177.09 643.408 1175.5 644.068 1173.85 644.07Z" fill="#4353FF"/>
<path d="M1115.9 648H1096.89C1095.24 647.998 1093.66 647.339 1092.49 646.167C1091.33 644.995 1090.67 643.407 1090.67 641.749V507.851C1090.67 506.194 1091.33 504.605 1092.49 503.433C1093.66 502.261 1095.24 501.602 1096.89 501.6H1115.9C1117.54 501.602 1119.12 502.261 1120.29 503.433C1121.45 504.605 1122.11 506.194 1122.11 507.851V641.749C1122.11 643.407 1121.45 644.995 1120.29 646.167C1119.12 647.339 1117.54 647.998 1115.9 648Z" fill="#3F3D56"/>
<path d="M1209.53 493.277C1208.75 506.03 1191.44 515.356 1191.44 515.356C1191.44 515.356 1175.4 504.007 1176.18 491.255C1176.96 478.503 1194.27 469.176 1194.27 469.176C1194.27 469.176 1210.31 480.525 1209.53 493.277Z" fill="#3F3D56"/>
<path d="M1210.54 533.999C1197.52 533.236 1187.94 515.449 1187.94 515.449C1187.94 515.449 1199.48 498.898 1212.5 499.661C1225.53 500.423 1235.1 518.211 1235.1 518.211C1235.1 518.211 1223.57 534.761 1210.54 533.999Z" fill="#3F3D56"/>
<path opacity="0.1" d="M1180.08 520.514V568.414L1131.94 505.531H1168.61L1180.08 520.514Z" fill="black"/>
<path d="M1220.25 602.803C1219.29 602.805 1218.34 602.583 1217.48 602.156C1216.62 601.728 1215.87 601.107 1215.29 600.34L1116.49 469.584C1116 468.932 1115.64 468.19 1115.44 467.399C1115.23 466.608 1115.18 465.784 1115.29 464.974C1115.4 464.165 1115.67 463.385 1116.08 462.679C1116.5 461.974 1117.04 461.357 1117.69 460.863L1132.25 449.806C1132.9 449.312 1133.64 448.952 1134.43 448.745C1135.21 448.538 1136.04 448.489 1136.84 448.601C1137.65 448.713 1138.43 448.983 1139.13 449.396C1139.84 449.809 1140.45 450.357 1140.94 451.009L1239.74 581.764C1240.23 582.416 1240.59 583.158 1240.8 583.949C1241 584.74 1241.05 585.564 1240.94 586.373C1240.83 587.183 1240.56 587.963 1240.15 588.669C1239.74 589.374 1239.19 589.991 1238.54 590.485L1223.99 601.542C1222.91 602.361 1221.6 602.804 1220.25 602.803Z" fill="#4353FF"/>
<path d="M1180.59 501.159L1155.43 520.218L1174.49 545.372L1199.65 526.314L1180.59 501.159Z" fill="#3F3D56"/>
<path d="M1051.19 405.301L1042.59 437.398L1074.68 445.998L1083.28 413.902L1051.19 405.301Z" fill="#D9DDFF"/>
<path d="M1061.11 450.508L1027.79 441.58L1036.72 408.258L1070.04 417.187L1061.11 450.508ZM1029.57 440.548L1060.08 448.721L1068.25 418.218L1037.75 410.046L1029.57 440.548Z" fill="#2F2E41"/>
<path d="M946.677 578.894C946.677 578.894 959.493 616.744 954.001 630.592L970.479 645.363L980.548 632.438C980.548 632.438 969.563 621.36 970.479 613.052C971.394 604.743 972.309 575.202 972.309 575.202L946.677 578.894Z" fill="#FFB9B9"/>
<path d="M1008.35 652.613C1007.61 653.045 1006.89 653.455 1006.24 653.831H949.397C948.87 653.533 948.447 653.084 948.184 652.543C947.921 652.003 947.829 651.396 947.923 650.803C948.187 649.46 948.867 646.728 949.708 643.587C951.7 636.155 954.626 626.424 955.259 627.459L955.264 627.46L955.267 627.463L955.27 627.466L955.271 627.471C956.158 629.087 957.989 636.326 962.573 635.426C967.157 634.516 974.482 632.706 974.482 632.706C974.482 632.706 971.867 626.902 974.367 624.557C974.904 624.063 975.585 623.749 976.313 623.658C981.807 622.759 981.807 630.897 981.807 630.897L1001.95 641.755C1003.69 642.23 1005.38 642.842 1007.02 643.587C1011.11 645.476 1015.15 648.709 1008.35 652.613Z" fill="#2F2E41"/>
<path d="M909.419 565.524L885.402 593.996L878.935 608.692L887.249 615.121L894.639 612.365C894.639 612.365 901.106 595.833 907.572 593.078C914.038 590.322 929.742 571.953 929.742 571.953L909.419 565.524Z" fill="#FFB9B9"/>
<path d="M959.984 543.17L947.73 565.986L938.95 582.323C936.141 584.003 932.398 583.975 928.369 582.982C926.492 582.5 924.651 581.882 922.861 581.135C911.864 576.614 900.71 567.638 900.71 567.638L921.817 541.146L928.711 532.504L930.347 530.443L938.23 533.832L952.138 539.8L959.984 543.17Z" fill="#2F2E41"/>
<path d="M905.526 348.082L895.871 388.154L905.809 439.565C905.809 439.565 906.054 460.581 915.161 458.986C924.269 457.391 914.724 436.196 914.724 436.196L910.27 394.042L924.513 352.396C925.666 349.022 924.209 345.401 920.868 343.336C915.228 339.851 907.214 342.33 905.526 348.082Z" fill="#FFB9B9"/>
<path d="M939.419 313.457L931.045 339.314L915.226 331.003C915.226 331.003 921.739 312.533 921.739 309.763C921.739 306.992 939.419 313.457 939.419 313.457Z" fill="#FFB9B9"/>
<path d="M931.371 323.589C942.06 323.589 950.726 314.923 950.726 304.234C950.726 293.544 942.06 284.879 931.371 284.879C920.682 284.879 912.016 293.544 912.016 304.234C912.016 314.923 920.682 323.589 931.371 323.589Z" fill="#FFB9B9"/>
<path d="M938.239 345.395L934.505 341.751L933.572 337.197C933.572 337.197 921.437 321.711 911.17 327.176C907.961 328.884 905.573 332.816 903.806 337.416C899.305 349.436 899.725 362.688 904.978 374.414L921.437 411.895L958.774 408.251L952.24 384.566C952.24 384.566 958.774 369.991 946.64 359.971L938.239 345.395Z" fill="#4353FF"/>
<path opacity="0.3" d="M959.984 543.17L947.824 565.986L939.112 582.323C936.325 584.003 932.611 583.975 928.613 582.982C927.916 578.285 932.079 553.464 928.805 533.228L928.952 532.504L930.575 530.443L938.397 533.832L952.198 539.8L959.984 543.17Z" fill="black"/>
<path d="M960.015 406.601C960.015 406.601 935.748 391.832 918.948 410.293L919.881 415.831C919.881 415.831 905.881 431.523 914.281 464.752C922.681 497.982 935.748 584.748 935.748 584.748C935.748 584.748 966.548 586.594 980.548 576.44C980.548 576.44 975.882 461.983 960.015 450.907V406.601Z" fill="#2F2E41"/>
<path d="M910.791 358.772L941.069 386.626L991.031 402.774C991.031 402.774 1009.55 412.725 1012.69 403.963C1015.83 395.201 994.166 391.999 994.166 391.999L953.394 376.841L924.023 344.201C921.643 341.557 917.747 341.084 914.275 343.017C908.415 346.279 906.595 354.51 910.791 358.772Z" fill="#FFB9B9"/>
<path d="M893.126 610.647C893.126 610.647 898.828 603.614 902.235 608.045C905.641 612.477 898.218 616.274 898.218 616.274L897.786 639.134C897.786 639.134 901.837 656.613 890.9 649.86C879.963 643.106 879.533 642.298 877.381 638.253C875.23 634.209 870.785 617.96 866.948 612.72C863.111 607.48 859.598 596.929 864.152 595.628C868.706 594.327 889.935 589.695 888.878 591.238C887.82 592.781 882.082 597.775 885.058 601.397C888.034 605.02 893.126 610.647 893.126 610.647Z" fill="#2F2E41"/>
<path d="M941.047 287.484C941.047 287.46 941.048 287.437 941.048 287.413C941.048 282.127 939.488 276.959 936.563 272.564C933.639 268.169 929.483 264.743 924.62 262.72C919.757 260.697 914.406 260.168 909.244 261.199C904.081 262.23 899.339 264.776 895.617 268.514C891.895 272.252 889.361 277.014 888.334 282.199C887.307 287.384 887.834 292.758 889.848 297.642C891.863 302.526 895.274 306.7 899.65 309.637C904.027 312.574 909.172 314.141 914.435 314.141C915.054 314.141 917.499 318.791 918.106 318.75C918.143 304.641 927.23 288.431 941.047 287.484Z" fill="#2F2E41"/>
<path d="M886.008 284.879C895.695 284.879 903.548 277.026 903.548 267.339C903.548 257.651 895.695 249.798 886.008 249.798C876.321 249.798 868.468 257.651 868.468 267.339C868.468 277.026 876.321 284.879 886.008 284.879Z" fill="#2F2E41"/>
<path d="M885.403 240.842C889.493 240.816 893.454 242.32 896.556 245.076C899.658 247.833 901.691 251.657 902.281 255.843C902.871 260.028 901.978 264.293 899.766 267.851C897.554 271.409 894.172 274.02 890.245 275.201C892.677 275.197 895.079 274.653 897.289 273.604C899.499 272.555 901.466 271.028 903.055 269.124C904.644 267.221 905.819 264.986 906.499 262.572C907.18 260.157 907.351 257.62 907 255.131C906.649 252.643 905.785 250.261 904.467 248.149C903.148 246.036 901.405 244.241 899.357 242.886C897.309 241.53 895.003 240.647 892.595 240.294C890.187 239.942 887.735 240.129 885.403 240.842Z" fill="#2F2E41"/>
<path d="M926.532 282.459H940.342C943.417 282.459 946.366 283.636 948.54 285.729C950.714 287.823 951.935 290.662 951.935 293.623V298.185H926.532V282.459Z" fill="#2F2E41"/>
<path d="M1647.72 425.46C1708.87 425.46 1758.45 375.885 1758.45 314.732C1758.45 253.578 1708.87 204.004 1647.72 204.004C1586.56 204.004 1536.99 253.578 1536.99 314.732C1536.99 375.885 1586.56 425.46 1647.72 425.46Z" fill="#22DDAB"/>
<path d="M1529.96 395.208C1591.11 395.208 1640.69 345.633 1640.69 284.48C1640.69 223.327 1591.11 173.752 1529.96 173.752C1468.81 173.752 1419.23 223.327 1419.23 284.48C1419.23 345.633 1468.81 395.208 1529.96 395.208Z" fill="#22DDAB"/>
<path d="M1400.33 396.291C1461.49 396.291 1511.06 346.716 1511.06 285.563C1511.06 224.41 1461.49 174.835 1400.33 174.835C1339.18 174.835 1289.6 224.41 1289.6 285.563C1289.6 346.716 1339.18 396.291 1400.33 396.291Z" fill="#22DDAB"/>
<path d="M1358.2 425.46C1419.35 425.46 1468.93 375.885 1468.93 314.732C1468.93 253.578 1419.35 204.004 1358.2 204.004C1297.05 204.004 1247.47 253.578 1247.47 314.732C1247.47 375.885 1297.05 425.46 1358.2 425.46Z" fill="#22DDAB"/>
<path d="M1286.9 435.186C1348.05 435.186 1397.62 385.612 1397.62 324.458C1397.62 263.305 1348.05 213.73 1286.9 213.73C1225.74 213.73 1176.17 263.305 1176.17 324.458C1176.17 385.612 1225.74 435.186 1286.9 435.186Z" fill="#22DDAB"/>
<path d="M1257.73 347.68C1318.88 347.68 1368.46 298.106 1368.46 236.952C1368.46 175.799 1318.88 126.224 1257.73 126.224C1196.57 126.224 1147 175.799 1147 236.952C1147 298.106 1196.57 347.68 1257.73 347.68Z" fill="#22DDAB"/>
<path d="M1290.14 246.126C1351.29 246.126 1400.86 196.552 1400.86 135.398C1400.86 74.245 1351.29 24.6704 1290.14 24.6704C1228.98 24.6704 1179.41 74.245 1179.41 135.398C1179.41 196.552 1228.98 246.126 1290.14 246.126Z" fill="#22DDAB"/>
<path d="M1351.71 246.126C1412.86 246.126 1462.44 196.552 1462.44 135.398C1462.44 74.245 1412.86 24.6704 1351.71 24.6704C1290.56 24.6704 1240.98 74.245 1240.98 135.398C1240.98 196.552 1290.56 246.126 1351.71 246.126Z" fill="#22DDAB"/>
<path d="M1387.37 200.754C1448.52 200.754 1498.09 151.18 1498.09 90.0264C1498.09 28.873 1448.52 -20.7017 1387.37 -20.7017C1326.21 -20.7017 1276.64 28.873 1276.64 90.0264C1276.64 151.18 1326.21 200.754 1387.37 200.754Z" fill="#22DDAB"/>
<path d="M1478.11 250.448C1539.26 250.448 1588.84 200.873 1588.84 139.72C1588.84 78.5666 1539.26 28.9919 1478.11 28.9919C1416.96 28.9919 1367.38 78.5666 1367.38 139.72C1367.38 200.873 1416.96 250.448 1478.11 250.448Z" fill="#22DDAB"/>
<path d="M1689.85 347.68C1751.01 347.68 1800.58 298.106 1800.58 236.952C1800.58 175.799 1751.01 126.224 1689.85 126.224C1628.7 126.224 1579.12 175.799 1579.12 236.952C1579.12 298.106 1628.7 347.68 1689.85 347.68Z" fill="#22DDAB"/>
<path d="M1626.11 292.582C1687.26 292.582 1736.84 243.007 1736.84 181.854C1736.84 120.7 1687.26 71.1255 1626.11 71.1255C1564.96 71.1255 1515.38 120.7 1515.38 181.854C1515.38 243.007 1564.96 292.582 1626.11 292.582Z" fill="#22DDAB"/>
<path d="M1585.06 237.483C1646.21 237.483 1695.79 187.909 1695.79 126.755C1695.79 65.6017 1646.21 16.0271 1585.06 16.0271C1523.91 16.0271 1474.33 65.6017 1474.33 126.755C1474.33 187.909 1523.91 237.483 1585.06 237.483Z" fill="#22DDAB"/>
<path d="M1507.28 154.299C1568.43 154.299 1618.01 104.724 1618.01 43.571C1618.01 -17.5824 1568.43 -67.157 1507.28 -67.157C1446.13 -67.157 1396.55 -17.5824 1396.55 43.571C1396.55 104.724 1446.13 154.299 1507.28 154.299Z" fill="#22DDAB"/>
<path d="M1652.04 246.126C1713.19 246.126 1762.77 196.552 1762.77 135.398C1762.77 74.245 1713.19 24.6704 1652.04 24.6704C1590.89 24.6704 1541.31 74.245 1541.31 135.398C1541.31 196.552 1590.89 246.126 1652.04 246.126Z" fill="#22DDAB"/>
<g opacity="0.1">
<path d="M1647.72 425.46C1708.87 425.46 1758.45 375.885 1758.45 314.732C1758.45 253.578 1708.87 204.004 1647.72 204.004C1586.57 204.004 1536.99 253.578 1536.99 314.732C1536.99 375.885 1586.57 425.46 1647.72 425.46Z" fill="black"/>
<path d="M1529.96 395.208C1591.11 395.208 1640.69 345.633 1640.69 284.48C1640.69 223.327 1591.11 173.752 1529.96 173.752C1468.81 173.752 1419.23 223.327 1419.23 284.48C1419.23 345.633 1468.81 395.208 1529.96 395.208Z" fill="black"/>
<path d="M1400.33 396.291C1461.49 396.291 1511.06 346.716 1511.06 285.563C1511.06 224.41 1461.49 174.835 1400.33 174.835C1339.18 174.835 1289.6 224.41 1289.6 285.563C1289.6 346.716 1339.18 396.291 1400.33 396.291Z" fill="black"/>
<path d="M1358.2 425.46C1419.35 425.46 1468.93 375.885 1468.93 314.732C1468.93 253.578 1419.35 204.004 1358.2 204.004C1297.05 204.004 1247.47 253.578 1247.47 314.732C1247.47 375.885 1297.05 425.46 1358.2 425.46Z" fill="black"/>
<path d="M1286.9 435.186C1348.05 435.186 1397.62 385.611 1397.62 324.458C1397.62 263.305 1348.05 213.73 1286.9 213.73C1225.74 213.73 1176.17 263.305 1176.17 324.458C1176.17 385.611 1225.74 435.186 1286.9 435.186Z" fill="black"/>
<path d="M1257.73 347.68C1318.88 347.68 1368.46 298.106 1368.46 236.952C1368.46 175.799 1318.88 126.224 1257.73 126.224C1196.57 126.224 1147 175.799 1147 236.952C1147 298.106 1196.57 347.68 1257.73 347.68Z" fill="black"/>
<path d="M1290.14 246.126C1351.29 246.126 1400.86 196.552 1400.86 135.398C1400.86 74.245 1351.29 24.6704 1290.14 24.6704C1228.98 24.6704 1179.41 74.245 1179.41 135.398C1179.41 196.552 1228.98 246.126 1290.14 246.126Z" fill="black"/>
<path d="M1351.71 246.126C1412.86 246.126 1462.44 196.552 1462.44 135.398C1462.44 74.245 1412.86 24.6704 1351.71 24.6704C1290.56 24.6704 1240.98 74.245 1240.98 135.398C1240.98 196.552 1290.56 246.126 1351.71 246.126Z" fill="black"/>
<path d="M1387.37 200.754C1448.52 200.754 1498.1 151.18 1498.1 90.0261C1498.1 28.8727 1448.52 -20.7019 1387.37 -20.7019C1326.21 -20.7019 1276.64 28.8727 1276.64 90.0261C1276.64 151.18 1326.21 200.754 1387.37 200.754Z" fill="black"/>
<path d="M1478.11 250.448C1539.27 250.448 1588.84 200.873 1588.84 139.72C1588.84 78.5666 1539.27 28.9919 1478.11 28.9919C1416.96 28.9919 1367.38 78.5666 1367.38 139.72C1367.38 200.873 1416.96 250.448 1478.11 250.448Z" fill="black"/>
<path d="M1689.85 347.68C1751.01 347.68 1800.58 298.106 1800.58 236.952C1800.58 175.799 1751.01 126.224 1689.85 126.224C1628.7 126.224 1579.12 175.799 1579.12 236.952C1579.12 298.106 1628.7 347.68 1689.85 347.68Z" fill="black"/>
<path d="M1626.11 292.582C1687.26 292.582 1736.84 243.007 1736.84 181.854C1736.84 120.7 1687.26 71.1255 1626.11 71.1255C1564.96 71.1255 1515.38 120.7 1515.38 181.854C1515.38 243.007 1564.96 292.582 1626.11 292.582Z" fill="black"/>
<path d="M1585.06 237.483C1646.21 237.483 1695.79 187.909 1695.79 126.755C1695.79 65.6017 1646.21 16.0271 1585.06 16.0271C1523.91 16.0271 1474.33 65.6017 1474.33 126.755C1474.33 187.909 1523.91 237.483 1585.06 237.483Z" fill="black"/>
<path d="M1507.28 154.299C1568.43 154.299 1618.01 104.724 1618.01 43.571C1618.01 -17.5824 1568.43 -67.157 1507.28 -67.157C1446.13 -67.157 1396.55 -17.5824 1396.55 43.571C1396.55 104.724 1446.13 154.299 1507.28 154.299Z" fill="black"/>
<path d="M1652.04 246.126C1713.19 246.126 1762.77 196.552 1762.77 135.398C1762.77 74.245 1713.19 24.6704 1652.04 24.6704C1590.89 24.6704 1541.31 74.245 1541.31 135.398C1541.31 196.552 1590.89 246.126 1652.04 246.126Z" fill="black"/>
</g>
<path d="M1593.03 508.774C1593.03 508.774 1660.73 451.877 1627.24 370.859L1593.75 358.317L1557.41 470.193L1593.03 508.774Z" fill="#2F3233"/>
<path opacity="0.1" d="M1596.64 354.461L1604.65 357.461L1568.98 467.301L1600.1 501.008C1597.53 503.575 1595.92 504.918 1595.92 504.918L1560.29 466.337L1596.64 354.461Z" fill="black"/>
<path d="M1287.31 390.269L1296.1 425.47C1296.1 425.47 1358.24 433.572 1399.67 428.482C1407 427.443 1414.03 424.906 1420.33 421.03C1423.83 418.961 1429.35 418.062 1436.9 423.716C1449.83 433.464 1513.3 511.449 1503.02 592.359C1502.23 598.455 1499.44 604.119 1495.1 608.473C1490.76 612.827 1485.1 615.63 1479.01 616.447C1466.35 618.172 1454.25 622.75 1443.63 629.835L1412.21 650.75L1734.28 643.71L1700.85 603.233C1700.85 603.233 1677.97 583.878 1660.37 582.112C1655.24 581.603 1651 576.892 1647.58 570.49C1627.53 532.96 1603.55 497.672 1577.55 463.976C1558.62 439.432 1542.73 413.567 1544.21 397.32C1547.74 358.598 1544.21 295.246 1544.21 295.246L1477.34 286.451C1477.34 286.451 1486.14 370.935 1405.18 392.045C1324.23 413.155 1287.31 390.269 1287.31 390.269Z" fill="#2F3233"/>
<g opacity="0.1">
<path d="M1341.87 406.115C1341.87 406.115 1378.82 428.991 1459.79 407.87C1540.75 386.749 1531.94 302.276 1531.94 302.276L1544.67 303.933C1544.43 298.517 1544.25 295.268 1544.25 295.268L1477.38 286.473C1477.38 286.473 1486.17 370.957 1405.22 392.067C1324.26 413.177 1287.3 390.312 1287.3 390.312L1296.09 425.514C1296.09 425.514 1319.83 428.612 1347.76 429.771L1341.87 406.115Z" fill="black"/>
<path d="M1498.18 645.67C1508.81 638.585 1520.91 634.008 1533.57 632.283C1539.65 631.475 1545.29 628.688 1549.63 624.352C1553.97 620.015 1556.76 614.371 1557.57 608.291C1567.9 527.382 1504.4 449.256 1491.5 439.551C1477.42 428.991 1470.38 441.306 1470.38 441.306C1465.4 442.613 1460.33 443.58 1455.21 444.198C1478.03 474.525 1510.66 532.7 1503.02 592.445C1502.21 598.525 1499.42 604.169 1495.09 608.506C1490.75 612.842 1485.1 615.629 1479.02 616.436C1466.36 618.161 1454.27 622.739 1443.64 629.824L1412.23 650.739L1493.2 648.974L1498.18 645.67Z" fill="black"/>
</g>
<path d="M1647.72 400.613C1708.87 400.613 1758.45 351.038 1758.45 289.885C1758.45 228.731 1708.87 179.157 1647.72 179.157C1586.56 179.157 1536.99 228.731 1536.99 289.885C1536.99 351.038 1586.56 400.613 1647.72 400.613Z" fill="#22DDAB"/>
<path d="M1529.96 370.361C1591.11 370.361 1640.69 320.786 1640.69 259.633C1640.69 198.48 1591.11 148.905 1529.96 148.905C1468.81 148.905 1419.23 198.48 1419.23 259.633C1419.23 320.786 1468.81 370.361 1529.96 370.361Z" fill="#22DDAB"/>
<path d="M1400.33 371.444C1461.49 371.444 1511.06 321.87 1511.06 260.716C1511.06 199.563 1461.49 149.988 1400.33 149.988C1339.18 149.988 1289.6 199.563 1289.6 260.716C1289.6 321.87 1339.18 371.444 1400.33 371.444Z" fill="#22DDAB"/>
<path d="M1358.2 400.613C1419.35 400.613 1468.93 351.038 1468.93 289.885C1468.93 228.731 1419.35 179.157 1358.2 179.157C1297.05 179.157 1247.47 228.731 1247.47 289.885C1247.47 351.038 1297.05 400.613 1358.2 400.613Z" fill="#22DDAB"/>
<path d="M1286.9 410.339C1348.05 410.339 1397.62 360.765 1397.62 299.611C1397.62 238.458 1348.05 188.883 1286.9 188.883C1225.74 188.883 1176.17 238.458 1176.17 299.611C1176.17 360.765 1225.74 410.339 1286.9 410.339Z" fill="#22DDAB"/>
<path d="M1257.73 322.833C1318.88 322.833 1368.46 273.259 1368.46 212.105C1368.46 150.952 1318.88 101.377 1257.73 101.377C1196.57 101.377 1147 150.952 1147 212.105C1147 273.259 1196.57 322.833 1257.73 322.833Z" fill="#22DDAB"/>
<path d="M1290.14 221.28C1351.29 221.28 1400.86 171.705 1400.86 110.551C1400.86 49.3981 1351.29 -0.176514 1290.14 -0.176514C1228.98 -0.176514 1179.41 49.3981 1179.41 110.551C1179.41 171.705 1228.98 221.28 1290.14 221.28Z" fill="#22DDAB"/>
<path d="M1351.71 221.28C1412.86 221.28 1462.44 171.705 1462.44 110.551C1462.44 49.3981 1412.86 -0.176514 1351.71 -0.176514C1290.56 -0.176514 1240.98 49.3981 1240.98 110.551C1240.98 171.705 1290.56 221.28 1351.71 221.28Z" fill="#22DDAB"/>
<path d="M1387.37 175.907C1448.52 175.907 1498.09 126.333 1498.09 65.1794C1498.09 4.02603 1448.52 -45.5486 1387.37 -45.5486C1326.21 -45.5486 1276.64 4.02603 1276.64 65.1794C1276.64 126.333 1326.21 175.907 1387.37 175.907Z" fill="#22DDAB"/>
<path d="M1478.11 225.601C1539.26 225.601 1588.84 176.027 1588.84 114.873C1588.84 53.7199 1539.26 4.14526 1478.11 4.14526C1416.96 4.14526 1367.38 53.7199 1367.38 114.873C1367.38 176.027 1416.96 225.601 1478.11 225.601Z" fill="#22DDAB"/>
<path d="M1689.85 322.833C1751.01 322.833 1800.58 273.259 1800.58 212.105C1800.58 150.952 1751.01 101.377 1689.85 101.377C1628.7 101.377 1579.12 150.952 1579.12 212.105C1579.12 273.259 1628.7 322.833 1689.85 322.833Z" fill="#22DDAB"/>
<path d="M1626.11 267.735C1687.26 267.735 1736.84 218.16 1736.84 157.007C1736.84 95.8534 1687.26 46.2788 1626.11 46.2788C1564.96 46.2788 1515.38 95.8534 1515.38 157.007C1515.38 218.16 1564.96 267.735 1626.11 267.735Z" fill="#22DDAB"/>
<path d="M1585.06 212.636C1646.21 212.636 1695.79 163.062 1695.79 101.908C1695.79 40.7548 1646.21 -8.81982 1585.06 -8.81982C1523.91 -8.81982 1474.33 40.7548 1474.33 101.908C1474.33 163.062 1523.91 212.636 1585.06 212.636Z" fill="#22DDAB"/>
<path d="M1507.28 129.452C1568.43 129.452 1618.01 79.8775 1618.01 18.7241C1618.01 -42.4293 1568.43 -92.0039 1507.28 -92.0039C1446.13 -92.0039 1396.55 -42.4293 1396.55 18.7241C1396.55 79.8775 1446.13 129.452 1507.28 129.452Z" fill="#22DDAB"/>
<path d="M1652.04 221.28C1713.19 221.28 1762.77 171.705 1762.77 110.551C1762.77 49.3981 1713.19 -0.176514 1652.04 -0.176514C1590.89 -0.176514 1541.31 49.3981 1541.31 110.551C1541.31 171.705 1590.89 221.28 1652.04 221.28Z" fill="#22DDAB"/>
<path opacity="0.1" d="M1757.96 127.892C1757.96 127.892 1654.83 78.9892 1592.44 165.661L1757.96 127.892Z" fill="black"/>
<path opacity="0.1" d="M1487.09 28.8189C1487.09 28.8189 1373.02 25.3745 1350.62 129.788L1487.09 28.8189Z" fill="black"/>
<path opacity="0.1" d="M1345.29 255.366C1345.29 255.366 1242.16 206.452 1179.76 293.102L1345.29 255.366Z" fill="black"/>
</g>
<defs>
<clipPath id="clip0_2712_1305">
<rect width="1680" height="640" fill="white"/>
</clipPath>
</defs>
</svg>
