<svg width="1168" height="420" viewBox="0 0 1168 420" fill="none" xmlns="http://www.w3.org/2000/svg">
<path d="M1110.65 382.032C1118.12 387.048 1126.64 412.41 1126.64 412.41C1126.64 412.41 1099.99 414.151 1092.52 409.136C1090.74 407.944 1089.21 406.412 1088.03 404.629C1086.84 402.845 1086.02 400.845 1085.6 398.743C1085.19 396.64 1085.19 394.477 1085.61 392.375C1086.03 390.274 1086.86 388.276 1088.05 386.496C1089.24 384.716 1090.77 383.188 1092.55 382C1094.33 380.812 1096.33 379.988 1098.43 379.573C1100.53 379.159 1102.69 379.162 1104.78 379.584C1106.88 380.006 1108.87 380.838 1110.65 382.032Z" fill="#D9DDFF"/>
<path d="M1126.94 412.219L1126.52 412.552C1111.29 393.411 1088.31 386.8 1088.08 386.736L1088.23 386.22C1088.46 386.285 1111.6 392.939 1126.94 412.219Z" fill="white"/>
<path d="M1161.08 380.884C1156.95 392.655 1125.97 412.894 1125.97 412.894C1125.97 412.894 1114.42 377.736 1118.54 365.969C1120.53 360.318 1124.67 355.683 1130.06 353.086C1135.45 350.488 1141.64 350.14 1147.28 352.118C1152.92 354.095 1157.55 358.237 1160.13 363.632C1162.72 369.027 1163.06 375.233 1161.08 380.884Z" fill="#D9DDFF"/>
<path d="M1126.33 413.234L1125.74 412.79C1146.08 385.701 1146.97 352.565 1146.98 352.233L1147.72 352.247C1147.71 352.581 1146.82 385.949 1126.33 413.234Z" fill="white"/>
<path d="M1153.68 119.985C1153.67 104.581 1150.24 89.3709 1143.62 75.4581C1137.01 61.5452 1127.38 49.2774 1115.44 39.5436C1103.5 29.8099 1089.54 22.8538 1074.58 19.1795C1059.62 15.5053 1044.02 15.2048 1028.93 18.2998C1013.84 21.3948 999.622 27.8078 987.314 37.0742C975.006 46.3407 964.914 58.2284 957.769 71.8761C950.624 85.5238 946.605 100.59 946.003 115.982C945.401 131.375 948.231 146.709 954.289 160.872C954.187 160.759 954.082 160.65 953.981 160.536C958.595 171.288 964.991 181.184 972.9 189.807C972.924 189.833 972.948 189.858 972.972 189.884C973.61 190.579 974.252 191.271 974.908 191.949C984.401 201.848 995.766 209.763 1008.34 215.235C1020.92 220.706 1034.46 223.625 1048.17 223.822L1044.66 414.44H1055.51L1053.31 288.63L1069 280.373L1066.61 275.828L1053.21 282.879L1052.18 223.813C1079.31 223.191 1105.12 211.979 1124.09 192.575C1143.06 173.172 1153.68 147.117 1153.68 119.985Z" fill="#DADDFF"/>
<path d="M177.136 163.189C177.129 150.045 174.2 137.067 168.561 125.196C162.922 113.324 154.714 102.856 144.533 94.5508C134.351 86.2453 122.451 80.3099 109.693 77.1748C96.9361 74.0396 83.6415 73.7832 70.773 76.4241C57.9044 79.065 45.7841 84.537 35.2902 92.4438C24.7963 100.351 16.1916 110.494 10.0996 122.139C4.00759 133.784 0.58086 146.64 0.0676274 159.774C-0.445605 172.908 1.96752 185.991 7.1322 198.077C7.04557 197.981 6.95611 197.887 6.86993 197.79C10.8039 206.964 16.2575 215.408 23.0008 222.766C23.0209 222.788 23.0416 222.81 23.0618 222.832C23.6059 223.425 24.1531 224.015 24.713 224.594C32.8066 233.04 42.4965 239.794 53.2201 244.463C63.9437 249.131 75.4874 251.622 87.181 251.79L84.1882 414.438H93.4343L91.563 307.089L104.938 300.043L102.898 296.165L91.4775 302.181L90.5989 251.782C113.73 251.252 135.736 241.685 151.908 225.128C168.081 208.572 177.136 186.34 177.136 163.189Z" fill="#DADDFF"/>
<path d="M261.191 35.3287L272.696 26.1288C263.759 25.143 260.086 30.0164 258.583 33.8737C251.601 30.9749 244 34.774 244 34.774L267.019 43.129C265.858 40.0279 263.836 37.322 261.191 35.3287Z" fill="#263238"/>
<path d="M309.867 16.08L318.287 9.09778C311.746 8.34957 309.059 12.0482 307.959 14.9757C302.849 12.7757 297.287 15.659 297.287 15.659L314.132 22C313.282 19.6464 311.803 17.5928 309.867 16.08Z" fill="#263238"/>
<path d="M892.919 413.307C892.919 413.307 893.541 400.28 906.286 401.794L892.919 413.307Z" fill="#D9DDFF"/>
<path d="M402.919 413.307C402.919 413.307 403.541 400.28 416.286 401.794L402.919 413.307Z" fill="#D9DDFF"/>
<path d="M536 413.307C536 413.307 536.622 400.28 549.366 401.794L536 413.307Z" fill="#D9DDFF"/>
<path d="M1056.46 413.307C1056.46 413.307 1057.09 400.28 1069.83 401.794L1056.46 413.307Z" fill="#D9DDFF"/>
<path d="M660.481 414.207C660.481 414.207 659.859 401.18 647.115 402.694L660.481 414.207Z" fill="#D9DDFF"/>
<path d="M536.366 414.207C536.366 414.207 535.745 401.18 523 402.694L536.366 414.207Z" fill="#D9DDFF"/>
<path d="M310.481 414.207C310.481 414.207 309.859 401.18 297.115 402.694L310.481 414.207Z" fill="#D9DDFF"/>
<path d="M160.481 414.207C160.481 414.207 159.859 401.18 147.115 402.694L160.481 414.207Z" fill="#D9DDFF"/>
<path d="M970.481 414.207C970.481 414.207 969.859 401.18 957.115 402.694L970.481 414.207Z" fill="#D9DDFF"/>
<path opacity="0.2" d="M755.512 2.69702H441.279C436.927 2.69702 433.398 6.34507 433.398 10.8452V346.956C433.398 351.456 436.927 355.104 441.279 355.104H755.512C759.864 355.104 763.393 351.456 763.393 346.956V10.8452C763.393 6.34507 759.864 2.69702 755.512 2.69702Z" fill="#4353FF"/>
<path d="M761.82 17.081H435.228C434.743 17.0805 434.278 16.888 433.935 16.5459C433.592 16.2038 433.399 15.74 433.398 15.2561V4.52187C433.399 4.03805 433.592 3.5742 433.935 3.23209C434.278 2.88998 434.743 2.69755 435.228 2.69702H761.82C762.305 2.69755 762.77 2.88998 763.113 3.23209C763.456 3.5742 763.649 4.03805 763.649 4.52187V15.2561C763.649 15.74 763.456 16.2038 763.113 16.5459C762.77 16.888 762.305 17.0805 761.82 17.081Z" fill="#4353FF"/>
<path d="M443.666 11.6869C444.907 11.6869 445.914 10.6806 445.914 9.43939C445.914 8.19813 444.907 7.19189 443.666 7.19189C442.424 7.19189 441.418 8.19813 441.418 9.43939C441.418 10.6806 442.424 11.6869 443.666 11.6869Z" fill="#FF6841"/>
<path d="M452.657 11.6869C453.899 11.6869 454.905 10.6806 454.905 9.43939C454.905 8.19813 453.899 7.19189 452.657 7.19189C451.416 7.19189 450.409 8.19813 450.409 9.43939C450.409 10.6806 451.416 11.6869 452.657 11.6869Z" fill="#EDB726"/>
<path d="M461.649 11.6869C462.891 11.6869 463.897 10.6806 463.897 9.43939C463.897 8.19813 462.891 7.19189 461.649 7.19189C460.408 7.19189 459.401 8.19813 459.401 9.43939C459.401 10.6806 460.408 11.6869 461.649 11.6869Z" fill="#22DDAB"/>
<path d="M756.284 7.14293H746.704C746.516 7.14116 746.338 7.0576 746.206 6.91045C746.074 6.7633 746 6.56447 746 6.35725C746 6.15003 746.074 5.9512 746.206 5.80405C746.338 5.6569 746.516 5.57334 746.704 5.57156H756.284C756.378 5.57067 756.471 5.59034 756.558 5.62943C756.644 5.66851 756.723 5.72625 756.79 5.79929C756.857 5.87234 756.909 5.95925 756.945 6.05501C756.981 6.15078 757 6.2535 757 6.35725C757 6.461 756.981 6.56372 756.945 6.65948C756.909 6.75525 756.857 6.84216 756.79 6.91521C756.723 6.98825 756.644 7.04598 756.558 7.08507C756.471 7.12416 756.378 7.14382 756.284 7.14293Z" fill="white"/>
<path d="M756.285 10.2858H746.709C746.521 10.2858 746.341 10.203 746.208 10.0556C746.075 9.90829 746 9.70844 746 9.50007C746 9.29169 746.075 9.09185 746.208 8.94451C746.341 8.79716 746.521 8.71438 746.709 8.71438H756.285C756.378 8.7135 756.471 8.73316 756.558 8.77225C756.645 8.81133 756.724 8.86906 756.79 8.94211C756.857 9.01516 756.909 9.10207 756.945 9.19784C756.981 9.2936 757 9.39632 757 9.50007C757 9.60382 756.981 9.70654 756.945 9.8023C756.909 9.89807 756.857 9.98498 756.79 10.058C756.724 10.1311 756.645 10.1888 756.558 10.2279C756.471 10.267 756.378 10.2866 756.285 10.2858Z" fill="white"/>
<path d="M756.295 13.4286H746.705C746.517 13.4269 746.338 13.3434 746.206 13.1962C746.074 13.0491 746 12.8502 746 12.6429C746 12.4356 746.074 12.2367 746.206 12.0896C746.338 11.9424 746.517 11.8589 746.705 11.8572H756.295C756.483 11.8589 756.662 11.9424 756.794 12.0896C756.926 12.2367 757 12.4356 757 12.6429C757 12.8502 756.926 13.0491 756.794 13.1962C756.662 13.3434 756.483 13.4269 756.295 13.4286Z" fill="white"/>
<path d="M699.859 311.786H497.189C493.578 311.782 490.116 310.343 487.563 307.785C485.01 305.227 483.574 301.759 483.57 298.141V66.0841C483.574 62.4664 485.01 58.9981 487.563 56.4401C490.116 53.882 493.578 52.4431 497.189 52.439H699.859C703.47 52.4431 706.932 53.882 709.485 56.44C712.038 58.9981 713.474 62.4664 713.478 66.0841V298.141C713.474 301.759 712.038 305.227 709.485 307.785C706.932 310.343 703.47 311.782 699.859 311.786Z" fill="#F5F8FA"/>
<path d="M690.389 300.414H506.659C503.453 300.41 500.38 299.133 498.113 296.861C495.846 294.59 494.571 291.511 494.567 288.298V75.9269C494.571 72.7148 495.846 69.6353 498.113 67.3641C500.38 65.0928 503.453 63.8152 506.659 63.8115H690.389C693.595 63.8152 696.669 65.0928 698.935 67.3641C701.202 69.6353 702.478 72.7148 702.481 75.9269V288.298C702.478 291.511 701.202 294.59 698.935 296.861C696.669 299.133 693.595 300.41 690.389 300.414Z" fill="white"/>
<path fill-rule="evenodd" clip-rule="evenodd" d="M528.256 279C528.407 279.421 528.517 279.849 528.58 280.276C529.713 280.393 530.7 280.854 531.543 281.665C532.514 282.619 533 283.771 533 285.121C533 286.465 532.514 287.614 531.543 288.567C530.562 289.523 529.379 290 527.994 290C526.615 290 525.442 289.523 524.47 288.567C523.489 287.611 523 286.465 523 285.121C523 284.94 523.009 284.758 523.025 284.583C523.044 284.365 523.073 284.15 523.11 283.937C523.29 283.163 523.606 282.443 524.057 281.785C524.533 281.115 525.129 280.543 525.852 280.067C526.58 279.587 527.382 279.231 528.256 279ZM528.164 283.559C528.312 283.23 528.423 282.895 528.502 282.554C529.028 282.649 529.492 282.889 529.89 283.279C530.41 283.787 530.669 284.402 530.669 285.124C530.669 285.847 530.41 286.461 529.89 286.969C529.366 287.488 528.732 287.747 527.991 287.747C527.249 287.747 526.618 287.488 526.098 286.969C525.921 286.797 525.773 286.615 525.656 286.418C526.05 286.169 526.413 285.877 526.744 285.548C527.372 284.967 527.845 284.306 528.164 283.559ZM526.401 283.458C526.524 283.246 526.631 283.03 526.719 282.815C526.95 282.247 527.06 281.669 527.047 281.075C526.306 281.527 525.716 282.13 525.278 282.88C525.274 282.892 525.268 282.904 525.259 282.917C524.814 283.679 524.603 284.472 524.625 285.296C524.88 285.133 525.117 284.955 525.338 284.758C525.757 284.386 526.114 283.953 526.401 283.458Z" fill="#4353FF"/>
<path d="M683.08 94.0377H590.393C589.996 94.0383 589.602 93.9604 589.235 93.8084C588.868 93.6565 588.534 93.4335 588.253 93.1522C587.972 92.8709 587.749 92.5368 587.597 92.1691C587.445 91.8014 587.366 91.4072 587.366 91.0091C587.366 90.611 587.445 90.2168 587.597 89.8491C587.749 89.4814 587.972 89.1473 588.253 88.866C588.534 88.5847 588.868 88.3617 589.235 88.2098C589.602 88.0578 589.996 87.9799 590.393 87.9805H683.08C683.477 87.9799 683.871 88.0578 684.238 88.2098C684.605 88.3617 684.939 88.5847 685.22 88.866C685.501 89.1473 685.724 89.4814 685.876 89.8491C686.029 90.2168 686.107 90.611 686.107 91.0091C686.107 91.4072 686.029 91.8014 685.876 92.1691C685.724 92.5368 685.501 92.8709 685.22 93.1522C684.939 93.4335 684.605 93.6565 684.238 93.8084C683.871 93.9604 683.477 94.0383 683.08 94.0377Z" fill="#4353FF"/>
<path d="M683.08 106.005H590.393C589.592 106.005 588.823 105.686 588.256 105.118C587.689 104.55 587.37 103.78 587.37 102.977C587.37 102.173 587.689 101.403 588.256 100.835C588.823 100.267 589.592 99.9478 590.393 99.9478H683.08C683.881 99.9478 684.65 100.267 685.217 100.835C685.784 101.403 686.103 102.173 686.103 102.977C686.103 103.78 685.784 104.55 685.217 105.118C684.65 105.686 683.881 106.005 683.08 106.005Z" fill="#DCE1E4"/>
<path d="M630.571 117.973H590.393C589.592 117.973 588.823 117.654 588.256 117.086C587.689 116.518 587.37 115.747 587.37 114.944C587.37 114.141 587.689 113.37 588.256 112.802C588.823 112.234 589.592 111.915 590.393 111.915H630.571C631.372 111.915 632.141 112.234 632.708 112.802C633.275 113.37 633.594 114.141 633.594 114.944C633.594 115.747 633.275 116.518 632.708 117.086C632.141 117.654 631.372 117.973 630.571 117.973Z" fill="#DCE1E4"/>
<path d="M671.903 166.308H525.58C525.183 166.309 524.789 166.231 524.422 166.079C524.055 165.927 523.721 165.704 523.44 165.423C523.158 165.142 522.935 164.808 522.783 164.44C522.631 164.072 522.553 163.678 522.553 163.28C522.553 162.882 522.631 162.488 522.783 162.12C522.935 161.752 523.158 161.418 523.44 161.137C523.721 160.855 524.055 160.632 524.422 160.481C524.789 160.329 525.183 160.251 525.58 160.251H671.903C672.3 160.251 672.694 160.329 673.061 160.481C673.428 160.632 673.762 160.855 674.043 161.137C674.324 161.418 674.547 161.752 674.7 162.12C674.852 162.488 674.93 162.882 674.93 163.28C674.93 163.678 674.852 164.072 674.7 164.44C674.547 164.808 674.324 165.142 674.043 165.423C673.762 165.704 673.428 165.927 673.061 166.079C672.694 166.231 672.3 166.309 671.903 166.308Z" fill="#DCE1E4"/>
<path d="M671.903 178.276H525.58C524.778 178.276 524.009 177.957 523.442 177.389C522.875 176.821 522.557 176.051 522.557 175.247C522.557 174.444 522.875 173.674 523.442 173.106C524.009 172.538 524.778 172.219 525.58 172.219H671.903C672.705 172.219 673.474 172.538 674.04 173.106C674.607 173.674 674.926 174.444 674.926 175.247C674.926 176.051 674.607 176.821 674.04 177.389C673.474 177.957 672.705 178.276 671.903 178.276Z" fill="#DCE1E4"/>
<path d="M671.903 205.442H525.58C524.778 205.442 524.009 205.123 523.442 204.555C522.875 203.987 522.557 203.216 522.557 202.413C522.557 201.61 522.875 200.84 523.442 200.272C524.009 199.704 524.778 199.385 525.58 199.385H671.903C672.704 199.385 673.473 199.704 674.04 200.272C674.607 200.84 674.926 201.61 674.926 202.413C674.926 203.216 674.607 203.987 674.04 204.555C673.473 205.123 672.704 205.442 671.903 205.442Z" fill="#DCE1E4"/>
<path d="M671.903 217.409H525.58C524.778 217.409 524.009 217.09 523.442 216.522C522.875 215.954 522.557 215.184 522.557 214.381C522.557 213.577 522.875 212.807 523.442 212.239C524.009 211.671 524.778 211.352 525.58 211.352H671.903C672.705 211.352 673.474 211.671 674.04 212.239C674.607 212.807 674.926 213.577 674.926 214.381C674.926 215.184 674.607 215.954 674.04 216.522C673.474 217.09 672.705 217.409 671.903 217.409Z" fill="#DCE1E4"/>
<path d="M671.903 244.575H525.58C524.778 244.575 524.009 244.256 523.442 243.688C522.875 243.12 522.557 242.35 522.557 241.547C522.557 240.743 522.875 239.973 523.442 239.405C524.009 238.837 524.778 238.518 525.58 238.518H671.903C672.704 238.518 673.473 238.837 674.04 239.405C674.607 239.973 674.926 240.743 674.926 241.547C674.926 242.35 674.607 243.12 674.04 243.688C673.473 244.256 672.704 244.575 671.903 244.575Z" fill="#DCE1E4"/>
<path d="M671.903 256.543H525.58C524.778 256.543 524.009 256.224 523.442 255.656C522.875 255.088 522.557 254.317 522.557 253.514C522.557 252.711 522.875 251.94 523.442 251.372C524.009 250.804 524.778 250.485 525.58 250.485H671.903C672.705 250.485 673.474 250.804 674.04 251.372C674.607 251.94 674.926 252.711 674.926 253.514C674.926 254.317 674.607 255.088 674.04 255.656C673.474 256.224 672.705 256.543 671.903 256.543Z" fill="#DCE1E4"/>
<path d="M671.877 289.693H631.7C630.898 289.693 630.129 289.374 629.562 288.806C628.995 288.238 628.677 287.467 628.677 286.664C628.677 285.861 628.995 285.09 629.562 284.522C630.129 283.954 630.898 283.635 631.7 283.635H671.877C672.679 283.635 673.448 283.954 674.015 284.522C674.582 285.09 674.9 285.861 674.9 286.664C674.9 287.467 674.582 288.238 674.015 288.806C673.448 289.374 672.679 289.693 671.877 289.693Z" fill="#EDB726"/>
<path d="M564.736 103.331C564.744 109.835 562.547 116.15 558.503 121.238C557.195 122.894 555.706 124.399 554.064 125.723C549.583 129.365 544.107 131.566 538.355 132.036C537.572 132.103 536.783 132.134 535.988 132.134C534.412 132.135 532.838 132.005 531.284 131.745C530.735 131.659 530.199 131.554 529.662 131.43C528.729 131.222 527.807 130.964 526.9 130.658C523.961 129.678 521.2 128.226 518.725 126.359C518.066 125.865 517.431 125.34 516.814 124.784C516.06 124.114 515.346 123.4 514.675 122.647C514.496 122.449 514.317 122.245 514.145 122.041C511.137 118.514 509.024 114.31 507.986 109.788C506.948 105.266 507.017 100.56 508.185 96.0704C509.354 91.5807 511.588 87.4404 514.697 84.002C517.806 80.5635 521.699 77.9288 526.043 76.3221C530.388 74.7154 535.055 74.1843 539.649 74.7741C544.242 75.3639 548.625 77.057 552.425 79.7093C556.225 82.3617 559.328 85.8947 561.472 90.0076C563.615 94.1204 564.735 98.6913 564.736 103.331Z" fill="#DCE1E4"/>
<path d="M534.987 114.161C541.494 114.161 546.768 108.876 546.768 102.357C546.768 95.8386 541.494 90.554 534.987 90.554C528.481 90.554 523.207 95.8386 523.207 102.357C523.207 108.876 528.481 114.161 534.987 114.161Z" fill="#9E616A"/>
<path d="M541.082 100C541.579 107.413 540.844 114.586 542 121.023C542 121.023 540.714 127 533.076 127C524.658 127 529.25 121.023 529.25 121.023C533.88 119.455 533.888 114.586 533.214 110.002L541.082 100Z" fill="#9E616A"/>
<path d="M548.103 96.6038C548.156 95.5491 547.859 94.5064 547.258 93.6388L546.833 93.0335C545.297 90.0685 542.764 87.4001 540.908 85.4482C539.515 83.9842 538.121 83.28 536.783 83.348C535.81 83.4177 534.903 83.8707 534.262 84.6081C532.5 84.5003 530.745 84.9098 529.212 85.7864C527.679 86.6631 526.434 87.9687 525.631 89.5435C519.99 92.5269 521.673 101.335 521.691 101.428L523.054 103.72L523.208 103.429C523.208 103.423 523.226 103.398 523.251 103.349C523.516 102.873 524.959 100.23 525.933 98.5557C526.288 97.9847 526.761 97.4962 527.32 97.1226C528.232 96.498 529.281 96.1019 530.378 95.9675L533.374 95.5784L532.24 97.2832H540.402L543.54 96.9126C543.855 98.2036 546.346 103.213 546.647 103.818L546.672 103.868L546.839 104.208L547.77 101.644C548.313 100.021 548.428 98.2845 548.103 96.6038Z" fill="#2F2E41"/>
<path d="M518.812 126.421C519.317 125.754 521.938 122.641 527.967 120.991L531.161 117.427L543.966 115.383L550.482 118.99L558.503 121.238C557.195 122.895 555.706 124.399 554.064 125.723C549.583 129.365 544.107 131.566 538.355 132.036C537.572 132.104 536.783 132.135 535.988 132.135C534.412 132.135 532.839 132.005 531.284 131.745C530.735 131.659 530.199 131.554 529.663 131.43C528.729 131.222 527.807 130.964 526.901 130.658C523.994 129.691 521.263 128.26 518.812 126.421C518.781 126.402 518.756 126.378 518.726 126.359L518.812 126.421Z" fill="#ECD4E7"/>
<path d="M361.875 281.221C362.406 280.642 362.804 279.953 363.041 279.203C363.278 278.452 363.348 277.659 363.246 276.879C363.144 276.099 362.872 275.351 362.45 274.687C362.028 274.024 361.466 273.461 360.803 273.038L365.206 254.427L355.888 257.838L353.136 274.988C352.501 276.151 352.315 277.506 352.611 278.797C352.907 280.088 353.665 281.225 354.742 281.994C355.819 282.762 357.14 283.108 358.455 282.965C359.769 282.823 360.986 282.202 361.875 281.221Z" fill="#9E616A"/>
<path d="M384.281 203.232L380.542 212.866C380.542 212.866 382.145 222.5 379.474 224.641C376.803 226.782 377.871 226.782 377.871 228.388C377.779 229.54 377.446 230.659 376.894 231.674C376.342 232.688 375.583 233.574 374.666 234.275C372.529 235.881 362.913 268.53 362.913 268.53H353.298C353.608 266.042 353.608 263.525 353.298 261.037C352.763 257.29 354.9 247.656 355.969 246.051C357.037 244.445 355.969 242.304 355.969 239.093C355.969 235.881 358.105 234.275 358.105 228.923C358.105 223.571 364.516 181.823 363.982 177.006C363.447 172.189 369.324 167.907 369.324 167.907H374.666L384.281 203.232Z" fill="#ECD4E7"/>
<path d="M359.69 406.787H366.797L370.177 379.323L359.689 379.324L359.69 406.787Z" fill="#9E616A"/>
<path d="M357.878 413.689L380.792 413.689V413.398C380.792 411.028 379.852 408.755 378.18 407.08C376.507 405.404 374.239 404.462 371.873 404.462L367.687 401.281L359.877 404.463L357.877 404.463L357.878 413.689Z" fill="#2F2E41"/>
<path d="M424.702 406.584L431.375 404.137L425.134 377.181L415.283 380.792L424.702 406.584Z" fill="#9E616A"/>
<path d="M425.366 413.689L446.886 405.801L446.786 405.529C445.974 403.303 444.312 401.492 442.166 400.494C440.021 399.496 437.568 399.392 435.346 400.206L430.324 398.659L424.081 404.336L422.202 405.024L425.366 413.689Z" fill="#2F2E41"/>
<path d="M375.347 278.363C375.347 278.363 380.155 301.913 372.142 299.772C364.129 297.631 367.334 277.292 367.334 277.292L375.347 278.363Z" fill="#A0616A"/>
<path d="M410.605 258.826C410.605 258.826 417.015 267.39 417.015 272.207C417.015 277.024 419.152 319.843 419.152 319.843C419.152 319.843 435.372 383.605 432.166 386.816C428.961 390.028 417.743 393.239 416.14 391.633C414.538 390.028 400.455 324.125 400.455 324.125L387.1 288.264L374.813 339.646L373.744 394.24C373.744 394.24 360.389 397.451 357.718 395.311C355.047 393.17 354.513 341.252 357.718 323.054C360.923 304.856 357.184 263.108 357.184 263.108L410.605 258.826Z" fill="#C5CFD6"/>
<path d="M395.016 132C395.549 139.413 394.762 146.586 396 153.023C396 153.023 394.622 159 386.439 159C377.419 159 382.339 153.023 382.339 153.023C387.3 151.455 387.308 146.586 386.587 142.002L395.016 132Z" fill="#9E616A"/>
<path d="M389.181 146.877C380.33 146.877 373.155 139.688 373.155 130.82C373.155 121.952 380.33 114.763 389.181 114.763C398.032 114.763 405.207 121.952 405.207 130.82C405.207 139.688 398.032 146.877 389.181 146.877Z" fill="#9E616A"/>
<path d="M409.536 167.837C409.536 167.837 404.922 160.948 395.84 151.849C391.032 150.244 382.702 151.18 379.814 151.849C366.459 169.512 365.619 168.338 362.142 178.207C361.241 180.766 360.79 183.225 361.191 185.232C362.793 193.261 357.718 258.291 357.184 260.432C356.65 262.573 352.91 265.249 356.65 265.249C360.389 265.249 417.015 263.108 415.947 261.503C414.878 259.897 409.536 167.837 409.536 167.837Z" fill="#ECD4E7"/>
<path opacity="0.1" d="M411.982 260.797L395.914 225.374L403.948 263.046L411.982 260.797Z" fill="black"/>
<path d="M394.03 145.696C392.529 144.577 391.148 143.306 389.907 141.904C388.661 140.49 387.881 138.725 387.673 136.85C387.582 135.915 387.729 134.972 388.099 134.109C388.47 133.246 389.052 132.491 389.792 131.915C391.318 130.834 393.646 130.897 394.913 132.274C394.301 130.291 393.742 127.953 394.982 126.29C396.11 124.777 398.215 124.52 400.033 124.022C403.539 123.043 406.556 120.792 408.495 117.706L405.407 118.346L405.751 116.14L403.193 117.032L403.171 113.96L400.53 115.441C397.297 112.471 393.037 110.881 388.653 111.007C386.442 111.044 384.276 111.64 382.355 112.739C380.431 113.854 378.974 115.628 378.252 117.735C376.893 116.321 374.47 116.431 372.85 117.535C371.231 118.64 370.28 120.488 369.627 122.339C368.334 125.887 368.033 129.723 368.757 133.43C369.502 137.146 371.5 140.493 374.417 142.907C377.095 144.955 380.284 146.226 383.635 146.581C386.972 146.928 390.342 146.783 393.637 146.153" fill="#2F2E41"/>
<path d="M416.985 281.152C416.454 280.572 416.056 279.883 415.819 279.133C415.582 278.383 415.512 277.59 415.614 276.81C415.716 276.029 415.988 275.281 416.41 274.618C416.832 273.954 417.394 273.391 418.057 272.969L413.654 254.358L422.972 257.769L425.724 274.919C426.358 276.081 426.545 277.436 426.249 278.727C425.953 280.018 425.195 281.156 424.118 281.924C423.041 282.692 421.72 283.038 420.405 282.896C419.09 282.753 417.874 282.133 416.985 281.152Z" fill="#9E616A"/>
<path d="M404.194 167.837H409.536C409.536 167.837 415.412 172.119 414.878 176.936C414.344 181.753 420.755 223.501 420.755 228.854C420.755 234.206 422.891 235.812 422.891 239.023C422.891 242.234 421.823 244.375 422.891 245.981C423.96 247.587 426.097 257.221 425.562 260.967C425.252 263.456 425.252 265.973 425.562 268.461H415.947C415.947 268.461 406.331 235.812 404.194 234.206C403.278 233.505 402.518 232.618 401.966 231.604C401.414 230.59 401.081 229.47 400.989 228.318C400.989 226.713 402.057 226.713 399.386 224.572C396.715 222.431 398.318 212.797 398.318 212.797L394.578 203.162L404.194 167.837Z" fill="#ECD4E7"/>
<path d="M736.543 120.113C740.273 114.398 746.362 109.908 753.144 109.528C759.926 109.149 768.076 114.923 771.424 120.865C777.546 131.733 774.89 142.184 766.457 149.743C765.311 149.354 761.313 148.181 760.149 147.806L759.41 146.473L758.5 147.283C748.078 148.323 738.011 147.165 730.167 139.401C731.142 132.645 732.813 125.827 736.543 120.113Z" fill="#2F2E41"/>
<path d="M763.237 192.65L762.005 204.074L762.73 219.056L729.541 215.113L726.422 192.65L730.395 192.689L763.237 192.65Z" fill="#4353FF"/>
<path d="M746.853 140C746.391 144.119 747.073 148.103 746 151.68C746 151.68 747.194 155 754.286 155C762.103 155 757.839 151.68 757.839 151.68C753.54 150.808 753.533 148.103 754.158 145.556L746.853 140Z" fill="#FFB7B7"/>
<path d="M750.859 147.027C758.47 147.027 764.64 140.858 764.64 133.248C764.64 125.638 758.47 119.469 750.859 119.469C743.248 119.469 737.077 125.638 737.077 133.248C737.077 140.858 743.248 147.027 750.859 147.027Z" fill="#FFB7B7"/>
<path d="M734.339 155.103L742.226 150.372L757.998 148.795L771.939 155.893L771.8 177.575L762.956 200.063L727.043 195.617L724.481 187.4C724.481 187.4 714.229 173.632 725.27 165.747L734.339 155.103Z" fill="#4353FF"/>
<path d="M745.706 112.322C748.692 111.485 751.848 111.466 754.845 112.266C757.841 113.066 760.567 114.656 762.739 116.87C764.91 119.084 766.446 121.84 767.187 124.851C767.928 127.862 767.847 131.017 766.951 133.986C758.557 134.655 750.261 133.872 743.72 127.934L743.139 122.841L740.752 127.103C738.345 126.426 735.935 125.745 733.52 125.06C734.259 122.056 735.773 119.299 737.911 117.064C740.05 114.828 742.738 113.193 745.706 112.322Z" fill="#2F2E41"/>
<path d="M687.005 90.7202C686.632 91.5169 686.437 92.3858 686.436 93.2657C686.434 94.1457 686.626 95.0152 686.997 95.8132C687.368 96.6111 687.909 97.3181 688.583 97.8842C689.257 98.4503 690.047 98.8618 690.897 99.0897L716.573 147.529L726.938 139.531L698.439 94.4319C698.727 92.9788 698.473 91.4703 697.723 90.1925C696.973 88.9147 695.781 87.9562 694.371 87.4987C692.962 87.0412 691.434 87.1164 690.076 87.7102C688.719 88.3039 687.626 89.3749 687.005 90.7202Z" fill="#FFB6B6"/>
<path d="M729.125 163.896C729.125 163.896 726.745 166.006 723.362 160.18C720.653 155.516 707.143 134.632 705.23 127.392C704.181 127.422 703.151 127.101 702.304 126.482C701.457 125.862 700.84 124.978 700.551 123.969L715.062 118.338C718.217 119.915 717.341 122.1 716.541 123.231L721.946 131.336L739.923 151.507L730.872 162.402L729.125 163.896Z" fill="#4353FF"/>
<path d="M780.452 400.07H773.195L769.742 372.087H780.452V400.07Z" fill="#FFB6B6"/>
<path fill-rule="evenodd" clip-rule="evenodd" d="M745.256 165C745.407 165.421 745.517 165.849 745.58 166.276C746.713 166.393 747.7 166.854 748.543 167.665C749.514 168.619 750 169.771 750 171.121C750 172.465 749.514 173.614 748.543 174.567C747.562 175.523 746.379 176 744.994 176C743.615 176 742.442 175.523 741.47 174.567C740.489 173.611 740 172.465 740 171.121C740 170.94 740.009 170.758 740.025 170.583C740.044 170.365 740.073 170.15 740.11 169.937C740.29 169.163 740.606 168.443 741.057 167.785C741.533 167.115 742.129 166.543 742.852 166.067C743.58 165.587 744.382 165.231 745.256 165ZM745.164 169.559C745.312 169.23 745.423 168.895 745.502 168.554C746.028 168.649 746.492 168.889 746.89 169.279C747.41 169.787 747.669 170.402 747.669 171.124C747.669 171.847 747.41 172.461 746.89 172.969C746.366 173.488 745.732 173.747 744.991 173.747C744.249 173.747 743.618 173.488 743.098 172.969C742.921 172.797 742.773 172.615 742.656 172.418C743.05 172.169 743.413 171.877 743.744 171.548C744.372 170.967 744.845 170.306 745.164 169.559ZM743.401 169.458C743.524 169.246 743.631 169.03 743.719 168.815C743.95 168.247 744.06 167.669 744.047 167.075C743.306 167.527 742.716 168.13 742.278 168.88C742.274 168.892 742.268 168.904 742.259 168.917C741.814 169.679 741.603 170.472 741.625 171.296C741.88 171.133 742.117 170.955 742.338 170.758C742.757 170.386 743.114 169.953 743.401 169.458Z" fill="#F7F7F7"/>
<path d="M784.282 412.64H779.078L778.149 407.728L775.77 412.64H761.969C761.307 412.64 760.663 412.429 760.13 412.037C759.597 411.645 759.204 411.093 759.007 410.462C758.81 409.83 758.82 409.152 759.036 408.527C759.252 407.902 759.662 407.362 760.206 406.986L771.227 399.375V394.41L782.82 395.101L784.282 412.64Z" fill="#2F2E41"/>
<path d="M739.692 400.07H732.436L728.983 372.087H739.692V400.07Z" fill="#FFB6B6"/>
<path d="M743.522 412.64H738.319L737.39 407.728L735.011 412.64H721.21C720.548 412.64 719.904 412.429 719.371 412.037C718.838 411.645 718.444 411.093 718.248 410.462C718.051 409.83 718.061 409.152 718.277 408.527C718.492 407.902 718.902 407.362 719.447 406.986L730.468 399.375V394.41L742.061 395.101L743.522 412.64Z" fill="#2F2E41"/>
<path d="M783.582 375.939H783.503L782.108 330.44C783.011 328.699 783.469 326.761 783.442 324.799C783.415 322.838 782.903 320.913 781.952 319.197L781.752 318.836L782.27 316.435C782.935 313.35 782.63 310.135 781.396 307.231L780.094 264.789C784.745 234.652 762.579 214.998 762.579 214.998H729.375L722.247 239.485C717.534 285.39 718.389 330.123 725.867 373.461L725.664 373.564C724.929 373.818 724.615 374.834 724.96 375.835C725.306 376.836 726.181 377.442 726.915 377.189L744.451 376.579C745.185 376.326 745.5 375.309 745.154 374.308C744.809 373.307 743.933 372.701 743.199 372.954L742.007 373.557L744.55 329.652L744.267 321.633L744.849 312.535L747.537 271.612L757.711 321.936L768.103 376.446C767.816 376.705 767.615 377.046 767.526 377.422C767.437 377.798 767.464 378.192 767.604 378.553C767.743 378.913 767.989 379.223 768.308 379.441C768.628 379.659 769.006 379.775 769.392 379.774H783.582C784.091 379.774 784.579 379.572 784.938 379.212C785.298 378.853 785.5 378.365 785.5 377.857C785.5 377.348 785.298 376.86 784.938 376.501C784.579 376.141 784.091 375.939 783.582 375.939Z" fill="#303D72"/>
<path d="M768.097 248.72C768.847 248.258 769.486 247.638 769.969 246.903C770.453 246.168 770.77 245.336 770.897 244.465C771.024 243.595 770.959 242.707 770.706 241.864C770.453 241.021 770.018 240.244 769.432 239.588L774.518 185.002L761.465 186.01L760.57 239.349C759.532 240.406 758.918 241.807 758.845 243.287C758.771 244.767 759.243 246.222 760.171 247.377C761.098 248.532 762.418 249.307 763.879 249.554C765.34 249.802 766.841 249.505 768.097 248.72Z" fill="#FFB6B6"/>
<path d="M771.455 156.11C771.455 156.11 774.602 155.65 774.238 162.377C773.946 167.763 775.333 200.957 772.963 208.061C773.857 208.611 774.542 209.443 774.911 210.426C775.28 211.408 775.311 212.486 775 213.488L759.775 210.244C758.002 207.196 758.369 204.066 759.658 203.559L759.582 193.818L756.218 161.71L769.175 156.403L771.455 156.11Z" fill="#4353FF"/>
<path d="M252.51 249.539C253.209 250.984 253.316 252.646 252.807 254.168C252.298 255.691 251.213 256.955 249.785 257.689C249.493 257.834 249.189 257.953 248.876 258.047L247.857 279.538L239.027 272.938L241.349 253.542C241.053 252.217 241.206 250.832 241.783 249.604C242.36 248.375 243.328 247.373 244.536 246.754C245.24 246.403 246.008 246.197 246.794 246.148C247.579 246.098 248.367 246.206 249.11 246.466C249.853 246.726 250.537 247.131 251.121 247.659C251.705 248.186 252.177 248.826 252.51 249.539Z" fill="#F2A880"/>
<path d="M265.415 404.382L271.124 403.23L269.49 380.177L261.065 381.878L265.415 404.382Z" fill="#F2A880"/>
<path d="M263.591 402.771L274.833 400.501L274.833 400.501C275.775 400.309 276.746 400.309 277.688 400.502C278.63 400.695 279.523 401.076 280.313 401.623C281.935 402.735 283.05 404.444 283.413 406.377L283.459 406.615L265.053 410.332L263.591 402.771Z" fill="#263238"/>
<path d="M245.403 407.759H251.222L253.99 384.821H245.402L245.403 407.759Z" fill="#F2A880"/>
<path d="M243.919 405.818L255.378 405.818C256.341 405.817 257.295 406.01 258.182 406.386C259.069 406.761 259.872 407.311 260.542 408.004C261.921 409.413 262.69 411.309 262.681 413.281V413.524L243.919 413.525L243.919 405.818Z" fill="#263238"/>
<path d="M166.491 358.538C160.032 358.535 154.799 353.181 154.802 346.58C154.802 344.988 155.115 343.412 155.721 341.941L157.443 342.686C156.424 345.128 156.402 347.871 157.381 350.33C158.36 352.788 160.263 354.766 162.682 355.839C163.857 356.346 165.12 356.613 166.4 356.626C167.679 356.639 168.948 356.397 170.133 355.914L170.827 357.689C169.451 358.252 167.978 358.54 166.491 358.538Z" fill="#818385"/>
<path d="M184.492 358.299H169.997V354.477L181.686 351.131L184.492 358.299Z" fill="#818385"/>
<path d="M179.348 354.476H217.688C217.711 356.607 216.886 358.66 215.396 360.184C213.905 361.707 211.871 362.577 209.739 362.6H187.297C185.165 362.577 183.131 361.707 181.64 360.184C180.149 358.66 179.325 356.607 179.348 354.476Z" fill="#818385"/>
<path d="M221.303 359.31H178.756C177.256 359.277 175.83 358.658 174.781 357.586C173.732 356.514 173.145 355.075 173.145 353.575C173.145 352.076 173.732 350.636 174.781 349.564C175.83 348.492 177.256 347.874 178.756 347.841H221.303C222.802 347.874 224.229 348.492 225.277 349.564C226.326 350.636 226.913 352.076 226.913 353.575C226.913 355.075 226.326 356.514 225.277 357.586C224.229 358.658 222.802 359.277 221.303 359.31Z" fill="#C4C8F5"/>
<path d="M248.777 270.606L248.696 274.468L248.335 291.816C248.325 292.964 248.088 294.098 247.638 295.154C247.189 296.211 246.536 297.168 245.716 297.972C244.896 298.775 243.926 299.41 242.861 299.838C241.796 300.267 240.657 300.481 239.509 300.469C237.395 300.421 235.374 299.591 233.837 298.14L209.653 274.885C208.695 273.985 207.943 272.888 207.449 271.671C206.954 270.454 206.728 269.144 206.786 267.831C206.844 266.518 207.185 265.233 207.785 264.065C208.386 262.896 209.232 261.87 210.265 261.058C212.005 259.695 214.199 259.046 216.401 259.244C218.602 259.441 220.646 260.469 222.116 262.12L238.088 280.488L239.622 268.945L248.777 270.606Z" fill="#29D3A3"/>
<path d="M254.716 398.32L243.283 399.383L237.047 353.17C216.49 356.705 197.096 357.837 180.321 353.561C177.568 352.834 175.21 351.053 173.759 348.602C172.309 346.152 171.88 343.229 172.567 340.465C172.633 340.194 172.708 339.925 172.794 339.66C174.801 333.536 178.338 326.973 182.479 320.237L210.023 330.329L211.062 334.579L240.441 330.778C241.86 330.608 243.299 330.721 244.675 331.11C246.051 331.499 247.335 332.156 248.456 333.044C249.576 333.932 250.51 335.032 251.203 336.282C251.895 337.533 252.334 338.907 252.493 340.328C252.532 340.647 252.558 340.967 252.57 341.288L254.716 398.32Z" fill="#263238"/>
<path d="M272.099 388.588L260.666 389.651L239.935 347.261C219.378 350.796 199.985 351.929 183.21 347.653C180.456 346.925 178.099 345.144 176.648 342.694C175.197 340.243 174.769 337.32 175.456 334.556C175.521 334.285 175.596 334.017 175.682 333.751C177.69 327.627 181.227 321.064 185.367 314.328L217.328 317.017L213.95 328.67L243.33 324.869C244.749 324.699 246.188 324.812 247.563 325.201C248.939 325.59 250.224 326.248 251.344 327.135C252.465 328.023 253.398 329.124 254.091 330.374C254.784 331.624 255.222 332.999 255.381 334.419C255.421 334.738 255.447 335.058 255.459 335.38L272.099 388.588Z" fill="#263238"/>
<path d="M224.016 241C224.549 248.413 223.762 255.586 225 262.023C225 262.023 223.622 268 215.439 268C206.419 268 211.339 262.023 211.339 262.023C216.3 260.455 216.308 255.586 215.587 251.002L224.016 241Z" fill="#F2A880"/>
<path d="M218.228 254.583C225.977 254.583 232.26 248.162 232.26 240.241C232.26 232.321 225.977 225.9 218.228 225.9C210.478 225.9 204.196 232.321 204.196 240.241C204.196 248.162 210.478 254.583 218.228 254.583Z" fill="#F2A880"/>
<path d="M234.251 261.84C234.111 262.096 234.076 262.396 234.153 262.677C234.23 262.958 234.413 263.198 234.664 263.347C235.039 263.393 243.857 269.079 244.108 268.428C244.247 268.387 244.377 268.319 244.49 268.227C244.602 268.135 244.695 268.021 244.763 267.893L258.953 241.335C259.031 241.19 259.076 241.029 259.085 240.864C259.094 240.699 259.066 240.534 259.004 240.381C259.396 239.697 249.222 237.072 248.875 236.867C248.637 236.794 248.382 236.807 248.153 236.902C247.923 236.997 247.734 237.169 247.618 237.389L234.251 261.84Z" fill="#263238"/>
<path d="M256.915 240.775C256.915 240.775 248.399 238.379 248.543 238.277C248.312 238.267 247.847 237.934 247.699 238.277L235.06 261.569C234.516 262.076 243.45 266.224 243.526 266.47C244.231 266.914 256.709 241.342 257.094 241.211C257.131 241.14 257.14 241.058 257.118 240.981C257.095 240.904 257.044 240.839 256.974 240.8C256.955 240.79 256.936 240.781 256.915 240.775Z" fill="#4353FF"/>
<path d="M226.081 260.496C226.207 260.176 226.29 259.84 226.327 259.499C226.444 258.501 226.162 257.498 225.542 256.708C224.922 255.918 224.015 255.405 223.018 255.281L216.494 254.549C216.001 254.498 215.502 254.546 215.027 254.689C214.553 254.832 214.111 255.067 213.727 255.382C213.344 255.696 213.026 256.083 212.793 256.521C212.559 256.958 212.415 257.438 212.368 257.931C212.272 258.807 212.477 259.688 212.95 260.431C209.605 260.799 206.442 262.137 203.849 264.282C201.257 266.426 199.349 269.283 198.362 272.499C191.917 284.475 187.277 298.328 185.094 314.736L214.056 328.487L225.086 304.898L227.306 301.416C227.738 300.956 228.151 300.497 228.543 300.03C230.827 297.447 232.66 294.496 233.964 291.304C234.873 289.015 235.407 286.595 235.546 284.137C235.988 276.274 232.299 268.392 226.081 260.496Z" fill="#22DDAB"/>
<path opacity="0.2" d="M233.964 291.304C232.66 294.496 230.827 297.446 228.543 300.03C228.151 300.497 227.738 300.956 227.306 301.416L225.086 304.898C216.904 298.766 210.274 274.622 210.274 274.622L219.506 272.826L233.964 291.304Z" fill="black"/>
<path d="M239.553 253.923C238.745 255.311 238.51 256.96 238.899 258.519C239.288 260.078 240.27 261.423 241.636 262.269C241.916 262.437 242.21 262.581 242.514 262.7L241.861 284.206L251.176 278.343L250.368 258.82C250.764 257.52 250.719 256.127 250.24 254.856C249.761 253.585 248.874 252.508 247.719 251.794C247.045 251.387 246.298 251.119 245.519 251.006C244.741 250.892 243.947 250.936 243.186 251.135C242.425 251.333 241.711 251.682 241.087 252.161C240.463 252.64 239.941 253.239 239.553 253.923Z" fill="#F2A880"/>
<path d="M241.042 276.088L251.286 277.544L250.845 298.753C250.82 300.266 250.408 301.747 249.648 303.056C248.889 304.365 247.807 305.458 246.506 306.231C244.917 307.166 243.067 307.559 241.235 307.351C239.402 307.143 237.687 306.345 236.348 305.078L212.164 281.821C210.463 280.207 209.444 278.003 209.319 275.661C209.193 273.32 209.969 271.019 211.488 269.232C212.24 268.343 213.163 267.613 214.202 267.087C215.241 266.561 216.375 266.249 217.537 266.169C218.699 266.089 219.866 266.244 220.967 266.624C222.068 267.003 223.081 267.6 223.947 268.379C224.186 268.593 224.414 268.819 224.628 269.057L240.597 287.424L241.042 276.088Z" fill="#29D3A3"/>
<path d="M157.248 347.363C154.867 347.334 152.594 346.361 150.929 344.659C149.264 342.957 148.341 340.664 148.365 338.283V287.15C148.339 285.967 148.549 284.791 148.984 283.69C149.419 282.59 150.069 281.588 150.896 280.742C151.724 279.896 152.712 279.224 153.803 278.765C154.893 278.306 156.065 278.07 157.248 278.07C158.432 278.07 159.603 278.306 160.694 278.765C161.785 279.224 162.773 279.896 163.6 280.742C164.428 281.588 165.078 282.59 165.513 283.69C165.947 284.791 166.158 285.967 166.132 287.15V338.283C166.155 340.664 165.233 342.957 163.567 344.659C161.902 346.361 159.63 347.334 157.248 347.363Z" fill="#C4C8F5"/>
<path d="M213.012 407.312H202.258V360.505H198.518V407.312H187.764C186.134 407.331 184.578 407.995 183.439 409.16C182.299 410.325 181.668 411.895 181.686 413.525L219.09 413.525C219.108 411.895 218.478 410.325 217.338 409.16C216.198 407.995 214.642 407.331 213.012 407.312Z" fill="#818385"/>
<path d="M230.431 223.989C227.433 222.226 223.783 222.222 220.324 222.266C217.818 222.298 215.312 222.329 212.806 222.361C209.764 222.4 206.553 222.486 203.961 224.115C201.37 225.744 199.8 229.498 201.511 232.069C196.423 227.55 188.802 226.836 182.424 229.066C179.302 230.157 176.348 231.927 174.228 234.51C171.925 237.317 170.727 240.93 170.245 244.559C169.763 248.188 169.951 251.872 170.14 255.529C170.259 257.829 170.52 260.423 172.29 261.847C173.924 263.161 176.317 262.963 178.214 262.094C181.522 260.58 183.809 257.406 185.519 254.139C187.229 250.872 188.532 247.359 190.66 244.36C192.789 241.361 196.001 238.853 199.625 238.81C197.16 242.384 196.711 247.579 199.287 251.071C201.139 253.581 204.23 254.885 207.29 255.216C210.349 255.547 213.428 255.021 216.461 254.496C218.515 254.141 220.931 253.489 221.611 251.476C222.277 249.503 220.848 247.51 220.237 245.518C219.056 241.673 221.478 237.078 225.268 235.969L224.959 235.665C228.098 236.112 231.857 235.697 233.528 232.945C235.352 229.941 233.429 225.753 230.431 223.989Z" fill="#19192B"/>
<path d="M945.985 404.304H936.982L932.699 368.38L945.986 368.381L945.985 404.304Z" fill="#CD7544"/>
<path d="M948.281 401.263L930.552 401.263C927.555 401.263 924.681 402.494 922.562 404.686C920.443 406.878 919.253 409.851 919.252 412.951V413.331L948.281 413.332L948.281 401.263Z" fill="#2F2E41"/>
<path d="M1009.04 397.925L1000.3 400.162L987.797 366.355L1000.69 363.053L1009.04 397.925Z" fill="#CD7544"/>
<path d="M1010.56 394.403L993.348 398.809C990.439 399.554 987.935 401.464 986.387 404.118C984.84 406.773 984.375 409.955 985.094 412.964L985.183 413.333L1013.36 406.118L1010.56 394.403Z" fill="#2F2E41"/>
<path d="M975.732 251.887L983.648 298.505C983.648 298.505 986.693 304.175 985.475 306.695C984.257 309.215 983.648 309.215 985.475 310.475C987.302 311.735 989.738 310.475 989.129 313.625C988.764 315.492 988.56 317.389 988.52 319.294L1005.57 379.772C1005.57 379.772 1016.53 384.811 1008.61 387.961C1000.7 391.111 992.782 393.631 990.955 390.481C989.129 387.331 990.955 383.551 990.955 383.551L962.944 314.254C962.944 314.254 958.681 307.955 958.681 304.175C958.681 300.395 944.676 273.306 944.676 273.306C944.676 273.306 944.067 300.395 943.458 302.285C942.849 304.175 944.676 307.955 944.676 310.475C944.676 312.995 945.894 312.994 944.676 314.254C943.458 315.514 943.458 330.004 943.458 330.004C943.458 330.004 950.765 386.071 946.503 386.701C942.24 387.331 930.061 386.071 930.061 383.551C930.008 382.895 930.156 382.237 930.483 381.672C930.811 381.106 931.303 380.662 931.888 380.402L923.972 332.524C924.304 330.613 924.092 328.643 923.363 326.854C922.145 324.334 922.145 324.334 922.145 323.074C922.145 321.814 922.754 321.184 922.145 320.554C921.747 320.01 921.533 319.346 921.536 318.664C921.536 318.664 922.754 314.884 922.145 314.254C921.536 313.625 908.139 266.377 912.402 260.707C916.664 255.037 975.732 251.887 975.732 251.887Z" fill="#EDB726"/>
<path d="M948.498 153.61C939.753 153.61 932.665 146.276 932.665 137.23C932.665 128.184 939.753 120.851 948.498 120.851C957.242 120.851 964.33 128.184 964.33 137.23C964.33 146.276 957.242 153.61 948.498 153.61Z" fill="#CD7544"/>
<path d="M943.115 145C942.511 150.217 943.403 155.264 942 159.794C942 159.794 943.561 164 952.836 164C963.058 164 957.482 159.794 957.482 159.794C951.86 158.69 951.851 155.264 952.668 152.038L943.115 145Z" fill="#CD7544"/>
<path d="M959.684 149.092C958.87 148.527 958.838 147.235 959.111 146.186C959.503 145.181 959.748 144.12 959.838 143.04C959.721 140.117 955.83 138.945 955.608 136.036C955.471 134.248 956.813 132.27 956.038 130.721C955.549 129.743 954.412 129.417 953.377 129.229C949.358 128.511 945.245 128.568 941.247 129.398L940.663 127.812L937.7 129.835C937.538 128.851 936.222 128.753 935.362 129.225C934.501 129.697 933.756 130.512 932.818 130.67C931.321 130.921 930.139 129.244 930.218 127.631C930.44 126 931.149 124.48 932.244 123.283C934.736 120.09 937.759 117.382 941.171 115.288L940.349 113.755L942.11 114.487L942.303 112.654L944.019 113.651L944.043 112C945.88 114.182 949.079 114.107 951.887 114.304C956.582 114.528 961.091 116.263 964.788 119.266C966.633 120.824 968.144 122.763 969.225 124.959C970.306 127.155 970.933 129.56 971.066 132.02C971.225 135.874 969.941 140.564 967.191 143.421C964.691 146.019 960.987 144.442 959.684 149.092Z" fill="#2F2E41"/>
<path d="M909.648 293.825C910.452 293.045 911.081 292.092 911.49 291.033C911.9 289.975 912.08 288.836 912.018 287.698C911.956 286.559 911.654 285.449 911.132 284.444C910.61 283.44 909.882 282.566 908.999 281.884L913.221 264.605L903.697 259.39L898.065 283.878C897.057 285.489 896.654 287.427 896.935 289.325C897.215 291.222 898.158 292.948 899.586 294.174C901.014 295.4 902.827 296.042 904.681 295.977C906.536 295.913 908.303 295.147 909.648 293.825Z" fill="#CD7544"/>
<path d="M935.103 271.463C954.348 271.465 972.063 262.454 972.302 262.33L972.501 262.227L974.116 222.13C974.584 220.713 983.806 192.754 985.368 183.867C986.951 174.863 964.016 166.961 961.231 166.037L960.599 158.794L934.898 155.929L931.64 165.197L922.42 168.774C921.374 169.18 920.509 169.968 919.988 170.99C919.467 172.011 919.327 173.195 919.593 174.317L924.718 195.876L914.637 267.207L914.896 267.327C921.272 270.174 928.16 271.584 935.103 271.463Z" fill="#4353FF"/>
<path d="M912.126 275.939L921.045 237.953L930.712 192.114L925.805 169.268H921.609C921.533 169.268 913.909 169.386 912.267 179.574C910.677 189.442 905.883 220.849 905.835 221.165L897.732 274.814L912.126 275.939Z" fill="#4353FF"/>
<path d="M927.961 326.989L1009.94 271.766L944.278 167.448L862.301 222.671L927.961 326.989Z" fill="white"/>
<path d="M927.961 326.989L1009.94 271.766L944.278 167.448L862.301 222.671L927.961 326.989ZM1007.48 271.228L928.48 324.444L864.761 223.209L943.758 169.993L1007.48 271.228Z" fill="#E5E5E5"/>
<path d="M951.713 226.299L953.2 228.661L907.39 259.52L905.903 257.159L951.713 226.299Z" fill="#4353FF"/>
<path d="M955.578 232.44L957.064 234.802L911.254 265.662L909.768 263.3L955.578 232.44Z" fill="#4353FF"/>
<path d="M959.443 238.58L960.929 240.941L915.119 271.801L913.632 269.439L959.443 238.58Z" fill="#4353FF"/>
<path d="M956.6 227.021C955.618 227.021 954.822 226.197 954.822 225.182C954.822 224.166 955.618 223.342 956.6 223.342C957.581 223.342 958.377 224.166 958.377 225.182C958.377 226.197 957.581 227.021 956.6 227.021Z" fill="#4353FF"/>
<path d="M935.06 199.84L936.546 202.202L890.736 233.062L889.249 230.7L935.06 199.84Z" fill="#E5E5E5"/>
<path d="M938.924 205.981L940.411 208.342L894.6 239.202L893.114 236.84L938.924 205.981Z" fill="#E5E5E5"/>
<path d="M942.789 212.122L944.276 214.484L898.465 245.344L896.979 242.982L942.789 212.122Z" fill="#E5E5E5"/>
<path d="M939.785 200.305C938.803 200.305 938.007 199.482 938.007 198.466C938.007 197.45 938.803 196.627 939.785 196.627C940.767 196.627 941.562 197.45 941.562 198.466C941.562 199.482 940.767 200.305 939.785 200.305Z" fill="#E5E5E5"/>
<path d="M968.528 253.014L970.015 255.376L924.205 286.236L922.718 283.874L968.528 253.014Z" fill="#E5E5E5"/>
<path d="M972.393 259.155L973.88 261.516L928.07 292.376L926.583 290.014L972.393 259.155Z" fill="#E5E5E5"/>
<path d="M976.259 265.295L977.745 267.657L931.935 298.517L930.448 296.155L976.259 265.295Z" fill="#E5E5E5"/>
<path d="M973.253 253.479C972.271 253.479 971.475 252.656 971.475 251.64C971.475 250.624 972.271 249.801 973.253 249.801C974.235 249.801 975.031 250.624 975.031 251.64C975.031 252.656 974.235 253.479 973.253 253.479Z" fill="#E5E5E5"/>
<path d="M950.291 269.519C950.344 268.38 950.637 267.267 951.15 266.258C951.663 265.249 952.383 264.368 953.261 263.678C954.138 262.989 955.151 262.506 956.229 262.265C957.306 262.024 958.421 262.031 959.496 262.284L969.465 247.749L979.481 251.862L965.123 272.184C964.593 274.023 963.428 275.598 961.851 276.608C960.273 277.619 958.392 277.995 956.563 277.667C954.735 277.339 953.087 276.328 951.931 274.826C950.775 273.324 950.192 271.436 950.291 269.519Z" fill="#CD7544"/>
<path d="M969.721 268.442L999.888 227.956L988.585 191.205C987.756 181.966 982.168 179.386 981.93 179.28L981.567 179.119L971.731 206.255L978.953 226.178L961.227 257.019L969.721 268.442Z" fill="#4353FF"/>
<path d="M1165.03 414H2.9696C2.58004 414 2.19406 413.987 1.83382 413.962C1.47359 413.937 1.14618 413.901 0.870315 413.854C0.594452 413.808 0.375495 413.752 0.226154 413.692C0.0768135 413.631 0 413.566 0 413.5C0 413.434 0.0768135 413.369 0.226154 413.308C0.375495 413.248 0.594452 413.192 0.870315 413.146C1.14618 413.099 1.47359 413.063 1.83382 413.038C2.19406 413.013 2.58004 413 2.9696 413H1165.03C1165.42 413 1165.81 413.013 1166.17 413.038C1166.53 413.063 1166.85 413.099 1167.13 413.146C1167.41 413.192 1167.62 413.248 1167.77 413.308C1167.92 413.369 1168 413.434 1168 413.5C1168 413.566 1167.92 413.631 1167.77 413.692C1167.62 413.752 1167.41 413.808 1167.13 413.854C1166.85 413.901 1166.53 413.937 1166.17 413.962C1165.81 413.987 1165.42 414 1165.03 414Z" fill="#DCE1E4"/>
</svg>
