<?xml version="1.0" encoding="UTF-8"?>
<svg width="55px" height="55px" viewBox="0 0 55 55" version="1.1" xmlns="http://www.w3.org/2000/svg" xmlns:xlink="http://www.w3.org/1999/xlink">
    <!-- Generator: sketchtool 55.2 (78181) - https://sketchapp.com -->
    <title>D8A0373A-CB24-4F7A-BB1D-12C5EFD8C9C5</title>
    <desc>Created with sketchtool.</desc>
    <g id="Premium-account" stroke="none" stroke-width="1" fill="none" fill-rule="evenodd">
        <g id="Oliv_plus_LP_B_active" transform="translate(-693.000000, -797.000000)" fill-rule="nonzero">
            <g id="Benefits" transform="translate(256.000000, 685.000000)">
                <g id="Group-4" transform="translate(0.000000, 103.000000)">
                    <g id="Dedicated-Shortlisting-Support-Copy" transform="translate(431.000000, 9.000000)">
                        <g id="Group-24" transform="translate(6.000000, 0.000000)">
                            <g id="open-email">
                                <path d="M54.1666667,20 L54.1666667,49.0273534 C54.1666667,50.5163566 53.5350464,51.8567541 52.5272219,52.7955375 C51.6129242,53.6463363 50.3895267,54.1666667 49.0453413,54.1666667 L5.95340044,54.1666667 C4.60921509,54.1666667 3.38581759,53.6463363 2.47277812,52.7963796 C1.46495362,51.8567541 0.833333333,50.5163566 0.833333333,49.0273534 L0.833333333,20 L54.1666667,20 Z" id="Path" fill="#FFFFFF"></path>
                                <path d="M54.1666667,19.9998438 L33.6662669,3.04929903 C30.093376,0.0946781025 24.9057851,0.0946781025 21.3328942,3.04929903 L0.833333333,19.9998438 L6.87524733,24.9957105 L21.3328942,36.9503885 C24.9062045,39.905426 30.0937954,39.905426 33.6658475,36.9503885 L48.1247526,24.9957105 L54.1666667,19.9998438" id="Path" fill="#FFFFFF"></path>
                                <path d="M48.3333333,10.0810597 L48.3333333,25.7463673 L33.7282036,37.7707916 C30.1200268,40.7430695 24.8799732,40.7430695 21.2705256,37.7707916 L6.66666667,25.7463673 L6.66666667,10.0810597 C6.66666667,6.81511499 9.34494463,4.16666667 12.6489448,4.16666667 L42.3523262,4.16666667 C45.6559027,4.16666667 48.3333333,6.81511499 48.3333333,10.0810597 Z" id="Path" fill="#FFFFFF"></path>
                                <path d="M48.3333333,9.29437778 L48.3333333,21.4672712 L33.7282036,33.5865415 C30.1200268,36.582264 24.8799732,36.582264 21.2705256,33.5865415 L6.66666667,21.4672712 L6.66666667,9.29437778 C6.66666667,6.00267201 9.34494463,3.33333333 12.6489448,3.33333333 L42.3523262,3.33333333 C45.6559027,3.33333333 48.3333333,6.00267201 48.3333333,9.29437778 Z" id="Path" fill="#FFFFFF"></path>
                                <path d="M48.3766431,50.8333333 C48.6029614,50.8333333 48.8276572,50.7332757 48.9838087,50.5386256 C49.2628534,50.1913666 49.2174276,49.6755229 48.8824116,49.3862805 L36.2945753,38.5228738 C35.9595594,38.2336314 35.4619026,38.2807174 35.1828579,38.6279764 C34.9038132,38.9752355 34.9492391,39.4914996 35.2842549,39.780742 L47.8720914,50.6441487 C48.0197254,50.7715331 48.1985899,50.8333333 48.3766431,50.8333333 Z" id="Path" fill="#22DDAB"></path>
                                <path d="M17.8720914,38.5228738 L5.28425494,49.3862805 C4.94923911,49.6755229 4.90381323,50.1913666 5.18285793,50.5386256 C5.33860381,50.7332757 5.56329964,50.8333333 5.79002349,50.8333333 C5.96807675,50.8333333 6.14694114,50.7715331 6.29457525,50.6441487 L18.8824116,39.7803216 C19.2174276,39.4914996 19.2628534,38.9752355 18.9838087,38.6279764 C18.7051696,38.2807174 18.2071073,38.2336314 17.8720914,38.5228738 L17.8720914,38.5228738 Z" id="Path" fill="#22DDAB"></path>
                                <path d="M55,20.1272681 C55,19.8847292 54.892147,19.6547788 54.7058173,19.4995204 L48.9543561,14.711265 L48.9543561,9.46940324 C48.9543561,5.75243138 45.9302752,2.72866773 42.2129134,2.72866773 L34.5603855,2.72866773 L34.192762,2.4223469 C30.3150895,-0.807448967 24.6853302,-0.807448967 20.8063987,2.4223469 L20.4387752,2.72866773 L18.7874071,2.72866773 C18.336271,2.72866773 17.9707458,3.0941546 17.9707458,3.54524333 C17.9707458,3.99633217 18.336271,4.36223863 18.7874071,4.36223863 L42.2129134,4.36223863 C45.0292619,4.36223863 47.3206138,6.65335017 47.3206138,9.46940324 L47.3206138,15.08976 L47.3206138,15.0901796 L47.3206138,24.7778888 L33.1469655,36.5775329 C29.8752842,39.3029486 25.1251355,39.302529 21.8517756,36.5771133 L7.67980589,24.7778888 L7.67980589,15.0905993 C7.67980589,15.0901796 7.67980589,15.08976 7.67980589,15.08976 L7.67980589,9.46940324 C7.67980589,6.65335017 9.97157745,4.36223863 12.7887652,4.36223863 L15.5199225,4.36223863 C15.9710586,4.36223863 16.3370035,3.99633217 16.3370035,3.54524333 C16.3370035,3.0941546 15.9710586,2.72866773 15.5199225,2.72866773 L12.7887652,2.72866773 C9.07098387,2.72866773 6.04606361,5.75243138 6.04606361,9.46940324 L6.04606361,14.711265 L0.294602444,19.4999399 C0.109951373,19.6535199 0.00251796915,19.8809526 0.000839323049,20.1209738 C0.000839323049,20.1234915 0,20.12517 0,20.1276877 L0,49.060734 C0,52.3358485 2.66485073,55 5.9403089,55 L42.5297579,55 C42.9808939,55 43.3464192,54.6345131 43.3464192,54.1834244 C43.3464192,53.7323356 42.9808939,53.3668487 42.5297579,53.3668487 L5.9403089,53.3668487 C3.56544431,53.3668487 1.63374229,51.4349297 1.63374229,49.060734 L1.63374229,21.8699396 L6.34276422,25.7908455 C6.34318397,25.7908455 6.34318397,25.7908455 6.34318397,25.7912651 L20.8063987,37.8326089 C22.7464939,39.4477166 25.1226175,40.2550607 27.5,40.2546411 C29.8765432,40.2546411 32.2539257,39.447297 34.1923424,37.8326089 L48.6538785,25.7933632 C48.6563965,25.7912651 48.6584948,25.7895866 48.6605931,25.7874886 L53.3658381,21.8703592 L53.3658381,49.0603143 C53.3658381,51.4345101 51.4341361,53.3664291 49.0592716,53.3664291 L45.7972425,53.3664291 C45.3461064,53.3664291 44.9805812,53.7319159 44.9805812,54.1830047 C44.9805812,54.6340935 45.3461064,55 45.7972425,55 L49.0592716,55 C52.3347297,55 55,52.3354288 55,49.0603143 L55,20.133982 C55,20.1318839 55,20.1297858 55,20.1272681 Z M31.7557876,2.72866773 L23.2442125,2.72866773 C25.8893391,1.27049689 29.1110806,1.27049689 31.7557876,2.72866773 Z M6.04606361,16.8370472 L6.04606361,23.4179085 L2.09369132,20.1276877 L6.04606361,16.8370472 Z M48.9543561,23.4174889 L48.9543561,16.8370472 L52.9067284,20.1272681 L48.9543561,23.4174889 Z" id="Shape" fill="#4353FF"></path>
                                <path d="M39.175275,22.5 L14.9913916,22.5 C14.536035,22.5 14.1666667,22.8728915 14.1666667,23.3331192 C14.1666667,23.793347 14.536035,24.1666667 14.9913916,24.1666667 L39.175275,24.1666667 C39.6306317,24.1666667 40,23.793347 40,23.3331192 C40,22.8728915 39.6306317,22.5 39.175275,22.5 Z" id="Path" fill="#EDB726"></path>
                                <path d="M14.9913916,27.5 C14.536035,27.5 14.1666667,27.8733196 14.1666667,28.3335474 C14.1666667,28.7937752 14.536035,29.1666667 14.9913916,29.1666667 L39.175275,29.1666667 C39.6306317,29.1666667 40,28.7937752 40,28.3335474 C40,27.8733196 39.6306317,27.5 39.175275,27.5 L14.9913916,27.5 Z" id="Path" fill="#EDB726"></path>
                                <path d="M39.175275,13.3333333 L14.9913916,13.3333333 C14.536035,13.3333333 14.1666667,13.706653 14.1666667,14.1668807 C14.1666667,14.6266804 14.536035,15 14.9913916,15 L39.175275,15 C39.6306317,15 40,14.6266804 40,14.1668807 C40,13.706653 39.6306317,13.3333333 39.175275,13.3333333 Z" id="Path" fill="#EDB726"></path>
                                <path d="M39.1965317,17.5 L33.3034683,17.5 C32.8596202,17.5 32.5,17.8729874 32.5,18.3333333 C32.5,18.7936793 32.8596202,19.1666667 33.3034683,19.1666667 L39.1965317,19.1666667 C39.6403798,19.1666667 40,18.7936793 40,18.3333333 C40,17.8729874 39.6403798,17.5 39.1965317,17.5 Z" id="Path" fill="#EDB726"></path>
                                <path d="M14.9733789,19.1666667 L30.0270355,19.1666667 C30.4724467,19.1666667 30.8333333,18.7936793 30.8333333,18.3333333 C30.8333333,17.8729874 30.4724467,17.5 30.0270355,17.5 L14.9733789,17.5 C14.5279677,17.5 14.1666667,17.8729874 14.1666667,18.3333333 C14.1666667,18.7936793 14.5279677,19.1666667 14.9733789,19.1666667 Z" id="Path" fill="#EDB726"></path>
                            </g>
                        </g>
                    </g>
                </g>
            </g>
        </g>
    </g>
</svg>