<?xml version="1.0" encoding="UTF-8"?>
<svg width="58px" height="64px" viewBox="0 0 58 64" version="1.1" xmlns="http://www.w3.org/2000/svg" xmlns:xlink="http://www.w3.org/1999/xlink">
    <!-- Generator: sketchtool 55.2 (78181) - https://sketchapp.com -->
    <title>C971D6D8-00BA-4081-BF28-4C446C7DE823</title>
    <desc>Created with sketchtool.</desc>
    <g id="Premium-account" stroke="none" stroke-width="1" fill="none" fill-rule="evenodd">
        <g id="Oliv_plus_LP_B_active" transform="translate(-258.000000, -788.000000)" fill-rule="nonzero">
            <g id="Benefits" transform="translate(256.000000, 685.000000)">
                <g id="Group-4" transform="translate(0.000000, 103.000000)">
                    <g id="Dedicated-Shortlisting-Support">
                        <g id="approved" transform="translate(2.000000, 0.000000)">
                            <path d="M44.0279033,6.16901408 L14.0658978,6.16901408 C13.4488367,6.16901408 12.9484383,6.66941244 12.9484383,7.28647356 C12.9484383,7.90353468 13.4488367,8.40393303 14.0658978,8.40393303 L44.0279033,8.40393303 C44.6440704,8.40393303 45.1453627,8.90522535 45.1453627,9.52139251 L45.1453627,60.0305607 C45.1453627,60.6467279 44.6440704,61.1480202 44.0279033,61.1480202 L3.35237842,61.1480202 C2.73621127,61.1480202 2.23491895,60.6467279 2.23491895,60.0305607 L2.23491895,30.1198582 C2.23491895,29.5027971 1.7345206,29.0023988 1.11745947,29.0023988 C0.500398352,29.0023988 0,29.5027971 0,30.1198582 L0,60.0305607 C0,61.8790622 1.50387696,63.3829391 3.35237842,63.3829391 L44.0279033,63.3829391 C45.8764047,63.3829391 47.3802817,61.8790622 47.3802817,60.0305607 L47.3802817,9.52139251 C47.3802817,7.67289104 45.8764047,6.16901408 44.0279033,6.16901408 Z" id="Path" fill="#4353FF" transform="translate(23.690141, 34.775977) scale(-1, 1) translate(-23.690141, -34.775977) "></path>
                            <path d="M23.6901408,14.638852 C22.9298214,14.638852 22.1657026,14.6969599 21.4190162,14.8113877 C20.8089951,14.9050308 20.390283,15.4752704 20.4838144,16.0852915 C20.5773457,16.6953126 21.1479205,17.113466 21.7577182,17.0204934 C22.3927704,16.9230509 23.0429083,16.8737709 23.6901408,16.8737709 C30.6529191,16.8737709 36.3175446,22.5383965 36.3175446,29.5011747 C36.3175446,32.5931851 35.1998617,35.428515 33.3480078,37.6262226 C32.5285748,36.2171062 31.4093274,35.0016455 30.0508319,34.0588449 C29.2579944,33.5086079 28.4061551,33.0694463 27.5144224,32.7443774 C28.5322045,31.7495032 29.1656923,30.3630712 29.1656923,28.8308108 L29.1656923,27.7412878 C29.1656923,24.7219123 26.7094046,22.2656246 23.6901408,22.2656246 C20.6708771,22.2656246 18.2145894,24.7219123 18.2145894,27.7412878 L18.2145894,28.8308108 C18.2145894,30.3630712 18.8479655,31.7495032 19.8658593,32.7443774 C18.9742384,33.0694463 18.122399,33.5086079 17.3294498,34.0588449 C15.964473,35.0062271 14.8407558,36.2285043 14.020317,37.6461133 C12.609301,35.9693654 11.6230312,33.9069822 11.2371725,31.6062449 C11.1351484,30.9977882 10.5584276,30.5872336 9.95030614,30.6890341 C9.34162596,30.7910582 8.93095961,31.3672203 9.03298366,31.9759005 C9.60758132,35.4020312 11.3862416,38.5380695 14.041437,40.806177 C16.7268039,43.1002095 20.1534934,44.3636092 23.6900291,44.3636092 C31.8851416,44.3636092 38.5523518,37.696399 38.5523518,29.5012865 C38.5523518,21.3061739 31.8852534,14.638852 23.6901408,14.638852 Z M20.4495084,27.7411761 C20.4495084,25.9542466 21.9033231,24.5004318 23.6901408,24.5004318 C25.4769585,24.5004318 26.9307733,25.9542466 26.9307733,27.7411761 L26.9307733,28.830699 C26.9307733,30.6175167 25.4769585,32.0713315 23.6901408,32.0713315 C21.9033231,32.0713315 20.4495084,30.6175167 20.4495084,28.830699 L20.4495084,27.7411761 Z M23.6901408,42.1285785 C20.6647311,42.1285785 17.86773,41.0721323 15.6786269,39.2810683 C17.1791515,36.2357677 20.2466895,34.3062505 23.6901408,34.3062505 C27.1264405,34.3062505 30.1881677,36.2278338 31.6920446,39.2620715 C29.5122164,41.0523533 26.7244903,42.1285785 23.6901408,42.1285785 Z" id="Shape" fill="#22DDAB"></path>
                            <path d="M34.0106613,54.6441246 L18.1427368,54.6441246 C17.5256757,54.6441246 17.0252773,55.144523 17.0252773,55.7615841 C17.0252773,56.3786452 17.5256757,56.8790436 18.1427368,56.8790436 L34.0106613,56.8790436 C34.6278342,56.8790436 35.1281208,56.3786452 35.1281208,55.7615841 C35.1281208,55.144523 34.6277224,54.6441246 34.0106613,54.6441246 Z" id="Path" fill="#22DDAB"></path>
                            <path d="M14.159329,48.7135437 C13.9514815,48.5055845 13.663177,48.3861281 13.3692851,48.3861281 C13.0753933,48.3861281 12.7870888,48.5056963 12.5792413,48.7135437 C12.3713938,48.9213912 12.2518257,49.2096957 12.2518257,49.5035876 C12.2518257,49.7984851 12.3715056,50.0857839 12.5792413,50.2935197 C12.7870888,50.5014789 13.0753933,50.621047 13.3692851,50.621047 C13.663177,50.621047 13.9514815,50.5014789 14.159329,50.2935197 C14.3682939,50.0857839 14.4867446,49.7974794 14.4867446,49.5035876 C14.4867446,49.2096957 14.3682939,48.9213912 14.159329,48.7135437 Z" id="Path" fill="#22DDAB"></path>
                            <path d="M14.159329,54.9713168 C13.9514815,54.7633576 13.6642944,54.6439011 13.3692851,54.6439011 C13.0753933,54.6439011 12.7870888,54.7634693 12.5792413,54.9713168 C12.3713938,55.1791642 12.2518257,55.4674688 12.2518257,55.7613606 C12.2518257,56.0562582 12.3715056,56.343557 12.5792413,56.5512927 C12.7870888,56.7592519 13.0753933,56.8788201 13.3692851,56.8788201 C13.663177,56.8788201 13.9514815,56.7592519 14.159329,56.5512927 C14.3682939,56.343557 14.4867446,56.0563699 14.4867446,55.7613606 C14.4867446,55.4674688 14.3682939,55.1791642 14.159329,54.9713168 Z" id="Path" fill="#22DDAB"></path>
                            <path d="M34.0106613,48.3863516 L18.1427368,48.3863516 C17.5256757,48.3863516 17.0252773,48.8867499 17.0252773,49.5038111 C17.0252773,50.1208722 17.5256757,50.6212705 18.1427368,50.6212705 L34.0106613,50.6212705 C34.6278342,50.6212705 35.1281208,50.1208722 35.1281208,49.5038111 C35.1281208,48.8867499 34.6277224,48.3863516 34.0106613,48.3863516 Z" id="Path" fill="#22DDAB"></path>
                            <g id="quality" transform="translate(34.347437, 0.189881)" fill="#EDB726">
                                <path d="M22.5910421,10.0852984 L20.4570849,7.90220027 L20.8869384,4.8952742 C20.9527039,4.43537248 20.638143,4.00669724 20.1758127,3.92656459 L17.1533832,3.40214345 L15.7146613,0.71838846 C15.494747,0.308196537 14.9854413,0.144487138 14.5641709,0.348492469 L11.8078192,1.68204673 L9.05077149,0.348492469 C8.62915313,0.144487138 8.12031139,0.30831134 7.90028112,0.718618067 L6.46213916,3.40214345 L3.43936172,3.92656459 C2.97714737,4.00669724 2.66247045,4.43537248 2.72823595,4.8952742 L3.15797351,7.90220027 L1.02401628,10.0852984 C0.697740503,10.4191462 0.697740503,10.9488483 1.02413227,11.282696 L3.15797351,13.4655646 L2.72823595,16.4740979 C2.66258644,16.9338848 2.97714737,17.36256 3.43936172,17.4426927 L5.85853478,17.8624133 L5.85853478,27.1744473 C5.85853478,27.4728209 6.01465536,27.7499559 6.27110603,27.9067771 C6.41075624,27.9923055 6.56942857,28.0354715 6.72844886,28.0354715 C6.86137173,28.0354715 6.99464257,28.005393 7.11747444,27.9445473 L11.8079352,25.6241445 L16.4977,27.9445473 C16.7672573,28.0779487 17.0876177,28.0637131 17.3440684,27.9067771 C17.600519,27.7498411 17.7566396,27.4727061 17.7566396,27.1743325 L17.7566396,17.8625281 L20.1759287,17.4425779 C20.638143,17.3623304 20.9527039,16.93377 20.8870544,16.4738683 L20.4572009,13.465335 L22.5910421,11.2825812 C22.9172019,10.9489631 22.9172019,10.4191462 22.5910421,10.0852984 Z M12.1968448,23.8913047 C11.9521089,23.7701873 11.6638774,23.7700724 11.4189096,23.8913047 L7.59836294,25.781425 L7.59836294,20.086611 L7.90039711,20.65018 C8.12031139,21.0606015 8.62973307,21.2241961 9.05100346,21.020076 L11.8079352,19.6856033 L14.5640549,21.020076 C14.6870028,21.0795441 14.8173739,21.1077857 14.9457732,21.1077857 C15.2577824,21.1077857 15.5588887,20.9408618 15.7147773,20.6502948 L16.0168115,20.087185 L16.0168115,25.781425 L12.1968448,23.8913047 Z M18.9109576,12.5705586 C18.724332,12.7614764 18.6372246,13.0269014 18.6748049,13.2899156 L19.0463162,15.8903235 L16.4341382,16.3436814 C16.1699163,16.3894879 15.9417669,16.5535417 15.8159193,16.7880847 L14.5724061,19.1071099 L12.1901174,17.9536818 C12.0694893,17.8953618 11.9386543,17.866087 11.8078192,17.866087 C11.6769841,17.866087 11.546149,17.895247 11.4256369,17.9536818 L9.04276828,19.1071099 L7.79971905,16.7881995 C7.67398747,16.5535417 7.445838,16.3894879 7.18150011,16.3436814 L4.56874217,15.8903235 L4.94013749,13.2898008 C4.97771778,13.0269014 4.89061038,12.7613616 4.70398481,12.5705586 L2.85965097,10.6838824 L4.7041008,8.79697661 C4.89061038,8.60605885 4.97771778,8.34063379 4.94013749,8.07773441 L4.56874217,5.4789338 L7.18150011,5.02557586 C7.445838,4.97976937 7.67398747,4.81560076 7.79983504,4.58094297 L9.04288427,2.26134381 L11.4258689,3.41396819 C11.6668931,3.53060826 11.9488612,3.53060826 12.1898854,3.41396819 L14.5721741,2.26134381 L15.8159193,4.58105777 C15.9416509,4.81560076 16.1698003,4.97965457 16.4341382,5.02557586 L19.0463162,5.47881899 L18.6748049,8.0776196 C18.6372246,8.34063379 18.724332,8.60605885 18.9108416,8.79697661 L20.7552914,10.6838824 L18.9109576,12.5705586 Z" id="Shape"></path>
                                <polygon id="Path" points="11.6525634 5.81011936 13.1988245 8.826997 16.6525634 9.31250666 14.1525634 11.6606634 14.741917 14.976786 11.6525634 13.4103303 8.5600412 14.976786 9.15256338 11.6606634 6.65256338 9.31250666 10.1063023 8.826997"></polygon>
                            </g>
                        </g>
                    </g>
                </g>
            </g>
        </g>
    </g>
</svg>