<?xml version="1.0" encoding="UTF-8"?>
<svg width="61px" height="74px" viewBox="0 0 61 74" version="1.1" xmlns="http://www.w3.org/2000/svg" xmlns:xlink="http://www.w3.org/1999/xlink">
    <!-- Generator: sketchtool 54.1 (76490) - https://sketchapp.com -->
    <title>964F6FE5-9ABD-4445-BAD7-FC013279C5C3</title>
    <desc>Created with sketchtool.</desc>
    <g id="On-Boarding---Complete-Profile" stroke="none" stroke-width="1" fill="none" fill-rule="evenodd">
        <g id="onboarding_Complete-profile---Step-3" transform="translate(-1116.000000, -194.000000)" fill-rule="nonzero">
            <g id="Group-13" transform="translate(504.000000, 158.000000)">
                <g id="Group-12">
                    <g id="profiles-(3)" transform="translate(612.000000, 36.000000)">
                        <path d="M45.7627119,0.412844037 L4.23728814,0.412844037 C1.90084746,0.412844037 0,2.31316348 0,4.64895515 L0,19.0517329 C0,19.831601 0.632485876,20.46377 1.41242938,20.46377 C2.19237288,20.46377 2.82485876,19.831601 2.82485876,19.0517329 L2.82485876,4.64895515 C2.82485876,3.87035793 3.45847458,3.23691811 4.23728814,3.23691811 L45.7627119,3.23691811 C46.5415254,3.23691811 47.1751412,3.87035793 47.1751412,4.64895515 L47.1751412,57.1767329 C47.1751412,57.9553301 46.5415254,58.58877 45.7627119,58.58877 L4.23728814,58.58877 C3.45847458,58.58877 2.82485876,57.9553301 2.82485876,57.1767329 L2.82485876,30.9598649 C2.82485876,30.1799968 2.19237288,29.5478278 1.41242938,29.5478278 C0.632485876,29.5478278 0,30.1799968 0,30.9598649 L0,57.1767329 C0,59.5125246 1.90084746,61.412844 4.23728814,61.412844 L45.7627119,61.412844 C48.0991525,61.412844 50,59.5125246 50,57.1767329 L50,4.64895515 C50,2.31316348 48.0991525,0.412844037 45.7627119,0.412844037 Z" id="Path" fill="#4353FF"></path>
                        <path d="M2.56035,24.850844 C2.2815,24.571844 1.8945,24.412844 1.5,24.412844 C1.1055,24.412844 0.7185,24.571844 0.4395,24.850844 C0.16035,25.131344 0,25.518344 0,25.911344 C0,26.307344 0.1605,26.692844 0.4395,26.973344 C0.7185,27.252344 1.1055,27.412844 1.5,27.412844 C1.89435,27.412844 2.28135,27.252344 2.56035,26.973344 C2.8395,26.694344 3,26.307344 3,25.911344 C3,25.516844 2.83935,25.131344 2.56035,24.850844 Z" id="Path" fill="#EDB726"></path>
                        <path d="M8.5605,64.852344 C8.2815,64.573344 7.89615,64.412844 7.5,64.412844 C7.1055,64.412844 6.7185,64.573344 6.43965,64.852344 C6.1605,65.131344 6,65.518344 6,65.912844 C6,66.308844 6.16065,66.694344 6.43965,66.973344 C6.7185,67.253844 7.1055,67.412844 7.5,67.412844 C7.89615,67.412844 8.2815,67.253844 8.5605,66.973344 C8.83965,66.694344 9,66.308844 9,65.912844 C9,65.518344 8.8395,65.131344 8.5605,64.852344 Z" id="Path" fill="#EDB726"></path>
                        <path d="M53.5987261,6.41284404 C52.8249427,6.41284404 52.1974522,7.04501302 52.1974522,7.82488107 L52.1974522,63.1767329 C52.1974522,63.9553301 51.5688408,64.58877 50.7961783,64.58877 L12.4012739,64.58877 C11.6274904,64.58877 11,65.2209389 11,66.000807 C11,66.7806751 11.6274904,67.412844 12.4012739,67.412844 L50.7961783,67.412844 C53.1141656,67.412844 55,65.5125246 55,63.1767329 L55,7.82488107 C55,7.04501302 54.3725096,6.41284404 53.5987261,6.41284404 Z" id="Path" fill="#4353FF"></path>
                        <path d="M59.5875706,12.412844 C58.8076271,12.412844 58.1751412,13.045013 58.1751412,13.8248811 L58.1751412,69.1767329 C58.1751412,69.9553301 57.5415254,70.58877 56.7627119,70.58877 L12.4124294,70.58877 C11.6324859,70.58877 11,71.2209389 11,72.000807 C11,72.7806751 11.6324859,73.412844 12.4124294,73.412844 L56.7627119,73.412844 C59.0991525,73.412844 61,71.5125246 61,69.1767329 L61,13.8248811 C61,13.045013 60.3675141,12.412844 59.5875706,12.412844 Z" id="Path" fill="#4353FF"></path>
                        <path d="M22.6206897,11.412844 L9.37931034,11.412844 C8.61765517,11.412844 8,12.0303613 8,12.7921544 L8,26.0335337 C8,26.7953268 8.61765517,27.412844 9.37931034,27.412844 L22.6206897,27.412844 C23.3823448,27.412844 24,26.7953268 24,26.0335337 L24,12.7921544 C24,12.0303613 23.3823448,11.412844 22.6206897,11.412844 Z M21.2413793,24.6542233 L10.7586207,24.6542233 L10.7586207,14.1714647 L21.2413793,14.1714647 L21.2413793,24.6542233 Z" id="Shape" fill="#22DDAB"></path>
                        <path d="M18.5992762,33.8494801 C18.064841,33.2673732 17.198744,33.2672241 16.6641719,33.8494801 L13.0269749,37.813145 L11.3358281,35.970055 C10.8015297,35.387799 9.93543267,35.3879481 9.4007238,35.970055 C8.8664254,36.552311 8.8664254,37.4964455 9.4007238,38.0787015 L12.0594912,40.9761148 C12.3161733,41.2556871 12.6641172,41.412844 13.0269749,41.412844 C13.3899694,41.412844 13.7377765,41.2556871 13.9945954,40.9761148 L18.5992762,35.9581266 C19.1335746,35.3758706 19.1335746,34.4317361 18.5992762,33.8494801 Z" id="Path" fill="#22DDAB"></path>
                        <path d="M41.6097595,36.412844 L25.3902405,36.412844 C24.6225497,36.412844 24,37.084394 24,37.912844 C24,38.741294 24.6225497,39.412844 25.3902405,39.412844 L41.6097595,39.412844 C42.3774503,39.412844 43,38.741294 43,37.912844 C43,37.084394 42.3774503,36.412844 41.6097595,36.412844 Z" id="Path" fill="#EDB726"></path>
                        <path d="M40.5555556,11.412844 L30.4444444,11.412844 C29.6468222,11.412844 29,12.084394 29,12.912844 C29,13.741294 29.6468222,14.412844 30.4444444,14.412844 L40.5555556,14.412844 C41.3531778,14.412844 42,13.741294 42,12.912844 C42,12.084394 41.3531778,11.412844 40.5555556,11.412844 Z" id="Path" fill="#EDB726"></path>
                        <path d="M40.5555556,18.412844 L30.4444444,18.412844 C29.6468222,18.412844 29,19.084394 29,19.912844 C29,20.741294 29.6468222,21.412844 30.4444444,21.412844 L40.5555556,21.412844 C41.3531778,21.412844 42,20.741294 42,19.912844 C42,19.084394 41.3531778,18.412844 40.5555556,18.412844 Z" id="Path" fill="#EDB726"></path>
                        <path d="M40.5555556,24.412844 L30.4444444,24.412844 C29.6468222,24.412844 29,25.084394 29,25.912844 C29,26.741294 29.6468222,27.412844 30.4444444,27.412844 L40.5555556,27.412844 C41.3531778,27.412844 42,26.741294 42,25.912844 C42,25.084394 41.3531778,24.412844 40.5555556,24.412844 Z" id="Path" fill="#EDB726"></path>
                        <path d="M18.5992762,44.8494801 C18.064841,44.2673732 17.198744,44.2672241 16.6641719,44.8494801 L13.0269749,48.813145 L11.3358281,46.970055 C10.8015297,46.387799 9.93543267,46.3879481 9.4007238,46.970055 C8.8664254,47.552311 8.8664254,48.4964455 9.4007238,49.0787015 L12.0594912,51.9761148 C12.3161733,52.2556871 12.6641172,52.412844 13.0269749,52.412844 C13.3899694,52.412844 13.7377765,52.2556871 13.9945954,51.9761148 L18.5992762,46.9581266 C19.1335746,46.3758706 19.1335746,45.4317361 18.5992762,44.8494801 Z" id="Path" fill="#22DDAB"></path>
                        <path d="M41.6097595,46.412844 L25.3902405,46.412844 C24.6225497,46.412844 24,47.084394 24,47.912844 C24,48.741294 24.6225497,49.412844 25.3902405,49.412844 L41.6097595,49.412844 C42.3774503,49.412844 43,48.741294 43,47.912844 C43,47.084394 42.3774503,46.412844 41.6097595,46.412844 Z" id="Path" fill="#EDB726"></path>
                    </g>
                </g>
            </g>
        </g>
    </g>
</svg>