<?xml version="1.0" encoding="UTF-8"?>
<svg width="52px" height="51px" viewBox="0 0 52 51" version="1.1" xmlns="http://www.w3.org/2000/svg" xmlns:xlink="http://www.w3.org/1999/xlink">
    <!-- Generator: sketchtool 56 (101010) - https://sketch.com -->
    <title>5BB975B5-906C-47B4-A1C7-3F81E7EA2DFE</title>
    <desc>Created with sketchtool.</desc>
    <g id="My-Profile" stroke="none" stroke-width="1" fill="none" fill-rule="evenodd">
        <g id="Auto_approved_profile" transform="translate(-334.000000, -440.000000)" fill-rule="nonzero">
            <g id="Group-19" transform="translate(312.000000, 423.000000)">
                <g id="icons8-checked-user-male" transform="translate(22.000000, 17.000000)">
                    <path d="M4,45.2080353 L4,39.5884938 C4.00608392,36.4848513 5.60256373,33.6181053 8.19105926,32.0587873 L15.3810024,27.7436747 C17.2377782,30.0916478 19.6440666,31.7439253 22.319327,31.7439253 C24.9916953,31.7439253 26.6344499,29.3389776 28.5085784,27 L37,31.9118518 L37,45.999689 L4.76383376,45.999689 C4.55848926,46.0056868 4.36182145,45.924722 4.2172124,45.774788 C4.0726041,45.6248532 3.99451522,45.4179439 4,45.2080353 Z" id="Path" fill="#D9DDFF"></path>
                    <path d="M29.6827428,30.8875 L21.5,35 L13.3172572,30.8875 C12.6332893,30.5437504 12.1545114,29.8875 12.0301537,29.1281248 C11.9089054,28.3656248 12.157621,27.5937504 12.698577,27.0468752 L12.7452114,27 C16.6305287,28.6219606 19.5487916,29.432941 21.5,29.432941 C23.4512084,29.432941 26.3694713,28.6219606 30.2547886,27 L30.301423,27.0468752 C30.842379,27.5937504 31.0910946,28.3656248 30.9698463,29.1281248 C30.8454886,29.8875 30.3667107,30.5437504 29.6827428,30.8875 Z" id="Path" fill="#D6DFF2"></path>
                    <path d="M32.5853659,43 L5.2195122,43 C3.43997673,43 2,44.4312496 2,46.2 C2,46.6406248 2.36156651,47 2.80487805,47 L35,47 L32.5853659,43 Z" id="Path" fill="#ECEDEE"></path>
                    <path d="M13.3747414,19.4494451 C13.1694299,19.4494451 12.504115,18.9015003 12.155864,17.599478 C11.8102123,16.2974556 12.1246773,15.4155251 12.2832099,15.376386 C12.2832099,15.376386 13.5462682,15.1545988 13.5618612,14.9014998 C13.5774549,14.5362037 13.6164383,14.173516 13.6814103,13.8134374 C13.717795,13.4272665 13.6996027,13.0384865 13.6268339,12.6575345 C13.4527083,11.4546638 13.4215217,10.2335288 13.5410701,9.02283081 C13.7671734,6.76581862 15.0848088,5.42204808 17.0729566,5.42204808 C17.2236923,5.42204808 17.3718287,5.37247259 17.4939765,5.28375732 C18.8401992,4.44357435 20.3917347,4 21.9770549,4 L22.6813532,4 C26.9539221,4 29.9998167,6.19178079 31.2992598,10.058708 C30.8132679,10.0039136 30.9717998,10.3457272 30.6339449,10.6797129 C30.2934906,11.0136985 29.4488528,11.1467711 29.768516,12.0156555 C30.1531505,12.9288978 30.3792537,13.9047618 30.4338308,14.8936726 C30.4338308,15.14938 31.6968892,14.7005868 31.7098834,14.7005868 C31.884009,14.7606 32.1906772,16.2844095 31.8372287,17.5942591 C31.4837802,18.9015003 30.8262621,19.444227 30.6183512,19.444227 C30.3142817,19.454664 30.0465963,19.6581862 29.9530364,19.9504236 C28.7705437,23.9582513 25.670072,28 22.0238345,28 C18.3775978,28 15.2303465,23.9530332 14.0452544,19.9504236 C13.9568919,19.6555771 13.684009,19.4520542 13.3747414,19.4494451 Z" id="Path" fill="#ECEDEE"></path>
                    <path d="M12.1923915,12 C14.5264934,11.8281259 16.5402286,10.1622694 17.3091093,7.76925321 C19.6523648,8.61540256 20.43345,11.1538506 31.3686422,10.3077013 C32.4548388,10.2217647 32.6195985,10.6382284 32.9308126,10.3077013 C33.2420266,9.97717419 32.3694076,8.61540256 32.9308126,8.67489702 C31.4540734,3.77648592 27.8293501,1 22.8224724,1 L21.9956203,1 C20.1344412,0.993448214 18.3068238,1.54873373 16.7232955,2.60642043 C16.5798929,2.72210428 16.4090305,2.78490464 16.2320663,2.78490464 C13.8888108,2.78490464 12.3266405,4.47720336 12.0825514,7.34617853 C11.9452507,8.87982424 11.9788131,10.423386 12.1862889,11.9504207 L12.1923915,12 Z" id="Path" fill="#D9DDFF"></path>
                    <path d="M41.5,31 C36.2521161,31 32,35.2521161 32,40.5 C32,45.7478839 36.2521161,50 41.5,50 C46.7478839,50 51,45.7478839 51,40.5 C51,35.2521161 46.7478839,31 41.5,31 Z" id="Path" fill="#FFFFFF"></path>
                    <path d="M26.125,41.6871738 C25.6774904,41.6871738 25.3125,42.05922 25.3125,42.5153804 L25.3125,44.1717935 C25.3125,44.6279539 25.6774904,45 26.125,45 C26.5725096,45 26.9375,44.6279539 26.9375,44.1717935 L26.9375,42.5153804 C26.9375,42.05922 26.5725096,41.6871738 26.125,41.6871738 Z M30.1875,41.6871738 C29.7399904,41.6871738 29.375,42.05922 29.375,42.5153804 L29.375,44.1717935 C29.375,44.6279539 29.7399904,45 30.1875,45 C30.6350096,45 31,44.6279539 31,44.1717935 L31,42.5153804 C31,42.05922 30.6350096,41.6871738 30.1875,41.6871738 Z M22.0625,41.6871738 C21.6149904,41.6871738 21.25,42.05922 21.25,42.5153804 L21.25,44.1717935 C21.25,44.6279539 21.6149904,45 22.0625,45 C22.5100096,45 22.875,44.6279539 22.875,44.1717935 L22.875,42.5153804 C22.875,42.05922 22.5100096,41.6871738 22.0625,41.6871738 Z M18,41.6871738 C17.5524904,41.6871738 17.1875,42.05922 17.1875,42.5153804 L17.1875,44.1717935 C17.1875,44.6279539 17.5524904,45 18,45 C18.4475096,45 18.8125,44.6279539 18.8125,44.1717935 L18.8125,42.5153804 C18.8125,42.05922 18.4475096,41.6871738 18,41.6871738 Z M13.9375,41.6871738 C13.4899904,41.6871738 13.125,42.05922 13.125,42.5153804 L13.125,44.1717935 C13.125,44.6279539 13.4899904,45 13.9375,45 C14.3850096,45 14.75,44.6279539 14.75,44.1717935 L14.75,42.5153804 C14.75,42.05922 14.3850096,41.6871738 13.9375,41.6871738 Z M9.875,41.6871738 C9.42749044,41.6871738 9.0625,42.05922 9.0625,42.5153804 L9.0625,44.1717935 C9.0625,44.6279539 9.42749044,45 9.875,45 C10.3225096,45 10.6875,44.6279539 10.6875,44.1717935 L10.6875,42.5153804 C10.6875,42.05922 10.3225096,41.6871738 9.875,41.6871738 Z M5.8125,41.6871738 C5.36499044,41.6871738 5,42.05922 5,42.5153804 L5,44.1717935 C5,44.6279539 5.36499044,45 5.8125,45 C6.26000956,45 6.625,44.6279539 6.625,44.1717935 L6.625,42.5153804 C6.625,42.05922 6.26000956,41.6871738 5.8125,41.6871738 Z M18.7490234,9.28682799 C21.0754393,10.4385527 23.6271971,11.0402969 26.2138672,11.0435319 L28.2863768,11.0435319 C28.7338871,11.0435319 29.0988768,10.6714858 29.0988768,10.2153254 C29.0988768,9.75916494 28.7338871,9.38711883 28.2863768,9.38711883 L26.2138672,9.38711883 C23.8715816,9.38388385 21.5610348,8.84037331 19.4536129,7.79540939 L18.1872561,7.1677837 C17.4509279,6.80220837 16.5654297,7.05131799 16.1147465,7.74688145 L14.8134766,9.75916494 C14.5786129,10.140916 14.6833498,10.6456043 15.0546875,10.8947131 C15.4228516,11.1438227 15.9211424,11.0435319 16.171875,10.6714858 L17.4731441,8.65920313 L18.7490234,9.28682799 Z M28.1975096,31.8392805 L22.0625,34.9612307 L15.9274904,31.8328097 C15.5307621,31.6451696 15.0578611,31.813399 14.8610842,32.2145616 C14.6674809,32.6157241 14.8166502,33.101001 15.2038576,33.3145234 L21.7038576,36.6273495 C21.9323733,36.7405811 22.1989748,36.7405811 22.4274904,36.6273495 L28.9274904,33.3145234 C29.1972656,33.1883511 29.3781736,32.9230666 29.4003906,32.6221949 C29.419434,32.3213223 29.2797847,32.0301564 29.0322266,31.8651619 C28.7814939,31.7034024 28.4672847,31.6872267 28.2038576,31.8328097 L28.1975096,31.8392805 Z" id="Shape" fill="#4353FF"></path>
                    <path d="M41.4227924,29.6126665 C40.0299762,29.6094535 38.6466783,29.8890003 37.3617343,30.4352405 C37.2221355,30.3452715 37.1015732,30.2456627 36.9651468,30.1653334 L29.4743977,25.7697032 C30.4103449,24.3430513 31.1495842,22.794299 31.676253,21.1652166 C32.6661359,20.7860609 33.586219,19.5200684 34.0145339,17.8749203 C34.6173476,15.6128416 34.0145339,13.630309 32.7168992,13.2607939 C32.6026819,13.2318755 32.4852921,13.212596 32.3679016,13.209383 C32.2251302,12.2422152 31.9744874,11.2911139 31.6191448,10.3817846 L31.6191448,10.2918156 C32.0030415,10.3367997 32.3805932,10.4364085 32.7391083,10.5874282 C33.0214785,10.7031026 33.3419212,10.6549047 33.573529,10.458901 C33.805136,10.2596834 33.909835,9.94800514 33.8463809,9.64917961 C32.4884646,3.62767996 28.0688915,0 21.9297136,0 L21.117502,0 C19.0298648,0.00963974551 16.9802991,0.575159417 15.1813771,1.64514814 C12.1831742,1.76082261 10.0891912,3.91686657 9.74653939,7.31962435 C9.59742221,8.85552395 9.63232214,10.4010633 9.85123834,11.927324 C9.89565657,12.2004441 9.92103819,12.4735642 9.92421068,12.7498981 C9.92421068,12.9041307 9.90200157,13.0583633 9.85123834,13.209383 C9.73067609,13.212596 9.61011302,13.2286617 9.49589576,13.2607939 C8.69637495,13.5403407 8.13163447,14.266519 8.04914382,15.1180115 C7.89368164,16.0337684 7.94127237,16.9720161 8.1950885,17.8652805 C8.63292092,19.5104287 9.54348649,20.7442898 10.5333694,21.1555768 C11.0632108,22.7846593 11.8056225,24.3366254 12.7447422,25.7632765 L5.2698572,30.1653334 C2.00831993,32.0739627 0,35.6020339 0,39.4192917 L0,45.2415738 C0,46.6039621 1.09140936,47.709296 2.43663485,47.709296 L33.8209993,47.709296 C37.1491631,51.2245152 42.403157,52.0149571 46.597469,49.6372039 C50.7917801,47.2594508 52.8730724,42.3111536 51.654755,37.5974184 C50.4364375,32.886897 46.2294356,29.6062405 41.4227924,29.6126665 Z M11.183773,19.6421689 C10.9489935,19.6421689 10.1780268,19.0027458 9.778266,17.4893387 C9.59424972,16.8402759 9.5530048,16.1622956 9.65770375,15.4971671 C9.74653939,15.0376822 9.90834738,14.905942 9.92421068,14.8963023 C10.0067005,14.909155 10.0796729,14.9445002 10.1431269,14.9959111 C10.3874247,15.1437169 10.6888316,15.1501437 10.9394752,15.0151897 C11.1901188,14.8802366 11.3550993,14.6231822 11.3709626,14.3372094 C11.3899992,13.9130688 11.4375892,13.4889299 11.5105615,13.0712161 C11.5518064,12.6213709 11.5295973,12.1650989 11.443935,11.7216805 C11.2503996,10.317521 11.2250179,8.89408211 11.3709626,7.48670888 C11.6216063,4.86154106 13.150848,3.29029627 15.4320207,3.29029627 C15.6065195,3.29029627 15.777845,3.23245944 15.9206164,3.12642389 C17.4815864,2.14961718 19.2836809,1.63550839 21.117502,1.64501502 L21.9297136,1.64501502 C26.8600916,1.64501502 30.4166907,4.19641261 31.8793059,8.70129132 C31.3336013,8.59525658 30.7656875,8.73984947 30.3373725,9.09651266 C29.8678135,9.61383442 29.7726321,10.3721449 30.0994205,10.9890754 C30.5340804,12.0558512 30.7815516,13.1868905 30.8323148,14.3372094 C30.8450048,14.6296081 31.0131586,14.8930893 31.2733197,15.0280424 C31.5303083,15.1629964 31.838061,15.1469299 32.0823588,14.9862713 C32.1458129,14.9380734 32.2219577,14.902729 32.301275,14.8898755 C32.497983,14.9541399 32.8533255,15.9566521 32.4472197,17.4796989 C32.0411139,19.0027458 31.2796655,19.6357429 31.0417127,19.6357429 C30.6705068,19.6196764 30.3342,19.8638789 30.2295011,20.226968 C28.9064847,24.8925053 25.3245048,29.6126665 21.117502,29.6126665 C16.9104993,29.6126665 13.3285193,24.8925053 11.964258,20.2366069 C11.8627316,19.8831576 11.5454614,19.6421689 11.183773,19.6421689 Z M2.43663485,46.0641478 C1.98928412,46.0641478 1.62442323,45.6946319 1.62442323,45.2415738 L1.62442323,39.4192917 C1.62442323,36.190046 3.3249913,33.2050021 6.08206881,31.5855594 L13.7346251,27.1031731 C15.708046,29.5387631 18.2747614,31.2578146 21.117502,31.2578146 C23.9602427,31.2578146 26.5269581,29.5387631 28.5003789,27.0967463 L35.7373111,31.3220782 C33.3799936,32.8451259 31.7143254,35.2550105 31.114685,38.0215582 C30.5150438,40.7881067 31.0258494,43.6799679 32.5360554,46.0641478 L2.43663485,46.0641478 Z M41.4227924,49.3544441 C36.4892412,49.3544441 32.4884646,45.3026244 32.4884646,40.3061293 C32.4884646,35.3096343 36.4892412,31.2578146 41.4227924,31.2578146 C46.3563437,31.2578146 50.3571202,35.3096343 50.3571202,40.3061293 C50.3571202,45.3026244 46.3563437,49.3544441 41.4227924,49.3544441 Z" id="Shape" fill="#4353FF"></path>
                    <path d="M45.6839163,36.1840977 L39.9117297,42.0595817 L37.3071312,39.4126273 C36.9916093,39.1391303 36.5245136,39.1579918 36.2306454,39.4534946 C35.9398711,39.7521416 35.9213114,40.2268331 36.1904321,40.5474859 L39.3580202,43.7665844 C39.667355,44.0778052 40.1653838,44.0778052 40.4747194,43.7665844 L46.8098957,37.3283874 C47.0790163,37.0077346 47.0604567,36.5330431 46.7665884,36.2343961 C46.4758133,35.9388933 46.0056245,35.9200318 45.6931965,36.1935288 L45.6839163,36.1840977 Z" id="Path" fill="#4353FF"></path>
                </g>
            </g>
        </g>
    </g>
</svg>