<svg width="32" height="24" viewBox="0 0 32 24" fill="none" xmlns="http://www.w3.org/2000/svg">
    <path d="M0 15.4704C0 9.19861 3.53639 3.59582 8.8841 0L13.628 3.67944C10.8679 5.10104 7.67655 8.61324 6.90027 11.6237C7.15903 11.4564 7.93531 11.3728 8.62534 11.3728C11.903 11.3728 14.4906 13.7979 14.4906 17.3937C14.4906 20.9895 11.3854 24 7.67655 24C3.62264 24 0 20.9059 0 15.4704ZM17.5957 15.4704C17.5957 9.19861 21.0458 3.59582 26.3935 0L31.2237 3.67944C28.4636 5.10104 25.186 8.61324 24.496 11.6237C24.7547 11.4564 25.531 11.3728 26.221 11.3728C29.4124 11.3728 32 13.7979 32 17.3937C32 20.9895 28.9811 24 25.186 24C21.1321 24 17.5957 20.9059 17.5957 15.4704Z" fill="#4353ff"/>
    </svg> 