<?xml version="1.0" encoding="UTF-8"?>
<svg width="108px" height="52px" viewBox="0 0 108 52" version="1.1" xmlns="http://www.w3.org/2000/svg" xmlns:xlink="http://www.w3.org/1999/xlink">
    <!-- Generator: Sketch 48.1 (47250) - http://www.bohemiancoding.com/sketch -->
    <title>stars</title>
    <desc>Created with Sketch.</desc>
    <defs></defs>
    <g id="My-profile-(as-logged-in-candidate)" stroke="none" stroke-width="1" fill="none" fill-rule="evenodd" transform="translate(-1145.000000, -675.000000)">
        <g id="Group-19" transform="translate(1032.000000, 647.000000)" fill-rule="nonzero">
            <g id="stars" transform="translate(114.000000, 28.000000)">
                <g id="favorites" transform="translate(34.000000, 0.000000)" fill="#4353FF">
                    <g id="Group" transform="translate(2.265625, 0.000000)">
                        <path d="M37.0049219,23.6496875 C37.5589063,23.8301563 37.8628125,24.4252344 37.6823438,24.9792188 C37.5378125,25.4255469 37.1241406,25.7083594 36.6789063,25.7083594 C36.57125,25.7083594 36.4615625,25.6914844 36.3528906,25.6566406 L34.5411719,25.0678906 C33.9861719,24.8874219 33.6832813,24.2923438 33.86375,23.7383594 C34.043125,23.184375 34.6392969,22.8804688 35.1932813,23.0609375 L37.0049219,23.6496875 Z" id="Shape"></path>
                        <path d="M35.2934375,12.8205469 C35.6057812,13.7817969 35.3503906,14.8179688 34.6255469,15.5249219 L28.2924219,21.6976563 C28.1678906,21.8189844 28.1119531,21.9941406 28.1404688,22.1650781 L29.635625,30.8817969 C29.8065625,31.8789063 29.4045313,32.8676563 28.5867969,33.4617188 C28.1246094,33.7972656 27.5833594,33.9682031 27.0388281,33.9682031 C26.6189062,33.9682031 26.1978906,33.866875 25.8085156,33.6621875 L17.9802344,29.5470313 C17.8261719,29.4657813 17.6425781,29.4657813 17.4896094,29.5470313 L9.66132813,33.6621875 C8.76546875,34.1328125 7.70085938,34.0567969 6.88304687,33.4617188 C6.06421875,32.8676563 5.6621875,31.8789844 5.833125,30.8817969 L7.32828125,22.1650781 C7.3578125,21.9941406 7.30085938,21.8189844 7.17632813,21.6976563 L0.843203125,15.5249219 C0.119375,14.8179688 -0.13703125,13.7817969 0.176328125,12.8205469 C0.488671875,11.8582031 1.30429688,11.1702344 2.305625,11.0246875 L11.0582813,9.75320313 C11.2292187,9.72789063 11.3779688,9.62023438 11.455,9.4640625 L15.3685938,1.5334375 C15.8171875,0.626953125 16.7235156,0.063515625 17.734375,0.063515625 C18.74625,0.063515625 19.6526562,0.626953125 20.1000781,1.53335938 L24.0147656,9.46398438 C24.0917969,9.62015625 24.2395313,9.7278125 24.4114844,9.753125 L33.1641406,11.0246094 C34.1644531,11.1702344 34.9811719,11.8582031 35.2934375,12.8205469 Z M33.1525,14.0128906 C33.3646094,13.8071094 33.3171094,13.5665625 33.2864844,13.4726563 C33.2558594,13.37875 33.1535156,13.1560938 32.8601563,13.1139063 L24.1085938,11.8414063 C23.2485938,11.716875 22.5057812,11.1777344 22.1217187,10.3989844 L18.2082031,2.4671875 C18.1428125,2.3353125 18.0489063,2.26140625 17.9592188,2.22132813 C17.8695312,2.18125 17.7840625,2.17382813 17.7344531,2.17382813 C17.6363281,2.17382813 17.3925781,2.20234375 17.2617188,2.4671875 L13.3470313,10.3989063 C12.9629687,11.1776563 12.2200781,11.7167969 11.3611719,11.8413281 L2.60851563,13.1138281 C2.31625,13.1560156 2.21390625,13.3786719 2.18328125,13.4725781 C2.15265625,13.5664844 2.10414063,13.8070313 2.31625,14.0128125 L8.649375,20.1866406 C9.27195312,20.7933594 9.5546875,21.6660156 9.40804688,22.5217188 L7.91289063,31.2384375 C7.86328125,31.5296875 8.04375,31.6964063 8.12289063,31.7544531 C8.20304688,31.8125 8.41726562,31.9328125 8.67898437,31.7945313 L16.5072656,27.679375 C16.8913281,27.4767969 17.3134375,27.3754688 17.7344531,27.3754688 C18.1564844,27.3754688 18.5775,27.4767969 18.9626563,27.679375 L26.7909375,31.7945313 C27.0526563,31.9327344 27.2667969,31.8125 27.3459375,31.7544531 C27.4260937,31.6964063 27.6065625,31.5296875 27.5559375,31.2384375 L26.0607812,22.5217188 C25.9141406,21.6660156 26.1979688,20.7933594 26.8194531,20.1866406 L33.1525,14.0128906 Z" id="Shape"></path>
                    </g>
                    <path d="M38.1308393,15.29875 C38.1614643,15.3926563 38.2088862,15.6332031 37.9968549,15.8389844 L31.6637299,22.0128125 C31.0422456,22.6195313 30.7584174,23.4921875 30.9050581,24.3478906 L32.4002143,33.0646094 C32.4508393,33.3558594 32.2704487,33.5225781 32.1902143,33.580625 C32.1110737,33.6386719 31.8968549,33.7589844 31.6352143,33.6207031 L23.8069331,29.5055469 C23.4217768,29.3029688 23.0007612,29.2016406 22.5787299,29.2016406 C22.1577143,29.2016406 21.7356831,29.3029688 21.3515424,29.5055469 L13.5231831,33.6207813 C13.2614643,33.7589844 13.0473237,33.63875 12.9670893,33.5807031 C12.8879487,33.5226562 12.7074799,33.3559375 12.7570893,33.0646875 L14.2522456,24.3479687 C14.3988862,23.4922656 14.1161518,22.6196094 13.4935737,22.0128906 L7.16044868,15.8390625 C6.94833931,15.6332813 6.99693306,15.3927344 7.02747993,15.2988281 C7.05810493,15.2049219 7.16044868,14.9822656 7.45271431,14.9400781 L16.2053706,13.6675781 C17.0642768,13.5430469 17.8070893,13.0039062 18.1912299,12.2251562 L22.1059956,4.29335937 C22.2368549,4.02851562 22.4806049,4 22.5787299,4 C22.6283393,4 22.7138081,4.00742188 22.8034956,4.0475 C22.8931831,4.08757813 22.9870893,4.16148438 23.0524799,4.29335937 L26.9660737,12.2250781 C27.3501362,13.0038281 28.0930268,13.5429688 28.9529487,13.6675 L37.7045112,14.94 C37.9978706,14.9822656 38.1002143,15.2048438 38.1308393,15.29875 Z" id="Shape" opacity="0.200000003"></path>
                    <g id="Group" transform="translate(0.000000, 1.250000)">
                        <path d="M32.3264844,0.283359375 C32.798125,0.625234375 32.9025781,1.28578125 32.5607031,1.75640625 L31.4400781,3.29804687 C31.2342969,3.58296875 30.9125,3.73382813 30.5853906,3.73382813 C30.3711719,3.73382813 30.1538281,3.6684375 29.9660156,3.53226562 C29.4953906,3.18929688 29.3909375,2.52984375 29.7328125,2.05820313 L30.8534375,0.5165625 C31.1953906,0.044921875 31.8559375,-0.05953125 32.3264844,0.283359375 Z" id="Shape"></path>
                        <path d="M21.0551562,35.2569531 L21.0551562,37.1625781 C21.0551562,37.7460938 20.5835156,38.2177344 20,38.2177344 C19.4175781,38.2177344 18.9448438,37.7460938 18.9448438,37.1625781 L18.9448438,35.2569531 C18.9448438,34.6745313 19.4175781,34.2017969 20,34.2017969 C20.5835156,34.2017969 21.0551562,34.6745313 21.0551562,35.2569531 Z" id="Shape"></path>
                        <path d="M10.2628906,2.051875 C10.6047656,2.52351563 10.5003125,3.18304688 10.0296875,3.5259375 C9.841875,3.66203125 9.62453125,3.7275 9.4103125,3.7275 C9.08320312,3.7275 8.76140625,3.57664063 8.555625,3.29273438 L7.43507812,1.75109375 C7.09320312,1.27945313 7.19765625,0.61890625 7.66828125,0.27703125 C8.13992188,-0.0659375 8.80046875,0.03859375 9.14234375,0.510234375 L10.2628906,2.051875 Z" id="Shape"></path>
                        <path d="M3.87070313,22.48625 C4.05117188,23.04125 3.74828125,23.6364063 3.19328125,23.8167969 L1.3815625,24.4055469 C1.27289063,24.4403906 1.163125,24.4572656 1.05554688,24.4572656 C0.610234375,24.4572656 0.196640625,24.1734375 0.052109375,23.728125 C-0.128359375,23.173125 0.175546875,22.5779688 0.72953125,22.3975781 L2.54125,21.8088281 C3.09617188,21.6294531 3.69132813,21.9322656 3.87070313,22.48625 Z" id="Shape"></path>
                    </g>
                </g>
                <g id="favorites" transform="translate(0.000000, 21.000000)" fill="#4353FF">
                    <g id="Group" transform="translate(1.768293, 0.000000)" stroke="#4353FF">
                        <path d="M28.8818902,18.4582927 C29.3142683,18.5991463 29.5514634,19.0635976 29.4106098,19.4959756 C29.2978049,19.8443293 28.974939,20.065061 28.627439,20.065061 C28.5434146,20.065061 28.4578049,20.0518902 28.3729878,20.0246951 L26.9589634,19.5651829 C26.5257927,19.4243293 26.2893902,18.959878 26.4302439,18.5275 C26.5702439,18.095122 27.0355488,17.8579268 27.4679268,17.9987805 L28.8818902,18.4582927 Z" id="Shape" stroke-width="0.300000012"></path>
                        <path d="M27.5460976,10.0062805 C27.789878,10.7565244 27.5905488,11.5652439 27.0248171,12.1170122 L22.0818902,16.9347561 C21.9846951,17.0294512 21.9410366,17.1661585 21.9632927,17.2995732 L23.1302439,24.1028659 C23.2636585,24.8810976 22.949878,25.6528049 22.3116463,26.1164634 C21.9509146,26.3783537 21.5284756,26.5117683 21.1034756,26.5117683 C20.7757317,26.5117683 20.4471341,26.4326829 20.1432317,26.2729268 L14.0333537,23.0610976 C13.9131098,22.9976829 13.7698171,22.9976829 13.6504268,23.0610976 L7.54054878,26.2729268 C6.84134146,26.6402439 6.01042683,26.5809146 5.37213415,26.1164634 C4.73304878,25.6528049 4.41926829,24.8811585 4.55268293,24.1028659 L5.71963415,17.2995732 C5.74268293,17.1661585 5.69823171,17.0294512 5.60103659,16.9347561 L0.658109756,12.1170122 C0.0931707317,11.5652439 -0.10695122,10.7565244 0.137621951,10.0062805 C0.381402439,9.25518293 1.0179878,8.71823171 1.7995122,8.60463415 L8.63085366,7.6122561 C8.76426829,7.5925 8.88036585,7.50847561 8.9404878,7.38658537 L11.995,1.19682927 C12.345122,0.489329268 13.0525,0.0495731707 13.8414634,0.0495731707 C14.6312195,0.0495731707 15.3386585,0.489329268 15.6878659,1.19676829 L18.7432317,7.38652439 C18.8033537,7.50841463 18.9186585,7.59243902 19.0528659,7.61219512 L25.8842073,8.60457317 C26.664939,8.71823171 27.302378,9.25518293 27.5460976,10.0062805 Z M25.875122,10.9368902 C26.0406707,10.7762805 26.0035976,10.5885366 25.9796951,10.5152439 C25.9557927,10.4419512 25.8759146,10.2681707 25.6469512,10.2352439 L18.8164634,9.24207317 C18.1452439,9.14487805 17.5654878,8.72408537 17.2657317,8.11628049 L14.2112805,1.92560976 C14.1602439,1.82268293 14.0869512,1.765 14.0169512,1.73371951 C13.9469512,1.70243902 13.8802439,1.69664634 13.8415244,1.69664634 C13.764939,1.69664634 13.5746951,1.71890244 13.472561,1.92560976 L10.4171951,8.11621951 C10.117439,8.72402439 9.53762195,9.14481707 8.8672561,9.2420122 L2.03591463,10.2351829 C1.80780488,10.2681098 1.72792683,10.4418902 1.70402439,10.5151829 C1.68012195,10.5884756 1.6422561,10.7762195 1.80780488,10.9368293 L6.75073171,15.7554268 C7.23664634,16.2289634 7.45731707,16.910061 7.34286585,17.5779268 L6.17591463,24.3812195 C6.13719512,24.6085366 6.27804878,24.7386585 6.33981707,24.7839634 C6.40237805,24.8292683 6.56957317,24.9231707 6.77384146,24.8152439 L12.8837195,21.6034146 C13.1834756,21.4453049 13.5129268,21.3662195 13.8415244,21.3662195 C14.1709146,21.3662195 14.4995122,21.4453049 14.800122,21.6034146 L20.91,24.8152439 C21.1142683,24.9231098 21.2814024,24.8292683 21.3431707,24.7839634 C21.4057317,24.7386585 21.5465854,24.6085366 21.5070732,24.3812195 L20.340122,17.5779268 C20.2256707,16.910061 20.4471951,16.2289634 20.9322561,15.7554268 L25.875122,10.9368902 Z" id="Shape" stroke-width="0.400000006"></path>
                    </g>
                    <path d="M29.7606551,11.9404878 C29.7845575,12.0137805 29.8215697,12.2015244 29.6560819,12.3621341 L24.7131551,17.1807317 C24.2280941,17.6542683 24.0065697,18.3353659 24.1210209,19.0032317 L25.2879721,25.8065244 C25.3274843,26.0338415 25.1866917,26.1639634 25.1240697,26.2092683 C25.0623014,26.2545732 24.8951063,26.3484756 24.690899,26.2405488 L18.5810209,23.0287195 C18.2804112,22.8706098 17.9518136,22.7915244 17.6224234,22.7915244 C17.2938258,22.7915244 16.9644356,22.8706098 16.6646185,23.0287195 L10.5546795,26.2406098 C10.3504112,26.3484756 10.183277,26.2546341 10.1206551,26.2093293 C10.0588868,26.1640244 9.91803312,26.0339024 9.95675263,25.8065854 L11.1237039,19.0032927 C11.2381551,18.3354268 11.0174843,17.6543293 10.5315697,17.1807927 L5.58864287,12.3621951 C5.42309409,12.2015854 5.46102092,12.0138415 5.48486239,11.9405488 C5.50876483,11.8672561 5.58864287,11.6934756 5.81675263,11.6605488 L12.6480941,10.667378 C13.3184599,10.5701829 13.898216,10.1493902 14.1980331,9.54158537 L17.2534599,3.35091463 C17.3555941,3.14420732 17.545838,3.12195122 17.6224234,3.12195122 C17.6611429,3.12195122 17.7278502,3.1277439 17.7978502,3.15902439 C17.8678502,3.19030488 17.9411429,3.2479878 17.9921795,3.35091463 L21.0466917,9.54152439 C21.3464478,10.1493293 21.9262648,10.570122 22.5974234,10.6673171 L29.4279112,11.6604878 C29.6568746,11.6934756 29.7367526,11.8671951 29.7606551,11.9404878 Z" id="Shape" fill-opacity="0.2"></path>
                    <g id="Group" transform="translate(0.000000, 0.975610)" stroke="#4353FF" stroke-width="0.300000012">
                        <path d="M25.2304268,0.221158537 C25.5985366,0.487987805 25.680061,1.00353659 25.4132317,1.37085366 L24.5385976,2.57408537 C24.3779878,2.79646341 24.1268293,2.91420732 23.8715244,2.91420732 C23.7043293,2.91420732 23.5346951,2.86317073 23.3881098,2.75689024 C23.0207927,2.48920732 22.9392683,1.9745122 23.2060976,1.60640244 L24.0807317,0.403170732 C24.347622,0.0350609756 24.8631707,-0.0464634146 25.2304268,0.221158537 Z" id="Shape"></path>
                        <path d="M16.4332927,27.517622 L16.4332927,29.004939 C16.4332927,29.4603659 16.0651829,29.8284756 15.6097561,29.8284756 C15.1551829,29.8284756 14.7862195,29.4603659 14.7862195,29.004939 L14.7862195,27.517622 C14.7862195,27.0630488 15.1551829,26.6940854 15.6097561,26.6940854 C16.0651829,26.6940854 16.4332927,27.0630488 16.4332927,27.517622 Z" id="Shape"></path>
                        <path d="M8.01006098,1.60146341 C8.27689024,1.96957317 8.19536585,2.48432927 7.82804878,2.75195122 C7.68146341,2.85817073 7.51182927,2.90926829 7.34463415,2.90926829 C7.08932927,2.90926829 6.83817073,2.79152439 6.67756098,2.56993902 L5.8029878,1.36670732 C5.53615854,0.998597561 5.61768293,0.48304878 5.985,0.216219512 C6.35310976,-0.0514634146 6.86865854,0.0301219512 7.1354878,0.398231707 L8.01006098,1.60146341 Z" id="Shape"></path>
                        <path d="M3.02103659,17.5502439 C3.16189024,17.9834146 2.9254878,18.4479268 2.49231707,18.5887195 L1.07829268,19.0482317 C0.99347561,19.0754268 0.907804878,19.0885976 0.823841463,19.0885976 C0.476280488,19.0885976 0.15347561,18.8670732 0.0406707317,18.5195122 C-0.100182927,18.0863415 0.137012195,17.6218293 0.569390244,17.4810366 L1.98341463,17.0215244 C2.41652439,16.8815244 2.88103659,17.1178659 3.02103659,17.5502439 Z" id="Shape"></path>
                    </g>
                </g>
                <g id="favorites" transform="translate(77.000000, 21.000000)">
                    <g id="Group" transform="translate(1.768293, 0.000000)">
                        <path d="M28.8818902,18.4582927 C29.3142683,18.5991463 29.5514634,19.0635976 29.4106098,19.4959756 C29.2978049,19.8443293 28.974939,20.065061 28.627439,20.065061 C28.5434146,20.065061 28.4578049,20.0518902 28.3729878,20.0246951 L26.9589634,19.5651829 C26.5257927,19.4243293 26.2893902,18.959878 26.4302439,18.5275 C26.5702439,18.095122 27.0355488,17.8579268 27.4679268,17.9987805 L28.8818902,18.4582927 Z" id="Shape" fill="#4353FF" opacity="0"></path>
                        <path d="M27.5460976,10.0062805 C27.789878,10.7565244 27.5905488,11.5652439 27.0248171,12.1170122 L22.0818902,16.9347561 C21.9846951,17.0294512 21.9410366,17.1661585 21.9632927,17.2995732 L23.1302439,24.1028659 C23.2636585,24.8810976 22.949878,25.6528049 22.3116463,26.1164634 C21.9509146,26.3783537 21.5284756,26.5117683 21.1034756,26.5117683 C20.7757317,26.5117683 20.4471341,26.4326829 20.1432317,26.2729268 L14.0333537,23.0610976 C13.9131098,22.9976829 13.7698171,22.9976829 13.6504268,23.0610976 L7.54054878,26.2729268 C6.84134146,26.6402439 6.01042683,26.5809146 5.37213415,26.1164634 C4.73304878,25.6528049 4.41926829,24.8811585 4.55268293,24.1028659 L5.71963415,17.2995732 C5.74268293,17.1661585 5.69823171,17.0294512 5.60103659,16.9347561 L0.658109756,12.1170122 C0.0931707317,11.5652439 -0.10695122,10.7565244 0.137621951,10.0062805 C0.381402439,9.25518293 1.0179878,8.71823171 1.7995122,8.60463415 L8.63085366,7.6122561 C8.76426829,7.5925 8.88036585,7.50847561 8.9404878,7.38658537 L11.995,1.19682927 C12.345122,0.489329268 13.0525,0.0495731707 13.8414634,0.0495731707 C14.6312195,0.0495731707 15.3386585,0.489329268 15.6878659,1.19676829 L18.7432317,7.38652439 C18.8033537,7.50841463 18.9186585,7.59243902 19.0528659,7.61219512 L25.8842073,8.60457317 C26.664939,8.71823171 27.302378,9.25518293 27.5460976,10.0062805 Z M25.875122,10.9368902 C26.0406707,10.7762805 26.0035976,10.5885366 25.9796951,10.5152439 C25.9557927,10.4419512 25.8759146,10.2681707 25.6469512,10.2352439 L18.8164634,9.24207317 C18.1452439,9.14487805 17.5654878,8.72408537 17.2657317,8.11628049 L14.2112805,1.92560976 C14.1602439,1.82268293 14.0869512,1.765 14.0169512,1.73371951 C13.9469512,1.70243902 13.8802439,1.69664634 13.8415244,1.69664634 C13.764939,1.69664634 13.5746951,1.71890244 13.472561,1.92560976 L10.4171951,8.11621951 C10.117439,8.72402439 9.53762195,9.14481707 8.8672561,9.2420122 L2.03591463,10.2351829 C1.80780488,10.2681098 1.72792683,10.4418902 1.70402439,10.5151829 C1.68012195,10.5884756 1.6422561,10.7762195 1.80780488,10.9368293 L6.75073171,15.7554268 C7.23664634,16.2289634 7.45731707,16.910061 7.34286585,17.5779268 L6.17591463,24.3812195 C6.13719512,24.6085366 6.27804878,24.7386585 6.33981707,24.7839634 C6.40237805,24.8292683 6.56957317,24.9231707 6.77384146,24.8152439 L12.8837195,21.6034146 C13.1834756,21.4453049 13.5129268,21.3662195 13.8415244,21.3662195 C14.1709146,21.3662195 14.4995122,21.4453049 14.800122,21.6034146 L20.91,24.8152439 C21.1142683,24.9231098 21.2814024,24.8292683 21.3431707,24.7839634 C21.4057317,24.7386585 21.5465854,24.6085366 21.5070732,24.3812195 L20.340122,17.5779268 C20.2256707,16.910061 20.4471951,16.2289634 20.9322561,15.7554268 L25.875122,10.9368902 Z" id="Shape" stroke="#C2C6C9" stroke-width="0.400000006" fill="#C2C6C9"></path>
                    </g>
                    <path d="M29.7606551,11.9404878 C29.7845575,12.0137805 29.8215697,12.2015244 29.6560819,12.3621341 L24.7131551,17.1807317 C24.2280941,17.6542683 24.0065697,18.3353659 24.1210209,19.0032317 L25.2879721,25.8065244 C25.3274843,26.0338415 25.1866917,26.1639634 25.1240697,26.2092683 C25.0623014,26.2545732 24.8951063,26.3484756 24.690899,26.2405488 L18.5810209,23.0287195 C18.2804112,22.8706098 17.9518136,22.7915244 17.6224234,22.7915244 C17.2938258,22.7915244 16.9644356,22.8706098 16.6646185,23.0287195 L10.5546795,26.2406098 C10.3504112,26.3484756 10.183277,26.2546341 10.1206551,26.2093293 C10.0588868,26.1640244 9.91803312,26.0339024 9.95675263,25.8065854 L11.1237039,19.0032927 C11.2381551,18.3354268 11.0174843,17.6543293 10.5315697,17.1807927 L5.58864287,12.3621951 C5.42309409,12.2015854 5.46102092,12.0138415 5.48486239,11.9405488 C5.50876483,11.8672561 5.58864287,11.6934756 5.81675263,11.6605488 L12.6480941,10.667378 C13.3184599,10.5701829 13.898216,10.1493902 14.1980331,9.54158537 L17.2534599,3.35091463 C17.3555941,3.14420732 17.545838,3.12195122 17.6224234,3.12195122 C17.6611429,3.12195122 17.7278502,3.1277439 17.7978502,3.15902439 C17.8678502,3.19030488 17.9411429,3.2479878 17.9921795,3.35091463 L21.0466917,9.54152439 C21.3464478,10.1493293 21.9262648,10.570122 22.5974234,10.6673171 L29.4279112,11.6604878 C29.6568746,11.6934756 29.7367526,11.8671951 29.7606551,11.9404878 Z" id="Shape" fill="#C2C6C9" opacity="0.300000012"></path>
                    <g id="Group" transform="translate(0.000000, 0.975610)" fill="#4353FF" opacity="0">
                        <path d="M25.2304268,0.221158537 C25.5985366,0.487987805 25.680061,1.00353659 25.4132317,1.37085366 L24.5385976,2.57408537 C24.3779878,2.79646341 24.1268293,2.91420732 23.8715244,2.91420732 C23.7043293,2.91420732 23.5346951,2.86317073 23.3881098,2.75689024 C23.0207927,2.48920732 22.9392683,1.9745122 23.2060976,1.60640244 L24.0807317,0.403170732 C24.347622,0.0350609756 24.8631707,-0.0464634146 25.2304268,0.221158537 Z" id="Shape"></path>
                        <path d="M16.4332927,27.517622 L16.4332927,29.004939 C16.4332927,29.4603659 16.0651829,29.8284756 15.6097561,29.8284756 C15.1551829,29.8284756 14.7862195,29.4603659 14.7862195,29.004939 L14.7862195,27.517622 C14.7862195,27.0630488 15.1551829,26.6940854 15.6097561,26.6940854 C16.0651829,26.6940854 16.4332927,27.0630488 16.4332927,27.517622 Z" id="Shape"></path>
                        <path d="M8.01006098,1.60146341 C8.27689024,1.96957317 8.19536585,2.48432927 7.82804878,2.75195122 C7.68146341,2.85817073 7.51182927,2.90926829 7.34463415,2.90926829 C7.08932927,2.90926829 6.83817073,2.79152439 6.67756098,2.56993902 L5.8029878,1.36670732 C5.53615854,0.998597561 5.61768293,0.48304878 5.985,0.216219512 C6.35310976,-0.0514634146 6.86865854,0.0301219512 7.1354878,0.398231707 L8.01006098,1.60146341 Z" id="Shape"></path>
                        <path d="M3.02103659,17.5502439 C3.16189024,17.9834146 2.9254878,18.4479268 2.49231707,18.5887195 L1.07829268,19.0482317 C0.99347561,19.0754268 0.907804878,19.0885976 0.823841463,19.0885976 C0.476280488,19.0885976 0.15347561,18.8670732 0.0406707317,18.5195122 C-0.100182927,18.0863415 0.137012195,17.6218293 0.569390244,17.4810366 L1.98341463,17.0215244 C2.41652439,16.8815244 2.88103659,17.1178659 3.02103659,17.5502439 Z" id="Shape"></path>
                    </g>
                </g>
            </g>
        </g>
    </g>
</svg>