<?xml version="1.0" encoding="UTF-8"?>
<svg width="30px" height="30px" viewBox="0 0 30 30" version="1.1" xmlns="http://www.w3.org/2000/svg" xmlns:xlink="http://www.w3.org/1999/xlink">
    <!-- Generator: sketchtool 51.3 (57544) - http://www.bohemiancoding.com/sketch -->
    <title>B151B2DA-311C-415B-87E2-A2BBB6351218@1.5x</title>
    <desc>Created with sketchtool.</desc>
    <defs></defs>
    <g id="Job-Search" stroke="none" stroke-width="1" fill="none" fill-rule="evenodd">
        <g id="Search_Jobs_no_search_found" transform="translate(-173.000000, -244.000000)" fill-rule="nonzero">
            <g id="No-Search-found" transform="translate(43.000000, 244.000000)">
                <g id="search" transform="translate(130.000000, 0.000000)">
                    <path d="M17.7639542,5.03603406 C16.0640989,3.33618626 13.8040149,2.4 11.4,2.4 C8.99598505,2.4 6.7359011,3.33618626 5.03604576,5.03603406 C3.33619042,6.73588186 2.4,8.99603566 2.4,11.4000399 C2.4,13.8040442 3.33619042,16.0641181 5.03604576,17.7639659 C6.7359011,19.4638137 8.99606493,20.4 11.4,20.4 C13.8040149,20.4 16.0640989,19.4638137 17.7639542,17.7639659 C19.4638096,16.0641181 20.4,13.8039643 20.4,11.4000399 C20.4,8.99595579 19.4638096,6.73588186 17.7639542,5.03603406 Z M16.9168221,16.9167577 C15.4432467,18.3903265 13.4839642,19.2019116 11.4,19.2019116 C9.31603582,19.2019116 7.35675325,18.3904064 5.88317788,16.9167577 C2.84121797,13.8748113 2.84121797,8.92510883 5.88317788,5.88316242 C7.35675325,4.40959358 9.31603582,3.59808838 11.4,3.59808838 C13.4839642,3.59808838 15.4432467,4.40959358 16.9168221,5.88316242 C19.958782,8.92510883 19.958782,13.8748113 16.9168221,16.9167577 Z" id="Shape" fill="#E6B849"></path>
                    <path d="M14.7083006,5.49754503 C14.4262772,5.30547297 14.058587,5.40579313 13.8870939,5.72165886 C13.7156008,6.03752459 13.8051724,6.44933709 14.0871958,6.64140916 C14.4820603,6.9103279 14.8495912,7.23413713 15.1797473,7.60391156 C15.2964137,7.73466694 15.4494187,7.8 15.602344,7.8 C15.7552694,7.8 15.9082744,7.73466694 16.0249407,7.60391156 C16.2583531,7.34249005 16.2583531,6.91871767 16.0249407,6.65729616 C15.6275261,6.2121031 15.1845287,5.82188978 14.7083006,5.49754503 Z" id="Shape" fill="#E6B849"></path>
                    <path d="M6.58743346,7.2 C6.73774311,7.2 6.88813109,7.14300323 7.00280192,7.02893181 C8.28658263,5.75273354 10.1257023,5.1569148 11.9220554,5.4350466 C12.2428047,5.48472412 12.5429541,5.26654794 12.5929267,4.94784876 C12.6428211,4.62914958 12.4234269,4.3306173 12.1029126,4.28093978 C9.9370907,3.94573334 7.72004292,4.66426645 6.172065,6.2031015 C5.942645,6.43116646 5.942645,6.80086685 6.172065,7.02893181 C6.28673583,7.14300323 6.43712381,7.2 6.58743346,7.2 Z" id="Shape" fill="#E6B849"></path>
                    <path d="M8.11119561,16.1407692 C7.72759823,15.8750083 7.36942142,15.558384 7.04647378,15.199525 C6.80706258,14.9334917 6.41888786,14.9334917 6.1795584,15.199525 C5.9401472,15.4655584 5.9401472,15.8968068 6.1795584,16.1628402 C6.56830529,16.5948153 6.99996474,16.9763811 7.46260297,17.2968201 C7.56346791,17.3667572 7.67561273,17.4 7.78628626,17.4 C7.99087698,17.4 8.19089036,17.2861933 8.30712209,17.0791069 C8.48621049,16.7600303 8.3985054,16.3398628 8.11119561,16.1407692 Z" id="Shape" fill="#E6B849"></path>
                    <path d="M15.2557482,15.1709085 C14.0837999,16.4075125 12.466526,16.9984987 10.8183492,16.7921905 C10.5149997,16.7540573 10.2398242,16.9829341 10.2039061,17.3030192 C10.1679142,17.6231043 10.3846767,17.9133832 10.6880262,17.9513608 C10.9483772,17.9839685 11.2077694,18 11.4656865,18 C13.1762591,18 14.8099063,17.2920462 16.0379813,15.9962969 C16.2540062,15.768354 16.2540062,15.3987736 16.0379813,15.1708307 C15.8220301,14.9430435 15.4717732,14.9430435 15.2557482,15.1709085 Z" id="Shape" fill="#E6B849"></path>
                    <path d="M29.2814661,25.8069567 L22.1185779,18.6440449 C21.887438,18.4129044 21.5126743,18.4129044 21.2816134,18.6440449 L20.9950758,18.9305835 L20.2921866,18.227692 C23.7136715,13.7901716 23.3918592,7.37710546 19.3262762,3.31150909 C14.9110242,-1.10383636 7.72675022,-1.10383636 3.3114982,3.31150909 C-1.10383273,7.72677563 -1.10383273,14.9110732 3.3114982,19.3263398 C5.51912421,21.533973 8.41906489,22.6378291 11.3189267,22.6378291 C13.7593497,22.6378291 16.1997727,21.8558653 18.2276321,20.2922533 L18.9305213,20.9951448 L18.6439836,21.2816834 C18.5329513,21.3926371 18.470609,21.543206 18.470609,21.700167 C18.470609,21.8571279 18.5329513,22.0076968 18.6439836,22.1186506 L25.8068719,29.2815623 C26.2858813,29.7605734 26.9149857,30 27.5442479,30 C28.1733522,30 28.8026144,29.7604945 29.2816239,29.2815623 C30.239485,28.3236981 30.239485,26.7649788 29.2814661,25.8069567 Z M4.14838377,18.4893725 C2.23305613,16.5740386 1.17828832,14.0275464 1.17828832,11.3189639 C1.17828832,8.61038133 2.23313504,6.06381027 4.14838377,4.14855524 C6.06371142,2.23330021 8.61019519,1.17845003 11.3187688,1.17845003 C14.0273425,1.17845003 16.5739841,2.23330021 18.4892328,4.14855524 C20.4045605,6.06388918 21.4593283,8.61038133 21.4593283,11.3189639 C21.4593283,14.0275464 20.4045605,16.5741175 18.4892328,18.4893725 C16.5739052,20.4046275 14.0274214,21.4594777 11.3188477,21.4594777 C8.61027411,21.4594777 6.06371142,20.4047065 4.14838377,18.4893725 Z M19.1284382,19.5192068 C19.1949629,19.4558385 19.2609352,19.391681 19.3261973,19.3263398 C19.3914594,19.2609985 19.4556956,19.195026 19.5190637,19.12858 L20.1580324,19.7675508 L19.7674068,20.1581775 L19.1284382,19.5192068 Z M28.4445016,28.444674 C27.9479732,28.9411252 27.1402859,28.9410463 26.6438363,28.444674 L19.8994304,21.7002459 L21.7000956,19.8995747 L28.4445016,26.6440029 C28.9409511,27.140454 28.9409511,27.9482229 28.4445016,28.444674 Z" id="Shape" fill="#4454FF"></path>
                </g>
            </g>
        </g>
    </g>
</svg>