<svg width="24" height="24" viewBox="0 0 24 24" fill="none" xmlns="http://www.w3.org/2000/svg">
    <g clip-path="url(#clip0_274_891)">
    <path fill-rule="evenodd" clip-rule="evenodd" d="M0.670443 12.75L21.5414 12.75L15.2977 18.9697C15.0044 19.263 15.0044 19.7377 15.2977 20.0302C15.5909 20.3235 16.0657 20.3235 16.3582 20.0302L23.7832 12.606C24.0719 12.3172 24.0719 11.8342 23.7832 11.5455L16.3582 4.12049C16.0649 3.82725 15.5902 3.82724 15.2977 4.12049C15.0044 4.41374 15.0044 4.8885 15.2977 5.181L21.5414 11.25L0.670443 11.25C0.256444 11.25 -0.0795548 11.586 -0.0795548 12C-0.0795548 12.414 0.256444 12.75 0.670443 12.75Z" fill="#4353FF"/>
    </g>
    <defs>
    <clipPath id="clip0_274_891">
    <rect width="24" height="24" fill="white" transform="translate(24 24) rotate(-180)"/>
    </clipPath>
    </defs>
    </svg>