<svg width="24" height="24" viewBox="0 0 24 24" fill="none" xmlns="http://www.w3.org/2000/svg">
    <g clip-path="url(#clip0_274_895)">
    <path fill-rule="evenodd" clip-rule="evenodd" d="M23.3296 11.25L2.45856 11.25L8.70231 5.03025C8.99556 4.737 8.99556 4.26225 8.70231 3.96975C8.40906 3.6765 7.93431 3.6765 7.64181 3.96975L0.216807 11.394C-0.0719434 11.6828 -0.0719434 12.1658 0.216807 12.4545L7.64181 19.8795C7.93506 20.1728 8.40981 20.1728 8.70231 19.8795C8.99556 19.5863 8.99556 19.1115 8.70231 18.819L2.45856 12.75L23.3296 12.75C23.7436 12.75 24.0796 12.414 24.0796 12C24.0796 11.586 23.7436 11.25 23.3296 11.25Z" fill="#4353FF"/>
    </g>
    <defs>
    <clipPath id="clip0_274_895">
    <rect width="24" height="24" fill="white"/>
    </clipPath>
    </defs>
    </svg>