<?xml version="1.0" encoding="UTF-8"?>
<svg width="683px" height="469px" viewBox="0 0 683 469" version="1.1" xmlns="http://www.w3.org/2000/svg" xmlns:xlink="http://www.w3.org/1999/xlink">
    <!-- Generator: sketchtool 52.6 (67491) - http://www.bohemiancoding.com/sketch -->
    <title>0196BA64-55E8-47EA-B670-5000EA0132A7</title>
    <desc>Created with sketchtool.</desc>
    <g id="Landing-Page" stroke="none" stroke-width="1" fill="none" fill-rule="evenodd">
        <g id="Employer-LP_C" transform="translate(-779.000000, -3119.000000)">
            <g id="Support" transform="translate(256.000000, 3093.000000)">
                <g id="Support-Illustration" transform="translate(523.000000, 26.000000)">
                    <path d="M18.3786264,300.859011 C10.1833246,302.123728 -0.0949497187,305.742763 0.000662135595,314.15475 C0.0484680627,318.422357 3.0329238,322.06085 5.93542652,325.180484 C18.2722333,338.530469 32.3467539,350.33624 47.8202481,360.313661 C55.2096786,365.067698 63.1522919,369.614192 68.0626435,376.96252 C72.9729952,384.310847 74.2091199,393.663264 74.5983967,402.56168 C75.555945,423.629728 72.9410674,444.706978 66.8538365,464.986792 C90.9138767,469.338715 117.746661,473.152321 137.797832,459.409068 C149.80395,451.178682 157.924128,437.390028 171.302958,431.68259 C180.235837,427.868983 190.350205,428.206241 200.088955,428.69267 C246.187528,430.997265 292.172277,435.321082 338.043202,441.664122 C357.254356,444.32327 376.834298,447.332646 395.840568,443.895212 C414.846839,440.457777 433.545786,429.243957 440.552769,411.064467 C441.631817,408.262633 442.601594,405.136513 445.019208,403.450225 C447.204622,401.945536 450.066149,401.977965 452.722792,402.068765 L613.268754,407.309231 C622.065045,407.594603 631.168659,407.82809 639.220543,404.390655 C647.026568,401.063477 653.029627,394.662066 658.807315,388.390369 C672.022239,374.082857 686.234258,356.480597 682.348319,337.062334 C679.240934,321.496591 665.349897,310.620029 651.574961,303.005787 C637.800024,295.391544 622.604569,289.158762 612.483371,276.985054 C597.083033,258.455335 597.690852,231.935202 596.734733,207.892615 C595.863408,186.122063 593.041773,164.461495 588.300402,143.145613 C584.127627,124.408351 578.315792,105.645146 567.450188,89.8199744 C556.584584,73.9948031 539.968609,61.3216945 521.17405,58.9998046 C496.629122,55.9644849 471.954434,70.5054825 447.942199,64.3310714 C427.658828,59.1424906 413.699497,40.7035717 396.892299,27.9266916 C367.040912,5.22665072 327.867369,0.472613593 290.831435,0.0380699538 C251.56228,-0.435388041 211.255054,3.33930447 176.254286,20.8507646 C168.236549,24.8589432 160.396377,29.7102662 154.84406,36.792679 C146.334605,47.6562699 144.272121,62.2491533 138.706145,74.9482048 C116.271506,126.081668 43.3060027,137.107402 19.6215805,187.696065 C11.2145668,205.642069 11.2965198,226.571506 17.4225079,245.419026 C24.0128964,265.699891 42.5615961,276.90074 49.9168795,294.580829 C42.0015838,299.41918 27.9739589,299.37378 18.3786264,300.859011 Z" id="Shape" fill="#4454FF" fill-rule="nonzero" opacity="0.0435221354"></path>
                    <g id="teamwork_white_14" transform="translate(47.000000, 51.000000)">
                        <path d="M439,72.3646007 L434.579851,90.9863901 C430.29957,93.3732392 425.192192,93.652774 420.686892,91.7467735 L413,88.5303518 L416.393246,68 L439,72.3646007 Z" id="Path" fill="#FBAD83"></path>
                        <path d="M416.062527,68 L413,86 C416.448643,84.8634638 419.728837,83.278292 422.754147,81.2862547 C423.894548,80.5440853 424.991182,79.7382368 426.038707,78.8726356 C428.052318,77.2005044 429.69077,74.332913 431,70.776797 L416.062527,68 Z" id="Path" fill="#E68D5C"></path>
                        <ellipse id="Oval" fill="#19192B" cx="440" cy="55.5" rx="7" ry="11.5"></ellipse>
                        <ellipse id="Oval" fill="#19192B" cx="444" cy="55.5" rx="7" ry="11.5"></ellipse>
                        <ellipse id="Oval" fill="#19192B" cx="447" cy="56" rx="4" ry="6"></ellipse>
                        <path d="M444,56.0035821 C444,52.6865672 445.789573,50 448.003791,50 C450.218009,50 452,52.6865672 452,56.0035821 C452,59.320597 450.210427,62 448.003791,62 C445.797156,62 444,59.2847761 444,56.0035821 Z" id="Path" fill="#19192B"></path>
                        <path d="M301,333.396907 L282.164888,366 L249,366 C249.008545,362.44479 251.316752,359.30527 254.703799,358.241946 L273.095035,352.528995 L290.783468,320 L301,333.396907 Z" id="Path" fill="#19192B"></path>
                        <path d="M343.306974,335 L349,367 L303,367 C302.985945,363.022881 305.686474,359.564592 309.507437,358.666667 L328.558901,351.901515 L326.870418,336.492424 L343.306974,335 Z" id="Path" fill="#19192B"></path>
                        <path d="M359,228.163535 L302.632344,334.931142 C302.632344,334.931142 290.67738,335.854184 288.331218,330.941221 L286,326.028259 L325.428966,222 L359,228.163535 Z" id="Path" fill="#27274C"></path>
                        <path d="M395,209.709598 C395,209.709598 325.448189,201.44131 311.801138,206.815697 C298.154087,212.190085 311.417456,287.799826 322.551764,326.638233 L326.275739,339.897562 C326.275739,339.897562 330.375873,342.378048 338.45577,339.897562 L346.535666,337.417075 C346.535666,337.417075 336.996272,240.287233 338.45577,236.979918 C339.915267,233.672602 348.077918,234.409232 348.077918,234.409232 L395,234.409232 L395,209.709598 Z" id="Path" fill="#333367"></path>
                        <path d="M394,222.941563 L377.189628,208.67999 C371.262703,208.115102 364.275799,207.506198 357.035097,207 L337,234.53276 L338.687009,236 C341.202593,233.967873 347.420639,234.53276 347.420639,234.53276 L393.970141,234.53276 L394,222.941563 Z" id="Path" fill="#333367"></path>
                        <polyline id="Path" fill="#313154" points="230 183 258 183 258 119 230 119 230 183"></polyline>
                        <polygon id="Path" fill="#A9C2DC" points="261 183 261 122 233 122 233 183"></polygon>
                        <path d="M399.496235,61 C396.4846,61 394,57.8616852 394,53.9962904 C394,50.1308956 396.469541,47 399.496235,47 C402.52293,47 405,50.1383148 405,53.9962904 C405,57.854266 402.530459,61 399.496235,61 Z M399.496235,47.7419184 C396.883641,47.7419184 394.752909,50.5537891 394.752909,53.9962904 C394.752909,57.4387917 396.883641,60.2580816 399.496235,60.2580816 C402.10883,60.2580816 404.247091,57.4462109 404.247091,53.9962904 C404.247091,50.5463699 402.116359,47.7419184 399.496235,47.7419184 Z" id="Shape" fill="#313154" fill-rule="nonzero"></path>
                        <path d="M402.053859,72.1241323 C407.636427,86.9636534 423.872522,82.3427392 433.593113,75.9335689 C434.712464,75.1947098 435.789999,74.3945307 436.82077,73.5367044 C445.600901,66.1507555 447.105637,35.2169285 445.360144,29.2059832 C443.614651,23.195038 425.294497,16.8084086 415.099915,19.7312308 C404.905332,22.6540529 395.79416,55.4663003 402.053859,72.1241323 Z" id="Path" fill="#FBAD83"></path>
                        <path d="M430.928503,75.9990752 C436.768176,76.0689658 441.929272,72.1709254 443.521613,66.4878299 C447.05547,53.7884999 451.5252,32.4109158 443.521613,26.6405583 C431.909298,18.310646 422.004016,15.925262 411.791768,19.8251755 C401.579519,23.725089 401.085378,33.4559411 402.69508,36.5985899 C404.304782,39.7412386 407.816178,37.4240085 408.961687,42.0811867 C409.530698,44.352981 408.385189,49.0707404 407.074967,53.2432693 C406.419097,55.3615596 406.646896,57.6588768 407.705611,59.6032388 C408.764327,61.5476009 410.562133,62.9703662 412.682719,63.54207 C411.817921,66.4442955 412.35423,69.5889594 414.13037,72.0304191 C415.90651,74.4718787 418.715272,75.9253073 421.712023,75.9536393 L430.928503,75.9990752 Z" id="Path" fill="#3C4364"></path>
                        <path d="M415.8908,60.4477256 C415.351607,64.2823052 411.133211,67.2453893 408.754416,66.9839407 C406.375622,66.7224921 406.930674,63.3018729 407.469867,59.4672934 C408.009061,55.6327139 410.316491,52.7422543 412.639781,53.0182278 C414.96307,53.2942013 416.422064,56.6131461 415.8908,60.4477256 Z" id="Path" fill="#CFDCE3"></path>
                        <polygon id="Path" fill="#303D72" points="513.506686 367 523 367 491.500824 191 482 191"></polygon>
                        <polygon id="Path" fill="#A9C2DC" points="518.506686 367 528 367 496.493314 191 487 191"></polygon>
                        <polygon id="Path" fill="#A9C2DC" points="399.499084 367 390 367 421.500916 191 431 191"></polygon>
                        <polygon id="Path" fill="#303D72" points="404.493314 367 395 367 426.499176 191 436 191"></polygon>
                        <polygon id="Path" fill="#303D72" points="190.500916 367 200 367 168.499084 191 159 191"></polygon>
                        <polygon id="Path" fill="#A9C2DC" points="195.500916 367 205 367 173.499084 191 164 191"></polygon>
                        <rect id="Rectangle" fill="#A9C2DC" x="64" y="188" width="464" height="4"></rect>
                        <polygon id="Path" fill="#A9C2DC" points="73.5008243 367 64 367 95.5066862 191 105 191"></polygon>
                        <polygon id="Path" fill="#19192B" points="77.4990842 367 68 367 99.5009158 191 109 191"></polygon>
                        <path d="M315.436592,167 L185.405599,167 C182.885298,167 180.842191,164.956434 180.842191,162.435568 L173,63.5644325 C173.004112,61.0452716 175.044813,59.0041129 177.563408,59 L307.609338,59 C310.129639,59 312.172747,61.043566 312.172747,63.5644325 L320,162.435568 C319.995888,164.954728 317.955187,166.995887 315.436592,167" id="Path" fill="#313154"></path>
                        <path d="M319.436592,167 L189.390662,167 C186.870361,167 184.827253,164.956434 184.827253,162.435568 L177,63.5644325 C177.004112,61.0452716 179.044813,59.0041129 181.563408,59 L311.609338,59 C314.127934,59.0041129 316.168635,61.0452716 316.172747,63.5644325 L324,162.435568 C323.995888,164.954728 321.955187,166.995887 319.436592,167" id="Path" fill="#A9C2DC"></path>
                        <path d="M223.127447,45.0375262 L163.398992,45.0375262 C162.231005,45.0375245 161.110964,45.5011301 160.285778,46.3261439 C159.460592,47.1511577 158.99801,48.269843 159.000006,49.4355918 L166.519641,144.609433 C166.519639,145.775184 166.984134,146.893079 167.810731,147.716685 C168.637328,148.540291 169.75816,149.001986 170.926146,148.999994 L180.153564,149.017334 L173,63.168457 C173.00414,60.6375603 175.464246,59.0041321 178,59 L220,59 L223.820413,45.0548666 M255.867935,45.0375262 L248.122711,45.0375262 L245.172363,58 L253.130253,58 L256.412231,45.0549316 M288.85657,45.0375262 L280.893278,45.0375262 L277.456805,58.4043435 L294,58.4043435 L293.285635,49.3980657 C293.287631,48.2323168 292.82505,47.1136315 291.999863,46.2886177 C291.174677,45.463604 290.054636,44.9999983 288.886649,45" id="Shape" fill="#ECB928" fill-rule="nonzero"></path>
                        <path d="M181.677603,59 L177.793866,59 C175.148078,59.0041049 173.00432,61.0412898 173,63.5555464 L180.116262,149 L184,149 L176.883738,63.5555464 C176.888057,61.0412898 179.031816,59.0041049 181.677603,59" id="Path" fill="#DAAA27"></path>
                        <path d="M253.228271,57.9102936 L245.677368,57.9508057 L244.669069,62.0121779 C246.335509,62.3151419 247.931504,62.9243672 249.376347,63.8090465 C250.135794,64.4390716 250.798355,65.1776817 251.342679,66.001077 L253.228271,56.88047 M293.92041,58.3256836 L277.838379,58.190918 L261.673368,121.785278 L261.673368,122 C265.970994,126.913429 270.112208,149 270.112208,149 L193.961548,149 C193.961548,149 197.037665,128.869108 202.407836,124.716179 C202.948025,124.307671 203.515405,123.936502 204.106031,123.605252 L220.655989,59 L182.550866,59 C180.039193,59.0041049 178.004101,61.0412898 178,63.5555464 L184.755541,149 L296.642788,149 C299.04921,149 301,147.047203 301,144.638307 L294.150925,60.3865871" id="Shape" fill="#EBB628" fill-rule="nonzero"></path>
                        <path d="M354.511278,157 L283.736842,157 C283.078786,157 282.447682,156.737484 281.982367,156.270203 C281.517051,155.802922 281.255639,155.169153 281.255639,154.508318 L277,100.491682 C277,99.8308466 277.261412,99.1970776 277.726728,98.7297966 C278.192043,98.2625157 278.823147,98 279.481203,98 L350.255639,98 C350.913695,98 351.544799,98.2625157 352.010115,98.7297966 C352.47543,99.1970776 352.736842,99.8308466 352.736842,100.491682 L357,154.515869 C356.99173,155.890256 355.87991,157.000025 354.511278,157 Z" id="Path" fill="#DADDFF"></path>
                        <path d="M203.511278,59 L132.736842,59 C131.366512,59 130.255639,57.8845789 130.255639,56.5086372 L126,2.49136276 C126,1.1154211 127.110872,2.52756383e-16 128.481203,0 L199.255639,0 C199.913695,-9.34936988e-15 200.544799,0.262482109 201.010115,0.729703259 C201.47543,1.19692441 201.736842,1.83061228 201.736842,2.49136276 L206,56.5086372 C205.995856,57.8857992 204.88283,59.0000063 203.511278,59 Z" id="Path" fill="#DADDFF"></path>
                        <rect id="Rectangle" fill="#313154" x="394" y="51" width="23" height="1"></rect>
                        <path d="M435.901201,88 C435.901201,88 427.287516,90.2544565 421.256444,89.6983572 C415.225372,89.142258 413.560856,88.465921 413.560856,88.465921 C413.560856,88.465921 393.765804,91.1487242 385.943324,96.9276477 C378.120845,102.706571 371.171677,162.532331 371.582207,173.413841 C371.992738,184.295351 371,217 371,217 L454.083987,217 C454.083987,217 460.645017,108.635792 454.083987,99.7682628 C447.522957,90.900734 435.901201,88 435.901201,88 Z" id="Path" fill="#4251FF"></path>
                        <path d="M414.648474,216 L419,178.780449 L379.715387,112 L377.448967,117.421125 C373.218316,137.558877 370.317299,165.370298 370.589269,172.450798 C371.00478,183.323081 370,216 370,216 L414.648474,216 Z" id="Path" fill="#4251FF"></path>
                        <polygon id="Path" fill="#313154" points="209 188 241 188 241 185.234195 209 183"></polygon>
                        <polygon id="Path" fill="#92ADC9" points="210 183 276.59184 183 308 188 241.40816 188"></polygon>
                        <path d="M288,172.49771 C288,172.49771 282.134239,166.863881 275.491358,166.073303 C268.848478,165.282725 256.295002,171.108442 254.763179,172.896837 C253.231356,174.685233 254.255062,176.57341 255.644911,177.555876 C257.034761,178.538342 271.045336,179.820153 274.983242,179.351947 C278.921147,178.88374 287.491883,182 287.491883,182 L288,172.49771 Z" id="Path" fill="#F2A880"></path>
                        <path d="M383.687763,99 L339.017782,165.487728 L282.933396,168.104712 C282.933396,168.104712 278.583256,175.658277 282.933396,182 L353.221705,182 L375.500151,151.956736 C383.719354,140.872394 387.321036,127.104567 385.565033,113.482623 L383.687763,99 Z" id="Path" fill="#4251FF"></path>
                        <path d="M464.32498,113 L385.654268,113 L375.81206,218.897423 L372.092404,230.317659 L354,242 L431.324197,242 L431.644088,241.88767 L435.519969,241.88767 C447.091041,241.887671 456.4724,232.447407 456.476507,220.799547 L468,116.706897 C467.979918,114.670977 466.347434,113.024332 464.32498,113 Z" id="Path" fill="#A9C2DC"></path>
                        <rect id="Rectangle" fill="#303D72" x="388" y="245" width="14" height="121"></rect>
                        <path d="M348,367 C347.99802,364.083329 349.11732,361.285416 351.111459,359.222294 C353.105598,357.159171 355.811073,355.999999 358.632203,356 L430.360328,356 C436.236457,356 441,360.924868 441,367 L348,367 Z" id="Path" fill="#303D72"></path>
                        <rect id="Rectangle" fill="#303D72" x="384" y="242" width="21" height="13"></rect>
                        <rect id="Rectangle" fill="#303D72" x="388" y="256" width="14" height="12"></rect>
                        <path d="M381.629161,116.901781 L370.090598,219.633229 C370.090598,227.90152 363.4205,234.604294 355.192518,234.604294 L337.679826,234.604294 C335.647514,234.604294 334,236.259879 334,238.302147 C334,240.344415 335.647514,242 337.679826,242 L356.473753,242 C368.059958,242.000001 377.453585,232.563705 377.457698,220.920741 L388.996261,116.871839 C389.057233,115.509676 388.368793,114.223926 387.203986,113.52454 C386.039179,112.825153 384.586243,112.825153 383.421436,113.52454 C382.256629,114.223926 381.568188,115.509676 381.629161,116.871839 L381.629161,116.901781 Z" id="Path" fill="#303D72"></path>
                        <polygon id="Path" fill="#FFFFFF" points="190.55848 188 205.44152 188 208 158 188 158"></polygon>
                        <path d="M193.44042,186 L204.618373,186 L206,169.280053 C204.500713,168.748564 202.882953,168.71081 201.36273,169.171834 C198.276115,169.828882 196.843045,168.808525 194.520735,168.050987 C193.543307,167.734057 192.411549,169.017234 192,168.545705 L193.44042,186 Z" id="Path" fill="#313154"></path>
                        <path d="M439.175878,18.487931 C435.804742,14.9832243 431.132704,13 426.247525,13 C421.362347,13 416.690309,14.9832243 413.319173,18.487931 C412.876974,18.9537372 412.46021,19.4426409 412.070664,19.9525498 C409.421192,23.3147934 407.987686,27.4616902 408.00008,31.728085 L408,48 L412.262742,48 L412.262742,31.6987926 C412.249275,27.8804205 413.729535,24.2055363 416.392427,21.446461 C417.729578,20.0634905 419.342193,18.971205 421.127898,18.2389458 C422.767249,17.5662457 424.524985,17.2227478 426.299239,17.2283588 C430.033174,17.2349393 433.600895,18.7596814 436.169112,21.446461 C436.620312,21.9042345 437.037567,22.3937142 437.417622,22.9110798 C439.431238,24.0253139 441.38201,25.247647 443.261237,26.5726268 C443.52202,26.7678528 443.768864,26.9807309 444,27.209736 C443.207045,23.9274047 441.541229,20.9156817 439.175878,18.487931 Z" id="Path" fill="#19192B"></path>
                        <path d="M420,55.5037398 C420,61.8539837 416.856699,67 412.981893,67 C409.107087,67 406,61.824065 406,55.5037398 C406,49.1834146 409.143301,44 413.018107,44 C416.892913,44 420,49.1235772 420,55.5037398 Z" id="Path" fill="#19192B"></path>
                        <path d="M417,55.5037398 C417,61.8539837 413.870418,67 409.996386,67 C406.122354,67 403,61.8539837 403,55.5037398 C403,49.1534959 406.129582,44 409.996386,44 C413.863191,44 417,49.1235772 417,55.5037398 Z" id="Path" fill="#4251FF"></path>
                        <path d="M411,56.0178678 C411,59.3198332 409.210427,62 407.003791,62 C404.797156,62 403,59.3198332 403,56.0178678 C403,52.7159023 404.766825,50 407.041706,50 C409.316588,50 411,52.6801668 411,56.0178678 Z" id="Path" fill="#19192B"></path>
                        <ellipse id="Oval" fill="#19192B" cx="405" cy="56" rx="4" ry="6"></ellipse>
                        <path d="M402.591486,74.9999924 L399.591971,74.9999924 C398.39483,75.0024109 397.275457,74.4303697 396.608276,73.4752128 C395.941095,72.5200558 395.81419,71.3078865 396.270009,70.2441674 L396.270009,70.1721094 L403.86628,55.6019911 C404.044437,55.2557366 404.401297,55.0271165 404.802434,55.0022497 C405.20357,54.9773829 405.588041,55.1600474 405.811021,55.4814351 C406.034,55.8028228 406.061611,56.2141074 405.883454,56.5603619 L398.384667,71.0944512 C398.2287,71.4829073 398.278661,71.9199424 398.518666,72.2665996 C398.75867,72.6132567 399.158852,72.8263978 399.591971,72.8382537 L402.591486,72.8382537 C403.212706,72.8382537 403.716304,73.3221754 403.716304,73.919123 C403.716304,74.5160707 403.212706,74.9999924 402.591486,74.9999924 Z" id="Path" fill="#19192B"></path>
                        <path d="M224.041671,116 C224.041671,116 207.797907,120.080441 202.430402,124.297403 C197.062897,128.514365 194,149 194,149 L270,149 C270,149 265.866575,127.422202 261.577032,122.454378 C257.287489,117.486555 240.017803,116.250287 240.017803,116.250287 L224.019368,116.030338" id="Path" fill="#303D72"></path>
                        <polyline id="Path" fill="#FFFFFF" points="224 116 228.899628 125 234.066914 120.5 238.483271 125 240 116.225376 224 116"></polyline>
                        <path d="M223,96 L223,116.41138 C223,116.41138 226.570211,119.318836 232.854708,118.971125 C238.668831,118.645609 239.594156,116.625925 239.594156,116.625925 L242,106.039233 L223,96" id="Path" fill="#FBAD83"></path>
                        <path d="M239.049372,114.860486 C235.999163,115.539047 232.466946,113.631536 229.830962,111.535537 C224.96569,107.667739 223,100 223,100 L239.087029,104.832862 L241,105.888401 L239.049372,114.860486" id="Path" fill="#E68D5C"></path>
                        <path d="M252.46857,105.518634 C246.80761,117.435483 232.749185,110.398151 226.734885,104.390856 C220.720586,98.3835618 221.547552,75.4220123 223.209002,71.0763097 C224.870452,66.7306072 238.786038,63.1969044 246.131001,66.0013111 C253.475965,68.8057177 258.159601,93.6093038 252.46857,105.518634" id="Path" fill="#FBAD83"></path>
                        <path d="M230.103186,85.0153888 C230.103186,85.0153888 231.687673,98.5113344 235.344183,99.5885479 C238.467452,100.511874 242.817175,96.002966 248.454294,95.741357 C251.592798,95.6105525 252.720222,95.9106334 254,96.7800985 C253.710339,99.7453693 252.951623,102.644509 251.75277,105.367029 C246.01662,117.562624 231.771468,110.360682 225.669668,104.212871 C222.721607,101.235146 221.396122,94.210175 221,87.215982 L230.103186,85" id="Path" fill="#1A2249"></path>
                        <path d="M227.867345,89.845803 C227.867345,89.845803 229.593929,90.0099648 230.303996,88.9876843 C231.014063,87.9654037 228.981029,82.1749681 231.051435,76.041285 C232.50894,71.6611487 239.138723,69.1166403 244.565129,70.1836922 C249.991535,71.2507441 251.359349,71.7283058 251.912453,70.1836922 C252.465558,68.6390786 250.290511,64.9081278 248.406965,63.4679808 C246.523419,62.0278338 237.673743,59.3713968 230.341368,62.3636193 C223.008992,65.3558419 221.514115,67.3556315 219.877224,72.1163247 C218.240332,76.877018 219.286747,88.8011367 219.877224,89.5622507 C220.4677,90.3233647 227.897243,89.8607268 227.897243,89.8607268" id="Path" fill="#1A2249"></path>
                        <path d="M220,88.8730159 C220,92.1190476 224.048881,95 226.531896,95 C229.014912,95 228.999999,92.1190476 228.999999,88.8730159 C228.999999,85.6269841 226.986743,83 224.526097,83 C222.065451,83 220.052196,85.6349206 220.052196,88.8730159" id="Path" fill="#FBAD83"></path>
                        <path d="M254,96 C254,96 254,110.699412 252.231098,113.34699 C250.462196,115.994568 244.646735,116.576117 242.016863,115.466583 C239.386991,114.357049 235.113449,110.37803 234.048976,107.003516 C232.984504,103.629003 249.624707,98.8159208 249.624707,98.8159208 L254,96" id="Path" fill="#1A2249"></path>
                        <path d="M222.03507,86.9490873 C221.742412,88.2434733 223.344326,89.7783463 224.499552,89.9834676 C225.654778,90.1885889 223.174893,88.4415214 223.475252,87.1542085 C223.77561,85.8668957 225.785704,85.2444587 224.661284,85.0322643 C223.536864,84.8200698 222.350831,85.6759207 222.03507,86.9703067" id="Path" fill="#E68D5C"></path>
                        <path d="M251,101.451619 C251,101.451619 244.979304,101.599806 244.000941,101.296375 L243,101 C243.060352,102.648808 244.165357,104.104341 245.80715,104.69763 C246.673447,105.076085 247.668439,105.100302 248.55451,104.764498 C249.440581,104.428694 250.138181,103.763016 250.480715,102.926437 C250.849483,101.95969 251,101.451619 251,101.451619" id="Path" fill="#FFFFFF"></path>
                        <polyline id="Path" fill="#DAAA27" points="248.46489 45.0402679 223.38429 45 220 58 245.187302 58.0402679 248.138474 45.0402679"></polyline>
                        <path d="M245.630371,58.0013428 L219.827263,58.0075006 L203,123 C209.580959,119.249712 223.288136,115.911955 223.288136,115.911955 L223.288136,97.91057 C222.75618,96.1092975 222.358785,94.2716939 222.099171,92.4126471 C220.789037,91.3550658 219.789398,89.9299562 219.789398,88.4148396 C219.789398,88.2948304 219.789398,88.1673206 219.789398,88.0473113 C219.228994,84.8670667 218.66859,75.6188553 220.084746,71.546042 C221.750811,66.7606739 223.242697,64.7955227 230.686982,61.7427879 C233.140048,60.7932936 235.755222,60.3221247 238.388749,60.3551812 C240.345488,60.3578229 242.997141,60.7609274 244.906006,61.1870117 L245.862183,58.0075006" id="Path" fill="#EBB628"></path>
                        <path d="M223.489418,116 C223.489418,116 209.994949,119.375086 203.516114,123.167318 L197,149 L221.782107,149 L228,124.34291 L223.489418,116" id="Path" fill="#4F5A87"></path>
                        <path d="M224,116 L228.509317,124 L230,118.356364 C227.840649,118.073858 225.78953,117.263293 224.037267,116" id="Path" fill="#FFFFFF"></path>
                        <path d="M223.03071,99 L223.03071,116.621145 C224.835665,117.896497 226.948461,118.714798 229.172745,119 L231,112.179148 L230.53167,111.826725 C225.809981,108.243759 223.767754,101.298091 223.583493,100.637298 C223.3762,100.123348 223.176583,99.5800294 223,99.0146843" id="Path" fill="#FCB995"></path>
                        <path d="M224.014692,100 C224.191001,100.687023 226.145087,107.908397 230.662994,111.633588 L231.111111,112 L232,108.419847 C229.911613,107.174237 227.98376,105.658315 226.262626,103.908397 C225.258546,102.780553 224.488387,101.450202 224,100" id="Path" fill="#EA9E74"></path>
                        <path d="M222.007576,92.718439 C222.267284,94.5561846 222.664822,96.3727326 223.19697,98.1533659 C223.371212,98.7242927 223.568182,99.2729756 223.772727,99.792 C224.268131,101.209901 225.057335,102.512411 226.090909,103.617951 C227.861135,105.316668 229.84409,106.78907 231.992424,108 C229.842747,106.793991 227.859487,105.323854 226.090909,103.625366 C223.969697,101.549268 222.689394,97.4267317 222,92.7555122 M242,70 C237.310606,70.1482927 232.583333,72.4839024 231.393939,76.0503415 C230.488997,78.9811063 230.210484,82.0628813 230.575758,85.1036098 C230.575758,85.1036098 231.80303,95.2542439 234.598485,98.3387317 L242,70" id="Shape" fill="#FCB995" fill-rule="nonzero"></path>
                        <path d="M230.145191,85 C230.3049,86.9595076 230.529946,88.3751215 230.225045,88.829608 C229.808329,89.3465425 229.194314,89.6534815 228.540835,89.6715258 C228.540835,92.3015873 228.30127,94.4622611 226.137931,94.4622611 C224.610012,94.3320452 223.161489,93.7086964 222,92.6815679 C222.660617,97.3754454 223.887477,101.517979 225.920145,103.604146 C227.614898,105.310873 229.515373,106.788141 231.575318,108 L234,98.3142209 C231.321234,95.2147716 230.145191,85.0149012 230.145191,85.0149012" id="Path" fill="#3C4364"></path>
                        <path d="M238.210584,61.0013608 C235.579595,60.9712175 232.967361,61.4421155 230.516655,62.3883174 C223.050358,65.3871426 221.555581,67.4038525 219.893874,72.1869786 C218.474974,76.2428896 219.036464,85.4867681 219.597954,88.6805169 C219.757295,85.7866507 221.745273,83.5000465 224.150574,83.5000465 C226.555875,83.5000465 228.703195,85.9890714 228.703195,89.047873 L228.703195,90 C229.386215,89.9818432 230.027987,89.6729901 230.463541,89.1528319 C230.782225,88.6955111 230.547006,87.2710691 230.380077,85.2993416 C230.014228,82.2248092 230.29318,79.1087741 231.199548,76.1454278 C232.413581,72.5393406 237.148306,70.1477775 241.82233,70.0278245 L244,61.6461082 C242.087436,61.2202235 240.133177,61.0040013 238.172646,61.0013608" id="Path" fill="#3C4364"></path>
                        <path d="M224.156716,90.8809524 L224,90.8809524 C222.880597,90.6269841 221.328358,88.9285714 221.61194,87.4761905 C221.763031,86.2759239 222.672423,85.3449786 223.80597,85.2301587 C223.922644,85.2188537 224.040043,85.2188537 224.156716,85.2301587 C225.268657,85.484127 223.298507,86.1746032 223.007463,87.6111111 C222.716418,89.047619 224.843284,90.7857143 224.156716,90.7857143 M224.477612,83 C222.089552,83 220.134328,85.3809524 220,88.484127 C220,88.6111111 220,88.7460317 220,88.8730159 C220,90.4603175 220.985075,91.984127 222.276119,93.1031746 C223.470113,94.1972898 224.959173,94.8612918 226.529851,95 C228.768657,95 228.977612,92.6984127 229,89.8968254 L229,88.8730159 C229,85.6349206 226.985075,83 224.522388,83" id="Shape" fill="#FCB995" fill-rule="nonzero"></path>
                        <path d="M224.300594,85 C223.140022,85.0994378 222.204163,85.9133669 222.035089,86.970339 C221.742269,88.2627119 223.345075,89.7951977 224.500945,90 L224.662767,90 C225.371701,90 223.190959,88.3615819 223.476074,87.1751412 C223.761188,85.9887006 225.787814,85.2683616 224.662767,85.0564972 C224.542292,85.0464376 224.421069,85.0464376 224.300594,85.0564972" id="Path" fill="#EA9E74"></path>
                        <polyline id="Path" fill="#DAAA27" points="281 45 256.38429 45 253 58 277.623116 58 281 45"></polyline>
                        <path d="M278,58 L252.93457,57.9658203 L251.303371,65.0188238 C252.411985,66.6425816 253.198502,68.5581667 252.838951,69.5833041 C252.652074,70.2819673 251.965362,70.7252718 251.250936,70.6084415 C251.123697,70.6156237 250.996153,70.6156237 250.868914,70.6084415 C253.955056,76.9613001 255.640449,87.4446393 254.614232,96.1096691 C254.614232,96.1096691 254.614232,110.484041 252.921348,113.073074 C251.775281,114.846487 248.808989,115.66959 246.247191,115.66959 C245.189243,115.69779 244.135925,115.51988 243.146067,115.145797 C242.211406,114.710824 241.339649,114.152077 240.554307,113.484625 L240,116.013796 C240,116.013796 257.041199,117.173623 261.573034,122 L277.825956,58.0032341" id="Path" fill="#EBB628"></path>
                        <path d="M239.209704,116.007634 L237.694911,124.923664 L235.649941,122.877863 L229,149 L254.183432,149 L261,122.10687 C256.417751,117.19084 239.186982,116 239.186982,116" id="Path" fill="#4F5A87"></path>
                        <path d="M240,116 C240,116 239.565957,116.88613 237.514894,117.60274 L236,122.934932 L238.26383,125 L239.965957,116" id="Path" fill="#FFFFFF"></path>
                        <path d="M240,114 L239.827869,114.725953 C239.356099,114.81323 238.875395,114.857021 238.393443,114.856624 L237.909836,114.856624 L237,118 C238.97541,117.324864 239.393443,116.490018 239.393443,116.490018 L240,114.036298" id="Path" fill="#FCB995"></path>
                        <path d="M238.556863,112.035336 L238,114 L238.462745,113.999997 C238.923907,114.000383 239.383875,113.957753 239.835294,113.872789 L240,113.166076 C239.513725,112.81272 239.027451,112.416961 238.556863,112" id="Path" fill="#EA9E74"></path>
                        <path d="M248.89144,71 L242,98 C243.914366,97.0423504 245.993876,96.4626375 248.125725,96.2923077 C248.600469,96.2923077 249.029269,96.2923077 249.419784,96.2923077 C251.625045,96.2923077 252.605161,96.6230769 253.692477,97.3615385 C254.741508,88.4538462 253.018648,77.6769231 249.863899,71.1461538 C249.572927,71.1461538 249.251327,71.0846154 248.876126,71.0307692" id="Path" fill="#FCB995"></path>
                        <path d="M250.058548,96.0304348 C249.700234,96.0304348 249.306792,96.0304348 248.871194,96.0304348 C246.915133,96.1989132 245.007097,96.7723249 243.250585,97.7195652 L242,103 C242.632319,102.703261 243.271663,102.421739 243.903981,102.155435 C243.846548,101.893375 243.813595,101.625724 243.805621,101.356522 L244.740047,101.676087 C244.806211,101.70094 244.874447,101.718777 244.943794,101.729348 C247.71897,100.61087 250.0726,99.8576087 250.0726,99.8576087 L254,97.0576087 C253.002342,96.2967391 252.103044,96 250.079625,96" id="Path" fill="#3C4364"></path>
                        <path d="M250.389442,66.0133766 L249,70.8824412 C249.364078,70.9292592 249.676145,70.9693888 249.958492,70.9827654 C250.084704,70.989185 250.211218,70.989185 250.337431,70.9827654 C251.041681,71.088375 251.721057,70.6989502 251.912627,70.0798481 C252.269275,69.1635544 251.489107,67.4513558 250.389442,66" id="Path" fill="#3C4364"></path>
                        <path d="M253.978166,96 L249.909753,98.8098175 C249.909753,98.8098175 247.471616,99.5733549 244.596798,100.688119 C245.771556,100.817677 246.952982,100.868683 248.133916,100.840827 C249.705968,100.840827 251.154294,100.840827 251.154294,100.840827 C251.154294,100.840827 251.008734,101.390574 250.652111,102.43662 C250.172896,103.764361 248.963174,104.644851 247.609898,104.650878 C247.111603,104.643981 246.618552,104.543116 246.154294,104.353099 C244.807417,103.843344 243.81512,102.628338 243.541485,101.153877 C242.886463,101.421115 242.224163,101.703624 241.569141,102.001404 L239,112.507678 C239.436681,112.958165 239.887918,113.385746 240.339156,113.767515 C241.102206,114.44858 241.949219,115.018723 242.857351,115.462568 C243.819112,115.844281 244.842532,116.02582 245.870451,115.997044 C248.359534,115.997044 251.24163,115.157153 252.355167,113.347569 C253.985444,110.70573 254,96.0381769 254,96.0381769" id="Path" fill="#3C4364"></path>
                        <path d="M243.022578,101.035211 C243.03112,101.284372 243.066418,101.532097 243.12794,101.774648 C243.410894,103.134572 244.436983,104.255195 245.829727,104.725352 C246.309795,104.900608 246.819637,104.993639 247.334901,105 C248.734262,104.994441 249.985181,104.182348 250.480715,102.957746 C250.849483,101.992958 251,101.485915 251,101.485915 C251,101.485915 249.494826,101.485915 247.876764,101.485915 C246.655614,101.511608 245.433955,101.464564 244.219191,101.34507 C244.144907,101.335287 244.071814,101.318777 244.000941,101.295775 L243,101" id="Path" fill="#FFFFFF"></path>
                        <polygon id="Path" fill="#26DDAD" points="338 109 282.515888 109 282 105 337.484112 105"></polygon>
                        <polygon id="Path" fill="#26DDAD" points="340 126 284.515888 126 284 122 339.484112 122"></polygon>
                        <polygon id="Path" fill="#26DDAD" points="348 117 283.591726 117 283 113 347.400784 113"></polygon>
                        <polygon id="Path" fill="#4251FF" points="187 10 131.508479 10 131 6 186.484043 6"></polygon>
                        <polygon id="Path" fill="#4251FF" points="189 26 133.515888 26 133 22 188.484112 22"></polygon>
                        <polygon id="Path" fill="#4251FF" points="197 18 132.599216 18 132 14 196.408274 14"></polygon>
                        <path d="M91.0124378,248 C91.0124378,248 91.870671,221.51758 91.0124378,182.499947 C90.1542047,143.482314 133.878925,107.934585 170,125.704694 C170,125.704694 146.812649,125.990098 130.310482,140.297815 C113.808315,154.605532 104.443034,162.994886 103.102985,187.494505 C101.762937,211.994123 96.8318608,248 96.8318608,248 L91.0124378,248 Z" id="Path" fill="#DADDFF"></path>
                        <path d="M74.6227166,247.925084 C74.6227166,247.925084 71.7645516,170.67925 62.4529508,140.570531 C53.14135,110.461811 65.6119753,43 65.6119753,43 C65.6119753,43 66.0632645,95.1040418 73.6374018,120.755262 C81.2115391,146.406483 94.171061,179.541807 91.6889704,209.57561 C89.2068797,239.609414 82.8211373,248 82.8211373,248 L74.6227166,247.925084 Z" id="Path" fill="#DADDFF"></path>
                        <path d="M81.7654786,146.327454 L63,140 C63.0804757,140.291347 63.1609515,140.590164 63.2487432,140.87404 C72.3059215,170.897697 75.0859924,247.925296 75.0859924,247.925296 L83.0750383,248 C83.0750383,248 89.2936179,239.625648 91.7005741,209.684167 C93.3686166,188.879021 87.7938428,166.579788 81.7654786,146.327454 Z" id="Path" fill="#C4C8F5"></path>
                        <path d="M76.5227561,247.969915 C76.5227561,247.969915 88.7014861,209.295043 67.4746322,147.702564 C46.2477782,86.1100855 20,72 20,72 C20,72 43.6625999,123.897436 53.5624878,164.512821 C63.4623757,205.128205 63.5893931,248 63.5893931,248 L76.5227561,247.969915 Z" id="Path" fill="#DADDFF"></path>
                        <path d="M104.862119,144 C96.1260279,154.813594 90.7119011,168.394505 91.0118527,182.419089 C91.8517173,221.522487 91.0118527,248 91.0118527,248 L96.8234154,248 C96.8234154,248 101.735123,211.949675 103.069908,187.419812 C104.029753,169.793203 109.113933,160.491106 118,151.324367 L104.862119,144 Z" id="Path" fill="#C4C8F5"></path>
                        <path d="M82.1904565,248 C82.1904565,248 88.6320604,210.97344 81.5238254,158.562816 C74.4155903,106.152192 142,60 142,60 C142,60 106.503766,101.570661 100.092123,135.280851 C93.6804802,168.99104 98.7813317,210.673994 94.714133,231.61279 C92.2123938,244.511448 91.9951769,248 91.9951769,248 L82.1904565,248 Z" id="Path" fill="#DADDFF"></path>
                        <path d="M96.9615184,248 C96.9615184,248 100.510878,224.83664 100.072777,190.503625 C99.634676,156.170611 121.250125,127.411186 100.072777,76.5596695 C78.8954282,25.7081526 64,27.0341276 64,27.0341276 C64,27.0341276 89.0757034,24.7867123 106.666566,56.7674321 C124.257428,88.7481518 127.903318,129.853378 116.319635,169.295516 C104.735952,208.737655 105.463645,248 105.463645,248 L96.9615184,248 Z" id="Path" fill="#DADDFF"></path>
                        <path d="M76.4109614,247.962514 C76.4109614,247.962514 86.3495998,217.479034 73.1494842,167.510418 L52,162 C52.2467311,162.929649 52.4857519,163.859297 52.7247727,164.781449 C62.9409836,205.266149 63.0643492,248 63.0643492,248 L76.4109614,247.962514 Z" id="Path" fill="#C4C8F5"></path>
                        <path d="M84.222739,176.124379 C87.8837209,219.045436 83,248 83,248 L92.4780362,248 C92.4780362,248 92.6806202,244.525154 95.1043928,231.677172 C97.6439276,218.180453 96.4645995,196.04136 97,173 L84.222739,176.124379 Z" id="Path" fill="#DADDFF"></path>
                        <path d="M99.9858491,193 C100.198113,225.965371 97,248 97,248 L105.09434,248 C105.143918,231.67076 106.450169,215.37326 109,199.270873 L99.9858491,193 Z" id="Path" fill="#C4C8F5"></path>
                        <path d="M59.9318838,247 C48.4965178,260.617182 41,283.292389 41,308.974378 C41,332.297664 47.1810769,353.149209 56.889927,367 L113.110073,367 C122.826397,353.16428 129,332.335343 129,308.974378 C129,283.292389 121.525905,260.617182 110.060642,247 L59.9318838,247 Z" id="Path" fill="#333367"></path>
                        <path d="M93,247 L59.789729,247 C48.4402282,260.617182 41,283.292389 41,308.974378 C41,332.297664 47.1346648,353.149209 56.7706134,367 L93,367 L93,247 Z" id="Path" fill="#27274C"></path>
                        <rect id="Rectangle" fill="#A9C2DC" x="0" y="366" width="590" height="1"></rect>
                    </g>
                </g>
            </g>
        </g>
    </g>
</svg>