<?xml version="1.0" encoding="UTF-8"?>
<svg width="527px" height="362px" viewBox="0 0 527 362" version="1.1" xmlns="http://www.w3.org/2000/svg" xmlns:xlink="http://www.w3.org/1999/xlink">
    <!-- Generator: sketchtool 52.5 (67469) - http://www.bohemiancoding.com/sketch -->
    <title>C9D8324C-AF9F-465C-B2E5-162DEBF6B545</title>
    <desc>Created with sketchtool.</desc>
    <g id="Settings---Invite-team" stroke="none" stroke-width="1" fill="none" fill-rule="evenodd">
        <g id="Settings---Team_member_empty_state_B" transform="translate(-815.000000, -334.000000)">
            <g id="Team_Members_Illustration" transform="translate(815.000000, 334.000000)">
                <path d="M14.1808728,232.219535 C7.85741153,233.195713 -0.0732628137,235.989084 0.00051090111,242.481918 C0.0373977585,245.775892 2.34019157,248.58428 4.57975077,250.992186 C14.0987803,261.296439 24.9586227,270.408783 36.8979074,278.109905 C42.5995616,281.779332 48.7280495,285.288566 52.5168567,290.96041 C56.3056639,296.632253 57.2594527,303.850963 57.5598171,310.71925 C58.2986574,326.980728 56.2810285,343.249309 51.5841462,358.902386 C70.1487746,362.261439 90.8528407,365.20499 106.324243,354.597191 C115.588113,348.244526 121.85361,337.601685 132.17666,333.19637 C139.069233,330.252818 146.873438,330.513132 154.387818,330.888585 C189.957287,332.667398 225.438931,336.004758 260.832749,340.900666 C275.655996,342.953142 290.763799,345.275945 305.42896,342.622743 C320.09412,339.969542 334.522151,331.314099 339.92871,317.282168 C340.7613,315.119559 341.509576,312.706648 343.374997,311.405077 C345.061253,310.243676 347.269195,310.268706 349.31905,310.338791 L473.195657,314.383671 C479.982838,314.603937 487.00715,314.784154 493.219951,312.130953 C499.243048,309.562855 503.874983,304.621893 508.333023,299.781052 C518.529604,288.737728 529.49554,275.151335 526.497166,260.163251 C524.09952,248.148755 513.381253,239.753626 502.752569,233.876535 C492.123884,227.999444 480.399133,223.188639 472.589658,213.792302 C460.706821,199.490045 461.175811,179.020347 460.438074,160.462957 C459.765763,143.659247 457.588601,126.940429 453.930178,110.487659 C450.710482,96.025209 446.226094,81.5427351 437.842239,69.3279973 C429.458383,57.1132595 416.637565,47.3314572 402.135761,45.5392948 C383.196994,43.1964681 364.158106,54.4200099 345.630365,49.6542598 C329.979798,45.6494277 319.208836,31.4172558 306.240471,21.5553568 C283.207263,4.03421655 252.981118,0.36478917 224.404343,0.0293844846 C194.104424,-0.336056441 163.003534,2.57745888 135.997085,16.0937671 C129.810632,19.1874999 123.761187,22.9320178 119.477042,28.3986136 C112.911181,36.7837307 111.319777,48.0473209 107.025093,57.8491474 C89.7146176,97.3167674 33.4147342,105.827036 15.1399311,144.874148 C8.65311374,158.725861 8.71634835,174.880352 13.4431356,189.427905 C18.5282524,205.081792 32.8403531,213.727223 38.5156596,227.373689 C32.4082499,231.108195 21.584592,231.073152 14.1808728,232.219535 Z" id="Shape" fill="#4454FF" fill-rule="nonzero" opacity="0.0435221354"></path>
                <g id="teamwork_white_5" transform="translate(38.000000, 16.000000)">
                    <polygon id="Path" fill="#222747" points="202.650519 232.72381 202.650519 293.638095 129.413564 293.638095 127.245675 238.138972"></polygon>
                    <path d="M117.750356,92.152381 L104.338115,163.331254 L70.6920415,174.725893 C70.6920415,174.725893 59.3620614,177.785532 60.536197,182.742857 L60.536197,195.238095 C60.536197,195.238095 109.208842,183.488103 117.518109,180.836217 C125.827377,178.184332 125.788669,113.644621 125.640289,106.55193 C125.49191,99.4592387 117.750356,92.152381 117.750356,92.152381 Z" id="Path" fill="#60637C"></path>
                    <path d="M189.849859,86.0106067 L227.132646,115.308975 L292.012841,103.535829 C292.012841,103.535829 296.26937,111.978875 296.587972,115.117956 L296.906574,118.263405 C296.906574,118.263405 232.918466,137.8365 224.609315,137.441727 C216.300164,137.046954 185.370242,111.794223 185.370242,111.794223 L189.849859,86.0106067 Z" id="Path" fill="#D49D24"></path>
                    <path d="M142.265298,79.6571429 L116.249135,90.6850022 L117.939161,243.725846 C117.939161,243.725846 167.929373,253.505866 187.646347,248.457501 L207.363322,243.390133 L193.343785,91.1093942 C193.109011,88.6152028 191.31532,86.5361466 188.862654,85.9153422 L165.637595,79.9611849 L142.265298,79.6571429 Z" id="Path" fill="#E2A827"></path>
                    <path d="M117.820069,114.019048 L119.209997,242.19252 C119.209997,242.19252 158.349099,249.918753 180.657439,248.051843 L117.820069,114.019048 Z" id="Path" fill="#E2A827"></path>
                    <polygon id="Path" fill="#E68D5C" points="239.147007 146.824501 235.777936 183.295968 207.363322 236.055167 216.364461 240.533333 254.746439 186.936078 256.062284 145.257143"></polygon>
                    <path d="M311.215424,263.250268 C311.215424,263.250268 312.615917,275.918024 312.615917,281.876059 C312.615917,287.834094 309.923151,296.761905 309.923151,296.761905 L263.916955,296.761905 L267.252675,259.27619 L311.215424,263.250268 Z" id="Path" fill="#303D72"></path>
                    <path d="M235.640138,146.906563 C235.640138,146.906563 239.510534,122.216476 246.785386,115.323693 C252.003897,110.366511 257.091945,110.50705 260.645502,111.337506 C264.199059,112.167961 267.479266,124.720619 264.018897,141.64914 C261.639504,153.384118 261.328879,154.617025 261.328879,154.617025 C261.328879,154.617025 242.604365,155.262225 235.640138,146.906563 Z" id="Path" fill="#3847EC"></path>
                    <path d="M287.267868,104.647619 L317.32872,117.915406 L311.806949,263.961905 L238.782007,263.961905 L245.361003,120.62569 C245.49307,117.820687 247.067318,115.277977 249.532583,113.887797 L265.454644,104.943859 L287.267868,104.647619 Z" id="Path" fill="#4353FF"></path>
                    <path d="M130.958754,181.180952 L137.29646,243.583477 L205.109915,272.166034 C205.109915,272.166034 210.18008,278.088772 205.109915,285.828571 L128.816609,263.784919 L130.958754,181.180952 Z" id="Path" fill="#29D3A3"></path>
                    <path d="M87.7524312,166.923078 L64.7599453,175.82452 C60.6556408,177.401601 57.9949888,181.415564 58.1294368,185.827563 L61.6778934,298.32381 L133.529412,298.32381 L131.777243,182.851974 C131.698287,177.380893 128.203838,172.550351 123.047914,170.785013 L107.782618,165.561905 L87.7524312,166.923078 Z" id="Path" fill="#27DDAA"></path>
                    <rect id="Rectangle" fill="#4454FF" x="380.16609" y="99.9619048" width="1.57093426" height="199.92381"></rect>
                    <rect id="Rectangle" fill="#4454FF" x="388.020761" y="117.142857" width="1.57093426" height="176.495238"></rect>
                    <rect id="Rectangle" fill="#4454FF" x="384.878893" y="154.628571" width="1.57093426" height="145.257143"></rect>
                    <rect id="Rectangle" fill="#4454FF" x="369.16955" y="185.866667" width="1.57093426" height="114.019048"></rect>
                    <rect id="Rectangle" fill="#4454FF" x="392.733564" y="218.666667" width="1.57093426" height="81.2190476"></rect>
                    <path d="M365.525096,140.353577 C376.33004,134.894605 388.507847,137.350506 392.804402,145.84436 C397.100956,154.338214 391.851024,165.618815 381.103283,171.103236 C370.355542,176.587657 347.480839,196.985631 343.184285,188.523589 C338.887731,180.061548 354.758287,145.812548 365.525096,140.353577 Z" id="Path" fill="#DADDFF"></path>
                    <path d="M352.736501,248.173219 C361.833523,238.260751 377.456125,237.950788 387.63553,247.496362 C397.814935,257.041937 398.678339,272.799409 389.581317,282.724529 C380.484295,292.649649 366.632296,324.860427 356.459147,315.321178 C346.285999,305.78193 343.639479,258.092013 352.736501,248.173219 Z" id="Path" fill="#C4C8F5"></path>
                    <path d="M343.907165,189.940933 C356.440274,181.548928 372.022493,182.654461 378.705124,192.41582 C385.387755,202.177179 380.655284,216.913439 368.128526,225.2866 C355.601769,233.65976 330.433913,262.3471 323.74493,252.592023 C317.055946,242.836945 331.380407,198.332937 343.907165,189.940933 Z" id="Path" fill="#DADDFF"></path>
                    <path d="M343.84699,189.878538 C332.088383,197.703174 318.745912,237.187394 322.775263,249.904762 C333.627899,217.666266 340.679262,208.129797 351.918362,196.41463 C356.411884,191.735642 361.72261,187.885911 367.598616,185.048055 C360.382531,183.211725 351.538234,184.761712 343.84699,189.878538 Z" id="Path" fill="#C4C8F5"></path>
                    <path d="M416.157611,148.506806 C402.111458,143.863875 387.779914,149.130856 384.150497,160.251423 C380.52108,171.371991 388.952495,184.165012 402.998648,188.801702 C417.044802,193.438392 448.450115,214.044516 452.079531,202.917708 C455.708948,191.7909 430.19756,153.143496 416.157611,148.506806 Z" id="Path" fill="#DADDFF"></path>
                    <path d="M416.940768,150.089305 C430.442037,154.524144 454.338648,189.52136 453.996363,203.047619 C434.543126,174.48092 425.092238,167.081074 411.001478,158.699229 C405.370212,155.346917 399.182898,153.031579 392.733564,151.863241 C399.192622,148.106299 408.111065,147.193989 416.940768,150.089305 Z" id="Path" fill="#C4C8F5"></path>
                    <polygon id="Path" fill="#2AD7A6" points="58.1245675 212.371081 60.814316 298.32381 131.958478 298.32381 131.28448 277.323385 72.4095662 244.730424 77.7391376 201.485714"></polygon>
                    <path d="M400.155502,107.163462 C390.878584,110.918269 385.852528,119.657061 388.921536,126.683564 C391.990543,133.710067 401.998177,136.376347 411.26874,132.62154 C420.539304,128.866734 445.815727,125.515538 442.74672,118.48292 C439.677712,111.450302 409.426065,103.414771 400.155502,107.163462 Z" id="Path" fill="#DADDFF"></path>
                    <path d="M380.155381,83.5729395 C385.98915,87.6109379 388.157624,94.6419573 384.997665,99.2733995 C381.837707,103.904842 374.558288,104.382177 368.730915,100.344179 C362.903542,96.3061803 345.997123,90.2427323 349.131495,85.6177406 C352.265867,80.9927489 374.328007,79.5413917 380.155381,83.5729395 Z" id="Path" fill="#DADDFF"></path>
                    <path d="M399.47161,105.642286 C408.235276,101.963888 435.656038,109.167683 441.432526,116.135601 C419.092519,110.238689 411.043734,110.646692 400.250319,112.591079 C395.935612,113.371316 391.794465,114.91263 388.020761,117.142857 C389.622859,112.425328 393.739803,108.052051 399.47161,105.642286 Z" id="Path" fill="#C4C8F5"></path>
                    <rect id="Rectangle" fill="#D2D6FA" x="0" y="292.07619" width="438.290657" height="6.24761905"></rect>
                    <rect id="Rectangle" fill="#4454FF" x="0" y="298.32381" width="438.290657" height="3.12380952"></rect>
                    <path d="M346.548707,263.71326 C359.671745,256.166906 375.09084,258.478057 381.002233,268.884619 C386.913626,279.291181 381.06566,293.841215 367.948964,301.387569 C354.832268,308.933922 327.57136,336.067597 321.647282,325.648266 C315.723203,315.228935 333.432011,271.265998 346.548707,263.71326 Z" id="Path" fill="#DADDFF"></path>
                    <path d="M346.594094,263.699097 C334.218831,270.78644 317.799031,310.062928 320.838792,323.314286 C334.193393,291.265232 342.002655,282.070152 354.161701,270.983841 C359.024001,266.549988 364.638529,263.021959 370.740484,260.566148 C363.656187,258.165493 354.689526,259.063351 346.594094,263.699097 Z" id="Path" fill="#C4C8F5"></path>
                    <path d="M426.648203,224.034792 C410.173638,212.703833 388.324615,212.703833 377.845362,224.085152 C367.366108,235.466472 372.20124,253.872986 388.70089,265.216536 C405.20054,276.560085 436.857793,313.807467 447.337046,302.438738 C457.816299,291.070008 443.122768,235.378342 426.648203,224.034792 Z" id="Path" fill="#DADDFF"></path>
                    <path d="M426.769092,224.02367 C442.196327,234.714665 456.050883,284.572436 448.942622,299.885714 C437.709199,259.184467 429.009536,246.808067 414.761811,231.394168 C408.890128,225.096374 401.965683,219.887552 394.304498,216.005423 C404.564358,214.376619 416.65277,217.049368 426.769092,224.02367 Z" id="Path" fill="#C4C8F5"></path>
                    <path d="M118.766947,271.771429 C118.766947,271.771429 131.224908,275.576917 137.609612,277.727845 C143.994317,279.878773 147.962178,283.267312 147.650729,284.425504 C147.33928,285.583697 146.872106,285.828571 146.872106,285.828571 L120.866113,285.828571 L109.965398,279.170621 L118.766947,271.771429 Z" id="Path" fill="#FBAD83"></path>
                    <path d="M58.8054005,179.619048 C58.8054005,179.619048 34.9449256,238.686671 39.9681835,257.0543 C44.9914413,275.421929 118.042169,285.828571 118.042169,285.828571 C118.042169,285.828571 120.170775,280.470821 120.553798,276.373718 L120.961938,272.276614 L57.1351673,250.202682 C57.1351673,250.202682 77.6551757,208.689571 78.7791297,195.364531 C79.9030836,182.03949 58.8054005,179.619048 58.8054005,179.619048 Z" id="Path" fill="#27DDAA"></path>
                    <path d="M166.519031,285.828571 L266.239189,285.828571 C268.427067,285.828571 270.200692,284.073776 270.200692,281.909126 L270.200692,213.214684 C270.200692,211.050034 268.427067,209.295238 266.239189,209.295238 L166.519031,209.295238 L166.519031,285.828571 Z" id="Path" fill="#D2D6FA"></path>
                    <path d="M163.377163,285.828571 L165.33937,285.828571 C167.724308,285.825098 169.656614,284.258835 169.6609,282.325685 L169.6609,212.798124 C169.656614,210.864974 167.724308,209.298712 165.33937,209.295238 L163.377163,209.295238 L163.377163,285.828571 Z" id="Path" fill="#474463"></path>
                    <path d="M212.076125,248.342857 C212.076125,252.674606 214.539164,256.152381 217.577299,256.152381 C220.615434,256.152381 223.072664,252.656041 223.072664,248.342857 C223.072664,244.029673 220.609625,240.533333 217.577299,240.533333 C214.544973,240.533333 212.076125,244.029673 212.076125,248.342857 Z" id="Path" fill="#FFFFFF"></path>
                    <rect id="Rectangle" fill="#303D72" x="106.823529" y="285.828571" width="56.5536332" height="6.24761905"></rect>
                    <rect id="Rectangle" fill="#303D72" x="163.377163" y="285.828571" width="100.539792" height="6.24761905"></rect>
                    <polygon id="Path" fill="#3847EC" points="309.531873 263.961905 314.186851 138.702732 302.058745 135.885714 273.342561 263.961905"></polygon>
                    <path d="M87.9723183,166.903382 C87.9723183,166.903382 93.4317896,176.649371 101.802131,176.493385 C110.172473,176.3374 108.189522,165.561905 108.189522,165.561905 L87.9723183,166.903382 Z" id="Path" fill="#29D4A4"></path>
                    <path d="M122.794839,115.580952 C122.794839,115.580952 126.914631,149.166532 125.299272,155.732418 C123.683913,162.298304 107.142136,160.962443 98.9338584,160.294512 C90.7255807,159.626581 86.3553459,160.741899 82.7614852,158.725504 C79.1676245,156.709109 85.7542821,135.700794 85.7542821,135.700794 L122.794839,115.580952 Z" id="Path" fill="#B8920E"></path>
                    <path d="M115.565686,162.435384 C110.4258,162.553966 106.020549,158.76947 105.341698,153.652083 C104.662848,148.534696 107.927926,143.72422 112.919502,142.487623 C113.086394,142.443205 113.257795,142.541958 113.303828,142.709054 C113.348408,142.878216 113.250581,143.052228 113.083313,143.101303 C108.283281,144.417755 105.321993,149.246065 106.311364,154.142806 C107.300735,159.039547 111.901824,162.327189 116.833255,161.66107 C121.764685,160.994951 125.337041,156.603271 125.00261,151.618062 C124.668179,146.632854 120.541532,142.761956 115.565686,142.765993 C115.391704,142.765993 115.250664,142.624367 115.250664,142.449663 C115.254016,142.276372 115.393112,142.136699 115.565686,142.133333 C121.148763,142.133333 125.67474,146.678102 125.67474,152.284359 C125.67474,157.890615 121.148763,162.435384 115.565686,162.435384 Z" id="Path" fill="#FFFFFF"></path>
                    <path d="M108.394464,151.450459 L106.778646,165.451994 C106.778646,165.451994 104.855053,168.68262 94.8010734,168.68262 C91.8971333,168.735702 89.0209685,168.105163 86.4013841,166.841163 L86.4013841,142.133333 L108.394464,151.450459 Z" id="Path" fill="#F2A880"></path>
                    <path d="M109.965398,150.887771 L108.836273,160.82146 C106.963569,160.966535 105.080141,160.82279 103.24939,160.395065 C100.834499,159.828758 93.9357434,152.55338 89.5432526,142.133333 L109.965398,150.887771 Z" id="Path" fill="#E68D5C"></path>
                    <path d="M121.738794,108.613226 C121.738794,108.613226 124.028518,131.222106 120.831663,142.168711 C117.634807,153.115317 107.6939,157.726707 98.8790875,155.741507 C95.6134151,154.994723 83.789429,141.770427 82.2942265,125.434531 C80.799024,109.098636 82.2254096,104.176086 84.8967546,100.722211 C87.5680997,97.2683355 111.84168,92.9681055 116.252214,96.7455869 C120.662749,100.523068 121.738794,108.613226 121.738794,108.613226 Z" id="Path" fill="#F2A880"></path>
                    <path d="M115.99654,141.700273 C115.99654,141.700273 107.736917,141.935878 106.362349,141.464667 L105,141 C105,141 105.036655,145.325983 108.867116,146.818152 C112.697578,148.310322 114.79303,145.555044 115.306201,144.030151 C115.819373,142.505259 115.99654,141.700273 115.99654,141.700273 Z" id="Path" fill="#DADDFF"></path>
                    <path d="M113.107266,107.542034 C113.107266,107.542034 120.446552,118.378646 122.298349,118.694714 C124.150145,119.010781 124.353842,111.812175 123.897066,105.336009 C123.150175,95.1057312 116.34791,90.5904762 116.34791,90.5904762 L113.107266,107.542034 Z" id="Path" fill="#3D3F3F"></path>
                    <path d="M114.084994,117.951694 C109.427428,125.388755 91.9412362,122.676864 88.8153528,122.89915 C85.6894694,123.121436 89.2592282,148.13181 91.4786055,156.470718 C93.6979827,164.809626 77.7247185,162.326371 72.6232768,161.202238 C67.5218351,160.078105 64.8585824,116.148 71.5167141,99.1335793 C78.1748457,82.1191582 105.670116,82.7796658 113.209747,86.507723 C117.630857,88.69553 120.580566,93.0985182 120.961938,98.0793076 C120.961938,98.0793076 118.742561,110.514633 114.084994,117.951694 Z" id="Path" fill="#3D3F3F"></path>
                    <path d="M81.6885813,136.552182 C81.6885813,139.505899 86.6391851,142.133333 89.6729612,142.133333 C92.7067373,142.133333 92.685119,139.505899 92.685119,136.552182 C92.685119,133.598464 90.2206262,131.2 87.1868501,131.2 C84.153074,131.2 81.6885813,133.575567 81.6885813,136.552182 Z" id="Path" fill="#FBAD83"></path>
                    <path d="M82.7597651,134.914464 C83.0934556,133.178889 85.6812592,132.092446 87.0841212,132.365765 C88.4869832,132.639084 84.802768,133.629865 84.4690775,135.358607 C84.1353871,137.087349 86.1034798,138.816091 84.7006179,138.542772 C83.2977559,138.269453 82.4260747,136.643206 82.7597651,134.914464 Z" id="Path" fill="#E68D5C"></path>
                    <path d="M101.176576,129.638095 C100.893857,129.637397 100.645292,129.458843 100.565678,129.199262 C100.486064,128.939682 100.594365,128.660911 100.831851,128.514128 L106.417673,125.050598 C106.566888,124.958079 106.749665,124.929299 106.921993,124.971187 L111.058694,126.003527 C111.400684,126.089554 111.60504,126.424577 111.515135,126.75182 C111.425231,127.079063 111.075111,127.274607 110.73312,127.188579 L106.870923,126.223433 L101.521301,129.540359 C101.418551,129.603867 101.298897,129.637792 101.176576,129.638095 Z" id="Path" fill="#BB7643"></path>
                    <path d="M125.071311,128.076174 C124.960934,128.075884 124.852963,128.043401 124.760247,127.982591 L122.000992,126.16942 L118.544723,127.093552 C118.345096,127.146838 118.132635,127.08794 117.987373,126.939045 C117.842112,126.79015 117.786117,126.573878 117.840482,126.371698 C117.894847,126.169517 118.051313,126.012144 118.25094,125.958858 L121.98371,124.970388 C122.139212,124.93028 122.304142,124.957837 122.438786,125.046424 L125.411178,126.999969 C125.626383,127.141098 125.723935,127.409577 125.650564,127.658806 C125.577193,127.908034 125.350535,128.078114 125.094353,128.076174 L125.071311,128.076174 Z" id="Path" fill="#BB7643"></path>
                    <path d="M87.2847028,160.406458 C82.14849,160.510558 77.7519676,156.736265 77.0668696,151.634731 C76.3817717,146.533196 79.626224,141.728678 84.6072094,140.468688 C84.781589,140.421511 84.9611195,140.524912 85.0082019,140.699639 C85.0552844,140.874367 84.9520897,141.054256 84.7777102,141.101432 C79.9667038,142.41806 76.998646,147.247015 77.9902788,152.14441 C78.9819116,157.041805 83.5935203,160.329886 88.5362248,159.663678 C93.4789293,158.997469 97.0594521,154.605203 96.7242568,149.619329 C96.3890616,144.633455 92.2529799,140.76204 87.2657583,140.766078 C87.0913787,140.766078 86.9500162,140.624433 86.9500162,140.449705 C86.9500162,140.274978 87.0913787,140.133333 87.2657583,140.133333 C92.8615988,140.133333 97.3979239,144.678709 97.3979239,150.285714 C97.3979239,155.892719 92.8615988,160.438095 87.2657583,160.438095 L87.2847028,160.406458 Z" id="Path" fill="#FFFFFF"></path>
                    <path d="M285.910035,76.5333333 L285.910035,104.251463 C285.910035,104.251463 281.188022,108.205781 272.884455,107.732021 C265.195967,107.296162 263.978623,104.57362 263.978623,104.57362 L260.775087,90.1965772 L285.884406,76.5586005" id="Path" fill="#F2A880"></path>
                    <path d="M264.853294,101.499909 C267.836777,100.326376 270.619808,98.7291268 273.109253,96.7616133 C276.864712,93.9912595 279.679556,90.2127697 281.197232,85.9047619 L264.834629,88.892338 L262.346021,90.2188217 L264.909288,101.52381" id="Path" fill="#E68D5C"></path>
                    <rect id="Rectangle" fill="#1A2249" x="243.49481" y="59.352381" width="14.1384083" height="1.56190476"></rect>
                    <path d="M247.399653,40.4366967 C247.399653,40.4366967 245.065744,46.4775693 245.065744,51.7625252 C245.065744,56.0202098 246.708124,64.0380952 246.708124,64.0380952 L256.062284,39.047619 L247.399653,40.4366967 Z" id="Path" fill="#462518"></path>
                    <path d="M282.730952,85.1584627 C290.759014,77.172335 289.66256,46.654143 287.425541,40.8734683 C285.188522,35.0927937 266.630716,30.4054206 256.876053,34.1314424 C247.12139,37.8574642 240.864038,70.8261596 248.41319,86.6664647 C255.974944,102.500487 274.702889,93.1445903 282.730952,85.1584627 Z" id="Path" fill="#F2A880"></path>
                    <path d="M245.065744,76.5333333 C245.441665,80.4914543 246.427588,84.3614601 247.985951,87.9959071 C250.955969,94.450059 255.669395,96.8380952 260.775087,96.8380952 C255.675621,96.8380952 250.955969,94.4629673 247.992177,87.9959071 C246.433815,84.3614601 245.447892,80.4914543 245.07197,76.5333333" id="Path" fill="#D7C5BE"></path>
                    <path d="M286.166557,65.2784889 C283.392559,65.0249885 280.841247,63.6696149 279.096273,61.5224302 C277.351298,59.3752454 276.561966,56.6199683 276.908847,53.8869099 C277.342404,50.4448501 278.368913,49.3416257 277.463544,46.0823859 C275.691063,39.5765146 267.772278,40.188016 262.454833,42.6214137 C257.137388,45.0548113 251.329004,45.042203 246.751156,41.6190556 C244.570621,39.9925877 241.829012,35.4599119 244.793775,30.7255035 C247.758537,25.9910952 258.304165,20.3047619 258.304165,20.3047619 C258.304165,20.3047619 257.028999,23.1479286 257.449804,24.6230971 C257.870609,26.0982656 285.892396,17.7704981 291.630646,30.0824814 C297.368896,42.3944647 289.717896,65.6 289.717896,65.6 L286.166557,65.2784889 Z" id="Path" fill="#462518"></path>
                    <path d="M290.622837,66.9994771 C290.622837,71.2225973 285.661499,74.9714286 282.618086,74.9714286 C279.574673,74.9714286 279.626353,71.2225973 279.626353,66.9994771 C279.626353,62.7763569 282.095538,59.352381 285.138951,59.352381 C288.182364,59.352381 290.622837,62.7763569 290.622837,66.9994771 Z" id="Path" fill="#F2A880"></path>
                    <path d="M287.443807,64.9319288 C287.752332,66.5420886 286.073145,68.4233749 284.874449,68.7000346 C283.675753,68.9766944 286.255226,66.780016 285.941643,65.1698562 C285.62806,63.5596965 283.503788,62.7961156 284.702484,62.5194558 C285.901181,62.2427961 287.130224,63.3217691 287.443807,64.9319288 Z" id="Path" fill="#E68D5C"></path>
                    <path d="M248.99308,70.2857143 C245.961499,70.2857143 243.49481,66.7834697 243.49481,62.4761905 C243.49481,58.1689113 245.961499,54.6666667 248.99308,54.6666667 C252.02466,54.6666667 254.491349,58.1689113 254.491349,62.4761905 C254.491349,66.7834697 251.993277,70.2857143 248.99308,70.2857143 Z M248.99308,55.3547304 C246.30671,55.3547304 244.122466,58.5473463 244.122466,62.4761905 C244.122466,66.4050346 246.30671,69.5976505 248.99308,69.5976505 C251.679449,69.5976505 253.863693,66.398154 253.863693,62.4761905 C253.863693,58.554227 251.648066,55.3547304 248.99308,55.3547304 Z" id="Shape" fill="#1A2249" fill-rule="nonzero"></path>
                    <path d="M261.560554,70.2857143 C258.528973,70.2857143 256.062284,66.7834697 256.062284,62.4761905 C256.062284,58.1689113 258.528973,54.6666667 261.560554,54.6666667 C264.592134,54.6666667 267.058824,58.1689113 267.058824,62.4761905 C267.058824,66.7834697 264.592134,70.2857143 261.560554,70.2857143 Z M261.560554,55.3547304 C258.874184,55.3547304 256.68994,58.5473463 256.68994,62.4761905 C256.68994,66.4050346 258.874184,69.5976505 261.560554,69.5976505 C264.246923,69.5976505 266.431167,66.398154 266.431167,62.4761905 C266.431167,58.554227 264.246923,55.3547304 261.560554,55.3547304 Z" id="Shape" fill="#1A2249" fill-rule="nonzero"></path>
                    <rect id="Rectangle" fill="#1A2249" x="267.058824" y="59.352381" width="12.567474" height="1.56190476"></rect>
                    <rect id="Rectangle" fill="#1A2249" x="252.920415" y="59.352381" width="1.57093426" height="1.56190476"></rect>
                    <path d="M248.207612,78.0952381 L259.204152,78.0952381 C259.204152,78.0952381 257.00013,84.1744823 253.263899,84.3397165 C249.527669,84.5049508 248.207612,78.0952381 248.207612,78.0952381 Z" id="Path" fill="#DADDFF"></path>
                    <path d="M328.638354,146.819048 L310.225129,153.166974 L319.114272,189.001019 L299.367676,266.096587 L293.767515,269.403857 C293.767515,269.403857 293.450046,277.656162 299.564507,279.243143 C305.678967,280.830125 307.894904,276.310401 307.894904,276.310401 L307.894904,270.260827 C312.790282,257.895066 337.356063,195.698082 337.737027,191.686192 C338.162436,187.229948 328.638354,146.819048 328.638354,146.819048 Z" id="Path" fill="#F2A880"></path>
                    <path d="M307.973148,156.840475 C307.973148,156.840475 300.970901,135.219607 303.911477,126.49697 C306.031143,120.207961 310.123445,118.088142 313.278438,117.204351 C316.433431,116.320559 324.140192,125.011175 328.318261,140.176524 C331.209828,150.679552 331.467128,151.806707 331.467128,151.806707 C331.467128,151.806707 316.905149,160.535748 307.973148,156.840475 Z" id="Path" fill="#4353FF"></path>
                    <path d="M290.47499,105.461912 C290.47499,105.461912 292.416268,103.629753 297.411824,105.461912 C302.40738,107.294071 303.416845,110.298811 303.151537,113.309659 C302.886229,116.320506 296.777673,117.847305 292.921001,116.827404 C289.064328,115.807502 285.647678,111.837825 285.925928,110.225525 C286.204178,108.613225 290.47499,105.461912 290.47499,105.461912 Z" id="Path" fill="#A55B3A"></path>
                    <polygon id="Path" fill="#D49D24" points="150.952799 90.5904762 159.265506 84.7438746 168.089965 88.8509395 166.908997 79.9711386 142.955017 79.6571429"></polygon>
                    <path d="M142.955017,49.9809524 L142.955017,79.0893242 C142.955017,79.0893242 147.976745,83.237003 156.812687,82.7395302 C164.984176,82.279368 166.281136,79.4002447 166.281136,79.4002447 L169.6609,64.301948 L142.955017,49.9809524 Z" id="Path" fill="#FBAD83"></path>
                    <path d="M166.939084,77.8909003 C162.673458,78.8811413 157.744429,76.1110556 154.061608,73.0561947 C147.272568,67.4254131 144.525952,56.2285714 144.525952,56.2285714 L166.988684,63.2767567 L169.6609,64.8106593 L166.939084,77.8909003 Z" id="Path" fill="#E89A70"></path>
                    <path d="M185.162269,13.4167884 C185.162269,13.4167884 188.748467,14.9030011 188.499747,24.4250568 C188.378279,28.9287318 186.862821,37.4857143 186.862821,37.4857143 L177.515571,10.9333333 L185.162269,13.4167884 Z" id="Path" fill="#1A2249"></path>
                    <path d="M184.918161,64.1505376 C176.82841,81.1782769 156.749623,71.1161431 148.147142,62.5357836 C139.54466,53.9554241 140.741032,21.1537546 143.121115,14.9290362 C145.501198,8.70431786 165.371095,3.6700848 175.853589,7.68480651 C186.336082,11.6995282 193.007911,47.116466 184.918161,64.1505376 Z" id="Path" fill="#F2A880"></path>
                    <path d="M154.37187,35.9238095 C154.37187,35.9238095 156.635913,54.6598424 161.863097,56.1582214 C166.352702,57.4173634 172.541943,51.1783148 180.591164,50.8446422 C185.08077,50.6557709 186.690614,51.0712877 188.512111,52.280064 C188.101666,56.3978737 187.018872,60.4240268 185.30525,64.2041387 C177.108513,81.1333028 156.764188,71.1294197 148.04794,62.5987327 C143.853366,58.4561555 141.929249,48.6789179 141.384083,38.996116 L154.37187,35.9238095 Z" id="Path" fill="#1A1E31"></path>
                    <path d="M149.406736,41.9659698 C149.406736,41.9659698 151.8701,42.2152761 152.875555,40.7258307 C153.88101,39.2363853 150.990327,30.8238956 153.912431,21.9000083 C155.992466,15.5075389 165.450026,11.8446539 173.192029,13.3916315 C180.934032,14.9386091 182.882101,15.6353883 183.673897,13.3468842 C184.465693,11.0583802 181.355066,5.67592093 178.646622,3.54722862 C175.938178,1.41853631 163.369991,-2.34662818 152.881839,2.01303596 C142.393688,6.3727001 140.313653,9.26848874 137.938265,16.1851406 C135.562878,23.1017925 137.102481,40.4317771 137.938265,41.5376743 C138.77405,42.6435715 149.406736,41.9659698 149.406736,41.9659698 Z" id="Path" fill="#1A1E31"></path>
                    <path d="M138.242215,40.4450487 C138.242215,44.6665775 143.896656,48.4190476 147.36545,48.4190476 C150.834244,48.4190476 150.809686,44.6665775 150.809686,40.4450487 C150.809686,36.2235198 147.997814,32.8 144.522881,32.8 C141.047947,32.8 138.242215,36.2235198 138.242215,40.4450487 Z" id="Path" fill="#FBAD83"></path>
                    <path d="M188.512111,49.9809524 C188.512111,49.9809524 188.512111,70.64029 186.006906,74.3677189 C183.501701,78.0951477 175.288022,78.9002216 171.569359,77.3471263 C167.850696,75.7940309 161.783403,70.1902093 160.302462,65.4485142 C158.821521,60.706819 182.320863,53.9112345 182.320863,53.9112345 L188.512111,49.9809524 Z" id="Path" fill="#1A1E31"></path>
                    <path d="M139.870488,38.3784034 C139.400484,39.9854245 141.921411,41.8671944 143.723091,42.1471272 C145.52477,42.4270599 141.650803,40.2290697 142.120807,38.6168646 C142.59081,37.0046596 145.781136,36.2478044 143.979456,35.9678717 C142.177777,35.687939 140.33337,36.7713823 139.870488,38.3784034 Z" id="Path" fill="#E89A70"></path>
                    <path d="M183.799308,56.928844 C183.799308,56.928844 175.539685,57.1644497 174.165117,56.6932383 L172.802768,56.2285714 C172.802768,56.2285714 172.839423,60.5545542 176.669885,62.0467237 C180.500346,63.5388933 182.595798,60.7836153 183.10897,59.2587227 C183.622141,57.7338302 183.799308,56.928844 183.799308,56.928844 Z" id="Path" fill="#DADDFF"></path>
                    <path d="M181.244892,31.2190326 C180.957788,31.2160948 180.714052,31.0226712 180.665904,30.7595602 C180.617755,30.4964492 180.778982,30.2389938 181.048893,30.1479822 C183.334015,29.5189266 185.76629,29.5189266 188.051412,30.1479822 C188.265478,30.1937937 188.434863,30.3456913 188.491798,30.5429023 C188.548732,30.7401133 188.483918,30.9504313 188.323287,31.0897101 C188.162655,31.228989 187.932439,31.2744832 187.724746,31.2079909 C185.671599,30.6600665 183.494039,30.6600665 181.440891,31.2079909 C181.37667,31.2217543 181.310432,31.2254858 181.244892,31.2190326 Z" id="Path" fill="#1A2249"></path>
                    <path d="M167.173495,32.7999737 C167.015943,32.8012425 166.863155,32.7565842 166.743418,32.6742668 C166.471869,32.4847252 166.442704,32.1541883 166.678254,31.9357386 C166.834646,31.7943184 170.509851,28.4683228 177.058753,30.1496529 C177.281083,30.2057913 177.449264,30.3530046 177.499944,30.535839 C177.550624,30.7186733 177.476104,30.9093518 177.304454,31.0360477 C177.132805,31.1627437 176.890104,31.2062088 176.667774,31.1500704 C170.952961,29.6834897 167.792545,32.5014198 167.662219,32.6218889 C167.538689,32.7349121 167.360661,32.7997832 167.173495,32.7999737 Z" id="Path" fill="#1A2249"></path>
                </g>
            </g>
        </g>
    </g>
</svg>