<svg width="64" height="64" viewBox="0 0 64 64" fill="none" xmlns="http://www.w3.org/2000/svg">
<g clip-path="url(#clip0_2308_2261)">
<path d="M29.6304 19.0601L29.6073 19.0422C29.0625 18.6182 28.277 18.7166 27.8532 19.2615C27.4294 19.8064 27.5275 20.5917 28.0724 21.0156L28.0955 21.0335C28.3237 21.211 28.5938 21.2967 28.8622 21.2967C29.2345 21.2967 29.6033 21.131 29.8497 20.8142C30.2735 20.2694 30.1753 19.4839 29.6304 19.0601Z" fill="#4353FF"/>
<path d="M44.8826 34.3133C44.4616 33.7663 43.677 33.6636 43.1297 34.0848C42.5826 34.5056 42.4802 35.2905 42.9012 35.8376C48.8796 43.6091 49.6615 47.9513 48.75 48.8628C48.2411 49.3716 46.1572 49.542 41.5734 46.9529C37.3912 44.5909 32.524 40.726 27.8684 36.0703C23.2127 31.4145 19.3479 26.5473 16.9857 22.3653C14.3967 17.7814 14.567 15.6974 15.0759 15.1886C15.6802 14.5846 18.4395 14.5003 24.5577 18.5084C25.1351 18.8865 25.9097 18.7254 26.2884 18.1476C26.6666 17.5701 26.5051 16.7954 25.9276 16.417C21.6235 13.5975 15.9404 10.7888 13.308 13.4208C12.8069 13.9219 12.4889 14.562 12.3522 15.3325C12.3514 15.3356 12.3501 15.3386 12.3494 15.3418L0.0406208 62.4339C-0.0716292 62.8636 0.0524958 63.3208 0.366746 63.6345C0.604121 63.8715 0.922996 64 1.25 64C1.356 64 1.46262 63.9866 1.56787 63.9589L48.5985 51.5888C48.6032 51.5875 48.6076 51.5856 48.6124 51.5844C49.3797 51.447 50.0182 51.1301 50.5177 50.6306C54.0465 47.1019 47.7525 38.0439 44.8826 34.3133ZM22.11 39.0201L23.0917 40.3353L21.4507 40.3148C21.0394 40.305 20.6516 40.5073 20.4144 40.8433L19.4671 42.1835L18.9796 40.6165C18.8572 40.2236 18.5497 39.916 18.1567 39.7941L16.5895 39.3073L17.9292 38.3594C18.2651 38.1218 18.4625 37.734 18.4571 37.3226L18.4357 35.6815L19.7512 36.6626C20.081 36.9088 20.5107 36.9765 20.9002 36.8444L22.4544 36.3169L21.9277 37.8713C21.7956 38.2609 21.8637 38.6906 22.11 39.0201ZM22.0669 55.9823L12.7785 58.4253L14.0421 57.3193C14.3517 57.0483 14.5082 56.6424 14.4605 56.2336L13.9497 51.8606L17.7315 54.1153C18.0849 54.3261 18.5194 54.3495 18.8931 54.1776L22.8946 52.3408L22.0669 55.9823ZM24.793 55.2648L25.8931 50.4248C25.9986 49.9608 25.8315 49.4771 25.4621 49.1773C25.093 48.8776 24.5852 48.8131 24.1527 49.0118L18.4467 51.6313L13.054 48.416C12.6452 48.1721 12.1339 48.1816 11.7344 48.4404C11.335 48.699 11.1171 49.1619 11.1722 49.6346L11.9005 55.8706L7.35225 59.8525L3.00012 60.9973L13.4704 20.9389C13.8342 21.7724 14.28 22.6583 14.8089 23.5949C16.5852 26.7399 19.1579 30.2389 22.2519 33.7455L20.7191 34.2658L17.9 32.1634C17.5186 31.8789 17.0086 31.8359 16.5849 32.0516C16.1609 32.2678 15.8965 32.7058 15.9027 33.1816L15.9486 36.698L13.0777 38.7294C12.6894 39.0041 12.4907 39.4758 12.5651 39.9456C12.6397 40.4155 12.9746 40.8024 13.429 40.9434L16.7875 41.9865L17.8322 45.3444C17.9736 45.7988 18.3607 46.1335 18.8306 46.2076C18.8959 46.218 18.9612 46.223 19.026 46.223C19.4277 46.223 19.81 46.029 20.0465 45.6944L22.0762 42.8225L25.5927 42.8665C25.598 42.8666 25.6032 42.8666 25.6085 42.8666C26.0781 42.8666 26.5087 42.6033 26.7222 42.1838C26.9382 41.7598 26.8946 41.25 26.61 40.8688L24.506 38.0508L24.9685 36.6856C25.3406 37.0709 25.7175 37.4551 26.1001 37.8379C30.9114 42.649 35.9697 46.6591 40.3434 49.1294C41.2841 49.6606 42.1739 50.1085 43.0105 50.4731L24.793 55.2648Z" fill="#4353FF"/>
<path d="M57.9343 3.81912C57.2419 3.81337 56.6823 4.37412 56.6796 5.0645L56.6721 7.078C56.6716 7.21725 56.5579 7.33112 56.4188 7.33187L54.3954 7.34312C52.8905 7.3515 51.6618 8.58287 51.6561 10.0877L51.6485 12.1014C51.648 12.2406 51.5344 12.3545 51.3953 12.3552L49.3719 12.3665C47.867 12.3749 46.6383 13.6062 46.6326 15.1111L46.625 17.1249C46.6224 17.8151 47.1799 18.377 47.8704 18.3795H47.8751C48.5633 18.3795 49.1225 17.8229 49.125 17.1341L49.1326 15.1204C49.1331 14.9811 49.2468 14.8672 49.3859 14.8665L51.4093 14.8552C52.9141 14.8469 54.1429 13.6155 54.1485 12.1106L54.1561 10.097C54.1566 9.95775 54.2703 9.84387 54.4094 9.84312L56.4328 9.83187C57.9376 9.82349 59.1665 8.59212 59.1721 7.08725L59.1796 5.07375C59.1823 4.3835 58.6246 3.82162 57.9343 3.81912Z" fill="#4353FF"/>
<path d="M40.1044 6.69926L39.4939 4.78651C39.2839 4.12876 38.5809 3.76563 37.923 3.97588C37.2654 4.18576 36.9024 4.88913 37.1124 5.54676L37.7229 7.45951C37.7645 7.58988 37.6926 7.73076 37.5627 7.77351L35.6466 8.40488C34.2195 8.87526 33.4304 10.4224 33.8872 11.8536L34.4979 13.7665C34.5395 13.8969 34.4676 14.0378 34.3377 14.0805L32.4217 14.7118C31.766 14.9279 31.4096 15.6345 31.6256 16.2901C31.7987 16.816 32.2875 17.1494 32.8125 17.1494C32.9421 17.1494 33.0741 17.129 33.2039 17.0863L35.12 16.4549C36.5471 15.9845 37.3362 14.4375 36.8794 13.0063L36.2687 11.0934C36.2271 10.963 36.299 10.822 36.4289 10.7793L38.3449 10.148C39.7721 9.67776 40.5614 8.13063 40.1044 6.69926Z" fill="#4353FF"/>
<path d="M60.1437 25.6398L58.2643 24.9271C56.8624 24.3951 55.2782 25.0991 54.7334 26.4964L54.0066 28.3604C53.9578 28.4851 53.8164 28.5481 53.6915 28.5005L51.8121 27.7876C50.4096 27.2554 48.826 27.9599 48.2813 29.357L47.5545 31.2209C47.3037 31.8641 47.6218 32.5888 48.265 32.8395C48.4142 32.8978 48.5678 32.9254 48.7188 32.9254C49.2189 32.9254 49.691 32.6231 49.8837 32.1291L50.6105 30.2653C50.6593 30.1405 50.8007 30.0779 50.9257 30.1251L52.8051 30.8381C54.207 31.3698 55.7911 30.6655 56.3359 29.2685L57.0626 27.4045C57.1114 27.2799 57.2528 27.2169 57.3779 27.2646L59.2573 27.9774C59.9026 28.222 60.6244 27.8974 60.8693 27.2518C61.114 26.6063 60.7892 25.8845 60.1437 25.6398Z" fill="#4353FF"/>
<path d="M48.5548 1.86725H47.9376V1.25C47.9376 0.55975 47.3778 0 46.6876 0C45.9973 0 45.4376 0.55975 45.4376 1.25V1.86725H44.8203C44.1301 1.86725 43.5703 2.427 43.5703 3.11725C43.5703 3.8075 44.1301 4.36725 44.8203 4.36725H45.4376V4.9845C45.4376 5.67475 45.9973 6.2345 46.6876 6.2345C47.3778 6.2345 47.9376 5.67475 47.9376 4.9845V4.36725H48.5548C49.2451 4.36725 49.8048 3.8075 49.8048 3.11725C49.8048 2.427 49.2451 1.86725 48.5548 1.86725Z" fill="#4353FF"/>
<path d="M42.3252 22.362H41.6377V21.6745C41.6377 20.9842 41.0779 20.4245 40.3877 20.4245C39.6974 20.4245 39.1377 20.9841 39.1377 21.6745V22.362H38.4502C37.7599 22.362 37.2002 22.9217 37.2002 23.612C37.2002 24.3022 37.7599 24.862 38.4502 24.862H39.1377V25.5495C39.1377 26.2397 39.6974 26.7995 40.3877 26.7995C41.0779 26.7995 41.6377 26.2397 41.6377 25.5495V24.862H42.3252C43.0154 24.862 43.5752 24.3022 43.5752 23.612C43.5752 22.9217 43.0154 22.362 42.3252 22.362Z" fill="#4353FF"/>
<path d="M25.75 6.75H25.25V6.25C25.25 5.55975 24.6902 5 24 5C23.3098 5 22.75 5.55975 22.75 6.25V6.75H22.25C21.5598 6.75 21 7.30975 21 8C21 8.69025 21.5598 9.25 22.25 9.25H22.75V9.75C22.75 10.4402 23.3098 11 24 11C24.6902 11 25.25 10.4402 25.25 9.75V9.25H25.75C26.4402 9.25 27 8.69025 27 8C27 7.30975 26.4402 6.75 25.75 6.75Z" fill="#4353FF"/>
<path d="M33.0897 26.5H32.3954V25.8058C32.3954 25.1155 31.8357 24.5558 31.1454 24.5558C30.4552 24.5558 29.8954 25.1155 29.8954 25.8058V26.5H29.2012C28.5109 26.5 27.9512 27.0598 27.9512 27.75C27.9512 28.4403 28.5109 29 29.2012 29H29.8954V29.6943C29.8954 30.3845 30.4552 30.9443 31.1454 30.9443C31.8357 30.9443 32.3954 30.3845 32.3954 29.6943V29H33.0897C33.7799 29 34.3397 28.4403 34.3397 27.75C34.3397 27.0598 33.7799 26.5 33.0897 26.5Z" fill="#4353FF"/>
<path d="M57.9442 37.8192H57.2499V37.125C57.2499 36.4348 56.6902 35.875 55.9999 35.875C55.3097 35.875 54.7499 36.4348 54.7499 37.125V37.8192H54.0557C53.3654 37.8192 52.8057 38.379 52.8057 39.0692C52.8057 39.7595 53.3654 40.3192 54.0557 40.3192H54.7499V41.0134C54.7499 41.7036 55.3097 42.2634 55.9999 42.2634C56.6902 42.2634 57.2499 41.7036 57.2499 41.0134V40.3192H57.9442C58.6344 40.3192 59.1942 39.7595 59.1942 39.0692C59.1942 38.379 58.6344 37.8192 57.9442 37.8192Z" fill="#4353FF"/>
<path d="M63.6336 16.865C63.4013 16.6312 63.0788 16.4987 62.75 16.4987C62.4212 16.4987 62.0987 16.6312 61.8662 16.865C61.6337 17.0975 61.5 17.4199 61.5 17.7487C61.5 18.0775 61.6336 18.4 61.8662 18.6324C62.0987 18.8649 62.4212 18.9987 62.75 18.9987C63.0788 18.9987 63.4013 18.865 63.6336 18.6324C63.8661 18.4 64 18.0775 64 17.7487C64 17.4199 63.8663 17.0975 63.6336 16.865Z" fill="#4353FF"/>
<path d="M60.5839 48.6063C60.3514 48.3738 60.0288 48.24 59.7002 48.24C59.3714 48.24 59.0489 48.3738 58.8164 48.6063C58.5841 48.8388 58.4502 49.1613 58.4502 49.49C58.4502 49.8188 58.5839 50.1413 58.8164 50.3738C59.0489 50.6061 59.3714 50.74 59.7002 50.74C60.0289 50.74 60.3514 50.6063 60.5839 50.3738C60.8163 50.1413 60.9502 49.8188 60.9502 49.49C60.9502 49.1613 60.8164 48.8388 60.5839 48.6063Z" fill="#4353FF"/>
<path d="M18.0809 2.23375C17.8496 2.00125 17.5271 1.86737 17.1973 1.86737C16.8685 1.86737 16.546 2.00112 16.3135 2.23375C16.081 2.46612 15.9473 2.78862 15.9473 3.11737C15.9473 3.44612 16.0809 3.76862 16.3135 4.00112C16.5461 4.23362 16.8685 4.36737 17.1973 4.36737C17.5273 4.36737 17.8485 4.23375 18.0809 4.00112C18.3146 3.76737 18.4473 3.44612 18.4473 3.11737C18.4473 2.78862 18.3146 2.46612 18.0809 2.23375Z" fill="#4353FF"/>
<path d="M63.6336 0.36625C63.4013 0.133625 63.0788 0 62.75 0C62.4212 0 62.0987 0.133625 61.8662 0.36625C61.6337 0.598875 61.5 0.92125 61.5 1.25C61.5 1.57875 61.6336 1.90125 61.8662 2.13363C62.0987 2.36625 62.4212 2.5 62.75 2.5C63.0788 2.5 63.4013 2.36625 63.6336 2.13363C63.8663 1.90125 64 1.57875 64 1.25C64 0.92125 63.8663 0.59875 63.6336 0.36625Z" fill="#4353FF"/>
<path d="M42.5478 40.5487C42.3153 40.3164 41.9928 40.1825 41.6641 40.1825C41.3353 40.1825 41.0129 40.3162 40.7791 40.5487C40.5467 40.7812 40.4141 41.1037 40.4141 41.4325C40.4141 41.7612 40.5467 42.0837 40.7791 42.3162C41.0128 42.5499 41.3353 42.6825 41.6641 42.6825C41.9928 42.6825 42.3153 42.5499 42.5478 42.3162C42.7803 42.0837 42.9141 41.7624 42.9141 41.4325C42.9141 41.1037 42.7804 40.7812 42.5478 40.5487Z" fill="#4353FF"/>
<path d="M50.6728 22.7274C50.4403 22.495 50.1191 22.3624 49.7891 22.3624C49.4604 22.3624 49.1379 22.495 48.9054 22.7274C48.6729 22.9611 48.5391 23.2824 48.5391 23.6111C48.5391 23.9413 48.6728 24.2624 48.9054 24.4961C49.1378 24.7286 49.4603 24.8624 49.7891 24.8624C50.1192 24.8624 50.4403 24.7288 50.6728 24.4961C50.9053 24.2624 51.0391 23.9413 51.0391 23.6111C51.0391 23.2824 50.9054 22.9611 50.6728 22.7274Z" fill="#4353FF"/>
<path d="M43.3836 12.7439C43.1513 12.5114 42.8288 12.3775 42.5 12.3775C42.1712 12.3775 41.8487 12.5113 41.6162 12.7439C41.3837 12.9763 41.25 13.2988 41.25 13.6275C41.25 13.9563 41.3836 14.2788 41.6162 14.5113C41.8489 14.7438 42.1712 14.8775 42.5 14.8775C42.8288 14.8775 43.1513 14.7439 43.3836 14.5113C43.6161 14.2788 43.75 13.9563 43.75 13.6275C43.75 13.2988 43.6163 12.9763 43.3836 12.7439Z" fill="#4353FF"/>
</g>
<defs>
<clipPath id="clip0_2308_2261">
<rect width="64" height="64" fill="white"/>
</clipPath>
</defs>
</svg>
