<?xml version="1.0" encoding="UTF-8"?>
<svg width="128px" height="23px" viewBox="0 0 128 23" version="1.1" xmlns="http://www.w3.org/2000/svg" xmlns:xlink="http://www.w3.org/1999/xlink">
    <!-- Generator: sketchtool 55.2 (78181) - https://sketchapp.com -->
    <title>A9B09879-C2FA-4EF2-B3C9-5B6DAFFCD3D1</title>
    <desc>Created with sketchtool.</desc>
    <g id="Premium-account" stroke="none" stroke-width="1" fill="none" fill-rule="evenodd">
        <g id="Oliv_plus_LP_C" transform="translate(-256.000000, -1783.000000)" fill="#000000" fill-rule="nonzero">
            <g id="Customers" transform="translate(256.000000, 1591.000000)">
                <g id="Group-11">
                    <g id="Logo" transform="translate(0.000000, 184.000000)">
                        <g id="turner" transform="translate(0.000000, 8.000000)">
                            <g id="Layer_1_1_" transform="translate(0.875000, 0.500000)">
                                <path d="M105.393577,13.4257597 C105.755494,11.927592 105.965911,10.6314244 105.965911,9.36892344 C105.965911,4.20950301 102.515075,0.119000018 96.6318206,0.119000018 C90.2351493,0.119000018 85.1346455,4.89125351 84.1414781,11.1364247 C83.089394,17.7435129 87.1462303,22.1538495 93.4166516,22.1538495 C98.3656552,22.1538495 102.540325,19.3595141 104.67816,15.1259277 L97.1031543,15.1259277 C96.1604869,16.119095 94.9064027,16.3800119 93.8038185,16.3547619 C91.6239003,16.3126785 90.5970662,15.0249276 90.5633995,13.4089264 L105.393577,13.4257597 L105.393577,13.4257597 Z M96.2194036,5.68242075 C98.1468217,5.68242075 99.4429893,6.89442164 99.3756559,8.73767298 L91.5986503,8.73767298 C92.3645675,6.92808833 94.1068188,5.68242075 96.2194036,5.68242075 Z M121.477839,0.211583419 C118.86867,0.211583419 116.705585,2.34100164 116.705585,4.95858689 C116.705585,7.60142215 118.86867,9.76450707 121.477839,9.76450707 C124.120674,9.76450707 126.283759,7.60142215 126.250092,4.95858689 C126.283759,2.34941831 124.120674,0.211583419 121.477839,0.211583419 L121.477839,0.211583419 Z M76.5580559,0.09375 C74.1593042,0.09375 71.2471354,1.54141772 69.8331344,3.44358578 L70.641135,0.63241706 L63.8404633,0.63241706 L60.1371273,21.6488491 L67.4343826,21.6488491 L69.5301341,9.75609039 C69.8920511,7.77817228 71.4238855,6.42308796 73.2503035,6.42308796 C75.0178048,6.42308796 75.8594721,7.86233901 75.5312219,9.75609039 L73.443887,21.6488491 L80.7411423,21.6488491 L83.013644,8.73767298 C83.9478947,3.46041913 81.3639761,0.09375 76.5580559,0.09375 Z M1.19516754,0.63241706 L20.4020149,0.63241706 L19.215264,7.39100533 L13.3825098,7.39100533 L10.8659246,21.6488491 L3.56866927,21.6488491 L6.08525445,7.39100533 L0,7.39100533 L1.19516754,0.63241706 Z M22.0937661,0.63241706 L29.3910215,0.63241706 L27.3289366,12.3147589 C26.9670197,14.3263437 27.9012704,15.5299279 29.6687717,15.5299279 C31.5036064,15.5299279 32.9091907,14.267427 33.2711076,12.3147589 L35.3331925,0.63241706 L42.6304478,0.63241706 L40.6525297,11.8350086 C39.4236955,18.8629304 34.8618588,22.1285994 28.734521,22.1285994 C22.4893498,22.1285994 18.8870138,18.7030136 20.115848,11.8013419 L22.0937661,0.63241706 L22.0937661,0.63241706 Z M40.8208632,21.6488491 L48.1181185,21.6488491 L51.8214545,0.63241706 L44.5241992,0.63241706 L40.8208632,21.6488491 Z M56.6862914,0.211583419 C54.0771228,0.211583419 51.9140379,2.34100164 51.9140379,4.95858689 C51.9140379,7.60142215 54.0771228,9.76450707 56.6862914,9.76450707 C59.3291267,9.76450707 61.4922116,7.60142215 61.4585449,4.95858689 C61.4922116,2.34941831 59.3291267,0.211583419 56.6862914,0.211583419 L56.6862914,0.211583419 Z M105.595577,21.6488491 L112.892832,21.6488491 L116.596169,0.63241706 L109.298913,0.63241706 L105.595577,21.6488491 Z" id="Shape"></path>
                            </g>
                        </g>
                    </g>
                </g>
            </g>
        </g>
    </g>
</svg>