<svg width="32" height="26" viewBox="0 0 32 26" fill="none" xmlns="http://www.w3.org/2000/svg">
<path d="M10.04 26C22.1235 26 28.7305 15.9948 28.7305 7.32356C28.7305 7.0377 28.7305 6.75183 28.7169 6.47958C29.9974 5.55393 31.1145 4.39686 32 3.07644C30.8284 3.59372 29.5615 3.94764 28.2265 4.111C29.5888 3.29424 30.6241 2.01466 31.1145 0.476439C29.8476 1.22513 28.4444 1.76963 26.9459 2.06911C25.7471 0.78953 24.0443 0 22.1507 0C18.527 0 15.5845 2.94031 15.5845 6.56126C15.5845 7.07853 15.639 7.5822 15.7616 8.05864C10.2988 7.78639 5.46275 5.17278 2.22052 1.19791C1.66198 2.1644 1.33504 3.29424 1.33504 4.49215C1.33504 6.76545 2.49298 8.78011 4.26394 9.95079C3.18774 9.92356 2.17965 9.62408 1.29417 9.13403V9.21571C1.29417 12.401 3.55555 15.0419 6.5662 15.6545C6.02128 15.8042 5.4355 15.8859 4.8361 15.8859C4.41379 15.8859 4.00511 15.845 3.59642 15.7633C4.42742 18.377 6.85228 20.2691 9.72669 20.3236C7.47893 22.0796 4.64538 23.1278 1.56662 23.1278C1.03533 23.1278 0.517667 23.1005 0 23.0325C2.87441 24.911 6.33461 26 10.04 26Z" fill="#C2C6C9"/>
</svg>
