<?xml version="1.0" encoding="UTF-8"?>
<svg width="48px" height="16px" viewBox="0 0 48 16" version="1.1" xmlns="http://www.w3.org/2000/svg" xmlns:xlink="http://www.w3.org/1999/xlink">
    <!-- Generator: Sketch 48.2 (47327) - http://www.bohemiancoding.com/sketch -->
    <title>visa</title>
    <desc>Created with Sketch.</desc>
    <defs></defs>
    <g id="Desktop-HD" stroke="none" stroke-width="1" fill="none" fill-rule="evenodd" transform="translate(-1215.000000, -3996.000000)">
        <g id="FOOTER" transform="translate(254.000000, 3822.000000)" fill-rule="nonzero">
            <g id="Employers-Copy" transform="translate(961.000000, 0.000000)">
                <g id="visa" transform="translate(0.000000, 174.000000)">
                    <path d="M19.6042192,0.0378082192 L17.1971507,15.0167671 L21.0445479,15.0167671 L23.450137,0.0378082192 C23.450137,0.0378082192 19.6042192,0.0378082192 19.6042192,0.0378082192 Z M31.2093699,6.13939726 C29.8648767,5.47545205 29.0406575,5.02734247 29.0406575,4.34827397 C29.0570959,3.73084932 29.7376438,3.09830137 31.2573699,3.09830137 C32.5073425,3.06690411 33.4260822,3.36065753 34.1230685,3.65293151 L34.4722192,3.80876712 L34.9952877,0.674794521 C34.2353425,0.381041096 33.030411,0.057369863 31.5420822,0.057369863 C27.7426849,0.057369863 25.0673425,2.03276712 25.0507397,4.8580274 C25.0193425,6.94290411 26.966137,8.09983562 28.4230685,8.79386301 C29.9113973,9.50580822 30.4180274,9.96739726 30.4180274,10.5999452 C30.401589,11.5711233 29.2145753,12.0192329 28.1069589,12.0192329 C26.572274,12.0192329 25.7478904,11.7884384 24.4964384,11.2472877 L23.9898082,11.0164932 L23.4517808,14.2734247 C24.3555616,14.6751781 26.0176438,15.0287671 27.7428493,15.0468493 C31.7806027,15.0468493 34.4079452,13.1013699 34.4409863,10.0903562 C34.454137,8.43863014 33.4275616,7.17353425 31.2093699,6.13939726 Z M44.8587945,0.0841643836 L41.882137,0.0841643836 C40.9648767,0.0841643836 40.2678904,0.348 39.8707397,1.28926027 L34.1557808,15.0167671 L38.1935342,15.0167671 L39.305589,12.0447123 L43.8230137,12.0447123 L44.4,15.0287671 L47.9612055,15.0287671 L44.8587945,0.0841643836 Z M40.4253699,9.04537868 C40.5032877,9.05293151 41.9751781,4.19375342 41.9751781,4.19375342 L43.1472329,9.04537868 C43.1472329,9.04537868 41.1853151,9.04536986 40.4253699,9.04537868 Z M13.9823014,0.0378082192 L10.2128219,10.2146301 L9.80219178,8.20767123 C9.10520548,5.892 6.92005479,3.37561644 4.48142466,2.12564384 L7.93315068,15.0018082 L12.0039452,15.0018082 L18.0530959,0.0394520548 L13.9823014,0.0394520548 L13.9823014,0.0378082192 Z" id="Shape" fill="#2394BC"></path>
                    <path d="M8.53413699,1.96964384 C8.24038356,0.827506849 7.30356164,0.0572054795 6.03123288,0.0407671233 L0.0614794521,0.0407671233 L0,0.317917808 C4.65682192,1.4659726 8.56553425,4.99857534 9.83358904,8.32142466 L8.53413699,1.96964384 Z" id="Shape" fill="#EFC75E"></path>
                </g>
            </g>
        </g>
    </g>
</svg>