<?xml version="1.0" encoding="UTF-8"?>
<svg width="39px" height="13px" viewBox="0 0 39 13" version="1.1" xmlns="http://www.w3.org/2000/svg" xmlns:xlink="http://www.w3.org/1999/xlink">
    <!-- Generator: sketchtool 51.3 (57544) - http://www.bohemiancoding.com/sketch -->
    <title>2D8A55D7-B5E7-4B81-AD4B-AC13D419BEE6</title>
    <desc>Created with sketchtool.</desc>
    <defs></defs>
    <g id="Pricing" stroke="none" stroke-width="1" fill="none" fill-rule="evenodd">
        <g id="Checkout_A" transform="translate(-645.000000, -529.000000)">
            <g id="Content" transform="translate(273.000000, 136.000000)">
                <g id="Payment-Forms" transform="translate(0.000000, 156.000000)">
                    <g id="2" transform="translate(0.000000, 232.000000)">
                        <g id="Card">
                            <g id="Group-15">
                                <g id="Group-12" transform="translate(372.000000, 0.000000)">
                                    <g id="Group-18">
                                        <g id="visa_logo" transform="translate(0.000000, 4.824561)">
                                            <g id="visa-(1)">
                                                <g id="Group" transform="translate(0.579812, 0.193271)" fill="#1A1F71" fill-rule="nonzero">
                                                    <path d="M16.3769992,12.1628427 L13.3078294,12.1628427 L15.2260211,0.374304382 L18.2955063,0.374304382 L16.3769992,12.1628427 Z M10.7258545,0.374304382 L7.79984742,8.48255086 L7.45360798,6.73653286 L7.45392332,6.73716354 L6.4211964,1.43572692 C6.4211964,1.43572692 6.29632316,0.374304382 4.96528795,0.374304382 L0.128026604,0.374304382 L0.0712660407,0.573912363 C0.0712660407,0.573912363 1.55050939,0.881680751 3.28170657,1.92134507 L5.94819171,12.1631581 L9.14601878,12.1631581 L14.0290039,0.374304382 L10.7258545,0.374304382 Z M34.8664374,12.1628427 L37.6845994,12.1628427 L35.2274977,0.373989045 L32.7603052,0.373989045 C31.6209945,0.373989045 31.3434984,1.25251643 31.3434984,1.25251643 L26.7660743,12.1628427 L29.9654781,12.1628427 L30.6052958,10.4117793 L34.5069538,10.4117793 L34.8664374,12.1628427 Z M31.4891839,7.99283333 L33.1018146,3.58127621 L34.0090376,7.99283333 L31.4891839,7.99283333 Z M27.0060454,3.20917919 L27.4440477,0.677658059 C27.4440477,0.677658059 26.0925156,0.163659624 24.6835923,0.163659624 C23.1605172,0.163659624 19.543608,0.829334898 19.543608,4.06626369 C19.543608,7.11178326 23.7886674,7.14962363 23.7886674,8.74932551 C23.7886674,10.3490274 19.9809797,10.0623865 18.7243638,9.0536252 L18.268072,11.7005595 C18.268072,11.7005595 19.6385243,12.3662347 21.7323584,12.3662347 C23.8268232,12.3662347 26.9864945,11.2817926 26.9864945,8.33024335 C26.9864945,5.26517293 22.7032793,4.97979343 22.7032793,3.64718153 C22.7035947,2.3142543 25.692669,2.485482 27.0060454,3.20917919 Z" id="Shape"></path>
                                                </g>
                                                <path d="M8.03373552,6.93011894 L7.00100861,1.62868232 C7.00100861,1.62868232 6.87613537,0.567259781 5.54510016,0.567259781 L0.707838811,0.567259781 L0.651078247,0.766867762 C0.651078247,0.766867762 2.97605399,1.24870188 5.20611346,3.05400313 C7.33841862,4.77952426 8.03373552,6.93011894 8.03373552,6.93011894 Z" id="Shape" fill="#FDBB0A" fill-rule="nonzero"></path>
                                            </g>
                                        </g>
                                    </g>
                                </g>
                            </g>
                        </g>
                    </g>
                </g>
            </g>
        </g>
    </g>
</svg>